<?xml version="1.0" encoding="UTF-8" standalone="no"?>
<svg
   xmlns:dc="http://purl.org/dc/elements/1.1/"
   xmlns:cc="http://creativecommons.org/ns#"
   xmlns:rdf="http://www.w3.org/1999/02/22-rdf-syntax-ns#"
   xmlns:svg="http://www.w3.org/2000/svg"
   xmlns="http://www.w3.org/2000/svg"
   xmlns:sodipodi="http://sodipodi.sourceforge.net/DTD/sodipodi-0.dtd"
   xmlns:inkscape="http://www.inkscape.org/namespaces/inkscape"
   sodipodi:docname="artwork.svg"
   inkscape:version="1.0 (4035a4fb49, 2020-05-01)"
   id="svg8"
   version="1.1"
   viewBox="0 0 100.0 100.0"
   height="100.0mm"
   width="100.0mm">
  <defs
     id="defs2">
    <inkscape:perspective
       id="perspective1718"
       inkscape:persp3d-origin="49.999999 : 33.333333 : 1"
       inkscape:vp_z="99.999998 : 49.999999 : 1"
       inkscape:vp_y="0 : 1000 : 0"
       inkscape:vp_x="0 : 49.999999 : 1"
       sodipodi:type="inkscape:persp3d" />
    <inkscape:path-effect
       message="Use fill-rule evenodd on &lt;b&gt;fill and stroke&lt;/b&gt; dialog if no flatten result after convert clip to paths."
       hide_clip="false"
       flatten="false"
       inverse="true"
       lpeversion="1"
       is_visible="true"
       id="path-effect1467"
       effect="powerclip" />
    <inkscape:path-effect
       message="Use fill-rule evenodd on &lt;b&gt;fill and stroke&lt;/b&gt; dialog if no flatten result after convert clip to paths."
       hide_clip="false"
       flatten="false"
       inverse="true"
       lpeversion="1"
       is_visible="true"
       id="path-effect1146"
       effect="powerclip" />
    <clipPath
       id="clipPath1108"
       clipPathUnits="userSpaceOnUse">
      <g
         style="font-style:normal;font-variant:normal;font-weight:normal;font-stretch:normal;font-size:3.76254px;line-height:1.25;font-family:'Permanent Marker';-inkscape-font-specification:'Permanent Marker';letter-spacing:0px;word-spacing:0px;display:block;stroke-width:0.0940637"
         id="g1144"
         aria-label="May Contain Hackers">
        <path
           id="path1110"
           style="font-style:normal;font-variant:normal;font-weight:normal;font-stretch:normal;font-family:'Permanent Marker';-inkscape-font-specification:'Permanent Marker';stroke-width:0.0940637"
           d="m 58.417274,89.165249 q -0.03674,0 -0.113905,-0.01102 -0.05879,-0.06246 -0.106556,-0.169021 -0.04409,-0.11023 -0.06981,-0.231484 -0.02205,-0.124928 -0.02205,-0.246182 0.0037,-0.124928 0.04409,-0.220461 0,-0.0037 0.03307,-0.08818 0.03674,-0.08451 0.09186,-0.213112 0.05512,-0.132277 0.124928,-0.290275 0.06981,-0.161671 0.139626,-0.315994 0.06981,-0.154323 0.132277,-0.279251 0.06614,-0.128603 0.113905,-0.198415 0.03307,-0.05144 0.05879,-0.09921 0.0294,-0.04777 0.05512,-0.08818 0.04042,-0.06614 0.07349,-0.121253 0.03674,-0.05879 0.07716,-0.102882 0.04409,-0.04777 0.09553,-0.08084 0.05144,-0.03674 0.124928,-0.06246 0.04409,0.01837 0.07716,0.04042 0.03307,0.01837 0.05879,0.04777 l 0.01102,0.05144 q 0.0073,0.02572 0.02205,0.03674 0.01837,0.0073 0.0294,0.0073 0.04777,0.01102 0.08084,0.02572 0.03674,0.01102 0.07716,0.0147 0.0147,0.02205 0.02572,0.04409 0.0147,0.02205 0.0294,0.04042 0.07349,0.106556 0.121253,0.205764 0.04777,0.09921 0,0.216787 l 0.0037,0.04042 q 0.01837,0.02572 0.01837,0.04777 0,0.02205 -0.0073,0.06246 -0.0037,0.02939 -0.0073,0.06614 0,0.03307 0.01102,0.07349 l 0.02572,0.0294 q 0.05879,0.02939 0.113905,0.02939 0.07349,0 0.132276,-0.03307 0.05879,-0.03307 0.110231,-0.06614 0.04042,-0.02939 0.07349,-0.04777 0.03674,-0.01837 0.06981,-0.02572 0.07716,-0.07349 0.139625,-0.128603 0.06614,-0.05879 0.135952,-0.117579 0.132276,-0.106556 0.257204,-0.22781 0.124929,-0.124928 0.198416,-0.308646 0.04042,-0.02572 0.09186,-0.02572 0.05144,0 0.102881,0.02205 0.05144,0.01837 0.102882,0.04409 0.01102,0.0073 0.01837,0.01102 0.01102,0.0037 0.02205,0.01102 0,0.04042 0.03307,0.07349 0.01837,0.0147 0.02572,0.01837 0.0073,0.0037 0.0147,0.0073 0.0294,0.01837 0.04777,0.03307 0.02205,0.0147 0.03307,0.04042 0.03307,0.09921 0.110231,0.154323 -0.0073,0.04042 0.0037,0.08084 0.01102,0.03674 0.02572,0.07349 0.0073,0.0147 0.01102,0.02939 0.0037,0.01102 0.01102,0.02939 l -0.08084,-0.0073 0.01102,0.08083 q 0.01102,0.06246 -0.01102,0.139626 -0.01837,0.07716 -0.04409,0.121254 0.0073,0.11023 0.0073,0.176369 0,0.06246 -0.0073,0.117579 -0.0073,0.05512 -0.02572,0.106556 -0.0147,0.04777 -0.04042,0.102882 0.0147,0.279251 -0.06614,0.510736 -0.07716,0.231484 -0.16902,0.433574 -0.01102,0.02572 -0.02205,0.04777 -0.01102,0.02205 -0.01837,0.04409 -0.04042,0.01102 -0.07349,0.02572 -0.03307,0.0147 -0.06246,0.03307 -0.04042,0.02572 -0.08084,0.04409 -0.04042,0.0147 -0.08451,0.0147 -0.176369,-0.128602 -0.183718,-0.444597 -0.0037,-0.315995 0.135951,-0.804684 0.02572,-0.01837 0.02205,-0.05512 v -0.04042 l -0.03674,-0.0037 q -0.01837,0 -0.03307,0.0037 -0.0147,0.0037 -0.02205,0.03307 -0.117579,0.08451 -0.257205,0.176369 -0.135951,0.08818 -0.282925,0.165346 -0.146974,0.07349 -0.301297,0.124928 -0.150649,0.04777 -0.293949,0.04777 -0.367435,0 -0.554827,-0.374784 l -0.03307,-0.06614 -0.03674,0.05879 q -0.01102,0.01837 -0.04042,0.07349 -0.02572,0.05144 -0.05512,0.121254 -0.02572,0.06981 -0.04777,0.1433 -0.01837,0.07349 -0.01102,0.128602 -0.04409,0.04042 -0.08818,0.09186 -0.04042,0.05144 -0.05879,0.117579 -0.0073,0.01837 -0.0037,0.03674 0.0037,0.0147 0.01102,0.03307 -0.0037,0.02572 -0.0147,0.03674 -0.01102,0.01102 -0.02572,0.02205 -0.01837,0.01837 -0.03674,0.04042 -0.01837,0.01837 -0.03307,0.04409 -0.0073,0.02205 -0.01102,0.04777 -0.0037,0.02205 -0.0073,0.04042 0,0.04042 -0.01102,0.05512 -0.03674,0.07716 -0.06614,0.128602 -0.02572,0.04777 -0.05144,0.07349 -0.02572,0.02572 -0.05512,0.03307 -0.02572,0.01102 -0.06246,0.01102 z" />
        <path
           id="path1112"
           style="font-style:normal;font-variant:normal;font-weight:normal;font-stretch:normal;font-family:'Permanent Marker';-inkscape-font-specification:'Permanent Marker';stroke-width:0.0940637"
           d="m 63.693649,88.805162 q -0.02205,0.06246 -0.06614,0.128602 -0.04042,0.06246 -0.09921,0.113905 -0.05512,0.04777 -0.124928,0.08084 -0.06981,0.03307 -0.146975,0.03674 -0.04777,-0.01102 -0.06614,-0.02572 -0.0147,-0.01102 -0.03307,-0.02205 -0.01102,-0.0073 -0.02205,-0.01102 -0.0073,-0.0073 -0.0147,-0.01102 l -0.04409,-0.01837 0.0147,-0.04777 q 0.0073,-0.02939 -0.0037,-0.04409 -0.01102,-0.01837 -0.04409,-0.04777 -0.01102,-0.01102 -0.02205,-0.02205 -0.01102,-0.01102 -0.01837,-0.02205 l -0.06246,-0.06981 0.09921,-0.02572 q 0.09186,-0.02572 0.121254,-0.06614 0.03307,-0.04042 0.02572,-0.135951 -0.07349,-0.0147 -0.124928,-0.0037 -0.04777,0.01102 -0.09921,0.02572 -0.06614,0.01837 -0.135951,0.03307 -0.06614,0.01102 -0.146974,0.01102 -0.0294,0 -0.05512,0 -0.02572,-0.0037 -0.05512,-0.0073 l -0.03674,-0.0073 q -0.0073,-0.04042 -0.0147,-0.04409 -0.0073,-0.0073 -0.0147,-0.0147 -0.01837,-0.01837 -0.04042,-0.04777 -0.01837,-0.03307 -0.0073,-0.08084 -0.01837,-0.03307 -0.02205,-0.06614 -0.02205,0.04409 -0.03307,0.09186 l -0.0147,0.03674 -0.03674,0.0073 q -0.0073,0.0037 -0.01102,0.01837 -0.0037,0.01102 -0.0037,0.01837 l -0.01837,0.06246 q -0.0073,0.0073 -0.0147,0.0147 -0.0073,0.0037 -0.0147,0.01102 -0.0073,0.03307 -0.01837,0.06614 -0.01102,0.03307 -0.02205,0.06246 -0.01837,0.04777 -0.03307,0.09553 -0.01102,0.04409 -0.0073,0.08818 l -0.0147,0.04042 q -0.01837,0.02205 -0.04042,0.03674 -0.02205,0.01102 -0.04409,0.02205 -0.0073,0.0073 -0.02205,0.0147 -0.01102,0.0037 -0.01837,0.0073 l -0.01102,0.04042 -0.04409,0.0073 q -0.04042,0.0073 -0.05879,0.01102 -0.0147,0.0037 -0.03674,0.0037 l -0.03674,-0.0037 q -0.04042,-0.03307 -0.06246,-0.05144 -0.02205,-0.02205 -0.05144,-0.04042 -0.03307,-0.04409 -0.03674,-0.06614 -0.0037,-0.02205 -0.0073,-0.04042 -0.0073,-0.02205 -0.0073,-0.03674 -0.0037,-0.0147 -0.01102,-0.02205 l -0.04777,-0.04409 0.04042,-0.03307 0.0037,-0.06247 q 0.07349,-0.187392 0.154323,-0.360086 0.08451,-0.172695 0.172694,-0.352739 0.0294,-0.05879 0.05512,-0.117579 0.02939,-0.05879 0.05879,-0.117579 -0.0037,-0.01102 -0.0037,-0.02572 0,-0.0147 0.0073,-0.03307 0.04042,-0.06246 0.06614,-0.110231 0.02572,-0.05144 0.05144,-0.102882 0.0294,-0.06246 0.05879,-0.121253 0.03307,-0.05879 0.08084,-0.121254 l 0.05879,-0.02572 q 0.01102,-0.0037 0.02572,-0.0073 0.0147,-0.0073 0.03307,-0.0073 l 0.05512,0.0073 q 0.102882,-0.04777 0.180044,-0.132277 0.07716,-0.08819 0.157997,-0.209438 l 0.03674,-0.05144 0.04777,0.02939 q 0.01837,0.01102 0.05144,0.02205 0.03307,0.0073 0.06981,0.01837 0.06614,0.0147 0.124928,0.03307 0.05879,0.01837 0.09553,0.05512 0.02205,0.05879 0.02572,0.08818 0.0037,0.02939 0.01102,0.05879 0.01102,0.06246 0.01837,0.124928 0.01102,0.06246 0.0147,0.139626 0.01837,0.06246 0.0294,0.124928 0.0147,0.05879 0.02572,0.121254 0.01837,0.08818 0.03674,0.172694 0.01837,0.08084 0.04777,0.154323 0.02939,0 0.03674,0.0037 0.01837,-0.0073 0.03674,-0.01102 0.02205,-0.0037 0.04777,-0.0073 l 0.04042,-0.0037 0.0147,0.03674 q 0.0037,0.01837 0.03674,0.03674 0.04777,0.0037 0.06981,0.02205 0.02205,0.0147 0.04042,0.03307 0.0147,0.0147 0.0294,0.02205 l 0.05512,0.02205 -0.0294,0.05512 q -0.03674,0.06614 -0.106556,0.128602 -0.06614,0.05879 -0.150649,0.09921 0.0037,0.02205 0.0037,0.04409 0.0037,0.01837 0.01102,0.04042 0.01102,0.06246 0.01837,0.128602 0.0073,0.06614 0,0.135951 z M 62.63176,88.169498 q 0.110231,-0.0073 0.198415,-0.0147 0.09186,-0.01102 0.20209,-0.03307 -0.02572,-0.110231 -0.05512,-0.22781 -0.02939,-0.121254 -0.06246,-0.238833 l -0.02205,0.03674 q -0.07349,0.07716 -0.1433,0.172695 -0.06614,0.09553 -0.113905,0.180043 -0.02205,0.03307 -0.04409,0.06614 -0.02205,0.03307 -0.04042,0.06614 0.02205,-0.0037 0.04042,-0.0037 0.02205,0 0.04042,-0.0037 z" />
        <path
           id="path1114"
           style="font-style:normal;font-variant:normal;font-weight:normal;font-stretch:normal;font-family:'Permanent Marker';-inkscape-font-specification:'Permanent Marker';stroke-width:0.0940637"
           d="m 64.998045,88.151127 q -0.02572,0.02205 -0.04409,0.05512 -0.01837,0.02939 -0.03674,0.06246 -0.01837,0.04042 -0.04042,0.07716 -0.02205,0.03674 -0.05512,0.06614 -0.01837,0.05512 -0.03674,0.08818 -0.01837,0.02939 -0.05879,0.06981 -0.03674,0.146974 -0.172695,0.319669 -0.0037,0.03307 -0.02205,0.06614 -0.0147,0.02939 -0.03307,0.05879 -0.0073,0.01102 -0.0147,0.02572 -0.0073,0.01102 -0.01102,0.01837 l -0.0073,0.03674 q -0.01837,0.02939 -0.04042,0.05144 -0.02205,0.02205 -0.04042,0.04042 -0.0073,0.01102 -0.02572,0.02939 l -0.05512,0.02205 q -0.268228,-0.03674 -0.327018,-0.2866 l 0.0037,-0.03674 q 0.0073,-0.01837 0.01102,-0.03674 0.0073,-0.02205 0.0147,-0.04409 0.0147,-0.05144 0.03307,-0.102882 0.02205,-0.05144 0.06246,-0.09186 0.0073,-0.02572 0.03307,-0.08084 0.02572,-0.05879 0.08818,-0.172695 0.05144,-0.08818 0.08084,-0.139625 0.0294,-0.05144 0.04777,-0.08084 -0.03674,-0.05879 -0.08818,-0.106556 -0.04777,-0.09186 -0.08451,-0.176369 -0.03307,-0.08451 -0.05144,-0.150649 -0.0037,-0.04777 -0.01102,-0.08084 -0.0073,-0.03307 -0.0147,-0.06981 -0.01102,-0.04042 -0.01837,-0.08084 -0.0073,-0.04042 -0.0073,-0.08451 -0.01837,-0.02572 -0.02205,-0.05144 l 0.0073,-0.03674 q 0.01102,-0.02572 0.0037,-0.06614 -0.0073,-0.04409 -0.01837,-0.08818 -0.0073,-0.03674 -0.01837,-0.08084 -0.0073,-0.04409 -0.0037,-0.08818 0.0037,-0.04409 0.02205,-0.08084 0.02205,-0.04042 0.06981,-0.06981 l 0.06246,-0.0037 q 0.03307,0.01837 0.06246,0.03674 0.03307,0.0147 0.06246,0.03307 0.04042,0.01837 0.07716,0.03674 0.03674,0.01837 0.07716,0.04777 l 0.02572,0.05144 0.04777,0.04042 v 0.04042 q 0.0037,0.0147 0.0037,0.04042 0,0.04777 0.0147,0.05879 l 0.0147,0.04409 q 0,0.05144 0.01102,0.09921 0.01102,0.04409 0.02205,0.08451 0.01102,0.04042 0.02205,0.08451 0.01102,0.04409 0.0037,0.09553 0.02205,-0.01102 0.03674,-0.02572 0.0073,-0.0073 0.0147,-0.01102 0.0073,-0.0037 0.0147,-0.01102 l 0.216787,-0.293949 -0.0073,-0.03674 0.07716,-0.07349 q 0.02939,-0.0294 0.05512,-0.05512 0.02939,-0.02572 0.04777,-0.05512 l 0.04042,-0.0294 q 0.117579,-0.183718 0.334366,-0.22781 l 0.05144,-0.0073 0.0147,0.04777 q 0.0147,0.04042 0.05879,0.07349 0.04777,0.03307 0.09921,0.06246 l 0.03307,0.02205 q 0.01837,0.03674 0.01837,0.05512 0,0.01837 -0.0037,0.03307 l 0.0147,0.03674 q -0.02939,0.08818 -0.07349,0.128603 -0.04042,0.04042 -0.08084,0.07349 -0.03307,0.0294 -0.06246,0.05512 -0.02572,0.02205 -0.04042,0.05879 l -0.02572,0.02939 q -0.07716,0.04409 -0.09921,0.117579 l -0.01102,0.04409 h -0.04409 q -0.0037,0 -0.01837,0.0147 -0.01102,0.01102 -0.03674,0.06246 -0.02572,0.03674 -0.03674,0.04777 -0.01102,0.01102 -0.01837,0.01837 -0.0037,0.0147 -0.01102,0.02939 -0.0037,0.01102 -0.01102,0.0294 -0.04777,0.04777 -0.05879,0.07349 -0.01102,0.02205 -0.02572,0.05144 -0.0147,0.02939 -0.02939,0.05879 -0.01102,0.02572 -0.04042,0.05512 z" />
        <path
           id="path1116"
           style="font-style:normal;font-variant:normal;font-weight:normal;font-stretch:normal;font-family:'Permanent Marker';-inkscape-font-specification:'Permanent Marker';stroke-width:0.0940637"
           d="m 67.063032,88.794139 q -0.106556,-0.08084 -0.176369,-0.20209 -0.06614,-0.121254 -0.106556,-0.257205 -0.03674,-0.135951 -0.05144,-0.279251 -0.01102,-0.146974 -0.0073,-0.279251 0.03307,-0.09921 0.08084,-0.180043 0.04777,-0.08451 0.106556,-0.157997 0.05879,-0.07716 0.121254,-0.1433 0.06614,-0.06981 0.128603,-0.139626 0.02205,0 0.04042,0.01102 0.0147,-0.04042 0.04409,-0.06981 0.02939,-0.02939 0.06246,-0.05144 0.03307,-0.02572 0.06614,-0.04777 0.03307,-0.02572 0.05512,-0.05879 0.09186,-0.02205 0.161671,-0.06246 0.07349,-0.04042 0.139626,-0.08818 0.06614,-0.04777 0.135951,-0.08819 0.06981,-0.04042 0.161672,-0.06246 0.03307,-0.03674 0.08084,-0.06246 0.05144,-0.02572 0.09921,-0.04777 0.05144,-0.02205 0.09553,-0.04777 0.04777,-0.02572 0.07716,-0.06981 0.02205,0.0294 0.06246,0.02205 0.04042,-0.01102 0.07349,-0.02205 0.02205,-0.0037 0.03674,0.0073 0.0147,0.01102 0.02572,0.02572 0.0147,0.01102 0.02205,0.0147 0.01102,0.0037 0.02205,-0.02205 0.02939,0.0037 0.0147,0.02572 -0.01102,0.02205 -0.0147,0.0294 0.03674,-0.0073 0.05879,0.0147 0.02572,0.01837 0.07716,0.02572 0.01837,0.01837 0.01102,0.02939 -0.0073,0.01102 -0.01102,0.03674 0.132277,0.04042 0.169021,0.128603 0.03674,0.08451 0.0073,0.180043 -0.02939,0.09186 -0.11023,0.172695 -0.07716,0.07716 -0.172695,0.102882 -0.113905,0.02939 -0.213113,0.05879 -0.09553,0.0294 -0.187392,0.06614 -0.08818,0.03674 -0.16902,0.08818 -0.07716,0.04777 -0.135951,0.113905 -0.102882,0.02939 -0.187392,0.08084 -0.08084,0.05144 -0.154323,0.113905 -0.06981,0.06246 -0.135952,0.132277 -0.06614,0.06614 -0.132276,0.132277 0,0.06246 -0.02205,0.09553 -0.02205,0.03307 -0.04777,0.06614 0.0073,0.06981 0.02939,0.121254 0.02572,0.04777 0.05144,0.09921 0.293948,0.08818 0.620966,0.11023 0.330692,0.01837 0.654035,0.02205 0.03307,0.04409 0.07349,0.08451 0.04409,0.03674 0.07716,0.07716 0.03674,0.04042 0.05512,0.09553 0.02205,0.05144 0.01102,0.124928 -0.06246,0.06247 -0.135951,0.121254 -0.07349,0.05512 -0.146974,0.110231 -0.03307,0.0037 -0.08084,0 -0.04409,-0.0037 -0.09553,-0.0037 -0.04777,0 -0.09921,0.0073 -0.04777,0.0037 -0.09186,0.02205 -0.231484,-0.0073 -0.473992,-0.05512 -0.242507,-0.05144 -0.448271,-0.121254 -0.04042,-0.04777 -0.08451,-0.08818 -0.04409,-0.04409 -0.11758,-0.06246 z" />
        <path
           id="path1118"
           style="font-style:normal;font-variant:normal;font-weight:normal;font-stretch:normal;font-family:'Permanent Marker';-inkscape-font-specification:'Permanent Marker';stroke-width:0.0940637"
           d="m 71.163614,88.011501 q -0.0037,0.04409 0.0073,0.08451 0.01102,0.04042 0.02572,0.08084 0.01837,0.03674 0.03307,0.07716 0.0147,0.04042 0.02205,0.08084 0.0073,0.05144 0,0.113905 -0.0073,0.05879 -0.02572,0.11758 -0.01837,0.05512 -0.04777,0.102882 -0.02939,0.04409 -0.06981,0.06614 -0.05144,0.06614 -0.124928,0.102882 -0.07349,0.03674 -0.135951,0.08819 -0.04042,0.02572 -0.09186,0.03674 -0.04777,0.01102 -0.09921,0.02205 -0.04042,0.02205 -0.09553,0.04777 -0.05512,0.02205 -0.113905,0.04409 -0.05879,0.01837 -0.117579,0.0294 -0.05879,0.0073 -0.102882,0.0037 -0.110231,0.04042 -0.216787,0.05144 -0.102882,0.0147 -0.242507,-0.0147 -0.132277,0.01837 -0.246182,-0.01102 -0.110231,-0.02939 -0.198415,-0.09186 -0.08451,-0.06614 -0.150649,-0.154323 -0.06246,-0.09186 -0.102882,-0.191067 -0.0294,-0.209438 0.0147,-0.378458 0.04409,-0.172695 0.124928,-0.315995 0.08451,-0.146974 0.191067,-0.268228 0.106556,-0.124928 0.205764,-0.242507 0.02205,0.0073 0.03307,0 0.0147,-0.01102 0.02572,-0.02572 0.01102,-0.01837 0.02205,-0.03307 0.0147,-0.0147 0.03307,-0.01837 0.02572,-0.05512 0.07349,-0.08084 0.05144,-0.02939 0.08084,-0.08084 0.03307,-0.0073 0.05512,-0.02205 0.02205,-0.0147 0.04042,-0.03307 0.02205,-0.01837 0.04409,-0.03307 0.02205,-0.01837 0.05144,-0.02572 v -0.04042 q 0.06614,-0.0294 0.09553,-0.06614 0.03307,-0.04042 0.07716,-0.09553 0.03307,-0.0037 0.05144,-0.0037 0.02205,0 0.06246,-0.0073 0.0294,-0.05144 0.05144,-0.07716 0.02572,-0.02572 0.07349,-0.05512 0.04409,0.02205 0.09553,0.0294 0.05512,0.0073 0.09553,0.04777 0.0037,0.03674 0.02205,0.05879 0.01837,0.01837 0.04042,0.03674 0.02205,0.0147 0.04042,0.03307 0.02205,0.01837 0.02939,0.05144 0.0147,0.0037 0.01837,-0.0037 0.0073,-0.0073 0.02205,-0.0037 0.01102,0.05144 0.02572,0.06981 0.0147,0.0147 0.0294,0.06246 -0.01837,0.03674 -0.0294,0.07716 -0.0073,0.03674 -0.04409,0.05512 -0.0037,0.02572 0.0147,0.0294 0.01837,0 0.02205,0.01837 0.0037,0.03307 -0.01102,0.04777 0.08819,0.1433 0.157997,0.304972 0.06981,0.157997 0.157998,0.301297 z m -0.459295,0.349064 q 0.0147,-0.04042 0.03674,-0.06614 0.02572,-0.02572 0.0294,-0.07716 -0.01837,-0.02939 -0.02205,-0.04409 -0.0037,-0.01837 -0.0037,-0.05512 -0.08084,-0.113905 -0.139625,-0.242507 -0.05879,-0.132277 -0.132277,-0.246182 -0.0073,0.0147 -0.02572,0.02939 -0.01837,0.0147 -0.04042,-0.0073 -0.0073,0.02939 -0.02572,0.04409 -0.01837,0.01102 -0.04042,0.01102 -0.02205,-0.0037 -0.04777,-0.01102 -0.02205,-0.01102 -0.04042,-0.02572 -0.106556,0.08451 -0.213112,0.165346 -0.106556,0.08084 -0.191067,0.187392 -0.0147,0.0073 -0.01837,0.0073 -0.0037,-0.0037 -0.02205,0.0037 -0.02939,0.06981 -0.07349,0.128603 -0.04042,0.05512 -0.08084,0.113905 -0.04042,0.05879 -0.06981,0.124928 -0.02939,0.06614 -0.03307,0.154323 0.06246,0.05144 0.146974,0.06246 0.08451,0.01102 0.172694,0.0037 0.09186,-0.0073 0.17637,-0.02205 0.08818,-0.01837 0.161671,-0.01837 0.154323,-0.03674 0.264554,-0.09553 0.11023,-0.06246 0.231484,-0.124928 z" />
        <path
           id="path1120"
           style="font-style:normal;font-variant:normal;font-weight:normal;font-stretch:normal;font-family:'Permanent Marker';-inkscape-font-specification:'Permanent Marker';stroke-width:0.0940637"
           d="m 72.140993,88.445075 q -0.03307,0.0073 -0.04777,0.04042 -0.0147,0.02939 -0.0294,0.06246 -0.01102,0.03307 -0.02572,0.06246 -0.01102,0.02572 -0.03674,0.02572 -0.0037,0.0294 -0.02205,0.05144 -0.0147,0.02205 -0.02939,0.04777 -0.0147,0.02205 -0.02205,0.05144 -0.0073,0.02572 0.0073,0.06246 -0.0294,0.02205 -0.03674,0.06246 -0.0073,0.04042 -0.01837,0.07716 -0.0073,0.03674 -0.02939,0.06246 -0.02205,0.02572 -0.08084,0.02205 -0.01102,0.0147 -0.0037,0.01837 0.0073,0.0037 0.01102,0.02572 -0.04042,-0.0073 -0.06246,0.0037 -0.01837,0.0147 -0.04777,0.01837 -0.06981,-0.02205 -0.11758,-0.07716 -0.04409,-0.05512 -0.08084,-0.121254 -0.03307,-0.06981 -0.06246,-0.139626 -0.02572,-0.06981 -0.05144,-0.121253 0.01102,-0.04042 0.0037,-0.07716 -0.0073,-0.04042 -0.02572,-0.06614 0.180044,-0.382133 0.393156,-0.815707 0.213113,-0.433574 0.404179,-0.856125 0.08451,0.03307 0.165346,0.07716 0.08451,0.04042 0.150649,0.09553 0.06981,0.05512 0.117579,0.128602 0.04777,0.06981 0.06246,0.157998 -0.0073,0.02205 -0.01837,0.01837 -0.0073,-0.0073 -0.0147,0.0037 0.0147,0.01837 0.0147,0.02572 0.0037,0.0073 0,0.0147 0,0.0073 0,0.02205 0,0.01102 0.01102,0.03307 -0.0147,-0.0037 -0.02205,0.0037 -0.0037,0.0073 -0.02205,0 0.0147,0.04042 0.0073,0.06614 -0.0037,0.02572 -0.0147,0.04777 -0.01102,0.01837 -0.01837,0.04409 -0.0073,0.02205 0.0037,0.05879 -0.01102,0 -0.01837,0.0073 -0.0037,0.0037 -0.0073,0.01102 -0.0037,0.0037 -0.01102,0.01102 -0.0037,0.0037 -0.0147,0 0.01102,0.08084 0.0073,0.161672 -0.0037,0.08084 -0.0073,0.165346 0,0.08084 0.0037,0.172694 0.0037,0.08819 0.02572,0.183718 0.132277,-0.07716 0.209439,-0.198415 0.08083,-0.121254 0.128602,-0.271902 0.05144,-0.150649 0.07716,-0.323344 0.02572,-0.172694 0.05512,-0.352738 0.03307,-0.03307 0.05144,-0.08084 0.01837,-0.04777 0.03307,-0.09921 0.0147,-0.05512 0.0294,-0.106556 0.0147,-0.05512 0.03674,-0.09921 0.05512,0.0073 0.09186,0.03674 0.04042,0.02572 0.07349,0.05879 0.03307,0.0294 0.06981,0.05879 0.03674,0.02572 0.09186,0.03307 0.04409,0.06246 0.08084,0.121254 0.03674,0.05879 0.04777,0.124928 -0.01837,0.0294 -0.02939,0.06614 -0.0073,0.03674 -0.01837,0.07349 -0.01102,0.03674 -0.02939,0.06981 -0.01837,0.02939 -0.05144,0.05144 -0.01102,0.09553 -0.0294,0.176369 -0.0147,0.07716 -0.03307,0.154323 -0.0147,0.07716 -0.02572,0.161672 -0.01102,0.08084 -0.0073,0.180043 -0.02939,0.08451 -0.06246,0.180044 -0.03307,0.09553 -0.05144,0.172694 -0.05879,0.04777 -0.09186,0.113905 -0.03307,0.06614 -0.06981,0.132277 -0.0147,0.0147 -0.01837,0.0073 -0.0037,-0.0073 -0.02572,-0.01102 0.0037,0.0147 0,0.02205 -0.0037,0.0073 -0.01102,0.0147 -0.0037,0.0037 -0.0073,0.0147 0,0.01102 0.0073,0.02939 -0.05144,0.02205 -0.09186,0.06246 -0.04042,0.04042 -0.08818,0.07349 -0.04409,0.03307 -0.11023,0.04409 -0.06246,0.01102 -0.165346,-0.02572 -0.150649,-0.110231 -0.268228,-0.253531 -0.113905,-0.1433 -0.187392,-0.341715 z" />
        <path
           id="path1122"
           style="font-style:normal;font-variant:normal;font-weight:normal;font-stretch:normal;font-family:'Permanent Marker';-inkscape-font-specification:'Permanent Marker';stroke-width:0.0940637"
           d="m 75.602235,87.346443 q -0.09186,0 -0.198415,0.0147 -0.106556,0.01102 -0.209438,0.02572 -0.07349,0.01102 -0.1433,0.01837 -0.06614,0.0073 -0.121254,0.01102 -0.02572,0.08084 -0.05144,0.1433 -0.02572,0.06246 -0.05512,0.121254 -0.0294,0.06246 -0.05512,0.128602 -0.02205,0.06246 -0.04409,0.135952 -0.03674,0.05879 -0.06246,0.11023 -0.02205,0.04777 -0.03674,0.110231 -0.04409,0.05512 -0.06614,0.117579 -0.02205,0.05879 -0.03307,0.102882 l -0.0147,0.04409 q -0.02205,0.02205 -0.02572,0.03674 -0.0037,0.01102 -0.01837,0.02205 -0.0037,0.04042 -0.02572,0.08084 -0.0073,0.01837 -0.01102,0.03674 -0.0037,0.0147 -0.0037,0.02205 0,0.03674 -0.01837,0.04777 0.0037,0.01837 0,0.04042 -0.0037,0.01837 -0.0073,0.03674 -0.01102,0.04409 -0.0073,0.06981 0.01102,0.0147 0.01837,0.02572 0.01102,0.01102 0.0147,0.02939 0.02205,0.0147 0.03307,0.01837 0.0147,0.01102 0.04409,0.02572 l 0.03307,0.03674 q 0.01837,0.106556 -0.03307,0.16902 -0.05512,0.06981 -0.187392,0.06981 h -0.04409 q -0.01837,-0.01837 -0.02205,-0.02939 -0.02939,-0.01102 -0.04777,-0.01837 -0.01837,-0.0073 -0.03307,-0.02939 -0.04777,-0.02205 -0.07716,-0.03674 l -0.03307,-0.01837 q 0,-0.04042 0,-0.04409 -0.02572,-0.03307 -0.04042,-0.07349 -0.01102,-0.04042 -0.01837,-0.08084 -0.0073,-0.03307 -0.01837,-0.06246 -0.0073,-0.02939 -0.02205,-0.05144 -0.0073,-0.213113 0.04042,-0.360087 0.04777,-0.146974 0.09921,-0.282925 0.02939,-0.07349 0.05879,-0.146975 0.02939,-0.07716 0.05144,-0.157997 l 0.03307,-0.03674 q 0.02572,-0.05879 0.04042,-0.09553 0.01837,-0.04042 0.03674,-0.08084 0.01102,-0.02572 0.01837,-0.04777 0.01102,-0.02572 0.01837,-0.04409 -0.02205,0 -0.04042,0.0037 -0.01837,0 -0.03674,0.0037 -0.02205,0.0037 -0.04042,0.0073 -0.01837,0 -0.03674,0 -0.02572,0 -0.03674,-0.0037 -0.04042,0.01837 -0.08818,0.01837 h -0.03674 q -0.01102,0 -0.02205,0 -0.0073,-0.0037 -0.0147,-0.0037 -0.03674,0 -0.05879,0.01102 -0.04409,0 -0.08451,0 h -0.03674 q -0.0073,0 -0.01837,0.0037 -0.01102,0 -0.01837,0 -0.02572,0 -0.05512,-0.0037 -0.02939,-0.0073 -0.06246,-0.02572 -0.04409,-0.05879 -0.05879,-0.06246 l -0.03307,-0.04409 q -0.0037,-0.02205 -0.01102,-0.04042 -0.0073,-0.02205 -0.0147,-0.04777 -0.0147,-0.03674 -0.0294,-0.07716 -0.01102,-0.04409 -0.01102,-0.102882 0.0037,-0.02939 0.0147,-0.04409 0.01102,-0.0147 0.01837,-0.02572 l 0.01102,-0.05512 0.04777,0.0037 h 0.102882 q 0.117579,0 0.238833,-0.0073 0.121254,-0.01102 0.249856,-0.02205 0.07349,-0.0073 0.146974,-0.0147 0.07716,-0.0073 0.157998,-0.0147 0.0147,-0.03307 0.0294,-0.06246 l 0.03674,-0.01837 q 0.06614,-0.0037 0.09186,0.01837 0.02939,0.01837 0.04777,0.03674 0.08084,-0.0073 0.161671,-0.0147 0.08451,-0.01102 0.169021,-0.02572 0.124928,-0.01837 0.249856,-0.03307 0.128602,-0.0147 0.246182,-0.0147 0.05144,0 0.09921,0.0037 0.04777,0.0037 0.08818,0.01102 l 0.03674,0.02572 q 0.01102,0.02205 0.0294,0.04042 0.02205,0.01837 0.04409,0.03674 0.04409,0.04042 0.08818,0.09553 0.04409,0.05512 0.03307,0.161671 -0.0294,0.04409 -0.04409,0.05144 l -0.03307,0.04409 -0.03674,-0.0037 q -0.02205,0 -0.04042,0.0073 -0.01837,0.0037 -0.03674,0.01102 -0.0147,0.0073 -0.02939,0.0147 -0.0147,0.0037 -0.03307,0.0073 -0.03307,0 -0.05512,0 -0.01837,-0.0037 -0.04042,-0.0037 z" />
        <path
           id="path1124"
           style="font-style:normal;font-variant:normal;font-weight:normal;font-stretch:normal;font-family:'Permanent Marker';-inkscape-font-specification:'Permanent Marker';stroke-width:0.0940637"
           d="m 77.071977,88.805162 q -0.02205,0.06246 -0.06614,0.128602 -0.04042,0.06246 -0.09921,0.113905 -0.05512,0.04777 -0.124929,0.08084 -0.06981,0.03307 -0.146974,0.03674 -0.04777,-0.01102 -0.06614,-0.02572 -0.0147,-0.01102 -0.03307,-0.02205 -0.01102,-0.0073 -0.02205,-0.01102 -0.0073,-0.0073 -0.0147,-0.01102 l -0.04409,-0.01837 0.0147,-0.04777 q 0.0073,-0.02939 -0.0037,-0.04409 -0.01102,-0.01837 -0.04409,-0.04777 -0.01102,-0.01102 -0.02205,-0.02205 -0.01102,-0.01102 -0.01837,-0.02205 l -0.06246,-0.06981 0.09921,-0.02572 q 0.09186,-0.02572 0.121254,-0.06614 0.03307,-0.04042 0.02572,-0.135951 -0.07349,-0.0147 -0.124929,-0.0037 -0.04777,0.01102 -0.09921,0.02572 -0.06614,0.01837 -0.135951,0.03307 -0.06614,0.01102 -0.146975,0.01102 -0.02939,0 -0.05512,0 -0.02572,-0.0037 -0.05512,-0.0073 l -0.03674,-0.0073 q -0.0073,-0.04042 -0.0147,-0.04409 -0.0073,-0.0073 -0.0147,-0.0147 -0.01837,-0.01837 -0.04042,-0.04777 -0.01837,-0.03307 -0.0073,-0.08084 -0.01837,-0.03307 -0.02205,-0.06614 -0.02205,0.04409 -0.03307,0.09186 l -0.0147,0.03674 -0.03674,0.0073 q -0.0073,0.0037 -0.01102,0.01837 -0.0037,0.01102 -0.0037,0.01837 l -0.01837,0.06246 q -0.0073,0.0073 -0.0147,0.0147 -0.0073,0.0037 -0.0147,0.01102 -0.0073,0.03307 -0.01837,0.06614 -0.01102,0.03307 -0.02205,0.06246 -0.01837,0.04777 -0.03307,0.09553 -0.01102,0.04409 -0.0073,0.08818 l -0.0147,0.04042 q -0.01837,0.02205 -0.04042,0.03674 -0.02205,0.01102 -0.04409,0.02205 -0.0073,0.0073 -0.02205,0.0147 -0.01102,0.0037 -0.01837,0.0073 l -0.01102,0.04042 -0.04409,0.0073 q -0.04042,0.0073 -0.05879,0.01102 -0.0147,0.0037 -0.03674,0.0037 l -0.03674,-0.0037 q -0.04042,-0.03307 -0.06246,-0.05144 -0.02205,-0.02205 -0.05144,-0.04042 -0.03307,-0.04409 -0.03674,-0.06614 -0.0037,-0.02205 -0.0073,-0.04042 -0.0073,-0.02205 -0.0073,-0.03674 -0.0037,-0.0147 -0.01102,-0.02205 l -0.04777,-0.04409 0.04042,-0.03307 0.0037,-0.06247 q 0.07349,-0.187392 0.154322,-0.360086 0.08451,-0.172695 0.172695,-0.352739 0.0294,-0.05879 0.05512,-0.117579 0.02939,-0.05879 0.05879,-0.117579 -0.0037,-0.01102 -0.0037,-0.02572 0,-0.0147 0.0073,-0.03307 0.04042,-0.06246 0.06614,-0.110231 0.02572,-0.05144 0.05144,-0.102882 0.0294,-0.06246 0.05879,-0.121253 0.03307,-0.05879 0.08084,-0.121254 l 0.05879,-0.02572 q 0.01102,-0.0037 0.02572,-0.0073 0.0147,-0.0073 0.03307,-0.0073 l 0.05512,0.0073 q 0.102882,-0.04777 0.180044,-0.132277 0.07716,-0.08819 0.157997,-0.209438 l 0.03674,-0.05144 0.04777,0.02939 q 0.01837,0.01102 0.05144,0.02205 0.03307,0.0073 0.06981,0.01837 0.06614,0.0147 0.124928,0.03307 0.05879,0.01837 0.09553,0.05512 0.02205,0.05879 0.02572,0.08818 0.0037,0.02939 0.01102,0.05879 0.01102,0.06246 0.01837,0.124928 0.01102,0.06246 0.0147,0.139626 0.01837,0.06246 0.0294,0.124928 0.0147,0.05879 0.02572,0.121254 0.01837,0.08818 0.03674,0.172694 0.01837,0.08084 0.04777,0.154323 0.02939,0 0.03674,0.0037 0.01837,-0.0073 0.03674,-0.01102 0.02205,-0.0037 0.04777,-0.0073 l 0.04042,-0.0037 0.0147,0.03674 q 0.0037,0.01837 0.03674,0.03674 0.04777,0.0037 0.06981,0.02205 0.02205,0.0147 0.04042,0.03307 0.0147,0.0147 0.0294,0.02205 l 0.05512,0.02205 -0.0294,0.05512 q -0.03674,0.06614 -0.106556,0.128602 -0.06614,0.05879 -0.150649,0.09921 0.0037,0.02205 0.0037,0.04409 0.0037,0.01837 0.01102,0.04042 0.01102,0.06246 0.01837,0.128602 0.0073,0.06614 0,0.135951 z m -1.061889,-0.635664 q 0.11023,-0.0073 0.198415,-0.0147 0.09186,-0.01102 0.20209,-0.03307 -0.02572,-0.110231 -0.05512,-0.22781 -0.02939,-0.121254 -0.06246,-0.238833 l -0.02205,0.03674 q -0.07349,0.07716 -0.1433,0.172695 -0.06614,0.09553 -0.113905,0.180043 -0.02205,0.03307 -0.04409,0.06614 -0.02205,0.03307 -0.04042,0.06614 0.02205,-0.0037 0.04042,-0.0037 0.02205,0 0.04042,-0.0037 z" />
        <path
           id="path1126"
           style="font-style:normal;font-variant:normal;font-weight:normal;font-stretch:normal;font-family:'Permanent Marker';-inkscape-font-specification:'Permanent Marker';stroke-width:0.0940637"
           d="m 78.093449,88.856603 q 0.01837,0.11023 -0.0147,0.172695 -0.02939,0.06246 -0.08818,0.09186 -0.05512,0.03307 -0.128602,0.03674 -0.07349,0.0037 -0.139626,-0.0073 -0.03674,-0.05144 -0.06614,-0.128602 -0.02939,-0.07716 -0.05512,-0.157998 -0.02572,-0.08451 -0.04777,-0.165346 -0.01837,-0.08084 -0.03307,-0.143299 0.01837,-0.04409 0.02205,-0.09921 0.0073,-0.05879 0.0073,-0.117579 0.0037,-0.05879 0.0037,-0.11758 0.0037,-0.06246 0.01102,-0.117579 0.02572,-0.154323 0.07349,-0.293949 0.05144,-0.139625 0.08084,-0.290274 0.0073,-0.03307 -0.0073,-0.06246 -0.01102,-0.02939 -0.0037,-0.05512 0.0037,-0.0147 0.02205,-0.01837 0.01837,-0.0073 0.02205,-0.02572 0.01102,-0.04042 0.0037,-0.06614 -0.0037,-0.02572 0.0147,-0.06246 0.01837,-0.0294 0.04409,-0.08451 0.02939,-0.05879 0.02205,-0.121254 0.03307,-0.02205 0.06246,-0.05144 0.02939,-0.02939 0.05879,-0.05144 0.03307,-0.02572 0.06981,-0.04409 0.04042,-0.01837 0.09553,-0.01837 0.02939,0.03674 0.03674,0.08084 0.01102,0.04409 0.01837,0.08819 0.01102,0.04409 0.02939,0.08451 0.01837,0.03674 0.06246,0.05879 0,0.02939 0,0.07349 0,0.04409 0.0037,0.08818 0.0037,0.04042 0.0147,0.07716 0.0147,0.03307 0.04409,0.04409 -0.06614,0.176369 -0.124928,0.349064 -0.05512,0.172694 -0.09186,0.349064 -0.03674,0.172694 -0.04777,0.349063 -0.0073,0.176369 0.02572,0.356413 z" />
        <path
           id="path1128"
           style="font-style:normal;font-variant:normal;font-weight:normal;font-stretch:normal;font-family:'Permanent Marker';-inkscape-font-specification:'Permanent Marker';stroke-width:0.0940637"
           d="m 79.272917,88.445075 q -0.03307,0.0073 -0.04777,0.04042 -0.0147,0.02939 -0.02939,0.06246 -0.01102,0.03307 -0.02572,0.06246 -0.01102,0.02572 -0.03674,0.02572 -0.0037,0.0294 -0.02205,0.05144 -0.0147,0.02205 -0.02939,0.04777 -0.0147,0.02205 -0.02205,0.05144 -0.0073,0.02572 0.0073,0.06246 -0.0294,0.02205 -0.03674,0.06246 -0.0073,0.04042 -0.01837,0.07716 -0.0073,0.03674 -0.0294,0.06246 -0.02205,0.02572 -0.08084,0.02205 -0.01102,0.0147 -0.0037,0.01837 0.0073,0.0037 0.01102,0.02572 -0.04042,-0.0073 -0.06246,0.0037 -0.01837,0.0147 -0.04777,0.01837 -0.06981,-0.02205 -0.117579,-0.07716 -0.04409,-0.05512 -0.08084,-0.121254 -0.03307,-0.06981 -0.06246,-0.139626 -0.02572,-0.06981 -0.05144,-0.121253 0.01102,-0.04042 0.0037,-0.07716 -0.0073,-0.04042 -0.02572,-0.06614 0.180043,-0.382133 0.393156,-0.815707 0.213113,-0.433574 0.404179,-0.856125 0.08451,0.03307 0.165346,0.07716 0.08451,0.04042 0.150649,0.09553 0.06981,0.05512 0.117579,0.128602 0.04777,0.06981 0.06246,0.157998 -0.0073,0.02205 -0.01837,0.01837 -0.0073,-0.0073 -0.0147,0.0037 0.0147,0.01837 0.0147,0.02572 0.0037,0.0073 0,0.0147 0,0.0073 0,0.02205 0,0.01102 0.01102,0.03307 -0.0147,-0.0037 -0.02205,0.0037 -0.0037,0.0073 -0.02205,0 0.0147,0.04042 0.0073,0.06614 -0.0037,0.02572 -0.0147,0.04777 -0.01102,0.01837 -0.01837,0.04409 -0.0073,0.02205 0.0037,0.05879 -0.01102,0 -0.01837,0.0073 -0.0037,0.0037 -0.0073,0.01102 -0.0037,0.0037 -0.01102,0.01102 -0.0037,0.0037 -0.0147,0 0.01102,0.08084 0.0073,0.161672 -0.0037,0.08084 -0.0073,0.165346 0,0.08084 0.0037,0.172694 0.0037,0.08819 0.02572,0.183718 0.132277,-0.07716 0.209438,-0.198415 0.08084,-0.121254 0.128603,-0.271902 0.05144,-0.150649 0.07716,-0.323344 0.02572,-0.172694 0.05512,-0.352738 0.03307,-0.03307 0.05144,-0.08084 0.01837,-0.04777 0.03307,-0.09921 0.0147,-0.05512 0.02939,-0.106556 0.0147,-0.05512 0.03674,-0.09921 0.05512,0.0073 0.09186,0.03674 0.04042,0.02572 0.07349,0.05879 0.03307,0.0294 0.06981,0.05879 0.03674,0.02572 0.09186,0.03307 0.04409,0.06246 0.08084,0.121254 0.03674,0.05879 0.04777,0.124928 -0.01837,0.0294 -0.02939,0.06614 -0.0073,0.03674 -0.01837,0.07349 -0.01102,0.03674 -0.02939,0.06981 -0.01837,0.02939 -0.05144,0.05144 -0.01102,0.09553 -0.02939,0.176369 -0.0147,0.07716 -0.03307,0.154323 -0.0147,0.07716 -0.02572,0.161672 -0.01102,0.08084 -0.0073,0.180043 -0.02939,0.08451 -0.06246,0.180044 -0.03307,0.09553 -0.05144,0.172694 -0.05879,0.04777 -0.09186,0.113905 -0.03307,0.06614 -0.06981,0.132277 -0.0147,0.0147 -0.01837,0.0073 -0.0037,-0.0073 -0.02572,-0.01102 0.0037,0.0147 0,0.02205 -0.0037,0.0073 -0.01102,0.0147 -0.0037,0.0037 -0.0073,0.0147 0,0.01102 0.0073,0.02939 -0.05144,0.02205 -0.09186,0.06246 -0.04042,0.04042 -0.08818,0.07349 -0.04409,0.03307 -0.110231,0.04409 -0.06246,0.01102 -0.165346,-0.02572 -0.150648,-0.110231 -0.268228,-0.253531 -0.113905,-0.1433 -0.187392,-0.341715 z" />
        <path
           id="path1130"
           style="font-style:normal;font-variant:normal;font-weight:normal;font-stretch:normal;font-family:'Permanent Marker';-inkscape-font-specification:'Permanent Marker';stroke-width:0.0940637"
           d="m 82.091147,88.98888 q -0.01102,0.0037 -0.0147,-0.0073 -0.0037,-0.01102 -0.0037,-0.02205 0.0037,-0.01102 0.01102,-0.01837 0.01102,-0.0073 0.02572,0 -0.04777,-0.05879 -0.06246,-0.106556 -0.01102,-0.04777 -0.04777,-0.11758 0.01102,-0.01102 0.0147,-0.02939 0.0037,-0.02205 0.01102,-0.04042 0.0037,-0.01837 0.01102,-0.02572 0.01102,-0.01102 0.02572,0.0037 -0.0073,-0.04042 0,-0.06614 0.0073,-0.02572 0.0147,-0.04777 0.01102,-0.02205 0.0147,-0.04409 0.0037,-0.02205 -0.01102,-0.05144 0.06981,-0.09553 0.09186,-0.205764 0.02205,-0.113905 0.02572,-0.205764 0.03307,-0.03307 0.05512,-0.08818 0.02572,-0.05512 0.03674,-0.113905 0.01102,-0.05879 0.01102,-0.113905 0,-0.05879 -0.0147,-0.09186 0.0037,-0.0147 0.0147,-0.0147 0.0147,-0.0037 0.03307,0 0.02572,-0.146974 0.03307,-0.327017 0.01102,-0.180044 0.03674,-0.34539 0.02939,-0.16902 0.09186,-0.293948 0.06246,-0.128603 0.198415,-0.165346 0.02572,0.09186 0.06614,0.161672 0.04409,0.06981 0.09186,0.135951 0.05144,0.06614 0.102882,0.132276 0.05144,0.06614 0.09553,0.146975 -0.0037,0.08451 -0.01837,0.194741 -0.01102,0.11023 -0.03307,0.224135 -0.01837,0.113905 -0.04042,0.220462 -0.01837,0.106556 -0.03674,0.180043 0.0037,0.01837 0.02572,0.02572 0.02205,0.0037 0.0073,0.04042 0.106556,-0.02572 0.220461,-0.04777 0.117579,-0.02572 0.22781,-0.04777 0.113905,-0.02572 0.220461,-0.05879 0.110231,-0.03307 0.205764,-0.08083 0.02205,-0.176369 0.05512,-0.349064 0.03307,-0.172695 0.0073,-0.349064 0.02205,-0.01837 0.03674,-0.04409 0.0147,-0.02572 0.04409,-0.03307 -0.02205,-0.08451 -0.01837,-0.176369 0.0037,-0.09553 0.0294,-0.17637 0.02939,-0.08084 0.08451,-0.139625 0.05512,-0.06246 0.135952,-0.08084 0.04777,0.06981 0.08451,0.150649 0.03674,0.08084 0.07349,0.165346 0.03674,0.08084 0.07716,0.154323 0.04409,0.07349 0.110231,0.124928 0.01102,0.128602 0.01837,0.264553 0.0073,0.132277 0.01102,0.275577 -0.03307,0.165346 -0.07716,0.323343 -0.04042,0.154323 -0.05879,0.330692 -0.02939,0.03307 -0.04777,0.08084 -0.01837,0.04409 -0.03674,0.09186 -0.0147,0.04409 -0.03674,0.08818 -0.02205,0.04409 -0.05512,0.07349 0.0147,0.05144 0.0037,0.09921 -0.0073,0.04409 0.02572,0.106557 0.0073,0.113905 -0.02939,0.191066 -0.03307,0.07349 -0.09553,0.128603 -0.05879,0.05144 -0.139625,0.08451 -0.07716,0.0294 -0.154323,0.05512 -0.03674,-0.02205 -0.06981,-0.04409 -0.02939,-0.02572 -0.07349,-0.03674 l 0.01837,-0.03307 q -0.07349,-0.07349 -0.128603,-0.154323 -0.05144,-0.08451 -0.04777,-0.191066 0,-0.0037 0.0073,-0.04777 0.0073,-0.04777 0.0147,-0.09921 0.01102,-0.05144 0.01837,-0.09553 0.01102,-0.04777 0.01102,-0.05144 -0.102882,0.01102 -0.213113,0.04777 -0.110231,0.03674 -0.216787,0.08451 -0.102882,0.04409 -0.194741,0.09553 -0.08818,0.04777 -0.1433,0.08084 0,0.01102 -0.01837,0.06246 -0.01837,0.05144 -0.04409,0.110231 -0.02572,0.05512 -0.05879,0.09921 -0.0294,0.04409 -0.06246,0.04042 0.0073,0.01837 0.0147,0.0294 0.0073,0.0073 0,0.03307 -0.06246,0.01837 -0.113905,0.04777 -0.04777,0.02939 -0.09921,0.04777 -0.05144,0.02205 -0.113905,0.01837 -0.05879,0 -0.143299,-0.04409 0,-0.02572 -0.02205,-0.04409 -0.02205,-0.02205 -0.04777,-0.03674 -0.02205,-0.0147 -0.04042,-0.02572 -0.01837,-0.01102 -0.01837,-0.02205 z" />
        <path
           id="path1132"
           style="font-style:normal;font-variant:normal;font-weight:normal;font-stretch:normal;font-family:'Permanent Marker';-inkscape-font-specification:'Permanent Marker';stroke-width:0.0940637"
           d="m 86.595908,88.805162 q -0.02205,0.06246 -0.06614,0.128602 -0.04042,0.06246 -0.09921,0.113905 -0.05512,0.04777 -0.124928,0.08084 -0.06981,0.03307 -0.146974,0.03674 -0.04777,-0.01102 -0.06614,-0.02572 -0.0147,-0.01102 -0.03307,-0.02205 -0.01102,-0.0073 -0.02205,-0.01102 -0.0073,-0.0073 -0.0147,-0.01102 l -0.04409,-0.01837 0.0147,-0.04777 q 0.0073,-0.02939 -0.0037,-0.04409 -0.01102,-0.01837 -0.04409,-0.04777 -0.01102,-0.01102 -0.02205,-0.02205 -0.01102,-0.01102 -0.01837,-0.02205 l -0.06246,-0.06981 0.09921,-0.02572 q 0.09186,-0.02572 0.121254,-0.06614 0.03307,-0.04042 0.02572,-0.135951 -0.07349,-0.0147 -0.124928,-0.0037 -0.04777,0.01102 -0.09921,0.02572 -0.06614,0.01837 -0.135951,0.03307 -0.06614,0.01102 -0.146974,0.01102 -0.02939,0 -0.05512,0 -0.02572,-0.0037 -0.05512,-0.0073 l -0.03674,-0.0073 q -0.0073,-0.04042 -0.0147,-0.04409 -0.0073,-0.0073 -0.0147,-0.0147 -0.01837,-0.01837 -0.04042,-0.04777 -0.01837,-0.03307 -0.0073,-0.08084 -0.01837,-0.03307 -0.02205,-0.06614 -0.02205,0.04409 -0.03307,0.09186 l -0.0147,0.03674 -0.03674,0.0073 q -0.0073,0.0037 -0.01102,0.01837 -0.0037,0.01102 -0.0037,0.01837 l -0.01837,0.06246 q -0.0073,0.0073 -0.0147,0.0147 -0.0073,0.0037 -0.0147,0.01102 -0.0073,0.03307 -0.01837,0.06614 -0.01102,0.03307 -0.02205,0.06246 -0.01837,0.04777 -0.03307,0.09553 -0.01102,0.04409 -0.0073,0.08818 l -0.0147,0.04042 q -0.01837,0.02205 -0.04042,0.03674 -0.02205,0.01102 -0.04409,0.02205 -0.0073,0.0073 -0.02205,0.0147 -0.01102,0.0037 -0.01837,0.0073 l -0.01102,0.04042 -0.04409,0.0073 q -0.04042,0.0073 -0.05879,0.01102 -0.0147,0.0037 -0.03674,0.0037 l -0.03674,-0.0037 q -0.04042,-0.03307 -0.06246,-0.05144 -0.02205,-0.02205 -0.05144,-0.04042 -0.03307,-0.04409 -0.03674,-0.06614 -0.0037,-0.02205 -0.0073,-0.04042 -0.0073,-0.02205 -0.0073,-0.03674 -0.0037,-0.0147 -0.01102,-0.02205 l -0.04777,-0.04409 0.04042,-0.03307 0.0037,-0.06247 q 0.07349,-0.187392 0.154323,-0.360086 0.08451,-0.172695 0.172695,-0.352739 0.02939,-0.05879 0.05512,-0.117579 0.02939,-0.05879 0.05879,-0.117579 -0.0037,-0.01102 -0.0037,-0.02572 0,-0.0147 0.0073,-0.03307 0.04042,-0.06246 0.06614,-0.110231 0.02572,-0.05144 0.05144,-0.102882 0.02939,-0.06246 0.05879,-0.121253 0.03307,-0.05879 0.08084,-0.121254 l 0.05879,-0.02572 q 0.01102,-0.0037 0.02572,-0.0073 0.0147,-0.0073 0.03307,-0.0073 l 0.05512,0.0073 q 0.102882,-0.04777 0.180043,-0.132277 0.07716,-0.08819 0.157997,-0.209438 l 0.03674,-0.05144 0.04777,0.02939 q 0.01837,0.01102 0.05144,0.02205 0.03307,0.0073 0.06981,0.01837 0.06614,0.0147 0.124928,0.03307 0.05879,0.01837 0.09553,0.05512 0.02205,0.05879 0.02572,0.08818 0.0037,0.02939 0.01102,0.05879 0.01102,0.06246 0.01837,0.124928 0.01102,0.06246 0.0147,0.139626 0.01837,0.06246 0.02939,0.124928 0.0147,0.05879 0.02572,0.121254 0.01837,0.08818 0.03674,0.172694 0.01837,0.08084 0.04777,0.154323 0.0294,0 0.03674,0.0037 0.01837,-0.0073 0.03674,-0.01102 0.02205,-0.0037 0.04777,-0.0073 l 0.04042,-0.0037 0.0147,0.03674 q 0.0037,0.01837 0.03674,0.03674 0.04777,0.0037 0.06981,0.02205 0.02205,0.0147 0.04042,0.03307 0.0147,0.0147 0.02939,0.02205 l 0.05512,0.02205 -0.02939,0.05512 q -0.03674,0.06614 -0.106556,0.128602 -0.06614,0.05879 -0.150648,0.09921 0.0037,0.02205 0.0037,0.04409 0.0037,0.01837 0.01102,0.04042 0.01102,0.06246 0.01837,0.128602 0.0073,0.06614 0,0.135951 z m -1.061889,-0.635664 q 0.110231,-0.0073 0.198416,-0.0147 0.09186,-0.01102 0.202089,-0.03307 -0.02572,-0.110231 -0.05512,-0.22781 -0.02939,-0.121254 -0.06246,-0.238833 l -0.02205,0.03674 q -0.07349,0.07716 -0.1433,0.172695 -0.06614,0.09553 -0.113905,0.180043 -0.02205,0.03307 -0.04409,0.06614 -0.02205,0.03307 -0.04042,0.06614 0.02205,-0.0037 0.04042,-0.0037 0.02205,0 0.04042,-0.0037 z" />
        <path
           id="path1134"
           style="font-style:normal;font-variant:normal;font-weight:normal;font-stretch:normal;font-family:'Permanent Marker';-inkscape-font-specification:'Permanent Marker';stroke-width:0.0940637"
           d="m 88.366947,89.121156 q -0.05879,0.0037 -0.146974,-0.0037 -0.08451,-0.0073 -0.157997,0.02572 -0.194741,-0.0073 -0.396831,-0.04777 -0.202089,-0.04042 -0.37111,-0.09921 -0.03674,-0.04042 -0.07349,-0.07349 -0.03674,-0.03674 -0.09921,-0.05144 -0.08818,-0.06981 -0.1433,-0.16902 -0.05512,-0.102882 -0.08819,-0.216787 -0.03307,-0.113905 -0.04409,-0.231485 -0.01102,-0.121253 -0.0073,-0.231484 0.05512,-0.165346 0.154323,-0.282925 0.102882,-0.121254 0.209438,-0.238833 0.04777,-0.02205 0.06981,-0.04409 0.02572,-0.02572 0.05144,-0.04409 0.02939,-0.02205 0.05512,-0.04042 0.02939,-0.02205 0.05144,-0.05144 0.07716,-0.01837 0.132277,-0.05144 0.05879,-0.03674 0.113905,-0.07349 0.05512,-0.04042 0.113905,-0.07349 0.05879,-0.03307 0.135951,-0.05144 0.0294,-0.03307 0.06981,-0.05144 0.04042,-0.02205 0.08084,-0.04042 0.04409,-0.02205 0.08084,-0.04409 0.04042,-0.02205 0.06246,-0.05879 0.01837,0.02939 0.05144,0.02205 0.03307,-0.01102 0.06246,-0.02205 0.01837,-0.0037 0.0294,0.0073 0.0147,0.01102 0.02572,0.02205 0.01102,0.01102 0.01837,0.0147 0.01102,0 0.01837,-0.01837 0.01837,0 0.01102,0.01837 -0.0073,0.01837 -0.01102,0.02572 0.0294,-0.0037 0.04777,0.0147 0.02205,0.0147 0.06614,0.01837 0.0147,0.01837 0.0073,0.0294 -0.0073,0.0073 -0.0073,0.02939 0.11023,0.03307 0.139625,0.106556 0.0294,0.06981 0.0037,0.146974 -0.02572,0.07716 -0.09186,0.1433 -0.06614,0.06614 -0.1433,0.08818 -0.176369,0.04777 -0.334366,0.106556 -0.154323,0.05512 -0.253531,0.165346 -0.08819,0.02572 -0.157997,0.06981 -0.06614,0.04042 -0.128603,0.09553 -0.05879,0.05144 -0.113905,0.110231 -0.05144,0.05512 -0.11023,0.11023 0.0037,0.05144 -0.01837,0.08084 -0.01837,0.02572 -0.03674,0.05512 0.0073,0.05512 0.02572,0.09921 0.01837,0.04042 0.04042,0.08084 0.242507,0.07349 0.514409,0.09186 0.275577,0.01837 0.551154,0.02205 0.02572,0.03674 0.05879,0.06981 0.03674,0.0294 0.06614,0.06614 0.0294,0.03307 0.04777,0.07716 0.01837,0.04042 0.0073,0.102882 -0.05144,0.05512 -0.113905,0.102882 -0.06246,0.04409 -0.124928,0.09186 z" />
        <path
           id="path1136"
           style="font-style:normal;font-variant:normal;font-weight:normal;font-stretch:normal;font-family:'Permanent Marker';-inkscape-font-specification:'Permanent Marker';stroke-width:0.0940637"
           d="m 90.986762,88.981531 q -0.176369,0.0073 -0.31232,-0.0073 -0.132277,-0.0147 -0.260879,-0.06981 -0.0073,-0.0037 -0.0147,-0.01837 -0.0073,-0.0147 -0.0147,-0.02205 -0.02205,-0.01102 -0.05512,-0.0073 -0.0294,0 -0.05144,-0.0073 -0.0294,-0.0147 -0.09186,-0.05512 -0.06246,-0.04409 -0.113905,-0.08084 -0.06614,-0.05144 -0.124928,-0.102882 -0.05879,-0.05144 -0.102882,-0.110231 -0.01102,-0.0147 -0.02939,-0.0147 -0.01837,-0.0037 -0.03307,-0.01102 -0.106557,0.06614 -0.180044,0.165346 -0.07349,0.09921 -0.139625,0.202089 -0.06614,0.102882 -0.139626,0.194741 -0.07349,0.09186 -0.187392,0.139626 -0.03307,0 -0.05879,-0.01102 -0.02572,-0.01102 -0.04777,-0.0294 -0.02205,-0.0147 -0.04409,-0.02939 -0.02205,-0.0147 -0.04777,-0.02205 0,-0.04409 -0.01837,-0.08084 -0.0147,-0.03674 -0.03307,-0.06981 -0.0147,-0.03307 -0.02205,-0.06246 -0.0073,-0.03307 0.0147,-0.06246 -0.02205,-0.02205 -0.06614,-0.04777 0.02205,-0.02205 0.01837,-0.04042 0,-0.01837 -0.0073,-0.03674 -0.0073,-0.01837 -0.0147,-0.04042 -0.0037,-0.02205 0.01102,-0.04409 0.01837,0 0.04409,-0.0073 -0.02205,-0.0294 -0.02205,-0.03307 0.0037,-0.0073 -0.0073,-0.01837 -0.0073,-0.02205 0.0073,-0.02572 0.0147,-0.0073 0.02939,-0.0147 0.0147,-0.180043 0.06246,-0.334366 0.04777,-0.154323 0.106557,-0.297623 0.05879,-0.1433 0.113905,-0.290274 0.05879,-0.146974 0.09553,-0.315995 0.04042,-0.04042 0.06246,-0.09553 0.02572,-0.05512 0.05144,-0.11023 0.0294,-0.05512 0.06246,-0.106557 0.03674,-0.05512 0.09921,-0.08818 0.05144,0.0037 0.09186,0.02939 0.04042,0.02205 0.09921,0.01837 0.01102,0.01837 0.01837,0.03674 0.01102,0.01837 0.02572,0.03674 l 0.05512,-0.01102 q 0.04042,0.03307 0.06981,0.08451 0.03307,0.04777 0.04409,0.102882 0.01102,0.05512 -0.0037,0.106556 -0.0147,0.04777 -0.06981,0.07716 0.0037,0.01837 0,0.02939 0,0.0073 -0.0037,0.0147 -0.0037,0.0073 -0.0037,0.0147 0,0.0073 0.01102,0.02205 -0.07349,0.05512 -0.110231,0.154323 -0.03674,0.09921 -0.04042,0.176369 0.04409,-0.04409 0.09553,-0.08451 0.05512,-0.04409 0.11023,-0.08451 0.05879,-0.04042 0.110231,-0.07716 0.05512,-0.03674 0.09921,-0.07349 0.121253,-0.11023 0.231484,-0.176369 0.113905,-0.06981 0.238833,-0.154323 0.0294,-0.0073 0.04409,0 0.01837,0.0037 0.03674,0.01102 0,-0.02205 -0.0147,-0.02572 -0.01102,-0.0037 -0.0073,-0.02939 0.05512,-0.0147 0.09553,-0.03307 0.04042,-0.02205 0.08818,-0.04042 0.03307,0.03307 0.06246,0.06981 0.02939,0.03307 0.08083,0.04042 0.01837,0.04042 0.04409,0.06247 0.02572,0.01837 0.05144,0.03674 0.02572,0.01837 0.04409,0.04409 0.02205,0.02572 0.02572,0.08084 -0.0147,0.02572 -0.03307,0.05512 -0.0147,0.02939 -0.02939,0.06981 -0.07349,0.06614 -0.150648,0.11758 -0.07349,0.05144 -0.150649,0.09921 -0.07716,0.04777 -0.157997,0.09553 -0.08084,0.04777 -0.165346,0.113905 -0.01837,0.02572 -0.04777,0.04777 -0.02572,0.01837 -0.05512,0.04042 -0.02939,0.01837 -0.05512,0.04042 -0.02572,0.02205 -0.04042,0.05144 -0.01102,0.0037 -0.02205,0.0037 -0.01102,0 -0.02205,0.0037 -0.01102,0.02572 -0.03674,0.04042 -0.02205,0.0147 -0.02939,0.04042 0.05511,0.11758 0.1433,0.180044 0.08818,0.06246 0.198415,0.09186 0.110231,0.02572 0.238833,0.02939 0.128603,0 0.268228,0 0.0147,-0.0037 0.01102,-0.0147 0,-0.0147 0.01837,-0.01102 0.08818,0.0294 0.135951,0.08451 0.04777,0.05144 0.113905,0.102882 -0.0073,0.139626 -0.08451,0.231485 -0.07716,0.09186 -0.205764,0.146974 z" />
        <path
           id="path1138"
           style="font-style:normal;font-variant:normal;font-weight:normal;font-stretch:normal;font-family:'Permanent Marker';-inkscape-font-specification:'Permanent Marker';stroke-width:0.0940637"
           d="m 93.250165,87.045145 q 0.0037,0.02572 0,0.04042 0,0.01102 -0.0037,0.02205 0,0.01102 0,0.02572 0,0.01102 0.0073,0.03674 -0.07716,0.124928 -0.180044,0.172694 -0.09921,0.04409 -0.216787,0.06614 -0.117579,0.01837 -0.242507,0.04042 -0.121254,0.02205 -0.242508,0.09553 -0.04777,-0.01837 -0.08818,0 -0.03674,0.01837 -0.110231,0.01102 -0.02205,0.02205 -0.05512,0.03307 -0.03307,0.0073 -0.06614,0.01837 0.0147,0.03307 0.01102,0.06981 0,0.03307 0.01102,0.05511 0.128602,0.01102 0.282925,-0.0037 0.157997,-0.0147 0.308646,-0.01837 0.0037,0.01837 -0.0037,0.02572 -0.0073,0.0037 -0.0037,0.01837 0.02572,0.01837 0.05144,0.04777 0.02572,0.02572 0.05144,0.05144 0.02572,0.02572 0.05144,0.04409 0.0294,0.0147 0.06614,0.01102 0.0147,0.02939 0.01837,0.06614 0.0073,0.03307 -0.0073,0.06981 -0.05879,0.04042 -0.117579,0.08451 -0.05879,0.04042 -0.124928,0.07349 -0.06246,0.03307 -0.135951,0.05512 -0.06981,0.01837 -0.157997,0.0147 -0.01837,0 -0.02939,0 -0.0073,0 -0.02205,-0.01102 -0.0294,0.01837 -0.08451,0.01102 -0.05144,-0.0073 -0.08083,0.01102 -0.04042,-0.01837 -0.09921,-0.0147 -0.05512,0 -0.09921,-0.0147 -0.05879,0.07716 -0.106556,0.165346 -0.04777,0.08818 -0.08451,0.187393 0.124928,0.01837 0.205764,0.0147 0.08451,-0.0037 0.157997,-0.01102 0.07349,-0.01102 0.150649,-0.01837 0.07716,-0.01102 0.19474,-0.0073 0.07349,-0.04042 0.172695,-0.05144 0.102882,-0.0147 0.187392,-0.04409 0.02939,0.01102 0.05144,0.04042 0.02205,0.02572 0.04042,0.05144 0.02205,0.02205 0.04409,0.04042 0.02205,0.01837 0.05512,0.0147 0.0147,0.0147 0.01837,0.03674 0.0073,0.01837 0.01102,0.03674 0.0037,0.01837 0.01102,0.03307 0.01102,0.01102 0.03307,0.0073 -0.05512,0.121254 -0.128603,0.187393 -0.06981,0.06246 -0.161671,0.09553 -0.09186,0.03307 -0.205764,0.05144 -0.110231,0.01837 -0.246182,0.04409 -0.03307,0.0073 -0.05512,-0.0037 -0.02205,-0.0073 -0.05144,-0.0073 -0.08451,0.01837 -0.20209,0.03307 -0.117579,0.0147 -0.238833,0.01102 -0.121254,-0.0037 -0.231484,-0.03307 -0.110231,-0.02572 -0.180044,-0.09553 -0.0294,-0.02572 -0.04042,-0.05879 -0.0073,-0.03674 -0.04777,-0.05512 -0.0037,-0.04777 -0.0147,-0.106556 -0.01102,-0.05879 -0.02205,-0.121254 -0.01102,-0.06614 -0.01837,-0.128603 -0.0037,-0.06246 0.0073,-0.113905 0.01102,-0.05512 0.04409,-0.09921 0.03674,-0.04409 0.02572,-0.09553 0.01837,-0.0037 0.02205,-0.01837 0.0037,-0.01837 0.0294,-0.0147 0.02205,-0.06614 0.04777,-0.124928 0.02572,-0.05879 0.05144,-0.113905 0.0294,-0.05512 0.05512,-0.110231 0.0294,-0.05879 0.05512,-0.128602 -0.05144,-0.04777 -0.07716,-0.102882 -0.02205,-0.05879 -0.03307,-0.113905 -0.01102,-0.05879 -0.01837,-0.117579 -0.0073,-0.06246 -0.02572,-0.124928 0.03674,-0.05512 0.08818,-0.08818 0.05512,-0.03674 0.117579,-0.05879 0.06246,-0.02205 0.135951,-0.03674 0.07349,-0.0147 0.154323,-0.03307 0.146974,-0.04777 0.260879,-0.07349 0.11758,-0.02572 0.227811,-0.04042 0.113905,-0.01837 0.235158,-0.03307 0.121254,-0.0147 0.275577,-0.04409 0.03307,0.03307 0.06246,0.03307 0.0147,-0.03307 0.03307,-0.01837 0.02205,0.01102 0.01837,-0.02205 0.03674,0.06246 0.09186,0.106557 0.05879,0.04042 0.128602,0.06981 z" />
        <path
           id="path1140"
           style="font-style:normal;font-variant:normal;font-weight:normal;font-stretch:normal;font-family:'Permanent Marker';-inkscape-font-specification:'Permanent Marker';stroke-width:0.0940637"
           d="m 93.716808,88.731675 q -0.04042,0.146974 -0.07349,0.224135 -0.02939,0.07349 -0.09186,0.154323 -0.04777,-0.0073 -0.06614,0.01102 -0.01837,0.01837 -0.04042,0.03307 -0.03307,0.0073 -0.04777,0 -0.0147,-0.0073 -0.02572,-0.01837 -0.01102,-0.0073 -0.0294,-0.01837 -0.0147,-0.0073 -0.04777,-0.0073 -0.0073,-0.0294 -0.01837,-0.05512 -0.0073,-0.02572 -0.04777,-0.01837 0.0073,-0.0294 0.0037,-0.04777 -0.0037,-0.02205 -0.01102,-0.03674 -0.0037,-0.01837 -0.0073,-0.03307 -0.0037,-0.01837 0.0037,-0.04409 -0.01837,0 -0.02939,-0.02572 -0.01102,-0.02572 -0.02572,-0.05144 0.01102,-0.06614 0.02205,-0.124928 0.01102,-0.05879 0.02572,-0.110231 0.01837,-0.05144 0.0294,-0.102882 0.01102,-0.05144 -0.01102,-0.106556 0.0147,0.01102 0.02205,-0.0037 0.0073,-0.01837 0.01102,-0.04409 0.0037,-0.02939 0.0037,-0.05512 0,-0.02939 -0.0037,-0.04777 0.03674,-0.09553 0.05879,-0.19474 0.02572,-0.102882 0.04409,-0.20209 0.02205,-0.09921 0.04409,-0.194741 0.02205,-0.09553 0.05879,-0.176369 0.04042,-0.0073 0.08818,0.01102 0.05144,0.0147 0.06246,0.04042 0.09553,-0.07349 0.169021,-0.176369 0.07349,-0.106556 0.150648,-0.205764 0.07716,-0.09921 0.16902,-0.176369 0.09553,-0.07716 0.238834,-0.09186 0.07349,0.05512 0.161671,0.113905 0.09186,0.05512 0.150649,0.146974 0.02939,0.0147 0.04777,0.03307 0.02205,0.0147 0.05144,0.03307 v 0.04409 q 0.04409,0.04042 0.06981,0.09553 0.02939,0.05144 0.05144,0.113905 0.02205,0.05879 0.04409,0.121254 0.02205,0.05879 0.05144,0.113905 -0.0073,0.01837 -0.0073,0.03307 0,0.01102 0.0037,0.02572 0.0073,0.0147 0.01102,0.02939 0.0037,0.0147 0,0.04042 -0.01102,0.161671 -0.106556,0.260879 -0.09186,0.09921 -0.224136,0.165346 -0.132277,0.06246 -0.282925,0.106556 -0.150649,0.04409 -0.271903,0.09553 0,0.0147 0.01102,0.0147 0.0147,0 0.01102,0.01837 0.08818,0.05512 0.139625,0.08818 0.05144,0.03307 0.09553,0.05512 0.04777,0.02205 0.09921,0.04042 0.05512,0.0147 0.150648,0.03674 0.09553,0.02205 0.146975,0.03674 0.05512,0.01102 0.09921,0.02205 0.04409,0.0073 0.08818,0.0147 0.04777,0.0037 0.132277,0.01102 0.03307,0.03307 0.05512,0.08084 0.02572,0.04409 0.03307,0.09186 0.0073,0.04409 0.0037,0.08818 -0.0037,0.04042 -0.02572,0.06614 0.0037,0.01102 0.0147,0.01102 0.0147,-0.0037 0.0294,0 -0.02205,0.0147 -0.03674,0.03674 -0.0147,0.02205 -0.0294,0.04409 -0.0147,0.02205 -0.03307,0.03674 -0.01837,0.01837 -0.05144,0.02205 -0.113905,0.04409 -0.2866,0.0037 -0.172695,-0.03674 -0.437248,-0.139626 -0.132277,-0.05144 -0.216787,-0.08818 -0.08084,-0.04042 -0.1433,-0.07716 -0.05879,-0.04042 -0.110231,-0.08451 -0.04777,-0.04409 -0.117579,-0.106556 z m 0.525433,-1.260304 q -0.04042,0.05879 -0.09186,0.106556 -0.04777,0.04777 -0.09553,0.09921 -0.04409,0.04777 -0.08084,0.11023 -0.03674,0.05879 -0.05144,0.139626 0.128602,-0.0147 0.268228,-0.06981 0.139625,-0.05879 0.264553,-0.110231 -0.0147,-0.113905 -0.08084,-0.183717 -0.06246,-0.06981 -0.132276,-0.09186 z" />
        <path
           id="path1142"
           style="font-style:normal;font-variant:normal;font-weight:normal;font-stretch:normal;font-family:'Permanent Marker';-inkscape-font-specification:'Permanent Marker';stroke-width:0.0940637"
           d="m 95.219621,87.460348 q 0.02572,-0.07716 0.08084,-0.132277 0.05879,-0.05512 0.124928,-0.09186 0.06981,-0.04042 0.1433,-0.06614 0.07349,-0.02572 0.139625,-0.04409 0.146975,-0.06246 0.312321,-0.117579 0.16902,-0.05879 0.341715,-0.102882 0.176369,-0.04409 0.360087,-0.05512 0.183717,-0.0147 0.385807,0.04409 0.01102,0.03674 0.03307,0.06981 0.02205,0.03307 0.04409,0.06614 0.02572,0.03307 0.04409,0.06614 0.01837,0.02939 0.02205,0.06247 0.03674,0.03307 0.05879,0.07349 0.02205,0.03674 0.0073,0.09921 -0.03674,0.0294 -0.07349,0.05512 -0.03307,0.02205 -0.07349,0.04042 -0.135951,-0.03307 -0.275577,-0.02205 -0.139625,0.01102 -0.249856,0.01837 -0.03307,-0.03307 -0.08084,-0.03307 -0.04409,0 -0.09553,0.0147 -0.04777,0.0147 -0.09921,0.0294 -0.04777,0.0147 -0.09186,0.0073 -0.03674,0.0294 -0.09186,0.04042 -0.05144,0.0073 -0.113905,0.0147 -0.0037,0.01837 0.0073,0.02572 0.01102,0.0037 0.0037,0.02205 0.02205,0.02572 0.05512,0.03674 0.03674,0.01102 0.07349,0.02205 0.04042,0.01102 0.06981,0.02939 0.0294,0.0147 0.04042,0.05144 0.05512,0 0.09553,0.02572 0.04042,0.02572 0.06614,0.06246 0.02572,0.03674 0.03674,0.08084 0.0147,0.04042 0.0147,0.07349 0.01102,0.02939 0.02572,0.02572 0.0147,-0.0037 0.03307,0.0147 0.01102,0.04777 0.05512,0.09921 0.04409,0.04777 0.06981,0.106557 0.0073,0.09186 0.01102,0.165346 0.0037,0.06981 -0.02572,0.1433 -0.05512,0.135951 -0.154323,0.242507 -0.09553,0.106556 -0.220461,0.191066 -0.121254,0.08084 -0.26088,0.139626 -0.139625,0.05879 -0.271902,0.09921 -0.0147,-0.0037 -0.02939,0 -0.0147,0.0037 -0.0073,-0.01837 -0.02939,0.02572 -0.06614,0.03307 -0.03307,0.0073 -0.07349,0.0037 -0.04042,0 -0.08451,-0.0037 -0.04042,-0.0037 -0.07716,0.0037 -0.02572,-0.02572 -0.04777,-0.05144 -0.01837,-0.02205 -0.02939,-0.05879 -0.01837,0 -0.01837,-0.01837 0.0037,-0.01837 -0.01102,-0.01837 0.02205,-0.03674 0.01837,-0.04042 0,-0.0073 -0.01102,-0.01102 -0.0073,-0.0037 -0.0147,-0.0073 -0.0073,-0.0073 -0.0037,-0.01837 0.0147,-0.0294 0.01102,-0.06614 -0.0037,-0.04042 -0.0073,-0.08084 -0.0037,-0.04042 0.0037,-0.07716 0.01102,-0.03674 0.05512,-0.05879 0.124928,0.0147 0.235159,-0.0073 0.113905,-0.02572 0.213112,-0.06981 0.09921,-0.04409 0.187392,-0.09553 0.09186,-0.05144 0.180044,-0.09186 0.01102,-0.03307 0.02939,-0.05512 0.02205,-0.02205 0.04409,-0.04042 0.02205,-0.01837 0.04042,-0.04042 0.01837,-0.02205 0.02572,-0.05512 0.0037,-0.02572 -0.0147,-0.0294 -0.0147,-0.0073 -0.0147,-0.02939 l -0.04042,-0.01102 q -0.06981,-0.04042 -0.157998,-0.06614 -0.08818,-0.0294 -0.150648,-0.06246 -0.04042,0.02205 -0.07716,0.01102 -0.03307,-0.01102 -0.08818,-0.02205 -0.124928,-0.0073 -0.242508,-0.02572 -0.113905,-0.01837 -0.220461,-0.06614 -0.0073,-0.01837 -0.01837,-0.03307 -0.01102,-0.0147 -0.04042,-0.0073 -0.02205,-0.02939 -0.04409,-0.05512 -0.02205,-0.02939 -0.04042,-0.06246 0.0073,-0.04409 0.01102,-0.07349 0.0037,-0.03307 -0.02205,-0.06246 0.0147,-0.04777 0.02205,-0.07716 0.0073,-0.02939 0,-0.07716 z" />
      </g>
    </clipPath>
    <clipPath
       id="clipPath1463"
       clipPathUnits="userSpaceOnUse">
      <path
         d="M 22.714256,67.509834 H 132.71426 V 177.50983 H 22.714256 Z M 47.8466,91.424088 v 42.476422 h 60.03843 V 91.424088 Z"
         class="powerclip"
         style="opacity:0.344846;fill:#ffffff;stroke:none;stroke-width:0.91494"
         id="lpe_path-effect1467" />
    </clipPath>
  </defs>
  <sodipodi:namedview
     id="base"
     pagecolor="#ffffff"
     bordercolor="#666666"
     borderopacity="1.0"
     inkscape:pageopacity="1"
     inkscape:pageshadow="2"
     inkscape:zoom="1.6097821"
     inkscape:cx="67.48879"
     inkscape:cy="248.12604"
     inkscape:document-units="mm"
     inkscape:current-layer="g2953"
     inkscape:document-rotation="0"
     showgrid="false"
     fit-margin-top="0"
     fit-margin-left="0"
     fit-margin-right="0"
     fit-margin-bottom="0"
     inkscape:window-width="1920"
     inkscape:window-height="1009"
     inkscape:window-x="0"
     inkscape:window-y="0"
     inkscape:window-maximized="1" />
  <metadata
     id="metadata5">
    <rdf:RDF>
      <cc:Work
         rdf:about="">
        <dc:format>image/svg+xml</dc:format>
        <dc:type
           rdf:resource="http://purl.org/dc/dcmitype/StillImage" />
        <dc:title></dc:title>
      </cc:Work>
    </rdf:RDF>
  </metadata>
  <g
     style="display:inline"
     id="g2953"
     inkscape:groupmode="layer"
     inkscape:label="[fixed] BG">
    <rect
       id="rect2951"
       style="display:inline;opacity:1;fill:#ffffff;fill-opacity:1;stroke:none"
       height="100"
       width="100"
       y="0"
       x="0" />
  </g>
  <g
     style="display:none"
     id="g2955"
     inkscape:groupmode="layer"
     inkscape:label="Edge.Cuts" />
  <g
     style="display:none"
     id="g2957"
     inkscape:groupmode="layer"
     inkscape:label="B.Cu" />
  <g
     style="display:none"
     id="g2959"
     inkscape:groupmode="layer"
     inkscape:label="B.Mask" />
  <g
     style="display:inline"
     id="g2961"
     inkscape:groupmode="layer"
     inkscape:label="B.SilkS" />
  <g
     style="display:none"
     id="g2963"
     inkscape:groupmode="layer"
     inkscape:label="F.Cu" />
  <g
     style="display:none"
     id="g2965"
     inkscape:groupmode="layer"
     inkscape:label="F.Mask" />
  <g
     style="display:inline;opacity:1"
     id="g2967"
     inkscape:groupmode="layer"
     inkscape:label="F.SilkS">
    <text
       id="text964"
       y="80.803177"
       x="75.884544"
       style="font-size:10.5833px;line-height:1.25;font-family:'Permanent Marker';-inkscape-font-specification:'Permanent Marker';letter-spacing:0px;word-spacing:0px;stroke-width:0.264583"
       xml:space="preserve"><tspan
         style="stroke-width:0.264583"
         y="80.803177"
         x="75.884544"
         id="tspan962"
         sodipodi:role="line"></tspan><tspan
         id="tspan966"
         style="stroke-width:0.264583"
         y="94.032303"
         x="75.884544"
         sodipodi:role="line" /></text>
    <text
       xml:space="preserve"
       style="font-style:normal;font-variant:normal;font-weight:normal;font-stretch:normal;font-size:3.52778px;line-height:1.25;font-family:'Permanent Marker';-inkscape-font-specification:'Permanent Marker';letter-spacing:0px;word-spacing:0px;opacity:1;fill:#000000;stroke-width:0.264583"
       x="75.999916"
       y="16.511286"
       id="text1154"><tspan
         sodipodi:role="line"
         id="tspan1152"
         x="75.999916"
         y="16.511286"
         style="font-style:normal;font-variant:normal;font-weight:normal;font-stretch:normal;font-size:3.52778px;font-family:'Permanent Marker';-inkscape-font-specification:'Permanent Marker';fill:#000000;stroke-width:0.264583">PMOD</tspan></text>
    <rect
       style="opacity:1;fill:#000000;fill-opacity:1;stroke:none;stroke-width:1.6359"
       id="rect1150"
       width="16.782454"
       height="16.710863"
       x="72.841782"
       y="-3.6032414"
       rx="2"
       ry="2" />
    <text
       transform="rotate(-90)"
       id="text1313-3-0-8"
       y="8.7957602"
       x="-17.941071"
       style="font-size:2.11667px;line-height:1.25;font-family:'Open Sans';-inkscape-font-specification:'Open Sans';letter-spacing:0px;word-spacing:0px;opacity:1;fill:#000000;fill-opacity:1;stroke-width:0.264583"
       xml:space="preserve"><tspan
         style="font-style:normal;font-variant:normal;font-weight:normal;font-stretch:normal;font-size:2.11667px;font-family:'Permanent Marker';-inkscape-font-specification:'Permanent Marker';fill:#000000;fill-opacity:1;stroke-width:0.264583"
         y="8.7957602"
         x="-17.941071"
         id="tspan1311-9-8-5"
         sodipodi:role="line">SAO #1</tspan></text>
    <rect
       style="opacity:1;fill:#000000;fill-opacity:1;stroke:none;stroke-width:1.05693"
       id="rect1395"
       width="6.3130927"
       height="8.8428545"
       x="0.66697723"
       y="9.944664"
       rx="2"
       ry="2" />
    <text
       xml:space="preserve"
       style="font-style:normal;font-variant:normal;font-weight:normal;font-stretch:normal;font-size:6.35px;line-height:1.45;font-family:'Permanent Marker';-inkscape-font-specification:'Permanent Marker';text-align:center;letter-spacing:0px;word-spacing:0px;text-anchor:middle;opacity:1;fill:#000000;stroke-width:0.264583"
       x="0.84656757"
       y="40.188549"
       id="text1712"
       transform="rotate(-45)"><tspan
         sodipodi:role="line"
         id="tspan1710"
         x="0.84656745"
         y="40.188549"
         style="font-style:normal;font-variant:normal;font-weight:normal;font-stretch:normal;font-size:6.35px;font-family:'Permanent Marker';-inkscape-font-specification:'Permanent Marker';text-align:center;text-anchor:middle;fill:#000000;stroke-width:0.264583">May</tspan><tspan
         sodipodi:role="line"
         x="0.84656793"
         y="49.396049"
         style="font-style:normal;font-variant:normal;font-weight:normal;font-stretch:normal;font-size:6.35px;font-family:'Permanent Marker';-inkscape-font-specification:'Permanent Marker';text-align:center;text-anchor:middle;fill:#000000;stroke-width:0.264583"
         id="tspan1714">Contain</tspan><tspan
         sodipodi:role="line"
         x="0.84656739"
         y="58.60355"
         style="font-style:normal;font-variant:normal;font-weight:normal;font-stretch:normal;font-size:6.35px;font-family:'Permanent Marker';-inkscape-font-specification:'Permanent Marker';text-align:center;text-anchor:middle;fill:#000000;stroke-width:0.264583"
         id="tspan1716">Hackers</tspan></text>
    <text
       xml:space="preserve"
       style="font-size:5.64444px;line-height:1.25;font-family:'Open Sans';-inkscape-font-specification:'Open Sans';letter-spacing:0px;word-spacing:0px;opacity:1;fill:#000000;stroke-width:0.264583"
       x="64.603622"
       y="59.41148"
       id="text1750"><tspan
         sodipodi:role="line"
         id="tspan1748"
         x="64.603622"
         y="59.41148"
         style="font-weight:bold;font-size:5.64444px;fill:#000000;stroke-width:0.264583"> _ </tspan></text>
    <rect
       ry="2"
       rx="2"
       y="77.647278"
       x="32.5"
       height="20.593571"
       width="35"
       id="rect960"
       style="opacity:1;fill:#000000;stroke-width:2.52905" />
    <text
       id="text970"
       y="87.257378"
       x="85.221153"
       style="font-size:5.9052px;line-height:1.25;font-family:'Permanent Marker';-inkscape-font-specification:'Permanent Marker';letter-spacing:0px;word-spacing:0px;opacity:1;fill:#000000;fill-opacity:1;stroke-width:0.14763"
       xml:space="preserve"><tspan
         style="fill:#000000;fill-opacity:1;stroke-width:0.14763"
         y="87.257378"
         x="85.221153"
         id="tspan968"
         sodipodi:role="line">A</tspan></text>
    <text
       xml:space="preserve"
       style="font-size:5.90521px;line-height:1.25;font-family:'Permanent Marker';-inkscape-font-specification:'Permanent Marker';letter-spacing:0px;word-spacing:0px;opacity:1;fill:#000000;fill-opacity:1;stroke-width:0.14763"
       x="77.687683"
       y="95.301064"
       id="text970-0"><tspan
         sodipodi:role="line"
         id="tspan968-3"
         x="77.687683"
         y="95.301064"
         style="fill:#000000;fill-opacity:1;stroke-width:0.14763">B</tspan></text>
    <text
       id="text970-0-0"
       y="73.893311"
       x="70.424408"
       style="font-size:3.52778px;line-height:1.25;font-family:'Permanent Marker';-inkscape-font-specification:'Permanent Marker';letter-spacing:0px;word-spacing:0px;opacity:1;fill:#000000;fill-opacity:1;stroke-width:0.14763"
       xml:space="preserve"><tspan
         style="font-size:3.52778px;fill:#000000;fill-opacity:1;stroke-width:0.14763"
         y="73.893311"
         x="70.424408"
         id="tspan968-3-4"
         sodipodi:role="line">Select</tspan></text>
    <text
       xml:space="preserve"
       style="font-size:3.52777px;line-height:1.25;font-family:'Permanent Marker';-inkscape-font-specification:'Permanent Marker';letter-spacing:0px;word-spacing:0px;opacity:1;fill:#000000;fill-opacity:1;stroke-width:0.14763"
       x="56.302315"
       y="73.870468"
       id="text970-0-0-4"><tspan
         sodipodi:role="line"
         id="tspan968-3-4-4"
         x="56.302315"
         y="73.870468"
         style="font-size:3.52777px;fill:#000000;fill-opacity:1;stroke-width:0.14763">Start</tspan></text>
    <text
       id="text970-0-0-4-7"
       y="73.91967"
       x="35.566113"
       style="font-size:3.52777px;line-height:1.25;font-family:'Permanent Marker';-inkscape-font-specification:'Permanent Marker';letter-spacing:0px;word-spacing:0px;opacity:1;fill:#000000;fill-opacity:1;stroke-width:0.14763"
       xml:space="preserve"><tspan
         style="font-size:3.52777px;fill:#000000;fill-opacity:1;stroke-width:0.14763"
         y="73.91967"
         x="35.566113"
         id="tspan968-3-4-4-6"
         sodipodi:role="line">Menu</tspan></text>
    <text
       id="text970-0-0-4-3"
       y="73.921394"
       x="20.149992"
       style="font-size:3.52777px;line-height:1.25;font-family:'Permanent Marker';-inkscape-font-specification:'Permanent Marker';letter-spacing:0px;word-spacing:0px;opacity:1;fill:#000000;fill-opacity:1;stroke-width:0.14763"
       xml:space="preserve"><tspan
         style="font-size:3.52777px;fill:#000000;fill-opacity:1;stroke-width:0.14763"
         y="73.921394"
         x="20.149992"
         id="tspan968-3-4-4-1"
         sodipodi:role="line">Home</tspan></text>
    <text
       xml:space="preserve"
       style="font-size:2.11667px;line-height:1.25;font-family:'Open Sans';-inkscape-font-specification:'Open Sans';text-align:center;letter-spacing:0px;word-spacing:0px;text-anchor:middle;opacity:1;fill:#000000;fill-opacity:1;stroke-width:0.264583"
       x="3.8503954"
       y="77.513016"
       id="text1313-3-0-8-6"><tspan
         sodipodi:role="line"
         id="tspan1311-9-8-5-2"
         x="3.8503952"
         y="77.513016"
         style="font-style:normal;font-variant:normal;font-weight:normal;font-stretch:normal;font-size:2.11667px;font-family:'Permanent Marker';-inkscape-font-specification:'Permanent Marker';text-align:center;text-anchor:middle;fill:#000000;fill-opacity:1;stroke-width:0.264583">SAO</tspan><tspan
         id="tspan1090"
         sodipodi:role="line"
         x="3.8503954"
         y="80.475586"
         style="font-style:normal;font-variant:normal;font-weight:normal;font-stretch:normal;font-size:2.11667px;font-family:'Permanent Marker';-inkscape-font-specification:'Permanent Marker';text-align:center;text-anchor:middle;fill:#000000;fill-opacity:1;stroke-width:0.264583">#2</tspan></text>
    <text
       xml:space="preserve"
       style="font-size:3.52777px;line-height:1.25;font-family:'Permanent Marker';-inkscape-font-specification:'Permanent Marker';text-align:center;letter-spacing:0px;word-spacing:0px;text-anchor:middle;opacity:1;fill:#000000;fill-opacity:1;stroke-width:0.14763"
       x="93.79631"
       y="52.307537"
       id="text970-0-0-7"><tspan
         sodipodi:role="line"
         id="tspan968-3-4-8"
         x="93.79631"
         y="52.307537"
         style="font-size:3.52777px;text-align:center;text-anchor:middle;fill:#000000;fill-opacity:1;stroke-width:0.14763">IPANE</tspan><tspan
         id="tspan1110"
         sodipodi:role="line"
         x="93.79631"
         y="56.717251"
         style="font-size:3.52777px;text-align:center;text-anchor:middle;fill:#000000;fill-opacity:1;stroke-width:0.14763" /><tspan
         id="tspan1112"
         sodipodi:role="line"
         x="93.79631"
         y="61.126961"
         style="font-size:3.52777px;text-align:center;text-anchor:middle;fill:#000000;fill-opacity:1;stroke-width:0.14763">MINI</tspan></text>
    <text
       xml:space="preserve"
       style="font-size:2.11667px;line-height:1.25;font-family:'Open Sans';-inkscape-font-specification:'Open Sans';letter-spacing:0px;word-spacing:0px;opacity:1;fill:#000000;fill-opacity:1;stroke-width:0.264583"
       x="-31.644327"
       y="6.6214852"
       id="text1313-3-0-8-3"
       transform="rotate(-90)"><tspan
         sodipodi:role="line"
         id="tspan1311-9-8-5-8"
         x="-31.644327"
         y="6.6214852"
         style="font-style:normal;font-variant:normal;font-weight:normal;font-stretch:normal;font-size:2.11667px;font-family:'Permanent Marker';-inkscape-font-specification:'Permanent Marker';fill:#000000;fill-opacity:1;stroke-width:0.264583">STM32</tspan></text>
    <rect
       ry="2"
       rx="2"
       y="20.047537"
       x="0.64464962"
       height="16.779613"
       width="4.0037837"
       id="rect1395-8"
       style="opacity:1;fill:#000000;fill-opacity:1;stroke:none;stroke-width:1.15946" />
    <rect
       ry="2"
       rx="2"
       y="66.345345"
       x="0.66697723"
       height="8.8428545"
       width="6.3130927"
       id="rect1395-3"
       style="opacity:1;fill:#000000;fill-opacity:1;stroke:none;stroke-width:1.05693" />
    <text
       transform="rotate(45)"
       id="text1116"
       y="51.417099"
       x="67.727844"
       style="font-size:3.52778px;line-height:1.25;font-family:'Permanent Marker';-inkscape-font-specification:'Permanent Marker';text-align:center;letter-spacing:0px;word-spacing:0px;text-anchor:middle;display:inline;fill:#000000;stroke-width:0.264583"
       xml:space="preserve"><tspan
         id="tspan1120"
         style="font-size:3.52778px;text-align:center;text-anchor:middle;fill:#000000;stroke-width:0.264583"
         y="51.417099"
         x="67.727844"
         sodipodi:role="line">Met</tspan><tspan
         id="tspan1128"
         style="font-size:3.52778px;text-align:center;text-anchor:middle;fill:#000000;stroke-width:0.264583"
         y="55.826824"
         x="67.727844"
         sodipodi:role="line">Elkaar</tspan><tspan
         id="tspan1126"
         style="font-size:3.52778px;text-align:center;text-anchor:middle;fill:#000000;stroke-width:0.264583"
         y="60.236549"
         x="67.727844"
         sodipodi:role="line">Hacken</tspan></text>
    <text
       xml:space="preserve"
       style="font-size:2.82222px;line-height:1.25;font-family:'Permanent Marker';-inkscape-font-specification:'Permanent Marker';text-align:center;letter-spacing:0px;word-spacing:0px;text-anchor:middle;display:inline;fill:#000000;stroke-width:0.264583"
       x="22.373325"
       y="93.366264"
       id="text1116-5"><tspan
         sodipodi:role="line"
         x="22.373325"
         y="93.366264"
         style="font-size:2.82222px;text-align:center;text-anchor:middle;fill:#000000;stroke-width:0.264583"
         id="tspan1126-1">Prototype</tspan><tspan
         id="tspan1159"
         sodipodi:role="line"
         x="22.373325"
         y="96.894043"
         style="font-size:2.82222px;text-align:center;text-anchor:middle;fill:#000000;stroke-width:0.264583">1</tspan></text>
    <text
       id="text1116-5-8"
       y="11.173031"
       x="55.949047"
       style="font-size:2.82223px;line-height:1.25;font-family:'Permanent Marker';-inkscape-font-specification:'Permanent Marker';text-align:center;letter-spacing:0px;word-spacing:0px;text-anchor:middle;display:inline;fill:#000000;stroke-width:0.264583"
       xml:space="preserve"><tspan
         style="font-size:2.82223px;text-align:center;text-anchor:middle;fill:#000000;stroke-width:0.264583"
         y="11.173031"
         x="55.949047"
         sodipodi:role="line"
         id="tspan1159-9">Rainbow generator</tspan></text>
    <path
       id="path1184"
       d="M 41.777427,10.239398 C 36.144366,10.111776 35.922899,7.4742745 35.922899,7.4742745 v 0"
       style="display:inline;fill:none;stroke:#000000;stroke-width:0.264583px;stroke-linecap:butt;stroke-linejoin:miter;stroke-opacity:1" />
    <path
       id="path1186"
       d="m 35.8702,7.5654762 c -0.0073,1.64e-5 -0.01728,-0.0056 -0.02193,4.94e-5 -0.03162,0.038558 -0.05901,0.2166803 -0.06401,0.2419282 -0.02273,0.1147992 -0.04683,0.2294792 -0.07218,0.343754 -0.01733,0.078139 -0.03916,0.1592027 -0.06003,0.2366688 -0.0076,0.028248 -0.01818,0.05805 -0.01818,0.087689"
       style="display:inline;fill:#000000;stroke:#000000;stroke-width:0.264583px;stroke-linecap:butt;stroke-linejoin:miter;stroke-opacity:1" />
    <path
       style="display:inline;fill:#000000;stroke:#000000;stroke-width:0.264583px;stroke-linecap:butt;stroke-linejoin:miter;stroke-opacity:1"
       d="m 35.8702,7.5654762 c 0.0054,-0.00491 0.009,-0.015782 0.01624,-0.014741 0.04935,0.00718 0.189607,0.1203401 0.210314,0.1356263 0.09415,0.069508 0.189232,0.1380044 0.284964,0.2053593 0.06546,0.046059 0.13621,0.091246 0.20383,0.1344221 0.02465,0.015751 0.05255,0.030642 0.07252,0.052542"
       id="path1186-5" />
  </g>
  <g
     id="g2969"
     inkscape:groupmode="layer"
     inkscape:label="Dwgs.User" />
  <g
     id="g2971"
     inkscape:groupmode="layer"
     inkscape:label="Drill" />
</svg>
