<?xml version="1.0" encoding="UTF-8" standalone="no"?>
<!-- Created with Inkscape (http://www.inkscape.org/) -->

<svg
   width="210mm"
   height="297mm"
   viewBox="0 0 210 297"
   version="1.1"
   id="svg1681"
   inkscape:version="1.1.2 (0a00cf5339, 2022-02-04, custom)"
   sodipodi:docname="outline.svg"
   xmlns:inkscape="http://www.inkscape.org/namespaces/inkscape"
   xmlns:sodipodi="http://sodipodi.sourceforge.net/DTD/sodipodi-0.dtd"
   xmlns="http://www.w3.org/2000/svg"
   xmlns:svg="http://www.w3.org/2000/svg">
  <sodipodi:namedview
     id="namedview1683"
     pagecolor="#ffffff"
     bordercolor="#666666"
     borderopacity="1.0"
     inkscape:pageshadow="2"
     inkscape:pageopacity="0.0"
     inkscape:pagecheckerboard="0"
     inkscape:document-units="mm"
     showgrid="false"
     inkscape:zoom="0.56123737"
     inkscape:cx="397.33633"
     inkscape:cy="561.25984"
     inkscape:window-width="3840"
     inkscape:window-height="2079"
     inkscape:window-x="1680"
     inkscape:window-y="0"
     inkscape:window-maximized="1"
     inkscape:current-layer="layer1" />
  <defs
     id="defs1678" />
  <g
     inkscape:label="Layer 1"
     inkscape:groupmode="layer"
     id="layer1">
    <g
       id="g886"
       transform="matrix(0.27305864,0,0,0.27305864,-78.376183,-365.34178)"
       style="display:inline;fill:none;fill-opacity:1;stroke:#120000;stroke-width:0.732443;stroke-miterlimit:4;stroke-dasharray:none;stroke-opacity:1">
      <path
         d="m 453.25334,1353.1064 c -0.10669,-0.04 -0.28003,-0.04 -0.39999,0 -0.12003,0.04 -3.20003,1.3199 -6.85335,2.84 0,0 -6.06665,2.5332 -6.06665,2.5332 -1.15999,-1.1599 -2.76001,-1.8799 -4.53337,-1.8799 0,0 -0.0533,0 -0.0533,0 -2.15999,0.027 -4.05339,1.1199 -5.20003,2.76 -0.45329,0.4933 -0.89331,0.9866 -1.05331,1.2266 -0.13338,0.1734 -2.29337,0.6534 -20.53336,4.5067 -11.2133,2.36 -20.46664,4.32 -20.54663,4.3467 -0.14665,0.04 -0.16,-0.16 -0.18669,-2.7333 0,0 -0.0267,-2.7867 -0.0267,-2.7867 0,0 -0.23999,-0.24 -0.23999,-0.24 -0.39999,-0.4267 -0.74667,-0.3467 -1.89331,0.4666 0,0 -1.01335,0.7067 -1.01335,0.7067 0,0 -0.87996,-0.92 -0.87996,-0.92 -2.25334,-2.3467 -2.39999,-2.48 -2.66667,-2.48 -0.60002,0 -0.70671,0.1467 -2.06665,2.8 0,0 -0.77336,1.52 -0.77336,1.52 -0.04,-0.053 -0.08,-0.12 -0.13338,-0.1733 -1.15999,-1.16 -2.75993,-1.8801 -4.53328,-1.8801 0,0 -0.0534,0 -0.0534,0 -3.51994,0.04 -6.3466,2.8934 -6.3466,6.4134 0,3.4533 2.74667,6.2533 6.17334,6.3733 -0.13338,0.3601 -0.33333,0.8267 -0.53336,1.3467 -0.42668,1.0134 -0.76001,1.96 -0.76001,2.1066 0,0.1468 0.08,0.3467 0.18668,0.44 0.0933,0.093 0.89331,0.3868 1.76001,0.6401 0.86662,0.2666 1.62663,0.5199 1.69328,0.5733 0.0534,0.053 0.23999,1.04 0.41333,2.3067 0.17334,1.2133 0.33333,2.3333 0.36003,2.4666 0,0 0.0133,0.3333 0.0133,0.3333 -1.76001,0.4401 -3.42667,1.3201 -4.79996,2.5601 -1.18669,1.08 -3.13339,3.6933 -3.98674,5.3466 -0.3466,0.6667 -0.71997,1.68 -0.95996,2.6134 -0.0667,0.2933 -0.15999,0.4133 -0.30664,0.4533 -0.12004,0.013 -0.64006,0.1066 -1.16008,0.2 -1.17325,0.1867 -2.47998,0.6 -3.17325,1 -1.64006,0.9467 -4.20004,3.5066 -5.13339,5.1467 -1.01334,1.7733 -1.38663,3.2933 -1.38663,5.5999 0.0133,2.9067 0.68001,5.4534 1.90665,7.2534 1.34668,1.9734 2.92001,3.1733 4.8667,3.6933 1.17326,0.3067 2.94662,0.4267 4.71997,0.3067 0.82666,-0.053 1.52002,-0.08 1.54663,-0.067 0,0.04 -0.30664,0.72 -0.68001,1.5334 -2.03996,4.3333 -3.61328,9.8267 -4.25325,14.84 -0.29338,2.2933 -0.37338,3.64 -0.32007,6.16 0.04,2.2933 0.0267,2.5199 -0.10661,2.4666 -0.93335,-0.36 -2.18669,-0.7466 -2.97339,-0.9066 -0.85327,-0.1734 -1.15999,-0.1867 -2.84001,-0.1467 -2.79996,0.08 -5.71997,0.56 -8.86661,1.4667 -0.88005,0.2666 -2.18669,0.6267 -2.88005,0.8266 -2.15999,0.5867 -4.43994,1.48 -6.61328,2.5867 -2.05339,1.0534 -3.02669,1.8 -5.44002,4.2 -1.90666,1.9067 -4.93335,5.4 -8.47998,9.8133 -3.61337,4.4934 -4.56006,5.4 -7.96005,7.6667 -2.61328,1.7467 -4.33333,2.7467 -7,4.0933 -2.54663,1.2667 -3.31998,1.7867 -4.06665,2.7067 -2.62662,3.2533 -5.29329,9.2 -7.65332,17.0667 -2.85335,9.5199 -6.12003,24.48 -7.44002,34.12 -0.15999,1.1599 -0.42668,2.84 -0.57332,3.72 -0.92001,5.2933 -1.36003,9.5199 -2.06665,19.88 -0.81332,11.84 -0.92001,14.2133 -1.01335,23.4933 -0.0666,6.7467 0.0667,11.08 0.44002,15.0133 0.0533,0.5467 0.16,2.3467 0.23999,4.0134 0.60002,12.4399 2.0267,20.5867 5.26669,30.1999 1.29329,3.8001 2.9733,7.8134 4.21329,10.0668 1.16,2.1066 2.68002,4.32 3.98666,5.8399 1.60001,1.84 5.41333,4.9333 8.17334,6.6134 0.38672,0.2266 1.50667,0.9467 2.50667,1.6 6.26668,4.1067 10.71997,6.5733 14.69336,8.1466 2.47998,0.9733 6.93335,2.32 11.1333,3.3467 2.9467,0.72 3.80005,0.8933 8.73332,1.76 2.22672,0.4 5.13338,0.9334 6.45337,1.1867 1.33333,0.2533 4.30664,0.7866 6.61336,1.1733 6.30664,1.0533 7.35994,1.2933 11.39998,2.5066 5.69328,1.7067 6.98666,2.2401 20.69328,8.6401 4.84001,2.2533 7.04004,3.16 10.74675,4.4267 2.51993,0.8532 4.35994,1.3599 8.17325,2.2666 1.82675,0.4266 4.33334,1.0667 5.57341,1.4 8.89331,2.4267 23.66667,5.5734 35.73332,7.6133 8.71997,1.4801 9.63997,1.6 13.15999,1.8534 1.82666,0.12 4.74666,0.3333 6.52002,0.4533 1.75993,0.1333 4.45329,0.3334 5.98665,0.44 1.53329,0.1067 4.86662,0.3467 7.41333,0.5333 3.37329,0.24 5.38664,0.3334 7.45329,0.3601 2.53337,0.027 11.18669,0.2666 18.97339,0.5199 3.37329,0.1067 9.59993,0.16 35.92,0.28 10.86662,0.053 21.50668,0.1467 23.63998,0.1867 1.94669,0.04 5.62662,0.1333 9.07999,0.2267 3.45337,0.08 6.66667,0.16 7.68002,0.1866 0.58667,0.013 6.26668,0.027 12.60001,0.013 8.35995,-0.013 12.74667,-0.067 16.03996,-0.1733 2.49333,-0.093 5.74666,-0.1734 7.22664,-0.2001 3.14673,-0.04 6.28003,-0.2933 9.57341,-0.76 4.45329,-0.64 6.50659,-0.8933 8.75993,-1.08 3.68001,-0.32 10.69336,-1.0266 13.04004,-1.3333 3.76001,-0.48 21.89331,-3.08 26.29329,-3.7734 6.54671,-1.0266 8.97339,-1.5066 11.85335,-2.3066 2.23999,-0.6133 11.64006,-3.0267 16.78671,-4.2933 5.50667,-1.36 7.66666,-1.8534 12.53328,-2.8801 2.06673,-0.4399 4.41333,-0.9866 5.23999,-1.2266 2.80005,-0.8267 5.12004,-1.56 6.84001,-2.1867 2.34668,-0.84 8.5734,-3.0133 12.01334,-4.1867 2.47998,-0.8532 7.85336,-2.8532 12.04004,-4.48 8.09335,-3.1599 15.31999,-5.8799 20.14665,-7.5733 2.31999,-0.7999 2.93335,-0.9467 4.95996,-1.1067 2.8667,-0.24 7.10669,-1.32 13.21338,-3.3599 6.28003,-2.0934 9.89331,-3.6 13.82666,-5.7467 5.39998,-2.96 10.85335,-7.3333 13.97331,-11.2 3.28003,-4.0533 5.13338,-7.2266 7.06673,-12.12 1.67993,-4.24 2.02661,-5.4934 2.45329,-8.92 0.53336,-4.24 0.62671,-5.2267 0.7867,-8.2133 0.1866,-3.8 0.19995,-14.96 0.0266,-26.5201 -0.0533,-4.16 -0.14665,-10.5066 -0.1866,-14.1066 -0.0667,-4.7466 -0.14673,-7.8934 -0.32007,-11.3867 -0.14665,-2.64 -0.33334,-6.68 -0.43994,-8.9599 -0.53337,-11.5201 -0.96005,-17.9067 -1.61337,-23.7868 -0.45337,-4.1599 -1,-7.2932 -2.01334,-11.5599 -0.25334,-1.0134 -0.73332,-3.1333 -1.10669,-4.72 -1.85327,-8.1067 -2.91992,-11.4133 -5.18661,-16 -1.90665,-3.8667 -3.50667,-6.0534 -6.98665,-9.5867 -2.36003,-2.3733 -4.53337,-4.12 -8.68001,-6.9333 -6.39999,-4.3467 -8.92001,-5.6 -12.60002,-6.28 -1.38664,-0.2534 -3.73332,-0.3334 -5.02669,-0.16 0,0 -0.95996,0.1333 -0.95996,0.1333 0,0 -0.85336,-1.7067 -0.85336,-1.7067 -1.02669,-2.0666 -1.7867,-3.16 -3.15999,-4.5333 -1.61336,-1.6133 -3.47998,-2.9333 -5.23999,-3.6933 -1.64006,-0.6934 -5.01335,-1.5467 -7.04004,-1.7467 -0.55998,-0.067 -1.03996,-0.12 -1.0533,-0.1334 0,-0.04 0.14664,-0.3066 0.33333,-0.6266 1.39998,-2.3067 2.39998,-6.4667 2.25334,-9.4667 -0.10669,-2.56 -0.78671,-4.1066 -2.45337,-5.6933 -1.09335,-1.04 -2.84001,-1.9467 -4.22665,-2.2 0,0 -0.62662,-0.12 -0.62662,-0.12 0,0 -0.10669,-0.8533 -0.10669,-0.8533 -0.42668,-3.1201 -1.21338,-5.52 -2.39999,-7.28 -0.53336,-0.8 -1.94669,-2.16 -2.94669,-2.8401 -2.47998,-1.7066 -4.95996,-2.8133 -7.12004,-3.2132 0,0 -0.85327,-0.1467 -0.85327,-0.1467 0,0 0.95996,-0.6667 0.95996,-0.6667 0.53337,-0.3466 1.26668,-0.8934 1.62671,-1.1866 1.01326,-0.8134 3.93327,-3.7601 4.45329,-4.48 0.36002,-0.4934 0.49332,-0.6267 0.64005,-0.5734 0.57333,0.1867 2,0.4133 2.57333,0.4133 1.41333,0 2.95996,-0.6266 4.38663,-1.7866 1.18669,-0.9467 1.74667,-1.68 2.61337,-3.3867 1.1333,-2.2267 1.54663,-3.5467 1.9733,-6.2933 0.12004,-0.8534 0.14665,-1.4401 0.0933,-3.2534 -0.10669,-4.0399 -0.53337,-6.6666 -1.57333,-9.6666 -1.28003,-3.7067 -4.01334,-7.1867 -6.39998,-8.1333 -0.21338,-0.093 -0.40007,-0.1867 -0.40007,-0.2134 0,-0.027 0.18669,-0.32 0.41333,-0.6667 0.85336,-1.2667 1.14673,-2.3467 1.08,-3.76 -0.0933,-1.6933 -0.93327,-3.4133 -2.41333,-4.9466 -2.22664,-2.32 -5.51994,-3.7333 -9.39998,-4.0534 -2.22665,-0.1866 -5.61328,0.24 -7.62663,0.9334 0,0 -0.54671,0.1866 -0.54671,0.1866 0,0 0,-1.2 0,-1.2 0,-1.48 -0.22665,-2.3866 -0.95996,-3.8133 -1.28003,-2.4666 -3.28003,-4.3866 -5.97339,-5.7066 -3.11996,-1.5201 -8.51994,-2.1067 -12.74667,-1.3868 -1.27994,0.2134 -2.54663,0.56 -4.47998,1.1867 -3.84,1.2667 -7.17334,2.88 -11.19995,5.4401 -3.20003,2.0266 -4.84,3.3599 -7.02669,5.7199 0,0 -1.26668,1.3734 -1.26668,1.3734 0,0 -0.0666,-0.4001 -0.0666,-0.4001 -0.04,-0.2133 -0.18669,-1.1333 -0.31999,-2.0533 -0.33333,-2.24 -0.62671,-3.5466 -1.22673,-5.32 -1.37329,-4.1599 -3.39998,-7.4799 -6.41333,-10.4933 -2.75992,-2.76 -5.50667,-4.3467 -8.77327,-5.0666 -0.85335,-0.1867 -1.22673,-0.2001 -3.64006,-0.2001 -3.69327,-0.013 -4.33333,0.1201 -7.21329,1.4934 -1.79997,0.8667 -3.23999,2.04 -4.26669,3.4933 0,0 -0.57332,0.8 -0.57332,0.8 0,0 -0.2133,-0.4 -0.2133,-0.4 -0.85335,-1.5467 -2.30672,-3.3867 -3.88004,-4.9333 -1.38664,-1.3467 -2.25334,-2.04 -3.86662,-3.1067 -3.85335,-2.56 -8.68001,-4.3067 -14.54671,-5.2934 -4.58667,-0.76 -9.46664,-0.08 -12.97331,1.8134 -0.92,0.4934 -1.53337,0.9333 -2.96004,2.16 -1.41333,1.2 -1.47998,1.2267 -2.25334,0.9333 -1.89331,-0.7066 -7,-1.6799 -10.10661,-1.92 -8.54671,-0.64 -17.8667,0.6934 -28.25333,4.0534 -0.97339,0.3066 -2.66667,0.7999 -3.76001,1.0933 -8.8667,2.3334 -15.56006,4.52 -25.33334,8.2667 -7.12003,2.7333 -9.30672,3.6799 -16.42667,7.0667 -1.65332,0.7866 -4.12004,1.9466 -5.46672,2.5733 -1.35994,0.6133 -3.94661,1.8533 -5.75993,2.7333 -4.20003,2.0267 -5.6534,2.6934 -8.40006,3.8 -5.49333,2.2267 -9.02661,3.32 -13.06665,4.0533 -2.79997,0.5067 -3.93335,0.6267 -6.42668,0.6801 0,0 -2.30664,0.053 -2.30664,0.053 0,0 1.02669,-0.64 1.02669,-0.64 3.71997,-2.2533 6.30664,-4.6533 7.78662,-7.2134 0.22673,-0.3866 0.65332,-1.1066 0.9467,-1.6 0.98665,-1.64 1.84001,-3.4933 2.41333,-5.24 1.18669,-3.6266 1.06665,-6.7866 -0.44002,-11.84 -0.94662,-3.1733 -2.06665,-4.9466 -4.98666,-7.84 -2.66666,-2.6667 -3.93335,-3.6533 -6.70662,-5.2133 -3.34668,-1.9067 -4.41341,-2.2933 -8.54671,-3.1333 -2.82666,-0.5733 -4.39999,-0.8001 -6.54663,-0.9067 -7.70671,-0.4 -17.93335,1.92 -25.58667,5.8134 -3.26669,1.6533 -5.78671,3.3999 -7.8667,5.4133 0,0 -3.23999,3.5067 -3.23999,3.5067 z"
         style="fill:none;fill-opacity:1;stroke:#120000;stroke-width:0.732443;stroke-miterlimit:4;stroke-dasharray:none;stroke-opacity:1"
         id="path31" />
      <path
         d="m 666.1604,1421.4211 c -0.61686,-0.5176 -4.66349,-3.412 -6.29403,-4.502 -1.55159,-1.0371 -2.86238,-1.8372 -4.2771,-2.611 -0.64892,-0.3549 -1.7517,-0.9866 -2.45068,-1.4037 -1.26009,-0.7523 -6.44808,-3.2663 -8.26229,-4.0039 -3.07275,-1.2494 -11.45198,-4.1011 -15.43237,-5.2522 -2.76978,-0.8011 -6.12126,-1.5845 -10.28825,-2.4051 -3.88151,-0.7644 -5.81356,-1.0143 -11.01099,-1.4241 -1.30599,-0.103 -3.11116,-0.2624 -4.01147,-0.3543 -1.33911,-0.1366 -2.49544,-0.1661 -6.35628,-0.1623 -2.67277,0 -5.45614,0.055 -6.41838,0.1202 -4.97396,0.3378 -14.12313,1.1449 -15.71297,1.3862 -0.49455,0.075 -2.08854,0.3459 -3.54207,0.6018 -1.45354,0.2559 -3.47112,0.5748 -4.4834,0.7087 -1.01229,0.1337 -3.47583,0.458 -5.47453,0.7204 -3.42668,0.4499 -10.15194,1.4665 -15.93994,2.4095 -4.87232,0.7938 -6.38184,0.9959 -9.07276,1.2146 -3.20394,0.2605 -9.33553,0.5244 -12.22314,0.5262 -0.88257,5e-4 -2.17798,0.043 -2.87883,0.095 -4.78768,0.3553 -15.86556,0.5787 -19.11344,0.3856 -4.88143,-0.2902 -8.12354,-0.7738 -12.4366,-1.8548 -3.37216,-0.8452 -10.57137,-2.9867 -12.10417,-3.6006 -0.71249,-0.2848 -1.53874,-0.6732 -2.42025,-1.1256 0,0 0.35205,0.1923 0.35205,0.1923 0,0 7.26652,7.5822 7.26652,7.5822 3.99658,4.1703 7.73454,8.0629 8.30656,8.6504 0,0 0.32487,0.3336 0.32487,0.3336 1.0612,-0.8092 2.36882,-1.3125 3.80689,-1.3288 0,0 0.0533,0 0.0533,0 1.77336,0 3.37337,0.72 4.53337,1.88 1.15999,1.16 1.87996,2.7599 1.87996,4.5333 0,0.3124 -0.0489,0.6111 -0.092,0.9112 1.20329,0.5453 3.21151,1.1338 5.9397,1.7345 1.29467,0.2852 1.38346,0.2919 4.38899,0.3309 4.15617,0.054 7.13876,-0.1447 14.48047,-0.9645 5.75928,-0.6431 10.13631,-1.0244 15.72355,-1.3696 4.06242,-0.251 10.40056,-0.6341 12.45915,-0.753 3.52083,-0.2035 8.48462,-0.376 22.13387,-0.7692 4.10775,-0.1184 17.50488,-0.2293 25.90934,-0.2146 5.92994,0.011 7.98609,0.073 15.19637,0.46 2.39722,0.1288 6.65072,0.2742 9.62753,0.3291 12.13175,0.2237 17.31331,0.5296 23.36084,1.3794 8.208,1.1532 15.61425,2.5838 20.75838,4.0095 0.67383,0.1868 0.9213,0.2659 1.22428,0.487 -0.75219,-0.6763 -1.56608,-1.4522 -2.61596,-2.4825 -1.35832,-1.3331 -3.59522,-3.3776 -4.81405,-4.4001 z"
         style="fill:none;fill-opacity:1;stroke:#120000;stroke-width:0.732443;stroke-miterlimit:4;stroke-dasharray:none;stroke-opacity:1"
         id="path33" />
    </g>
  </g>
</svg>
