999
"DXF R12 Output" (www.mydxf.blogspot.com)
 0 
SECTION
 2 
HEADER
 9 
$ACADVER
 1 
AC1009
 9 
$EXTMIN
 10 
 0 
 20 
 0 
 9 
$EXTMAX
 10 
 8.5 
 20 
 11 
 0 
ENDSEC
 0 
SECTION
 2 
ENTITIES
0
LINE
8
Layer 1
10
127.918000
20
-298.056000
11
127.805114
21
-298.056000
0
LINE
8
Layer 1
10
127.805114
20
-298.056000
11
125.870944
21
-298.857510
0
LINE
8
Layer 1
10
125.870944
20
-298.857510
11
124.158804
21
-299.572435
0
LINE
8
Layer 1
10
124.158804
20
-299.572435
11
123.584010
21
-299.184405
0
LINE
8
Layer 1
10
123.584010
20
-299.184405
11
122.879384
21
-299.041886
0
LINE
8
Layer 1
10
122.879384
20
-299.041886
11
122.864342
21
-299.041886
0
LINE
8
Layer 1
10
122.864342
20
-299.041886
11
122.023313
21
-299.260633
0
LINE
8
Layer 1
10
122.023313
20
-299.260633
11
121.396782
21
-299.820819
0
LINE
8
Layer 1
10
121.396782
20
-299.820819
11
121.099515
21
-300.166993
0
LINE
8
Layer 1
10
121.099515
20
-300.166993
11
115.304545
21
-301.438883
0
LINE
8
Layer 1
10
115.304545
20
-301.438883
11
109.505835
21
-302.665613
0
LINE
8
Layer 1
10
109.505835
20
-302.665613
11
109.453147
21
-301.894216
0
LINE
8
Layer 1
10
109.453147
20
-301.894216
11
109.445611
21
-301.107748
0
LINE
8
Layer 1
10
109.445611
20
-301.107748
11
109.377881
21
-301.040015
0
LINE
8
Layer 1
10
109.377881
20
-301.040015
11
109.189734
21
-300.974624
0
LINE
8
Layer 1
10
109.189734
20
-300.974624
11
108.843547
21
-301.171700
0
LINE
8
Layer 1
10
108.843547
20
-301.171700
11
108.557557
21
-301.371146
0
LINE
8
Layer 1
10
108.557557
20
-301.371146
11
108.309213
21
-301.111502
0
LINE
8
Layer 1
10
108.309213
20
-301.111502
11
107.556620
21
-300.411591
0
LINE
8
Layer 1
10
107.556620
20
-300.411591
11
107.345418
21
-300.525894
0
LINE
8
Layer 1
10
107.345418
20
-300.525894
11
106.973366
21
-301.201813
0
LINE
8
Layer 1
10
106.973366
20
-301.201813
11
106.755107
21
-301.630790
0
LINE
8
Layer 1
10
106.755107
20
-301.630790
11
106.717464
21
-301.581881
0
LINE
8
Layer 1
10
106.717464
20
-301.581881
11
106.142682
21
-301.193811
0
LINE
8
Layer 1
10
106.142682
20
-301.193811
11
105.438074
21
-301.051275
0
LINE
8
Layer 1
10
105.438074
20
-301.051275
11
105.423003
21
-301.051275
0
LINE
8
Layer 1
10
105.423003
20
-301.051275
11
104.724043
21
-301.199150
0
LINE
8
Layer 1
10
104.724043
20
-301.199150
11
104.154901
21
-301.587976
0
LINE
8
Layer 1
10
104.154901
20
-301.587976
11
103.772023
21
-302.160951
0
LINE
8
Layer 1
10
103.772023
20
-302.160951
11
103.631853
21
-302.861275
0
LINE
8
Layer 1
10
103.631853
20
-302.861275
11
103.768084
21
-303.548715
0
LINE
8
Layer 1
10
103.768084
20
-303.548715
11
104.140324
21
-304.113392
0
LINE
8
Layer 1
10
104.140324
20
-304.113392
11
104.693890
21
-304.501683
0
LINE
8
Layer 1
10
104.693890
20
-304.501683
11
105.374103
21
-304.659965
0
LINE
8
Layer 1
10
105.374103
20
-304.659965
11
105.223577
21
-305.040033
0
LINE
8
Layer 1
10
105.223577
20
-305.040033
11
105.009085
21
-305.634562
0
LINE
8
Layer 1
10
105.009085
20
-305.634562
11
105.061770
21
-305.758740
0
LINE
8
Layer 1
10
105.061770
20
-305.758740
11
105.558484
21
-305.939390
0
LINE
8
Layer 1
10
105.558484
20
-305.939390
11
106.036365
21
-306.101188
0
LINE
8
Layer 1
10
106.036365
20
-306.101188
11
106.153016
21
-306.752189
0
LINE
8
Layer 1
10
106.153016
20
-306.752189
11
106.254624
21
-307.448318
0
LINE
8
Layer 1
10
106.254624
20
-307.448318
11
106.258378
21
-307.542382
0
LINE
8
Layer 1
10
106.258378
20
-307.542382
11
105.540123
21
-307.818984
0
LINE
8
Layer 1
10
105.540123
20
-307.818984
11
104.903728
21
-308.264899
0
LINE
8
Layer 1
10
104.903728
20
-308.264899
11
103.778578
21
-309.773829
0
LINE
8
Layer 1
10
103.778578
20
-309.773829
11
103.507656
21
-310.511388
0
LINE
8
Layer 1
10
103.507656
20
-310.511388
11
103.421115
21
-310.639319
0
LINE
8
Layer 1
10
103.421115
20
-310.639319
11
103.093715
21
-310.695764
0
LINE
8
Layer 1
10
103.093715
20
-310.695764
11
102.198154
21
-310.977986
0
LINE
8
Layer 1
10
102.198154
20
-310.977986
11
101.398984
21
-311.630857
0
LINE
8
Layer 1
10
101.398984
20
-311.630857
11
100.749394
21
-312.430496
0
LINE
8
Layer 1
10
100.749394
20
-312.430496
11
100.446481
21
-313.164262
0
LINE
8
Layer 1
10
100.446481
20
-313.164262
11
100.358057
21
-314.010906
0
LINE
8
Layer 1
10
100.358057
20
-314.010906
11
100.498695
21
-315.151566
0
LINE
8
Layer 1
10
100.498695
20
-315.151566
11
100.896156
21
-316.057976
0
LINE
8
Layer 1
10
100.896156
20
-316.057976
11
101.519400
21
-316.732959
0
LINE
8
Layer 1
10
101.519400
20
-316.732959
11
102.269646
21
-317.100306
0
LINE
8
Layer 1
10
102.269646
20
-317.100306
11
103.601726
21
-317.186863
0
LINE
8
Layer 1
10
103.601726
20
-317.186863
11
104.038219
21
-317.167954
0
LINE
8
Layer 1
10
104.038219
20
-317.167954
11
103.846305
21
-317.600713
0
LINE
8
Layer 1
10
103.846305
20
-317.600713
11
103.097958
21
-319.622832
0
LINE
8
Layer 1
10
103.097958
20
-319.622832
11
102.645945
21
-321.788883
0
LINE
8
Layer 1
10
102.645945
20
-321.788883
11
102.555615
21
-323.527373
0
LINE
8
Layer 1
10
102.555615
20
-323.527373
11
102.525527
21
-324.223502
0
LINE
8
Layer 1
10
102.525527
20
-324.223502
11
101.686371
21
-323.967640
0
LINE
8
Layer 1
10
101.686371
20
-323.967640
11
100.884858
21
-323.926238
0
LINE
8
Layer 1
10
100.884858
20
-323.926238
11
99.670373
21
-324.045713
0
LINE
8
Layer 1
10
99.670373
20
-324.045713
11
98.382508
21
-324.340173
0
LINE
8
Layer 1
10
98.382508
20
-324.340173
11
97.569695
21
-324.573458
0
LINE
8
Layer 1
10
97.569695
20
-324.573458
11
95.703285
21
-325.303482
0
LINE
8
Layer 1
10
95.703285
20
-325.303482
11
94.973732
21
-325.753633
0
LINE
8
Layer 1
10
94.973732
20
-325.753633
11
94.167995
21
-326.488812
0
LINE
8
Layer 1
10
94.167995
20
-326.488812
11
91.774755
21
-329.258342
0
LINE
8
Layer 1
10
91.774755
20
-329.258342
11
90.628922
21
-330.575858
0
LINE
8
Layer 1
10
90.628922
20
-330.575858
11
89.528255
21
-331.422052
0
LINE
8
Layer 1
10
89.528255
20
-331.422052
11
87.552705
21
-332.577272
0
LINE
8
Layer 1
10
87.552705
20
-332.577272
11
86.788360
21
-332.995910
0
LINE
8
Layer 1
10
86.788360
20
-332.995910
11
86.405005
21
-333.341162
0
LINE
8
Layer 1
10
86.405005
20
-333.341162
11
85.296824
21
-335.261210
0
LINE
8
Layer 1
10
85.296824
20
-335.261210
11
84.245065
21
-338.157762
0
LINE
8
Layer 1
10
84.245065
20
-338.157762
11
83.032914
21
-342.959758
0
LINE
8
Layer 1
10
83.032914
20
-342.959758
11
82.145325
21
-347.787172
0
LINE
8
Layer 1
10
82.145325
20
-347.787172
11
81.983521
21
-348.837042
0
LINE
8
Layer 1
10
81.983521
20
-348.837042
11
81.669310
21
-351.106096
0
LINE
8
Layer 1
10
81.669310
20
-351.106096
11
81.400267
21
-354.447612
0
LINE
8
Layer 1
10
81.400267
20
-354.447612
11
81.114277
21
-361.077942
0
LINE
8
Layer 1
10
81.114277
20
-361.077942
11
81.238460
21
-365.315022
0
LINE
8
Layer 1
10
81.238460
20
-365.315022
11
81.306190
21
-366.447692
0
LINE
8
Layer 1
10
81.306190
20
-366.447692
11
81.769982
21
-371.008388
0
LINE
8
Layer 1
10
81.769982
20
-371.008388
11
82.198374
21
-372.988176
0
LINE
8
Layer 1
10
82.198374
20
-372.988176
11
82.792570
21
-374.970772
0
LINE
8
Layer 1
10
82.792570
20
-374.970772
11
83.981650
21
-377.811842
0
LINE
8
Layer 1
10
83.981650
20
-377.811842
11
85.106770
21
-379.459992
0
LINE
8
Layer 1
10
85.106770
20
-379.459992
11
86.137352
21
-380.410140
0
LINE
8
Layer 1
10
86.137352
20
-380.410140
11
87.413470
21
-381.326442
0
LINE
8
Layer 1
10
87.413470
20
-381.326442
11
88.120907
21
-381.777997
0
LINE
8
Layer 1
10
88.120907
20
-381.777997
11
90.437006
21
-383.195690
0
LINE
8
Layer 1
10
90.437006
20
-383.195690
11
92.267697
21
-384.077147
0
LINE
8
Layer 1
10
92.267697
20
-384.077147
11
95.409757
21
-385.021659
0
LINE
8
Layer 1
10
95.409757
20
-385.021659
11
97.874497
21
-385.518370
0
LINE
8
Layer 1
10
97.874497
20
-385.518370
11
99.695777
21
-385.853283
0
LINE
8
Layer 1
10
99.695777
20
-385.853283
11
101.562217
21
-386.184414
0
LINE
8
Layer 1
10
101.562217
20
-386.184414
11
104.779547
21
-386.891832
0
LINE
8
Layer 1
10
104.779547
20
-386.891832
11
106.851520
21
-387.614339
0
LINE
8
Layer 1
10
106.851520
20
-387.614339
11
110.619647
21
-389.330262
0
LINE
8
Layer 1
10
110.619647
20
-389.330262
11
113.652617
21
-390.579572
0
LINE
8
Layer 1
10
113.652617
20
-390.579572
11
115.959287
21
-391.219256
0
LINE
8
Layer 1
10
115.959287
20
-391.219256
11
117.532227
21
-391.614367
0
LINE
8
Layer 1
10
117.532227
20
-391.614367
11
122.238742
21
-392.729625
0
LINE
8
Layer 1
10
122.238742
20
-392.729625
11
127.616927
21
-393.763007
0
LINE
8
Layer 1
10
127.616927
20
-393.763007
11
131.330967
21
-394.286077
0
LINE
8
Layer 1
10
131.330967
20
-394.286077
11
133.171057
21
-394.414008
0
LINE
8
Layer 1
10
133.171057
20
-394.414008
11
134.860617
21
-394.538186
0
LINE
8
Layer 1
10
134.860617
20
-394.538186
11
136.952817
21
-394.688695
0
LINE
8
Layer 1
10
136.952817
20
-394.688695
11
139.056297
21
-394.790323
0
LINE
8
Layer 1
10
139.056297
20
-394.790323
11
144.411007
21
-394.937050
0
LINE
8
Layer 1
10
144.411007
20
-394.937050
11
154.548407
21
-395.016072
0
LINE
8
Layer 1
10
154.548407
20
-395.016072
11
161.220127
21
-395.068763
0
LINE
8
Layer 1
10
161.220127
20
-395.068763
11
163.782697
21
-395.132743
0
LINE
8
Layer 1
10
163.782697
20
-395.132743
11
165.950167
21
-395.185405
0
LINE
8
Layer 1
10
165.950167
20
-395.185405
11
169.506167
21
-395.189074
0
LINE
8
Layer 1
10
169.506167
20
-395.189074
11
174.032997
21
-395.140165
0
LINE
8
Layer 1
10
174.032997
20
-395.140165
11
176.072517
21
-395.083693
0
LINE
8
Layer 1
10
176.072517
20
-395.083693
11
178.774347
21
-394.869204
0
LINE
8
Layer 1
10
178.774347
20
-394.869204
11
181.246587
21
-394.564404
0
LINE
8
Layer 1
10
181.246587
20
-394.564404
11
184.926777
21
-394.188117
0
LINE
8
Layer 1
10
184.926777
20
-394.188117
11
192.347317
21
-393.123177
0
LINE
8
Layer 1
10
192.347317
20
-393.123177
11
195.692597
21
-392.472204
0
LINE
8
Layer 1
10
195.692597
20
-392.472204
11
200.430177
21
-391.260544
0
LINE
8
Layer 1
10
200.430177
20
-391.260544
11
203.967347
21
-390.447716
0
LINE
8
Layer 1
10
203.967347
20
-390.447716
11
205.446187
21
-390.101542
0
LINE
8
Layer 1
10
205.446187
20
-390.101542
11
207.376587
21
-389.484407
0
LINE
8
Layer 1
10
207.376587
20
-389.484407
11
210.767017
21
-388.302827
0
LINE
8
Layer 1
10
210.767017
20
-388.302827
11
214.164977
21
-387.038477
0
LINE
8
Layer 1
10
214.164977
20
-387.038477
11
219.850807
21
-384.901127
0
LINE
8
Layer 1
10
219.850807
20
-384.901127
11
221.250617
21
-384.588792
0
LINE
8
Layer 1
10
221.250617
20
-384.588792
11
222.772271
21
-384.305162
0
LINE
8
Layer 1
10
222.772271
20
-384.305162
11
224.979727
21
-383.640554
0
LINE
8
Layer 1
10
224.979727
20
-383.640554
11
227.179177
21
-382.835271
0
LINE
8
Layer 1
10
227.179177
20
-382.835271
11
228.881917
21
-382.018704
0
LINE
8
Layer 1
10
228.881917
20
-382.018704
11
231.095005
21
-380.534219
0
LINE
8
Layer 1
10
231.095005
20
-380.534219
11
232.825497
21
-378.857814
0
LINE
8
Layer 1
10
232.825497
20
-378.857814
11
233.965214
21
-377.236457
0
LINE
8
Layer 1
10
233.965214
20
-377.236457
11
234.819887
21
-375.437284
0
LINE
8
Layer 1
10
234.819887
20
-375.437284
11
235.298709
21
-374.092489
0
LINE
8
Layer 1
10
235.298709
20
-374.092489
11
235.512259
21
-372.919864
0
LINE
8
Layer 1
10
235.512259
20
-372.919864
11
235.734283
21
-370.601894
0
LINE
8
Layer 1
10
235.734283
20
-370.601894
11
235.741791
21
-363.117334
0
LINE
8
Layer 1
10
235.741791
20
-363.117334
11
235.689128
21
-359.136144
0
LINE
8
Layer 1
10
235.689128
20
-359.136144
11
235.598797
21
-355.922564
0
LINE
8
Layer 1
10
235.598797
20
-355.922564
11
235.474636
21
-353.393884
0
LINE
8
Layer 1
10
235.474636
20
-353.393884
11
235.019307
21
-346.680724
0
LINE
8
Layer 1
10
235.019307
20
-346.680724
11
234.451098
21
-343.418264
0
LINE
8
Layer 1
10
234.451098
20
-343.418264
11
234.138766
21
-342.086174
0
LINE
8
Layer 1
10
234.138766
20
-342.086174
11
233.450631
21
-339.455866
0
LINE
8
Layer 1
10
233.450631
20
-339.455866
11
232.674986
21
-337.570624
0
LINE
8
Layer 1
10
232.674986
20
-337.570624
11
231.855603
21
-336.182550
0
LINE
8
Layer 1
10
231.855603
20
-336.182550
11
230.703196
21
-334.865044
0
LINE
8
Layer 1
10
230.703196
20
-334.865044
11
229.667433
21
-333.933247
0
LINE
8
Layer 1
10
229.667433
20
-333.933247
11
228.253506
21
-332.908314
0
LINE
8
Layer 1
10
228.253506
20
-332.908314
11
226.187641
21
-331.634081
0
LINE
8
Layer 1
10
226.187641
20
-331.634081
11
224.697506
21
-331.135964
0
LINE
8
Layer 1
10
224.697506
20
-331.135964
11
223.278866
21
-331.090808
0
LINE
8
Layer 1
10
223.278866
20
-331.090808
11
223.007944
21
-331.128428
0
LINE
8
Layer 1
10
223.007944
20
-331.128428
11
222.767107
21
-330.646760
0
LINE
8
Layer 1
10
222.767107
20
-330.646760
11
221.875288
21
-329.367360
0
LINE
8
Layer 1
10
221.875288
20
-329.367360
11
221.151388
21
-328.755888
0
LINE
8
Layer 1
10
221.151388
20
-328.755888
11
220.396448
21
-328.325030
0
LINE
8
Layer 1
10
220.396448
20
-328.325030
11
218.409598
21
-327.832073
0
LINE
8
Layer 1
10
218.409598
20
-327.832073
11
218.112334
21
-327.794425
0
LINE
8
Layer 1
10
218.112334
20
-327.794425
11
218.206407
21
-327.617585
0
LINE
8
Layer 1
10
218.206407
20
-327.617585
11
218.688062
21
-326.355102
0
LINE
8
Layer 1
10
218.688062
20
-326.355102
11
218.842349
21
-324.945875
0
LINE
8
Layer 1
10
218.842349
20
-324.945875
11
218.661248
21
-324.039482
0
LINE
8
Layer 1
10
218.661248
20
-324.039482
11
218.149954
21
-323.339105
0
LINE
8
Layer 1
10
218.149954
20
-323.339105
11
217.584568
21
-322.945402
0
LINE
8
Layer 1
10
217.584568
20
-322.945402
11
216.957104
21
-322.718217
0
LINE
8
Layer 1
10
216.957104
20
-322.718217
11
216.780258
21
-322.684350
0
LINE
8
Layer 1
10
216.780258
20
-322.684350
11
216.750148
21
-322.443530
0
LINE
8
Layer 1
10
216.750148
20
-322.443530
11
216.491909
21
-321.272296
0
LINE
8
Layer 1
10
216.491909
20
-321.272296
11
216.072818
21
-320.388950
0
LINE
8
Layer 1
10
216.072818
20
-320.388950
11
215.241197
21
-319.587411
0
LINE
8
Layer 1
10
215.241197
20
-319.587411
11
214.202625
21
-318.995701
0
LINE
8
Layer 1
10
214.202625
20
-318.995701
11
213.231767
21
-318.680575
0
LINE
8
Layer 1
10
213.231767
20
-318.680575
11
212.990955
21
-318.639173
0
LINE
8
Layer 1
10
212.990955
20
-318.639173
11
213.261877
21
-318.451016
0
LINE
8
Layer 1
10
213.261877
20
-318.451016
11
213.720970
21
-318.116131
0
LINE
8
Layer 1
10
213.720970
20
-318.116131
11
214.977790
21
-316.851781
0
LINE
8
Layer 1
10
214.977790
20
-316.851781
11
215.158426
21
-316.689955
0
LINE
8
Layer 1
10
215.158426
20
-316.689955
11
215.884676
21
-316.806597
0
LINE
8
Layer 1
10
215.884676
20
-316.806597
11
216.502266
21
-316.677255
0
LINE
8
Layer 1
10
216.502266
20
-316.677255
11
217.122676
21
-316.302379
0
LINE
8
Layer 1
10
217.122676
20
-316.302379
11
217.525317
21
-315.904912
0
LINE
8
Layer 1
10
217.525317
20
-315.904912
11
217.860227
21
-315.346578
0
LINE
8
Layer 1
10
217.860227
20
-315.346578
11
218.213466
21
-314.513546
0
LINE
8
Layer 1
10
218.213466
20
-314.513546
11
218.417136
21
-313.570468
0
LINE
8
Layer 1
10
218.417136
20
-313.570468
11
218.443467
21
-312.652287
0
LINE
8
Layer 1
10
218.443467
20
-312.652287
11
218.320224
21
-311.178167
0
LINE
8
Layer 1
10
218.320224
20
-311.178167
11
217.999439
21
-309.924157
0
LINE
8
Layer 1
10
217.999439
20
-309.924157
11
217.213448
21
-308.484351
0
LINE
8
Layer 1
10
217.213448
20
-308.484351
11
216.708802
21
-307.953013
0
LINE
8
Layer 1
10
216.708802
20
-307.953013
11
216.193219
21
-307.628757
0
LINE
8
Layer 1
10
216.193219
20
-307.628757
11
216.080310
21
-307.568531
0
LINE
8
Layer 1
10
216.080310
20
-307.568531
11
216.196961
21
-307.380374
0
LINE
8
Layer 1
10
216.196961
20
-307.380374
11
216.446737
21
-306.865313
0
LINE
8
Layer 1
10
216.446737
20
-306.865313
11
216.501761
21
-306.319224
0
LINE
8
Layer 1
10
216.501761
20
-306.319224
11
216.307979
21
-305.604271
0
LINE
8
Layer 1
10
216.307979
20
-305.604271
11
215.820666
21
-304.923184
0
LINE
8
Layer 1
10
215.820666
20
-304.923184
11
214.669210
21
-304.139549
0
LINE
8
Layer 1
10
214.669210
20
-304.139549
11
213.167786
21
-303.779224
0
LINE
8
Layer 1
10
213.167786
20
-303.779224
11
212.069011
21
-303.817804
0
LINE
8
Layer 1
10
212.069011
20
-303.817804
11
211.015386
21
-304.042650
0
LINE
8
Layer 1
10
211.015386
20
-304.042650
11
210.861092
21
-304.095313
0
LINE
8
Layer 1
10
210.861092
20
-304.095313
11
210.861092
21
-303.756647
0
LINE
8
Layer 1
10
210.861092
20
-303.756647
11
210.803240
21
-303.212907
0
LINE
8
Layer 1
10
210.803240
20
-303.212907
11
210.590170
21
-302.680447
0
LINE
8
Layer 1
10
210.590170
20
-302.680447
11
209.896836
21
-301.753832
0
LINE
8
Layer 1
10
209.896836
20
-301.753832
11
208.904350
21
-301.069917
0
LINE
8
Layer 1
10
208.904350
20
-301.069917
11
207.222790
21
-300.637158
0
LINE
8
Layer 1
10
207.222790
20
-300.637158
11
205.306960
21
-300.678532
0
LINE
8
Layer 1
10
205.306960
20
-300.678532
11
204.042610
21
-301.013445
0
LINE
8
Layer 1
10
204.042610
20
-301.013445
11
202.481926
21
-301.644219
0
LINE
8
Layer 1
10
202.481926
20
-301.644219
11
200.881740
21
-302.548765
0
LINE
8
Layer 1
10
200.881740
20
-302.548765
11
199.782953
21
-303.320621
0
LINE
8
Layer 1
10
199.782953
20
-303.320621
11
198.898650
21
-304.163045
0
LINE
8
Layer 1
10
198.898650
20
-304.163045
11
198.541165
21
-304.550649
0
LINE
8
Layer 1
10
198.541165
20
-304.550649
11
198.522369
21
-304.437732
0
LINE
8
Layer 1
10
198.522369
20
-304.437732
11
198.432061
21
-303.858246
0
LINE
8
Layer 1
10
198.432061
20
-303.858246
11
198.085851
21
-302.356826
0
LINE
8
Layer 1
10
198.085851
20
-302.356826
11
197.354433
21
-300.754767
0
LINE
8
Layer 1
10
197.354433
20
-300.754767
11
196.275871
21
-299.395386
0
LINE
8
Layer 1
10
196.275871
20
-299.395386
11
195.091491
21
-298.464523
0
LINE
8
Layer 1
10
195.091491
20
-298.464523
11
193.799861
21
-297.965476
0
LINE
8
Layer 1
10
193.799861
20
-297.965476
11
192.772551
21
-297.909003
0
LINE
8
Layer 1
10
192.772551
20
-297.909003
11
191.668602
21
-297.973022
0
LINE
8
Layer 1
10
191.668602
20
-297.973022
11
190.736801
21
-298.330473
0
LINE
8
Layer 1
10
190.736801
20
-298.330473
11
190.052887
21
-298.761335
0
LINE
8
Layer 1
10
190.052887
20
-298.761335
11
189.532651
21
-299.316359
0
LINE
8
Layer 1
10
189.532651
20
-299.316359
11
189.370847
21
-299.542137
0
LINE
8
Layer 1
10
189.370847
20
-299.542137
11
189.310649
21
-299.429248
0
LINE
8
Layer 1
10
189.310649
20
-299.429248
11
188.215619
21
-298.036958
0
LINE
8
Layer 1
10
188.215619
20
-298.036958
11
187.124369
21
-297.160179
0
LINE
8
Layer 1
10
187.124369
20
-297.160179
11
185.284748
21
-296.246714
0
LINE
8
Layer 1
10
185.284748
20
-296.246714
11
183.018969
21
-295.666269
0
LINE
8
Layer 1
10
183.018969
20
-295.666269
11
181.073994
21
-295.641342
0
LINE
8
Layer 1
10
181.073994
20
-295.641342
11
180.165184
21
-295.842489
0
LINE
8
Layer 1
10
180.165184
20
-295.842489
11
179.357619
21
-296.178050
0
LINE
8
Layer 1
10
179.357619
20
-296.178050
11
178.522231
21
-296.787650
0
LINE
8
Layer 1
10
178.522231
20
-296.787650
11
178.136530
21
-297.077400
0
LINE
8
Layer 1
10
178.136530
20
-297.077400
11
177.886289
21
-297.051048
0
LINE
8
Layer 1
10
177.886289
20
-297.051048
11
175.033979
21
-296.509182
0
LINE
8
Layer 1
10
175.033979
20
-296.509182
11
173.182713
21
-296.478376
0
LINE
8
Layer 1
10
173.182713
20
-296.478376
11
171.241847
21
-296.657829
0
LINE
8
Layer 1
10
171.241847
20
-296.657829
11
169.203619
21
-297.048948
0
LINE
8
Layer 1
10
169.203619
20
-297.048948
11
167.060269
21
-297.653142
0
LINE
8
Layer 1
10
167.060269
20
-297.653142
11
165.999109
21
-297.961695
0
LINE
8
Layer 1
10
165.999109
20
-297.961695
11
162.520242
21
-298.978642
0
LINE
8
Layer 1
10
162.520242
20
-298.978642
11
158.849479
21
-300.294735
0
LINE
8
Layer 1
10
158.849479
20
-300.294735
11
154.213509
21
-302.289115
0
LINE
8
Layer 1
10
154.213509
20
-302.289115
11
152.670679
21
-303.015357
0
LINE
8
Layer 1
10
152.670679
20
-303.015357
11
151.045099
21
-303.786754
0
LINE
8
Layer 1
10
151.045099
20
-303.786754
11
148.674419
21
-304.859194
0
LINE
8
Layer 1
10
148.674419
20
-304.859194
11
146.676763
21
-305.589211
0
LINE
8
Layer 1
10
146.676763
20
-305.589211
11
144.986719
21
-306.003124
0
LINE
8
Layer 1
10
144.986719
20
-306.003124
11
143.172969
21
-306.195063
0
LINE
8
Layer 1
10
143.172969
20
-306.195063
11
142.521984
21
-306.210021
0
LINE
8
Layer 1
10
142.521984
20
-306.210021
11
142.811739
21
-306.029399
0
LINE
8
Layer 1
10
142.811739
20
-306.029399
11
144.147583
21
-305.043980
0
LINE
8
Layer 1
10
144.147583
20
-305.043980
11
145.009299
21
-303.993619
0
LINE
8
Layer 1
10
145.009299
20
-303.993619
11
145.276479
21
-303.542064
0
LINE
8
Layer 1
10
145.276479
20
-303.542064
11
145.957574
21
-302.063224
0
LINE
8
Layer 1
10
145.957574
20
-302.063224
11
146.180529
21
-300.543470
0
LINE
8
Layer 1
10
146.180529
20
-300.543470
11
145.833391
21
-298.721714
0
LINE
8
Layer 1
10
145.833391
20
-298.721714
11
145.338568
21
-297.585781
0
LINE
8
Layer 1
10
145.338568
20
-297.585781
11
144.426041
21
-296.509094
0
LINE
8
Layer 1
10
144.426041
20
-296.509094
11
143.490945
21
-295.656315
0
LINE
8
Layer 1
10
143.490945
20
-295.656315
11
142.533281
21
-295.037784
0
LINE
8
Layer 1
10
142.533281
20
-295.037784
11
141.410497
21
-294.482748
0
LINE
8
Layer 1
10
141.410497
20
-294.482748
11
140.121211
21
-294.153498
0
LINE
8
Layer 1
10
140.121211
20
-294.153498
11
138.273611
21
-293.897607
0
LINE
8
Layer 1
10
138.273611
20
-293.897607
11
136.531473
21
-293.951817
0
LINE
8
Layer 1
10
136.531473
20
-293.951817
11
134.657400
21
-294.263557
0
LINE
8
Layer 1
10
134.657400
20
-294.263557
11
132.786152
21
-294.802489
0
LINE
8
Layer 1
10
132.786152
20
-294.802489
11
131.052491
21
-295.538277
0
LINE
8
Layer 1
10
131.052491
20
-295.538277
11
129.816819
21
-296.264043
0
LINE
8
Layer 1
10
129.816819
20
-296.264043
11
128.832331
21
-297.066027
0
LINE
8
Layer 1
10
128.832331
20
-297.066027
11
127.917935
21
-298.055695
0
LINE
8
Layer 1
10
127.917935
20
-298.055695
11
127.918000
21
-298.056000
0
LINE
8
Layer 1
10
188.005000
20
-317.336000
11
186.228690
21
-316.065440
0
LINE
8
Layer 1
10
186.228690
20
-316.065440
11
185.021600
21
-315.328558
0
LINE
8
Layer 1
10
185.021600
20
-315.328558
11
184.329964
21
-314.932403
0
LINE
8
Layer 1
10
184.329964
20
-314.932403
11
181.998164
21
-313.802413
0
LINE
8
Layer 1
10
181.998164
20
-313.802413
11
177.642814
21
-312.320123
0
LINE
8
Layer 1
10
177.642814
20
-312.320123
11
174.739244
21
-311.641351
0
LINE
8
Layer 1
10
174.739244
20
-311.641351
11
171.631704
21
-311.239439
0
LINE
8
Layer 1
10
171.631704
20
-311.239439
11
170.499574
21
-311.139448
0
LINE
8
Layer 1
10
170.499574
20
-311.139448
11
168.705694
21
-311.093643
0
LINE
8
Layer 1
10
168.705694
20
-311.093643
11
166.894284
21
-311.127566
0
LINE
8
Layer 1
10
166.894284
20
-311.127566
11
162.459734
21
-311.518782
0
LINE
8
Layer 1
10
162.459734
20
-311.518782
11
161.460084
21
-311.688623
0
LINE
8
Layer 1
10
161.460084
20
-311.688623
11
160.194774
21
-311.888634
0
LINE
8
Layer 1
10
160.194774
20
-311.888634
11
158.649744
21
-312.091947
0
LINE
8
Layer 1
10
158.649744
20
-312.091947
11
154.151144
21
-312.771961
0
LINE
8
Layer 1
10
154.151144
20
-312.771961
11
151.590614
21
-313.114748
0
LINE
8
Layer 1
10
151.590614
20
-313.114748
11
148.140974
21
-313.263253
0
LINE
8
Layer 1
10
148.140974
20
-313.263253
11
147.328505
21
-313.290064
0
LINE
8
Layer 1
10
147.328505
20
-313.290064
11
141.934275
21
-313.398889
0
LINE
8
Layer 1
10
141.934275
20
-313.398889
11
140.119181
21
-313.220850
0
LINE
8
Layer 1
10
140.119181
20
-313.220850
11
138.424395
21
-312.875424
0
LINE
8
Layer 1
10
138.424395
20
-312.875424
11
135.008335
21
-311.859254
0
LINE
8
Layer 1
10
135.008335
20
-311.859254
11
134.325287
21
-311.541585
0
LINE
8
Layer 1
10
134.325287
20
-311.541585
11
134.424643
21
-311.595857
0
LINE
8
Layer 1
10
134.424643
20
-311.595857
11
136.475413
21
-313.735717
0
LINE
8
Layer 1
10
136.475413
20
-313.735717
11
138.819703
21
-316.177047
0
LINE
8
Layer 1
10
138.819703
20
-316.177047
11
138.911389
21
-316.271196
0
LINE
8
Layer 1
10
138.911389
20
-316.271196
11
139.408698
21
-315.999773
0
LINE
8
Layer 1
10
139.408698
20
-315.999773
11
139.985779
21
-315.896179
0
LINE
8
Layer 1
10
139.985779
20
-315.896179
11
140.000821
21
-315.896179
0
LINE
8
Layer 1
10
140.000821
20
-315.896179
11
140.705444
21
-316.038701
0
LINE
8
Layer 1
10
140.705444
20
-316.038701
11
141.280241
21
-316.426756
0
LINE
8
Layer 1
10
141.280241
20
-316.426756
11
141.668290
21
-317.001537
0
LINE
8
Layer 1
10
141.668290
20
-317.001537
11
141.810807
21
-317.706156
0
LINE
8
Layer 1
10
141.810807
20
-317.706156
11
141.784843
21
-317.963317
0
LINE
8
Layer 1
10
141.784843
20
-317.963317
11
143.461153
21
-318.452831
0
LINE
8
Layer 1
10
143.461153
20
-318.452831
11
144.699823
21
-318.546218
0
LINE
8
Layer 1
10
144.699823
20
-318.546218
11
148.786533
21
-318.274015
0
LINE
8
Layer 1
10
148.786533
20
-318.274015
11
153.224063
21
-317.887484
0
LINE
8
Layer 1
10
153.224063
20
-317.887484
11
156.740313
21
-317.674971
0
LINE
8
Layer 1
10
156.740313
20
-317.674971
11
162.986983
21
-317.457886
0
LINE
8
Layer 1
10
162.986983
20
-317.457886
11
170.299173
21
-317.397321
0
LINE
8
Layer 1
10
170.299173
20
-317.397321
11
174.587923
21
-317.527143
0
LINE
8
Layer 1
10
174.587923
20
-317.527143
11
177.305023
21
-317.620023
0
LINE
8
Layer 1
10
177.305023
20
-317.620023
11
181.245409
21
-317.748409
0
LINE
8
Layer 1
10
181.245409
20
-317.748409
11
183.897963
21
-318.009320
0
LINE
8
Layer 1
10
183.897963
20
-318.009320
11
187.151457
21
-318.546265
0
LINE
8
Layer 1
10
187.151457
20
-318.546265
11
189.756433
21
-319.140890
0
LINE
8
Layer 1
10
189.756433
20
-319.140890
11
190.101952
21
-319.278332
0
LINE
8
Layer 1
10
190.101952
20
-319.278332
11
189.363671
21
-318.577716
0
LINE
8
Layer 1
10
189.363671
20
-318.577716
11
188.005041
21
-317.335906
0
LINE
8
Layer 1
10
188.005041
20
-317.335906
11
188.005000
21
-317.336000
 0 
ENDSEC
 0 
EOF