G04 #@! TF.GenerationSoftware,KiCad,Pcbnew,5.1.9*
G04 #@! TF.CreationDate,2021-04-05T15:36:31+02:00*
G04 #@! TF.ProjectId,mch2021,6d636832-3032-4312-9e6b-696361645f70,1*
G04 #@! TF.SameCoordinates,Original*
G04 #@! TF.FileFunction,Paste,Bot*
G04 #@! TF.FilePolarity,Positive*
%FSLAX46Y46*%
G04 Gerber Fmt 4.6, Leading zero omitted, Abs format (unit mm)*
G04 Created by KiCad (PCBNEW 5.1.9) date 2021-04-05 15:36:31*
%MOMM*%
%LPD*%
G01*
G04 APERTURE LIST*
%ADD10R,1.198880X1.998980*%
%ADD11R,0.599440X1.348740*%
%ADD12R,0.600000X1.450000*%
%ADD13R,0.300000X1.450000*%
%ADD14R,0.400000X0.650000*%
%ADD15R,5.000000X5.000000*%
%ADD16R,2.000000X0.900000*%
%ADD17R,0.500000X0.800000*%
%ADD18R,0.400000X0.800000*%
%ADD19R,2.200000X1.800000*%
%ADD20R,1.300000X0.300000*%
%ADD21R,1.400000X1.200000*%
%ADD22R,1.060000X0.650000*%
%ADD23R,0.600000X1.200000*%
%ADD24R,0.700000X1.500000*%
%ADD25R,1.000000X0.800000*%
%ADD26R,0.650000X1.060000*%
%ADD27R,1.000000X1.800000*%
%ADD28R,1.800000X1.000000*%
%ADD29R,0.600000X0.450000*%
%ADD30R,0.800000X0.500000*%
%ADD31R,0.800000X0.400000*%
%ADD32R,0.800000X0.900000*%
%ADD33R,0.300000X0.500000*%
%ADD34R,0.500000X0.300000*%
%ADD35R,1.200000X0.900000*%
%ADD36R,0.900000X0.800000*%
G04 APERTURE END LIST*
D10*
X19950920Y23172840D03*
X25549080Y23172840D03*
D11*
X24248600Y19500000D03*
X23247840Y19500000D03*
X22252160Y19500000D03*
X21251400Y19500000D03*
D10*
X12200920Y23172840D03*
X17799080Y23172840D03*
D11*
X16498600Y19500000D03*
X15497840Y19500000D03*
X14502160Y19500000D03*
X13501400Y19500000D03*
G36*
G01*
X-29230000Y39277500D02*
X-29230000Y38932500D01*
G75*
G02*
X-29377500Y38785000I-147500J0D01*
G01*
X-29672500Y38785000D01*
G75*
G02*
X-29820000Y38932500I0J147500D01*
G01*
X-29820000Y39277500D01*
G75*
G02*
X-29672500Y39425000I147500J0D01*
G01*
X-29377500Y39425000D01*
G75*
G02*
X-29230000Y39277500I0J-147500D01*
G01*
G37*
G36*
G01*
X-30200000Y39277500D02*
X-30200000Y38932500D01*
G75*
G02*
X-30347500Y38785000I-147500J0D01*
G01*
X-30642500Y38785000D01*
G75*
G02*
X-30790000Y38932500I0J147500D01*
G01*
X-30790000Y39277500D01*
G75*
G02*
X-30642500Y39425000I147500J0D01*
G01*
X-30347500Y39425000D01*
G75*
G02*
X-30200000Y39277500I0J-147500D01*
G01*
G37*
G36*
G01*
X-27863960Y-42085620D02*
X-28208960Y-42085620D01*
G75*
G02*
X-28356460Y-41938120I0J147500D01*
G01*
X-28356460Y-41643120D01*
G75*
G02*
X-28208960Y-41495620I147500J0D01*
G01*
X-27863960Y-41495620D01*
G75*
G02*
X-27716460Y-41643120I0J-147500D01*
G01*
X-27716460Y-41938120D01*
G75*
G02*
X-27863960Y-42085620I-147500J0D01*
G01*
G37*
G36*
G01*
X-27863960Y-43055620D02*
X-28208960Y-43055620D01*
G75*
G02*
X-28356460Y-42908120I0J147500D01*
G01*
X-28356460Y-42613120D01*
G75*
G02*
X-28208960Y-42465620I147500J0D01*
G01*
X-27863960Y-42465620D01*
G75*
G02*
X-27716460Y-42613120I0J-147500D01*
G01*
X-27716460Y-42908120D01*
G75*
G02*
X-27863960Y-43055620I-147500J0D01*
G01*
G37*
G36*
G01*
X24239960Y-38896140D02*
X24584960Y-38896140D01*
G75*
G02*
X24732460Y-39043640I0J-147500D01*
G01*
X24732460Y-39338640D01*
G75*
G02*
X24584960Y-39486140I-147500J0D01*
G01*
X24239960Y-39486140D01*
G75*
G02*
X24092460Y-39338640I0J147500D01*
G01*
X24092460Y-39043640D01*
G75*
G02*
X24239960Y-38896140I147500J0D01*
G01*
G37*
G36*
G01*
X24239960Y-39866140D02*
X24584960Y-39866140D01*
G75*
G02*
X24732460Y-40013640I0J-147500D01*
G01*
X24732460Y-40308640D01*
G75*
G02*
X24584960Y-40456140I-147500J0D01*
G01*
X24239960Y-40456140D01*
G75*
G02*
X24092460Y-40308640I0J147500D01*
G01*
X24092460Y-40013640D01*
G75*
G02*
X24239960Y-39866140I147500J0D01*
G01*
G37*
G36*
G01*
X25679700Y-40451060D02*
X25334700Y-40451060D01*
G75*
G02*
X25187200Y-40303560I0J147500D01*
G01*
X25187200Y-40008560D01*
G75*
G02*
X25334700Y-39861060I147500J0D01*
G01*
X25679700Y-39861060D01*
G75*
G02*
X25827200Y-40008560I0J-147500D01*
G01*
X25827200Y-40303560D01*
G75*
G02*
X25679700Y-40451060I-147500J0D01*
G01*
G37*
G36*
G01*
X25679700Y-39481060D02*
X25334700Y-39481060D01*
G75*
G02*
X25187200Y-39333560I0J147500D01*
G01*
X25187200Y-39038560D01*
G75*
G02*
X25334700Y-38891060I147500J0D01*
G01*
X25679700Y-38891060D01*
G75*
G02*
X25827200Y-39038560I0J-147500D01*
G01*
X25827200Y-39333560D01*
G75*
G02*
X25679700Y-39481060I-147500J0D01*
G01*
G37*
G36*
G01*
X-51518420Y4050900D02*
X-51518420Y5300900D01*
G75*
G02*
X-51143420Y5675900I375000J0D01*
G01*
X-50393420Y5675900D01*
G75*
G02*
X-50018420Y5300900I0J-375000D01*
G01*
X-50018420Y4050900D01*
G75*
G02*
X-50393420Y3675900I-375000J0D01*
G01*
X-51143420Y3675900D01*
G75*
G02*
X-51518420Y4050900I0J375000D01*
G01*
G37*
G36*
G01*
X-37918420Y4050900D02*
X-37918420Y5300900D01*
G75*
G02*
X-37543420Y5675900I375000J0D01*
G01*
X-36793420Y5675900D01*
G75*
G02*
X-36418420Y5300900I0J-375000D01*
G01*
X-36418420Y4050900D01*
G75*
G02*
X-36793420Y3675900I-375000J0D01*
G01*
X-37543420Y3675900D01*
G75*
G02*
X-37918420Y4050900I0J375000D01*
G01*
G37*
G36*
G01*
X-51518420Y12350900D02*
X-51518420Y13600900D01*
G75*
G02*
X-51143420Y13975900I375000J0D01*
G01*
X-50393420Y13975900D01*
G75*
G02*
X-50018420Y13600900I0J-375000D01*
G01*
X-50018420Y12350900D01*
G75*
G02*
X-50393420Y11975900I-375000J0D01*
G01*
X-51143420Y11975900D01*
G75*
G02*
X-51518420Y12350900I0J375000D01*
G01*
G37*
G36*
G01*
X-37918420Y12300900D02*
X-37918420Y13550900D01*
G75*
G02*
X-37543420Y13925900I375000J0D01*
G01*
X-36793420Y13925900D01*
G75*
G02*
X-36418420Y13550900I0J-375000D01*
G01*
X-36418420Y12300900D01*
G75*
G02*
X-36793420Y11925900I-375000J0D01*
G01*
X-37543420Y11925900D01*
G75*
G02*
X-37918420Y12300900I0J375000D01*
G01*
G37*
G36*
G01*
X-41018420Y9825900D02*
X-41018420Y10925900D01*
G75*
G02*
X-40818420Y11125900I200000J0D01*
G01*
X-40418420Y11125900D01*
G75*
G02*
X-40218420Y10925900I0J-200000D01*
G01*
X-40218420Y9825900D01*
G75*
G02*
X-40418420Y9625900I-200000J0D01*
G01*
X-40818420Y9625900D01*
G75*
G02*
X-41018420Y9825900I0J200000D01*
G01*
G37*
G36*
G01*
X-42118420Y9825900D02*
X-42118420Y10925900D01*
G75*
G02*
X-41918420Y11125900I200000J0D01*
G01*
X-41518420Y11125900D01*
G75*
G02*
X-41318420Y10925900I0J-200000D01*
G01*
X-41318420Y9825900D01*
G75*
G02*
X-41518420Y9625900I-200000J0D01*
G01*
X-41918420Y9625900D01*
G75*
G02*
X-42118420Y9825900I0J200000D01*
G01*
G37*
G36*
G01*
X-43218420Y9825900D02*
X-43218420Y10925900D01*
G75*
G02*
X-43018420Y11125900I200000J0D01*
G01*
X-42618420Y11125900D01*
G75*
G02*
X-42418420Y10925900I0J-200000D01*
G01*
X-42418420Y9825900D01*
G75*
G02*
X-42618420Y9625900I-200000J0D01*
G01*
X-43018420Y9625900D01*
G75*
G02*
X-43218420Y9825900I0J200000D01*
G01*
G37*
G36*
G01*
X-44318420Y9825900D02*
X-44318420Y10925900D01*
G75*
G02*
X-44118420Y11125900I200000J0D01*
G01*
X-43718420Y11125900D01*
G75*
G02*
X-43518420Y10925900I0J-200000D01*
G01*
X-43518420Y9825900D01*
G75*
G02*
X-43718420Y9625900I-200000J0D01*
G01*
X-44118420Y9625900D01*
G75*
G02*
X-44318420Y9825900I0J200000D01*
G01*
G37*
G36*
G01*
X-45418420Y9825900D02*
X-45418420Y10925900D01*
G75*
G02*
X-45218420Y11125900I200000J0D01*
G01*
X-44818420Y11125900D01*
G75*
G02*
X-44618420Y10925900I0J-200000D01*
G01*
X-44618420Y9825900D01*
G75*
G02*
X-44818420Y9625900I-200000J0D01*
G01*
X-45218420Y9625900D01*
G75*
G02*
X-45418420Y9825900I0J200000D01*
G01*
G37*
G36*
G01*
X-46518420Y9825900D02*
X-46518420Y10925900D01*
G75*
G02*
X-46318420Y11125900I200000J0D01*
G01*
X-45918420Y11125900D01*
G75*
G02*
X-45718420Y10925900I0J-200000D01*
G01*
X-45718420Y9825900D01*
G75*
G02*
X-45918420Y9625900I-200000J0D01*
G01*
X-46318420Y9625900D01*
G75*
G02*
X-46518420Y9825900I0J200000D01*
G01*
G37*
G36*
G01*
X-47618420Y9825900D02*
X-47618420Y10925900D01*
G75*
G02*
X-47418420Y11125900I200000J0D01*
G01*
X-47018420Y11125900D01*
G75*
G02*
X-46818420Y10925900I0J-200000D01*
G01*
X-46818420Y9825900D01*
G75*
G02*
X-47018420Y9625900I-200000J0D01*
G01*
X-47418420Y9625900D01*
G75*
G02*
X-47618420Y9825900I0J200000D01*
G01*
G37*
G36*
G01*
X-48718420Y9825900D02*
X-48718420Y10925900D01*
G75*
G02*
X-48518420Y11125900I200000J0D01*
G01*
X-48118420Y11125900D01*
G75*
G02*
X-47918420Y10925900I0J-200000D01*
G01*
X-47918420Y9825900D01*
G75*
G02*
X-48118420Y9625900I-200000J0D01*
G01*
X-48518420Y9625900D01*
G75*
G02*
X-48718420Y9825900I0J200000D01*
G01*
G37*
G36*
G01*
X-28500000Y-39350000D02*
X-28500000Y-36350000D01*
G75*
G02*
X-28250000Y-36100000I250000J0D01*
G01*
X-27750000Y-36100000D01*
G75*
G02*
X-27500000Y-36350000I0J-250000D01*
G01*
X-27500000Y-39350000D01*
G75*
G02*
X-27750000Y-39600000I-250000J0D01*
G01*
X-28250000Y-39600000D01*
G75*
G02*
X-28500000Y-39350000I0J250000D01*
G01*
G37*
G36*
G01*
X-26500000Y-39350000D02*
X-26500000Y-36350000D01*
G75*
G02*
X-26250000Y-36100000I250000J0D01*
G01*
X-25750000Y-36100000D01*
G75*
G02*
X-25500000Y-36350000I0J-250000D01*
G01*
X-25500000Y-39350000D01*
G75*
G02*
X-25750000Y-39600000I-250000J0D01*
G01*
X-26250000Y-39600000D01*
G75*
G02*
X-26500000Y-39350000I0J250000D01*
G01*
G37*
G36*
G01*
X-24500000Y-39350000D02*
X-24500000Y-36350000D01*
G75*
G02*
X-24250000Y-36100000I250000J0D01*
G01*
X-23750000Y-36100000D01*
G75*
G02*
X-23500000Y-36350000I0J-250000D01*
G01*
X-23500000Y-39350000D01*
G75*
G02*
X-23750000Y-39600000I-250000J0D01*
G01*
X-24250000Y-39600000D01*
G75*
G02*
X-24500000Y-39350000I0J250000D01*
G01*
G37*
G36*
G01*
X-31100000Y-33550000D02*
X-31100000Y-30650000D01*
G75*
G02*
X-30850000Y-30400000I250000J0D01*
G01*
X-29850000Y-30400000D01*
G75*
G02*
X-29600000Y-30650000I0J-250000D01*
G01*
X-29600000Y-33550000D01*
G75*
G02*
X-29850000Y-33800000I-250000J0D01*
G01*
X-30850000Y-33800000D01*
G75*
G02*
X-31100000Y-33550000I0J250000D01*
G01*
G37*
G36*
G01*
X-22400000Y-33550000D02*
X-22400000Y-30650000D01*
G75*
G02*
X-22150000Y-30400000I250000J0D01*
G01*
X-21150000Y-30400000D01*
G75*
G02*
X-20900000Y-30650000I0J-250000D01*
G01*
X-20900000Y-33550000D01*
G75*
G02*
X-21150000Y-33800000I-250000J0D01*
G01*
X-22150000Y-33800000D01*
G75*
G02*
X-22400000Y-33550000I0J250000D01*
G01*
G37*
G36*
G01*
X13120000Y-34715000D02*
X13120000Y-35465000D01*
G75*
G02*
X12745000Y-35840000I-375000J0D01*
G01*
X9495000Y-35840000D01*
G75*
G02*
X9120000Y-35465000I0J375000D01*
G01*
X9120000Y-34715000D01*
G75*
G02*
X9495000Y-34340000I375000J0D01*
G01*
X12745000Y-34340000D01*
G75*
G02*
X13120000Y-34715000I0J-375000D01*
G01*
G37*
G36*
G01*
X13120000Y-41715000D02*
X13120000Y-42465000D01*
G75*
G02*
X12745000Y-42840000I-375000J0D01*
G01*
X9495000Y-42840000D01*
G75*
G02*
X9120000Y-42465000I0J375000D01*
G01*
X9120000Y-41715000D01*
G75*
G02*
X9495000Y-41340000I375000J0D01*
G01*
X12745000Y-41340000D01*
G75*
G02*
X13120000Y-41715000I0J-375000D01*
G01*
G37*
G36*
G01*
X20320000Y-39715000D02*
X20320000Y-40465000D01*
G75*
G02*
X19945000Y-40840000I-375000J0D01*
G01*
X16695000Y-40840000D01*
G75*
G02*
X16320000Y-40465000I0J375000D01*
G01*
X16320000Y-39715000D01*
G75*
G02*
X16695000Y-39340000I375000J0D01*
G01*
X19945000Y-39340000D01*
G75*
G02*
X20320000Y-39715000I0J-375000D01*
G01*
G37*
G36*
G01*
X5850000Y-43250000D02*
X5850000Y-44850000D01*
G75*
G02*
X5550000Y-45150000I-300000J0D01*
G01*
X4950000Y-45150000D01*
G75*
G02*
X4650000Y-44850000I0J300000D01*
G01*
X4650000Y-43250000D01*
G75*
G02*
X4950000Y-42950000I300000J0D01*
G01*
X5550000Y-42950000D01*
G75*
G02*
X5850000Y-43250000I0J-300000D01*
G01*
G37*
G36*
G01*
X-5900000Y-44850000D02*
X-5900000Y-43250000D01*
G75*
G02*
X-5600000Y-42950000I300000J0D01*
G01*
X-5000000Y-42950000D01*
G75*
G02*
X-4700000Y-43250000I0J-300000D01*
G01*
X-4700000Y-44850000D01*
G75*
G02*
X-5000000Y-45150000I-300000J0D01*
G01*
X-5600000Y-45150000D01*
G75*
G02*
X-5900000Y-44850000I0J300000D01*
G01*
G37*
G36*
G01*
X-5850000Y-40650000D02*
X-5850000Y-39050000D01*
G75*
G02*
X-5550000Y-38750000I300000J0D01*
G01*
X-4950000Y-38750000D01*
G75*
G02*
X-4650000Y-39050000I0J-300000D01*
G01*
X-4650000Y-40650000D01*
G75*
G02*
X-4950000Y-40950000I-300000J0D01*
G01*
X-5550000Y-40950000D01*
G75*
G02*
X-5850000Y-40650000I0J300000D01*
G01*
G37*
G36*
G01*
X5850000Y-39050000D02*
X5850000Y-40650000D01*
G75*
G02*
X5550000Y-40950000I-300000J0D01*
G01*
X4950000Y-40950000D01*
G75*
G02*
X4650000Y-40650000I0J300000D01*
G01*
X4650000Y-39050000D01*
G75*
G02*
X4950000Y-38750000I300000J0D01*
G01*
X5550000Y-38750000D01*
G75*
G02*
X5850000Y-39050000I0J-300000D01*
G01*
G37*
D12*
X-3250000Y-38955000D03*
X-2450000Y-38955000D03*
X2450000Y-38955000D03*
X3250000Y-38955000D03*
X3250000Y-38955000D03*
X2450000Y-38955000D03*
X-2450000Y-38955000D03*
X-3250000Y-38955000D03*
D13*
X1750000Y-38955000D03*
X1250000Y-38955000D03*
X750000Y-38955000D03*
X-250000Y-38955000D03*
X-750000Y-38955000D03*
X-1250000Y-38955000D03*
X-1750000Y-38955000D03*
X250000Y-38955000D03*
D14*
X-42747440Y29851320D03*
X-41447440Y29851320D03*
X-42097440Y29851320D03*
X-41447440Y27951320D03*
X-42747440Y27951320D03*
G36*
G01*
X-33187340Y40580020D02*
X-33532340Y40580020D01*
G75*
G02*
X-33679840Y40727520I0J147500D01*
G01*
X-33679840Y41022520D01*
G75*
G02*
X-33532340Y41170020I147500J0D01*
G01*
X-33187340Y41170020D01*
G75*
G02*
X-33039840Y41022520I0J-147500D01*
G01*
X-33039840Y40727520D01*
G75*
G02*
X-33187340Y40580020I-147500J0D01*
G01*
G37*
G36*
G01*
X-33187340Y41550020D02*
X-33532340Y41550020D01*
G75*
G02*
X-33679840Y41697520I0J147500D01*
G01*
X-33679840Y41992520D01*
G75*
G02*
X-33532340Y42140020I147500J0D01*
G01*
X-33187340Y42140020D01*
G75*
G02*
X-33039840Y41992520I0J-147500D01*
G01*
X-33039840Y41697520D01*
G75*
G02*
X-33187340Y41550020I-147500J0D01*
G01*
G37*
D15*
X-16878920Y9520000D03*
D16*
X-9378920Y17020000D03*
X-9378920Y15750000D03*
X-9378920Y14480000D03*
X-9378920Y13210000D03*
X-9378920Y11940000D03*
X-9378920Y10670000D03*
X-9378920Y9400000D03*
X-9378920Y8130000D03*
X-9378920Y6860000D03*
X-9378920Y5590000D03*
X-9378920Y4320000D03*
X-9378920Y3050000D03*
X-9378920Y1780000D03*
X-9378920Y510000D03*
X-9378920Y-735000D03*
X-9378920Y-2005000D03*
X-9378920Y-3275000D03*
X-9378920Y-4545000D03*
X-9378920Y-5815000D03*
X-26378920Y-5815000D03*
X-26378920Y-4545000D03*
X-26378920Y-3275000D03*
X-26378920Y-2005000D03*
X-26378920Y-735000D03*
X-26378920Y510000D03*
X-26378920Y1780000D03*
X-26378920Y3050000D03*
X-26378920Y4320000D03*
X-26378920Y5590000D03*
X-26378920Y6860000D03*
X-26378920Y8130000D03*
X-26378920Y9400000D03*
X-26378920Y10670000D03*
X-26378920Y11940000D03*
X-26378920Y13210000D03*
X-26378920Y14480000D03*
X-26378920Y15750000D03*
X-26378920Y17020000D03*
G36*
G01*
X-2388900Y-34387240D02*
X-2388900Y-34612240D01*
G75*
G02*
X-2426400Y-34649740I-37500J0D01*
G01*
X-2851400Y-34649740D01*
G75*
G02*
X-2888900Y-34612240I0J37500D01*
G01*
X-2888900Y-34387240D01*
G75*
G02*
X-2851400Y-34349740I37500J0D01*
G01*
X-2426400Y-34349740D01*
G75*
G02*
X-2388900Y-34387240I0J-37500D01*
G01*
G37*
G36*
G01*
X-3638900Y-34387240D02*
X-3638900Y-34612240D01*
G75*
G02*
X-3676400Y-34649740I-37500J0D01*
G01*
X-4101400Y-34649740D01*
G75*
G02*
X-4138900Y-34612240I0J37500D01*
G01*
X-4138900Y-34387240D01*
G75*
G02*
X-4101400Y-34349740I37500J0D01*
G01*
X-3676400Y-34349740D01*
G75*
G02*
X-3638900Y-34387240I0J-37500D01*
G01*
G37*
G36*
G01*
X-2388900Y-34887240D02*
X-2388900Y-35112240D01*
G75*
G02*
X-2426400Y-35149740I-37500J0D01*
G01*
X-2851400Y-35149740D01*
G75*
G02*
X-2888900Y-35112240I0J37500D01*
G01*
X-2888900Y-34887240D01*
G75*
G02*
X-2851400Y-34849740I37500J0D01*
G01*
X-2426400Y-34849740D01*
G75*
G02*
X-2388900Y-34887240I0J-37500D01*
G01*
G37*
G36*
G01*
X-3638900Y-34887240D02*
X-3638900Y-35112240D01*
G75*
G02*
X-3676400Y-35149740I-37500J0D01*
G01*
X-4101400Y-35149740D01*
G75*
G02*
X-4138900Y-35112240I0J37500D01*
G01*
X-4138900Y-34887240D01*
G75*
G02*
X-4101400Y-34849740I37500J0D01*
G01*
X-3676400Y-34849740D01*
G75*
G02*
X-3638900Y-34887240I0J-37500D01*
G01*
G37*
G36*
G01*
X-3151400Y-34509740D02*
X-3376400Y-34509740D01*
G75*
G02*
X-3413900Y-34472240I0J37500D01*
G01*
X-3413900Y-34047240D01*
G75*
G02*
X-3376400Y-34009740I37500J0D01*
G01*
X-3151400Y-34009740D01*
G75*
G02*
X-3113900Y-34047240I0J-37500D01*
G01*
X-3113900Y-34472240D01*
G75*
G02*
X-3151400Y-34509740I-37500J0D01*
G01*
G37*
G36*
G01*
X-3151400Y-35489740D02*
X-3376400Y-35489740D01*
G75*
G02*
X-3413900Y-35452240I0J37500D01*
G01*
X-3413900Y-35027240D01*
G75*
G02*
X-3376400Y-34989740I37500J0D01*
G01*
X-3151400Y-34989740D01*
G75*
G02*
X-3113900Y-35027240I0J-37500D01*
G01*
X-3113900Y-35452240D01*
G75*
G02*
X-3151400Y-35489740I-37500J0D01*
G01*
G37*
G36*
G01*
X-1232500Y-24900000D02*
X-1232500Y-25100000D01*
G75*
G02*
X-1332500Y-25200000I-100000J0D01*
G01*
X-2607500Y-25200000D01*
G75*
G02*
X-2707500Y-25100000I0J100000D01*
G01*
X-2707500Y-24900000D01*
G75*
G02*
X-2607500Y-24800000I100000J0D01*
G01*
X-1332500Y-24800000D01*
G75*
G02*
X-1232500Y-24900000I0J-100000D01*
G01*
G37*
G36*
G01*
X-1232500Y-25550000D02*
X-1232500Y-25750000D01*
G75*
G02*
X-1332500Y-25850000I-100000J0D01*
G01*
X-2607500Y-25850000D01*
G75*
G02*
X-2707500Y-25750000I0J100000D01*
G01*
X-2707500Y-25550000D01*
G75*
G02*
X-2607500Y-25450000I100000J0D01*
G01*
X-1332500Y-25450000D01*
G75*
G02*
X-1232500Y-25550000I0J-100000D01*
G01*
G37*
G36*
G01*
X-1232500Y-26200000D02*
X-1232500Y-26400000D01*
G75*
G02*
X-1332500Y-26500000I-100000J0D01*
G01*
X-2607500Y-26500000D01*
G75*
G02*
X-2707500Y-26400000I0J100000D01*
G01*
X-2707500Y-26200000D01*
G75*
G02*
X-2607500Y-26100000I100000J0D01*
G01*
X-1332500Y-26100000D01*
G75*
G02*
X-1232500Y-26200000I0J-100000D01*
G01*
G37*
G36*
G01*
X-1232500Y-26850000D02*
X-1232500Y-27050000D01*
G75*
G02*
X-1332500Y-27150000I-100000J0D01*
G01*
X-2607500Y-27150000D01*
G75*
G02*
X-2707500Y-27050000I0J100000D01*
G01*
X-2707500Y-26850000D01*
G75*
G02*
X-2607500Y-26750000I100000J0D01*
G01*
X-1332500Y-26750000D01*
G75*
G02*
X-1232500Y-26850000I0J-100000D01*
G01*
G37*
G36*
G01*
X-1232500Y-27500000D02*
X-1232500Y-27700000D01*
G75*
G02*
X-1332500Y-27800000I-100000J0D01*
G01*
X-2607500Y-27800000D01*
G75*
G02*
X-2707500Y-27700000I0J100000D01*
G01*
X-2707500Y-27500000D01*
G75*
G02*
X-2607500Y-27400000I100000J0D01*
G01*
X-1332500Y-27400000D01*
G75*
G02*
X-1232500Y-27500000I0J-100000D01*
G01*
G37*
G36*
G01*
X-1232500Y-28150000D02*
X-1232500Y-28350000D01*
G75*
G02*
X-1332500Y-28450000I-100000J0D01*
G01*
X-2607500Y-28450000D01*
G75*
G02*
X-2707500Y-28350000I0J100000D01*
G01*
X-2707500Y-28150000D01*
G75*
G02*
X-2607500Y-28050000I100000J0D01*
G01*
X-1332500Y-28050000D01*
G75*
G02*
X-1232500Y-28150000I0J-100000D01*
G01*
G37*
G36*
G01*
X-1232500Y-28800000D02*
X-1232500Y-29000000D01*
G75*
G02*
X-1332500Y-29100000I-100000J0D01*
G01*
X-2607500Y-29100000D01*
G75*
G02*
X-2707500Y-29000000I0J100000D01*
G01*
X-2707500Y-28800000D01*
G75*
G02*
X-2607500Y-28700000I100000J0D01*
G01*
X-1332500Y-28700000D01*
G75*
G02*
X-1232500Y-28800000I0J-100000D01*
G01*
G37*
G36*
G01*
X-1232500Y-29450000D02*
X-1232500Y-29650000D01*
G75*
G02*
X-1332500Y-29750000I-100000J0D01*
G01*
X-2607500Y-29750000D01*
G75*
G02*
X-2707500Y-29650000I0J100000D01*
G01*
X-2707500Y-29450000D01*
G75*
G02*
X-2607500Y-29350000I100000J0D01*
G01*
X-1332500Y-29350000D01*
G75*
G02*
X-1232500Y-29450000I0J-100000D01*
G01*
G37*
G36*
G01*
X-1232500Y-30100000D02*
X-1232500Y-30300000D01*
G75*
G02*
X-1332500Y-30400000I-100000J0D01*
G01*
X-2607500Y-30400000D01*
G75*
G02*
X-2707500Y-30300000I0J100000D01*
G01*
X-2707500Y-30100000D01*
G75*
G02*
X-2607500Y-30000000I100000J0D01*
G01*
X-1332500Y-30000000D01*
G75*
G02*
X-1232500Y-30100000I0J-100000D01*
G01*
G37*
G36*
G01*
X-1232500Y-30750000D02*
X-1232500Y-30950000D01*
G75*
G02*
X-1332500Y-31050000I-100000J0D01*
G01*
X-2607500Y-31050000D01*
G75*
G02*
X-2707500Y-30950000I0J100000D01*
G01*
X-2707500Y-30750000D01*
G75*
G02*
X-2607500Y-30650000I100000J0D01*
G01*
X-1332500Y-30650000D01*
G75*
G02*
X-1232500Y-30750000I0J-100000D01*
G01*
G37*
G36*
G01*
X-1232500Y-31400000D02*
X-1232500Y-31600000D01*
G75*
G02*
X-1332500Y-31700000I-100000J0D01*
G01*
X-2607500Y-31700000D01*
G75*
G02*
X-2707500Y-31600000I0J100000D01*
G01*
X-2707500Y-31400000D01*
G75*
G02*
X-2607500Y-31300000I100000J0D01*
G01*
X-1332500Y-31300000D01*
G75*
G02*
X-1232500Y-31400000I0J-100000D01*
G01*
G37*
G36*
G01*
X-1232500Y-32050000D02*
X-1232500Y-32250000D01*
G75*
G02*
X-1332500Y-32350000I-100000J0D01*
G01*
X-2607500Y-32350000D01*
G75*
G02*
X-2707500Y-32250000I0J100000D01*
G01*
X-2707500Y-32050000D01*
G75*
G02*
X-2607500Y-31950000I100000J0D01*
G01*
X-1332500Y-31950000D01*
G75*
G02*
X-1232500Y-32050000I0J-100000D01*
G01*
G37*
G36*
G01*
X-6957500Y-32050000D02*
X-6957500Y-32250000D01*
G75*
G02*
X-7057500Y-32350000I-100000J0D01*
G01*
X-8332500Y-32350000D01*
G75*
G02*
X-8432500Y-32250000I0J100000D01*
G01*
X-8432500Y-32050000D01*
G75*
G02*
X-8332500Y-31950000I100000J0D01*
G01*
X-7057500Y-31950000D01*
G75*
G02*
X-6957500Y-32050000I0J-100000D01*
G01*
G37*
G36*
G01*
X-6957500Y-31400000D02*
X-6957500Y-31600000D01*
G75*
G02*
X-7057500Y-31700000I-100000J0D01*
G01*
X-8332500Y-31700000D01*
G75*
G02*
X-8432500Y-31600000I0J100000D01*
G01*
X-8432500Y-31400000D01*
G75*
G02*
X-8332500Y-31300000I100000J0D01*
G01*
X-7057500Y-31300000D01*
G75*
G02*
X-6957500Y-31400000I0J-100000D01*
G01*
G37*
G36*
G01*
X-6957500Y-30750000D02*
X-6957500Y-30950000D01*
G75*
G02*
X-7057500Y-31050000I-100000J0D01*
G01*
X-8332500Y-31050000D01*
G75*
G02*
X-8432500Y-30950000I0J100000D01*
G01*
X-8432500Y-30750000D01*
G75*
G02*
X-8332500Y-30650000I100000J0D01*
G01*
X-7057500Y-30650000D01*
G75*
G02*
X-6957500Y-30750000I0J-100000D01*
G01*
G37*
G36*
G01*
X-6957500Y-30100000D02*
X-6957500Y-30300000D01*
G75*
G02*
X-7057500Y-30400000I-100000J0D01*
G01*
X-8332500Y-30400000D01*
G75*
G02*
X-8432500Y-30300000I0J100000D01*
G01*
X-8432500Y-30100000D01*
G75*
G02*
X-8332500Y-30000000I100000J0D01*
G01*
X-7057500Y-30000000D01*
G75*
G02*
X-6957500Y-30100000I0J-100000D01*
G01*
G37*
G36*
G01*
X-6957500Y-29450000D02*
X-6957500Y-29650000D01*
G75*
G02*
X-7057500Y-29750000I-100000J0D01*
G01*
X-8332500Y-29750000D01*
G75*
G02*
X-8432500Y-29650000I0J100000D01*
G01*
X-8432500Y-29450000D01*
G75*
G02*
X-8332500Y-29350000I100000J0D01*
G01*
X-7057500Y-29350000D01*
G75*
G02*
X-6957500Y-29450000I0J-100000D01*
G01*
G37*
G36*
G01*
X-6957500Y-28800000D02*
X-6957500Y-29000000D01*
G75*
G02*
X-7057500Y-29100000I-100000J0D01*
G01*
X-8332500Y-29100000D01*
G75*
G02*
X-8432500Y-29000000I0J100000D01*
G01*
X-8432500Y-28800000D01*
G75*
G02*
X-8332500Y-28700000I100000J0D01*
G01*
X-7057500Y-28700000D01*
G75*
G02*
X-6957500Y-28800000I0J-100000D01*
G01*
G37*
G36*
G01*
X-6957500Y-28150000D02*
X-6957500Y-28350000D01*
G75*
G02*
X-7057500Y-28450000I-100000J0D01*
G01*
X-8332500Y-28450000D01*
G75*
G02*
X-8432500Y-28350000I0J100000D01*
G01*
X-8432500Y-28150000D01*
G75*
G02*
X-8332500Y-28050000I100000J0D01*
G01*
X-7057500Y-28050000D01*
G75*
G02*
X-6957500Y-28150000I0J-100000D01*
G01*
G37*
G36*
G01*
X-6957500Y-27500000D02*
X-6957500Y-27700000D01*
G75*
G02*
X-7057500Y-27800000I-100000J0D01*
G01*
X-8332500Y-27800000D01*
G75*
G02*
X-8432500Y-27700000I0J100000D01*
G01*
X-8432500Y-27500000D01*
G75*
G02*
X-8332500Y-27400000I100000J0D01*
G01*
X-7057500Y-27400000D01*
G75*
G02*
X-6957500Y-27500000I0J-100000D01*
G01*
G37*
G36*
G01*
X-6957500Y-26850000D02*
X-6957500Y-27050000D01*
G75*
G02*
X-7057500Y-27150000I-100000J0D01*
G01*
X-8332500Y-27150000D01*
G75*
G02*
X-8432500Y-27050000I0J100000D01*
G01*
X-8432500Y-26850000D01*
G75*
G02*
X-8332500Y-26750000I100000J0D01*
G01*
X-7057500Y-26750000D01*
G75*
G02*
X-6957500Y-26850000I0J-100000D01*
G01*
G37*
G36*
G01*
X-6957500Y-26200000D02*
X-6957500Y-26400000D01*
G75*
G02*
X-7057500Y-26500000I-100000J0D01*
G01*
X-8332500Y-26500000D01*
G75*
G02*
X-8432500Y-26400000I0J100000D01*
G01*
X-8432500Y-26200000D01*
G75*
G02*
X-8332500Y-26100000I100000J0D01*
G01*
X-7057500Y-26100000D01*
G75*
G02*
X-6957500Y-26200000I0J-100000D01*
G01*
G37*
G36*
G01*
X-6957500Y-25550000D02*
X-6957500Y-25750000D01*
G75*
G02*
X-7057500Y-25850000I-100000J0D01*
G01*
X-8332500Y-25850000D01*
G75*
G02*
X-8432500Y-25750000I0J100000D01*
G01*
X-8432500Y-25550000D01*
G75*
G02*
X-8332500Y-25450000I100000J0D01*
G01*
X-7057500Y-25450000D01*
G75*
G02*
X-6957500Y-25550000I0J-100000D01*
G01*
G37*
G36*
G01*
X-6957500Y-24900000D02*
X-6957500Y-25100000D01*
G75*
G02*
X-7057500Y-25200000I-100000J0D01*
G01*
X-8332500Y-25200000D01*
G75*
G02*
X-8432500Y-25100000I0J100000D01*
G01*
X-8432500Y-24900000D01*
G75*
G02*
X-8332500Y-24800000I100000J0D01*
G01*
X-7057500Y-24800000D01*
G75*
G02*
X-6957500Y-24900000I0J-100000D01*
G01*
G37*
G36*
G01*
X-14585000Y-33882500D02*
X-14585000Y-33537500D01*
G75*
G02*
X-14437500Y-33390000I147500J0D01*
G01*
X-14142500Y-33390000D01*
G75*
G02*
X-13995000Y-33537500I0J-147500D01*
G01*
X-13995000Y-33882500D01*
G75*
G02*
X-14142500Y-34030000I-147500J0D01*
G01*
X-14437500Y-34030000D01*
G75*
G02*
X-14585000Y-33882500I0J147500D01*
G01*
G37*
G36*
G01*
X-13615000Y-33882500D02*
X-13615000Y-33537500D01*
G75*
G02*
X-13467500Y-33390000I147500J0D01*
G01*
X-13172500Y-33390000D01*
G75*
G02*
X-13025000Y-33537500I0J-147500D01*
G01*
X-13025000Y-33882500D01*
G75*
G02*
X-13172500Y-34030000I-147500J0D01*
G01*
X-13467500Y-34030000D01*
G75*
G02*
X-13615000Y-33882500I0J147500D01*
G01*
G37*
G36*
G01*
X-4935000Y-13080000D02*
X-4785000Y-13080000D01*
G75*
G02*
X-4710000Y-13155000I0J-75000D01*
G01*
X-4710000Y-14480000D01*
G75*
G02*
X-4785000Y-14555000I-75000J0D01*
G01*
X-4935000Y-14555000D01*
G75*
G02*
X-5010000Y-14480000I0J75000D01*
G01*
X-5010000Y-13155000D01*
G75*
G02*
X-4935000Y-13080000I75000J0D01*
G01*
G37*
G36*
G01*
X-4435000Y-13080000D02*
X-4285000Y-13080000D01*
G75*
G02*
X-4210000Y-13155000I0J-75000D01*
G01*
X-4210000Y-14480000D01*
G75*
G02*
X-4285000Y-14555000I-75000J0D01*
G01*
X-4435000Y-14555000D01*
G75*
G02*
X-4510000Y-14480000I0J75000D01*
G01*
X-4510000Y-13155000D01*
G75*
G02*
X-4435000Y-13080000I75000J0D01*
G01*
G37*
G36*
G01*
X-3935000Y-13080000D02*
X-3785000Y-13080000D01*
G75*
G02*
X-3710000Y-13155000I0J-75000D01*
G01*
X-3710000Y-14480000D01*
G75*
G02*
X-3785000Y-14555000I-75000J0D01*
G01*
X-3935000Y-14555000D01*
G75*
G02*
X-4010000Y-14480000I0J75000D01*
G01*
X-4010000Y-13155000D01*
G75*
G02*
X-3935000Y-13080000I75000J0D01*
G01*
G37*
G36*
G01*
X-3435000Y-13080000D02*
X-3285000Y-13080000D01*
G75*
G02*
X-3210000Y-13155000I0J-75000D01*
G01*
X-3210000Y-14480000D01*
G75*
G02*
X-3285000Y-14555000I-75000J0D01*
G01*
X-3435000Y-14555000D01*
G75*
G02*
X-3510000Y-14480000I0J75000D01*
G01*
X-3510000Y-13155000D01*
G75*
G02*
X-3435000Y-13080000I75000J0D01*
G01*
G37*
G36*
G01*
X-2935000Y-13080000D02*
X-2785000Y-13080000D01*
G75*
G02*
X-2710000Y-13155000I0J-75000D01*
G01*
X-2710000Y-14480000D01*
G75*
G02*
X-2785000Y-14555000I-75000J0D01*
G01*
X-2935000Y-14555000D01*
G75*
G02*
X-3010000Y-14480000I0J75000D01*
G01*
X-3010000Y-13155000D01*
G75*
G02*
X-2935000Y-13080000I75000J0D01*
G01*
G37*
G36*
G01*
X-2435000Y-13080000D02*
X-2285000Y-13080000D01*
G75*
G02*
X-2210000Y-13155000I0J-75000D01*
G01*
X-2210000Y-14480000D01*
G75*
G02*
X-2285000Y-14555000I-75000J0D01*
G01*
X-2435000Y-14555000D01*
G75*
G02*
X-2510000Y-14480000I0J75000D01*
G01*
X-2510000Y-13155000D01*
G75*
G02*
X-2435000Y-13080000I75000J0D01*
G01*
G37*
G36*
G01*
X-1935000Y-13080000D02*
X-1785000Y-13080000D01*
G75*
G02*
X-1710000Y-13155000I0J-75000D01*
G01*
X-1710000Y-14480000D01*
G75*
G02*
X-1785000Y-14555000I-75000J0D01*
G01*
X-1935000Y-14555000D01*
G75*
G02*
X-2010000Y-14480000I0J75000D01*
G01*
X-2010000Y-13155000D01*
G75*
G02*
X-1935000Y-13080000I75000J0D01*
G01*
G37*
G36*
G01*
X-1435000Y-13080000D02*
X-1285000Y-13080000D01*
G75*
G02*
X-1210000Y-13155000I0J-75000D01*
G01*
X-1210000Y-14480000D01*
G75*
G02*
X-1285000Y-14555000I-75000J0D01*
G01*
X-1435000Y-14555000D01*
G75*
G02*
X-1510000Y-14480000I0J75000D01*
G01*
X-1510000Y-13155000D01*
G75*
G02*
X-1435000Y-13080000I75000J0D01*
G01*
G37*
G36*
G01*
X-935000Y-13080000D02*
X-785000Y-13080000D01*
G75*
G02*
X-710000Y-13155000I0J-75000D01*
G01*
X-710000Y-14480000D01*
G75*
G02*
X-785000Y-14555000I-75000J0D01*
G01*
X-935000Y-14555000D01*
G75*
G02*
X-1010000Y-14480000I0J75000D01*
G01*
X-1010000Y-13155000D01*
G75*
G02*
X-935000Y-13080000I75000J0D01*
G01*
G37*
G36*
G01*
X-435000Y-13080000D02*
X-285000Y-13080000D01*
G75*
G02*
X-210000Y-13155000I0J-75000D01*
G01*
X-210000Y-14480000D01*
G75*
G02*
X-285000Y-14555000I-75000J0D01*
G01*
X-435000Y-14555000D01*
G75*
G02*
X-510000Y-14480000I0J75000D01*
G01*
X-510000Y-13155000D01*
G75*
G02*
X-435000Y-13080000I75000J0D01*
G01*
G37*
G36*
G01*
X65000Y-13080000D02*
X215000Y-13080000D01*
G75*
G02*
X290000Y-13155000I0J-75000D01*
G01*
X290000Y-14480000D01*
G75*
G02*
X215000Y-14555000I-75000J0D01*
G01*
X65000Y-14555000D01*
G75*
G02*
X-10000Y-14480000I0J75000D01*
G01*
X-10000Y-13155000D01*
G75*
G02*
X65000Y-13080000I75000J0D01*
G01*
G37*
G36*
G01*
X565000Y-13080000D02*
X715000Y-13080000D01*
G75*
G02*
X790000Y-13155000I0J-75000D01*
G01*
X790000Y-14480000D01*
G75*
G02*
X715000Y-14555000I-75000J0D01*
G01*
X565000Y-14555000D01*
G75*
G02*
X490000Y-14480000I0J75000D01*
G01*
X490000Y-13155000D01*
G75*
G02*
X565000Y-13080000I75000J0D01*
G01*
G37*
G36*
G01*
X1390000Y-15080000D02*
X2715000Y-15080000D01*
G75*
G02*
X2790000Y-15155000I0J-75000D01*
G01*
X2790000Y-15305000D01*
G75*
G02*
X2715000Y-15380000I-75000J0D01*
G01*
X1390000Y-15380000D01*
G75*
G02*
X1315000Y-15305000I0J75000D01*
G01*
X1315000Y-15155000D01*
G75*
G02*
X1390000Y-15080000I75000J0D01*
G01*
G37*
G36*
G01*
X1390000Y-15580000D02*
X2715000Y-15580000D01*
G75*
G02*
X2790000Y-15655000I0J-75000D01*
G01*
X2790000Y-15805000D01*
G75*
G02*
X2715000Y-15880000I-75000J0D01*
G01*
X1390000Y-15880000D01*
G75*
G02*
X1315000Y-15805000I0J75000D01*
G01*
X1315000Y-15655000D01*
G75*
G02*
X1390000Y-15580000I75000J0D01*
G01*
G37*
G36*
G01*
X1390000Y-16080000D02*
X2715000Y-16080000D01*
G75*
G02*
X2790000Y-16155000I0J-75000D01*
G01*
X2790000Y-16305000D01*
G75*
G02*
X2715000Y-16380000I-75000J0D01*
G01*
X1390000Y-16380000D01*
G75*
G02*
X1315000Y-16305000I0J75000D01*
G01*
X1315000Y-16155000D01*
G75*
G02*
X1390000Y-16080000I75000J0D01*
G01*
G37*
G36*
G01*
X1390000Y-16580000D02*
X2715000Y-16580000D01*
G75*
G02*
X2790000Y-16655000I0J-75000D01*
G01*
X2790000Y-16805000D01*
G75*
G02*
X2715000Y-16880000I-75000J0D01*
G01*
X1390000Y-16880000D01*
G75*
G02*
X1315000Y-16805000I0J75000D01*
G01*
X1315000Y-16655000D01*
G75*
G02*
X1390000Y-16580000I75000J0D01*
G01*
G37*
G36*
G01*
X1390000Y-17080000D02*
X2715000Y-17080000D01*
G75*
G02*
X2790000Y-17155000I0J-75000D01*
G01*
X2790000Y-17305000D01*
G75*
G02*
X2715000Y-17380000I-75000J0D01*
G01*
X1390000Y-17380000D01*
G75*
G02*
X1315000Y-17305000I0J75000D01*
G01*
X1315000Y-17155000D01*
G75*
G02*
X1390000Y-17080000I75000J0D01*
G01*
G37*
G36*
G01*
X1390000Y-17580000D02*
X2715000Y-17580000D01*
G75*
G02*
X2790000Y-17655000I0J-75000D01*
G01*
X2790000Y-17805000D01*
G75*
G02*
X2715000Y-17880000I-75000J0D01*
G01*
X1390000Y-17880000D01*
G75*
G02*
X1315000Y-17805000I0J75000D01*
G01*
X1315000Y-17655000D01*
G75*
G02*
X1390000Y-17580000I75000J0D01*
G01*
G37*
G36*
G01*
X1390000Y-18080000D02*
X2715000Y-18080000D01*
G75*
G02*
X2790000Y-18155000I0J-75000D01*
G01*
X2790000Y-18305000D01*
G75*
G02*
X2715000Y-18380000I-75000J0D01*
G01*
X1390000Y-18380000D01*
G75*
G02*
X1315000Y-18305000I0J75000D01*
G01*
X1315000Y-18155000D01*
G75*
G02*
X1390000Y-18080000I75000J0D01*
G01*
G37*
G36*
G01*
X1390000Y-18580000D02*
X2715000Y-18580000D01*
G75*
G02*
X2790000Y-18655000I0J-75000D01*
G01*
X2790000Y-18805000D01*
G75*
G02*
X2715000Y-18880000I-75000J0D01*
G01*
X1390000Y-18880000D01*
G75*
G02*
X1315000Y-18805000I0J75000D01*
G01*
X1315000Y-18655000D01*
G75*
G02*
X1390000Y-18580000I75000J0D01*
G01*
G37*
G36*
G01*
X1390000Y-19080000D02*
X2715000Y-19080000D01*
G75*
G02*
X2790000Y-19155000I0J-75000D01*
G01*
X2790000Y-19305000D01*
G75*
G02*
X2715000Y-19380000I-75000J0D01*
G01*
X1390000Y-19380000D01*
G75*
G02*
X1315000Y-19305000I0J75000D01*
G01*
X1315000Y-19155000D01*
G75*
G02*
X1390000Y-19080000I75000J0D01*
G01*
G37*
G36*
G01*
X1390000Y-19580000D02*
X2715000Y-19580000D01*
G75*
G02*
X2790000Y-19655000I0J-75000D01*
G01*
X2790000Y-19805000D01*
G75*
G02*
X2715000Y-19880000I-75000J0D01*
G01*
X1390000Y-19880000D01*
G75*
G02*
X1315000Y-19805000I0J75000D01*
G01*
X1315000Y-19655000D01*
G75*
G02*
X1390000Y-19580000I75000J0D01*
G01*
G37*
G36*
G01*
X1390000Y-20080000D02*
X2715000Y-20080000D01*
G75*
G02*
X2790000Y-20155000I0J-75000D01*
G01*
X2790000Y-20305000D01*
G75*
G02*
X2715000Y-20380000I-75000J0D01*
G01*
X1390000Y-20380000D01*
G75*
G02*
X1315000Y-20305000I0J75000D01*
G01*
X1315000Y-20155000D01*
G75*
G02*
X1390000Y-20080000I75000J0D01*
G01*
G37*
G36*
G01*
X1390000Y-20580000D02*
X2715000Y-20580000D01*
G75*
G02*
X2790000Y-20655000I0J-75000D01*
G01*
X2790000Y-20805000D01*
G75*
G02*
X2715000Y-20880000I-75000J0D01*
G01*
X1390000Y-20880000D01*
G75*
G02*
X1315000Y-20805000I0J75000D01*
G01*
X1315000Y-20655000D01*
G75*
G02*
X1390000Y-20580000I75000J0D01*
G01*
G37*
G36*
G01*
X565000Y-21405000D02*
X715000Y-21405000D01*
G75*
G02*
X790000Y-21480000I0J-75000D01*
G01*
X790000Y-22805000D01*
G75*
G02*
X715000Y-22880000I-75000J0D01*
G01*
X565000Y-22880000D01*
G75*
G02*
X490000Y-22805000I0J75000D01*
G01*
X490000Y-21480000D01*
G75*
G02*
X565000Y-21405000I75000J0D01*
G01*
G37*
G36*
G01*
X65000Y-21405000D02*
X215000Y-21405000D01*
G75*
G02*
X290000Y-21480000I0J-75000D01*
G01*
X290000Y-22805000D01*
G75*
G02*
X215000Y-22880000I-75000J0D01*
G01*
X65000Y-22880000D01*
G75*
G02*
X-10000Y-22805000I0J75000D01*
G01*
X-10000Y-21480000D01*
G75*
G02*
X65000Y-21405000I75000J0D01*
G01*
G37*
G36*
G01*
X-435000Y-21405000D02*
X-285000Y-21405000D01*
G75*
G02*
X-210000Y-21480000I0J-75000D01*
G01*
X-210000Y-22805000D01*
G75*
G02*
X-285000Y-22880000I-75000J0D01*
G01*
X-435000Y-22880000D01*
G75*
G02*
X-510000Y-22805000I0J75000D01*
G01*
X-510000Y-21480000D01*
G75*
G02*
X-435000Y-21405000I75000J0D01*
G01*
G37*
G36*
G01*
X-935000Y-21405000D02*
X-785000Y-21405000D01*
G75*
G02*
X-710000Y-21480000I0J-75000D01*
G01*
X-710000Y-22805000D01*
G75*
G02*
X-785000Y-22880000I-75000J0D01*
G01*
X-935000Y-22880000D01*
G75*
G02*
X-1010000Y-22805000I0J75000D01*
G01*
X-1010000Y-21480000D01*
G75*
G02*
X-935000Y-21405000I75000J0D01*
G01*
G37*
G36*
G01*
X-1435000Y-21405000D02*
X-1285000Y-21405000D01*
G75*
G02*
X-1210000Y-21480000I0J-75000D01*
G01*
X-1210000Y-22805000D01*
G75*
G02*
X-1285000Y-22880000I-75000J0D01*
G01*
X-1435000Y-22880000D01*
G75*
G02*
X-1510000Y-22805000I0J75000D01*
G01*
X-1510000Y-21480000D01*
G75*
G02*
X-1435000Y-21405000I75000J0D01*
G01*
G37*
G36*
G01*
X-1935000Y-21405000D02*
X-1785000Y-21405000D01*
G75*
G02*
X-1710000Y-21480000I0J-75000D01*
G01*
X-1710000Y-22805000D01*
G75*
G02*
X-1785000Y-22880000I-75000J0D01*
G01*
X-1935000Y-22880000D01*
G75*
G02*
X-2010000Y-22805000I0J75000D01*
G01*
X-2010000Y-21480000D01*
G75*
G02*
X-1935000Y-21405000I75000J0D01*
G01*
G37*
G36*
G01*
X-2435000Y-21405000D02*
X-2285000Y-21405000D01*
G75*
G02*
X-2210000Y-21480000I0J-75000D01*
G01*
X-2210000Y-22805000D01*
G75*
G02*
X-2285000Y-22880000I-75000J0D01*
G01*
X-2435000Y-22880000D01*
G75*
G02*
X-2510000Y-22805000I0J75000D01*
G01*
X-2510000Y-21480000D01*
G75*
G02*
X-2435000Y-21405000I75000J0D01*
G01*
G37*
G36*
G01*
X-2935000Y-21405000D02*
X-2785000Y-21405000D01*
G75*
G02*
X-2710000Y-21480000I0J-75000D01*
G01*
X-2710000Y-22805000D01*
G75*
G02*
X-2785000Y-22880000I-75000J0D01*
G01*
X-2935000Y-22880000D01*
G75*
G02*
X-3010000Y-22805000I0J75000D01*
G01*
X-3010000Y-21480000D01*
G75*
G02*
X-2935000Y-21405000I75000J0D01*
G01*
G37*
G36*
G01*
X-3435000Y-21405000D02*
X-3285000Y-21405000D01*
G75*
G02*
X-3210000Y-21480000I0J-75000D01*
G01*
X-3210000Y-22805000D01*
G75*
G02*
X-3285000Y-22880000I-75000J0D01*
G01*
X-3435000Y-22880000D01*
G75*
G02*
X-3510000Y-22805000I0J75000D01*
G01*
X-3510000Y-21480000D01*
G75*
G02*
X-3435000Y-21405000I75000J0D01*
G01*
G37*
G36*
G01*
X-3935000Y-21405000D02*
X-3785000Y-21405000D01*
G75*
G02*
X-3710000Y-21480000I0J-75000D01*
G01*
X-3710000Y-22805000D01*
G75*
G02*
X-3785000Y-22880000I-75000J0D01*
G01*
X-3935000Y-22880000D01*
G75*
G02*
X-4010000Y-22805000I0J75000D01*
G01*
X-4010000Y-21480000D01*
G75*
G02*
X-3935000Y-21405000I75000J0D01*
G01*
G37*
G36*
G01*
X-4435000Y-21405000D02*
X-4285000Y-21405000D01*
G75*
G02*
X-4210000Y-21480000I0J-75000D01*
G01*
X-4210000Y-22805000D01*
G75*
G02*
X-4285000Y-22880000I-75000J0D01*
G01*
X-4435000Y-22880000D01*
G75*
G02*
X-4510000Y-22805000I0J75000D01*
G01*
X-4510000Y-21480000D01*
G75*
G02*
X-4435000Y-21405000I75000J0D01*
G01*
G37*
G36*
G01*
X-4935000Y-21405000D02*
X-4785000Y-21405000D01*
G75*
G02*
X-4710000Y-21480000I0J-75000D01*
G01*
X-4710000Y-22805000D01*
G75*
G02*
X-4785000Y-22880000I-75000J0D01*
G01*
X-4935000Y-22880000D01*
G75*
G02*
X-5010000Y-22805000I0J75000D01*
G01*
X-5010000Y-21480000D01*
G75*
G02*
X-4935000Y-21405000I75000J0D01*
G01*
G37*
G36*
G01*
X-6935000Y-20580000D02*
X-5610000Y-20580000D01*
G75*
G02*
X-5535000Y-20655000I0J-75000D01*
G01*
X-5535000Y-20805000D01*
G75*
G02*
X-5610000Y-20880000I-75000J0D01*
G01*
X-6935000Y-20880000D01*
G75*
G02*
X-7010000Y-20805000I0J75000D01*
G01*
X-7010000Y-20655000D01*
G75*
G02*
X-6935000Y-20580000I75000J0D01*
G01*
G37*
G36*
G01*
X-6935000Y-20080000D02*
X-5610000Y-20080000D01*
G75*
G02*
X-5535000Y-20155000I0J-75000D01*
G01*
X-5535000Y-20305000D01*
G75*
G02*
X-5610000Y-20380000I-75000J0D01*
G01*
X-6935000Y-20380000D01*
G75*
G02*
X-7010000Y-20305000I0J75000D01*
G01*
X-7010000Y-20155000D01*
G75*
G02*
X-6935000Y-20080000I75000J0D01*
G01*
G37*
G36*
G01*
X-6935000Y-19580000D02*
X-5610000Y-19580000D01*
G75*
G02*
X-5535000Y-19655000I0J-75000D01*
G01*
X-5535000Y-19805000D01*
G75*
G02*
X-5610000Y-19880000I-75000J0D01*
G01*
X-6935000Y-19880000D01*
G75*
G02*
X-7010000Y-19805000I0J75000D01*
G01*
X-7010000Y-19655000D01*
G75*
G02*
X-6935000Y-19580000I75000J0D01*
G01*
G37*
G36*
G01*
X-6935000Y-19080000D02*
X-5610000Y-19080000D01*
G75*
G02*
X-5535000Y-19155000I0J-75000D01*
G01*
X-5535000Y-19305000D01*
G75*
G02*
X-5610000Y-19380000I-75000J0D01*
G01*
X-6935000Y-19380000D01*
G75*
G02*
X-7010000Y-19305000I0J75000D01*
G01*
X-7010000Y-19155000D01*
G75*
G02*
X-6935000Y-19080000I75000J0D01*
G01*
G37*
G36*
G01*
X-6935000Y-18580000D02*
X-5610000Y-18580000D01*
G75*
G02*
X-5535000Y-18655000I0J-75000D01*
G01*
X-5535000Y-18805000D01*
G75*
G02*
X-5610000Y-18880000I-75000J0D01*
G01*
X-6935000Y-18880000D01*
G75*
G02*
X-7010000Y-18805000I0J75000D01*
G01*
X-7010000Y-18655000D01*
G75*
G02*
X-6935000Y-18580000I75000J0D01*
G01*
G37*
G36*
G01*
X-6935000Y-18080000D02*
X-5610000Y-18080000D01*
G75*
G02*
X-5535000Y-18155000I0J-75000D01*
G01*
X-5535000Y-18305000D01*
G75*
G02*
X-5610000Y-18380000I-75000J0D01*
G01*
X-6935000Y-18380000D01*
G75*
G02*
X-7010000Y-18305000I0J75000D01*
G01*
X-7010000Y-18155000D01*
G75*
G02*
X-6935000Y-18080000I75000J0D01*
G01*
G37*
G36*
G01*
X-6935000Y-17580000D02*
X-5610000Y-17580000D01*
G75*
G02*
X-5535000Y-17655000I0J-75000D01*
G01*
X-5535000Y-17805000D01*
G75*
G02*
X-5610000Y-17880000I-75000J0D01*
G01*
X-6935000Y-17880000D01*
G75*
G02*
X-7010000Y-17805000I0J75000D01*
G01*
X-7010000Y-17655000D01*
G75*
G02*
X-6935000Y-17580000I75000J0D01*
G01*
G37*
G36*
G01*
X-6935000Y-17080000D02*
X-5610000Y-17080000D01*
G75*
G02*
X-5535000Y-17155000I0J-75000D01*
G01*
X-5535000Y-17305000D01*
G75*
G02*
X-5610000Y-17380000I-75000J0D01*
G01*
X-6935000Y-17380000D01*
G75*
G02*
X-7010000Y-17305000I0J75000D01*
G01*
X-7010000Y-17155000D01*
G75*
G02*
X-6935000Y-17080000I75000J0D01*
G01*
G37*
G36*
G01*
X-6935000Y-16580000D02*
X-5610000Y-16580000D01*
G75*
G02*
X-5535000Y-16655000I0J-75000D01*
G01*
X-5535000Y-16805000D01*
G75*
G02*
X-5610000Y-16880000I-75000J0D01*
G01*
X-6935000Y-16880000D01*
G75*
G02*
X-7010000Y-16805000I0J75000D01*
G01*
X-7010000Y-16655000D01*
G75*
G02*
X-6935000Y-16580000I75000J0D01*
G01*
G37*
G36*
G01*
X-6935000Y-16080000D02*
X-5610000Y-16080000D01*
G75*
G02*
X-5535000Y-16155000I0J-75000D01*
G01*
X-5535000Y-16305000D01*
G75*
G02*
X-5610000Y-16380000I-75000J0D01*
G01*
X-6935000Y-16380000D01*
G75*
G02*
X-7010000Y-16305000I0J75000D01*
G01*
X-7010000Y-16155000D01*
G75*
G02*
X-6935000Y-16080000I75000J0D01*
G01*
G37*
G36*
G01*
X-6935000Y-15580000D02*
X-5610000Y-15580000D01*
G75*
G02*
X-5535000Y-15655000I0J-75000D01*
G01*
X-5535000Y-15805000D01*
G75*
G02*
X-5610000Y-15880000I-75000J0D01*
G01*
X-6935000Y-15880000D01*
G75*
G02*
X-7010000Y-15805000I0J75000D01*
G01*
X-7010000Y-15655000D01*
G75*
G02*
X-6935000Y-15580000I75000J0D01*
G01*
G37*
G36*
G01*
X-6935000Y-15080000D02*
X-5610000Y-15080000D01*
G75*
G02*
X-5535000Y-15155000I0J-75000D01*
G01*
X-5535000Y-15305000D01*
G75*
G02*
X-5610000Y-15380000I-75000J0D01*
G01*
X-6935000Y-15380000D01*
G75*
G02*
X-7010000Y-15305000I0J75000D01*
G01*
X-7010000Y-15155000D01*
G75*
G02*
X-6935000Y-15080000I75000J0D01*
G01*
G37*
G36*
G01*
X11080000Y-28137500D02*
X11080000Y-28482500D01*
G75*
G02*
X10932500Y-28630000I-147500J0D01*
G01*
X10637500Y-28630000D01*
G75*
G02*
X10490000Y-28482500I0J147500D01*
G01*
X10490000Y-28137500D01*
G75*
G02*
X10637500Y-27990000I147500J0D01*
G01*
X10932500Y-27990000D01*
G75*
G02*
X11080000Y-28137500I0J-147500D01*
G01*
G37*
G36*
G01*
X10110000Y-28137500D02*
X10110000Y-28482500D01*
G75*
G02*
X9962500Y-28630000I-147500J0D01*
G01*
X9667500Y-28630000D01*
G75*
G02*
X9520000Y-28482500I0J147500D01*
G01*
X9520000Y-28137500D01*
G75*
G02*
X9667500Y-27990000I147500J0D01*
G01*
X9962500Y-27990000D01*
G75*
G02*
X10110000Y-28137500I0J-147500D01*
G01*
G37*
G36*
G01*
X11095060Y-29323700D02*
X11095060Y-29668700D01*
G75*
G02*
X10947560Y-29816200I-147500J0D01*
G01*
X10652560Y-29816200D01*
G75*
G02*
X10505060Y-29668700I0J147500D01*
G01*
X10505060Y-29323700D01*
G75*
G02*
X10652560Y-29176200I147500J0D01*
G01*
X10947560Y-29176200D01*
G75*
G02*
X11095060Y-29323700I0J-147500D01*
G01*
G37*
G36*
G01*
X10125060Y-29323700D02*
X10125060Y-29668700D01*
G75*
G02*
X9977560Y-29816200I-147500J0D01*
G01*
X9682560Y-29816200D01*
G75*
G02*
X9535060Y-29668700I0J147500D01*
G01*
X9535060Y-29323700D01*
G75*
G02*
X9682560Y-29176200I147500J0D01*
G01*
X9977560Y-29176200D01*
G75*
G02*
X10125060Y-29323700I0J-147500D01*
G01*
G37*
G36*
G01*
X12417500Y-30520000D02*
X12762500Y-30520000D01*
G75*
G02*
X12910000Y-30667500I0J-147500D01*
G01*
X12910000Y-30962500D01*
G75*
G02*
X12762500Y-31110000I-147500J0D01*
G01*
X12417500Y-31110000D01*
G75*
G02*
X12270000Y-30962500I0J147500D01*
G01*
X12270000Y-30667500D01*
G75*
G02*
X12417500Y-30520000I147500J0D01*
G01*
G37*
G36*
G01*
X12417500Y-31490000D02*
X12762500Y-31490000D01*
G75*
G02*
X12910000Y-31637500I0J-147500D01*
G01*
X12910000Y-31932500D01*
G75*
G02*
X12762500Y-32080000I-147500J0D01*
G01*
X12417500Y-32080000D01*
G75*
G02*
X12270000Y-31932500I0J147500D01*
G01*
X12270000Y-31637500D01*
G75*
G02*
X12417500Y-31490000I147500J0D01*
G01*
G37*
G36*
G01*
X13667500Y-30520000D02*
X14012500Y-30520000D01*
G75*
G02*
X14160000Y-30667500I0J-147500D01*
G01*
X14160000Y-30962500D01*
G75*
G02*
X14012500Y-31110000I-147500J0D01*
G01*
X13667500Y-31110000D01*
G75*
G02*
X13520000Y-30962500I0J147500D01*
G01*
X13520000Y-30667500D01*
G75*
G02*
X13667500Y-30520000I147500J0D01*
G01*
G37*
G36*
G01*
X13667500Y-31490000D02*
X14012500Y-31490000D01*
G75*
G02*
X14160000Y-31637500I0J-147500D01*
G01*
X14160000Y-31932500D01*
G75*
G02*
X14012500Y-32080000I-147500J0D01*
G01*
X13667500Y-32080000D01*
G75*
G02*
X13520000Y-31932500I0J147500D01*
G01*
X13520000Y-31637500D01*
G75*
G02*
X13667500Y-31490000I147500J0D01*
G01*
G37*
G36*
G01*
X9917500Y-30520000D02*
X10262500Y-30520000D01*
G75*
G02*
X10410000Y-30667500I0J-147500D01*
G01*
X10410000Y-30962500D01*
G75*
G02*
X10262500Y-31110000I-147500J0D01*
G01*
X9917500Y-31110000D01*
G75*
G02*
X9770000Y-30962500I0J147500D01*
G01*
X9770000Y-30667500D01*
G75*
G02*
X9917500Y-30520000I147500J0D01*
G01*
G37*
G36*
G01*
X9917500Y-31490000D02*
X10262500Y-31490000D01*
G75*
G02*
X10410000Y-31637500I0J-147500D01*
G01*
X10410000Y-31932500D01*
G75*
G02*
X10262500Y-32080000I-147500J0D01*
G01*
X9917500Y-32080000D01*
G75*
G02*
X9770000Y-31932500I0J147500D01*
G01*
X9770000Y-31637500D01*
G75*
G02*
X9917500Y-31490000I147500J0D01*
G01*
G37*
G36*
G01*
X16167500Y-30520000D02*
X16512500Y-30520000D01*
G75*
G02*
X16660000Y-30667500I0J-147500D01*
G01*
X16660000Y-30962500D01*
G75*
G02*
X16512500Y-31110000I-147500J0D01*
G01*
X16167500Y-31110000D01*
G75*
G02*
X16020000Y-30962500I0J147500D01*
G01*
X16020000Y-30667500D01*
G75*
G02*
X16167500Y-30520000I147500J0D01*
G01*
G37*
G36*
G01*
X16167500Y-31490000D02*
X16512500Y-31490000D01*
G75*
G02*
X16660000Y-31637500I0J-147500D01*
G01*
X16660000Y-31932500D01*
G75*
G02*
X16512500Y-32080000I-147500J0D01*
G01*
X16167500Y-32080000D01*
G75*
G02*
X16020000Y-31932500I0J147500D01*
G01*
X16020000Y-31637500D01*
G75*
G02*
X16167500Y-31490000I147500J0D01*
G01*
G37*
G36*
G01*
X8667500Y-30520000D02*
X9012500Y-30520000D01*
G75*
G02*
X9160000Y-30667500I0J-147500D01*
G01*
X9160000Y-30962500D01*
G75*
G02*
X9012500Y-31110000I-147500J0D01*
G01*
X8667500Y-31110000D01*
G75*
G02*
X8520000Y-30962500I0J147500D01*
G01*
X8520000Y-30667500D01*
G75*
G02*
X8667500Y-30520000I147500J0D01*
G01*
G37*
G36*
G01*
X8667500Y-31490000D02*
X9012500Y-31490000D01*
G75*
G02*
X9160000Y-31637500I0J-147500D01*
G01*
X9160000Y-31932500D01*
G75*
G02*
X9012500Y-32080000I-147500J0D01*
G01*
X8667500Y-32080000D01*
G75*
G02*
X8520000Y-31932500I0J147500D01*
G01*
X8520000Y-31637500D01*
G75*
G02*
X8667500Y-31490000I147500J0D01*
G01*
G37*
G36*
G01*
X17417500Y-30520000D02*
X17762500Y-30520000D01*
G75*
G02*
X17910000Y-30667500I0J-147500D01*
G01*
X17910000Y-30962500D01*
G75*
G02*
X17762500Y-31110000I-147500J0D01*
G01*
X17417500Y-31110000D01*
G75*
G02*
X17270000Y-30962500I0J147500D01*
G01*
X17270000Y-30667500D01*
G75*
G02*
X17417500Y-30520000I147500J0D01*
G01*
G37*
G36*
G01*
X17417500Y-31490000D02*
X17762500Y-31490000D01*
G75*
G02*
X17910000Y-31637500I0J-147500D01*
G01*
X17910000Y-31932500D01*
G75*
G02*
X17762500Y-32080000I-147500J0D01*
G01*
X17417500Y-32080000D01*
G75*
G02*
X17270000Y-31932500I0J147500D01*
G01*
X17270000Y-31637500D01*
G75*
G02*
X17417500Y-31490000I147500J0D01*
G01*
G37*
G36*
G01*
X14917500Y-30520000D02*
X15262500Y-30520000D01*
G75*
G02*
X15410000Y-30667500I0J-147500D01*
G01*
X15410000Y-30962500D01*
G75*
G02*
X15262500Y-31110000I-147500J0D01*
G01*
X14917500Y-31110000D01*
G75*
G02*
X14770000Y-30962500I0J147500D01*
G01*
X14770000Y-30667500D01*
G75*
G02*
X14917500Y-30520000I147500J0D01*
G01*
G37*
G36*
G01*
X14917500Y-31490000D02*
X15262500Y-31490000D01*
G75*
G02*
X15410000Y-31637500I0J-147500D01*
G01*
X15410000Y-31932500D01*
G75*
G02*
X15262500Y-32080000I-147500J0D01*
G01*
X14917500Y-32080000D01*
G75*
G02*
X14770000Y-31932500I0J147500D01*
G01*
X14770000Y-31637500D01*
G75*
G02*
X14917500Y-31490000I147500J0D01*
G01*
G37*
G36*
G01*
X11167500Y-30520000D02*
X11512500Y-30520000D01*
G75*
G02*
X11660000Y-30667500I0J-147500D01*
G01*
X11660000Y-30962500D01*
G75*
G02*
X11512500Y-31110000I-147500J0D01*
G01*
X11167500Y-31110000D01*
G75*
G02*
X11020000Y-30962500I0J147500D01*
G01*
X11020000Y-30667500D01*
G75*
G02*
X11167500Y-30520000I147500J0D01*
G01*
G37*
G36*
G01*
X11167500Y-31490000D02*
X11512500Y-31490000D01*
G75*
G02*
X11660000Y-31637500I0J-147500D01*
G01*
X11660000Y-31932500D01*
G75*
G02*
X11512500Y-32080000I-147500J0D01*
G01*
X11167500Y-32080000D01*
G75*
G02*
X11020000Y-31932500I0J147500D01*
G01*
X11020000Y-31637500D01*
G75*
G02*
X11167500Y-31490000I147500J0D01*
G01*
G37*
G36*
G01*
X-5072500Y-7760000D02*
X-4727500Y-7760000D01*
G75*
G02*
X-4580000Y-7907500I0J-147500D01*
G01*
X-4580000Y-8202500D01*
G75*
G02*
X-4727500Y-8350000I-147500J0D01*
G01*
X-5072500Y-8350000D01*
G75*
G02*
X-5220000Y-8202500I0J147500D01*
G01*
X-5220000Y-7907500D01*
G75*
G02*
X-5072500Y-7760000I147500J0D01*
G01*
G37*
G36*
G01*
X-5072500Y-8730000D02*
X-4727500Y-8730000D01*
G75*
G02*
X-4580000Y-8877500I0J-147500D01*
G01*
X-4580000Y-9172500D01*
G75*
G02*
X-4727500Y-9320000I-147500J0D01*
G01*
X-5072500Y-9320000D01*
G75*
G02*
X-5220000Y-9172500I0J147500D01*
G01*
X-5220000Y-8877500D01*
G75*
G02*
X-5072500Y-8730000I147500J0D01*
G01*
G37*
G36*
G01*
X30220000Y-6172500D02*
X30220000Y-5827500D01*
G75*
G02*
X30367500Y-5680000I147500J0D01*
G01*
X30662500Y-5680000D01*
G75*
G02*
X30810000Y-5827500I0J-147500D01*
G01*
X30810000Y-6172500D01*
G75*
G02*
X30662500Y-6320000I-147500J0D01*
G01*
X30367500Y-6320000D01*
G75*
G02*
X30220000Y-6172500I0J147500D01*
G01*
G37*
G36*
G01*
X31190000Y-6172500D02*
X31190000Y-5827500D01*
G75*
G02*
X31337500Y-5680000I147500J0D01*
G01*
X31632500Y-5680000D01*
G75*
G02*
X31780000Y-5827500I0J-147500D01*
G01*
X31780000Y-6172500D01*
G75*
G02*
X31632500Y-6320000I-147500J0D01*
G01*
X31337500Y-6320000D01*
G75*
G02*
X31190000Y-6172500I0J147500D01*
G01*
G37*
G36*
G01*
X34030000Y-5827500D02*
X34030000Y-6172500D01*
G75*
G02*
X33882500Y-6320000I-147500J0D01*
G01*
X33587500Y-6320000D01*
G75*
G02*
X33440000Y-6172500I0J147500D01*
G01*
X33440000Y-5827500D01*
G75*
G02*
X33587500Y-5680000I147500J0D01*
G01*
X33882500Y-5680000D01*
G75*
G02*
X34030000Y-5827500I0J-147500D01*
G01*
G37*
G36*
G01*
X33060000Y-5827500D02*
X33060000Y-6172500D01*
G75*
G02*
X32912500Y-6320000I-147500J0D01*
G01*
X32617500Y-6320000D01*
G75*
G02*
X32470000Y-6172500I0J147500D01*
G01*
X32470000Y-5827500D01*
G75*
G02*
X32617500Y-5680000I147500J0D01*
G01*
X32912500Y-5680000D01*
G75*
G02*
X33060000Y-5827500I0J-147500D01*
G01*
G37*
D17*
X29990900Y8271940D03*
D18*
X28390900Y8271940D03*
X29190900Y8271940D03*
D17*
X27590900Y8271940D03*
D18*
X29190900Y10071940D03*
D17*
X29990900Y10071940D03*
D18*
X28390900Y10071940D03*
D17*
X27590900Y10071940D03*
G36*
G01*
X-12742500Y-14785000D02*
X-12397500Y-14785000D01*
G75*
G02*
X-12250000Y-14932500I0J-147500D01*
G01*
X-12250000Y-15227500D01*
G75*
G02*
X-12397500Y-15375000I-147500J0D01*
G01*
X-12742500Y-15375000D01*
G75*
G02*
X-12890000Y-15227500I0J147500D01*
G01*
X-12890000Y-14932500D01*
G75*
G02*
X-12742500Y-14785000I147500J0D01*
G01*
G37*
G36*
G01*
X-12742500Y-15755000D02*
X-12397500Y-15755000D01*
G75*
G02*
X-12250000Y-15902500I0J-147500D01*
G01*
X-12250000Y-16197500D01*
G75*
G02*
X-12397500Y-16345000I-147500J0D01*
G01*
X-12742500Y-16345000D01*
G75*
G02*
X-12890000Y-16197500I0J147500D01*
G01*
X-12890000Y-15902500D01*
G75*
G02*
X-12742500Y-15755000I147500J0D01*
G01*
G37*
G36*
G01*
X17028000Y16756740D02*
X17028000Y17101740D01*
G75*
G02*
X17175500Y17249240I147500J0D01*
G01*
X17470500Y17249240D01*
G75*
G02*
X17618000Y17101740I0J-147500D01*
G01*
X17618000Y16756740D01*
G75*
G02*
X17470500Y16609240I-147500J0D01*
G01*
X17175500Y16609240D01*
G75*
G02*
X17028000Y16756740I0J147500D01*
G01*
G37*
G36*
G01*
X17998000Y16756740D02*
X17998000Y17101740D01*
G75*
G02*
X18145500Y17249240I147500J0D01*
G01*
X18440500Y17249240D01*
G75*
G02*
X18588000Y17101740I0J-147500D01*
G01*
X18588000Y16756740D01*
G75*
G02*
X18440500Y16609240I-147500J0D01*
G01*
X18145500Y16609240D01*
G75*
G02*
X17998000Y16756740I0J147500D01*
G01*
G37*
G36*
G01*
X1387500Y4590000D02*
X1732500Y4590000D01*
G75*
G02*
X1880000Y4442500I0J-147500D01*
G01*
X1880000Y4147500D01*
G75*
G02*
X1732500Y4000000I-147500J0D01*
G01*
X1387500Y4000000D01*
G75*
G02*
X1240000Y4147500I0J147500D01*
G01*
X1240000Y4442500D01*
G75*
G02*
X1387500Y4590000I147500J0D01*
G01*
G37*
G36*
G01*
X1387500Y3620000D02*
X1732500Y3620000D01*
G75*
G02*
X1880000Y3472500I0J-147500D01*
G01*
X1880000Y3177500D01*
G75*
G02*
X1732500Y3030000I-147500J0D01*
G01*
X1387500Y3030000D01*
G75*
G02*
X1240000Y3177500I0J147500D01*
G01*
X1240000Y3472500D01*
G75*
G02*
X1387500Y3620000I147500J0D01*
G01*
G37*
G36*
G01*
X-5427500Y-125000D02*
X-5772500Y-125000D01*
G75*
G02*
X-5920000Y22500I0J147500D01*
G01*
X-5920000Y317500D01*
G75*
G02*
X-5772500Y465000I147500J0D01*
G01*
X-5427500Y465000D01*
G75*
G02*
X-5280000Y317500I0J-147500D01*
G01*
X-5280000Y22500D01*
G75*
G02*
X-5427500Y-125000I-147500J0D01*
G01*
G37*
G36*
G01*
X-5427500Y845000D02*
X-5772500Y845000D01*
G75*
G02*
X-5920000Y992500I0J147500D01*
G01*
X-5920000Y1287500D01*
G75*
G02*
X-5772500Y1435000I147500J0D01*
G01*
X-5427500Y1435000D01*
G75*
G02*
X-5280000Y1287500I0J-147500D01*
G01*
X-5280000Y992500D01*
G75*
G02*
X-5427500Y845000I-147500J0D01*
G01*
G37*
G36*
G01*
X37500Y4585000D02*
X382500Y4585000D01*
G75*
G02*
X530000Y4437500I0J-147500D01*
G01*
X530000Y4142500D01*
G75*
G02*
X382500Y3995000I-147500J0D01*
G01*
X37500Y3995000D01*
G75*
G02*
X-110000Y4142500I0J147500D01*
G01*
X-110000Y4437500D01*
G75*
G02*
X37500Y4585000I147500J0D01*
G01*
G37*
G36*
G01*
X37500Y3615000D02*
X382500Y3615000D01*
G75*
G02*
X530000Y3467500I0J-147500D01*
G01*
X530000Y3172500D01*
G75*
G02*
X382500Y3025000I-147500J0D01*
G01*
X37500Y3025000D01*
G75*
G02*
X-110000Y3172500I0J147500D01*
G01*
X-110000Y3467500D01*
G75*
G02*
X37500Y3615000I147500J0D01*
G01*
G37*
G36*
G01*
X20683500Y15951120D02*
X20683500Y15606120D01*
G75*
G02*
X20536000Y15458620I-147500J0D01*
G01*
X20241000Y15458620D01*
G75*
G02*
X20093500Y15606120I0J147500D01*
G01*
X20093500Y15951120D01*
G75*
G02*
X20241000Y16098620I147500J0D01*
G01*
X20536000Y16098620D01*
G75*
G02*
X20683500Y15951120I0J-147500D01*
G01*
G37*
G36*
G01*
X19713500Y15951120D02*
X19713500Y15606120D01*
G75*
G02*
X19566000Y15458620I-147500J0D01*
G01*
X19271000Y15458620D01*
G75*
G02*
X19123500Y15606120I0J147500D01*
G01*
X19123500Y15951120D01*
G75*
G02*
X19271000Y16098620I147500J0D01*
G01*
X19566000Y16098620D01*
G75*
G02*
X19713500Y15951120I0J-147500D01*
G01*
G37*
G36*
G01*
X-33415500Y5871360D02*
X-33070500Y5871360D01*
G75*
G02*
X-32923000Y5723860I0J-147500D01*
G01*
X-32923000Y5428860D01*
G75*
G02*
X-33070500Y5281360I-147500J0D01*
G01*
X-33415500Y5281360D01*
G75*
G02*
X-33563000Y5428860I0J147500D01*
G01*
X-33563000Y5723860D01*
G75*
G02*
X-33415500Y5871360I147500J0D01*
G01*
G37*
G36*
G01*
X-33415500Y4901360D02*
X-33070500Y4901360D01*
G75*
G02*
X-32923000Y4753860I0J-147500D01*
G01*
X-32923000Y4458860D01*
G75*
G02*
X-33070500Y4311360I-147500J0D01*
G01*
X-33415500Y4311360D01*
G75*
G02*
X-33563000Y4458860I0J147500D01*
G01*
X-33563000Y4753860D01*
G75*
G02*
X-33415500Y4901360I147500J0D01*
G01*
G37*
G36*
G01*
X12107500Y-16195000D02*
X12452500Y-16195000D01*
G75*
G02*
X12600000Y-16342500I0J-147500D01*
G01*
X12600000Y-16637500D01*
G75*
G02*
X12452500Y-16785000I-147500J0D01*
G01*
X12107500Y-16785000D01*
G75*
G02*
X11960000Y-16637500I0J147500D01*
G01*
X11960000Y-16342500D01*
G75*
G02*
X12107500Y-16195000I147500J0D01*
G01*
G37*
G36*
G01*
X12107500Y-17165000D02*
X12452500Y-17165000D01*
G75*
G02*
X12600000Y-17312500I0J-147500D01*
G01*
X12600000Y-17607500D01*
G75*
G02*
X12452500Y-17755000I-147500J0D01*
G01*
X12107500Y-17755000D01*
G75*
G02*
X11960000Y-17607500I0J147500D01*
G01*
X11960000Y-17312500D01*
G75*
G02*
X12107500Y-17165000I147500J0D01*
G01*
G37*
G36*
G01*
X-5110260Y-33987960D02*
X-5110260Y-34332960D01*
G75*
G02*
X-5257760Y-34480460I-147500J0D01*
G01*
X-5552760Y-34480460D01*
G75*
G02*
X-5700260Y-34332960I0J147500D01*
G01*
X-5700260Y-33987960D01*
G75*
G02*
X-5552760Y-33840460I147500J0D01*
G01*
X-5257760Y-33840460D01*
G75*
G02*
X-5110260Y-33987960I0J-147500D01*
G01*
G37*
G36*
G01*
X-6080260Y-33987960D02*
X-6080260Y-34332960D01*
G75*
G02*
X-6227760Y-34480460I-147500J0D01*
G01*
X-6522760Y-34480460D01*
G75*
G02*
X-6670260Y-34332960I0J147500D01*
G01*
X-6670260Y-33987960D01*
G75*
G02*
X-6522760Y-33840460I147500J0D01*
G01*
X-6227760Y-33840460D01*
G75*
G02*
X-6080260Y-33987960I0J-147500D01*
G01*
G37*
G36*
G01*
X1615000Y-31967500D02*
X1615000Y-32312500D01*
G75*
G02*
X1467500Y-32460000I-147500J0D01*
G01*
X1172500Y-32460000D01*
G75*
G02*
X1025000Y-32312500I0J147500D01*
G01*
X1025000Y-31967500D01*
G75*
G02*
X1172500Y-31820000I147500J0D01*
G01*
X1467500Y-31820000D01*
G75*
G02*
X1615000Y-31967500I0J-147500D01*
G01*
G37*
G36*
G01*
X645000Y-31967500D02*
X645000Y-32312500D01*
G75*
G02*
X497500Y-32460000I-147500J0D01*
G01*
X202500Y-32460000D01*
G75*
G02*
X55000Y-32312500I0J147500D01*
G01*
X55000Y-31967500D01*
G75*
G02*
X202500Y-31820000I147500J0D01*
G01*
X497500Y-31820000D01*
G75*
G02*
X645000Y-31967500I0J-147500D01*
G01*
G37*
G36*
G01*
X-13455000Y-10852500D02*
X-13455000Y-10507500D01*
G75*
G02*
X-13307500Y-10360000I147500J0D01*
G01*
X-13012500Y-10360000D01*
G75*
G02*
X-12865000Y-10507500I0J-147500D01*
G01*
X-12865000Y-10852500D01*
G75*
G02*
X-13012500Y-11000000I-147500J0D01*
G01*
X-13307500Y-11000000D01*
G75*
G02*
X-13455000Y-10852500I0J147500D01*
G01*
G37*
G36*
G01*
X-12485000Y-10852500D02*
X-12485000Y-10507500D01*
G75*
G02*
X-12337500Y-10360000I147500J0D01*
G01*
X-12042500Y-10360000D01*
G75*
G02*
X-11895000Y-10507500I0J-147500D01*
G01*
X-11895000Y-10852500D01*
G75*
G02*
X-12042500Y-11000000I-147500J0D01*
G01*
X-12337500Y-11000000D01*
G75*
G02*
X-12485000Y-10852500I0J147500D01*
G01*
G37*
G36*
G01*
X3914360Y-35486120D02*
X4259360Y-35486120D01*
G75*
G02*
X4406860Y-35633620I0J-147500D01*
G01*
X4406860Y-35928620D01*
G75*
G02*
X4259360Y-36076120I-147500J0D01*
G01*
X3914360Y-36076120D01*
G75*
G02*
X3766860Y-35928620I0J147500D01*
G01*
X3766860Y-35633620D01*
G75*
G02*
X3914360Y-35486120I147500J0D01*
G01*
G37*
G36*
G01*
X3914360Y-36456120D02*
X4259360Y-36456120D01*
G75*
G02*
X4406860Y-36603620I0J-147500D01*
G01*
X4406860Y-36898620D01*
G75*
G02*
X4259360Y-37046120I-147500J0D01*
G01*
X3914360Y-37046120D01*
G75*
G02*
X3766860Y-36898620I0J147500D01*
G01*
X3766860Y-36603620D01*
G75*
G02*
X3914360Y-36456120I147500J0D01*
G01*
G37*
G36*
G01*
X-28683020Y-2021600D02*
X-28338020Y-2021600D01*
G75*
G02*
X-28190520Y-2169100I0J-147500D01*
G01*
X-28190520Y-2464100D01*
G75*
G02*
X-28338020Y-2611600I-147500J0D01*
G01*
X-28683020Y-2611600D01*
G75*
G02*
X-28830520Y-2464100I0J147500D01*
G01*
X-28830520Y-2169100D01*
G75*
G02*
X-28683020Y-2021600I147500J0D01*
G01*
G37*
G36*
G01*
X-28683020Y-2991600D02*
X-28338020Y-2991600D01*
G75*
G02*
X-28190520Y-3139100I0J-147500D01*
G01*
X-28190520Y-3434100D01*
G75*
G02*
X-28338020Y-3581600I-147500J0D01*
G01*
X-28683020Y-3581600D01*
G75*
G02*
X-28830520Y-3434100I0J147500D01*
G01*
X-28830520Y-3139100D01*
G75*
G02*
X-28683020Y-2991600I147500J0D01*
G01*
G37*
G36*
G01*
X-29838020Y-3581600D02*
X-30183020Y-3581600D01*
G75*
G02*
X-30330520Y-3434100I0J147500D01*
G01*
X-30330520Y-3139100D01*
G75*
G02*
X-30183020Y-2991600I147500J0D01*
G01*
X-29838020Y-2991600D01*
G75*
G02*
X-29690520Y-3139100I0J-147500D01*
G01*
X-29690520Y-3434100D01*
G75*
G02*
X-29838020Y-3581600I-147500J0D01*
G01*
G37*
G36*
G01*
X-29838020Y-2611600D02*
X-30183020Y-2611600D01*
G75*
G02*
X-30330520Y-2464100I0J147500D01*
G01*
X-30330520Y-2169100D01*
G75*
G02*
X-30183020Y-2021600I147500J0D01*
G01*
X-29838020Y-2021600D01*
G75*
G02*
X-29690520Y-2169100I0J-147500D01*
G01*
X-29690520Y-2464100D01*
G75*
G02*
X-29838020Y-2611600I-147500J0D01*
G01*
G37*
G36*
G01*
X-12372500Y-34435000D02*
X-12027500Y-34435000D01*
G75*
G02*
X-11880000Y-34582500I0J-147500D01*
G01*
X-11880000Y-34877500D01*
G75*
G02*
X-12027500Y-35025000I-147500J0D01*
G01*
X-12372500Y-35025000D01*
G75*
G02*
X-12520000Y-34877500I0J147500D01*
G01*
X-12520000Y-34582500D01*
G75*
G02*
X-12372500Y-34435000I147500J0D01*
G01*
G37*
G36*
G01*
X-12372500Y-35405000D02*
X-12027500Y-35405000D01*
G75*
G02*
X-11880000Y-35552500I0J-147500D01*
G01*
X-11880000Y-35847500D01*
G75*
G02*
X-12027500Y-35995000I-147500J0D01*
G01*
X-12372500Y-35995000D01*
G75*
G02*
X-12520000Y-35847500I0J147500D01*
G01*
X-12520000Y-35552500D01*
G75*
G02*
X-12372500Y-35405000I147500J0D01*
G01*
G37*
G36*
G01*
X-8552500Y-41065000D02*
X-8207500Y-41065000D01*
G75*
G02*
X-8060000Y-41212500I0J-147500D01*
G01*
X-8060000Y-41507500D01*
G75*
G02*
X-8207500Y-41655000I-147500J0D01*
G01*
X-8552500Y-41655000D01*
G75*
G02*
X-8700000Y-41507500I0J147500D01*
G01*
X-8700000Y-41212500D01*
G75*
G02*
X-8552500Y-41065000I147500J0D01*
G01*
G37*
G36*
G01*
X-8552500Y-42035000D02*
X-8207500Y-42035000D01*
G75*
G02*
X-8060000Y-42182500I0J-147500D01*
G01*
X-8060000Y-42477500D01*
G75*
G02*
X-8207500Y-42625000I-147500J0D01*
G01*
X-8552500Y-42625000D01*
G75*
G02*
X-8700000Y-42477500I0J147500D01*
G01*
X-8700000Y-42182500D01*
G75*
G02*
X-8552500Y-42035000I147500J0D01*
G01*
G37*
G36*
G01*
X-15032500Y-41725000D02*
X-14687500Y-41725000D01*
G75*
G02*
X-14540000Y-41872500I0J-147500D01*
G01*
X-14540000Y-42167500D01*
G75*
G02*
X-14687500Y-42315000I-147500J0D01*
G01*
X-15032500Y-42315000D01*
G75*
G02*
X-15180000Y-42167500I0J147500D01*
G01*
X-15180000Y-41872500D01*
G75*
G02*
X-15032500Y-41725000I147500J0D01*
G01*
G37*
G36*
G01*
X-15032500Y-42695000D02*
X-14687500Y-42695000D01*
G75*
G02*
X-14540000Y-42842500I0J-147500D01*
G01*
X-14540000Y-43137500D01*
G75*
G02*
X-14687500Y-43285000I-147500J0D01*
G01*
X-15032500Y-43285000D01*
G75*
G02*
X-15180000Y-43137500I0J147500D01*
G01*
X-15180000Y-42842500D01*
G75*
G02*
X-15032500Y-42695000I147500J0D01*
G01*
G37*
G36*
G01*
X-13535000Y-25377500D02*
X-13535000Y-25722500D01*
G75*
G02*
X-13682500Y-25870000I-147500J0D01*
G01*
X-13977500Y-25870000D01*
G75*
G02*
X-14125000Y-25722500I0J147500D01*
G01*
X-14125000Y-25377500D01*
G75*
G02*
X-13977500Y-25230000I147500J0D01*
G01*
X-13682500Y-25230000D01*
G75*
G02*
X-13535000Y-25377500I0J-147500D01*
G01*
G37*
G36*
G01*
X-14505000Y-25377500D02*
X-14505000Y-25722500D01*
G75*
G02*
X-14652500Y-25870000I-147500J0D01*
G01*
X-14947500Y-25870000D01*
G75*
G02*
X-15095000Y-25722500I0J147500D01*
G01*
X-15095000Y-25377500D01*
G75*
G02*
X-14947500Y-25230000I147500J0D01*
G01*
X-14652500Y-25230000D01*
G75*
G02*
X-14505000Y-25377500I0J-147500D01*
G01*
G37*
G36*
G01*
X-54780000Y5327500D02*
X-54780000Y5672500D01*
G75*
G02*
X-54632500Y5820000I147500J0D01*
G01*
X-54337500Y5820000D01*
G75*
G02*
X-54190000Y5672500I0J-147500D01*
G01*
X-54190000Y5327500D01*
G75*
G02*
X-54337500Y5180000I-147500J0D01*
G01*
X-54632500Y5180000D01*
G75*
G02*
X-54780000Y5327500I0J147500D01*
G01*
G37*
G36*
G01*
X-53810000Y5327500D02*
X-53810000Y5672500D01*
G75*
G02*
X-53662500Y5820000I147500J0D01*
G01*
X-53367500Y5820000D01*
G75*
G02*
X-53220000Y5672500I0J-147500D01*
G01*
X-53220000Y5327500D01*
G75*
G02*
X-53367500Y5180000I-147500J0D01*
G01*
X-53662500Y5180000D01*
G75*
G02*
X-53810000Y5327500I0J147500D01*
G01*
G37*
G36*
G01*
X-30052820Y13403800D02*
X-29707820Y13403800D01*
G75*
G02*
X-29560320Y13256300I0J-147500D01*
G01*
X-29560320Y12961300D01*
G75*
G02*
X-29707820Y12813800I-147500J0D01*
G01*
X-30052820Y12813800D01*
G75*
G02*
X-30200320Y12961300I0J147500D01*
G01*
X-30200320Y13256300D01*
G75*
G02*
X-30052820Y13403800I147500J0D01*
G01*
G37*
G36*
G01*
X-30052820Y12433800D02*
X-29707820Y12433800D01*
G75*
G02*
X-29560320Y12286300I0J-147500D01*
G01*
X-29560320Y11991300D01*
G75*
G02*
X-29707820Y11843800I-147500J0D01*
G01*
X-30052820Y11843800D01*
G75*
G02*
X-30200320Y11991300I0J147500D01*
G01*
X-30200320Y12286300D01*
G75*
G02*
X-30052820Y12433800I147500J0D01*
G01*
G37*
G36*
G01*
X-30715000Y10582500D02*
X-30715000Y10927500D01*
G75*
G02*
X-30567500Y11075000I147500J0D01*
G01*
X-30272500Y11075000D01*
G75*
G02*
X-30125000Y10927500I0J-147500D01*
G01*
X-30125000Y10582500D01*
G75*
G02*
X-30272500Y10435000I-147500J0D01*
G01*
X-30567500Y10435000D01*
G75*
G02*
X-30715000Y10582500I0J147500D01*
G01*
G37*
G36*
G01*
X-29745000Y10582500D02*
X-29745000Y10927500D01*
G75*
G02*
X-29597500Y11075000I147500J0D01*
G01*
X-29302500Y11075000D01*
G75*
G02*
X-29155000Y10927500I0J-147500D01*
G01*
X-29155000Y10582500D01*
G75*
G02*
X-29302500Y10435000I-147500J0D01*
G01*
X-29597500Y10435000D01*
G75*
G02*
X-29745000Y10582500I0J147500D01*
G01*
G37*
G36*
G01*
X15715000Y-13837500D02*
X15715000Y-14182500D01*
G75*
G02*
X15567500Y-14330000I-147500J0D01*
G01*
X15272500Y-14330000D01*
G75*
G02*
X15125000Y-14182500I0J147500D01*
G01*
X15125000Y-13837500D01*
G75*
G02*
X15272500Y-13690000I147500J0D01*
G01*
X15567500Y-13690000D01*
G75*
G02*
X15715000Y-13837500I0J-147500D01*
G01*
G37*
G36*
G01*
X14745000Y-13837500D02*
X14745000Y-14182500D01*
G75*
G02*
X14597500Y-14330000I-147500J0D01*
G01*
X14302500Y-14330000D01*
G75*
G02*
X14155000Y-14182500I0J147500D01*
G01*
X14155000Y-13837500D01*
G75*
G02*
X14302500Y-13690000I147500J0D01*
G01*
X14597500Y-13690000D01*
G75*
G02*
X14745000Y-13837500I0J-147500D01*
G01*
G37*
G36*
G01*
X8562500Y-21205000D02*
X8217500Y-21205000D01*
G75*
G02*
X8070000Y-21057500I0J147500D01*
G01*
X8070000Y-20762500D01*
G75*
G02*
X8217500Y-20615000I147500J0D01*
G01*
X8562500Y-20615000D01*
G75*
G02*
X8710000Y-20762500I0J-147500D01*
G01*
X8710000Y-21057500D01*
G75*
G02*
X8562500Y-21205000I-147500J0D01*
G01*
G37*
G36*
G01*
X8562500Y-20235000D02*
X8217500Y-20235000D01*
G75*
G02*
X8070000Y-20087500I0J147500D01*
G01*
X8070000Y-19792500D01*
G75*
G02*
X8217500Y-19645000I147500J0D01*
G01*
X8562500Y-19645000D01*
G75*
G02*
X8710000Y-19792500I0J-147500D01*
G01*
X8710000Y-20087500D01*
G75*
G02*
X8562500Y-20235000I-147500J0D01*
G01*
G37*
G36*
G01*
X-30172500Y3145000D02*
X-29827500Y3145000D01*
G75*
G02*
X-29680000Y2997500I0J-147500D01*
G01*
X-29680000Y2702500D01*
G75*
G02*
X-29827500Y2555000I-147500J0D01*
G01*
X-30172500Y2555000D01*
G75*
G02*
X-30320000Y2702500I0J147500D01*
G01*
X-30320000Y2997500D01*
G75*
G02*
X-30172500Y3145000I147500J0D01*
G01*
G37*
G36*
G01*
X-30172500Y2175000D02*
X-29827500Y2175000D01*
G75*
G02*
X-29680000Y2027500I0J-147500D01*
G01*
X-29680000Y1732500D01*
G75*
G02*
X-29827500Y1585000I-147500J0D01*
G01*
X-30172500Y1585000D01*
G75*
G02*
X-30320000Y1732500I0J147500D01*
G01*
X-30320000Y2027500D01*
G75*
G02*
X-30172500Y2175000I147500J0D01*
G01*
G37*
G36*
G01*
X-5567220Y17112200D02*
X-5222220Y17112200D01*
G75*
G02*
X-5074720Y16964700I0J-147500D01*
G01*
X-5074720Y16669700D01*
G75*
G02*
X-5222220Y16522200I-147500J0D01*
G01*
X-5567220Y16522200D01*
G75*
G02*
X-5714720Y16669700I0J147500D01*
G01*
X-5714720Y16964700D01*
G75*
G02*
X-5567220Y17112200I147500J0D01*
G01*
G37*
G36*
G01*
X-5567220Y16142200D02*
X-5222220Y16142200D01*
G75*
G02*
X-5074720Y15994700I0J-147500D01*
G01*
X-5074720Y15699700D01*
G75*
G02*
X-5222220Y15552200I-147500J0D01*
G01*
X-5567220Y15552200D01*
G75*
G02*
X-5714720Y15699700I0J147500D01*
G01*
X-5714720Y15994700D01*
G75*
G02*
X-5567220Y16142200I147500J0D01*
G01*
G37*
G36*
G01*
X-29837220Y-518400D02*
X-30182220Y-518400D01*
G75*
G02*
X-30329720Y-370900I0J147500D01*
G01*
X-30329720Y-75900D01*
G75*
G02*
X-30182220Y71600I147500J0D01*
G01*
X-29837220Y71600D01*
G75*
G02*
X-29689720Y-75900I0J-147500D01*
G01*
X-29689720Y-370900D01*
G75*
G02*
X-29837220Y-518400I-147500J0D01*
G01*
G37*
G36*
G01*
X-29837220Y451600D02*
X-30182220Y451600D01*
G75*
G02*
X-30329720Y599100I0J147500D01*
G01*
X-30329720Y894100D01*
G75*
G02*
X-30182220Y1041600I147500J0D01*
G01*
X-29837220Y1041600D01*
G75*
G02*
X-29689720Y894100I0J-147500D01*
G01*
X-29689720Y599100D01*
G75*
G02*
X-29837220Y451600I-147500J0D01*
G01*
G37*
G36*
G01*
X132500Y-26275000D02*
X-212500Y-26275000D01*
G75*
G02*
X-360000Y-26127500I0J147500D01*
G01*
X-360000Y-25832500D01*
G75*
G02*
X-212500Y-25685000I147500J0D01*
G01*
X132500Y-25685000D01*
G75*
G02*
X280000Y-25832500I0J-147500D01*
G01*
X280000Y-26127500D01*
G75*
G02*
X132500Y-26275000I-147500J0D01*
G01*
G37*
G36*
G01*
X132500Y-25305000D02*
X-212500Y-25305000D01*
G75*
G02*
X-360000Y-25157500I0J147500D01*
G01*
X-360000Y-24862500D01*
G75*
G02*
X-212500Y-24715000I147500J0D01*
G01*
X132500Y-24715000D01*
G75*
G02*
X280000Y-24862500I0J-147500D01*
G01*
X280000Y-25157500D01*
G75*
G02*
X132500Y-25305000I-147500J0D01*
G01*
G37*
G36*
G01*
X-30665000Y8032500D02*
X-30665000Y8377500D01*
G75*
G02*
X-30517500Y8525000I147500J0D01*
G01*
X-30222500Y8525000D01*
G75*
G02*
X-30075000Y8377500I0J-147500D01*
G01*
X-30075000Y8032500D01*
G75*
G02*
X-30222500Y7885000I-147500J0D01*
G01*
X-30517500Y7885000D01*
G75*
G02*
X-30665000Y8032500I0J147500D01*
G01*
G37*
G36*
G01*
X-29695000Y8032500D02*
X-29695000Y8377500D01*
G75*
G02*
X-29547500Y8525000I147500J0D01*
G01*
X-29252500Y8525000D01*
G75*
G02*
X-29105000Y8377500I0J-147500D01*
G01*
X-29105000Y8032500D01*
G75*
G02*
X-29252500Y7885000I-147500J0D01*
G01*
X-29547500Y7885000D01*
G75*
G02*
X-29695000Y8032500I0J147500D01*
G01*
G37*
G36*
G01*
X-6662640Y-35529300D02*
X-6662640Y-35184300D01*
G75*
G02*
X-6515140Y-35036800I147500J0D01*
G01*
X-6220140Y-35036800D01*
G75*
G02*
X-6072640Y-35184300I0J-147500D01*
G01*
X-6072640Y-35529300D01*
G75*
G02*
X-6220140Y-35676800I-147500J0D01*
G01*
X-6515140Y-35676800D01*
G75*
G02*
X-6662640Y-35529300I0J147500D01*
G01*
G37*
G36*
G01*
X-5692640Y-35529300D02*
X-5692640Y-35184300D01*
G75*
G02*
X-5545140Y-35036800I147500J0D01*
G01*
X-5250140Y-35036800D01*
G75*
G02*
X-5102640Y-35184300I0J-147500D01*
G01*
X-5102640Y-35529300D01*
G75*
G02*
X-5250140Y-35676800I-147500J0D01*
G01*
X-5545140Y-35676800D01*
G75*
G02*
X-5692640Y-35529300I0J147500D01*
G01*
G37*
G36*
G01*
X-8017500Y-15425000D02*
X-8362500Y-15425000D01*
G75*
G02*
X-8510000Y-15277500I0J147500D01*
G01*
X-8510000Y-14982500D01*
G75*
G02*
X-8362500Y-14835000I147500J0D01*
G01*
X-8017500Y-14835000D01*
G75*
G02*
X-7870000Y-14982500I0J-147500D01*
G01*
X-7870000Y-15277500D01*
G75*
G02*
X-8017500Y-15425000I-147500J0D01*
G01*
G37*
G36*
G01*
X-8017500Y-14455000D02*
X-8362500Y-14455000D01*
G75*
G02*
X-8510000Y-14307500I0J147500D01*
G01*
X-8510000Y-14012500D01*
G75*
G02*
X-8362500Y-13865000I147500J0D01*
G01*
X-8017500Y-13865000D01*
G75*
G02*
X-7870000Y-14012500I0J-147500D01*
G01*
X-7870000Y-14307500D01*
G75*
G02*
X-8017500Y-14455000I-147500J0D01*
G01*
G37*
G36*
G01*
X-5772500Y3455000D02*
X-5427500Y3455000D01*
G75*
G02*
X-5280000Y3307500I0J-147500D01*
G01*
X-5280000Y3012500D01*
G75*
G02*
X-5427500Y2865000I-147500J0D01*
G01*
X-5772500Y2865000D01*
G75*
G02*
X-5920000Y3012500I0J147500D01*
G01*
X-5920000Y3307500D01*
G75*
G02*
X-5772500Y3455000I147500J0D01*
G01*
G37*
G36*
G01*
X-5772500Y2485000D02*
X-5427500Y2485000D01*
G75*
G02*
X-5280000Y2337500I0J-147500D01*
G01*
X-5280000Y2042500D01*
G75*
G02*
X-5427500Y1895000I-147500J0D01*
G01*
X-5772500Y1895000D01*
G75*
G02*
X-5920000Y2042500I0J147500D01*
G01*
X-5920000Y2337500D01*
G75*
G02*
X-5772500Y2485000I147500J0D01*
G01*
G37*
G36*
G01*
X40827500Y-7470000D02*
X41172500Y-7470000D01*
G75*
G02*
X41320000Y-7617500I0J-147500D01*
G01*
X41320000Y-7912500D01*
G75*
G02*
X41172500Y-8060000I-147500J0D01*
G01*
X40827500Y-8060000D01*
G75*
G02*
X40680000Y-7912500I0J147500D01*
G01*
X40680000Y-7617500D01*
G75*
G02*
X40827500Y-7470000I147500J0D01*
G01*
G37*
G36*
G01*
X40827500Y-8440000D02*
X41172500Y-8440000D01*
G75*
G02*
X41320000Y-8587500I0J-147500D01*
G01*
X41320000Y-8882500D01*
G75*
G02*
X41172500Y-9030000I-147500J0D01*
G01*
X40827500Y-9030000D01*
G75*
G02*
X40680000Y-8882500I0J147500D01*
G01*
X40680000Y-8587500D01*
G75*
G02*
X40827500Y-8440000I147500J0D01*
G01*
G37*
G36*
G01*
X-54780000Y6327500D02*
X-54780000Y6672500D01*
G75*
G02*
X-54632500Y6820000I147500J0D01*
G01*
X-54337500Y6820000D01*
G75*
G02*
X-54190000Y6672500I0J-147500D01*
G01*
X-54190000Y6327500D01*
G75*
G02*
X-54337500Y6180000I-147500J0D01*
G01*
X-54632500Y6180000D01*
G75*
G02*
X-54780000Y6327500I0J147500D01*
G01*
G37*
G36*
G01*
X-53810000Y6327500D02*
X-53810000Y6672500D01*
G75*
G02*
X-53662500Y6820000I147500J0D01*
G01*
X-53367500Y6820000D01*
G75*
G02*
X-53220000Y6672500I0J-147500D01*
G01*
X-53220000Y6327500D01*
G75*
G02*
X-53367500Y6180000I-147500J0D01*
G01*
X-53662500Y6180000D01*
G75*
G02*
X-53810000Y6327500I0J147500D01*
G01*
G37*
G36*
G01*
X-54780000Y7327500D02*
X-54780000Y7672500D01*
G75*
G02*
X-54632500Y7820000I147500J0D01*
G01*
X-54337500Y7820000D01*
G75*
G02*
X-54190000Y7672500I0J-147500D01*
G01*
X-54190000Y7327500D01*
G75*
G02*
X-54337500Y7180000I-147500J0D01*
G01*
X-54632500Y7180000D01*
G75*
G02*
X-54780000Y7327500I0J147500D01*
G01*
G37*
G36*
G01*
X-53810000Y7327500D02*
X-53810000Y7672500D01*
G75*
G02*
X-53662500Y7820000I147500J0D01*
G01*
X-53367500Y7820000D01*
G75*
G02*
X-53220000Y7672500I0J-147500D01*
G01*
X-53220000Y7327500D01*
G75*
G02*
X-53367500Y7180000I-147500J0D01*
G01*
X-53662500Y7180000D01*
G75*
G02*
X-53810000Y7327500I0J147500D01*
G01*
G37*
G36*
G01*
X-7360460Y13505400D02*
X-7015460Y13505400D01*
G75*
G02*
X-6867960Y13357900I0J-147500D01*
G01*
X-6867960Y13062900D01*
G75*
G02*
X-7015460Y12915400I-147500J0D01*
G01*
X-7360460Y12915400D01*
G75*
G02*
X-7507960Y13062900I0J147500D01*
G01*
X-7507960Y13357900D01*
G75*
G02*
X-7360460Y13505400I147500J0D01*
G01*
G37*
G36*
G01*
X-7360460Y12535400D02*
X-7015460Y12535400D01*
G75*
G02*
X-6867960Y12387900I0J-147500D01*
G01*
X-6867960Y12092900D01*
G75*
G02*
X-7015460Y11945400I-147500J0D01*
G01*
X-7360460Y11945400D01*
G75*
G02*
X-7507960Y12092900I0J147500D01*
G01*
X-7507960Y12387900D01*
G75*
G02*
X-7360460Y12535400I147500J0D01*
G01*
G37*
G36*
G01*
X46852500Y-7555000D02*
X46507500Y-7555000D01*
G75*
G02*
X46360000Y-7407500I0J147500D01*
G01*
X46360000Y-7112500D01*
G75*
G02*
X46507500Y-6965000I147500J0D01*
G01*
X46852500Y-6965000D01*
G75*
G02*
X47000000Y-7112500I0J-147500D01*
G01*
X47000000Y-7407500D01*
G75*
G02*
X46852500Y-7555000I-147500J0D01*
G01*
G37*
G36*
G01*
X46852500Y-6585000D02*
X46507500Y-6585000D01*
G75*
G02*
X46360000Y-6437500I0J147500D01*
G01*
X46360000Y-6142500D01*
G75*
G02*
X46507500Y-5995000I147500J0D01*
G01*
X46852500Y-5995000D01*
G75*
G02*
X47000000Y-6142500I0J-147500D01*
G01*
X47000000Y-6437500D01*
G75*
G02*
X46852500Y-6585000I-147500J0D01*
G01*
G37*
G36*
G01*
X41015000Y-1462500D02*
X41015000Y-1117500D01*
G75*
G02*
X41162500Y-970000I147500J0D01*
G01*
X41457500Y-970000D01*
G75*
G02*
X41605000Y-1117500I0J-147500D01*
G01*
X41605000Y-1462500D01*
G75*
G02*
X41457500Y-1610000I-147500J0D01*
G01*
X41162500Y-1610000D01*
G75*
G02*
X41015000Y-1462500I0J147500D01*
G01*
G37*
G36*
G01*
X41985000Y-1462500D02*
X41985000Y-1117500D01*
G75*
G02*
X42132500Y-970000I147500J0D01*
G01*
X42427500Y-970000D01*
G75*
G02*
X42575000Y-1117500I0J-147500D01*
G01*
X42575000Y-1462500D01*
G75*
G02*
X42427500Y-1610000I-147500J0D01*
G01*
X42132500Y-1610000D01*
G75*
G02*
X41985000Y-1462500I0J147500D01*
G01*
G37*
G36*
G01*
X25720000Y-2312500D02*
X25720000Y-1967500D01*
G75*
G02*
X25867500Y-1820000I147500J0D01*
G01*
X26162500Y-1820000D01*
G75*
G02*
X26310000Y-1967500I0J-147500D01*
G01*
X26310000Y-2312500D01*
G75*
G02*
X26162500Y-2460000I-147500J0D01*
G01*
X25867500Y-2460000D01*
G75*
G02*
X25720000Y-2312500I0J147500D01*
G01*
G37*
G36*
G01*
X26690000Y-2312500D02*
X26690000Y-1967500D01*
G75*
G02*
X26837500Y-1820000I147500J0D01*
G01*
X27132500Y-1820000D01*
G75*
G02*
X27280000Y-1967500I0J-147500D01*
G01*
X27280000Y-2312500D01*
G75*
G02*
X27132500Y-2460000I-147500J0D01*
G01*
X26837500Y-2460000D01*
G75*
G02*
X26690000Y-2312500I0J147500D01*
G01*
G37*
G36*
G01*
X18402500Y13695000D02*
X18057500Y13695000D01*
G75*
G02*
X17910000Y13842500I0J147500D01*
G01*
X17910000Y14137500D01*
G75*
G02*
X18057500Y14285000I147500J0D01*
G01*
X18402500Y14285000D01*
G75*
G02*
X18550000Y14137500I0J-147500D01*
G01*
X18550000Y13842500D01*
G75*
G02*
X18402500Y13695000I-147500J0D01*
G01*
G37*
G36*
G01*
X18402500Y14665000D02*
X18057500Y14665000D01*
G75*
G02*
X17910000Y14812500I0J147500D01*
G01*
X17910000Y15107500D01*
G75*
G02*
X18057500Y15255000I147500J0D01*
G01*
X18402500Y15255000D01*
G75*
G02*
X18550000Y15107500I0J-147500D01*
G01*
X18550000Y14812500D01*
G75*
G02*
X18402500Y14665000I-147500J0D01*
G01*
G37*
G36*
G01*
X25720000Y-6172500D02*
X25720000Y-5827500D01*
G75*
G02*
X25867500Y-5680000I147500J0D01*
G01*
X26162500Y-5680000D01*
G75*
G02*
X26310000Y-5827500I0J-147500D01*
G01*
X26310000Y-6172500D01*
G75*
G02*
X26162500Y-6320000I-147500J0D01*
G01*
X25867500Y-6320000D01*
G75*
G02*
X25720000Y-6172500I0J147500D01*
G01*
G37*
G36*
G01*
X26690000Y-6172500D02*
X26690000Y-5827500D01*
G75*
G02*
X26837500Y-5680000I147500J0D01*
G01*
X27132500Y-5680000D01*
G75*
G02*
X27280000Y-5827500I0J-147500D01*
G01*
X27280000Y-6172500D01*
G75*
G02*
X27132500Y-6320000I-147500J0D01*
G01*
X26837500Y-6320000D01*
G75*
G02*
X26690000Y-6172500I0J147500D01*
G01*
G37*
G36*
G01*
X26204020Y12147940D02*
X25859020Y12147940D01*
G75*
G02*
X25711520Y12295440I0J147500D01*
G01*
X25711520Y12590440D01*
G75*
G02*
X25859020Y12737940I147500J0D01*
G01*
X26204020Y12737940D01*
G75*
G02*
X26351520Y12590440I0J-147500D01*
G01*
X26351520Y12295440D01*
G75*
G02*
X26204020Y12147940I-147500J0D01*
G01*
G37*
G36*
G01*
X26204020Y13117940D02*
X25859020Y13117940D01*
G75*
G02*
X25711520Y13265440I0J147500D01*
G01*
X25711520Y13560440D01*
G75*
G02*
X25859020Y13707940I147500J0D01*
G01*
X26204020Y13707940D01*
G75*
G02*
X26351520Y13560440I0J-147500D01*
G01*
X26351520Y13265440D01*
G75*
G02*
X26204020Y13117940I-147500J0D01*
G01*
G37*
G36*
G01*
X-54780000Y8327500D02*
X-54780000Y8672500D01*
G75*
G02*
X-54632500Y8820000I147500J0D01*
G01*
X-54337500Y8820000D01*
G75*
G02*
X-54190000Y8672500I0J-147500D01*
G01*
X-54190000Y8327500D01*
G75*
G02*
X-54337500Y8180000I-147500J0D01*
G01*
X-54632500Y8180000D01*
G75*
G02*
X-54780000Y8327500I0J147500D01*
G01*
G37*
G36*
G01*
X-53810000Y8327500D02*
X-53810000Y8672500D01*
G75*
G02*
X-53662500Y8820000I147500J0D01*
G01*
X-53367500Y8820000D01*
G75*
G02*
X-53220000Y8672500I0J-147500D01*
G01*
X-53220000Y8327500D01*
G75*
G02*
X-53367500Y8180000I-147500J0D01*
G01*
X-53662500Y8180000D01*
G75*
G02*
X-53810000Y8327500I0J147500D01*
G01*
G37*
G36*
G01*
X11993520Y-3809780D02*
X11993520Y-3464780D01*
G75*
G02*
X12141020Y-3317280I147500J0D01*
G01*
X12436020Y-3317280D01*
G75*
G02*
X12583520Y-3464780I0J-147500D01*
G01*
X12583520Y-3809780D01*
G75*
G02*
X12436020Y-3957280I-147500J0D01*
G01*
X12141020Y-3957280D01*
G75*
G02*
X11993520Y-3809780I0J147500D01*
G01*
G37*
G36*
G01*
X12963520Y-3809780D02*
X12963520Y-3464780D01*
G75*
G02*
X13111020Y-3317280I147500J0D01*
G01*
X13406020Y-3317280D01*
G75*
G02*
X13553520Y-3464780I0J-147500D01*
G01*
X13553520Y-3809780D01*
G75*
G02*
X13406020Y-3957280I-147500J0D01*
G01*
X13111020Y-3957280D01*
G75*
G02*
X12963520Y-3809780I0J147500D01*
G01*
G37*
G36*
G01*
X-5440000Y9872500D02*
X-5440000Y9527500D01*
G75*
G02*
X-5587500Y9380000I-147500J0D01*
G01*
X-5882500Y9380000D01*
G75*
G02*
X-6030000Y9527500I0J147500D01*
G01*
X-6030000Y9872500D01*
G75*
G02*
X-5882500Y10020000I147500J0D01*
G01*
X-5587500Y10020000D01*
G75*
G02*
X-5440000Y9872500I0J-147500D01*
G01*
G37*
G36*
G01*
X-6410000Y9872500D02*
X-6410000Y9527500D01*
G75*
G02*
X-6557500Y9380000I-147500J0D01*
G01*
X-6852500Y9380000D01*
G75*
G02*
X-7000000Y9527500I0J147500D01*
G01*
X-7000000Y9872500D01*
G75*
G02*
X-6852500Y10020000I147500J0D01*
G01*
X-6557500Y10020000D01*
G75*
G02*
X-6410000Y9872500I0J-147500D01*
G01*
G37*
G36*
G01*
X19121040Y13655260D02*
X19121040Y14000260D01*
G75*
G02*
X19268540Y14147760I147500J0D01*
G01*
X19563540Y14147760D01*
G75*
G02*
X19711040Y14000260I0J-147500D01*
G01*
X19711040Y13655260D01*
G75*
G02*
X19563540Y13507760I-147500J0D01*
G01*
X19268540Y13507760D01*
G75*
G02*
X19121040Y13655260I0J147500D01*
G01*
G37*
G36*
G01*
X20091040Y13655260D02*
X20091040Y14000260D01*
G75*
G02*
X20238540Y14147760I147500J0D01*
G01*
X20533540Y14147760D01*
G75*
G02*
X20681040Y14000260I0J-147500D01*
G01*
X20681040Y13655260D01*
G75*
G02*
X20533540Y13507760I-147500J0D01*
G01*
X20238540Y13507760D01*
G75*
G02*
X20091040Y13655260I0J147500D01*
G01*
G37*
G36*
G01*
X26047920Y9537920D02*
X26392920Y9537920D01*
G75*
G02*
X26540420Y9390420I0J-147500D01*
G01*
X26540420Y9095420D01*
G75*
G02*
X26392920Y8947920I-147500J0D01*
G01*
X26047920Y8947920D01*
G75*
G02*
X25900420Y9095420I0J147500D01*
G01*
X25900420Y9390420D01*
G75*
G02*
X26047920Y9537920I147500J0D01*
G01*
G37*
G36*
G01*
X26047920Y8567920D02*
X26392920Y8567920D01*
G75*
G02*
X26540420Y8420420I0J-147500D01*
G01*
X26540420Y8125420D01*
G75*
G02*
X26392920Y7977920I-147500J0D01*
G01*
X26047920Y7977920D01*
G75*
G02*
X25900420Y8125420I0J147500D01*
G01*
X25900420Y8420420D01*
G75*
G02*
X26047920Y8567920I147500J0D01*
G01*
G37*
G36*
G01*
X13785000Y-10477500D02*
X13785000Y-10822500D01*
G75*
G02*
X13637500Y-10970000I-147500J0D01*
G01*
X13342500Y-10970000D01*
G75*
G02*
X13195000Y-10822500I0J147500D01*
G01*
X13195000Y-10477500D01*
G75*
G02*
X13342500Y-10330000I147500J0D01*
G01*
X13637500Y-10330000D01*
G75*
G02*
X13785000Y-10477500I0J-147500D01*
G01*
G37*
G36*
G01*
X12815000Y-10477500D02*
X12815000Y-10822500D01*
G75*
G02*
X12667500Y-10970000I-147500J0D01*
G01*
X12372500Y-10970000D01*
G75*
G02*
X12225000Y-10822500I0J147500D01*
G01*
X12225000Y-10477500D01*
G75*
G02*
X12372500Y-10330000I147500J0D01*
G01*
X12667500Y-10330000D01*
G75*
G02*
X12815000Y-10477500I0J-147500D01*
G01*
G37*
G36*
G01*
X-4372500Y10105000D02*
X-4027500Y10105000D01*
G75*
G02*
X-3880000Y9957500I0J-147500D01*
G01*
X-3880000Y9662500D01*
G75*
G02*
X-4027500Y9515000I-147500J0D01*
G01*
X-4372500Y9515000D01*
G75*
G02*
X-4520000Y9662500I0J147500D01*
G01*
X-4520000Y9957500D01*
G75*
G02*
X-4372500Y10105000I147500J0D01*
G01*
G37*
G36*
G01*
X-4372500Y9135000D02*
X-4027500Y9135000D01*
G75*
G02*
X-3880000Y8987500I0J-147500D01*
G01*
X-3880000Y8692500D01*
G75*
G02*
X-4027500Y8545000I-147500J0D01*
G01*
X-4372500Y8545000D01*
G75*
G02*
X-4520000Y8692500I0J147500D01*
G01*
X-4520000Y8987500D01*
G75*
G02*
X-4372500Y9135000I147500J0D01*
G01*
G37*
G36*
G01*
X30220000Y-7672500D02*
X30220000Y-7327500D01*
G75*
G02*
X30367500Y-7180000I147500J0D01*
G01*
X30662500Y-7180000D01*
G75*
G02*
X30810000Y-7327500I0J-147500D01*
G01*
X30810000Y-7672500D01*
G75*
G02*
X30662500Y-7820000I-147500J0D01*
G01*
X30367500Y-7820000D01*
G75*
G02*
X30220000Y-7672500I0J147500D01*
G01*
G37*
G36*
G01*
X31190000Y-7672500D02*
X31190000Y-7327500D01*
G75*
G02*
X31337500Y-7180000I147500J0D01*
G01*
X31632500Y-7180000D01*
G75*
G02*
X31780000Y-7327500I0J-147500D01*
G01*
X31780000Y-7672500D01*
G75*
G02*
X31632500Y-7820000I-147500J0D01*
G01*
X31337500Y-7820000D01*
G75*
G02*
X31190000Y-7672500I0J147500D01*
G01*
G37*
G36*
G01*
X29620000Y-20592500D02*
X29620000Y-20247500D01*
G75*
G02*
X29767500Y-20100000I147500J0D01*
G01*
X30062500Y-20100000D01*
G75*
G02*
X30210000Y-20247500I0J-147500D01*
G01*
X30210000Y-20592500D01*
G75*
G02*
X30062500Y-20740000I-147500J0D01*
G01*
X29767500Y-20740000D01*
G75*
G02*
X29620000Y-20592500I0J147500D01*
G01*
G37*
G36*
G01*
X30590000Y-20592500D02*
X30590000Y-20247500D01*
G75*
G02*
X30737500Y-20100000I147500J0D01*
G01*
X31032500Y-20100000D01*
G75*
G02*
X31180000Y-20247500I0J-147500D01*
G01*
X31180000Y-20592500D01*
G75*
G02*
X31032500Y-20740000I-147500J0D01*
G01*
X30737500Y-20740000D01*
G75*
G02*
X30590000Y-20592500I0J147500D01*
G01*
G37*
G36*
G01*
X15715000Y-14907500D02*
X15715000Y-15252500D01*
G75*
G02*
X15567500Y-15400000I-147500J0D01*
G01*
X15272500Y-15400000D01*
G75*
G02*
X15125000Y-15252500I0J147500D01*
G01*
X15125000Y-14907500D01*
G75*
G02*
X15272500Y-14760000I147500J0D01*
G01*
X15567500Y-14760000D01*
G75*
G02*
X15715000Y-14907500I0J-147500D01*
G01*
G37*
G36*
G01*
X14745000Y-14907500D02*
X14745000Y-15252500D01*
G75*
G02*
X14597500Y-15400000I-147500J0D01*
G01*
X14302500Y-15400000D01*
G75*
G02*
X14155000Y-15252500I0J147500D01*
G01*
X14155000Y-14907500D01*
G75*
G02*
X14302500Y-14760000I147500J0D01*
G01*
X14597500Y-14760000D01*
G75*
G02*
X14745000Y-14907500I0J-147500D01*
G01*
G37*
G36*
G01*
X7485000Y19157500D02*
X7485000Y19502500D01*
G75*
G02*
X7632500Y19650000I147500J0D01*
G01*
X7927500Y19650000D01*
G75*
G02*
X8075000Y19502500I0J-147500D01*
G01*
X8075000Y19157500D01*
G75*
G02*
X7927500Y19010000I-147500J0D01*
G01*
X7632500Y19010000D01*
G75*
G02*
X7485000Y19157500I0J147500D01*
G01*
G37*
G36*
G01*
X8455000Y19157500D02*
X8455000Y19502500D01*
G75*
G02*
X8602500Y19650000I147500J0D01*
G01*
X8897500Y19650000D01*
G75*
G02*
X9045000Y19502500I0J-147500D01*
G01*
X9045000Y19157500D01*
G75*
G02*
X8897500Y19010000I-147500J0D01*
G01*
X8602500Y19010000D01*
G75*
G02*
X8455000Y19157500I0J147500D01*
G01*
G37*
G36*
G01*
X-42808860Y24293540D02*
X-43153860Y24293540D01*
G75*
G02*
X-43301360Y24441040I0J147500D01*
G01*
X-43301360Y24736040D01*
G75*
G02*
X-43153860Y24883540I147500J0D01*
G01*
X-42808860Y24883540D01*
G75*
G02*
X-42661360Y24736040I0J-147500D01*
G01*
X-42661360Y24441040D01*
G75*
G02*
X-42808860Y24293540I-147500J0D01*
G01*
G37*
G36*
G01*
X-42808860Y25263540D02*
X-43153860Y25263540D01*
G75*
G02*
X-43301360Y25411040I0J147500D01*
G01*
X-43301360Y25706040D01*
G75*
G02*
X-43153860Y25853540I147500J0D01*
G01*
X-42808860Y25853540D01*
G75*
G02*
X-42661360Y25706040I0J-147500D01*
G01*
X-42661360Y25411040D01*
G75*
G02*
X-42808860Y25263540I-147500J0D01*
G01*
G37*
G36*
G01*
X-32143060Y11502200D02*
X-32143060Y11157200D01*
G75*
G02*
X-32290560Y11009700I-147500J0D01*
G01*
X-32585560Y11009700D01*
G75*
G02*
X-32733060Y11157200I0J147500D01*
G01*
X-32733060Y11502200D01*
G75*
G02*
X-32585560Y11649700I147500J0D01*
G01*
X-32290560Y11649700D01*
G75*
G02*
X-32143060Y11502200I0J-147500D01*
G01*
G37*
G36*
G01*
X-33113060Y11502200D02*
X-33113060Y11157200D01*
G75*
G02*
X-33260560Y11009700I-147500J0D01*
G01*
X-33555560Y11009700D01*
G75*
G02*
X-33703060Y11157200I0J147500D01*
G01*
X-33703060Y11502200D01*
G75*
G02*
X-33555560Y11649700I147500J0D01*
G01*
X-33260560Y11649700D01*
G75*
G02*
X-33113060Y11502200I0J-147500D01*
G01*
G37*
G36*
G01*
X-48614860Y25873720D02*
X-48269860Y25873720D01*
G75*
G02*
X-48122360Y25726220I0J-147500D01*
G01*
X-48122360Y25431220D01*
G75*
G02*
X-48269860Y25283720I-147500J0D01*
G01*
X-48614860Y25283720D01*
G75*
G02*
X-48762360Y25431220I0J147500D01*
G01*
X-48762360Y25726220D01*
G75*
G02*
X-48614860Y25873720I147500J0D01*
G01*
G37*
G36*
G01*
X-48614860Y24903720D02*
X-48269860Y24903720D01*
G75*
G02*
X-48122360Y24756220I0J-147500D01*
G01*
X-48122360Y24461220D01*
G75*
G02*
X-48269860Y24313720I-147500J0D01*
G01*
X-48614860Y24313720D01*
G75*
G02*
X-48762360Y24461220I0J147500D01*
G01*
X-48762360Y24756220D01*
G75*
G02*
X-48614860Y24903720I147500J0D01*
G01*
G37*
G36*
G01*
X-36540000Y15857500D02*
X-36540000Y16202500D01*
G75*
G02*
X-36392500Y16350000I147500J0D01*
G01*
X-36097500Y16350000D01*
G75*
G02*
X-35950000Y16202500I0J-147500D01*
G01*
X-35950000Y15857500D01*
G75*
G02*
X-36097500Y15710000I-147500J0D01*
G01*
X-36392500Y15710000D01*
G75*
G02*
X-36540000Y15857500I0J147500D01*
G01*
G37*
G36*
G01*
X-35570000Y15857500D02*
X-35570000Y16202500D01*
G75*
G02*
X-35422500Y16350000I147500J0D01*
G01*
X-35127500Y16350000D01*
G75*
G02*
X-34980000Y16202500I0J-147500D01*
G01*
X-34980000Y15857500D01*
G75*
G02*
X-35127500Y15710000I-147500J0D01*
G01*
X-35422500Y15710000D01*
G75*
G02*
X-35570000Y15857500I0J147500D01*
G01*
G37*
G36*
G01*
X4837500Y-20185000D02*
X5182500Y-20185000D01*
G75*
G02*
X5330000Y-20332500I0J-147500D01*
G01*
X5330000Y-20627500D01*
G75*
G02*
X5182500Y-20775000I-147500J0D01*
G01*
X4837500Y-20775000D01*
G75*
G02*
X4690000Y-20627500I0J147500D01*
G01*
X4690000Y-20332500D01*
G75*
G02*
X4837500Y-20185000I147500J0D01*
G01*
G37*
G36*
G01*
X4837500Y-21155000D02*
X5182500Y-21155000D01*
G75*
G02*
X5330000Y-21302500I0J-147500D01*
G01*
X5330000Y-21597500D01*
G75*
G02*
X5182500Y-21745000I-147500J0D01*
G01*
X4837500Y-21745000D01*
G75*
G02*
X4690000Y-21597500I0J147500D01*
G01*
X4690000Y-21302500D01*
G75*
G02*
X4837500Y-21155000I147500J0D01*
G01*
G37*
G36*
G01*
X27679700Y-21185360D02*
X27334700Y-21185360D01*
G75*
G02*
X27187200Y-21037860I0J147500D01*
G01*
X27187200Y-20742860D01*
G75*
G02*
X27334700Y-20595360I147500J0D01*
G01*
X27679700Y-20595360D01*
G75*
G02*
X27827200Y-20742860I0J-147500D01*
G01*
X27827200Y-21037860D01*
G75*
G02*
X27679700Y-21185360I-147500J0D01*
G01*
G37*
G36*
G01*
X27679700Y-20215360D02*
X27334700Y-20215360D01*
G75*
G02*
X27187200Y-20067860I0J147500D01*
G01*
X27187200Y-19772860D01*
G75*
G02*
X27334700Y-19625360I147500J0D01*
G01*
X27679700Y-19625360D01*
G75*
G02*
X27827200Y-19772860I0J-147500D01*
G01*
X27827200Y-20067860D01*
G75*
G02*
X27679700Y-20215360I-147500J0D01*
G01*
G37*
G36*
G01*
X9527980Y16562600D02*
X9527980Y16217600D01*
G75*
G02*
X9380480Y16070100I-147500J0D01*
G01*
X9085480Y16070100D01*
G75*
G02*
X8937980Y16217600I0J147500D01*
G01*
X8937980Y16562600D01*
G75*
G02*
X9085480Y16710100I147500J0D01*
G01*
X9380480Y16710100D01*
G75*
G02*
X9527980Y16562600I0J-147500D01*
G01*
G37*
G36*
G01*
X8557980Y16562600D02*
X8557980Y16217600D01*
G75*
G02*
X8410480Y16070100I-147500J0D01*
G01*
X8115480Y16070100D01*
G75*
G02*
X7967980Y16217600I0J147500D01*
G01*
X7967980Y16562600D01*
G75*
G02*
X8115480Y16710100I147500J0D01*
G01*
X8410480Y16710100D01*
G75*
G02*
X8557980Y16562600I0J-147500D01*
G01*
G37*
G36*
G01*
X-54780000Y9327500D02*
X-54780000Y9672500D01*
G75*
G02*
X-54632500Y9820000I147500J0D01*
G01*
X-54337500Y9820000D01*
G75*
G02*
X-54190000Y9672500I0J-147500D01*
G01*
X-54190000Y9327500D01*
G75*
G02*
X-54337500Y9180000I-147500J0D01*
G01*
X-54632500Y9180000D01*
G75*
G02*
X-54780000Y9327500I0J147500D01*
G01*
G37*
G36*
G01*
X-53810000Y9327500D02*
X-53810000Y9672500D01*
G75*
G02*
X-53662500Y9820000I147500J0D01*
G01*
X-53367500Y9820000D01*
G75*
G02*
X-53220000Y9672500I0J-147500D01*
G01*
X-53220000Y9327500D01*
G75*
G02*
X-53367500Y9180000I-147500J0D01*
G01*
X-53662500Y9180000D01*
G75*
G02*
X-53810000Y9327500I0J147500D01*
G01*
G37*
G36*
G01*
X26134700Y-19625360D02*
X26479700Y-19625360D01*
G75*
G02*
X26627200Y-19772860I0J-147500D01*
G01*
X26627200Y-20067860D01*
G75*
G02*
X26479700Y-20215360I-147500J0D01*
G01*
X26134700Y-20215360D01*
G75*
G02*
X25987200Y-20067860I0J147500D01*
G01*
X25987200Y-19772860D01*
G75*
G02*
X26134700Y-19625360I147500J0D01*
G01*
G37*
G36*
G01*
X26134700Y-20595360D02*
X26479700Y-20595360D01*
G75*
G02*
X26627200Y-20742860I0J-147500D01*
G01*
X26627200Y-21037860D01*
G75*
G02*
X26479700Y-21185360I-147500J0D01*
G01*
X26134700Y-21185360D01*
G75*
G02*
X25987200Y-21037860I0J147500D01*
G01*
X25987200Y-20742860D01*
G75*
G02*
X26134700Y-20595360I147500J0D01*
G01*
G37*
G36*
G01*
X7967980Y15017600D02*
X7967980Y15362600D01*
G75*
G02*
X8115480Y15510100I147500J0D01*
G01*
X8410480Y15510100D01*
G75*
G02*
X8557980Y15362600I0J-147500D01*
G01*
X8557980Y15017600D01*
G75*
G02*
X8410480Y14870100I-147500J0D01*
G01*
X8115480Y14870100D01*
G75*
G02*
X7967980Y15017600I0J147500D01*
G01*
G37*
G36*
G01*
X8937980Y15017600D02*
X8937980Y15362600D01*
G75*
G02*
X9085480Y15510100I147500J0D01*
G01*
X9380480Y15510100D01*
G75*
G02*
X9527980Y15362600I0J-147500D01*
G01*
X9527980Y15017600D01*
G75*
G02*
X9380480Y14870100I-147500J0D01*
G01*
X9085480Y14870100D01*
G75*
G02*
X8937980Y15017600I0J147500D01*
G01*
G37*
G36*
G01*
X-9342500Y-43680000D02*
X-8997500Y-43680000D01*
G75*
G02*
X-8850000Y-43827500I0J-147500D01*
G01*
X-8850000Y-44122500D01*
G75*
G02*
X-8997500Y-44270000I-147500J0D01*
G01*
X-9342500Y-44270000D01*
G75*
G02*
X-9490000Y-44122500I0J147500D01*
G01*
X-9490000Y-43827500D01*
G75*
G02*
X-9342500Y-43680000I147500J0D01*
G01*
G37*
G36*
G01*
X-9342500Y-44650000D02*
X-8997500Y-44650000D01*
G75*
G02*
X-8850000Y-44797500I0J-147500D01*
G01*
X-8850000Y-45092500D01*
G75*
G02*
X-8997500Y-45240000I-147500J0D01*
G01*
X-9342500Y-45240000D01*
G75*
G02*
X-9490000Y-45092500I0J147500D01*
G01*
X-9490000Y-44797500D01*
G75*
G02*
X-9342500Y-44650000I147500J0D01*
G01*
G37*
G36*
G01*
X-54780000Y10327500D02*
X-54780000Y10672500D01*
G75*
G02*
X-54632500Y10820000I147500J0D01*
G01*
X-54337500Y10820000D01*
G75*
G02*
X-54190000Y10672500I0J-147500D01*
G01*
X-54190000Y10327500D01*
G75*
G02*
X-54337500Y10180000I-147500J0D01*
G01*
X-54632500Y10180000D01*
G75*
G02*
X-54780000Y10327500I0J147500D01*
G01*
G37*
G36*
G01*
X-53810000Y10327500D02*
X-53810000Y10672500D01*
G75*
G02*
X-53662500Y10820000I147500J0D01*
G01*
X-53367500Y10820000D01*
G75*
G02*
X-53220000Y10672500I0J-147500D01*
G01*
X-53220000Y10327500D01*
G75*
G02*
X-53367500Y10180000I-147500J0D01*
G01*
X-53662500Y10180000D01*
G75*
G02*
X-53810000Y10327500I0J147500D01*
G01*
G37*
G36*
G01*
X-3740000Y-36482500D02*
X-3740000Y-36137500D01*
G75*
G02*
X-3592500Y-35990000I147500J0D01*
G01*
X-3297500Y-35990000D01*
G75*
G02*
X-3150000Y-36137500I0J-147500D01*
G01*
X-3150000Y-36482500D01*
G75*
G02*
X-3297500Y-36630000I-147500J0D01*
G01*
X-3592500Y-36630000D01*
G75*
G02*
X-3740000Y-36482500I0J147500D01*
G01*
G37*
G36*
G01*
X-2770000Y-36482500D02*
X-2770000Y-36137500D01*
G75*
G02*
X-2622500Y-35990000I147500J0D01*
G01*
X-2327500Y-35990000D01*
G75*
G02*
X-2180000Y-36137500I0J-147500D01*
G01*
X-2180000Y-36482500D01*
G75*
G02*
X-2327500Y-36630000I-147500J0D01*
G01*
X-2622500Y-36630000D01*
G75*
G02*
X-2770000Y-36482500I0J147500D01*
G01*
G37*
G36*
G01*
X2677380Y-35483580D02*
X3022380Y-35483580D01*
G75*
G02*
X3169880Y-35631080I0J-147500D01*
G01*
X3169880Y-35926080D01*
G75*
G02*
X3022380Y-36073580I-147500J0D01*
G01*
X2677380Y-36073580D01*
G75*
G02*
X2529880Y-35926080I0J147500D01*
G01*
X2529880Y-35631080D01*
G75*
G02*
X2677380Y-35483580I147500J0D01*
G01*
G37*
G36*
G01*
X2677380Y-36453580D02*
X3022380Y-36453580D01*
G75*
G02*
X3169880Y-36601080I0J-147500D01*
G01*
X3169880Y-36896080D01*
G75*
G02*
X3022380Y-37043580I-147500J0D01*
G01*
X2677380Y-37043580D01*
G75*
G02*
X2529880Y-36896080I0J147500D01*
G01*
X2529880Y-36601080D01*
G75*
G02*
X2677380Y-36453580I147500J0D01*
G01*
G37*
G36*
G01*
X1842500Y-4810000D02*
X1497500Y-4810000D01*
G75*
G02*
X1350000Y-4662500I0J147500D01*
G01*
X1350000Y-4367500D01*
G75*
G02*
X1497500Y-4220000I147500J0D01*
G01*
X1842500Y-4220000D01*
G75*
G02*
X1990000Y-4367500I0J-147500D01*
G01*
X1990000Y-4662500D01*
G75*
G02*
X1842500Y-4810000I-147500J0D01*
G01*
G37*
G36*
G01*
X1842500Y-3840000D02*
X1497500Y-3840000D01*
G75*
G02*
X1350000Y-3692500I0J147500D01*
G01*
X1350000Y-3397500D01*
G75*
G02*
X1497500Y-3250000I147500J0D01*
G01*
X1842500Y-3250000D01*
G75*
G02*
X1990000Y-3397500I0J-147500D01*
G01*
X1990000Y-3692500D01*
G75*
G02*
X1842500Y-3840000I-147500J0D01*
G01*
G37*
G36*
G01*
X-3417500Y-4575000D02*
X-3762500Y-4575000D01*
G75*
G02*
X-3910000Y-4427500I0J147500D01*
G01*
X-3910000Y-4132500D01*
G75*
G02*
X-3762500Y-3985000I147500J0D01*
G01*
X-3417500Y-3985000D01*
G75*
G02*
X-3270000Y-4132500I0J-147500D01*
G01*
X-3270000Y-4427500D01*
G75*
G02*
X-3417500Y-4575000I-147500J0D01*
G01*
G37*
G36*
G01*
X-3417500Y-3605000D02*
X-3762500Y-3605000D01*
G75*
G02*
X-3910000Y-3457500I0J147500D01*
G01*
X-3910000Y-3162500D01*
G75*
G02*
X-3762500Y-3015000I147500J0D01*
G01*
X-3417500Y-3015000D01*
G75*
G02*
X-3270000Y-3162500I0J-147500D01*
G01*
X-3270000Y-3457500D01*
G75*
G02*
X-3417500Y-3605000I-147500J0D01*
G01*
G37*
G36*
G01*
X-29707820Y15476000D02*
X-30052820Y15476000D01*
G75*
G02*
X-30200320Y15623500I0J147500D01*
G01*
X-30200320Y15918500D01*
G75*
G02*
X-30052820Y16066000I147500J0D01*
G01*
X-29707820Y16066000D01*
G75*
G02*
X-29560320Y15918500I0J-147500D01*
G01*
X-29560320Y15623500D01*
G75*
G02*
X-29707820Y15476000I-147500J0D01*
G01*
G37*
G36*
G01*
X-29707820Y16446000D02*
X-30052820Y16446000D01*
G75*
G02*
X-30200320Y16593500I0J147500D01*
G01*
X-30200320Y16888500D01*
G75*
G02*
X-30052820Y17036000I147500J0D01*
G01*
X-29707820Y17036000D01*
G75*
G02*
X-29560320Y16888500I0J-147500D01*
G01*
X-29560320Y16593500D01*
G75*
G02*
X-29707820Y16446000I-147500J0D01*
G01*
G37*
G36*
G01*
X1022500Y-9285000D02*
X677500Y-9285000D01*
G75*
G02*
X530000Y-9137500I0J147500D01*
G01*
X530000Y-8842500D01*
G75*
G02*
X677500Y-8695000I147500J0D01*
G01*
X1022500Y-8695000D01*
G75*
G02*
X1170000Y-8842500I0J-147500D01*
G01*
X1170000Y-9137500D01*
G75*
G02*
X1022500Y-9285000I-147500J0D01*
G01*
G37*
G36*
G01*
X1022500Y-8315000D02*
X677500Y-8315000D01*
G75*
G02*
X530000Y-8167500I0J147500D01*
G01*
X530000Y-7872500D01*
G75*
G02*
X677500Y-7725000I147500J0D01*
G01*
X1022500Y-7725000D01*
G75*
G02*
X1170000Y-7872500I0J-147500D01*
G01*
X1170000Y-8167500D01*
G75*
G02*
X1022500Y-8315000I-147500J0D01*
G01*
G37*
G36*
G01*
X29880000Y-1967500D02*
X29880000Y-2312500D01*
G75*
G02*
X29732500Y-2460000I-147500J0D01*
G01*
X29437500Y-2460000D01*
G75*
G02*
X29290000Y-2312500I0J147500D01*
G01*
X29290000Y-1967500D01*
G75*
G02*
X29437500Y-1820000I147500J0D01*
G01*
X29732500Y-1820000D01*
G75*
G02*
X29880000Y-1967500I0J-147500D01*
G01*
G37*
G36*
G01*
X28910000Y-1967500D02*
X28910000Y-2312500D01*
G75*
G02*
X28762500Y-2460000I-147500J0D01*
G01*
X28467500Y-2460000D01*
G75*
G02*
X28320000Y-2312500I0J147500D01*
G01*
X28320000Y-1967500D01*
G75*
G02*
X28467500Y-1820000I147500J0D01*
G01*
X28762500Y-1820000D01*
G75*
G02*
X28910000Y-1967500I0J-147500D01*
G01*
G37*
G36*
G01*
X30247500Y-18740000D02*
X29902500Y-18740000D01*
G75*
G02*
X29755000Y-18592500I0J147500D01*
G01*
X29755000Y-18297500D01*
G75*
G02*
X29902500Y-18150000I147500J0D01*
G01*
X30247500Y-18150000D01*
G75*
G02*
X30395000Y-18297500I0J-147500D01*
G01*
X30395000Y-18592500D01*
G75*
G02*
X30247500Y-18740000I-147500J0D01*
G01*
G37*
G36*
G01*
X30247500Y-17770000D02*
X29902500Y-17770000D01*
G75*
G02*
X29755000Y-17622500I0J147500D01*
G01*
X29755000Y-17327500D01*
G75*
G02*
X29902500Y-17180000I147500J0D01*
G01*
X30247500Y-17180000D01*
G75*
G02*
X30395000Y-17327500I0J-147500D01*
G01*
X30395000Y-17622500D01*
G75*
G02*
X30247500Y-17770000I-147500J0D01*
G01*
G37*
G36*
G01*
X7027980Y19102500D02*
X7027980Y18757500D01*
G75*
G02*
X6880480Y18610000I-147500J0D01*
G01*
X6585480Y18610000D01*
G75*
G02*
X6437980Y18757500I0J147500D01*
G01*
X6437980Y19102500D01*
G75*
G02*
X6585480Y19250000I147500J0D01*
G01*
X6880480Y19250000D01*
G75*
G02*
X7027980Y19102500I0J-147500D01*
G01*
G37*
G36*
G01*
X6057980Y19102500D02*
X6057980Y18757500D01*
G75*
G02*
X5910480Y18610000I-147500J0D01*
G01*
X5615480Y18610000D01*
G75*
G02*
X5467980Y18757500I0J147500D01*
G01*
X5467980Y19102500D01*
G75*
G02*
X5615480Y19250000I147500J0D01*
G01*
X5910480Y19250000D01*
G75*
G02*
X6057980Y19102500I0J-147500D01*
G01*
G37*
G36*
G01*
X-48988240Y39706260D02*
X-48988240Y39361260D01*
G75*
G02*
X-49135740Y39213760I-147500J0D01*
G01*
X-49430740Y39213760D01*
G75*
G02*
X-49578240Y39361260I0J147500D01*
G01*
X-49578240Y39706260D01*
G75*
G02*
X-49430740Y39853760I147500J0D01*
G01*
X-49135740Y39853760D01*
G75*
G02*
X-48988240Y39706260I0J-147500D01*
G01*
G37*
G36*
G01*
X-49958240Y39706260D02*
X-49958240Y39361260D01*
G75*
G02*
X-50105740Y39213760I-147500J0D01*
G01*
X-50400740Y39213760D01*
G75*
G02*
X-50548240Y39361260I0J147500D01*
G01*
X-50548240Y39706260D01*
G75*
G02*
X-50400740Y39853760I147500J0D01*
G01*
X-50105740Y39853760D01*
G75*
G02*
X-49958240Y39706260I0J-147500D01*
G01*
G37*
G36*
G01*
X-36346660Y33782980D02*
X-36346660Y33437980D01*
G75*
G02*
X-36494160Y33290480I-147500J0D01*
G01*
X-36789160Y33290480D01*
G75*
G02*
X-36936660Y33437980I0J147500D01*
G01*
X-36936660Y33782980D01*
G75*
G02*
X-36789160Y33930480I147500J0D01*
G01*
X-36494160Y33930480D01*
G75*
G02*
X-36346660Y33782980I0J-147500D01*
G01*
G37*
G36*
G01*
X-37316660Y33782980D02*
X-37316660Y33437980D01*
G75*
G02*
X-37464160Y33290480I-147500J0D01*
G01*
X-37759160Y33290480D01*
G75*
G02*
X-37906660Y33437980I0J147500D01*
G01*
X-37906660Y33782980D01*
G75*
G02*
X-37759160Y33930480I147500J0D01*
G01*
X-37464160Y33930480D01*
G75*
G02*
X-37316660Y33782980I0J-147500D01*
G01*
G37*
G36*
G01*
X-41221360Y25681100D02*
X-41221360Y26026100D01*
G75*
G02*
X-41073860Y26173600I147500J0D01*
G01*
X-40778860Y26173600D01*
G75*
G02*
X-40631360Y26026100I0J-147500D01*
G01*
X-40631360Y25681100D01*
G75*
G02*
X-40778860Y25533600I-147500J0D01*
G01*
X-41073860Y25533600D01*
G75*
G02*
X-41221360Y25681100I0J147500D01*
G01*
G37*
G36*
G01*
X-40251360Y25681100D02*
X-40251360Y26026100D01*
G75*
G02*
X-40103860Y26173600I147500J0D01*
G01*
X-39808860Y26173600D01*
G75*
G02*
X-39661360Y26026100I0J-147500D01*
G01*
X-39661360Y25681100D01*
G75*
G02*
X-39808860Y25533600I-147500J0D01*
G01*
X-40103860Y25533600D01*
G75*
G02*
X-40251360Y25681100I0J147500D01*
G01*
G37*
G36*
G01*
X-8587500Y-12015000D02*
X-8932500Y-12015000D01*
G75*
G02*
X-9080000Y-11867500I0J147500D01*
G01*
X-9080000Y-11572500D01*
G75*
G02*
X-8932500Y-11425000I147500J0D01*
G01*
X-8587500Y-11425000D01*
G75*
G02*
X-8440000Y-11572500I0J-147500D01*
G01*
X-8440000Y-11867500D01*
G75*
G02*
X-8587500Y-12015000I-147500J0D01*
G01*
G37*
G36*
G01*
X-8587500Y-11045000D02*
X-8932500Y-11045000D01*
G75*
G02*
X-9080000Y-10897500I0J147500D01*
G01*
X-9080000Y-10602500D01*
G75*
G02*
X-8932500Y-10455000I147500J0D01*
G01*
X-8587500Y-10455000D01*
G75*
G02*
X-8440000Y-10602500I0J-147500D01*
G01*
X-8440000Y-10897500D01*
G75*
G02*
X-8587500Y-11045000I-147500J0D01*
G01*
G37*
G36*
G01*
X-11495000Y-25387500D02*
X-11495000Y-25732500D01*
G75*
G02*
X-11642500Y-25880000I-147500J0D01*
G01*
X-11937500Y-25880000D01*
G75*
G02*
X-12085000Y-25732500I0J147500D01*
G01*
X-12085000Y-25387500D01*
G75*
G02*
X-11937500Y-25240000I147500J0D01*
G01*
X-11642500Y-25240000D01*
G75*
G02*
X-11495000Y-25387500I0J-147500D01*
G01*
G37*
G36*
G01*
X-12465000Y-25387500D02*
X-12465000Y-25732500D01*
G75*
G02*
X-12612500Y-25880000I-147500J0D01*
G01*
X-12907500Y-25880000D01*
G75*
G02*
X-13055000Y-25732500I0J147500D01*
G01*
X-13055000Y-25387500D01*
G75*
G02*
X-12907500Y-25240000I147500J0D01*
G01*
X-12612500Y-25240000D01*
G75*
G02*
X-12465000Y-25387500I0J-147500D01*
G01*
G37*
G36*
G01*
X28879700Y-21185360D02*
X28534700Y-21185360D01*
G75*
G02*
X28387200Y-21037860I0J147500D01*
G01*
X28387200Y-20742860D01*
G75*
G02*
X28534700Y-20595360I147500J0D01*
G01*
X28879700Y-20595360D01*
G75*
G02*
X29027200Y-20742860I0J-147500D01*
G01*
X29027200Y-21037860D01*
G75*
G02*
X28879700Y-21185360I-147500J0D01*
G01*
G37*
G36*
G01*
X28879700Y-20215360D02*
X28534700Y-20215360D01*
G75*
G02*
X28387200Y-20067860I0J147500D01*
G01*
X28387200Y-19772860D01*
G75*
G02*
X28534700Y-19625360I147500J0D01*
G01*
X28879700Y-19625360D01*
G75*
G02*
X29027200Y-19772860I0J-147500D01*
G01*
X29027200Y-20067860D01*
G75*
G02*
X28879700Y-20215360I-147500J0D01*
G01*
G37*
G36*
G01*
X9527980Y17762600D02*
X9527980Y17417600D01*
G75*
G02*
X9380480Y17270100I-147500J0D01*
G01*
X9085480Y17270100D01*
G75*
G02*
X8937980Y17417600I0J147500D01*
G01*
X8937980Y17762600D01*
G75*
G02*
X9085480Y17910100I147500J0D01*
G01*
X9380480Y17910100D01*
G75*
G02*
X9527980Y17762600I0J-147500D01*
G01*
G37*
G36*
G01*
X8557980Y17762600D02*
X8557980Y17417600D01*
G75*
G02*
X8410480Y17270100I-147500J0D01*
G01*
X8115480Y17270100D01*
G75*
G02*
X7967980Y17417600I0J147500D01*
G01*
X7967980Y17762600D01*
G75*
G02*
X8115480Y17910100I147500J0D01*
G01*
X8410480Y17910100D01*
G75*
G02*
X8557980Y17762600I0J-147500D01*
G01*
G37*
G36*
G01*
X-11052500Y-34565000D02*
X-10707500Y-34565000D01*
G75*
G02*
X-10560000Y-34712500I0J-147500D01*
G01*
X-10560000Y-35007500D01*
G75*
G02*
X-10707500Y-35155000I-147500J0D01*
G01*
X-11052500Y-35155000D01*
G75*
G02*
X-11200000Y-35007500I0J147500D01*
G01*
X-11200000Y-34712500D01*
G75*
G02*
X-11052500Y-34565000I147500J0D01*
G01*
G37*
G36*
G01*
X-11052500Y-35535000D02*
X-10707500Y-35535000D01*
G75*
G02*
X-10560000Y-35682500I0J-147500D01*
G01*
X-10560000Y-35977500D01*
G75*
G02*
X-10707500Y-36125000I-147500J0D01*
G01*
X-11052500Y-36125000D01*
G75*
G02*
X-11200000Y-35977500I0J147500D01*
G01*
X-11200000Y-35682500D01*
G75*
G02*
X-11052500Y-35535000I147500J0D01*
G01*
G37*
G36*
G01*
X-8962500Y-8415000D02*
X-8617500Y-8415000D01*
G75*
G02*
X-8470000Y-8562500I0J-147500D01*
G01*
X-8470000Y-8857500D01*
G75*
G02*
X-8617500Y-9005000I-147500J0D01*
G01*
X-8962500Y-9005000D01*
G75*
G02*
X-9110000Y-8857500I0J147500D01*
G01*
X-9110000Y-8562500D01*
G75*
G02*
X-8962500Y-8415000I147500J0D01*
G01*
G37*
G36*
G01*
X-8962500Y-9385000D02*
X-8617500Y-9385000D01*
G75*
G02*
X-8470000Y-9532500I0J-147500D01*
G01*
X-8470000Y-9827500D01*
G75*
G02*
X-8617500Y-9975000I-147500J0D01*
G01*
X-8962500Y-9975000D01*
G75*
G02*
X-9110000Y-9827500I0J147500D01*
G01*
X-9110000Y-9532500D01*
G75*
G02*
X-8962500Y-9385000I147500J0D01*
G01*
G37*
G36*
G01*
X27447500Y22820000D02*
X27792500Y22820000D01*
G75*
G02*
X27940000Y22672500I0J-147500D01*
G01*
X27940000Y22377500D01*
G75*
G02*
X27792500Y22230000I-147500J0D01*
G01*
X27447500Y22230000D01*
G75*
G02*
X27300000Y22377500I0J147500D01*
G01*
X27300000Y22672500D01*
G75*
G02*
X27447500Y22820000I147500J0D01*
G01*
G37*
G36*
G01*
X27447500Y21850000D02*
X27792500Y21850000D01*
G75*
G02*
X27940000Y21702500I0J-147500D01*
G01*
X27940000Y21407500D01*
G75*
G02*
X27792500Y21260000I-147500J0D01*
G01*
X27447500Y21260000D01*
G75*
G02*
X27300000Y21407500I0J147500D01*
G01*
X27300000Y21702500D01*
G75*
G02*
X27447500Y21850000I147500J0D01*
G01*
G37*
G36*
G01*
X-2220000Y3672500D02*
X-2220000Y3327500D01*
G75*
G02*
X-2367500Y3180000I-147500J0D01*
G01*
X-2662500Y3180000D01*
G75*
G02*
X-2810000Y3327500I0J147500D01*
G01*
X-2810000Y3672500D01*
G75*
G02*
X-2662500Y3820000I147500J0D01*
G01*
X-2367500Y3820000D01*
G75*
G02*
X-2220000Y3672500I0J-147500D01*
G01*
G37*
G36*
G01*
X-3190000Y3672500D02*
X-3190000Y3327500D01*
G75*
G02*
X-3337500Y3180000I-147500J0D01*
G01*
X-3632500Y3180000D01*
G75*
G02*
X-3780000Y3327500I0J147500D01*
G01*
X-3780000Y3672500D01*
G75*
G02*
X-3632500Y3820000I147500J0D01*
G01*
X-3337500Y3820000D01*
G75*
G02*
X-3190000Y3672500I0J-147500D01*
G01*
G37*
G36*
G01*
X-11002500Y-21945000D02*
X-10657500Y-21945000D01*
G75*
G02*
X-10510000Y-22092500I0J-147500D01*
G01*
X-10510000Y-22387500D01*
G75*
G02*
X-10657500Y-22535000I-147500J0D01*
G01*
X-11002500Y-22535000D01*
G75*
G02*
X-11150000Y-22387500I0J147500D01*
G01*
X-11150000Y-22092500D01*
G75*
G02*
X-11002500Y-21945000I147500J0D01*
G01*
G37*
G36*
G01*
X-11002500Y-22915000D02*
X-10657500Y-22915000D01*
G75*
G02*
X-10510000Y-23062500I0J-147500D01*
G01*
X-10510000Y-23357500D01*
G75*
G02*
X-10657500Y-23505000I-147500J0D01*
G01*
X-11002500Y-23505000D01*
G75*
G02*
X-11150000Y-23357500I0J147500D01*
G01*
X-11150000Y-23062500D01*
G75*
G02*
X-11002500Y-22915000I147500J0D01*
G01*
G37*
G36*
G01*
X-16042500Y-22005000D02*
X-15697500Y-22005000D01*
G75*
G02*
X-15550000Y-22152500I0J-147500D01*
G01*
X-15550000Y-22447500D01*
G75*
G02*
X-15697500Y-22595000I-147500J0D01*
G01*
X-16042500Y-22595000D01*
G75*
G02*
X-16190000Y-22447500I0J147500D01*
G01*
X-16190000Y-22152500D01*
G75*
G02*
X-16042500Y-22005000I147500J0D01*
G01*
G37*
G36*
G01*
X-16042500Y-22975000D02*
X-15697500Y-22975000D01*
G75*
G02*
X-15550000Y-23122500I0J-147500D01*
G01*
X-15550000Y-23417500D01*
G75*
G02*
X-15697500Y-23565000I-147500J0D01*
G01*
X-16042500Y-23565000D01*
G75*
G02*
X-16190000Y-23417500I0J147500D01*
G01*
X-16190000Y-23122500D01*
G75*
G02*
X-16042500Y-22975000I147500J0D01*
G01*
G37*
G36*
G01*
X-6949420Y15577600D02*
X-7294420Y15577600D01*
G75*
G02*
X-7441920Y15725100I0J147500D01*
G01*
X-7441920Y16020100D01*
G75*
G02*
X-7294420Y16167600I147500J0D01*
G01*
X-6949420Y16167600D01*
G75*
G02*
X-6801920Y16020100I0J-147500D01*
G01*
X-6801920Y15725100D01*
G75*
G02*
X-6949420Y15577600I-147500J0D01*
G01*
G37*
G36*
G01*
X-6949420Y16547600D02*
X-7294420Y16547600D01*
G75*
G02*
X-7441920Y16695100I0J147500D01*
G01*
X-7441920Y16990100D01*
G75*
G02*
X-7294420Y17137600I147500J0D01*
G01*
X-6949420Y17137600D01*
G75*
G02*
X-6801920Y16990100I0J-147500D01*
G01*
X-6801920Y16695100D01*
G75*
G02*
X-6949420Y16547600I-147500J0D01*
G01*
G37*
G36*
G01*
X-10052500Y-25450000D02*
X-9707500Y-25450000D01*
G75*
G02*
X-9560000Y-25597500I0J-147500D01*
G01*
X-9560000Y-25892500D01*
G75*
G02*
X-9707500Y-26040000I-147500J0D01*
G01*
X-10052500Y-26040000D01*
G75*
G02*
X-10200000Y-25892500I0J147500D01*
G01*
X-10200000Y-25597500D01*
G75*
G02*
X-10052500Y-25450000I147500J0D01*
G01*
G37*
G36*
G01*
X-10052500Y-26420000D02*
X-9707500Y-26420000D01*
G75*
G02*
X-9560000Y-26567500I0J-147500D01*
G01*
X-9560000Y-26862500D01*
G75*
G02*
X-9707500Y-27010000I-147500J0D01*
G01*
X-10052500Y-27010000D01*
G75*
G02*
X-10200000Y-26862500I0J147500D01*
G01*
X-10200000Y-26567500D01*
G75*
G02*
X-10052500Y-26420000I147500J0D01*
G01*
G37*
G36*
G01*
X4112500Y-21735000D02*
X3767500Y-21735000D01*
G75*
G02*
X3620000Y-21587500I0J147500D01*
G01*
X3620000Y-21292500D01*
G75*
G02*
X3767500Y-21145000I147500J0D01*
G01*
X4112500Y-21145000D01*
G75*
G02*
X4260000Y-21292500I0J-147500D01*
G01*
X4260000Y-21587500D01*
G75*
G02*
X4112500Y-21735000I-147500J0D01*
G01*
G37*
G36*
G01*
X4112500Y-20765000D02*
X3767500Y-20765000D01*
G75*
G02*
X3620000Y-20617500I0J147500D01*
G01*
X3620000Y-20322500D01*
G75*
G02*
X3767500Y-20175000I147500J0D01*
G01*
X4112500Y-20175000D01*
G75*
G02*
X4260000Y-20322500I0J-147500D01*
G01*
X4260000Y-20617500D01*
G75*
G02*
X4112500Y-20765000I-147500J0D01*
G01*
G37*
G36*
G01*
X-375000Y-11207500D02*
X-375000Y-11552500D01*
G75*
G02*
X-522500Y-11700000I-147500J0D01*
G01*
X-817500Y-11700000D01*
G75*
G02*
X-965000Y-11552500I0J147500D01*
G01*
X-965000Y-11207500D01*
G75*
G02*
X-817500Y-11060000I147500J0D01*
G01*
X-522500Y-11060000D01*
G75*
G02*
X-375000Y-11207500I0J-147500D01*
G01*
G37*
G36*
G01*
X-1345000Y-11207500D02*
X-1345000Y-11552500D01*
G75*
G02*
X-1492500Y-11700000I-147500J0D01*
G01*
X-1787500Y-11700000D01*
G75*
G02*
X-1935000Y-11552500I0J147500D01*
G01*
X-1935000Y-11207500D01*
G75*
G02*
X-1787500Y-11060000I147500J0D01*
G01*
X-1492500Y-11060000D01*
G75*
G02*
X-1345000Y-11207500I0J-147500D01*
G01*
G37*
G36*
G01*
X-6412500Y-22270000D02*
X-6067500Y-22270000D01*
G75*
G02*
X-5920000Y-22417500I0J-147500D01*
G01*
X-5920000Y-22712500D01*
G75*
G02*
X-6067500Y-22860000I-147500J0D01*
G01*
X-6412500Y-22860000D01*
G75*
G02*
X-6560000Y-22712500I0J147500D01*
G01*
X-6560000Y-22417500D01*
G75*
G02*
X-6412500Y-22270000I147500J0D01*
G01*
G37*
G36*
G01*
X-6412500Y-23240000D02*
X-6067500Y-23240000D01*
G75*
G02*
X-5920000Y-23387500I0J-147500D01*
G01*
X-5920000Y-23682500D01*
G75*
G02*
X-6067500Y-23830000I-147500J0D01*
G01*
X-6412500Y-23830000D01*
G75*
G02*
X-6560000Y-23682500I0J147500D01*
G01*
X-6560000Y-23387500D01*
G75*
G02*
X-6412500Y-23240000I147500J0D01*
G01*
G37*
G36*
G01*
X39991400Y4531580D02*
X39991400Y4876580D01*
G75*
G02*
X40138900Y5024080I147500J0D01*
G01*
X40433900Y5024080D01*
G75*
G02*
X40581400Y4876580I0J-147500D01*
G01*
X40581400Y4531580D01*
G75*
G02*
X40433900Y4384080I-147500J0D01*
G01*
X40138900Y4384080D01*
G75*
G02*
X39991400Y4531580I0J147500D01*
G01*
G37*
G36*
G01*
X40961400Y4531580D02*
X40961400Y4876580D01*
G75*
G02*
X41108900Y5024080I147500J0D01*
G01*
X41403900Y5024080D01*
G75*
G02*
X41551400Y4876580I0J-147500D01*
G01*
X41551400Y4531580D01*
G75*
G02*
X41403900Y4384080I-147500J0D01*
G01*
X41108900Y4384080D01*
G75*
G02*
X40961400Y4531580I0J147500D01*
G01*
G37*
G36*
G01*
X29530000Y-5827500D02*
X29530000Y-6172500D01*
G75*
G02*
X29382500Y-6320000I-147500J0D01*
G01*
X29087500Y-6320000D01*
G75*
G02*
X28940000Y-6172500I0J147500D01*
G01*
X28940000Y-5827500D01*
G75*
G02*
X29087500Y-5680000I147500J0D01*
G01*
X29382500Y-5680000D01*
G75*
G02*
X29530000Y-5827500I0J-147500D01*
G01*
G37*
G36*
G01*
X28560000Y-5827500D02*
X28560000Y-6172500D01*
G75*
G02*
X28412500Y-6320000I-147500J0D01*
G01*
X28117500Y-6320000D01*
G75*
G02*
X27970000Y-6172500I0J147500D01*
G01*
X27970000Y-5827500D01*
G75*
G02*
X28117500Y-5680000I147500J0D01*
G01*
X28412500Y-5680000D01*
G75*
G02*
X28560000Y-5827500I0J-147500D01*
G01*
G37*
G36*
G01*
X30188120Y1772700D02*
X30188120Y1427700D01*
G75*
G02*
X30040620Y1280200I-147500J0D01*
G01*
X29745620Y1280200D01*
G75*
G02*
X29598120Y1427700I0J147500D01*
G01*
X29598120Y1772700D01*
G75*
G02*
X29745620Y1920200I147500J0D01*
G01*
X30040620Y1920200D01*
G75*
G02*
X30188120Y1772700I0J-147500D01*
G01*
G37*
G36*
G01*
X29218120Y1772700D02*
X29218120Y1427700D01*
G75*
G02*
X29070620Y1280200I-147500J0D01*
G01*
X28775620Y1280200D01*
G75*
G02*
X28628120Y1427700I0J147500D01*
G01*
X28628120Y1772700D01*
G75*
G02*
X28775620Y1920200I147500J0D01*
G01*
X29070620Y1920200D01*
G75*
G02*
X29218120Y1772700I0J-147500D01*
G01*
G37*
G36*
G01*
X25720000Y-1147500D02*
X25720000Y-802500D01*
G75*
G02*
X25867500Y-655000I147500J0D01*
G01*
X26162500Y-655000D01*
G75*
G02*
X26310000Y-802500I0J-147500D01*
G01*
X26310000Y-1147500D01*
G75*
G02*
X26162500Y-1295000I-147500J0D01*
G01*
X25867500Y-1295000D01*
G75*
G02*
X25720000Y-1147500I0J147500D01*
G01*
G37*
G36*
G01*
X26690000Y-1147500D02*
X26690000Y-802500D01*
G75*
G02*
X26837500Y-655000I147500J0D01*
G01*
X27132500Y-655000D01*
G75*
G02*
X27280000Y-802500I0J-147500D01*
G01*
X27280000Y-1147500D01*
G75*
G02*
X27132500Y-1295000I-147500J0D01*
G01*
X26837500Y-1295000D01*
G75*
G02*
X26690000Y-1147500I0J147500D01*
G01*
G37*
G36*
G01*
X-4340640Y417820D02*
X-3995640Y417820D01*
G75*
G02*
X-3848140Y270320I0J-147500D01*
G01*
X-3848140Y-24680D01*
G75*
G02*
X-3995640Y-172180I-147500J0D01*
G01*
X-4340640Y-172180D01*
G75*
G02*
X-4488140Y-24680I0J147500D01*
G01*
X-4488140Y270320D01*
G75*
G02*
X-4340640Y417820I147500J0D01*
G01*
G37*
G36*
G01*
X-4340640Y-552180D02*
X-3995640Y-552180D01*
G75*
G02*
X-3848140Y-699680I0J-147500D01*
G01*
X-3848140Y-994680D01*
G75*
G02*
X-3995640Y-1142180I-147500J0D01*
G01*
X-4340640Y-1142180D01*
G75*
G02*
X-4488140Y-994680I0J147500D01*
G01*
X-4488140Y-699680D01*
G75*
G02*
X-4340640Y-552180I147500J0D01*
G01*
G37*
G36*
G01*
X29880000Y-802500D02*
X29880000Y-1147500D01*
G75*
G02*
X29732500Y-1295000I-147500J0D01*
G01*
X29437500Y-1295000D01*
G75*
G02*
X29290000Y-1147500I0J147500D01*
G01*
X29290000Y-802500D01*
G75*
G02*
X29437500Y-655000I147500J0D01*
G01*
X29732500Y-655000D01*
G75*
G02*
X29880000Y-802500I0J-147500D01*
G01*
G37*
G36*
G01*
X28910000Y-802500D02*
X28910000Y-1147500D01*
G75*
G02*
X28762500Y-1295000I-147500J0D01*
G01*
X28467500Y-1295000D01*
G75*
G02*
X28320000Y-1147500I0J147500D01*
G01*
X28320000Y-802500D01*
G75*
G02*
X28467500Y-655000I147500J0D01*
G01*
X28762500Y-655000D01*
G75*
G02*
X28910000Y-802500I0J-147500D01*
G01*
G37*
G36*
G01*
X40220000Y730940D02*
X40220000Y1075940D01*
G75*
G02*
X40367500Y1223440I147500J0D01*
G01*
X40662500Y1223440D01*
G75*
G02*
X40810000Y1075940I0J-147500D01*
G01*
X40810000Y730940D01*
G75*
G02*
X40662500Y583440I-147500J0D01*
G01*
X40367500Y583440D01*
G75*
G02*
X40220000Y730940I0J147500D01*
G01*
G37*
G36*
G01*
X41190000Y730940D02*
X41190000Y1075940D01*
G75*
G02*
X41337500Y1223440I147500J0D01*
G01*
X41632500Y1223440D01*
G75*
G02*
X41780000Y1075940I0J-147500D01*
G01*
X41780000Y730940D01*
G75*
G02*
X41632500Y583440I-147500J0D01*
G01*
X41337500Y583440D01*
G75*
G02*
X41190000Y730940I0J147500D01*
G01*
G37*
G36*
G01*
X-4545000Y15667500D02*
X-4545000Y16012500D01*
G75*
G02*
X-4397500Y16160000I147500J0D01*
G01*
X-4102500Y16160000D01*
G75*
G02*
X-3955000Y16012500I0J-147500D01*
G01*
X-3955000Y15667500D01*
G75*
G02*
X-4102500Y15520000I-147500J0D01*
G01*
X-4397500Y15520000D01*
G75*
G02*
X-4545000Y15667500I0J147500D01*
G01*
G37*
G36*
G01*
X-3575000Y15667500D02*
X-3575000Y16012500D01*
G75*
G02*
X-3427500Y16160000I147500J0D01*
G01*
X-3132500Y16160000D01*
G75*
G02*
X-2985000Y16012500I0J-147500D01*
G01*
X-2985000Y15667500D01*
G75*
G02*
X-3132500Y15520000I-147500J0D01*
G01*
X-3427500Y15520000D01*
G75*
G02*
X-3575000Y15667500I0J147500D01*
G01*
G37*
G36*
G01*
X-9337500Y-42390000D02*
X-9682500Y-42390000D01*
G75*
G02*
X-9830000Y-42242500I0J147500D01*
G01*
X-9830000Y-41947500D01*
G75*
G02*
X-9682500Y-41800000I147500J0D01*
G01*
X-9337500Y-41800000D01*
G75*
G02*
X-9190000Y-41947500I0J-147500D01*
G01*
X-9190000Y-42242500D01*
G75*
G02*
X-9337500Y-42390000I-147500J0D01*
G01*
G37*
G36*
G01*
X-9337500Y-41420000D02*
X-9682500Y-41420000D01*
G75*
G02*
X-9830000Y-41272500I0J147500D01*
G01*
X-9830000Y-40977500D01*
G75*
G02*
X-9682500Y-40830000I147500J0D01*
G01*
X-9337500Y-40830000D01*
G75*
G02*
X-9190000Y-40977500I0J-147500D01*
G01*
X-9190000Y-41272500D01*
G75*
G02*
X-9337500Y-41420000I-147500J0D01*
G01*
G37*
G36*
G01*
X-12365000Y-12182500D02*
X-12365000Y-11837500D01*
G75*
G02*
X-12217500Y-11690000I147500J0D01*
G01*
X-11922500Y-11690000D01*
G75*
G02*
X-11775000Y-11837500I0J-147500D01*
G01*
X-11775000Y-12182500D01*
G75*
G02*
X-11922500Y-12330000I-147500J0D01*
G01*
X-12217500Y-12330000D01*
G75*
G02*
X-12365000Y-12182500I0J147500D01*
G01*
G37*
G36*
G01*
X-11395000Y-12182500D02*
X-11395000Y-11837500D01*
G75*
G02*
X-11247500Y-11690000I147500J0D01*
G01*
X-10952500Y-11690000D01*
G75*
G02*
X-10805000Y-11837500I0J-147500D01*
G01*
X-10805000Y-12182500D01*
G75*
G02*
X-10952500Y-12330000I-147500J0D01*
G01*
X-11247500Y-12330000D01*
G75*
G02*
X-11395000Y-12182500I0J147500D01*
G01*
G37*
D19*
X20371040Y8825440D03*
X20371040Y-14474560D03*
D20*
X23621040Y-12574560D03*
X23621040Y-12074560D03*
X23621040Y-11574560D03*
X23621040Y-11074560D03*
X23621040Y-10574560D03*
X23621040Y-10074560D03*
X23621040Y-9574560D03*
X23621040Y-9074560D03*
X23621040Y-8574560D03*
X23621040Y-8074560D03*
X23621040Y-7574560D03*
X23621040Y-7074560D03*
X23621040Y-6574560D03*
X23621040Y-6074560D03*
X23621040Y-5574560D03*
X23621040Y-5074560D03*
X23621040Y-4574560D03*
X23621040Y-4074560D03*
X23621040Y-3574560D03*
X23621040Y-3074560D03*
X23621040Y-2574560D03*
X23621040Y-2074560D03*
X23621040Y-1574560D03*
X23621040Y-1074560D03*
X23621040Y-574560D03*
X23621040Y-74560D03*
X23621040Y425440D03*
X23621040Y925440D03*
X23621040Y1425440D03*
X23621040Y1925440D03*
X23621040Y2425440D03*
X23621040Y2925440D03*
X23621040Y3425440D03*
X23621040Y3925440D03*
X23621040Y4425440D03*
X23621040Y4925440D03*
X23621040Y5425440D03*
X23621040Y5925440D03*
X23621040Y6425440D03*
X23621040Y6925440D03*
G36*
G01*
X39555000Y-9500000D02*
X39255000Y-9500000D01*
G75*
G02*
X39105000Y-9350000I0J150000D01*
G01*
X39105000Y-7700000D01*
G75*
G02*
X39255000Y-7550000I150000J0D01*
G01*
X39555000Y-7550000D01*
G75*
G02*
X39705000Y-7700000I0J-150000D01*
G01*
X39705000Y-9350000D01*
G75*
G02*
X39555000Y-9500000I-150000J0D01*
G01*
G37*
G36*
G01*
X38285000Y-9500000D02*
X37985000Y-9500000D01*
G75*
G02*
X37835000Y-9350000I0J150000D01*
G01*
X37835000Y-7700000D01*
G75*
G02*
X37985000Y-7550000I150000J0D01*
G01*
X38285000Y-7550000D01*
G75*
G02*
X38435000Y-7700000I0J-150000D01*
G01*
X38435000Y-9350000D01*
G75*
G02*
X38285000Y-9500000I-150000J0D01*
G01*
G37*
G36*
G01*
X37015000Y-9500000D02*
X36715000Y-9500000D01*
G75*
G02*
X36565000Y-9350000I0J150000D01*
G01*
X36565000Y-7700000D01*
G75*
G02*
X36715000Y-7550000I150000J0D01*
G01*
X37015000Y-7550000D01*
G75*
G02*
X37165000Y-7700000I0J-150000D01*
G01*
X37165000Y-9350000D01*
G75*
G02*
X37015000Y-9500000I-150000J0D01*
G01*
G37*
G36*
G01*
X35745000Y-9500000D02*
X35445000Y-9500000D01*
G75*
G02*
X35295000Y-9350000I0J150000D01*
G01*
X35295000Y-7700000D01*
G75*
G02*
X35445000Y-7550000I150000J0D01*
G01*
X35745000Y-7550000D01*
G75*
G02*
X35895000Y-7700000I0J-150000D01*
G01*
X35895000Y-9350000D01*
G75*
G02*
X35745000Y-9500000I-150000J0D01*
G01*
G37*
G36*
G01*
X35745000Y-14450000D02*
X35445000Y-14450000D01*
G75*
G02*
X35295000Y-14300000I0J150000D01*
G01*
X35295000Y-12650000D01*
G75*
G02*
X35445000Y-12500000I150000J0D01*
G01*
X35745000Y-12500000D01*
G75*
G02*
X35895000Y-12650000I0J-150000D01*
G01*
X35895000Y-14300000D01*
G75*
G02*
X35745000Y-14450000I-150000J0D01*
G01*
G37*
G36*
G01*
X37015000Y-14450000D02*
X36715000Y-14450000D01*
G75*
G02*
X36565000Y-14300000I0J150000D01*
G01*
X36565000Y-12650000D01*
G75*
G02*
X36715000Y-12500000I150000J0D01*
G01*
X37015000Y-12500000D01*
G75*
G02*
X37165000Y-12650000I0J-150000D01*
G01*
X37165000Y-14300000D01*
G75*
G02*
X37015000Y-14450000I-150000J0D01*
G01*
G37*
G36*
G01*
X38285000Y-14450000D02*
X37985000Y-14450000D01*
G75*
G02*
X37835000Y-14300000I0J150000D01*
G01*
X37835000Y-12650000D01*
G75*
G02*
X37985000Y-12500000I150000J0D01*
G01*
X38285000Y-12500000D01*
G75*
G02*
X38435000Y-12650000I0J-150000D01*
G01*
X38435000Y-14300000D01*
G75*
G02*
X38285000Y-14450000I-150000J0D01*
G01*
G37*
G36*
G01*
X39555000Y-14450000D02*
X39255000Y-14450000D01*
G75*
G02*
X39105000Y-14300000I0J150000D01*
G01*
X39105000Y-12650000D01*
G75*
G02*
X39255000Y-12500000I150000J0D01*
G01*
X39555000Y-12500000D01*
G75*
G02*
X39705000Y-12650000I0J-150000D01*
G01*
X39705000Y-14300000D01*
G75*
G02*
X39555000Y-14450000I-150000J0D01*
G01*
G37*
D21*
X-3120000Y-7980000D03*
X-920000Y-7980000D03*
X-920000Y-9680000D03*
X-3120000Y-9680000D03*
D22*
X-44662360Y26513880D03*
X-44662360Y25563880D03*
X-44662360Y24613880D03*
X-46862360Y24613880D03*
X-46862360Y26513880D03*
D23*
X-914440Y-34049320D03*
X35560Y-34049320D03*
X985560Y-34049320D03*
X985560Y-36349320D03*
X35560Y-36349320D03*
X-914440Y-36349320D03*
G36*
G01*
X8137500Y21686250D02*
X8137500Y20773750D01*
G75*
G02*
X7893750Y20530000I-243750J0D01*
G01*
X7406250Y20530000D01*
G75*
G02*
X7162500Y20773750I0J243750D01*
G01*
X7162500Y21686250D01*
G75*
G02*
X7406250Y21930000I243750J0D01*
G01*
X7893750Y21930000D01*
G75*
G02*
X8137500Y21686250I0J-243750D01*
G01*
G37*
G36*
G01*
X6262500Y21686250D02*
X6262500Y20773750D01*
G75*
G02*
X6018750Y20530000I-243750J0D01*
G01*
X5531250Y20530000D01*
G75*
G02*
X5287500Y20773750I0J243750D01*
G01*
X5287500Y21686250D01*
G75*
G02*
X5531250Y21930000I243750J0D01*
G01*
X6018750Y21930000D01*
G75*
G02*
X6262500Y21686250I0J-243750D01*
G01*
G37*
D24*
X-17750000Y-42570000D03*
X-20750000Y-42570000D03*
X-22250000Y-42570000D03*
D25*
X-16350000Y-45430000D03*
X-23650000Y-45430000D03*
X-23650000Y-43220000D03*
X-16350000Y-43220000D03*
G36*
G01*
X32250950Y-13480360D02*
X33163450Y-13480360D01*
G75*
G02*
X33407200Y-13724110I0J-243750D01*
G01*
X33407200Y-14211610D01*
G75*
G02*
X33163450Y-14455360I-243750J0D01*
G01*
X32250950Y-14455360D01*
G75*
G02*
X32007200Y-14211610I0J243750D01*
G01*
X32007200Y-13724110D01*
G75*
G02*
X32250950Y-13480360I243750J0D01*
G01*
G37*
G36*
G01*
X32250950Y-15355360D02*
X33163450Y-15355360D01*
G75*
G02*
X33407200Y-15599110I0J-243750D01*
G01*
X33407200Y-16086610D01*
G75*
G02*
X33163450Y-16330360I-243750J0D01*
G01*
X32250950Y-16330360D01*
G75*
G02*
X32007200Y-16086610I0J243750D01*
G01*
X32007200Y-15599110D01*
G75*
G02*
X32250950Y-15355360I243750J0D01*
G01*
G37*
G36*
G01*
X33031250Y-19882500D02*
X32118750Y-19882500D01*
G75*
G02*
X31875000Y-19638750I0J243750D01*
G01*
X31875000Y-19151250D01*
G75*
G02*
X32118750Y-18907500I243750J0D01*
G01*
X33031250Y-18907500D01*
G75*
G02*
X33275000Y-19151250I0J-243750D01*
G01*
X33275000Y-19638750D01*
G75*
G02*
X33031250Y-19882500I-243750J0D01*
G01*
G37*
G36*
G01*
X33031250Y-18007500D02*
X32118750Y-18007500D01*
G75*
G02*
X31875000Y-17763750I0J243750D01*
G01*
X31875000Y-17276250D01*
G75*
G02*
X32118750Y-17032500I243750J0D01*
G01*
X33031250Y-17032500D01*
G75*
G02*
X33275000Y-17276250I0J-243750D01*
G01*
X33275000Y-17763750D01*
G75*
G02*
X33031250Y-18007500I-243750J0D01*
G01*
G37*
D17*
X-12140000Y-24240000D03*
D18*
X-13740000Y-24240000D03*
X-12940000Y-24240000D03*
D17*
X-14540000Y-24240000D03*
D18*
X-12940000Y-22440000D03*
D17*
X-12140000Y-22440000D03*
D18*
X-13740000Y-22440000D03*
D17*
X-14540000Y-22440000D03*
G36*
G01*
X1822980Y19133850D02*
X1822980Y20046350D01*
G75*
G02*
X2066730Y20290100I243750J0D01*
G01*
X2554230Y20290100D01*
G75*
G02*
X2797980Y20046350I0J-243750D01*
G01*
X2797980Y19133850D01*
G75*
G02*
X2554230Y18890100I-243750J0D01*
G01*
X2066730Y18890100D01*
G75*
G02*
X1822980Y19133850I0J243750D01*
G01*
G37*
G36*
G01*
X3697980Y19133850D02*
X3697980Y20046350D01*
G75*
G02*
X3941730Y20290100I243750J0D01*
G01*
X4429230Y20290100D01*
G75*
G02*
X4672980Y20046350I0J-243750D01*
G01*
X4672980Y19133850D01*
G75*
G02*
X4429230Y18890100I-243750J0D01*
G01*
X3941730Y18890100D01*
G75*
G02*
X3697980Y19133850I0J243750D01*
G01*
G37*
G36*
G01*
X27962500Y-12645000D02*
X29287500Y-12645000D01*
G75*
G02*
X29425000Y-12782500I0J-137500D01*
G01*
X29425000Y-13057500D01*
G75*
G02*
X29287500Y-13195000I-137500J0D01*
G01*
X27962500Y-13195000D01*
G75*
G02*
X27825000Y-13057500I0J137500D01*
G01*
X27825000Y-12782500D01*
G75*
G02*
X27962500Y-12645000I137500J0D01*
G01*
G37*
G36*
G01*
X27962500Y-14095000D02*
X29287500Y-14095000D01*
G75*
G02*
X29425000Y-14232500I0J-137500D01*
G01*
X29425000Y-14507500D01*
G75*
G02*
X29287500Y-14645000I-137500J0D01*
G01*
X27962500Y-14645000D01*
G75*
G02*
X27825000Y-14507500I0J137500D01*
G01*
X27825000Y-14232500D01*
G75*
G02*
X27962500Y-14095000I137500J0D01*
G01*
G37*
D26*
X26757200Y-15805360D03*
X27707200Y-15805360D03*
X28657200Y-15805360D03*
X28657200Y-18005360D03*
X26757200Y-18005360D03*
D22*
X-13150000Y-41370000D03*
X-13150000Y-40420000D03*
X-13150000Y-39470000D03*
X-10950000Y-39470000D03*
X-10950000Y-41370000D03*
G36*
G01*
X30250950Y-13480360D02*
X31163450Y-13480360D01*
G75*
G02*
X31407200Y-13724110I0J-243750D01*
G01*
X31407200Y-14211610D01*
G75*
G02*
X31163450Y-14455360I-243750J0D01*
G01*
X30250950Y-14455360D01*
G75*
G02*
X30007200Y-14211610I0J243750D01*
G01*
X30007200Y-13724110D01*
G75*
G02*
X30250950Y-13480360I243750J0D01*
G01*
G37*
G36*
G01*
X30250950Y-15355360D02*
X31163450Y-15355360D01*
G75*
G02*
X31407200Y-15599110I0J-243750D01*
G01*
X31407200Y-16086610D01*
G75*
G02*
X31163450Y-16330360I-243750J0D01*
G01*
X30250950Y-16330360D01*
G75*
G02*
X30007200Y-16086610I0J243750D01*
G01*
X30007200Y-15599110D01*
G75*
G02*
X30250950Y-15355360I243750J0D01*
G01*
G37*
G36*
G01*
X1822980Y21133850D02*
X1822980Y22046350D01*
G75*
G02*
X2066730Y22290100I243750J0D01*
G01*
X2554230Y22290100D01*
G75*
G02*
X2797980Y22046350I0J-243750D01*
G01*
X2797980Y21133850D01*
G75*
G02*
X2554230Y20890100I-243750J0D01*
G01*
X2066730Y20890100D01*
G75*
G02*
X1822980Y21133850I0J243750D01*
G01*
G37*
G36*
G01*
X3697980Y21133850D02*
X3697980Y22046350D01*
G75*
G02*
X3941730Y22290100I243750J0D01*
G01*
X4429230Y22290100D01*
G75*
G02*
X4672980Y22046350I0J-243750D01*
G01*
X4672980Y21133850D01*
G75*
G02*
X4429230Y20890100I-243750J0D01*
G01*
X3941730Y20890100D01*
G75*
G02*
X3697980Y21133850I0J243750D01*
G01*
G37*
D27*
X270000Y-3770000D03*
X-2230000Y-3770000D03*
D28*
X-6960000Y-11520000D03*
X-6960000Y-9020000D03*
G36*
G01*
X-8465000Y-37756250D02*
X-8465000Y-36843750D01*
G75*
G02*
X-8221250Y-36600000I243750J0D01*
G01*
X-7733750Y-36600000D01*
G75*
G02*
X-7490000Y-36843750I0J-243750D01*
G01*
X-7490000Y-37756250D01*
G75*
G02*
X-7733750Y-38000000I-243750J0D01*
G01*
X-8221250Y-38000000D01*
G75*
G02*
X-8465000Y-37756250I0J243750D01*
G01*
G37*
G36*
G01*
X-6590000Y-37756250D02*
X-6590000Y-36843750D01*
G75*
G02*
X-6346250Y-36600000I243750J0D01*
G01*
X-5858750Y-36600000D01*
G75*
G02*
X-5615000Y-36843750I0J-243750D01*
G01*
X-5615000Y-37756250D01*
G75*
G02*
X-5858750Y-38000000I-243750J0D01*
G01*
X-6346250Y-38000000D01*
G75*
G02*
X-6590000Y-37756250I0J243750D01*
G01*
G37*
G36*
G01*
X-11972500Y-37776250D02*
X-11972500Y-36863750D01*
G75*
G02*
X-11728750Y-36620000I243750J0D01*
G01*
X-11241250Y-36620000D01*
G75*
G02*
X-10997500Y-36863750I0J-243750D01*
G01*
X-10997500Y-37776250D01*
G75*
G02*
X-11241250Y-38020000I-243750J0D01*
G01*
X-11728750Y-38020000D01*
G75*
G02*
X-11972500Y-37776250I0J243750D01*
G01*
G37*
G36*
G01*
X-10097500Y-37776250D02*
X-10097500Y-36863750D01*
G75*
G02*
X-9853750Y-36620000I243750J0D01*
G01*
X-9366250Y-36620000D01*
G75*
G02*
X-9122500Y-36863750I0J-243750D01*
G01*
X-9122500Y-37776250D01*
G75*
G02*
X-9366250Y-38020000I-243750J0D01*
G01*
X-9853750Y-38020000D01*
G75*
G02*
X-10097500Y-37776250I0J243750D01*
G01*
G37*
D29*
X-12560000Y-13560000D03*
X-10460000Y-13560000D03*
D26*
X-31896860Y13061800D03*
X-32846860Y13061800D03*
X-33796860Y13061800D03*
X-33796860Y15261800D03*
X-31896860Y15261800D03*
G36*
G01*
X16650000Y-25092500D02*
X16650000Y-24747500D01*
G75*
G02*
X16797500Y-24600000I147500J0D01*
G01*
X17092500Y-24600000D01*
G75*
G02*
X17240000Y-24747500I0J-147500D01*
G01*
X17240000Y-25092500D01*
G75*
G02*
X17092500Y-25240000I-147500J0D01*
G01*
X16797500Y-25240000D01*
G75*
G02*
X16650000Y-25092500I0J147500D01*
G01*
G37*
G36*
G01*
X17620000Y-25092500D02*
X17620000Y-24747500D01*
G75*
G02*
X17767500Y-24600000I147500J0D01*
G01*
X18062500Y-24600000D01*
G75*
G02*
X18210000Y-24747500I0J-147500D01*
G01*
X18210000Y-25092500D01*
G75*
G02*
X18062500Y-25240000I-147500J0D01*
G01*
X17767500Y-25240000D01*
G75*
G02*
X17620000Y-25092500I0J147500D01*
G01*
G37*
G36*
G01*
X14485000Y-16902500D02*
X14485000Y-16557500D01*
G75*
G02*
X14632500Y-16410000I147500J0D01*
G01*
X14927500Y-16410000D01*
G75*
G02*
X15075000Y-16557500I0J-147500D01*
G01*
X15075000Y-16902500D01*
G75*
G02*
X14927500Y-17050000I-147500J0D01*
G01*
X14632500Y-17050000D01*
G75*
G02*
X14485000Y-16902500I0J147500D01*
G01*
G37*
G36*
G01*
X15455000Y-16902500D02*
X15455000Y-16557500D01*
G75*
G02*
X15602500Y-16410000I147500J0D01*
G01*
X15897500Y-16410000D01*
G75*
G02*
X16045000Y-16557500I0J-147500D01*
G01*
X16045000Y-16902500D01*
G75*
G02*
X15897500Y-17050000I-147500J0D01*
G01*
X15602500Y-17050000D01*
G75*
G02*
X15455000Y-16902500I0J147500D01*
G01*
G37*
G36*
G01*
X14505000Y-18022500D02*
X14505000Y-17677500D01*
G75*
G02*
X14652500Y-17530000I147500J0D01*
G01*
X14947500Y-17530000D01*
G75*
G02*
X15095000Y-17677500I0J-147500D01*
G01*
X15095000Y-18022500D01*
G75*
G02*
X14947500Y-18170000I-147500J0D01*
G01*
X14652500Y-18170000D01*
G75*
G02*
X14505000Y-18022500I0J147500D01*
G01*
G37*
G36*
G01*
X15475000Y-18022500D02*
X15475000Y-17677500D01*
G75*
G02*
X15622500Y-17530000I147500J0D01*
G01*
X15917500Y-17530000D01*
G75*
G02*
X16065000Y-17677500I0J-147500D01*
G01*
X16065000Y-18022500D01*
G75*
G02*
X15917500Y-18170000I-147500J0D01*
G01*
X15622500Y-18170000D01*
G75*
G02*
X15475000Y-18022500I0J147500D01*
G01*
G37*
D30*
X53198660Y6790680D03*
D31*
X53198660Y5190680D03*
X53198660Y5990680D03*
D30*
X53198660Y4390680D03*
D31*
X51398660Y5990680D03*
D30*
X51398660Y6790680D03*
D31*
X51398660Y5190680D03*
D30*
X51398660Y4390680D03*
G36*
G01*
X-54324570Y14937800D02*
X-53412070Y14937800D01*
G75*
G02*
X-53168320Y14694050I0J-243750D01*
G01*
X-53168320Y14206550D01*
G75*
G02*
X-53412070Y13962800I-243750J0D01*
G01*
X-54324570Y13962800D01*
G75*
G02*
X-54568320Y14206550I0J243750D01*
G01*
X-54568320Y14694050D01*
G75*
G02*
X-54324570Y14937800I243750J0D01*
G01*
G37*
G36*
G01*
X-54324570Y13062800D02*
X-53412070Y13062800D01*
G75*
G02*
X-53168320Y12819050I0J-243750D01*
G01*
X-53168320Y12331550D01*
G75*
G02*
X-53412070Y12087800I-243750J0D01*
G01*
X-54324570Y12087800D01*
G75*
G02*
X-54568320Y12331550I0J243750D01*
G01*
X-54568320Y12819050D01*
G75*
G02*
X-54324570Y13062800I243750J0D01*
G01*
G37*
G36*
G01*
X1000000Y16792500D02*
X1000000Y18117500D01*
G75*
G02*
X1137500Y18255000I137500J0D01*
G01*
X1412500Y18255000D01*
G75*
G02*
X1550000Y18117500I0J-137500D01*
G01*
X1550000Y16792500D01*
G75*
G02*
X1412500Y16655000I-137500J0D01*
G01*
X1137500Y16655000D01*
G75*
G02*
X1000000Y16792500I0J137500D01*
G01*
G37*
G36*
G01*
X2450000Y16792500D02*
X2450000Y18117500D01*
G75*
G02*
X2587500Y18255000I137500J0D01*
G01*
X2862500Y18255000D01*
G75*
G02*
X3000000Y18117500I0J-137500D01*
G01*
X3000000Y16792500D01*
G75*
G02*
X2862500Y16655000I-137500J0D01*
G01*
X2587500Y16655000D01*
G75*
G02*
X2450000Y16792500I0J137500D01*
G01*
G37*
D32*
X4660000Y-34240000D03*
X2760000Y-34240000D03*
X3710000Y-32240000D03*
G36*
G01*
X12877500Y-27530000D02*
X13222500Y-27530000D01*
G75*
G02*
X13370000Y-27677500I0J-147500D01*
G01*
X13370000Y-27972500D01*
G75*
G02*
X13222500Y-28120000I-147500J0D01*
G01*
X12877500Y-28120000D01*
G75*
G02*
X12730000Y-27972500I0J147500D01*
G01*
X12730000Y-27677500D01*
G75*
G02*
X12877500Y-27530000I147500J0D01*
G01*
G37*
G36*
G01*
X12877500Y-28500000D02*
X13222500Y-28500000D01*
G75*
G02*
X13370000Y-28647500I0J-147500D01*
G01*
X13370000Y-28942500D01*
G75*
G02*
X13222500Y-29090000I-147500J0D01*
G01*
X12877500Y-29090000D01*
G75*
G02*
X12730000Y-28942500I0J147500D01*
G01*
X12730000Y-28647500D01*
G75*
G02*
X12877500Y-28500000I147500J0D01*
G01*
G37*
D33*
X-2250000Y-1562500D03*
X-1750000Y-1562500D03*
X-1250000Y-1562500D03*
X-750000Y-1562500D03*
X-250000Y-1562500D03*
X250000Y-1562500D03*
X750000Y-1562500D03*
X1250000Y-1562500D03*
X1750000Y-1562500D03*
X2250000Y-1562500D03*
X-2250000Y1562500D03*
X-1750000Y1562500D03*
X-1250000Y1562500D03*
X-750000Y1562500D03*
X-250000Y1562500D03*
X250000Y1562500D03*
X750000Y1562500D03*
X1250000Y1562500D03*
X1750000Y1562500D03*
X2250000Y1562500D03*
D34*
X-2262500Y-750000D03*
X-2262500Y-250000D03*
X-2262500Y250000D03*
X-2262500Y750000D03*
X2262500Y-750000D03*
X2262500Y-250000D03*
X2262500Y250000D03*
X2262500Y750000D03*
D35*
X-18691340Y-32222240D03*
X-18691340Y-35522240D03*
D26*
X-15590000Y-35210000D03*
X-14640000Y-35210000D03*
X-13690000Y-35210000D03*
X-13690000Y-37410000D03*
X-15590000Y-37410000D03*
G36*
G01*
X39116040Y2965940D02*
X39116040Y2840940D01*
G75*
G02*
X39053540Y2778440I-62500J0D01*
G01*
X38303540Y2778440D01*
G75*
G02*
X38241040Y2840940I0J62500D01*
G01*
X38241040Y2965940D01*
G75*
G02*
X38303540Y3028440I62500J0D01*
G01*
X39053540Y3028440D01*
G75*
G02*
X39116040Y2965940I0J-62500D01*
G01*
G37*
G36*
G01*
X39116040Y2465940D02*
X39116040Y2340940D01*
G75*
G02*
X39053540Y2278440I-62500J0D01*
G01*
X38303540Y2278440D01*
G75*
G02*
X38241040Y2340940I0J62500D01*
G01*
X38241040Y2465940D01*
G75*
G02*
X38303540Y2528440I62500J0D01*
G01*
X39053540Y2528440D01*
G75*
G02*
X39116040Y2465940I0J-62500D01*
G01*
G37*
G36*
G01*
X39116040Y1965940D02*
X39116040Y1840940D01*
G75*
G02*
X39053540Y1778440I-62500J0D01*
G01*
X38303540Y1778440D01*
G75*
G02*
X38241040Y1840940I0J62500D01*
G01*
X38241040Y1965940D01*
G75*
G02*
X38303540Y2028440I62500J0D01*
G01*
X39053540Y2028440D01*
G75*
G02*
X39116040Y1965940I0J-62500D01*
G01*
G37*
G36*
G01*
X39116040Y1465940D02*
X39116040Y1340940D01*
G75*
G02*
X39053540Y1278440I-62500J0D01*
G01*
X38303540Y1278440D01*
G75*
G02*
X38241040Y1340940I0J62500D01*
G01*
X38241040Y1465940D01*
G75*
G02*
X38303540Y1528440I62500J0D01*
G01*
X39053540Y1528440D01*
G75*
G02*
X39116040Y1465940I0J-62500D01*
G01*
G37*
G36*
G01*
X39116040Y965940D02*
X39116040Y840940D01*
G75*
G02*
X39053540Y778440I-62500J0D01*
G01*
X38303540Y778440D01*
G75*
G02*
X38241040Y840940I0J62500D01*
G01*
X38241040Y965940D01*
G75*
G02*
X38303540Y1028440I62500J0D01*
G01*
X39053540Y1028440D01*
G75*
G02*
X39116040Y965940I0J-62500D01*
G01*
G37*
G36*
G01*
X39116040Y465940D02*
X39116040Y340940D01*
G75*
G02*
X39053540Y278440I-62500J0D01*
G01*
X38303540Y278440D01*
G75*
G02*
X38241040Y340940I0J62500D01*
G01*
X38241040Y465940D01*
G75*
G02*
X38303540Y528440I62500J0D01*
G01*
X39053540Y528440D01*
G75*
G02*
X39116040Y465940I0J-62500D01*
G01*
G37*
G36*
G01*
X39116040Y-34060D02*
X39116040Y-159060D01*
G75*
G02*
X39053540Y-221560I-62500J0D01*
G01*
X38303540Y-221560D01*
G75*
G02*
X38241040Y-159060I0J62500D01*
G01*
X38241040Y-34060D01*
G75*
G02*
X38303540Y28440I62500J0D01*
G01*
X39053540Y28440D01*
G75*
G02*
X39116040Y-34060I0J-62500D01*
G01*
G37*
G36*
G01*
X39116040Y-534060D02*
X39116040Y-659060D01*
G75*
G02*
X39053540Y-721560I-62500J0D01*
G01*
X38303540Y-721560D01*
G75*
G02*
X38241040Y-659060I0J62500D01*
G01*
X38241040Y-534060D01*
G75*
G02*
X38303540Y-471560I62500J0D01*
G01*
X39053540Y-471560D01*
G75*
G02*
X39116040Y-534060I0J-62500D01*
G01*
G37*
G36*
G01*
X39116040Y-1034060D02*
X39116040Y-1159060D01*
G75*
G02*
X39053540Y-1221560I-62500J0D01*
G01*
X38303540Y-1221560D01*
G75*
G02*
X38241040Y-1159060I0J62500D01*
G01*
X38241040Y-1034060D01*
G75*
G02*
X38303540Y-971560I62500J0D01*
G01*
X39053540Y-971560D01*
G75*
G02*
X39116040Y-1034060I0J-62500D01*
G01*
G37*
G36*
G01*
X39116040Y-1534060D02*
X39116040Y-1659060D01*
G75*
G02*
X39053540Y-1721560I-62500J0D01*
G01*
X38303540Y-1721560D01*
G75*
G02*
X38241040Y-1659060I0J62500D01*
G01*
X38241040Y-1534060D01*
G75*
G02*
X38303540Y-1471560I62500J0D01*
G01*
X39053540Y-1471560D01*
G75*
G02*
X39116040Y-1534060I0J-62500D01*
G01*
G37*
G36*
G01*
X39116040Y-2034060D02*
X39116040Y-2159060D01*
G75*
G02*
X39053540Y-2221560I-62500J0D01*
G01*
X38303540Y-2221560D01*
G75*
G02*
X38241040Y-2159060I0J62500D01*
G01*
X38241040Y-2034060D01*
G75*
G02*
X38303540Y-1971560I62500J0D01*
G01*
X39053540Y-1971560D01*
G75*
G02*
X39116040Y-2034060I0J-62500D01*
G01*
G37*
G36*
G01*
X39116040Y-2534060D02*
X39116040Y-2659060D01*
G75*
G02*
X39053540Y-2721560I-62500J0D01*
G01*
X38303540Y-2721560D01*
G75*
G02*
X38241040Y-2659060I0J62500D01*
G01*
X38241040Y-2534060D01*
G75*
G02*
X38303540Y-2471560I62500J0D01*
G01*
X39053540Y-2471560D01*
G75*
G02*
X39116040Y-2534060I0J-62500D01*
G01*
G37*
G36*
G01*
X38116040Y-2909060D02*
X38116040Y-3659060D01*
G75*
G02*
X38053540Y-3721560I-62500J0D01*
G01*
X37928540Y-3721560D01*
G75*
G02*
X37866040Y-3659060I0J62500D01*
G01*
X37866040Y-2909060D01*
G75*
G02*
X37928540Y-2846560I62500J0D01*
G01*
X38053540Y-2846560D01*
G75*
G02*
X38116040Y-2909060I0J-62500D01*
G01*
G37*
G36*
G01*
X37616040Y-2909060D02*
X37616040Y-3659060D01*
G75*
G02*
X37553540Y-3721560I-62500J0D01*
G01*
X37428540Y-3721560D01*
G75*
G02*
X37366040Y-3659060I0J62500D01*
G01*
X37366040Y-2909060D01*
G75*
G02*
X37428540Y-2846560I62500J0D01*
G01*
X37553540Y-2846560D01*
G75*
G02*
X37616040Y-2909060I0J-62500D01*
G01*
G37*
G36*
G01*
X37116040Y-2909060D02*
X37116040Y-3659060D01*
G75*
G02*
X37053540Y-3721560I-62500J0D01*
G01*
X36928540Y-3721560D01*
G75*
G02*
X36866040Y-3659060I0J62500D01*
G01*
X36866040Y-2909060D01*
G75*
G02*
X36928540Y-2846560I62500J0D01*
G01*
X37053540Y-2846560D01*
G75*
G02*
X37116040Y-2909060I0J-62500D01*
G01*
G37*
G36*
G01*
X36616040Y-2909060D02*
X36616040Y-3659060D01*
G75*
G02*
X36553540Y-3721560I-62500J0D01*
G01*
X36428540Y-3721560D01*
G75*
G02*
X36366040Y-3659060I0J62500D01*
G01*
X36366040Y-2909060D01*
G75*
G02*
X36428540Y-2846560I62500J0D01*
G01*
X36553540Y-2846560D01*
G75*
G02*
X36616040Y-2909060I0J-62500D01*
G01*
G37*
G36*
G01*
X36116040Y-2909060D02*
X36116040Y-3659060D01*
G75*
G02*
X36053540Y-3721560I-62500J0D01*
G01*
X35928540Y-3721560D01*
G75*
G02*
X35866040Y-3659060I0J62500D01*
G01*
X35866040Y-2909060D01*
G75*
G02*
X35928540Y-2846560I62500J0D01*
G01*
X36053540Y-2846560D01*
G75*
G02*
X36116040Y-2909060I0J-62500D01*
G01*
G37*
G36*
G01*
X35616040Y-2909060D02*
X35616040Y-3659060D01*
G75*
G02*
X35553540Y-3721560I-62500J0D01*
G01*
X35428540Y-3721560D01*
G75*
G02*
X35366040Y-3659060I0J62500D01*
G01*
X35366040Y-2909060D01*
G75*
G02*
X35428540Y-2846560I62500J0D01*
G01*
X35553540Y-2846560D01*
G75*
G02*
X35616040Y-2909060I0J-62500D01*
G01*
G37*
G36*
G01*
X35116040Y-2909060D02*
X35116040Y-3659060D01*
G75*
G02*
X35053540Y-3721560I-62500J0D01*
G01*
X34928540Y-3721560D01*
G75*
G02*
X34866040Y-3659060I0J62500D01*
G01*
X34866040Y-2909060D01*
G75*
G02*
X34928540Y-2846560I62500J0D01*
G01*
X35053540Y-2846560D01*
G75*
G02*
X35116040Y-2909060I0J-62500D01*
G01*
G37*
G36*
G01*
X34616040Y-2909060D02*
X34616040Y-3659060D01*
G75*
G02*
X34553540Y-3721560I-62500J0D01*
G01*
X34428540Y-3721560D01*
G75*
G02*
X34366040Y-3659060I0J62500D01*
G01*
X34366040Y-2909060D01*
G75*
G02*
X34428540Y-2846560I62500J0D01*
G01*
X34553540Y-2846560D01*
G75*
G02*
X34616040Y-2909060I0J-62500D01*
G01*
G37*
G36*
G01*
X34116040Y-2909060D02*
X34116040Y-3659060D01*
G75*
G02*
X34053540Y-3721560I-62500J0D01*
G01*
X33928540Y-3721560D01*
G75*
G02*
X33866040Y-3659060I0J62500D01*
G01*
X33866040Y-2909060D01*
G75*
G02*
X33928540Y-2846560I62500J0D01*
G01*
X34053540Y-2846560D01*
G75*
G02*
X34116040Y-2909060I0J-62500D01*
G01*
G37*
G36*
G01*
X33616040Y-2909060D02*
X33616040Y-3659060D01*
G75*
G02*
X33553540Y-3721560I-62500J0D01*
G01*
X33428540Y-3721560D01*
G75*
G02*
X33366040Y-3659060I0J62500D01*
G01*
X33366040Y-2909060D01*
G75*
G02*
X33428540Y-2846560I62500J0D01*
G01*
X33553540Y-2846560D01*
G75*
G02*
X33616040Y-2909060I0J-62500D01*
G01*
G37*
G36*
G01*
X33116040Y-2909060D02*
X33116040Y-3659060D01*
G75*
G02*
X33053540Y-3721560I-62500J0D01*
G01*
X32928540Y-3721560D01*
G75*
G02*
X32866040Y-3659060I0J62500D01*
G01*
X32866040Y-2909060D01*
G75*
G02*
X32928540Y-2846560I62500J0D01*
G01*
X33053540Y-2846560D01*
G75*
G02*
X33116040Y-2909060I0J-62500D01*
G01*
G37*
G36*
G01*
X32616040Y-2909060D02*
X32616040Y-3659060D01*
G75*
G02*
X32553540Y-3721560I-62500J0D01*
G01*
X32428540Y-3721560D01*
G75*
G02*
X32366040Y-3659060I0J62500D01*
G01*
X32366040Y-2909060D01*
G75*
G02*
X32428540Y-2846560I62500J0D01*
G01*
X32553540Y-2846560D01*
G75*
G02*
X32616040Y-2909060I0J-62500D01*
G01*
G37*
G36*
G01*
X32241040Y-2534060D02*
X32241040Y-2659060D01*
G75*
G02*
X32178540Y-2721560I-62500J0D01*
G01*
X31428540Y-2721560D01*
G75*
G02*
X31366040Y-2659060I0J62500D01*
G01*
X31366040Y-2534060D01*
G75*
G02*
X31428540Y-2471560I62500J0D01*
G01*
X32178540Y-2471560D01*
G75*
G02*
X32241040Y-2534060I0J-62500D01*
G01*
G37*
G36*
G01*
X32241040Y-2034060D02*
X32241040Y-2159060D01*
G75*
G02*
X32178540Y-2221560I-62500J0D01*
G01*
X31428540Y-2221560D01*
G75*
G02*
X31366040Y-2159060I0J62500D01*
G01*
X31366040Y-2034060D01*
G75*
G02*
X31428540Y-1971560I62500J0D01*
G01*
X32178540Y-1971560D01*
G75*
G02*
X32241040Y-2034060I0J-62500D01*
G01*
G37*
G36*
G01*
X32241040Y-1534060D02*
X32241040Y-1659060D01*
G75*
G02*
X32178540Y-1721560I-62500J0D01*
G01*
X31428540Y-1721560D01*
G75*
G02*
X31366040Y-1659060I0J62500D01*
G01*
X31366040Y-1534060D01*
G75*
G02*
X31428540Y-1471560I62500J0D01*
G01*
X32178540Y-1471560D01*
G75*
G02*
X32241040Y-1534060I0J-62500D01*
G01*
G37*
G36*
G01*
X32241040Y-1034060D02*
X32241040Y-1159060D01*
G75*
G02*
X32178540Y-1221560I-62500J0D01*
G01*
X31428540Y-1221560D01*
G75*
G02*
X31366040Y-1159060I0J62500D01*
G01*
X31366040Y-1034060D01*
G75*
G02*
X31428540Y-971560I62500J0D01*
G01*
X32178540Y-971560D01*
G75*
G02*
X32241040Y-1034060I0J-62500D01*
G01*
G37*
G36*
G01*
X32241040Y-534060D02*
X32241040Y-659060D01*
G75*
G02*
X32178540Y-721560I-62500J0D01*
G01*
X31428540Y-721560D01*
G75*
G02*
X31366040Y-659060I0J62500D01*
G01*
X31366040Y-534060D01*
G75*
G02*
X31428540Y-471560I62500J0D01*
G01*
X32178540Y-471560D01*
G75*
G02*
X32241040Y-534060I0J-62500D01*
G01*
G37*
G36*
G01*
X32241040Y-34060D02*
X32241040Y-159060D01*
G75*
G02*
X32178540Y-221560I-62500J0D01*
G01*
X31428540Y-221560D01*
G75*
G02*
X31366040Y-159060I0J62500D01*
G01*
X31366040Y-34060D01*
G75*
G02*
X31428540Y28440I62500J0D01*
G01*
X32178540Y28440D01*
G75*
G02*
X32241040Y-34060I0J-62500D01*
G01*
G37*
G36*
G01*
X32241040Y465940D02*
X32241040Y340940D01*
G75*
G02*
X32178540Y278440I-62500J0D01*
G01*
X31428540Y278440D01*
G75*
G02*
X31366040Y340940I0J62500D01*
G01*
X31366040Y465940D01*
G75*
G02*
X31428540Y528440I62500J0D01*
G01*
X32178540Y528440D01*
G75*
G02*
X32241040Y465940I0J-62500D01*
G01*
G37*
G36*
G01*
X32241040Y965940D02*
X32241040Y840940D01*
G75*
G02*
X32178540Y778440I-62500J0D01*
G01*
X31428540Y778440D01*
G75*
G02*
X31366040Y840940I0J62500D01*
G01*
X31366040Y965940D01*
G75*
G02*
X31428540Y1028440I62500J0D01*
G01*
X32178540Y1028440D01*
G75*
G02*
X32241040Y965940I0J-62500D01*
G01*
G37*
G36*
G01*
X32241040Y1465940D02*
X32241040Y1340940D01*
G75*
G02*
X32178540Y1278440I-62500J0D01*
G01*
X31428540Y1278440D01*
G75*
G02*
X31366040Y1340940I0J62500D01*
G01*
X31366040Y1465940D01*
G75*
G02*
X31428540Y1528440I62500J0D01*
G01*
X32178540Y1528440D01*
G75*
G02*
X32241040Y1465940I0J-62500D01*
G01*
G37*
G36*
G01*
X32241040Y1965940D02*
X32241040Y1840940D01*
G75*
G02*
X32178540Y1778440I-62500J0D01*
G01*
X31428540Y1778440D01*
G75*
G02*
X31366040Y1840940I0J62500D01*
G01*
X31366040Y1965940D01*
G75*
G02*
X31428540Y2028440I62500J0D01*
G01*
X32178540Y2028440D01*
G75*
G02*
X32241040Y1965940I0J-62500D01*
G01*
G37*
G36*
G01*
X32241040Y2465940D02*
X32241040Y2340940D01*
G75*
G02*
X32178540Y2278440I-62500J0D01*
G01*
X31428540Y2278440D01*
G75*
G02*
X31366040Y2340940I0J62500D01*
G01*
X31366040Y2465940D01*
G75*
G02*
X31428540Y2528440I62500J0D01*
G01*
X32178540Y2528440D01*
G75*
G02*
X32241040Y2465940I0J-62500D01*
G01*
G37*
G36*
G01*
X32241040Y2965940D02*
X32241040Y2840940D01*
G75*
G02*
X32178540Y2778440I-62500J0D01*
G01*
X31428540Y2778440D01*
G75*
G02*
X31366040Y2840940I0J62500D01*
G01*
X31366040Y2965940D01*
G75*
G02*
X31428540Y3028440I62500J0D01*
G01*
X32178540Y3028440D01*
G75*
G02*
X32241040Y2965940I0J-62500D01*
G01*
G37*
G36*
G01*
X32616040Y3965940D02*
X32616040Y3215940D01*
G75*
G02*
X32553540Y3153440I-62500J0D01*
G01*
X32428540Y3153440D01*
G75*
G02*
X32366040Y3215940I0J62500D01*
G01*
X32366040Y3965940D01*
G75*
G02*
X32428540Y4028440I62500J0D01*
G01*
X32553540Y4028440D01*
G75*
G02*
X32616040Y3965940I0J-62500D01*
G01*
G37*
G36*
G01*
X33116040Y3965940D02*
X33116040Y3215940D01*
G75*
G02*
X33053540Y3153440I-62500J0D01*
G01*
X32928540Y3153440D01*
G75*
G02*
X32866040Y3215940I0J62500D01*
G01*
X32866040Y3965940D01*
G75*
G02*
X32928540Y4028440I62500J0D01*
G01*
X33053540Y4028440D01*
G75*
G02*
X33116040Y3965940I0J-62500D01*
G01*
G37*
G36*
G01*
X33616040Y3965940D02*
X33616040Y3215940D01*
G75*
G02*
X33553540Y3153440I-62500J0D01*
G01*
X33428540Y3153440D01*
G75*
G02*
X33366040Y3215940I0J62500D01*
G01*
X33366040Y3965940D01*
G75*
G02*
X33428540Y4028440I62500J0D01*
G01*
X33553540Y4028440D01*
G75*
G02*
X33616040Y3965940I0J-62500D01*
G01*
G37*
G36*
G01*
X34116040Y3965940D02*
X34116040Y3215940D01*
G75*
G02*
X34053540Y3153440I-62500J0D01*
G01*
X33928540Y3153440D01*
G75*
G02*
X33866040Y3215940I0J62500D01*
G01*
X33866040Y3965940D01*
G75*
G02*
X33928540Y4028440I62500J0D01*
G01*
X34053540Y4028440D01*
G75*
G02*
X34116040Y3965940I0J-62500D01*
G01*
G37*
G36*
G01*
X34616040Y3965940D02*
X34616040Y3215940D01*
G75*
G02*
X34553540Y3153440I-62500J0D01*
G01*
X34428540Y3153440D01*
G75*
G02*
X34366040Y3215940I0J62500D01*
G01*
X34366040Y3965940D01*
G75*
G02*
X34428540Y4028440I62500J0D01*
G01*
X34553540Y4028440D01*
G75*
G02*
X34616040Y3965940I0J-62500D01*
G01*
G37*
G36*
G01*
X35116040Y3965940D02*
X35116040Y3215940D01*
G75*
G02*
X35053540Y3153440I-62500J0D01*
G01*
X34928540Y3153440D01*
G75*
G02*
X34866040Y3215940I0J62500D01*
G01*
X34866040Y3965940D01*
G75*
G02*
X34928540Y4028440I62500J0D01*
G01*
X35053540Y4028440D01*
G75*
G02*
X35116040Y3965940I0J-62500D01*
G01*
G37*
G36*
G01*
X35616040Y3965940D02*
X35616040Y3215940D01*
G75*
G02*
X35553540Y3153440I-62500J0D01*
G01*
X35428540Y3153440D01*
G75*
G02*
X35366040Y3215940I0J62500D01*
G01*
X35366040Y3965940D01*
G75*
G02*
X35428540Y4028440I62500J0D01*
G01*
X35553540Y4028440D01*
G75*
G02*
X35616040Y3965940I0J-62500D01*
G01*
G37*
G36*
G01*
X36116040Y3965940D02*
X36116040Y3215940D01*
G75*
G02*
X36053540Y3153440I-62500J0D01*
G01*
X35928540Y3153440D01*
G75*
G02*
X35866040Y3215940I0J62500D01*
G01*
X35866040Y3965940D01*
G75*
G02*
X35928540Y4028440I62500J0D01*
G01*
X36053540Y4028440D01*
G75*
G02*
X36116040Y3965940I0J-62500D01*
G01*
G37*
G36*
G01*
X36616040Y3965940D02*
X36616040Y3215940D01*
G75*
G02*
X36553540Y3153440I-62500J0D01*
G01*
X36428540Y3153440D01*
G75*
G02*
X36366040Y3215940I0J62500D01*
G01*
X36366040Y3965940D01*
G75*
G02*
X36428540Y4028440I62500J0D01*
G01*
X36553540Y4028440D01*
G75*
G02*
X36616040Y3965940I0J-62500D01*
G01*
G37*
G36*
G01*
X37116040Y3965940D02*
X37116040Y3215940D01*
G75*
G02*
X37053540Y3153440I-62500J0D01*
G01*
X36928540Y3153440D01*
G75*
G02*
X36866040Y3215940I0J62500D01*
G01*
X36866040Y3965940D01*
G75*
G02*
X36928540Y4028440I62500J0D01*
G01*
X37053540Y4028440D01*
G75*
G02*
X37116040Y3965940I0J-62500D01*
G01*
G37*
G36*
G01*
X37616040Y3965940D02*
X37616040Y3215940D01*
G75*
G02*
X37553540Y3153440I-62500J0D01*
G01*
X37428540Y3153440D01*
G75*
G02*
X37366040Y3215940I0J62500D01*
G01*
X37366040Y3965940D01*
G75*
G02*
X37428540Y4028440I62500J0D01*
G01*
X37553540Y4028440D01*
G75*
G02*
X37616040Y3965940I0J-62500D01*
G01*
G37*
G36*
G01*
X38116040Y3965940D02*
X38116040Y3215940D01*
G75*
G02*
X38053540Y3153440I-62500J0D01*
G01*
X37928540Y3153440D01*
G75*
G02*
X37866040Y3215940I0J62500D01*
G01*
X37866040Y3965940D01*
G75*
G02*
X37928540Y4028440I62500J0D01*
G01*
X38053540Y4028440D01*
G75*
G02*
X38116040Y3965940I0J-62500D01*
G01*
G37*
G36*
G01*
X37906040Y2568440D02*
X37906040Y1938440D01*
G75*
G02*
X37656040Y1688440I-250000J0D01*
G01*
X37026040Y1688440D01*
G75*
G02*
X36776040Y1938440I0J250000D01*
G01*
X36776040Y2568440D01*
G75*
G02*
X37026040Y2818440I250000J0D01*
G01*
X37656040Y2818440D01*
G75*
G02*
X37906040Y2568440I0J-250000D01*
G01*
G37*
G36*
G01*
X37906040Y1168440D02*
X37906040Y538440D01*
G75*
G02*
X37656040Y288440I-250000J0D01*
G01*
X37026040Y288440D01*
G75*
G02*
X36776040Y538440I0J250000D01*
G01*
X36776040Y1168440D01*
G75*
G02*
X37026040Y1418440I250000J0D01*
G01*
X37656040Y1418440D01*
G75*
G02*
X37906040Y1168440I0J-250000D01*
G01*
G37*
G36*
G01*
X37906040Y-231560D02*
X37906040Y-861560D01*
G75*
G02*
X37656040Y-1111560I-250000J0D01*
G01*
X37026040Y-1111560D01*
G75*
G02*
X36776040Y-861560I0J250000D01*
G01*
X36776040Y-231560D01*
G75*
G02*
X37026040Y18440I250000J0D01*
G01*
X37656040Y18440D01*
G75*
G02*
X37906040Y-231560I0J-250000D01*
G01*
G37*
G36*
G01*
X37906040Y-1631560D02*
X37906040Y-2261560D01*
G75*
G02*
X37656040Y-2511560I-250000J0D01*
G01*
X37026040Y-2511560D01*
G75*
G02*
X36776040Y-2261560I0J250000D01*
G01*
X36776040Y-1631560D01*
G75*
G02*
X37026040Y-1381560I250000J0D01*
G01*
X37656040Y-1381560D01*
G75*
G02*
X37906040Y-1631560I0J-250000D01*
G01*
G37*
G36*
G01*
X36506040Y2568440D02*
X36506040Y1938440D01*
G75*
G02*
X36256040Y1688440I-250000J0D01*
G01*
X35626040Y1688440D01*
G75*
G02*
X35376040Y1938440I0J250000D01*
G01*
X35376040Y2568440D01*
G75*
G02*
X35626040Y2818440I250000J0D01*
G01*
X36256040Y2818440D01*
G75*
G02*
X36506040Y2568440I0J-250000D01*
G01*
G37*
G36*
G01*
X36506040Y1168440D02*
X36506040Y538440D01*
G75*
G02*
X36256040Y288440I-250000J0D01*
G01*
X35626040Y288440D01*
G75*
G02*
X35376040Y538440I0J250000D01*
G01*
X35376040Y1168440D01*
G75*
G02*
X35626040Y1418440I250000J0D01*
G01*
X36256040Y1418440D01*
G75*
G02*
X36506040Y1168440I0J-250000D01*
G01*
G37*
G36*
G01*
X36506040Y-231560D02*
X36506040Y-861560D01*
G75*
G02*
X36256040Y-1111560I-250000J0D01*
G01*
X35626040Y-1111560D01*
G75*
G02*
X35376040Y-861560I0J250000D01*
G01*
X35376040Y-231560D01*
G75*
G02*
X35626040Y18440I250000J0D01*
G01*
X36256040Y18440D01*
G75*
G02*
X36506040Y-231560I0J-250000D01*
G01*
G37*
G36*
G01*
X36506040Y-1631560D02*
X36506040Y-2261560D01*
G75*
G02*
X36256040Y-2511560I-250000J0D01*
G01*
X35626040Y-2511560D01*
G75*
G02*
X35376040Y-2261560I0J250000D01*
G01*
X35376040Y-1631560D01*
G75*
G02*
X35626040Y-1381560I250000J0D01*
G01*
X36256040Y-1381560D01*
G75*
G02*
X36506040Y-1631560I0J-250000D01*
G01*
G37*
G36*
G01*
X35106040Y2568440D02*
X35106040Y1938440D01*
G75*
G02*
X34856040Y1688440I-250000J0D01*
G01*
X34226040Y1688440D01*
G75*
G02*
X33976040Y1938440I0J250000D01*
G01*
X33976040Y2568440D01*
G75*
G02*
X34226040Y2818440I250000J0D01*
G01*
X34856040Y2818440D01*
G75*
G02*
X35106040Y2568440I0J-250000D01*
G01*
G37*
G36*
G01*
X35106040Y1168440D02*
X35106040Y538440D01*
G75*
G02*
X34856040Y288440I-250000J0D01*
G01*
X34226040Y288440D01*
G75*
G02*
X33976040Y538440I0J250000D01*
G01*
X33976040Y1168440D01*
G75*
G02*
X34226040Y1418440I250000J0D01*
G01*
X34856040Y1418440D01*
G75*
G02*
X35106040Y1168440I0J-250000D01*
G01*
G37*
G36*
G01*
X35106040Y-231560D02*
X35106040Y-861560D01*
G75*
G02*
X34856040Y-1111560I-250000J0D01*
G01*
X34226040Y-1111560D01*
G75*
G02*
X33976040Y-861560I0J250000D01*
G01*
X33976040Y-231560D01*
G75*
G02*
X34226040Y18440I250000J0D01*
G01*
X34856040Y18440D01*
G75*
G02*
X35106040Y-231560I0J-250000D01*
G01*
G37*
G36*
G01*
X35106040Y-1631560D02*
X35106040Y-2261560D01*
G75*
G02*
X34856040Y-2511560I-250000J0D01*
G01*
X34226040Y-2511560D01*
G75*
G02*
X33976040Y-2261560I0J250000D01*
G01*
X33976040Y-1631560D01*
G75*
G02*
X34226040Y-1381560I250000J0D01*
G01*
X34856040Y-1381560D01*
G75*
G02*
X35106040Y-1631560I0J-250000D01*
G01*
G37*
G36*
G01*
X33706040Y2568440D02*
X33706040Y1938440D01*
G75*
G02*
X33456040Y1688440I-250000J0D01*
G01*
X32826040Y1688440D01*
G75*
G02*
X32576040Y1938440I0J250000D01*
G01*
X32576040Y2568440D01*
G75*
G02*
X32826040Y2818440I250000J0D01*
G01*
X33456040Y2818440D01*
G75*
G02*
X33706040Y2568440I0J-250000D01*
G01*
G37*
G36*
G01*
X33706040Y1168440D02*
X33706040Y538440D01*
G75*
G02*
X33456040Y288440I-250000J0D01*
G01*
X32826040Y288440D01*
G75*
G02*
X32576040Y538440I0J250000D01*
G01*
X32576040Y1168440D01*
G75*
G02*
X32826040Y1418440I250000J0D01*
G01*
X33456040Y1418440D01*
G75*
G02*
X33706040Y1168440I0J-250000D01*
G01*
G37*
G36*
G01*
X33706040Y-231560D02*
X33706040Y-861560D01*
G75*
G02*
X33456040Y-1111560I-250000J0D01*
G01*
X32826040Y-1111560D01*
G75*
G02*
X32576040Y-861560I0J250000D01*
G01*
X32576040Y-231560D01*
G75*
G02*
X32826040Y18440I250000J0D01*
G01*
X33456040Y18440D01*
G75*
G02*
X33706040Y-231560I0J-250000D01*
G01*
G37*
G36*
G01*
X33706040Y-1631560D02*
X33706040Y-2261560D01*
G75*
G02*
X33456040Y-2511560I-250000J0D01*
G01*
X32826040Y-2511560D01*
G75*
G02*
X32576040Y-2261560I0J250000D01*
G01*
X32576040Y-1631560D01*
G75*
G02*
X32826040Y-1381560I250000J0D01*
G01*
X33456040Y-1381560D01*
G75*
G02*
X33706040Y-1631560I0J-250000D01*
G01*
G37*
D30*
X11558700Y1977540D03*
D31*
X11558700Y3577540D03*
X11558700Y2777540D03*
D30*
X11558700Y4377540D03*
D31*
X13358700Y2777540D03*
D30*
X13358700Y1977540D03*
D31*
X13358700Y3577540D03*
D30*
X13358700Y4377540D03*
D32*
X28240900Y13849860D03*
X30140900Y13849860D03*
X29190900Y11849860D03*
G36*
G01*
X15627500Y-27530000D02*
X15972500Y-27530000D01*
G75*
G02*
X16120000Y-27677500I0J-147500D01*
G01*
X16120000Y-27972500D01*
G75*
G02*
X15972500Y-28120000I-147500J0D01*
G01*
X15627500Y-28120000D01*
G75*
G02*
X15480000Y-27972500I0J147500D01*
G01*
X15480000Y-27677500D01*
G75*
G02*
X15627500Y-27530000I147500J0D01*
G01*
G37*
G36*
G01*
X15627500Y-28500000D02*
X15972500Y-28500000D01*
G75*
G02*
X16120000Y-28647500I0J-147500D01*
G01*
X16120000Y-28942500D01*
G75*
G02*
X15972500Y-29090000I-147500J0D01*
G01*
X15627500Y-29090000D01*
G75*
G02*
X15480000Y-28942500I0J147500D01*
G01*
X15480000Y-28647500D01*
G75*
G02*
X15627500Y-28500000I147500J0D01*
G01*
G37*
D14*
X27135800Y-10139720D03*
X25835800Y-10139720D03*
X26485800Y-10139720D03*
X25835800Y-8239720D03*
X27135800Y-8239720D03*
D36*
X-11250000Y-43200000D03*
X-11250000Y-45100000D03*
X-13250000Y-44150000D03*
G36*
G01*
X16877500Y-27530000D02*
X17222500Y-27530000D01*
G75*
G02*
X17370000Y-27677500I0J-147500D01*
G01*
X17370000Y-27972500D01*
G75*
G02*
X17222500Y-28120000I-147500J0D01*
G01*
X16877500Y-28120000D01*
G75*
G02*
X16730000Y-27972500I0J147500D01*
G01*
X16730000Y-27677500D01*
G75*
G02*
X16877500Y-27530000I147500J0D01*
G01*
G37*
G36*
G01*
X16877500Y-28500000D02*
X17222500Y-28500000D01*
G75*
G02*
X17370000Y-28647500I0J-147500D01*
G01*
X17370000Y-28942500D01*
G75*
G02*
X17222500Y-29090000I-147500J0D01*
G01*
X16877500Y-29090000D01*
G75*
G02*
X16730000Y-28942500I0J147500D01*
G01*
X16730000Y-28647500D01*
G75*
G02*
X16877500Y-28500000I147500J0D01*
G01*
G37*
X24336300Y13713500D03*
X24336300Y11813500D03*
X22336300Y12763500D03*
D30*
X53670000Y-2630000D03*
D31*
X53670000Y-1830000D03*
D30*
X53670000Y-230000D03*
D31*
X53670000Y-1030000D03*
D30*
X55470000Y-2630000D03*
D31*
X55470000Y-1030000D03*
X55470000Y-1830000D03*
D30*
X55470000Y-230000D03*
D29*
X-6840000Y-39720000D03*
X-8940000Y-39720000D03*
G36*
G01*
X15825000Y-26660000D02*
X15625000Y-26660000D01*
G75*
G02*
X15525000Y-26560000I0J100000D01*
G01*
X15525000Y-25285000D01*
G75*
G02*
X15625000Y-25185000I100000J0D01*
G01*
X15825000Y-25185000D01*
G75*
G02*
X15925000Y-25285000I0J-100000D01*
G01*
X15925000Y-26560000D01*
G75*
G02*
X15825000Y-26660000I-100000J0D01*
G01*
G37*
G36*
G01*
X15175000Y-26660000D02*
X14975000Y-26660000D01*
G75*
G02*
X14875000Y-26560000I0J100000D01*
G01*
X14875000Y-25285000D01*
G75*
G02*
X14975000Y-25185000I100000J0D01*
G01*
X15175000Y-25185000D01*
G75*
G02*
X15275000Y-25285000I0J-100000D01*
G01*
X15275000Y-26560000D01*
G75*
G02*
X15175000Y-26660000I-100000J0D01*
G01*
G37*
G36*
G01*
X14525000Y-26660000D02*
X14325000Y-26660000D01*
G75*
G02*
X14225000Y-26560000I0J100000D01*
G01*
X14225000Y-25285000D01*
G75*
G02*
X14325000Y-25185000I100000J0D01*
G01*
X14525000Y-25185000D01*
G75*
G02*
X14625000Y-25285000I0J-100000D01*
G01*
X14625000Y-26560000D01*
G75*
G02*
X14525000Y-26660000I-100000J0D01*
G01*
G37*
G36*
G01*
X13875000Y-26660000D02*
X13675000Y-26660000D01*
G75*
G02*
X13575000Y-26560000I0J100000D01*
G01*
X13575000Y-25285000D01*
G75*
G02*
X13675000Y-25185000I100000J0D01*
G01*
X13875000Y-25185000D01*
G75*
G02*
X13975000Y-25285000I0J-100000D01*
G01*
X13975000Y-26560000D01*
G75*
G02*
X13875000Y-26660000I-100000J0D01*
G01*
G37*
G36*
G01*
X13225000Y-26660000D02*
X13025000Y-26660000D01*
G75*
G02*
X12925000Y-26560000I0J100000D01*
G01*
X12925000Y-25285000D01*
G75*
G02*
X13025000Y-25185000I100000J0D01*
G01*
X13225000Y-25185000D01*
G75*
G02*
X13325000Y-25285000I0J-100000D01*
G01*
X13325000Y-26560000D01*
G75*
G02*
X13225000Y-26660000I-100000J0D01*
G01*
G37*
G36*
G01*
X12575000Y-26660000D02*
X12375000Y-26660000D01*
G75*
G02*
X12275000Y-26560000I0J100000D01*
G01*
X12275000Y-25285000D01*
G75*
G02*
X12375000Y-25185000I100000J0D01*
G01*
X12575000Y-25185000D01*
G75*
G02*
X12675000Y-25285000I0J-100000D01*
G01*
X12675000Y-26560000D01*
G75*
G02*
X12575000Y-26660000I-100000J0D01*
G01*
G37*
G36*
G01*
X11925000Y-26660000D02*
X11725000Y-26660000D01*
G75*
G02*
X11625000Y-26560000I0J100000D01*
G01*
X11625000Y-25285000D01*
G75*
G02*
X11725000Y-25185000I100000J0D01*
G01*
X11925000Y-25185000D01*
G75*
G02*
X12025000Y-25285000I0J-100000D01*
G01*
X12025000Y-26560000D01*
G75*
G02*
X11925000Y-26660000I-100000J0D01*
G01*
G37*
G36*
G01*
X11275000Y-26660000D02*
X11075000Y-26660000D01*
G75*
G02*
X10975000Y-26560000I0J100000D01*
G01*
X10975000Y-25285000D01*
G75*
G02*
X11075000Y-25185000I100000J0D01*
G01*
X11275000Y-25185000D01*
G75*
G02*
X11375000Y-25285000I0J-100000D01*
G01*
X11375000Y-26560000D01*
G75*
G02*
X11275000Y-26660000I-100000J0D01*
G01*
G37*
G36*
G01*
X10625000Y-26660000D02*
X10425000Y-26660000D01*
G75*
G02*
X10325000Y-26560000I0J100000D01*
G01*
X10325000Y-25285000D01*
G75*
G02*
X10425000Y-25185000I100000J0D01*
G01*
X10625000Y-25185000D01*
G75*
G02*
X10725000Y-25285000I0J-100000D01*
G01*
X10725000Y-26560000D01*
G75*
G02*
X10625000Y-26660000I-100000J0D01*
G01*
G37*
G36*
G01*
X9975000Y-26660000D02*
X9775000Y-26660000D01*
G75*
G02*
X9675000Y-26560000I0J100000D01*
G01*
X9675000Y-25285000D01*
G75*
G02*
X9775000Y-25185000I100000J0D01*
G01*
X9975000Y-25185000D01*
G75*
G02*
X10075000Y-25285000I0J-100000D01*
G01*
X10075000Y-26560000D01*
G75*
G02*
X9975000Y-26660000I-100000J0D01*
G01*
G37*
G36*
G01*
X9975000Y-20935000D02*
X9775000Y-20935000D01*
G75*
G02*
X9675000Y-20835000I0J100000D01*
G01*
X9675000Y-19560000D01*
G75*
G02*
X9775000Y-19460000I100000J0D01*
G01*
X9975000Y-19460000D01*
G75*
G02*
X10075000Y-19560000I0J-100000D01*
G01*
X10075000Y-20835000D01*
G75*
G02*
X9975000Y-20935000I-100000J0D01*
G01*
G37*
G36*
G01*
X10625000Y-20935000D02*
X10425000Y-20935000D01*
G75*
G02*
X10325000Y-20835000I0J100000D01*
G01*
X10325000Y-19560000D01*
G75*
G02*
X10425000Y-19460000I100000J0D01*
G01*
X10625000Y-19460000D01*
G75*
G02*
X10725000Y-19560000I0J-100000D01*
G01*
X10725000Y-20835000D01*
G75*
G02*
X10625000Y-20935000I-100000J0D01*
G01*
G37*
G36*
G01*
X11275000Y-20935000D02*
X11075000Y-20935000D01*
G75*
G02*
X10975000Y-20835000I0J100000D01*
G01*
X10975000Y-19560000D01*
G75*
G02*
X11075000Y-19460000I100000J0D01*
G01*
X11275000Y-19460000D01*
G75*
G02*
X11375000Y-19560000I0J-100000D01*
G01*
X11375000Y-20835000D01*
G75*
G02*
X11275000Y-20935000I-100000J0D01*
G01*
G37*
G36*
G01*
X11925000Y-20935000D02*
X11725000Y-20935000D01*
G75*
G02*
X11625000Y-20835000I0J100000D01*
G01*
X11625000Y-19560000D01*
G75*
G02*
X11725000Y-19460000I100000J0D01*
G01*
X11925000Y-19460000D01*
G75*
G02*
X12025000Y-19560000I0J-100000D01*
G01*
X12025000Y-20835000D01*
G75*
G02*
X11925000Y-20935000I-100000J0D01*
G01*
G37*
G36*
G01*
X12575000Y-20935000D02*
X12375000Y-20935000D01*
G75*
G02*
X12275000Y-20835000I0J100000D01*
G01*
X12275000Y-19560000D01*
G75*
G02*
X12375000Y-19460000I100000J0D01*
G01*
X12575000Y-19460000D01*
G75*
G02*
X12675000Y-19560000I0J-100000D01*
G01*
X12675000Y-20835000D01*
G75*
G02*
X12575000Y-20935000I-100000J0D01*
G01*
G37*
G36*
G01*
X13225000Y-20935000D02*
X13025000Y-20935000D01*
G75*
G02*
X12925000Y-20835000I0J100000D01*
G01*
X12925000Y-19560000D01*
G75*
G02*
X13025000Y-19460000I100000J0D01*
G01*
X13225000Y-19460000D01*
G75*
G02*
X13325000Y-19560000I0J-100000D01*
G01*
X13325000Y-20835000D01*
G75*
G02*
X13225000Y-20935000I-100000J0D01*
G01*
G37*
G36*
G01*
X13875000Y-20935000D02*
X13675000Y-20935000D01*
G75*
G02*
X13575000Y-20835000I0J100000D01*
G01*
X13575000Y-19560000D01*
G75*
G02*
X13675000Y-19460000I100000J0D01*
G01*
X13875000Y-19460000D01*
G75*
G02*
X13975000Y-19560000I0J-100000D01*
G01*
X13975000Y-20835000D01*
G75*
G02*
X13875000Y-20935000I-100000J0D01*
G01*
G37*
G36*
G01*
X14525000Y-20935000D02*
X14325000Y-20935000D01*
G75*
G02*
X14225000Y-20835000I0J100000D01*
G01*
X14225000Y-19560000D01*
G75*
G02*
X14325000Y-19460000I100000J0D01*
G01*
X14525000Y-19460000D01*
G75*
G02*
X14625000Y-19560000I0J-100000D01*
G01*
X14625000Y-20835000D01*
G75*
G02*
X14525000Y-20935000I-100000J0D01*
G01*
G37*
G36*
G01*
X15175000Y-20935000D02*
X14975000Y-20935000D01*
G75*
G02*
X14875000Y-20835000I0J100000D01*
G01*
X14875000Y-19560000D01*
G75*
G02*
X14975000Y-19460000I100000J0D01*
G01*
X15175000Y-19460000D01*
G75*
G02*
X15275000Y-19560000I0J-100000D01*
G01*
X15275000Y-20835000D01*
G75*
G02*
X15175000Y-20935000I-100000J0D01*
G01*
G37*
G36*
G01*
X15825000Y-20935000D02*
X15625000Y-20935000D01*
G75*
G02*
X15525000Y-20835000I0J100000D01*
G01*
X15525000Y-19560000D01*
G75*
G02*
X15625000Y-19460000I100000J0D01*
G01*
X15825000Y-19460000D01*
G75*
G02*
X15925000Y-19560000I0J-100000D01*
G01*
X15925000Y-20835000D01*
G75*
G02*
X15825000Y-20935000I-100000J0D01*
G01*
G37*
D30*
X11558700Y-2016460D03*
D31*
X11558700Y-416460D03*
X11558700Y-1216460D03*
D30*
X11558700Y383540D03*
D31*
X13358700Y-1216460D03*
D30*
X13358700Y-2016460D03*
D31*
X13358700Y-416460D03*
D30*
X13358700Y383540D03*
D22*
X4147980Y15640100D03*
X4147980Y16590100D03*
X4147980Y17540100D03*
X6347980Y17540100D03*
X6347980Y15640100D03*
M02*
