G04 #@! TF.GenerationSoftware,KiCad,Pcbnew,5.1.9*
G04 #@! TF.CreationDate,2021-04-05T15:36:32+02:00*
G04 #@! TF.ProjectId,mch2021,6d636832-3032-4312-9e6b-696361645f70,1*
G04 #@! TF.SameCoordinates,Original*
G04 #@! TF.FileFunction,Other,User*
%FSLAX46Y46*%
G04 Gerber Fmt 4.6, Leading zero omitted, Abs format (unit mm)*
G04 Created by KiCad (PCBNEW 5.1.9) date 2021-04-05 15:36:32*
%MOMM*%
%LPD*%
G01*
G04 APERTURE LIST*
%ADD10C,0.050000*%
G04 APERTURE END LIST*
D10*
X31060000Y19190000D02*
X31060000Y22690000D01*
X27560000Y19190000D02*
X31060000Y19190000D01*
X27560000Y22690000D02*
X27560000Y19190000D01*
X31060000Y22690000D02*
X27560000Y22690000D01*
X-18233380Y24624720D02*
X-18233380Y26624720D01*
X-16233380Y24624720D02*
X-18233380Y24624720D01*
X-16233380Y26624720D02*
X-16233380Y24624720D01*
X-18233380Y26624720D02*
X-16233380Y26624720D01*
X-32359840Y40360020D02*
X-34359840Y40360020D01*
X-32359840Y42360020D02*
X-32359840Y40360020D01*
X-34359840Y42360020D02*
X-32359840Y42360020D01*
X-34359840Y40360020D02*
X-34359840Y42360020D01*
X-50768240Y40533760D02*
X-48768240Y40533760D01*
X-50768240Y38533760D02*
X-50768240Y40533760D01*
X-48768240Y38533760D02*
X-50768240Y38533760D01*
X-48768240Y40533760D02*
X-48768240Y38533760D01*
X-38126660Y34610480D02*
X-36126660Y34610480D01*
X-38126660Y32610480D02*
X-38126660Y34610480D01*
X-36126660Y32610480D02*
X-38126660Y32610480D01*
X-36126660Y34610480D02*
X-36126660Y32610480D01*
X-41441360Y24553600D02*
X-41441360Y26553600D01*
X-39441360Y24553600D02*
X-41441360Y24553600D01*
X-39441360Y26553600D02*
X-39441360Y24553600D01*
X-41441360Y26553600D02*
X-39441360Y26553600D01*
X31140000Y8250000D02*
X36640000Y8250000D01*
X36640000Y8250000D02*
X36640000Y15550000D01*
X36640000Y15550000D02*
X31140000Y15550000D01*
X31140000Y15550000D02*
X31140000Y8250000D01*
X-52069275Y-7685246D02*
X-59423186Y-331335D01*
X-44644654Y-260625D02*
X-52069275Y-7685246D01*
X-51998565Y7093286D02*
X-44644654Y-260625D01*
X-59423186Y-331335D02*
X-51998565Y7093286D01*
M02*
