G04 #@! TF.GenerationSoftware,KiCad,Pcbnew,(6.0.4)*
G04 #@! TF.CreationDate,2022-04-03T21:35:01+02:00*
G04 #@! TF.ProjectId,mch2021,6d636832-3032-4312-9e6b-696361645f70,3*
G04 #@! TF.SameCoordinates,Original*
G04 #@! TF.FileFunction,Other,User*
%FSLAX46Y46*%
G04 Gerber Fmt 4.6, Leading zero omitted, Abs format (unit mm)*
G04 Created by KiCad (PCBNEW (6.0.4)) date 2022-04-03 21:35:01*
%MOMM*%
%LPD*%
G01*
G04 APERTURE LIST*
%ADD10C,0.050000*%
G04 APERTURE END LIST*
D10*
X-16860000Y25890000D02*
X-18860000Y25890000D01*
X-18860000Y27890000D02*
X-16860000Y27890000D01*
X-18860000Y25890000D02*
X-18860000Y27890000D01*
X-16860000Y27890000D02*
X-16860000Y25890000D01*
X-52400000Y40270000D02*
X-52400000Y42270000D01*
X-50400000Y40270000D02*
X-52400000Y40270000D01*
X-50400000Y42270000D02*
X-50400000Y40270000D01*
X-52400000Y42270000D02*
X-50400000Y42270000D01*
X-37360000Y36320000D02*
X-37360000Y34320000D01*
X-39360000Y34320000D02*
X-39360000Y36320000D01*
X-39360000Y36320000D02*
X-37360000Y36320000D01*
X-37360000Y34320000D02*
X-39360000Y34320000D01*
X-51998565Y7093286D02*
X-44644654Y-260625D01*
X-59423186Y-331335D02*
X-51998565Y7093286D01*
X-44644654Y-260625D02*
X-52069275Y-7685246D01*
X-52069275Y-7685246D02*
X-59423186Y-331335D01*
X36640000Y8250000D02*
X36640000Y15550000D01*
X36640000Y15550000D02*
X31140000Y15550000D01*
X31140000Y8250000D02*
X36640000Y8250000D01*
X31140000Y15550000D02*
X31140000Y8250000D01*
X-35470000Y44230000D02*
X-33470000Y44230000D01*
X-35470000Y42230000D02*
X-35470000Y44230000D01*
X-33470000Y44230000D02*
X-33470000Y42230000D01*
X-33470000Y42230000D02*
X-35470000Y42230000D01*
X27560000Y22690000D02*
X27560000Y19190000D01*
X31060000Y22690000D02*
X27560000Y22690000D01*
X31060000Y19190000D02*
X31060000Y22690000D01*
X27560000Y19190000D02*
X31060000Y19190000D01*
X-42979000Y25982000D02*
X-42979000Y27982000D01*
X-42979000Y27982000D02*
X-40979000Y27982000D01*
X-40979000Y27982000D02*
X-40979000Y25982000D01*
X-40979000Y25982000D02*
X-42979000Y25982000D01*
M02*
