G04 #@! TF.GenerationSoftware,KiCad,Pcbnew,(6.0.4)*
G04 #@! TF.CreationDate,2022-04-02T13:16:33+02:00*
G04 #@! TF.ProjectId,mch2021,6d636832-3032-4312-9e6b-696361645f70,3*
G04 #@! TF.SameCoordinates,Original*
G04 #@! TF.FileFunction,Paste,Bot*
G04 #@! TF.FilePolarity,Positive*
%FSLAX46Y46*%
G04 Gerber Fmt 4.6, Leading zero omitted, Abs format (unit mm)*
G04 Created by KiCad (PCBNEW (6.0.4)) date 2022-04-02 13:16:33*
%MOMM*%
%LPD*%
G01*
G04 APERTURE LIST*
G04 Aperture macros list*
%AMRoundRect*
0 Rectangle with rounded corners*
0 $1 Rounding radius*
0 $2 $3 $4 $5 $6 $7 $8 $9 X,Y pos of 4 corners*
0 Add a 4 corners polygon primitive as box body*
4,1,4,$2,$3,$4,$5,$6,$7,$8,$9,$2,$3,0*
0 Add four circle primitives for the rounded corners*
1,1,$1+$1,$2,$3*
1,1,$1+$1,$4,$5*
1,1,$1+$1,$6,$7*
1,1,$1+$1,$8,$9*
0 Add four rect primitives between the rounded corners*
20,1,$1+$1,$2,$3,$4,$5,0*
20,1,$1+$1,$4,$5,$6,$7,0*
20,1,$1+$1,$6,$7,$8,$9,0*
20,1,$1+$1,$8,$9,$2,$3,0*%
%AMRotRect*
0 Rectangle, with rotation*
0 The origin of the aperture is its center*
0 $1 length*
0 $2 width*
0 $3 Rotation angle, in degrees counterclockwise*
0 Add horizontal line*
21,1,$1,$2,0,0,$3*%
G04 Aperture macros list end*
%ADD10C,0.010000*%
%ADD11R,2.000000X2.000000*%
%ADD12RoundRect,0.135000X-0.135000X-0.185000X0.135000X-0.185000X0.135000X0.185000X-0.135000X0.185000X0*%
%ADD13RoundRect,0.140000X-0.140000X-0.170000X0.140000X-0.170000X0.140000X0.170000X-0.140000X0.170000X0*%
%ADD14RoundRect,0.135000X0.185000X-0.135000X0.185000X0.135000X-0.185000X0.135000X-0.185000X-0.135000X0*%
%ADD15RoundRect,0.140000X0.140000X0.170000X-0.140000X0.170000X-0.140000X-0.170000X0.140000X-0.170000X0*%
%ADD16R,0.900000X0.800000*%
%ADD17R,0.800000X0.900000*%
%ADD18R,0.800000X0.500000*%
%ADD19R,0.800000X0.400000*%
%ADD20RoundRect,0.375000X1.625000X0.375000X-1.625000X0.375000X-1.625000X-0.375000X1.625000X-0.375000X0*%
%ADD21R,1.300000X0.300000*%
%ADD22R,2.200000X1.800000*%
%ADD23RoundRect,0.135000X0.135000X0.185000X-0.135000X0.185000X-0.135000X-0.185000X0.135000X-0.185000X0*%
%ADD24R,0.400000X0.650000*%
%ADD25RoundRect,0.250000X0.315000X0.315000X-0.315000X0.315000X-0.315000X-0.315000X0.315000X-0.315000X0*%
%ADD26RoundRect,0.062500X0.375000X0.062500X-0.375000X0.062500X-0.375000X-0.062500X0.375000X-0.062500X0*%
%ADD27RoundRect,0.062500X0.062500X0.375000X-0.062500X0.375000X-0.062500X-0.375000X0.062500X-0.375000X0*%
%ADD28RoundRect,0.140000X-0.170000X0.140000X-0.170000X-0.140000X0.170000X-0.140000X0.170000X0.140000X0*%
%ADD29RoundRect,0.140000X0.170000X-0.140000X0.170000X0.140000X-0.170000X0.140000X-0.170000X-0.140000X0*%
%ADD30R,0.450000X0.600000*%
%ADD31RoundRect,0.135000X-0.185000X0.135000X-0.185000X-0.135000X0.185000X-0.135000X0.185000X0.135000X0*%
%ADD32RoundRect,0.243750X-0.243750X-0.456250X0.243750X-0.456250X0.243750X0.456250X-0.243750X0.456250X0*%
%ADD33R,1.000000X1.800000*%
%ADD34R,0.300000X0.500000*%
%ADD35R,0.500000X0.300000*%
%ADD36R,1.060000X0.650000*%
%ADD37RotRect,1.000000X0.800000X175.000000*%
%ADD38RotRect,0.700000X1.500000X175.000000*%
%ADD39R,0.650000X1.060000*%
%ADD40RoundRect,0.250000X-0.475000X0.250000X-0.475000X-0.250000X0.475000X-0.250000X0.475000X0.250000X0*%
%ADD41R,0.500000X0.800000*%
%ADD42R,0.400000X0.800000*%
%ADD43RoundRect,0.250000X-0.250000X-1.500000X0.250000X-1.500000X0.250000X1.500000X-0.250000X1.500000X0*%
%ADD44RoundRect,0.250001X-0.499999X-1.449999X0.499999X-1.449999X0.499999X1.449999X-0.499999X1.449999X0*%
%ADD45RoundRect,0.150000X0.150000X-0.825000X0.150000X0.825000X-0.150000X0.825000X-0.150000X-0.825000X0*%
%ADD46R,1.400000X1.200000*%
%ADD47RoundRect,0.250000X-0.250000X-0.475000X0.250000X-0.475000X0.250000X0.475000X-0.250000X0.475000X0*%
%ADD48RoundRect,0.021000X-0.729000X-0.129000X0.729000X-0.129000X0.729000X0.129000X-0.729000X0.129000X0*%
%ADD49RoundRect,0.137500X-0.137500X-0.662500X0.137500X-0.662500X0.137500X0.662500X-0.137500X0.662500X0*%
%ADD50RoundRect,0.250000X0.250000X0.475000X-0.250000X0.475000X-0.250000X-0.475000X0.250000X-0.475000X0*%
%ADD51RoundRect,0.137500X-0.662500X0.137500X-0.662500X-0.137500X0.662500X-0.137500X0.662500X0.137500X0*%
%ADD52RoundRect,0.250000X0.475000X-0.250000X0.475000X0.250000X-0.475000X0.250000X-0.475000X-0.250000X0*%
%ADD53RoundRect,0.200000X-0.200000X-0.550000X0.200000X-0.550000X0.200000X0.550000X-0.200000X0.550000X0*%
%ADD54RoundRect,0.375000X-0.375000X-0.625000X0.375000X-0.625000X0.375000X0.625000X-0.375000X0.625000X0*%
%ADD55RoundRect,0.006000X-0.414000X-0.094000X0.414000X-0.094000X0.414000X0.094000X-0.414000X0.094000X0*%
%ADD56RoundRect,0.020000X-0.080000X-0.400000X0.080000X-0.400000X0.080000X0.400000X-0.080000X0.400000X0*%
%ADD57R,2.000000X0.900000*%
%ADD58R,5.000000X5.000000*%
%ADD59R,0.350000X0.490000*%
%ADD60R,1.600000X0.200000*%
%ADD61R,0.900000X1.100000*%
%ADD62R,0.599440X1.348740*%
%ADD63R,1.198880X1.998980*%
%ADD64RoundRect,0.150000X0.150000X-0.675000X0.150000X0.675000X-0.150000X0.675000X-0.150000X-0.675000X0*%
%ADD65RoundRect,0.200000X-0.200000X-0.600000X0.200000X-0.600000X0.200000X0.600000X-0.200000X0.600000X0*%
%ADD66RoundRect,0.250001X-0.799999X-1.249999X0.799999X-1.249999X0.799999X1.249999X-0.799999X1.249999X0*%
%ADD67RoundRect,0.150000X-0.587500X-0.150000X0.587500X-0.150000X0.587500X0.150000X-0.587500X0.150000X0*%
%ADD68RoundRect,0.243750X-0.456250X0.243750X-0.456250X-0.243750X0.456250X-0.243750X0.456250X0.243750X0*%
%ADD69RotRect,1.000000X0.800000X185.000000*%
%ADD70RotRect,0.700000X1.500000X185.000000*%
%ADD71R,0.600000X1.450000*%
%ADD72R,0.300000X1.450000*%
G04 APERTURE END LIST*
G36*
X-1676780Y-17865780D02*
G01*
X-3636780Y-17865780D01*
X-3636780Y-15905780D01*
X-1676780Y-15905780D01*
X-1676780Y-17865780D01*
G37*
D10*
X-1676780Y-17865780D02*
X-3636780Y-17865780D01*
X-3636780Y-15905780D01*
X-1676780Y-15905780D01*
X-1676780Y-17865780D01*
D11*
X21034000Y-19812000D03*
X15034000Y-19812000D03*
D12*
X25990000Y-2140000D03*
X27010000Y-2140000D03*
D13*
X26020000Y-975000D03*
X26980000Y-975000D03*
D14*
X46680000Y-7285000D03*
X46680000Y-6265000D03*
D15*
X29230000Y-6000000D03*
X28270000Y-6000000D03*
D16*
X24336300Y13713500D03*
X24336300Y11813500D03*
X22336300Y12763500D03*
D15*
X29888120Y1600200D03*
X28928120Y1600200D03*
D17*
X28240900Y13849860D03*
X30140900Y13849860D03*
X29190900Y11849860D03*
D18*
X11558700Y1977540D03*
D19*
X11558700Y2777540D03*
X11558700Y3577540D03*
D18*
X11558700Y4377540D03*
X13358700Y4377540D03*
D19*
X13358700Y3577540D03*
X13358700Y2777540D03*
D18*
X13358700Y1977540D03*
D12*
X41285000Y-1290000D03*
X42305000Y-1290000D03*
D18*
X11558700Y-2016460D03*
D19*
X11558700Y-1216460D03*
X11558700Y-416460D03*
D18*
X11558700Y383540D03*
X13358700Y383540D03*
D19*
X13358700Y-416460D03*
X13358700Y-1216460D03*
D18*
X13358700Y-2016460D03*
D14*
X18230000Y13965000D03*
X18230000Y14985000D03*
D20*
X17600000Y-40900000D03*
X10400000Y-42900000D03*
X10400000Y-35900000D03*
D21*
X23621040Y-12574560D03*
X23621040Y-12074560D03*
X23621040Y-11574560D03*
X23621040Y-11074560D03*
X23621040Y-10574560D03*
X23621040Y-10074560D03*
X23621040Y-9574560D03*
X23621040Y-9074560D03*
X23621040Y-8574560D03*
X23621040Y-8074560D03*
X23621040Y-7574560D03*
X23621040Y-7074560D03*
X23621040Y-6574560D03*
X23621040Y-6074560D03*
X23621040Y-5574560D03*
X23621040Y-5074560D03*
X23621040Y-4574560D03*
X23621040Y-4074560D03*
X23621040Y-3574560D03*
X23621040Y-3074560D03*
X23621040Y-2574560D03*
X23621040Y-2074560D03*
X23621040Y-1574560D03*
X23621040Y-1074560D03*
X23621040Y-574560D03*
X23621040Y-74560D03*
X23621040Y425440D03*
X23621040Y925440D03*
X23621040Y1425440D03*
X23621040Y1925440D03*
X23621040Y2425440D03*
X23621040Y2925440D03*
X23621040Y3425440D03*
X23621040Y3925440D03*
X23621040Y4425440D03*
X23621040Y4925440D03*
X23621040Y5425440D03*
X23621040Y5925440D03*
X23621040Y6425440D03*
X23621040Y6925440D03*
D22*
X20371040Y8825440D03*
X20371040Y-14474560D03*
D18*
X53198660Y6790680D03*
D19*
X53198660Y5990680D03*
X53198660Y5190680D03*
D18*
X53198660Y4390680D03*
X51398660Y4390680D03*
D19*
X51398660Y5190680D03*
X51398660Y5990680D03*
D18*
X51398660Y6790680D03*
X55470000Y-230000D03*
D19*
X55470000Y-1030000D03*
X55470000Y-1830000D03*
D18*
X55470000Y-2630000D03*
X53670000Y-2630000D03*
D19*
X53670000Y-1830000D03*
X53670000Y-1030000D03*
D18*
X53670000Y-230000D03*
D12*
X30490000Y-7500000D03*
X31510000Y-7500000D03*
D23*
X13515000Y-10650000D03*
X12495000Y-10650000D03*
D12*
X30490000Y-6000000D03*
X31510000Y-6000000D03*
X19391040Y13827760D03*
X20411040Y13827760D03*
D23*
X-6221000Y8128000D03*
X-7241000Y8128000D03*
D14*
X26031520Y12417940D03*
X26031520Y13437940D03*
D12*
X25990000Y-6000000D03*
X27010000Y-6000000D03*
D24*
X27135800Y-10139720D03*
X26485800Y-10139720D03*
X25835800Y-10139720D03*
X25835800Y-8239720D03*
X27135800Y-8239720D03*
D13*
X40291400Y4704080D03*
X41251400Y4704080D03*
D25*
X34541040Y-546560D03*
X35941040Y-1946560D03*
X37341040Y2253440D03*
X33141040Y853440D03*
X34541040Y853440D03*
X35941040Y2253440D03*
X33141040Y-546560D03*
X37341040Y-1946560D03*
X37341040Y-546560D03*
X33141040Y2253440D03*
X35941040Y853440D03*
X34541040Y-1946560D03*
X35941040Y-546560D03*
X37341040Y853440D03*
X33141040Y-1946560D03*
X34541040Y2253440D03*
D26*
X38678540Y2903440D03*
X38678540Y2403440D03*
X38678540Y1903440D03*
X38678540Y1403440D03*
X38678540Y903440D03*
X38678540Y403440D03*
X38678540Y-96560D03*
X38678540Y-596560D03*
X38678540Y-1096560D03*
X38678540Y-1596560D03*
X38678540Y-2096560D03*
X38678540Y-2596560D03*
D27*
X37991040Y-3284060D03*
X37491040Y-3284060D03*
X36991040Y-3284060D03*
X36491040Y-3284060D03*
X35991040Y-3284060D03*
X35491040Y-3284060D03*
X34991040Y-3284060D03*
X34491040Y-3284060D03*
X33991040Y-3284060D03*
X33491040Y-3284060D03*
X32991040Y-3284060D03*
X32491040Y-3284060D03*
D26*
X31803540Y-2596560D03*
X31803540Y-2096560D03*
X31803540Y-1596560D03*
X31803540Y-1096560D03*
X31803540Y-596560D03*
X31803540Y-96560D03*
X31803540Y403440D03*
X31803540Y903440D03*
X31803540Y1403440D03*
X31803540Y1903440D03*
X31803540Y2403440D03*
X31803540Y2903440D03*
D27*
X32491040Y3590940D03*
X32991040Y3590940D03*
X33491040Y3590940D03*
X33991040Y3590940D03*
X34491040Y3590940D03*
X34991040Y3590940D03*
X35491040Y3590940D03*
X35991040Y3590940D03*
X36491040Y3590940D03*
X36991040Y3590940D03*
X37491040Y3590940D03*
X37991040Y3590940D03*
D15*
X29580000Y-975000D03*
X28620000Y-975000D03*
D28*
X-4168140Y117820D03*
X-4168140Y-842180D03*
D15*
X-2520000Y3500000D03*
X-3480000Y3500000D03*
D29*
X-3590000Y-4275000D03*
X-3590000Y-3315000D03*
X1597720Y-3893620D03*
X1597720Y-2933620D03*
D28*
X27620000Y22520000D03*
X27620000Y21560000D03*
D30*
X-10650000Y-36923000D03*
X-10650000Y-39023000D03*
D23*
X-32300000Y16740000D03*
X-33320000Y16740000D03*
D31*
X-16200000Y-34705000D03*
X-16200000Y-35725000D03*
X210000Y4315000D03*
X210000Y3295000D03*
D14*
X-5600000Y145000D03*
X-5600000Y1165000D03*
D31*
X1560000Y4320000D03*
X1560000Y3300000D03*
D24*
X-38716980Y23429000D03*
X-38066980Y23429000D03*
X-37416980Y23429000D03*
X-37416980Y21529000D03*
X-38716980Y21529000D03*
D13*
X-4245000Y15840000D03*
X-3285000Y15840000D03*
D32*
X-15485000Y-37320000D03*
X-13610000Y-37320000D03*
D33*
X270000Y-3700640D03*
X-2230000Y-3700640D03*
D34*
X-2250000Y-1562500D03*
D35*
X-2262500Y-750000D03*
X-2262500Y-250000D03*
X-2262500Y250000D03*
X-2262500Y750000D03*
D34*
X-2250000Y1562500D03*
X-1750000Y1562500D03*
X-1250000Y1562500D03*
X-750000Y1562500D03*
X-250000Y1562500D03*
X250000Y1562500D03*
X750000Y1562500D03*
X1250000Y1562500D03*
X1750000Y1562500D03*
X2250000Y1562500D03*
D35*
X2262500Y750000D03*
X2262500Y250000D03*
X2262500Y-250000D03*
X2262500Y-750000D03*
D34*
X2250000Y-1562500D03*
X1750000Y-1562500D03*
X1250000Y-1562500D03*
X750000Y-1562500D03*
X250000Y-1562500D03*
X-250000Y-1562500D03*
X-750000Y-1562500D03*
X-1250000Y-1562500D03*
X-1750000Y-1562500D03*
D31*
X-5394720Y16842200D03*
X-5394720Y15822200D03*
X-4200000Y9835000D03*
X-4200000Y8815000D03*
D29*
X-7121920Y15877600D03*
X-7121920Y16837600D03*
D31*
X-7187960Y13235400D03*
X-7187960Y12215400D03*
D12*
X-30445000Y10755000D03*
X-29425000Y10755000D03*
D29*
X-29880320Y15776000D03*
X-29880320Y16736000D03*
D14*
X-30009720Y-248400D03*
X-30009720Y771600D03*
D31*
X-28510520Y-2291600D03*
X-28510520Y-3311600D03*
X-29880320Y13133800D03*
X-29880320Y12113800D03*
D36*
X-17150000Y-41370000D03*
X-17150000Y-40420000D03*
X-17150000Y-39470000D03*
X-14950000Y-39470000D03*
X-14950000Y-41370000D03*
D12*
X-15710000Y-43850000D03*
X-14690000Y-43850000D03*
D37*
X-27840381Y-44017497D03*
X-28032995Y-46219087D03*
X-20760774Y-46855324D03*
X-20568160Y-44653734D03*
D38*
X-21906181Y-43884189D03*
X-24894765Y-43622722D03*
X-26389057Y-43491988D03*
D28*
X-14880000Y-34865000D03*
X-14880000Y-35825000D03*
D39*
X-31896860Y13061800D03*
X-32846860Y13061800D03*
X-33796860Y13061800D03*
X-33796860Y15261800D03*
X-31896860Y15261800D03*
D23*
X-32413060Y11329700D03*
X-33433060Y11329700D03*
D40*
X-53868320Y14462800D03*
X-53868320Y12562800D03*
D12*
X12263520Y-3637280D03*
X13283520Y-3637280D03*
D14*
X-38950900Y18141220D03*
X-38950900Y19161220D03*
D31*
X1016000Y-35304000D03*
X1016000Y-36324000D03*
D29*
X-44150000Y26750000D03*
X-44150000Y27710000D03*
D31*
X-1016000Y-35304000D03*
X-1016000Y-36324000D03*
X26220420Y9267920D03*
X26220420Y8247920D03*
D15*
X33730000Y-6000000D03*
X32770000Y-6000000D03*
D41*
X29990900Y8271940D03*
D42*
X29190900Y8271940D03*
X28390900Y8271940D03*
D41*
X27590900Y8271940D03*
X27590900Y10071940D03*
D42*
X28390900Y10071940D03*
X29190900Y10071940D03*
D41*
X29990900Y10071940D03*
D15*
X29580000Y-2140000D03*
X28620000Y-2140000D03*
D43*
X-30321000Y-39934000D03*
X-28321000Y-39934000D03*
X-26321000Y-39934000D03*
D44*
X-32671000Y-34184000D03*
X-23971000Y-34184000D03*
D45*
X39405000Y-13475000D03*
X38135000Y-13475000D03*
X36865000Y-13475000D03*
X35595000Y-13475000D03*
X35595000Y-8525000D03*
X36865000Y-8525000D03*
X38135000Y-8525000D03*
X39405000Y-8525000D03*
D31*
X41000000Y-7740000D03*
X41000000Y-8760000D03*
D14*
X8390000Y-20935000D03*
X8390000Y-19915000D03*
D29*
X31877200Y-27406000D03*
X31877200Y-26446000D03*
X850000Y-8985000D03*
X850000Y-8025000D03*
D46*
X-3120000Y-7980000D03*
X-920000Y-7980000D03*
X-920000Y-9680000D03*
X-3120000Y-9680000D03*
D28*
X-4900000Y-8060000D03*
X-4900000Y-9020000D03*
D29*
X-7366000Y-25118000D03*
X-7366000Y-24158000D03*
D15*
X-9426000Y-15875000D03*
X-10386000Y-15875000D03*
D14*
X4968240Y-24579040D03*
X4968240Y-23559040D03*
D47*
X13782000Y-26035000D03*
X15682000Y-26035000D03*
D13*
X15070000Y-27686000D03*
X16030000Y-27686000D03*
X21491000Y-30480000D03*
X22451000Y-30480000D03*
D48*
X15040000Y-31099000D03*
X15040000Y-30599000D03*
X15040000Y-30099000D03*
X15040000Y-29599000D03*
X15040000Y-29099000D03*
X19250000Y-29099000D03*
X19250000Y-29599000D03*
X19250000Y-30099000D03*
X19250000Y-30599000D03*
X19250000Y-31099000D03*
D13*
X21491000Y-29464000D03*
X22451000Y-29464000D03*
D14*
X27507200Y-20410000D03*
X27507200Y-19390000D03*
D29*
X28707200Y-20380000D03*
X28707200Y-19420000D03*
D31*
X26307200Y-19390000D03*
X26307200Y-20410000D03*
D36*
X-40631900Y20091560D03*
X-40631900Y19141560D03*
X-40631900Y18191560D03*
X-42831900Y18191560D03*
X-42831900Y20091560D03*
D23*
X8710000Y16390100D03*
X7690000Y16390100D03*
D49*
X1275000Y17455000D03*
X2725000Y17455000D03*
D15*
X8680000Y17590100D03*
X7720000Y17590100D03*
X6727980Y18930000D03*
X5767980Y18930000D03*
D47*
X2297980Y21590100D03*
X4197980Y21590100D03*
D50*
X7662500Y20574000D03*
X5762500Y20574000D03*
D47*
X2297980Y19590100D03*
X4197980Y19590100D03*
D12*
X7690000Y15190100D03*
X8710000Y15190100D03*
D36*
X4147980Y15640100D03*
X4147980Y16590100D03*
X4147980Y17540100D03*
X6347980Y17540100D03*
X6347980Y15640100D03*
D12*
X-9379620Y-8550000D03*
X-8359620Y-8550000D03*
D39*
X-19590000Y-35210000D03*
X-18640000Y-35210000D03*
X-17690000Y-35210000D03*
X-17690000Y-37410000D03*
X-19590000Y-37410000D03*
D12*
X-18315000Y-33710000D03*
X-17295000Y-33710000D03*
D23*
X-20741620Y-39542580D03*
X-21761620Y-39542580D03*
D31*
X-30000000Y2875000D03*
X-30000000Y1855000D03*
D28*
X-34544000Y41120000D03*
X-34544000Y40160000D03*
D13*
X40520000Y903440D03*
X41480000Y903440D03*
D50*
X19261500Y-27178000D03*
X17361500Y-27178000D03*
D40*
X30707200Y-13955360D03*
X30707200Y-15855360D03*
D39*
X26757200Y-15805360D03*
X27707200Y-15805360D03*
X28657200Y-15805360D03*
X28657200Y-18005360D03*
X26757200Y-18005360D03*
D51*
X28625000Y-12920000D03*
X28625000Y-14370000D03*
D52*
X31750000Y-19407500D03*
X31750000Y-17507500D03*
D40*
X32707200Y-13955360D03*
X32707200Y-15855360D03*
D29*
X30075000Y-18440000D03*
X30075000Y-17480000D03*
X-13462000Y-42090000D03*
X-13462000Y-41130000D03*
D53*
X-40636860Y10337140D03*
X-41736860Y10337140D03*
X-42836860Y10337140D03*
X-43936860Y10337140D03*
X-45036860Y10337140D03*
X-46136860Y10337140D03*
X-47236860Y10337140D03*
X-48336860Y10337140D03*
D54*
X-37186860Y12887140D03*
X-50786860Y4637140D03*
X-50786860Y12937140D03*
X-37186860Y4637140D03*
D12*
X-54510000Y10500000D03*
X-53490000Y10500000D03*
X-54510000Y9500000D03*
X-53490000Y9500000D03*
X-54510000Y8500000D03*
X-53490000Y8500000D03*
X-54510000Y7500000D03*
X-53490000Y7500000D03*
X-54510000Y6500000D03*
X-53490000Y6500000D03*
X-54510000Y5500000D03*
X-53490000Y5500000D03*
D14*
X-381000Y-25529000D03*
X-381000Y-24509000D03*
D31*
X-1397000Y-24509000D03*
X-1397000Y-25529000D03*
D28*
X-563820Y-21610240D03*
X-563820Y-22570240D03*
X-2286000Y-21620460D03*
X-2286000Y-22580460D03*
D13*
X2314060Y-19936320D03*
X3274060Y-19936320D03*
D28*
X2395280Y-16093360D03*
X2395280Y-17053360D03*
X528380Y-21622940D03*
X528380Y-22582940D03*
D29*
X678180Y-11224200D03*
X678180Y-10264200D03*
D23*
X-7110000Y-22606000D03*
X-8130000Y-22606000D03*
D55*
X-6091780Y-19485780D03*
X-6091780Y-19085780D03*
X-6091780Y-18685780D03*
X-6091780Y-18285780D03*
X-6091780Y-17885780D03*
X-6091780Y-17485780D03*
X-6091780Y-17085780D03*
X-6091780Y-16685780D03*
X-6091780Y-16285780D03*
X-6091780Y-15885780D03*
X-6091780Y-15485780D03*
X-6091780Y-15085780D03*
X-6091780Y-14685780D03*
X-6091780Y-14285780D03*
D56*
X-5256780Y-13450780D03*
X-4856780Y-13450780D03*
X-4456780Y-13450780D03*
X-4056780Y-13450780D03*
X-3656780Y-13450780D03*
X-3256780Y-13450780D03*
X-2856780Y-13450780D03*
X-2456780Y-13450780D03*
X-2056780Y-13450780D03*
X-1656780Y-13450780D03*
X-1256780Y-13450780D03*
X-856780Y-13450780D03*
X-456780Y-13450780D03*
X-56780Y-13450780D03*
D55*
X778220Y-14285780D03*
X778220Y-14685780D03*
X778220Y-15085780D03*
X778220Y-15485780D03*
X778220Y-15885780D03*
X778220Y-16285780D03*
X778220Y-16685780D03*
X778220Y-17085780D03*
X778220Y-17485780D03*
X778220Y-17885780D03*
X778220Y-18285780D03*
X778220Y-18685780D03*
X778220Y-19085780D03*
X778220Y-19485780D03*
D56*
X-56780Y-20320780D03*
X-456780Y-20320780D03*
X-856780Y-20320780D03*
X-1256780Y-20320780D03*
X-1656780Y-20320780D03*
X-2056780Y-20320780D03*
X-2456780Y-20320780D03*
X-2856780Y-20320780D03*
X-3256780Y-20320780D03*
X-3656780Y-20320780D03*
X-4056780Y-20320780D03*
X-4456780Y-20320780D03*
X-4856780Y-20320780D03*
X-5256780Y-20320780D03*
D57*
X-9378920Y17020000D03*
X-9378920Y15750000D03*
X-9378920Y14480000D03*
X-9378920Y13210000D03*
X-9378920Y11940000D03*
X-9378920Y10670000D03*
X-9378920Y9400000D03*
X-9378920Y8130000D03*
X-9378920Y6860000D03*
X-9378920Y5590000D03*
X-9378920Y4320000D03*
X-9378920Y3050000D03*
X-9378920Y1780000D03*
X-9378920Y510000D03*
X-9378920Y-735000D03*
X-9378920Y-2005000D03*
X-9378920Y-3275000D03*
X-9378920Y-4545000D03*
X-9378920Y-5815000D03*
X-26378920Y-5815000D03*
X-26378920Y-4545000D03*
X-26378920Y-3275000D03*
X-26378920Y-2005000D03*
X-26378920Y-735000D03*
X-26378920Y510000D03*
X-26378920Y1780000D03*
X-26378920Y3050000D03*
X-26378920Y4320000D03*
X-26378920Y5590000D03*
X-26378920Y6860000D03*
X-26378920Y8130000D03*
X-26378920Y9400000D03*
X-26378920Y10670000D03*
X-26378920Y11940000D03*
X-26378920Y13210000D03*
X-26378920Y14480000D03*
X-26378920Y15750000D03*
X-26378920Y17020000D03*
D58*
X-16878920Y9520000D03*
D59*
X-6084000Y-22656000D03*
X-5584000Y-22656000D03*
X-5084000Y-22656000D03*
X-4584000Y-22656000D03*
X-4584000Y-25096000D03*
X-5084000Y-25096000D03*
X-5584000Y-25096000D03*
X-6084000Y-25096000D03*
D60*
X-5334000Y-23876000D03*
D29*
X-8277860Y-12374820D03*
X-8277860Y-11414820D03*
D15*
X36634360Y11785600D03*
X35674360Y11785600D03*
D61*
X39197040Y11784700D03*
X39197040Y10084700D03*
X37897040Y10084700D03*
X37897040Y11784700D03*
D29*
X1846580Y-11219120D03*
X1846580Y-10259120D03*
D23*
X-1499140Y-11536680D03*
X-2519140Y-11536680D03*
X-14690000Y-45100000D03*
X-15710000Y-45100000D03*
X-58303500Y5390000D03*
X-59323500Y5390000D03*
D52*
X27432000Y-38950000D03*
X27432000Y-37050000D03*
D14*
X34163000Y-27434000D03*
X34163000Y-26414000D03*
D62*
X13614400Y22150000D03*
X14615160Y22150000D03*
X15610840Y22150000D03*
X16611600Y22150000D03*
D63*
X12313920Y25822840D03*
X17912080Y25822840D03*
D31*
X33020000Y-26414000D03*
X33020000Y-27434000D03*
D14*
X38608000Y-38102000D03*
X38608000Y-37082000D03*
D52*
X37490400Y-31480800D03*
X37490400Y-29580800D03*
D18*
X-8023000Y-30975000D03*
D19*
X-8023000Y-30175000D03*
X-8023000Y-29375000D03*
D18*
X-8023000Y-28575000D03*
X-6223000Y-28575000D03*
D19*
X-6223000Y-29375000D03*
X-6223000Y-30175000D03*
D18*
X-6223000Y-30975000D03*
D12*
X30859000Y-25400000D03*
X31879000Y-25400000D03*
X12263520Y-4699000D03*
X13283520Y-4699000D03*
D52*
X33528000Y-38950000D03*
X33528000Y-37050000D03*
D23*
X13515000Y-9652000D03*
X12495000Y-9652000D03*
D13*
X-4253000Y-30975000D03*
X-3293000Y-30975000D03*
X24793000Y-25019000D03*
X25753000Y-25019000D03*
D64*
X32893000Y-34832200D03*
X31623000Y-34832200D03*
X30353000Y-34832200D03*
X29083000Y-34832200D03*
X29083000Y-29582200D03*
X30353000Y-29582200D03*
X31623000Y-29582200D03*
X32893000Y-29582200D03*
D52*
X31496000Y-38950000D03*
X31496000Y-37050000D03*
D14*
X29337000Y-27434000D03*
X29337000Y-26414000D03*
D13*
X-4253000Y-29375000D03*
X-3293000Y-29375000D03*
D28*
X37550000Y-37112000D03*
X37550000Y-38072000D03*
D40*
X35600000Y-37050000D03*
X35600000Y-38950000D03*
D18*
X12819890Y-29230000D03*
D19*
X12819890Y-30030000D03*
X12819890Y-30830000D03*
D18*
X12819890Y-31630000D03*
X11019890Y-31630000D03*
D19*
X11019890Y-30830000D03*
X11019890Y-30030000D03*
D18*
X11019890Y-29230000D03*
D14*
X28067000Y-27434000D03*
X28067000Y-26414000D03*
D29*
X-9271000Y-31055000D03*
X-9271000Y-30095000D03*
D13*
X25779000Y-27432000D03*
X26739000Y-27432000D03*
D65*
X44841000Y-28816000D03*
X46091000Y-28816000D03*
D66*
X42291000Y-25916000D03*
X48641000Y-25916000D03*
D67*
X-62200000Y6670000D03*
X-62200000Y8570000D03*
X-60325000Y7620000D03*
D29*
X27432000Y-34516000D03*
X27432000Y-33556000D03*
D14*
X25400000Y-38102000D03*
X25400000Y-37082000D03*
D23*
X29593000Y-9906000D03*
X28573000Y-9906000D03*
D68*
X-58262500Y8557500D03*
X-58262500Y6682500D03*
D12*
X25779000Y-26162000D03*
X26799000Y-26162000D03*
D23*
X-61732500Y5390000D03*
X-62752500Y5390000D03*
D40*
X29464000Y-37050000D03*
X29464000Y-38950000D03*
D52*
X35458400Y-31480800D03*
X35458400Y-29580800D03*
D28*
X24300000Y-37112000D03*
X24300000Y-38072000D03*
D15*
X30805000Y-24003000D03*
X29845000Y-24003000D03*
D14*
X-7112000Y9650000D03*
X-7112000Y10670000D03*
D69*
X19505911Y-46601324D03*
X26778132Y-45965087D03*
X26585518Y-43763497D03*
X19313297Y-44399734D03*
D70*
X25134194Y-43237988D03*
X22145610Y-43499455D03*
X20651318Y-43630189D03*
D52*
X24765000Y-31480800D03*
X24765000Y-29580800D03*
D71*
X3250000Y-39955000D03*
X2450000Y-39955000D03*
D72*
X1250000Y-39955000D03*
X250000Y-39955000D03*
X-250000Y-39955000D03*
X-1250000Y-39955000D03*
D71*
X-2450000Y-39955000D03*
X-3250000Y-39955000D03*
X-3250000Y-39955000D03*
X-2450000Y-39955000D03*
D72*
X-1750000Y-39955000D03*
X-750000Y-39955000D03*
X750000Y-39955000D03*
X1750000Y-39955000D03*
D71*
X2450000Y-39955000D03*
X3250000Y-39955000D03*
D52*
X26924000Y-31496000D03*
X26924000Y-29596000D03*
M02*
