M48
INCH,TZ
T1C0.0118
T2C0.0157
T3C0.0236
T4C0.0394
T5C0.1260
%
G90
G05
T1
X2665Y-13880
X2715Y-13420
X2760Y-6505
X3170Y-6490
X3514Y-23798
X3549Y-17121
X3549Y-22281
X3552Y-17486
X3875Y-6230
X4049Y-22281
X4060Y-24410
X4140Y-26690
X4160Y-12080
X4266Y-9907
X4477Y-3583
X4480Y-12080
X4515Y-3955
X4549Y-22281
X4642Y-28330
X4730Y-11005
X4900Y-12315
X4935Y-8555
X4950Y-25685
X4960Y-17370
X5010Y-6504
X5019Y-8009
X5049Y-22281
X5135Y-3700
X5135Y-3955
X5160Y-27805
X5311Y-8546
X5375Y-12720
X5375Y-6559
X5420Y-13315
X5549Y-22281
X5605Y-20490
X5606Y-14822
X5634Y-18923
X5634Y-19291
X5634Y-19660
X5645Y-13735
X5702Y-5276
X5704Y-6898
X5745Y-28750
X5853Y-7848
X5905Y-4804
X5970Y-8440
X6002Y-18923
X6002Y-19291
X6002Y-19660
X6018Y-5168
X6238Y-2232
X6365Y-28750
X6370Y-18923
X6370Y-19291
X6370Y-19660
X6480Y-24970
X6507Y-4378
X6549Y-22281
X6550Y-25675
X6690Y-7340
X6723Y-359
X6788Y-5312
X7015Y-7340
X7049Y-22281
X7065Y-3700
X7065Y-3955
X7120Y-8610
X7290Y-5265
X7352Y-26052
X7500Y-27585
X7540Y-15405
X7725Y-9190
X7795Y-28285
X7825Y-1913
X8025Y-9530
X8049Y-15076
X8380Y-25430
X8435Y-10395
X8498Y-9610
X8574Y-7574
X8838Y-4214
X8860Y-24461
X8902Y-8540
X9035Y-3647
X9066Y-5484
X9068Y-11750
X9464Y-10748
X9549Y-22281
X9666Y-6018
X9690Y-31990
X10039Y-17121
X10246Y-5474
X10650Y-14883
X10896Y-1566
X11088Y-7574
X11093Y-14961
X11106Y-3254
X11640Y-23871
X11640Y-24461
X12234Y-894
X13520Y-18616
X13702Y-2040
X13900Y-26500
X14070Y-18585
X14070Y-18945
X14070Y-19410
X14070Y-19850
X14070Y-20325
X14530Y-23290
X14544Y-14578
X15038Y-14602
X15358Y-2154
X15962Y-24888
X15963Y-20235
X15987Y-18540
X16062Y-2344
X16418Y-16711
X16418Y-22066
X16497Y-23625
X16634Y-5488
X16752Y-454
X16876Y-5010
X17070Y-6644
X17460Y-435
X17895Y-435
X18110Y-16711
X18110Y-22066
X18263Y-26780
X18280Y-25909
X18466Y-5332
X18470Y-5866
X18470Y-6262
X18488Y-6644
X18656Y-14596
X18660Y-19410
X18909Y-20481
X18932Y-19850
X19060Y-24360
X19210Y-265
X19301Y-26140
X19370Y-11743
X19400Y-28598
X19450Y-24355
X19666Y-19056
X19700Y-2500
X19781Y-18483
X19854Y-698
X20040Y-24660
X20069Y-25909
X20154Y-11496
X20154Y-22208
X20186Y-26973
X20308Y-10668
X20325Y-26140
X20496Y-7364
X20581Y-27070
X20690Y-22214
X20877Y-20171
X20985Y-27070
X21302Y-28068
X21424Y-2040
X21426Y-1630
X21702Y-894
X21710Y-395
X21758Y-7702
X22072Y-4026
X22185Y-22266
X22496Y-3810
X22574Y-24418
X22628Y-24008
X22675Y-27364
X22686Y-22257
X23342Y-2154
X23560Y-27706
X23971Y-905
X24275Y-14171
X24508Y-24062
X24522Y-24650
X25183Y-27723
X25287Y-558
X25807Y-23943
X26630Y-26500
X26704Y-8564
X26704Y-9192
X26922Y-23957
X27198Y-2154
X27546Y-15320
X27918Y-894
X28052Y-12500
X28415Y-17305
X28492Y-18048
X28500Y-12000
X28500Y-15850
X28500Y-17700
X28500Y-18400
X28501Y-18799
X28607Y-25127
X29480Y-37970
X29480Y-38620
X29592Y-18246
X29721Y-25928
X29724Y-10409
X29781Y-24263
X29982Y-16832
X30078Y-15401
X30115Y-13161
X30424Y-15806
X30575Y-12291
X30642Y-19537
X30758Y-18657
X31113Y-445
X31244Y-14854
X31254Y-13227
X31366Y-17224
X31514Y-17958
X31522Y-16510
X31674Y-19156
X31690Y-8634
X31712Y-35480
X31772Y-14100
X31772Y-14700
X32194Y-21306
X32265Y-19215
X32626Y-38421
X32800Y-31672
X32870Y-12244
X32909Y-17297
X32992Y-11811
X33074Y-23082
X33100Y-20458
X33104Y-21568
X33108Y-20832
X33112Y-11278
X33136Y-21168
X33201Y-14136
X33201Y-14529
X33201Y-14923
X33381Y-25420
X33594Y-14136
X33594Y-14529
X33594Y-14923
X33986Y-33647
X33988Y-14136
X33988Y-14529
X33988Y-14923
X34064Y-24583
X34084Y-26284
X34150Y-16946
X34178Y-17260
X34179Y-16583
X34257Y-30097
X34260Y-30560
X34305Y-25655
X34502Y-16860
X34714Y-19804
X34910Y-17250
X35091Y-32545
X35144Y-12618
X35220Y-32145
X35222Y-28158
X35331Y-12994
X35590Y-36490
X35664Y-14178
X35700Y-15284
X35828Y-16214
X35986Y-17250
X35988Y-18816
X36054Y-8998
X36054Y-9590
X36127Y-31014
X36130Y-26964
X36240Y-33430
X36430Y-15298
X36571Y-15722
X36634Y-21668
X36716Y-32777
X37220Y-34800
X37234Y-33076
X37334Y-12989
X37621Y-14200
X37970Y-34160
X37997Y-31833
X38711Y-32196
X38970Y-6620
X39005Y-17870
T2
X1102Y-1969
X1356Y-1356
X1356Y-2581
X1969Y-1102
X1969Y-2835
X2581Y-1356
X2581Y-2581
X2835Y-1969
X1102Y-37402
X1356Y-36789
X1356Y-38014
X1969Y-36535
X1969Y-38268
X2581Y-36789
X2581Y-38014
X2835Y-37402
X36535Y-1969
X36789Y-1356
X36789Y-2581
X37402Y-1102
X37402Y-2835
X38014Y-1356
X38014Y-2581
X38268Y-1969
X36535Y-37402
X36789Y-36789
X36789Y-38014
X37402Y-36535
X37402Y-38268
X38014Y-36789
X38014Y-38014
X38268Y-37402
T4
X1000Y-8500
X1000Y-9500
X1000Y-10500
X1000Y-11500
X1000Y-12500
X1000Y-13500
X940Y-4610
X940Y-5610
X940Y-6610
X1940Y-4610
X1940Y-5610
X1940Y-6610
X940Y-26772
X940Y-27772
X940Y-28772
X1940Y-26772
X1940Y-27772
X1940Y-28772
X29540Y-3370
X29540Y-4370
X30540Y-3370
X30540Y-4370
X31540Y-3370
X31540Y-4370
X32540Y-3370
X32540Y-4370
X33540Y-3370
X33540Y-4370
X34540Y-3370
X34540Y-4370
T5
X1969Y-1969
X1969Y-37402
X37402Y-1969
X37402Y-37402
T3
G00X4399Y-969
M15
G01X4399Y-1205
M16
G05
G00X4399Y-2516
M15
G01X4399Y-2949
M16
G05
G00X7801Y-969
M15
G01X7801Y-1205
M16
G05
G00X7801Y-2516
M15
G01X7801Y-2949
M16
G05
T0
M30
