G04 #@! TF.GenerationSoftware,KiCad,Pcbnew,5.1.9*
G04 #@! TF.CreationDate,2021-04-05T15:43:28+02:00*
G04 #@! TF.ProjectId,mch2021,6d636832-3032-4312-9e6b-696361645f70,1*
G04 #@! TF.SameCoordinates,Original*
G04 #@! TF.FileFunction,Profile,NP*
%FSLAX46Y46*%
G04 Gerber Fmt 4.6, Leading zero omitted, Abs format (unit mm)*
G04 Created by KiCad (PCBNEW 5.1.9) date 2021-04-05 15:43:28*
%MOMM*%
%LPD*%
G01*
G04 APERTURE LIST*
G04 #@! TA.AperFunction,Profile*
%ADD10C,0.050000*%
G04 #@! TD*
G04 #@! TA.AperFunction,Profile*
%ADD11C,0.200000*%
G04 #@! TD*
G04 #@! TA.AperFunction,Profile*
%ADD12C,0.100000*%
G04 #@! TD*
G04 APERTURE END LIST*
D10*
X9946380Y-14693240D02*
X9946380Y9026760D01*
X4946380Y-14693240D02*
X4946380Y9026760D01*
X9946380Y-14693240D02*
G75*
G02*
X4946380Y-14693240I-2500000J0D01*
G01*
X9946380Y9026760D02*
G75*
G03*
X4946380Y9026760I-2500000J0D01*
G01*
D11*
D12*
X29798000Y24235400D02*
X28808000Y25188800D01*
X28808000Y25188800D02*
X28540000Y25440400D01*
X28540000Y25440400D02*
X28278000Y25664200D01*
X28278000Y25664200D02*
X28005000Y25874200D01*
X28005000Y25874200D02*
X27704000Y26084400D01*
X27704000Y26084400D02*
X26999000Y26577900D01*
X26999000Y26577900D02*
X26387000Y27055000D01*
X26387000Y27055000D02*
X26225000Y27164400D01*
X26225000Y27164400D02*
X25977000Y27306300D01*
X25977000Y27306300D02*
X25398000Y27660700D01*
X25398000Y27660700D02*
X24891400Y27947700D01*
X24891400Y27947700D02*
X24722200Y28051600D01*
X24722200Y28051600D02*
X24665900Y28103700D01*
X24665900Y28103700D02*
X24562500Y28170300D01*
X24562500Y28170300D02*
X24227800Y28341200D01*
X24227800Y28341200D02*
X23743700Y28552300D01*
X23743700Y28552300D02*
X23136100Y28791600D01*
X23136100Y28791600D02*
X22185000Y29162600D01*
X22185000Y29162600D02*
X21925800Y29275600D01*
X21925800Y29275600D02*
X21803800Y29343400D01*
X21803800Y29343400D02*
X21727900Y29389500D01*
X21727900Y29389500D02*
X21634600Y29426500D01*
X21634600Y29426500D02*
X21384500Y29538600D01*
X21384500Y29538600D02*
X20931900Y29765400D01*
X20931900Y29765400D02*
X20413100Y30022300D01*
X20413100Y30022300D02*
X19960400Y30220300D01*
X19960400Y30220300D02*
X19543600Y30371500D01*
X19543600Y30371500D02*
X19132400Y30487900D01*
X19132400Y30487900D02*
X18372800Y30697400D01*
X18372800Y30697400D02*
X18037300Y30787400D01*
X18037300Y30787400D02*
X17593800Y30877900D01*
X17593800Y30877900D02*
X16305300Y31074700D01*
X16305300Y31074700D02*
X15269000Y31221900D01*
X15269000Y31221900D02*
X14698000Y31309100D01*
X14698000Y31309100D02*
X12815800Y31624500D01*
X12815800Y31624500D02*
X12388700Y31690800D01*
X12388700Y31690800D02*
X11919400Y31747500D01*
X11919400Y31747500D02*
X10875400Y31832400D01*
X10875400Y31832400D02*
X9725900Y31879600D01*
X9725900Y31879600D02*
X8513100Y31889300D01*
X8513100Y31889300D02*
X7279000Y31861900D01*
X7279000Y31861900D02*
X6065700Y31797700D01*
X6065700Y31797700D02*
X4915400Y31696900D01*
X4915400Y31696900D02*
X3870200Y31559900D01*
X3870200Y31559900D02*
X2831700Y31460700D01*
X2831700Y31460700D02*
X2138900Y31397700D01*
X2138900Y31397700D02*
X1605100Y31333600D01*
X1605100Y31333600D02*
X573800Y31189600D01*
X573800Y31189600D02*
X-592000Y31057700D01*
X-592000Y31057700D02*
X-3531600Y30739300D01*
X-3531600Y30739300D02*
X-4053200Y30674700D01*
X-4053200Y30674700D02*
X-5688700Y30505000D01*
X-5688700Y30505000D02*
X-6686200Y30398100D01*
X-6686200Y30398100D02*
X-7447500Y30302900D01*
X-7447500Y30302900D02*
X-8027300Y30211900D01*
X-8027300Y30211900D02*
X-8480300Y30117300D01*
X-8480300Y30117300D02*
X-9063100Y29989200D01*
X-9063100Y29989200D02*
X-9559000Y29904800D01*
X-9559000Y29904800D02*
X-9917800Y29870900D01*
X-9917800Y29870900D02*
X-10030100Y29875200D01*
X-10030100Y29875200D02*
X-10089300Y29894700D01*
X-10089300Y29894700D02*
X-10133500Y29921400D01*
X-10133500Y29921400D02*
X-10197000Y29933200D01*
X-10197000Y29933200D02*
X-10427600Y29914000D01*
X-10427600Y29914000D02*
X-11393100Y29778600D01*
X-11393100Y29778600D02*
X-12029800Y29710600D01*
X-12029800Y29710600D02*
X-12663300Y29686600D01*
X-12663300Y29686600D02*
X-13619200Y29682800D01*
X-13619200Y29682800D02*
X-14871300Y29694600D01*
X-14871300Y29694600D02*
X-15275700Y29710300D01*
X-15275700Y29710300D02*
X-15522600Y29732400D01*
X-15522600Y29732400D02*
X-16283900Y29831300D01*
X-16283900Y29831300D02*
X-17034000Y29948400D01*
X-17034000Y29948400D02*
X-18189800Y30158600D01*
X-18189800Y30158600D02*
X-19399200Y30395400D01*
X-19399200Y30395400D02*
X-20310100Y30592100D01*
X-20310100Y30592100D02*
X-20791600Y30732600D01*
X-20791600Y30732600D02*
X-21462900Y30953500D01*
X-21462900Y30953500D02*
X-22045300Y31145700D01*
X-22045300Y31145700D02*
X-22313300Y31217000D01*
X-22313300Y31217000D02*
X-22191300Y31062900D01*
X-22191300Y31062900D02*
X-21826700Y30654000D01*
X-21826700Y30654000D02*
X-20595000Y29320800D01*
X-20595000Y29320800D02*
X-18721500Y27297900D01*
X-18721500Y27297900D02*
X-18525500Y27060100D01*
X-18525500Y27060100D02*
X-18392200Y26941300D01*
X-18392200Y26941300D02*
X-18337800Y26920000D01*
X-18337800Y26920000D02*
X-18285500Y26920500D01*
X-18285500Y26920500D02*
X-18169500Y26976800D01*
X-18169500Y26976800D02*
X-17950200Y27101900D01*
X-17950200Y27101900D02*
X-17726500Y27191900D01*
X-17726500Y27191900D02*
X-17500900Y27248200D01*
X-17500900Y27248200D02*
X-17275800Y27272100D01*
X-17275800Y27272100D02*
X-17053900Y27265000D01*
X-17053900Y27265000D02*
X-16837500Y27228200D01*
X-16837500Y27228200D02*
X-16629200Y27163200D01*
X-16629200Y27163200D02*
X-16431400Y27071300D01*
X-16431400Y27071300D02*
X-16246800Y26953900D01*
X-16246800Y26953900D02*
X-16077700Y26812300D01*
X-16077700Y26812300D02*
X-15926700Y26648000D01*
X-15926700Y26648000D02*
X-15796300Y26462200D01*
X-15796300Y26462200D02*
X-15688900Y26256300D01*
X-15688900Y26256300D02*
X-15607100Y26031800D01*
X-15607100Y26031800D02*
X-15553400Y25790000D01*
X-15553400Y25790000D02*
X-15530200Y25532200D01*
X-15530200Y25532200D02*
X-15524000Y25419400D01*
X-15524000Y25419400D02*
X-15506000Y25330300D01*
X-15506000Y25330300D02*
X-15467400Y25259400D01*
X-15467400Y25259400D02*
X-15399400Y25201300D01*
X-15399400Y25201300D02*
X-15293100Y25150200D01*
X-15293100Y25150200D02*
X-15139600Y25100700D01*
X-15139600Y25100700D02*
X-14655500Y24984000D01*
X-14655500Y24984000D02*
X-14258000Y24904400D01*
X-14258000Y24904400D02*
X-13856600Y24847000D01*
X-13856600Y24847000D02*
X-13427100Y24811900D01*
X-13427100Y24811900D02*
X-12945000Y24798800D01*
X-12945000Y24798800D02*
X-12385900Y24807800D01*
X-12385900Y24807800D02*
X-11725400Y24838800D01*
X-11725400Y24838800D02*
X-10002900Y24966000D01*
X-10002900Y24966000D02*
X-8992100Y25009100D01*
X-8992100Y25009100D02*
X-7179600Y25053600D01*
X-7179600Y25053600D02*
X-4975900Y25091100D01*
X-4975900Y25091100D02*
X-2791400Y25113300D01*
X-2791400Y25113300D02*
X-1119100Y25137800D01*
X-1119100Y25137800D02*
X169300Y25181100D01*
X169300Y25181100D02*
X909600Y25207500D01*
X909600Y25207500D02*
X2095500Y25226100D01*
X2095500Y25226100D02*
X6133100Y25243600D01*
X6133100Y25243600D02*
X14000100Y25281200D01*
X14000100Y25281200D02*
X15864000Y25295000D01*
X15864000Y25295000D02*
X17176500Y25283000D01*
X17176500Y25283000D02*
X18222600Y25238300D01*
X18222600Y25238300D02*
X19287100Y25154100D01*
X19287100Y25154100D02*
X22121000Y24898000D01*
X22121000Y24898000D02*
X24667400Y24654000D01*
X24667400Y24654000D02*
X26579000Y24432200D01*
X26579000Y24432200D02*
X27370000Y24319800D01*
X27370000Y24319800D02*
X28091000Y24201200D01*
X28091000Y24201200D02*
X28770000Y24072700D01*
X28770000Y24072700D02*
X29438000Y23930200D01*
X29438000Y23930200D02*
X29944000Y23821800D01*
X29944000Y23821800D02*
X30196000Y23786500D01*
X30196000Y23786500D02*
X30206000Y23792900D01*
X30206000Y23792900D02*
X30198000Y23814700D01*
X30198000Y23814700D02*
X30130000Y23901700D01*
X30130000Y23901700D02*
X29798000Y24235400D01*
X29798000Y24235400D02*
X29798000Y24235400D01*
X29798000Y24235400D02*
X29798000Y24235400D01*
X7855600Y-46812300D02*
X6703000Y-46773400D01*
X6703000Y-46773400D02*
X5550500Y-46734500D01*
X5550500Y-46734500D02*
X4281600Y-46691800D01*
X4281600Y-46691800D02*
X3012700Y-46649100D01*
X3012700Y-46649100D02*
X2198300Y-46631200D01*
X2198300Y-46631200D02*
X1383800Y-46613300D01*
X1383800Y-46613300D02*
X168000Y-46598400D01*
X168000Y-46598400D02*
X-1047700Y-46583500D01*
X-1047700Y-46583500D02*
X-2331800Y-46568400D01*
X-2331800Y-46568400D02*
X-3615900Y-46553400D01*
X-3615900Y-46553400D02*
X-4594700Y-46535100D01*
X-4594700Y-46535100D02*
X-5573400Y-46516900D01*
X-5573400Y-46516900D02*
X-6934800Y-46500100D01*
X-6934800Y-46500100D02*
X-8296100Y-46483300D01*
X-8296100Y-46483300D02*
X-8968100Y-46483400D01*
X-8968100Y-46483400D02*
X-9640000Y-46483500D01*
X-9640000Y-46483500D02*
X-10049300Y-46490300D01*
X-10049300Y-46490300D02*
X-10458600Y-46497200D01*
X-10458600Y-46497200D02*
X-10946100Y-46514600D01*
X-10946100Y-46514600D02*
X-11433600Y-46532100D01*
X-11433600Y-46532100D02*
X-11973900Y-46540300D01*
X-11973900Y-46540300D02*
X-12514200Y-46548600D01*
X-12514200Y-46548600D02*
X-13067200Y-46547400D01*
X-13067200Y-46547400D02*
X-13620200Y-46546300D01*
X-13620200Y-46546300D02*
X-14145900Y-46535500D01*
X-14145900Y-46535500D02*
X-14671500Y-46524700D01*
X-14671500Y-46524700D02*
X-16699500Y-46468300D01*
X-16699500Y-46468300D02*
X-18727500Y-46411900D01*
X-18727500Y-46411900D02*
X-20276700Y-46371300D01*
X-20276700Y-46371300D02*
X-21825900Y-46330800D01*
X-21825900Y-46330800D02*
X-22684000Y-46300000D01*
X-22684000Y-46300000D02*
X-23542100Y-46269200D01*
X-23542100Y-46269200D02*
X-23814500Y-46252300D01*
X-23814500Y-46252300D02*
X-24086900Y-46235300D01*
X-24086900Y-46235300D02*
X-24309600Y-46214600D01*
X-24309600Y-46214600D02*
X-24532200Y-46193800D01*
X-24532200Y-46193800D02*
X-24992400Y-46132600D01*
X-24992400Y-46132600D02*
X-25452600Y-46071500D01*
X-25452600Y-46071500D02*
X-25864400Y-46009900D01*
X-25864400Y-46009900D02*
X-26276200Y-45948300D01*
X-26276200Y-45948300D02*
X-26541100Y-45896200D01*
X-26541100Y-45896200D02*
X-26806000Y-45844000D01*
X-26806000Y-45844000D02*
X-27129700Y-45785100D01*
X-27129700Y-45785100D02*
X-27453400Y-45726300D01*
X-27453400Y-45726300D02*
X-27954200Y-45647000D01*
X-27954200Y-45647000D02*
X-28455000Y-45567600D01*
X-28455000Y-45567600D02*
X-28995600Y-45488700D01*
X-28995600Y-45488700D02*
X-29536200Y-45409700D01*
X-29536200Y-45409700D02*
X-29979300Y-45352000D01*
X-29979300Y-45352000D02*
X-30422400Y-45294200D01*
X-30422400Y-45294200D02*
X-31085800Y-45210500D01*
X-31085800Y-45210500D02*
X-31749200Y-45126800D01*
X-31749200Y-45126800D02*
X-32266100Y-45042100D01*
X-32266100Y-45042100D02*
X-32783000Y-44957500D01*
X-32783000Y-44957500D02*
X-33007500Y-44910800D01*
X-33007500Y-44910800D02*
X-33232000Y-44864000D01*
X-33232000Y-44864000D02*
X-33445100Y-44812200D01*
X-33445100Y-44812200D02*
X-33658200Y-44760400D01*
X-33658200Y-44760400D02*
X-34083800Y-44635000D01*
X-34083800Y-44635000D02*
X-34509500Y-44509600D01*
X-34509500Y-44509600D02*
X-34703200Y-44452400D01*
X-34703200Y-44452400D02*
X-34896900Y-44395300D01*
X-34896900Y-44395300D02*
X-35124500Y-44337700D01*
X-35124500Y-44337700D02*
X-35352200Y-44280100D01*
X-35352200Y-44280100D02*
X-35867800Y-44173200D01*
X-35867800Y-44173200D02*
X-36383400Y-44066400D01*
X-36383400Y-44066400D02*
X-36725300Y-43992600D01*
X-36725300Y-43992600D02*
X-37067100Y-43918900D01*
X-37067100Y-43918900D02*
X-37189500Y-43884300D01*
X-37189500Y-43884300D02*
X-37311800Y-43849800D01*
X-37311800Y-43849800D02*
X-37370000Y-43824800D01*
X-37370000Y-43824800D02*
X-37428100Y-43799900D01*
X-37428100Y-43799900D02*
X-37449900Y-43789500D01*
X-37449900Y-43789500D02*
X-37471700Y-43779100D01*
X-37471700Y-43779100D02*
X-37503300Y-43774700D01*
X-37503300Y-43774700D02*
X-37535000Y-43770400D01*
X-37535000Y-43770400D02*
X-37641300Y-43744900D01*
X-37641300Y-43744900D02*
X-37747600Y-43719400D01*
X-37747600Y-43719400D02*
X-37943500Y-43660900D01*
X-37943500Y-43660900D02*
X-38139400Y-43602500D01*
X-38139400Y-43602500D02*
X-38337900Y-43538200D01*
X-38337900Y-43538200D02*
X-38536400Y-43473800D01*
X-38536400Y-43473800D02*
X-38650500Y-43430700D01*
X-38650500Y-43430700D02*
X-38764700Y-43387600D01*
X-38764700Y-43387600D02*
X-38800800Y-43373400D01*
X-38800800Y-43373400D02*
X-38837000Y-43359200D01*
X-38837000Y-43359200D02*
X-38872300Y-43353300D01*
X-38872300Y-43353300D02*
X-38907700Y-43347400D01*
X-38907700Y-43347400D02*
X-38951700Y-43335900D01*
X-38951700Y-43335900D02*
X-38995600Y-43324400D01*
X-38995600Y-43324400D02*
X-39052400Y-43296700D01*
X-39052400Y-43296700D02*
X-39109200Y-43269000D01*
X-39109200Y-43269000D02*
X-39255700Y-43210400D01*
X-39255700Y-43210400D02*
X-39402200Y-43151800D01*
X-39402200Y-43151800D02*
X-39670400Y-43071400D01*
X-39670400Y-43071400D02*
X-39938600Y-42991100D01*
X-39938600Y-42991100D02*
X-40297800Y-42897400D01*
X-40297800Y-42897400D02*
X-40657000Y-42803600D01*
X-40657000Y-42803600D02*
X-41076700Y-42705100D01*
X-41076700Y-42705100D02*
X-41496400Y-42606600D01*
X-41496400Y-42606600D02*
X-41610000Y-42576000D01*
X-41610000Y-42576000D02*
X-41723600Y-42545400D01*
X-41723600Y-42545400D02*
X-41808900Y-42513600D01*
X-41808900Y-42513600D02*
X-41894200Y-42481900D01*
X-41894200Y-42481900D02*
X-41949600Y-42459000D01*
X-41949600Y-42459000D02*
X-42005000Y-42436000D01*
X-42005000Y-42436000D02*
X-42046800Y-42426500D01*
X-42046800Y-42426500D02*
X-42088600Y-42416900D01*
X-42088600Y-42416900D02*
X-42144100Y-42398300D01*
X-42144100Y-42398300D02*
X-42199600Y-42379800D01*
X-42199600Y-42379800D02*
X-42288000Y-42335300D01*
X-42288000Y-42335300D02*
X-42376400Y-42290700D01*
X-42376400Y-42290700D02*
X-42497600Y-42234300D01*
X-42497600Y-42234300D02*
X-42618800Y-42177900D01*
X-42618800Y-42177900D02*
X-42753100Y-42131000D01*
X-42753100Y-42131000D02*
X-42887400Y-42084100D01*
X-42887400Y-42084100D02*
X-43026100Y-42036900D01*
X-43026100Y-42036900D02*
X-43164800Y-41989700D01*
X-43164800Y-41989700D02*
X-43296600Y-41932600D01*
X-43296600Y-41932600D02*
X-43428400Y-41875600D01*
X-43428400Y-41875600D02*
X-43948900Y-41618900D01*
X-43948900Y-41618900D02*
X-44469500Y-41362200D01*
X-44469500Y-41362200D02*
X-44783600Y-41224800D01*
X-44783600Y-41224800D02*
X-45097700Y-41087400D01*
X-45097700Y-41087400D02*
X-45331300Y-40985300D01*
X-45331300Y-40985300D02*
X-45564800Y-40883200D01*
X-45564800Y-40883200D02*
X-45856100Y-40742100D01*
X-45856100Y-40742100D02*
X-46147300Y-40601000D01*
X-46147300Y-40601000D02*
X-46557000Y-40399900D01*
X-46557000Y-40399900D02*
X-46966700Y-40198800D01*
X-46966700Y-40198800D02*
X-47097100Y-40142300D01*
X-47097100Y-40142300D02*
X-47227500Y-40085900D01*
X-47227500Y-40085900D02*
X-47326500Y-40050600D01*
X-47326500Y-40050600D02*
X-47425400Y-40015300D01*
X-47425400Y-40015300D02*
X-47721000Y-39924700D01*
X-47721000Y-39924700D02*
X-48016700Y-39834200D01*
X-48016700Y-39834200D02*
X-48270500Y-39750300D01*
X-48270500Y-39750300D02*
X-48524300Y-39666500D01*
X-48524300Y-39666500D02*
X-48629800Y-39621200D01*
X-48629800Y-39621200D02*
X-48735200Y-39575900D01*
X-48735200Y-39575900D02*
X-48884500Y-39521300D01*
X-48884500Y-39521300D02*
X-49033700Y-39466600D01*
X-49033700Y-39466600D02*
X-49400800Y-39348300D01*
X-49400800Y-39348300D02*
X-49767800Y-39229900D01*
X-49767800Y-39229900D02*
X-50121500Y-39131000D01*
X-50121500Y-39131000D02*
X-50475100Y-39032100D01*
X-50475100Y-39032100D02*
X-50607600Y-39001800D01*
X-50607600Y-39001800D02*
X-50740200Y-38971400D01*
X-50740200Y-38971400D02*
X-50822200Y-38960100D01*
X-50822200Y-38960100D02*
X-50904200Y-38948900D01*
X-50904200Y-38948900D02*
X-50945300Y-38942700D01*
X-50945300Y-38942700D02*
X-50986400Y-38936400D01*
X-50986400Y-38936400D02*
X-51003500Y-38921400D01*
X-51003500Y-38921400D02*
X-51020600Y-38906300D01*
X-51020600Y-38906300D02*
X-51028500Y-38898000D01*
X-51028500Y-38898000D02*
X-51036400Y-38889800D01*
X-51036400Y-38889800D02*
X-51058000Y-38882800D01*
X-51058000Y-38882800D02*
X-51079600Y-38875900D01*
X-51079600Y-38875900D02*
X-51150500Y-38869100D01*
X-51150500Y-38869100D02*
X-51221500Y-38862200D01*
X-51221500Y-38862200D02*
X-51316800Y-38852800D01*
X-51316800Y-38852800D02*
X-51412200Y-38843300D01*
X-51412200Y-38843300D02*
X-51500500Y-38822200D01*
X-51500500Y-38822200D02*
X-51588800Y-38801100D01*
X-51588800Y-38801100D02*
X-51652100Y-38783000D01*
X-51652100Y-38783000D02*
X-51715500Y-38764900D01*
X-51715500Y-38764900D02*
X-51751000Y-38763000D01*
X-51751000Y-38763000D02*
X-51786500Y-38761200D01*
X-51786500Y-38761200D02*
X-51824400Y-38759300D01*
X-51824400Y-38759300D02*
X-51862400Y-38757500D01*
X-51862400Y-38757500D02*
X-51931600Y-38739500D01*
X-51931600Y-38739500D02*
X-52000800Y-38721400D01*
X-52000800Y-38721400D02*
X-52229700Y-38666200D01*
X-52229700Y-38666200D02*
X-52458600Y-38611000D01*
X-52458600Y-38611000D02*
X-52655800Y-38567900D01*
X-52655800Y-38567900D02*
X-52853000Y-38524900D01*
X-52853000Y-38524900D02*
X-53226800Y-38428800D01*
X-53226800Y-38428800D02*
X-53600600Y-38332600D01*
X-53600600Y-38332600D02*
X-53791000Y-38277100D01*
X-53791000Y-38277100D02*
X-53981300Y-38221500D01*
X-53981300Y-38221500D02*
X-54352300Y-38115500D01*
X-54352300Y-38115500D02*
X-54723300Y-38009500D01*
X-54723300Y-38009500D02*
X-55049200Y-37933400D01*
X-55049200Y-37933400D02*
X-55375100Y-37857400D01*
X-55375100Y-37857400D02*
X-55701500Y-37802000D01*
X-55701500Y-37802000D02*
X-56027900Y-37746600D01*
X-56027900Y-37746600D02*
X-56400300Y-37702800D01*
X-56400300Y-37702800D02*
X-56772800Y-37659000D01*
X-56772800Y-37659000D02*
X-57206400Y-37606700D01*
X-57206400Y-37606700D02*
X-57639900Y-37554300D01*
X-57639900Y-37554300D02*
X-57862000Y-37521300D01*
X-57862000Y-37521300D02*
X-58084000Y-37488200D01*
X-58084000Y-37488200D02*
X-58351000Y-37439600D01*
X-58351000Y-37439600D02*
X-58618000Y-37391000D01*
X-58618000Y-37391000D02*
X-58968100Y-37305800D01*
X-58968100Y-37305800D02*
X-59318200Y-37220700D01*
X-59318200Y-37220700D02*
X-59669000Y-37120800D01*
X-59669000Y-37120800D02*
X-60019900Y-37020900D01*
X-60019900Y-37020900D02*
X-60289100Y-36927900D01*
X-60289100Y-36927900D02*
X-60558300Y-36834900D01*
X-60558300Y-36834900D02*
X-60766500Y-36763000D01*
X-60766500Y-36763000D02*
X-60974700Y-36691000D01*
X-60974700Y-36691000D02*
X-61295200Y-36594200D01*
X-61295200Y-36594200D02*
X-61615700Y-36497400D01*
X-61615700Y-36497400D02*
X-61830900Y-36428800D01*
X-61830900Y-36428800D02*
X-62046100Y-36360100D01*
X-62046100Y-36360100D02*
X-62236900Y-36289100D01*
X-62236900Y-36289100D02*
X-62427600Y-36218000D01*
X-62427600Y-36218000D02*
X-62613100Y-36145300D01*
X-62613100Y-36145300D02*
X-62798500Y-36072500D01*
X-62798500Y-36072500D02*
X-62892500Y-36020800D01*
X-62892500Y-36020800D02*
X-62986600Y-35969200D01*
X-62986600Y-35969200D02*
X-63048000Y-35936400D01*
X-63048000Y-35936400D02*
X-63109500Y-35903500D01*
X-63109500Y-35903500D02*
X-63142300Y-35897100D01*
X-63142300Y-35897100D02*
X-63175100Y-35890600D01*
X-63175100Y-35890600D02*
X-63187600Y-35889500D01*
X-63187600Y-35889500D02*
X-63200100Y-35888500D01*
X-63200100Y-35888500D02*
X-63212800Y-35868500D01*
X-63212800Y-35868500D02*
X-63225500Y-35848500D01*
X-63225500Y-35848500D02*
X-63266700Y-35808200D01*
X-63266700Y-35808200D02*
X-63307900Y-35767900D01*
X-63307900Y-35767900D02*
X-63388800Y-35718100D01*
X-63388800Y-35718100D02*
X-63469700Y-35668200D01*
X-63469700Y-35668200D02*
X-63666900Y-35552600D01*
X-63666900Y-35552600D02*
X-63864000Y-35437100D01*
X-63864000Y-35437100D02*
X-63996200Y-35364200D01*
X-63996200Y-35364200D02*
X-64128400Y-35291300D01*
X-64128400Y-35291300D02*
X-64159600Y-35276000D01*
X-64159600Y-35276000D02*
X-64190900Y-35260800D01*
X-64190900Y-35260800D02*
X-64203900Y-35243900D01*
X-64203900Y-35243900D02*
X-64217000Y-35227100D01*
X-64217000Y-35227100D02*
X-64235300Y-35210400D01*
X-64235300Y-35210400D02*
X-64253500Y-35193600D01*
X-64253500Y-35193600D02*
X-64297500Y-35178700D01*
X-64297500Y-35178700D02*
X-64341400Y-35163700D01*
X-64341400Y-35163700D02*
X-64409000Y-35137100D01*
X-64409000Y-35137100D02*
X-64476600Y-35110500D01*
X-64476600Y-35110500D02*
X-64551700Y-35065800D01*
X-64551700Y-35065800D02*
X-64626900Y-35021200D01*
X-64626900Y-35021200D02*
X-64803600Y-34907800D01*
X-64803600Y-34907800D02*
X-64980400Y-34794500D01*
X-64980400Y-34794500D02*
X-65079020Y-34729800D01*
X-65079020Y-34729800D02*
X-65177650Y-34665200D01*
X-65177650Y-34665200D02*
X-65279560Y-34588000D01*
X-65279560Y-34588000D02*
X-65381480Y-34510700D01*
X-65381480Y-34510700D02*
X-65462020Y-34449800D01*
X-65462020Y-34449800D02*
X-65542550Y-34389000D01*
X-65542550Y-34389000D02*
X-65589750Y-34363700D01*
X-65589750Y-34363700D02*
X-65636950Y-34338400D01*
X-65636950Y-34338400D02*
X-65707290Y-34301100D01*
X-65707290Y-34301100D02*
X-65777620Y-34263800D01*
X-65777620Y-34263800D02*
X-65913790Y-34174200D01*
X-65913790Y-34174200D02*
X-66049950Y-34084600D01*
X-66049950Y-34084600D02*
X-66184550Y-33995000D01*
X-66184550Y-33995000D02*
X-66319160Y-33905400D01*
X-66319160Y-33905400D02*
X-66385740Y-33868100D01*
X-66385740Y-33868100D02*
X-66452320Y-33830800D01*
X-66452320Y-33830800D02*
X-66481890Y-33815200D01*
X-66481890Y-33815200D02*
X-66511460Y-33799700D01*
X-66511460Y-33799700D02*
X-66557080Y-33762400D01*
X-66557080Y-33762400D02*
X-66602690Y-33725100D01*
X-66602690Y-33725100D02*
X-66648410Y-33687700D01*
X-66648410Y-33687700D02*
X-66694120Y-33650400D01*
X-66694120Y-33650400D02*
X-66723920Y-33634900D01*
X-66723920Y-33634900D02*
X-66753730Y-33619300D01*
X-66753730Y-33619300D02*
X-66796750Y-33591800D01*
X-66796750Y-33591800D02*
X-66839770Y-33564300D01*
X-66839770Y-33564300D02*
X-66917260Y-33498200D01*
X-66917260Y-33498200D02*
X-66994750Y-33432000D01*
X-66994750Y-33432000D02*
X-67223680Y-33231200D01*
X-67223680Y-33231200D02*
X-67452610Y-33030400D01*
X-67452610Y-33030400D02*
X-67616510Y-32891400D01*
X-67616510Y-32891400D02*
X-67780400Y-32752500D01*
X-67780400Y-32752500D02*
X-67812400Y-32730000D01*
X-67812400Y-32730000D02*
X-67844400Y-32707500D01*
X-67844400Y-32707500D02*
X-67869360Y-32698100D01*
X-67869360Y-32698100D02*
X-67894320Y-32688800D01*
X-67894320Y-32688800D02*
X-67916530Y-32678000D01*
X-67916530Y-32678000D02*
X-67938730Y-32667100D01*
X-67938730Y-32667100D02*
X-67964110Y-32641000D01*
X-67964110Y-32641000D02*
X-67989490Y-32614800D01*
X-67989490Y-32614800D02*
X-68036960Y-32573800D01*
X-68036960Y-32573800D02*
X-68084430Y-32532900D01*
X-68084430Y-32532900D02*
X-68159760Y-32486400D01*
X-68159760Y-32486400D02*
X-68235090Y-32439800D01*
X-68235090Y-32439800D02*
X-68324300Y-32383200D01*
X-68324300Y-32383200D02*
X-68413520Y-32326600D01*
X-68413520Y-32326600D02*
X-68494380Y-32261500D01*
X-68494380Y-32261500D02*
X-68575240Y-32196500D01*
X-68575240Y-32196500D02*
X-68635490Y-32146300D01*
X-68635490Y-32146300D02*
X-68695740Y-32096100D01*
X-68695740Y-32096100D02*
X-68735400Y-32075300D01*
X-68735400Y-32075300D02*
X-68775060Y-32054400D01*
X-68775060Y-32054400D02*
X-68803030Y-32034200D01*
X-68803030Y-32034200D02*
X-68831010Y-32014000D01*
X-68831010Y-32014000D02*
X-68863170Y-31965500D01*
X-68863170Y-31965500D02*
X-68895320Y-31916900D01*
X-68895320Y-31916900D02*
X-68928610Y-31863400D01*
X-68928610Y-31863400D02*
X-68961900Y-31809900D01*
X-68961900Y-31809900D02*
X-68992600Y-31777700D01*
X-68992600Y-31777700D02*
X-69023300Y-31745600D01*
X-69023300Y-31745600D02*
X-69043680Y-31724600D01*
X-69043680Y-31724600D02*
X-69064060Y-31703700D01*
X-69064060Y-31703700D02*
X-69072540Y-31677100D01*
X-69072540Y-31677100D02*
X-69081010Y-31650500D01*
X-69081010Y-31650500D02*
X-69086670Y-31628800D01*
X-69086670Y-31628800D02*
X-69092330Y-31607100D01*
X-69092330Y-31607100D02*
X-69105930Y-31598100D01*
X-69105930Y-31598100D02*
X-69119530Y-31589100D01*
X-69119530Y-31589100D02*
X-69146420Y-31562700D01*
X-69146420Y-31562700D02*
X-69173310Y-31536300D01*
X-69173310Y-31536300D02*
X-69210910Y-31472800D01*
X-69210910Y-31472800D02*
X-69248500Y-31409400D01*
X-69248500Y-31409400D02*
X-69314280Y-31285800D01*
X-69314280Y-31285800D02*
X-69380070Y-31162100D01*
X-69380070Y-31162100D02*
X-69479970Y-31000100D01*
X-69479970Y-31000100D02*
X-69579870Y-30838200D01*
X-69579870Y-30838200D02*
X-69626040Y-30754200D01*
X-69626040Y-30754200D02*
X-69672220Y-30670300D01*
X-69672220Y-30670300D02*
X-69684680Y-30624400D01*
X-69684680Y-30624400D02*
X-69697150Y-30578600D01*
X-69697150Y-30578600D02*
X-69698800Y-30557300D01*
X-69698800Y-30557300D02*
X-69700440Y-30536000D01*
X-69700440Y-30536000D02*
X-69720580Y-30511000D01*
X-69720580Y-30511000D02*
X-69740730Y-30486000D01*
X-69740730Y-30486000D02*
X-69793210Y-30412700D01*
X-69793210Y-30412700D02*
X-69845690Y-30339400D01*
X-69845690Y-30339400D02*
X-69916420Y-30201700D01*
X-69916420Y-30201700D02*
X-69987150Y-30063900D01*
X-69987150Y-30063900D02*
X-70064380Y-29886800D01*
X-70064380Y-29886800D02*
X-70141620Y-29709600D01*
X-70141620Y-29709600D02*
X-70213610Y-29517900D01*
X-70213610Y-29517900D02*
X-70285610Y-29326300D01*
X-70285610Y-29326300D02*
X-70369610Y-29107800D01*
X-70369610Y-29107800D02*
X-70453620Y-28889400D01*
X-70453620Y-28889400D02*
X-70543360Y-28690900D01*
X-70543360Y-28690900D02*
X-70633110Y-28492400D01*
X-70633110Y-28492400D02*
X-70728730Y-28291500D01*
X-70728730Y-28291500D02*
X-70824340Y-28090600D01*
X-70824340Y-28090600D02*
X-70852080Y-28052900D01*
X-70852080Y-28052900D02*
X-70879810Y-28015100D01*
X-70879810Y-28015100D02*
X-70908970Y-27969100D01*
X-70908970Y-27969100D02*
X-70938130Y-27923100D01*
X-70938130Y-27923100D02*
X-70971800Y-27842200D01*
X-70971800Y-27842200D02*
X-71005470Y-27761300D01*
X-71005470Y-27761300D02*
X-71071500Y-27589000D01*
X-71071500Y-27589000D02*
X-71137530Y-27416600D01*
X-71137530Y-27416600D02*
X-71158110Y-27353700D01*
X-71158110Y-27353700D02*
X-71178690Y-27290900D01*
X-71178690Y-27290900D02*
X-71187250Y-27233400D01*
X-71187250Y-27233400D02*
X-71195820Y-27175900D01*
X-71195820Y-27175900D02*
X-71202630Y-27133700D01*
X-71202630Y-27133700D02*
X-71209440Y-27091600D01*
X-71209440Y-27091600D02*
X-71225810Y-27065700D01*
X-71225810Y-27065700D02*
X-71242180Y-27039800D01*
X-71242180Y-27039800D02*
X-71256080Y-27012900D01*
X-71256080Y-27012900D02*
X-71269990Y-26985900D01*
X-71269990Y-26985900D02*
X-71270860Y-26941300D01*
X-71270860Y-26941300D02*
X-71271740Y-26896700D01*
X-71271740Y-26896700D02*
X-71273290Y-26849300D01*
X-71273290Y-26849300D02*
X-71274840Y-26801900D01*
X-71274840Y-26801900D02*
X-71290370Y-26768300D01*
X-71290370Y-26768300D02*
X-71305890Y-26734700D01*
X-71305890Y-26734700D02*
X-71327860Y-26691100D01*
X-71327860Y-26691100D02*
X-71349820Y-26647600D01*
X-71349820Y-26647600D02*
X-71366840Y-26576400D01*
X-71366840Y-26576400D02*
X-71383870Y-26505200D01*
X-71383870Y-26505200D02*
X-71464860Y-26018900D01*
X-71464860Y-26018900D02*
X-71545840Y-25532600D01*
X-71545840Y-25532600D02*
X-71614620Y-25187700D01*
X-71614620Y-25187700D02*
X-71683400Y-24842900D01*
X-71683400Y-24842900D02*
X-71712990Y-24717200D01*
X-71712990Y-24717200D02*
X-71742590Y-24591400D01*
X-71742590Y-24591400D02*
X-71765270Y-24461700D01*
X-71765270Y-24461700D02*
X-71787950Y-24332100D01*
X-71787950Y-24332100D02*
X-71799670Y-24226200D01*
X-71799670Y-24226200D02*
X-71811400Y-24120300D01*
X-71811400Y-24120300D02*
X-71808120Y-24065800D01*
X-71808120Y-24065800D02*
X-71804850Y-24011200D01*
X-71804850Y-24011200D02*
X-71802700Y-23990700D01*
X-71802700Y-23990700D02*
X-71800550Y-23970100D01*
X-71800550Y-23970100D02*
X-71814850Y-23952200D01*
X-71814850Y-23952200D02*
X-71829140Y-23934200D01*
X-71829140Y-23934200D02*
X-71852610Y-23880200D01*
X-71852610Y-23880200D02*
X-71876070Y-23826100D01*
X-71876070Y-23826100D02*
X-71895950Y-23718600D01*
X-71895950Y-23718600D02*
X-71915840Y-23611200D01*
X-71915840Y-23611200D02*
X-71953990Y-23349400D01*
X-71953990Y-23349400D02*
X-71992150Y-23087600D01*
X-71992150Y-23087600D02*
X-72018220Y-22908300D01*
X-72018220Y-22908300D02*
X-72044280Y-22729100D01*
X-72044280Y-22729100D02*
X-72066080Y-22524500D01*
X-72066080Y-22524500D02*
X-72087880Y-22319900D01*
X-72087880Y-22319900D02*
X-72100410Y-22145500D01*
X-72100410Y-22145500D02*
X-72112940Y-21971000D01*
X-72112940Y-21971000D02*
X-72111160Y-21882100D01*
X-72111160Y-21882100D02*
X-72109390Y-21793300D01*
X-72109390Y-21793300D02*
X-72105650Y-21761700D01*
X-72105650Y-21761700D02*
X-72101910Y-21730000D01*
X-72101910Y-21730000D02*
X-72111730Y-21703000D01*
X-72111730Y-21703000D02*
X-72121550Y-21675900D01*
X-72121550Y-21675900D02*
X-72139280Y-21593900D01*
X-72139280Y-21593900D02*
X-72157010Y-21511900D01*
X-72157010Y-21511900D02*
X-72172270Y-21348100D01*
X-72172270Y-21348100D02*
X-72187530Y-21184300D01*
X-72187530Y-21184300D02*
X-72206310Y-20991600D01*
X-72206310Y-20991600D02*
X-72225090Y-20799000D01*
X-72225090Y-20799000D02*
X-72251280Y-20647800D01*
X-72251280Y-20647800D02*
X-72277470Y-20496500D01*
X-72277470Y-20496500D02*
X-72299740Y-20390300D01*
X-72299740Y-20390300D02*
X-72322010Y-20284100D01*
X-72322010Y-20284100D02*
X-72331370Y-20200000D01*
X-72331370Y-20200000D02*
X-72340730Y-20115800D01*
X-72340730Y-20115800D02*
X-72368250Y-19070300D01*
X-72368250Y-19070300D02*
X-72395770Y-18024900D01*
X-72395770Y-18024900D02*
X-72397190Y-17843300D01*
X-72397190Y-17843300D02*
X-72398610Y-17661600D01*
X-72398610Y-17661600D02*
X-72392950Y-17616100D01*
X-72392950Y-17616100D02*
X-72387290Y-17570500D01*
X-72387290Y-17570500D02*
X-72377250Y-17553000D01*
X-72377250Y-17553000D02*
X-72367220Y-17535500D01*
X-72367220Y-17535500D02*
X-72357500Y-17527400D01*
X-72357500Y-17527400D02*
X-72347790Y-17519300D01*
X-72347790Y-17519300D02*
X-72344700Y-17502600D01*
X-72344700Y-17502600D02*
X-72341610Y-17485900D01*
X-72341610Y-17485900D02*
X-72355370Y-17419700D01*
X-72355370Y-17419700D02*
X-72369140Y-17353500D01*
X-72369140Y-17353500D02*
X-72379510Y-17276000D01*
X-72379510Y-17276000D02*
X-72389880Y-17198500D01*
X-72389880Y-17198500D02*
X-72397600Y-17056600D01*
X-72397600Y-17056600D02*
X-72405330Y-16914700D01*
X-72405330Y-16914700D02*
X-72412580Y-16509000D01*
X-72412580Y-16509000D02*
X-72419830Y-16103300D01*
X-72419830Y-16103300D02*
X-72415700Y-15653600D01*
X-72415700Y-15653600D02*
X-72411580Y-15204000D01*
X-72411580Y-15204000D02*
X-72395570Y-14852700D01*
X-72395570Y-14852700D02*
X-72379560Y-14501500D01*
X-72379560Y-14501500D02*
X-72352000Y-14031400D01*
X-72352000Y-14031400D02*
X-72324430Y-13561400D01*
X-72324430Y-13561400D02*
X-72316010Y-13397300D01*
X-72316010Y-13397300D02*
X-72307580Y-13233200D01*
X-72307580Y-13233200D02*
X-72296350Y-13157200D01*
X-72296350Y-13157200D02*
X-72285110Y-13081200D01*
X-72285110Y-13081200D02*
X-72281580Y-13056600D01*
X-72281580Y-13056600D02*
X-72278050Y-13031900D01*
X-72278050Y-13031900D02*
X-72288150Y-12991300D01*
X-72288150Y-12991300D02*
X-72298240Y-12950600D01*
X-72298240Y-12950600D02*
X-72313350Y-12899300D01*
X-72313350Y-12899300D02*
X-72328470Y-12847900D01*
X-72328470Y-12847900D02*
X-72331760Y-12804100D01*
X-72331760Y-12804100D02*
X-72335060Y-12760400D01*
X-72335060Y-12760400D02*
X-72326510Y-12723900D01*
X-72326510Y-12723900D02*
X-72317960Y-12687400D01*
X-72317960Y-12687400D02*
X-72297530Y-12657800D01*
X-72297530Y-12657800D02*
X-72277110Y-12628100D01*
X-72277110Y-12628100D02*
X-72259270Y-12599600D01*
X-72259270Y-12599600D02*
X-72241430Y-12571200D01*
X-72241430Y-12571200D02*
X-72251090Y-12547100D01*
X-72251090Y-12547100D02*
X-72260750Y-12523000D01*
X-72260750Y-12523000D02*
X-72273060Y-12481400D01*
X-72273060Y-12481400D02*
X-72285370Y-12439800D01*
X-72285370Y-12439800D02*
X-72282040Y-12367500D01*
X-72282040Y-12367500D02*
X-72278700Y-12295200D01*
X-72278700Y-12295200D02*
X-72252870Y-11748800D01*
X-72252870Y-11748800D02*
X-72227040Y-11202400D01*
X-72227040Y-11202400D02*
X-72212370Y-10870400D01*
X-72212370Y-10870400D02*
X-72197700Y-10538400D01*
X-72197700Y-10538400D02*
X-72180140Y-10378700D01*
X-72180140Y-10378700D02*
X-72162590Y-10219000D01*
X-72162590Y-10219000D02*
X-72153620Y-10191500D01*
X-72153620Y-10191500D02*
X-72144660Y-10164000D01*
X-72144660Y-10164000D02*
X-72155910Y-10154500D01*
X-72155910Y-10154500D02*
X-72167160Y-10145000D01*
X-72167160Y-10145000D02*
X-72176150Y-10136300D01*
X-72176150Y-10136300D02*
X-72185140Y-10127600D01*
X-72185140Y-10127600D02*
X-72191720Y-10103900D01*
X-72191720Y-10103900D02*
X-72198290Y-10080300D01*
X-72198290Y-10080300D02*
X-72204070Y-10002200D01*
X-72204070Y-10002200D02*
X-72209850Y-9924100D01*
X-72209850Y-9924100D02*
X-72205590Y-9828800D01*
X-72205590Y-9828800D02*
X-72201340Y-9733500D01*
X-72201340Y-9733500D02*
X-72186800Y-9649500D01*
X-72186800Y-9649500D02*
X-72172260Y-9565500D01*
X-72172260Y-9565500D02*
X-72163650Y-9516000D01*
X-72163650Y-9516000D02*
X-72155040Y-9466400D01*
X-72155040Y-9466400D02*
X-72161500Y-9442100D01*
X-72161500Y-9442100D02*
X-72167960Y-9417700D01*
X-72167960Y-9417700D02*
X-72174570Y-9332400D01*
X-72174570Y-9332400D02*
X-72181190Y-9247100D01*
X-72181190Y-9247100D02*
X-72172960Y-9051100D01*
X-72172960Y-9051100D02*
X-72164730Y-8855000D01*
X-72164730Y-8855000D02*
X-72124440Y-8167600D01*
X-72124440Y-8167600D02*
X-72084140Y-7480300D01*
X-72084140Y-7480300D02*
X-72046360Y-6880000D01*
X-72046360Y-6880000D02*
X-72008570Y-6279700D01*
X-72008570Y-6279700D02*
X-71990260Y-6171600D01*
X-71990260Y-6171600D02*
X-71971950Y-6063600D01*
X-71971950Y-6063600D02*
X-71946180Y-6010600D01*
X-71946180Y-6010600D02*
X-71920410Y-5957700D01*
X-71920410Y-5957700D02*
X-71885650Y-5895900D01*
X-71885650Y-5895900D02*
X-71850890Y-5834000D01*
X-71850890Y-5834000D02*
X-71829270Y-5733200D01*
X-71829270Y-5733200D02*
X-71807660Y-5632400D01*
X-71807660Y-5632400D02*
X-71792380Y-5438300D01*
X-71792380Y-5438300D02*
X-71777100Y-5244200D01*
X-71777100Y-5244200D02*
X-71761360Y-4902300D01*
X-71761360Y-4902300D02*
X-71745620Y-4560400D01*
X-71745620Y-4560400D02*
X-71727780Y-4217600D01*
X-71727780Y-4217600D02*
X-71709930Y-3874900D01*
X-71709930Y-3874900D02*
X-71685780Y-3626200D01*
X-71685780Y-3626200D02*
X-71661620Y-3377500D01*
X-71661620Y-3377500D02*
X-71623780Y-3168300D01*
X-71623780Y-3168300D02*
X-71585930Y-2959100D01*
X-71585930Y-2959100D02*
X-71527000Y-2734800D01*
X-71527000Y-2734800D02*
X-71468080Y-2510500D01*
X-71468080Y-2510500D02*
X-71422030Y-2335100D01*
X-71422030Y-2335100D02*
X-71375970Y-2159700D01*
X-71375970Y-2159700D02*
X-71345520Y-2005200D01*
X-71345520Y-2005200D02*
X-71315070Y-1850600D01*
X-71315070Y-1850600D02*
X-71298870Y-1708400D01*
X-71298870Y-1708400D02*
X-71282680Y-1566300D01*
X-71282680Y-1566300D02*
X-71279420Y-1428000D01*
X-71279420Y-1428000D02*
X-71276160Y-1289800D01*
X-71276160Y-1289800D02*
X-71269300Y-1124900D01*
X-71269300Y-1124900D02*
X-71262430Y-960100D01*
X-71262430Y-960100D02*
X-71240310Y-772400D01*
X-71240310Y-772400D02*
X-71218200Y-584600D01*
X-71218200Y-584600D02*
X-71186870Y-414300D01*
X-71186870Y-414300D02*
X-71155530Y-244000D01*
X-71155530Y-244000D02*
X-71120990Y-131600D01*
X-71120990Y-131600D02*
X-71086450Y-19100D01*
X-71086450Y-19100D02*
X-71065330Y36000D01*
X-71065330Y36000D02*
X-71044210Y91100D01*
X-71044210Y91100D02*
X-71035430Y137300D01*
X-71035430Y137300D02*
X-71026650Y183600D01*
X-71026650Y183600D02*
X-70993810Y365400D01*
X-70993810Y365400D02*
X-70960980Y547200D01*
X-70960980Y547200D02*
X-70896230Y826500D01*
X-70896230Y826500D02*
X-70831490Y1105800D01*
X-70831490Y1105800D02*
X-70762910Y1366500D01*
X-70762910Y1366500D02*
X-70694340Y1627100D01*
X-70694340Y1627100D02*
X-70667090Y1704200D01*
X-70667090Y1704200D02*
X-70639850Y1781300D01*
X-70639850Y1781300D02*
X-70619810Y1814800D01*
X-70619810Y1814800D02*
X-70599770Y1848400D01*
X-70599770Y1848400D02*
X-70586220Y1868900D01*
X-70586220Y1868900D02*
X-70572660Y1889400D01*
X-70572660Y1889400D02*
X-70567030Y1922100D01*
X-70567030Y1922100D02*
X-70561390Y1954800D01*
X-70561390Y1954800D02*
X-70555450Y1994700D01*
X-70555450Y1994700D02*
X-70549510Y2034700D01*
X-70549510Y2034700D02*
X-70535230Y2072800D01*
X-70535230Y2072800D02*
X-70520940Y2110900D01*
X-70520940Y2110900D02*
X-70494390Y2178300D01*
X-70494390Y2178300D02*
X-70467840Y2245600D01*
X-70467840Y2245600D02*
X-70437790Y2354100D01*
X-70437790Y2354100D02*
X-70407750Y2462600D01*
X-70407750Y2462600D02*
X-70346640Y2764500D01*
X-70346640Y2764500D02*
X-70285530Y3066400D01*
X-70285530Y3066400D02*
X-70249250Y3247100D01*
X-70249250Y3247100D02*
X-70212970Y3427800D01*
X-70212970Y3427800D02*
X-70174950Y3569600D01*
X-70174950Y3569600D02*
X-70136920Y3711400D01*
X-70136920Y3711400D02*
X-70105020Y3825500D01*
X-70105020Y3825500D02*
X-70073120Y3939600D01*
X-70073120Y3939600D02*
X-70048740Y4040100D01*
X-70048740Y4040100D02*
X-70024350Y4140500D01*
X-70024350Y4140500D02*
X-69932690Y4452400D01*
X-69932690Y4452400D02*
X-69841030Y4764400D01*
X-69841030Y4764400D02*
X-69706250Y5207700D01*
X-69706250Y5207700D02*
X-69571470Y5651000D01*
X-69571470Y5651000D02*
X-69399550Y6176300D01*
X-69399550Y6176300D02*
X-69227640Y6701700D01*
X-69227640Y6701700D02*
X-69061550Y7181400D01*
X-69061550Y7181400D02*
X-68895460Y7661000D01*
X-68895460Y7661000D02*
X-68778150Y7967200D01*
X-68778150Y7967200D02*
X-68660840Y8273500D01*
X-68660840Y8273500D02*
X-68543730Y8519700D01*
X-68543730Y8519700D02*
X-68426620Y8765900D01*
X-68426620Y8765900D02*
X-68294600Y9014400D01*
X-68294600Y9014400D02*
X-68162580Y9263000D01*
X-68162580Y9263000D02*
X-68022860Y9503100D01*
X-68022860Y9503100D02*
X-67883150Y9743200D01*
X-67883150Y9743200D02*
X-67742960Y9963900D01*
X-67742960Y9963900D02*
X-67602760Y10184600D01*
X-67602760Y10184600D02*
X-67469300Y10375200D01*
X-67469300Y10375200D02*
X-67335840Y10565700D01*
X-67335840Y10565700D02*
X-67216320Y10715200D01*
X-67216320Y10715200D02*
X-67096800Y10864700D01*
X-67096800Y10864700D02*
X-66998440Y10962400D01*
X-66998440Y10962400D02*
X-66900080Y11060000D01*
X-66900080Y11060000D02*
X-66861080Y11086000D01*
X-66861080Y11086000D02*
X-66822090Y11112000D01*
X-66822090Y11112000D02*
X-66791090Y11121000D01*
X-66791090Y11121000D02*
X-66760090Y11130000D01*
X-66760090Y11130000D02*
X-66709840Y11148600D01*
X-66709840Y11148600D02*
X-66659600Y11167100D01*
X-66659600Y11167100D02*
X-66598270Y11211700D01*
X-66598270Y11211700D02*
X-66536950Y11256400D01*
X-66536950Y11256400D02*
X-66459880Y11314100D01*
X-66459880Y11314100D02*
X-66382800Y11371900D01*
X-66382800Y11371900D02*
X-66294670Y11421900D01*
X-66294670Y11421900D02*
X-66206550Y11472000D01*
X-66206550Y11472000D02*
X-66126320Y11514700D01*
X-66126320Y11514700D02*
X-66046100Y11557500D01*
X-66046100Y11557500D02*
X-65988030Y11597600D01*
X-65988030Y11597600D02*
X-65929960Y11637700D01*
X-65929960Y11637700D02*
X-65853500Y11686500D01*
X-65853500Y11686500D02*
X-65777040Y11735300D01*
X-65777040Y11735300D02*
X-65652590Y11798700D01*
X-65652590Y11798700D02*
X-65528150Y11862200D01*
X-65528150Y11862200D02*
X-65400600Y11929200D01*
X-65400600Y11929200D02*
X-65273050Y11996300D01*
X-65273050Y11996300D02*
X-65189120Y12053600D01*
X-65189120Y12053600D02*
X-65105190Y12110900D01*
X-65105190Y12110900D02*
X-65039900Y12160700D01*
X-65039900Y12160700D02*
X-64974600Y12210600D01*
X-64974600Y12210600D02*
X-64891900Y12259800D01*
X-64891900Y12259800D02*
X-64809100Y12309100D01*
X-64809100Y12309100D02*
X-64627900Y12421000D01*
X-64627900Y12421000D02*
X-64446700Y12532900D01*
X-64446700Y12532900D02*
X-64249000Y12686000D01*
X-64249000Y12686000D02*
X-64051300Y12839100D01*
X-64051300Y12839100D02*
X-63860500Y13013700D01*
X-63860500Y13013700D02*
X-63669800Y13188300D01*
X-63669800Y13188300D02*
X-63509500Y13364500D01*
X-63509500Y13364500D02*
X-63349100Y13540800D01*
X-63349100Y13540800D02*
X-63032800Y13900300D01*
X-63032800Y13900300D02*
X-62716600Y14259900D01*
X-62716600Y14259900D02*
X-62553100Y14442600D01*
X-62553100Y14442600D02*
X-62389700Y14625400D01*
X-62389700Y14625400D02*
X-62246000Y14799300D01*
X-62246000Y14799300D02*
X-62102300Y14973300D01*
X-62102300Y14973300D02*
X-61974700Y15143400D01*
X-61974700Y15143400D02*
X-61847000Y15313500D01*
X-61847000Y15313500D02*
X-61731400Y15484600D01*
X-61731400Y15484600D02*
X-61615900Y15655700D01*
X-61615900Y15655700D02*
X-61499300Y15808400D01*
X-61499300Y15808400D02*
X-61382800Y15961100D01*
X-61382800Y15961100D02*
X-61221700Y16142700D01*
X-61221700Y16142700D02*
X-61060500Y16324300D01*
X-61060500Y16324300D02*
X-60909500Y16476200D01*
X-60909500Y16476200D02*
X-60758600Y16628100D01*
X-60758600Y16628100D02*
X-60704100Y16674600D01*
X-60704100Y16674600D02*
X-60649600Y16721100D01*
X-60649600Y16721100D02*
X-60618100Y16738200D01*
X-60618100Y16738200D02*
X-60586700Y16755400D01*
X-60586700Y16755400D02*
X-60569200Y16762400D01*
X-60569200Y16762400D02*
X-60551800Y16769500D01*
X-60551800Y16769500D02*
X-60544500Y16786500D01*
X-60544500Y16786500D02*
X-60537200Y16803500D01*
X-60537200Y16803500D02*
X-60496500Y16863800D01*
X-60496500Y16863800D02*
X-60455800Y16924100D01*
X-60455800Y16924100D02*
X-60363700Y17023200D01*
X-60363700Y17023200D02*
X-60271600Y17122400D01*
X-60271600Y17122400D02*
X-60173100Y17215100D01*
X-60173100Y17215100D02*
X-60074600Y17307900D01*
X-60074600Y17307900D02*
X-60014700Y17348800D01*
X-60014700Y17348800D02*
X-59954800Y17389800D01*
X-59954800Y17389800D02*
X-59938100Y17395400D01*
X-59938100Y17395400D02*
X-59921500Y17401100D01*
X-59921500Y17401100D02*
X-59921500Y17414600D01*
X-59921500Y17414600D02*
X-59921500Y17428200D01*
X-59921500Y17428200D02*
X-59916400Y17446800D01*
X-59916400Y17446800D02*
X-59911400Y17465400D01*
X-59911400Y17465400D02*
X-59887300Y17498700D01*
X-59887300Y17498700D02*
X-59863200Y17532000D01*
X-59863200Y17532000D02*
X-59776800Y17624100D01*
X-59776800Y17624100D02*
X-59690500Y17716300D01*
X-59690500Y17716300D02*
X-59584600Y17811800D01*
X-59584600Y17811800D02*
X-59478800Y17907400D01*
X-59478800Y17907400D02*
X-59391200Y17969500D01*
X-59391200Y17969500D02*
X-59303600Y18031700D01*
X-59303600Y18031700D02*
X-59159000Y18098800D01*
X-59159000Y18098800D02*
X-59014500Y18166000D01*
X-59014500Y18166000D02*
X-58686700Y18313700D01*
X-58686700Y18313700D02*
X-58359000Y18461400D01*
X-58359000Y18461400D02*
X-57848800Y18687700D01*
X-57848800Y18687700D02*
X-57338600Y18914100D01*
X-57338600Y18914100D02*
X-57197500Y18968300D01*
X-57197500Y18968300D02*
X-57056400Y19022500D01*
X-57056400Y19022500D02*
X-56956900Y19051600D01*
X-56956900Y19051600D02*
X-56857400Y19080700D01*
X-56857400Y19080700D02*
X-56698800Y19124400D01*
X-56698800Y19124400D02*
X-56540200Y19168100D01*
X-56540200Y19168100D02*
X-56434200Y19199900D01*
X-56434200Y19199900D02*
X-56328200Y19231800D01*
X-56328200Y19231800D02*
X-56179900Y19266400D01*
X-56179900Y19266400D02*
X-56031600Y19301000D01*
X-56031600Y19301000D02*
X-55894800Y19326900D01*
X-55894800Y19326900D02*
X-55758100Y19352800D01*
X-55758100Y19352800D02*
X-55686500Y19358600D01*
X-55686500Y19358600D02*
X-55615000Y19364400D01*
X-55615000Y19364400D02*
X-55567100Y19365900D01*
X-55567100Y19365900D02*
X-55519200Y19367500D01*
X-55519200Y19367500D02*
X-55445300Y19386900D01*
X-55445300Y19386900D02*
X-55371500Y19406400D01*
X-55371500Y19406400D02*
X-55242600Y19441000D01*
X-55242600Y19441000D02*
X-55113800Y19475600D01*
X-55113800Y19475600D02*
X-54960200Y19500400D01*
X-54960200Y19500400D02*
X-54806600Y19525200D01*
X-54806600Y19525200D02*
X-54638100Y19540100D01*
X-54638100Y19540100D02*
X-54469700Y19555000D01*
X-54469700Y19555000D02*
X-54296400Y19560000D01*
X-54296400Y19560000D02*
X-54123100Y19565100D01*
X-54123100Y19565100D02*
X-53955000Y19560200D01*
X-53955000Y19560200D02*
X-53786900Y19555400D01*
X-53786900Y19555400D02*
X-53634000Y19540700D01*
X-53634000Y19540700D02*
X-53481200Y19526100D01*
X-53481200Y19526100D02*
X-53353500Y19501500D01*
X-53353500Y19501500D02*
X-53225800Y19476900D01*
X-53225800Y19476900D02*
X-53133300Y19442400D01*
X-53133300Y19442400D02*
X-53040800Y19408000D01*
X-53040800Y19408000D02*
X-52891400Y19327700D01*
X-52891400Y19327700D02*
X-52742000Y19247400D01*
X-52742000Y19247400D02*
X-52662500Y19216100D01*
X-52662500Y19216100D02*
X-52583100Y19184900D01*
X-52583100Y19184900D02*
X-52561800Y19186500D01*
X-52561800Y19186500D02*
X-52540600Y19188000D01*
X-52540600Y19188000D02*
X-52527400Y19200400D01*
X-52527400Y19200400D02*
X-52514300Y19212900D01*
X-52514300Y19212900D02*
X-52500100Y19268300D01*
X-52500100Y19268300D02*
X-52486000Y19323800D01*
X-52486000Y19323800D02*
X-52476500Y19439200D01*
X-52476500Y19439200D02*
X-52467100Y19554600D01*
X-52467100Y19554600D02*
X-52462900Y19719900D01*
X-52462900Y19719900D02*
X-52458700Y19885300D01*
X-52458700Y19885300D02*
X-52444800Y20099400D01*
X-52444800Y20099400D02*
X-52430900Y20313500D01*
X-52430900Y20313500D02*
X-52390100Y20554000D01*
X-52390100Y20554000D02*
X-52349400Y20794600D01*
X-52349400Y20794600D02*
X-52255100Y21259900D01*
X-52255100Y21259900D02*
X-52160800Y21725200D01*
X-52160800Y21725200D02*
X-52098800Y22040600D01*
X-52098800Y22040600D02*
X-52036900Y22356100D01*
X-52036900Y22356100D02*
X-51985800Y22525500D01*
X-51985800Y22525500D02*
X-51934700Y22694900D01*
X-51934700Y22694900D02*
X-51835700Y22944800D01*
X-51835700Y22944800D02*
X-51736700Y23194800D01*
X-51736700Y23194800D02*
X-51590400Y23524000D01*
X-51590400Y23524000D02*
X-51444200Y23853200D01*
X-51444200Y23853200D02*
X-51251100Y24260200D01*
X-51251100Y24260200D02*
X-51058100Y24667300D01*
X-51058100Y24667300D02*
X-50869500Y25056100D01*
X-50869500Y25056100D02*
X-50680900Y25445000D01*
X-50680900Y25445000D02*
X-50633900Y25556900D01*
X-50633900Y25556900D02*
X-50586900Y25668800D01*
X-50586900Y25668800D02*
X-50571600Y25738500D01*
X-50571600Y25738500D02*
X-50556400Y25808300D01*
X-50556400Y25808300D02*
X-50560700Y25830400D01*
X-50560700Y25830400D02*
X-50565000Y25852600D01*
X-50565000Y25852600D02*
X-50577200Y25867900D01*
X-50577200Y25867900D02*
X-50589500Y25883200D01*
X-50589500Y25883200D02*
X-50638000Y25898000D01*
X-50638000Y25898000D02*
X-50686600Y25912800D01*
X-50686600Y25912800D02*
X-50880000Y25913400D01*
X-50880000Y25913400D02*
X-51073500Y25914000D01*
X-51073500Y25914000D02*
X-51259700Y25925400D01*
X-51259700Y25925400D02*
X-51445900Y25936700D01*
X-51445900Y25936700D02*
X-51625700Y25968800D01*
X-51625700Y25968800D02*
X-51805400Y26001000D01*
X-51805400Y26001000D02*
X-51977600Y26052500D01*
X-51977600Y26052500D02*
X-52149800Y26104000D01*
X-52149800Y26104000D02*
X-52313300Y26173500D01*
X-52313300Y26173500D02*
X-52476800Y26243100D01*
X-52476800Y26243100D02*
X-52630400Y26329300D01*
X-52630400Y26329300D02*
X-52784100Y26415500D01*
X-52784100Y26415500D02*
X-52926700Y26517000D01*
X-52926700Y26517000D02*
X-53069300Y26618400D01*
X-53069300Y26618400D02*
X-53199800Y26733700D01*
X-53199800Y26733700D02*
X-53330400Y26849000D01*
X-53330400Y26849000D02*
X-53447700Y26976800D01*
X-53447700Y26976800D02*
X-53564900Y27104700D01*
X-53564900Y27104700D02*
X-53667800Y27243700D01*
X-53667800Y27243700D02*
X-53770600Y27382600D01*
X-53770600Y27382600D02*
X-53857900Y27531300D01*
X-53857900Y27531300D02*
X-53945200Y27680000D01*
X-53945200Y27680000D02*
X-54015800Y27837000D01*
X-54015800Y27837000D02*
X-54086400Y27994100D01*
X-54086400Y27994100D02*
X-54139300Y28158100D01*
X-54139300Y28158100D02*
X-54192100Y28322200D01*
X-54192100Y28322200D02*
X-54225900Y28491800D01*
X-54225900Y28491800D02*
X-54259800Y28661500D01*
X-54259800Y28661500D02*
X-54273600Y28835400D01*
X-54273600Y28835400D02*
X-54287300Y29009300D01*
X-54287300Y29009300D02*
X-54279800Y29186000D01*
X-54279800Y29186000D02*
X-54272400Y29362700D01*
X-54272400Y29362700D02*
X-54242600Y29540900D01*
X-54242600Y29540900D02*
X-54212800Y29719100D01*
X-54212800Y29719100D02*
X-54166600Y29920000D01*
X-54166600Y29920000D02*
X-54120500Y30120900D01*
X-54120500Y30120900D02*
X-54092800Y30195000D01*
X-54092800Y30195000D02*
X-54065100Y30269000D01*
X-54065100Y30269000D02*
X-54033500Y30364200D01*
X-54033500Y30364200D02*
X-54002000Y30459300D01*
X-54002000Y30459300D02*
X-53974200Y30533300D01*
X-53974200Y30533300D02*
X-53946400Y30607300D01*
X-53946400Y30607300D02*
X-53901600Y30681400D01*
X-53901600Y30681400D02*
X-53856700Y30755400D01*
X-53856700Y30755400D02*
X-53751300Y30909700D01*
X-53751300Y30909700D02*
X-53645900Y31064000D01*
X-53645900Y31064000D02*
X-53575600Y31146800D01*
X-53575600Y31146800D02*
X-53505300Y31229600D01*
X-53505300Y31229600D02*
X-53394900Y31332700D01*
X-53394900Y31332700D02*
X-53284500Y31435800D01*
X-53284500Y31435800D02*
X-53175000Y31523600D01*
X-53175000Y31523600D02*
X-53065500Y31611500D01*
X-53065500Y31611500D02*
X-53023800Y31638600D01*
X-53023800Y31638600D02*
X-52982100Y31665800D01*
X-52982100Y31665800D02*
X-52956000Y31675900D01*
X-52956000Y31675900D02*
X-52929800Y31685900D01*
X-52929800Y31685900D02*
X-52912800Y31691700D01*
X-52912800Y31691700D02*
X-52895800Y31697500D01*
X-52895800Y31697500D02*
X-52888700Y31711400D01*
X-52888700Y31711400D02*
X-52881600Y31725300D01*
X-52881600Y31725300D02*
X-52867700Y31743600D01*
X-52867700Y31743600D02*
X-52853700Y31761900D01*
X-52853700Y31761900D02*
X-52820100Y31778200D01*
X-52820100Y31778200D02*
X-52786500Y31794500D01*
X-52786500Y31794500D02*
X-52728400Y31823800D01*
X-52728400Y31823800D02*
X-52670200Y31853100D01*
X-52670200Y31853100D02*
X-52623400Y31885400D01*
X-52623400Y31885400D02*
X-52576500Y31917800D01*
X-52576500Y31917800D02*
X-52491700Y31956200D01*
X-52491700Y31956200D02*
X-52406800Y31994600D01*
X-52406800Y31994600D02*
X-52310700Y32028300D01*
X-52310700Y32028300D02*
X-52214500Y32062000D01*
X-52214500Y32062000D02*
X-52133800Y32080400D01*
X-52133800Y32080400D02*
X-52053000Y32098900D01*
X-52053000Y32098900D02*
X-51987200Y32111300D01*
X-51987200Y32111300D02*
X-51921300Y32123800D01*
X-51921300Y32123800D02*
X-51893900Y32139100D01*
X-51893900Y32139100D02*
X-51866500Y32154400D01*
X-51866500Y32154400D02*
X-51837700Y32168400D01*
X-51837700Y32168400D02*
X-51808800Y32182500D01*
X-51808800Y32182500D02*
X-51739400Y32192100D01*
X-51739400Y32192100D02*
X-51670000Y32201700D01*
X-51670000Y32201700D02*
X-51593700Y32214900D01*
X-51593700Y32214900D02*
X-51517300Y32228200D01*
X-51517300Y32228200D02*
X-51492600Y32239400D01*
X-51492600Y32239400D02*
X-51467800Y32250700D01*
X-51467800Y32250700D02*
X-51454100Y32264400D01*
X-51454100Y32264400D02*
X-51440400Y32278100D01*
X-51440400Y32278100D02*
X-51406800Y32359900D01*
X-51406800Y32359900D02*
X-51373200Y32441700D01*
X-51373200Y32441700D02*
X-51353800Y32527100D01*
X-51353800Y32527100D02*
X-51334400Y32612600D01*
X-51334400Y32612600D02*
X-51322900Y32652700D01*
X-51322900Y32652700D02*
X-51311400Y32692900D01*
X-51311400Y32692900D02*
X-51293200Y32717900D01*
X-51293200Y32717900D02*
X-51275000Y32742900D01*
X-51275000Y32742900D02*
X-51255100Y32777300D01*
X-51255100Y32777300D02*
X-51235100Y32811700D01*
X-51235100Y32811700D02*
X-51219300Y32874400D01*
X-51219300Y32874400D02*
X-51203500Y32937100D01*
X-51203500Y32937100D02*
X-51174600Y33021100D01*
X-51174600Y33021100D02*
X-51145700Y33105200D01*
X-51145700Y33105200D02*
X-51091700Y33213200D01*
X-51091700Y33213200D02*
X-51037700Y33321200D01*
X-51037700Y33321200D02*
X-50980000Y33414600D01*
X-50980000Y33414600D02*
X-50922200Y33508000D01*
X-50922200Y33508000D02*
X-50898700Y33537100D01*
X-50898700Y33537100D02*
X-50875100Y33566300D01*
X-50875100Y33566300D02*
X-50858600Y33577300D01*
X-50858600Y33577300D02*
X-50842100Y33588400D01*
X-50842100Y33588400D02*
X-50790400Y33629000D01*
X-50790400Y33629000D02*
X-50738600Y33669700D01*
X-50738600Y33669700D02*
X-50635600Y33766900D01*
X-50635600Y33766900D02*
X-50532600Y33864200D01*
X-50532600Y33864200D02*
X-50425200Y33961200D01*
X-50425200Y33961200D02*
X-50317800Y34058300D01*
X-50317800Y34058300D02*
X-50255400Y34098700D01*
X-50255400Y34098700D02*
X-50193000Y34139100D01*
X-50193000Y34139100D02*
X-50171600Y34145900D01*
X-50171600Y34145900D02*
X-50150200Y34152700D01*
X-50150200Y34152700D02*
X-50141300Y34169100D01*
X-50141300Y34169100D02*
X-50132400Y34185600D01*
X-50132400Y34185600D02*
X-50112900Y34220200D01*
X-50112900Y34220200D02*
X-50093400Y34254800D01*
X-50093400Y34254800D02*
X-50046500Y34305400D01*
X-50046500Y34305400D02*
X-49999600Y34356000D01*
X-49999600Y34356000D02*
X-49923500Y34421500D01*
X-49923500Y34421500D02*
X-49847400Y34487100D01*
X-49847400Y34487100D02*
X-49767800Y34544800D01*
X-49767800Y34544800D02*
X-49688200Y34602600D01*
X-49688200Y34602600D02*
X-49605000Y34652500D01*
X-49605000Y34652500D02*
X-49521800Y34702500D01*
X-49521800Y34702500D02*
X-49435200Y34744600D01*
X-49435200Y34744600D02*
X-49348500Y34786800D01*
X-49348500Y34786800D02*
X-49258400Y34821200D01*
X-49258400Y34821200D02*
X-49168200Y34855600D01*
X-49168200Y34855600D02*
X-49074600Y34882100D01*
X-49074600Y34882100D02*
X-48980900Y34908700D01*
X-48980900Y34908700D02*
X-48957200Y34925000D01*
X-48957200Y34925000D02*
X-48933500Y34941400D01*
X-48933500Y34941400D02*
X-48936500Y34971100D01*
X-48936500Y34971100D02*
X-48939400Y35000800D01*
X-48939400Y35000800D02*
X-48963600Y35012000D01*
X-48963600Y35012000D02*
X-48987800Y35023200D01*
X-48987800Y35023200D02*
X-49006400Y35045100D01*
X-49006400Y35045100D02*
X-49024900Y35067000D01*
X-49024900Y35067000D02*
X-49038900Y35099400D01*
X-49038900Y35099400D02*
X-49052900Y35131900D01*
X-49052900Y35131900D02*
X-49071600Y35227800D01*
X-49071600Y35227800D02*
X-49090300Y35323800D01*
X-49090300Y35323800D02*
X-49103700Y35460000D01*
X-49103700Y35460000D02*
X-49117100Y35596200D01*
X-49117100Y35596200D02*
X-49141600Y35788500D01*
X-49141600Y35788500D02*
X-49166100Y35980900D01*
X-49166100Y35980900D02*
X-49194600Y36096200D01*
X-49194600Y36096200D02*
X-49223000Y36211500D01*
X-49223000Y36211500D02*
X-49245700Y36248300D01*
X-49245700Y36248300D02*
X-49268300Y36285200D01*
X-49268300Y36285200D02*
X-49296900Y36309100D01*
X-49296900Y36309100D02*
X-49325500Y36333000D01*
X-49325500Y36333000D02*
X-49371200Y36350100D01*
X-49371200Y36350100D02*
X-49416800Y36367300D01*
X-49416800Y36367300D02*
X-49490600Y36383900D01*
X-49490600Y36383900D02*
X-49564400Y36400500D01*
X-49564400Y36400500D02*
X-49631700Y36421900D01*
X-49631700Y36421900D02*
X-49699000Y36443300D01*
X-49699000Y36443300D02*
X-49752500Y36477600D01*
X-49752500Y36477600D02*
X-49805900Y36511900D01*
X-49805900Y36511900D02*
X-49845400Y36558500D01*
X-49845400Y36558500D02*
X-49884900Y36605200D01*
X-49884900Y36605200D02*
X-49910300Y36663700D01*
X-49910300Y36663700D02*
X-49935600Y36722200D01*
X-49935600Y36722200D02*
X-49946700Y36792100D01*
X-49946700Y36792100D02*
X-49957800Y36862000D01*
X-49957800Y36862000D02*
X-49954500Y36942900D01*
X-49954500Y36942900D02*
X-49951200Y37023800D01*
X-49951200Y37023800D02*
X-49933400Y37115000D01*
X-49933400Y37115000D02*
X-49915600Y37206300D01*
X-49915600Y37206300D02*
X-49883100Y37307600D01*
X-49883100Y37307600D02*
X-49850600Y37408900D01*
X-49850600Y37408900D02*
X-49815600Y37505500D01*
X-49815600Y37505500D02*
X-49780600Y37602200D01*
X-49780600Y37602200D02*
X-49775000Y37631800D01*
X-49775000Y37631800D02*
X-49769300Y37661500D01*
X-49769300Y37661500D02*
X-49773600Y37682200D01*
X-49773600Y37682200D02*
X-49777900Y37703000D01*
X-49777900Y37703000D02*
X-49793700Y37717600D01*
X-49793700Y37717600D02*
X-49809400Y37732200D01*
X-49809400Y37732200D02*
X-49838200Y37743300D01*
X-49838200Y37743300D02*
X-49866900Y37754500D01*
X-49866900Y37754500D02*
X-49969600Y37777200D01*
X-49969600Y37777200D02*
X-50072200Y37799900D01*
X-50072200Y37799900D02*
X-50154200Y37820800D01*
X-50154200Y37820800D02*
X-50236100Y37841700D01*
X-50236100Y37841700D02*
X-50312600Y37868700D01*
X-50312600Y37868700D02*
X-50389100Y37895800D01*
X-50389100Y37895800D02*
X-50525800Y37966600D01*
X-50525800Y37966600D02*
X-50662400Y38037400D01*
X-50662400Y38037400D02*
X-50777400Y38127700D01*
X-50777400Y38127700D02*
X-50892300Y38218100D01*
X-50892300Y38218100D02*
X-50985600Y38324700D01*
X-50985600Y38324700D02*
X-51078800Y38431300D01*
X-51078800Y38431300D02*
X-51150500Y38550800D01*
X-51150500Y38550800D02*
X-51222100Y38670300D01*
X-51222100Y38670300D02*
X-51272300Y38799500D01*
X-51272300Y38799500D02*
X-51322500Y38928700D01*
X-51322500Y38928700D02*
X-51351200Y39064200D01*
X-51351200Y39064200D02*
X-51379900Y39199800D01*
X-51379900Y39199800D02*
X-51387300Y39338300D01*
X-51387300Y39338300D02*
X-51394700Y39476900D01*
X-51394700Y39476900D02*
X-51380800Y39615200D01*
X-51380800Y39615200D02*
X-51366900Y39753600D01*
X-51366900Y39753600D02*
X-51331800Y39888400D01*
X-51331800Y39888400D02*
X-51296700Y40023160D01*
X-51296700Y40023160D02*
X-51240500Y40151100D01*
X-51240500Y40151100D02*
X-51184300Y40279050D01*
X-51184300Y40279050D02*
X-51107100Y40396860D01*
X-51107100Y40396860D02*
X-51029800Y40514670D01*
X-51029800Y40514670D02*
X-50931600Y40619040D01*
X-50931600Y40619040D02*
X-50833400Y40723410D01*
X-50833400Y40723410D02*
X-50714300Y40811040D01*
X-50714300Y40811040D02*
X-50595200Y40898680D01*
X-50595200Y40898680D02*
X-50455300Y40966280D01*
X-50455300Y40966280D02*
X-50315300Y41033880D01*
X-50315300Y41033880D02*
X-50237600Y41059130D01*
X-50237600Y41059130D02*
X-50159900Y41084390D01*
X-50159900Y41084390D02*
X-50077000Y41103400D01*
X-50077000Y41103400D02*
X-49994100Y41122420D01*
X-49994100Y41122420D02*
X-49895200Y41134020D01*
X-49895200Y41134020D02*
X-49796300Y41145630D01*
X-49796300Y41145630D02*
X-49696700Y41144560D01*
X-49696700Y41144560D02*
X-49597000Y41143490D01*
X-49597000Y41143490D02*
X-49497900Y41130160D01*
X-49497900Y41130160D02*
X-49398700Y41116840D01*
X-49398700Y41116840D02*
X-49301500Y41091660D01*
X-49301500Y41091660D02*
X-49204200Y41066490D01*
X-49204200Y41066490D02*
X-49110000Y41029880D01*
X-49110000Y41029880D02*
X-49015700Y40993270D01*
X-49015700Y40993270D02*
X-48925900Y40945640D01*
X-48925900Y40945640D02*
X-48836000Y40898010D01*
X-48836000Y40898010D02*
X-48751800Y40839760D01*
X-48751800Y40839760D02*
X-48667600Y40781520D01*
X-48667600Y40781520D02*
X-48590300Y40713070D01*
X-48590300Y40713070D02*
X-48513000Y40644630D01*
X-48513000Y40644630D02*
X-48452200Y40590020D01*
X-48452200Y40590020D02*
X-48391300Y40535420D01*
X-48391300Y40535420D02*
X-48368400Y40527340D01*
X-48368400Y40527340D02*
X-48345400Y40519260D01*
X-48345400Y40519260D02*
X-48323800Y40526620D01*
X-48323800Y40526620D02*
X-48302200Y40533990D01*
X-48302200Y40533990D02*
X-48279200Y40558760D01*
X-48279200Y40558760D02*
X-48256200Y40583540D01*
X-48256200Y40583540D02*
X-48229200Y40627690D01*
X-48229200Y40627690D02*
X-48202100Y40671840D01*
X-48202100Y40671840D02*
X-48124700Y40826140D01*
X-48124700Y40826140D02*
X-48047200Y40980450D01*
X-48047200Y40980450D02*
X-47981100Y41106820D01*
X-47981100Y41106820D02*
X-47915000Y41233200D01*
X-47915000Y41233200D02*
X-47855200Y41325110D01*
X-47855200Y41325110D02*
X-47795400Y41417020D01*
X-47795400Y41417020D02*
X-47740200Y41474700D01*
X-47740200Y41474700D02*
X-47685000Y41532380D01*
X-47685000Y41532380D02*
X-47658600Y41548460D01*
X-47658600Y41548460D02*
X-47632200Y41564530D01*
X-47632200Y41564530D02*
X-47606300Y41572130D01*
X-47606300Y41572130D02*
X-47580400Y41579730D01*
X-47580400Y41579730D02*
X-47554800Y41578880D01*
X-47554800Y41578880D02*
X-47529100Y41578040D01*
X-47529100Y41578040D02*
X-47503600Y41568780D01*
X-47503600Y41568780D02*
X-47478000Y41559520D01*
X-47478000Y41559520D02*
X-47426300Y41515860D01*
X-47426300Y41515860D02*
X-47374500Y41472200D01*
X-47374500Y41472200D02*
X-47320400Y41395220D01*
X-47320400Y41395220D02*
X-47266300Y41318230D01*
X-47266300Y41318230D02*
X-47208200Y41208150D01*
X-47208200Y41208150D02*
X-47150000Y41098060D01*
X-47150000Y41098060D02*
X-47079800Y40957510D01*
X-47079800Y40957510D02*
X-47009500Y40816960D01*
X-47009500Y40816960D02*
X-46984100Y40776900D01*
X-46984100Y40776900D02*
X-46958700Y40736850D01*
X-46958700Y40736850D02*
X-46936300Y40714800D01*
X-46936300Y40714800D02*
X-46913900Y40692750D01*
X-46913900Y40692750D02*
X-46892000Y40687080D01*
X-46892000Y40687080D02*
X-46870000Y40681410D01*
X-46870000Y40681410D02*
X-46845900Y40690510D01*
X-46845900Y40690510D02*
X-46821800Y40699610D01*
X-46821800Y40699610D02*
X-46756900Y40755680D01*
X-46756900Y40755680D02*
X-46691900Y40811740D01*
X-46691900Y40811740D02*
X-46612200Y40872380D01*
X-46612200Y40872380D02*
X-46532400Y40933020D01*
X-46532400Y40933020D02*
X-46450100Y40968140D01*
X-46450100Y40968140D02*
X-46367700Y41003270D01*
X-46367700Y41003270D02*
X-46291200Y41010640D01*
X-46291200Y41010640D02*
X-46214600Y41018010D01*
X-46214600Y41018010D02*
X-46181100Y41010590D01*
X-46181100Y41010590D02*
X-46147600Y41003170D01*
X-46147600Y41003170D02*
X-46118700Y40987970D01*
X-46118700Y40987970D02*
X-46089700Y40972760D01*
X-46089700Y40972760D02*
X-46067900Y40947420D01*
X-46067900Y40947420D02*
X-46046000Y40922080D01*
X-46046000Y40922080D02*
X-46032800Y40871320D01*
X-46032800Y40871320D02*
X-46019600Y40820550D01*
X-46019600Y40820550D02*
X-46007200Y40556110D01*
X-46007200Y40556110D02*
X-45994700Y40291660D01*
X-45994700Y40291660D02*
X-45989700Y40112080D01*
X-45989700Y40112080D02*
X-45984700Y39932500D01*
X-45984700Y39932500D02*
X-45975300Y39841500D01*
X-45975300Y39841500D02*
X-45965900Y39750500D01*
X-45965900Y39750500D02*
X-45957400Y39729400D01*
X-45957400Y39729400D02*
X-45948900Y39708400D01*
X-45948900Y39708400D02*
X-45936700Y39698900D01*
X-45936700Y39698900D02*
X-45924500Y39689500D01*
X-45924500Y39689500D02*
X-45885600Y39691500D01*
X-45885600Y39691500D02*
X-45846700Y39693500D01*
X-45846700Y39693500D02*
X-45033000Y39849900D01*
X-45033000Y39849900D02*
X-44219200Y40006280D01*
X-44219200Y40006280D02*
X-42889700Y40272610D01*
X-42889700Y40272610D02*
X-41560200Y40538930D01*
X-41560200Y40538930D02*
X-38973200Y41073650D01*
X-38973200Y41073650D02*
X-36386100Y41608370D01*
X-36386100Y41608370D02*
X-35698800Y41755810D01*
X-35698800Y41755810D02*
X-35011500Y41903240D01*
X-35011500Y41903240D02*
X-34990100Y41915060D01*
X-34990100Y41915060D02*
X-34968600Y41926870D01*
X-34968600Y41926870D02*
X-34941600Y41952700D01*
X-34941600Y41952700D02*
X-34914600Y41978530D01*
X-34914600Y41978530D02*
X-34857300Y42057390D01*
X-34857300Y42057390D02*
X-34800000Y42136240D01*
X-34800000Y42136240D02*
X-34745200Y42217820D01*
X-34745200Y42217820D02*
X-34690500Y42299400D01*
X-34690500Y42299400D02*
X-34627700Y42372600D01*
X-34627700Y42372600D02*
X-34565000Y42445800D01*
X-34565000Y42445800D02*
X-34495100Y42510460D01*
X-34495100Y42510460D02*
X-34425300Y42575110D01*
X-34425300Y42575110D02*
X-34349400Y42631070D01*
X-34349400Y42631070D02*
X-34273400Y42687020D01*
X-34273400Y42687020D02*
X-34192400Y42734120D01*
X-34192400Y42734120D02*
X-34111400Y42781220D01*
X-34111400Y42781220D02*
X-34026200Y42819300D01*
X-34026200Y42819300D02*
X-33941000Y42857380D01*
X-33941000Y42857380D02*
X-33852700Y42886280D01*
X-33852700Y42886280D02*
X-33764300Y42915190D01*
X-33764300Y42915190D02*
X-33673800Y42934760D01*
X-33673800Y42934760D02*
X-33583300Y42954330D01*
X-33583300Y42954330D02*
X-33491600Y42964410D01*
X-33491600Y42964410D02*
X-33399800Y42974490D01*
X-33399800Y42974490D02*
X-33307900Y42974910D01*
X-33307900Y42974910D02*
X-33215900Y42975340D01*
X-33215900Y42975340D02*
X-33124700Y42965960D01*
X-33124700Y42965960D02*
X-33033500Y42956580D01*
X-33033500Y42956580D02*
X-32944000Y42937220D01*
X-32944000Y42937220D02*
X-32854500Y42917870D01*
X-32854500Y42917870D02*
X-32767700Y42888390D01*
X-32767700Y42888390D02*
X-32680800Y42858910D01*
X-32680800Y42858910D02*
X-32597700Y42819140D01*
X-32597700Y42819140D02*
X-32514500Y42779380D01*
X-32514500Y42779380D02*
X-32436000Y42729170D01*
X-32436000Y42729170D02*
X-32357500Y42678960D01*
X-32357500Y42678960D02*
X-32284600Y42618140D01*
X-32284600Y42618140D02*
X-32211700Y42557330D01*
X-32211700Y42557330D02*
X-32161300Y42512630D01*
X-32161300Y42512630D02*
X-32110900Y42467930D01*
X-32110900Y42467930D02*
X-32089500Y42457280D01*
X-32089500Y42457280D02*
X-32068000Y42446630D01*
X-32068000Y42446630D02*
X-32043900Y42444080D01*
X-32043900Y42444080D02*
X-32019800Y42441530D01*
X-32019800Y42441530D02*
X-31948100Y42461650D01*
X-31948100Y42461650D02*
X-31876400Y42481780D01*
X-31876400Y42481780D02*
X-31747800Y42537050D01*
X-31747800Y42537050D02*
X-31619100Y42592330D01*
X-31619100Y42592330D02*
X-31382200Y42687750D01*
X-31382200Y42687750D02*
X-31145200Y42783180D01*
X-31145200Y42783180D02*
X-30836700Y42898010D01*
X-30836700Y42898010D02*
X-30528100Y43012840D01*
X-30528100Y43012840D02*
X-30047500Y43192250D01*
X-30047500Y43192250D02*
X-29566900Y43371660D01*
X-29566900Y43371660D02*
X-29397800Y43444180D01*
X-29397800Y43444180D02*
X-29228700Y43516710D01*
X-29228700Y43516710D02*
X-29056300Y43598400D01*
X-29056300Y43598400D02*
X-28883900Y43680100D01*
X-28883900Y43680100D02*
X-28801300Y43721330D01*
X-28801300Y43721330D02*
X-28718700Y43762560D01*
X-28718700Y43762560D02*
X-28658000Y43787600D01*
X-28658000Y43787600D02*
X-28597300Y43812640D01*
X-28597300Y43812640D02*
X-28574100Y43816310D01*
X-28574100Y43816310D02*
X-28550900Y43819990D01*
X-28550900Y43819990D02*
X-28532000Y43816290D01*
X-28532000Y43816290D02*
X-28513000Y43812590D01*
X-28513000Y43812590D02*
X-28497900Y43800410D01*
X-28497900Y43800410D02*
X-28482700Y43788230D01*
X-28482700Y43788230D02*
X-28471000Y43766460D01*
X-28471000Y43766460D02*
X-28459200Y43744680D01*
X-28459200Y43744680D02*
X-28444100Y43667910D01*
X-28444100Y43667910D02*
X-28429000Y43591140D01*
X-28429000Y43591140D02*
X-28422400Y43462700D01*
X-28422400Y43462700D02*
X-28415800Y43334250D01*
X-28415800Y43334250D02*
X-28414600Y42886850D01*
X-28414600Y42886850D02*
X-28413300Y42439440D01*
X-28413300Y42439440D02*
X-27237700Y42265190D01*
X-27237700Y42265190D02*
X-27047400Y42644160D01*
X-27047400Y42644160D02*
X-26857000Y43023130D01*
X-26857000Y43023130D02*
X-26771700Y43170380D01*
X-26771700Y43170380D02*
X-26686400Y43317620D01*
X-26686400Y43317620D02*
X-26614800Y43421530D01*
X-26614800Y43421530D02*
X-26543200Y43525430D01*
X-26543200Y43525430D02*
X-26343200Y43740770D01*
X-26343200Y43740770D02*
X-26143200Y43956110D01*
X-26143200Y43956110D02*
X-25850300Y44238830D01*
X-25850300Y44238830D02*
X-25557300Y44521540D01*
X-25557300Y44521540D02*
X-25263500Y44785810D01*
X-25263500Y44785810D02*
X-24969600Y45050070D01*
X-24969600Y45050070D02*
X-24851200Y45148470D01*
X-24851200Y45148470D02*
X-24732700Y45246860D01*
X-24732700Y45246860D02*
X-24648600Y45308470D01*
X-24648600Y45308470D02*
X-24564400Y45370070D01*
X-24564400Y45370070D02*
X-24437500Y45461570D01*
X-24437500Y45461570D02*
X-24310600Y45553060D01*
X-24310600Y45553060D02*
X-24183700Y45634920D01*
X-24183700Y45634920D02*
X-24056800Y45716770D01*
X-24056800Y45716770D02*
X-23845400Y45829890D01*
X-23845400Y45829890D02*
X-23633900Y45943010D01*
X-23633900Y45943010D02*
X-23094700Y46221600D01*
X-23094700Y46221600D02*
X-22555500Y46500180D01*
X-22555500Y46500180D02*
X-22288500Y46630310D01*
X-22288500Y46630310D02*
X-22021400Y46760430D01*
X-22021400Y46760430D02*
X-21895100Y46815330D01*
X-21895100Y46815330D02*
X-21768700Y46870220D01*
X-21768700Y46870220D02*
X-21683300Y46901820D01*
X-21683300Y46901820D02*
X-21597900Y46933410D01*
X-21597900Y46933410D02*
X-21544500Y46955760D01*
X-21544500Y46955760D02*
X-21491000Y46978110D01*
X-21491000Y46978110D02*
X-21447600Y46987480D01*
X-21447600Y46987480D02*
X-21404200Y46996850D01*
X-21404200Y46996850D02*
X-21358200Y47006100D01*
X-21358200Y47006100D02*
X-21312100Y47015340D01*
X-21312100Y47015340D02*
X-21252400Y47037380D01*
X-21252400Y47037380D02*
X-21192700Y47059420D01*
X-21192700Y47059420D02*
X-21094800Y47094740D01*
X-21094800Y47094740D02*
X-20996900Y47130050D01*
X-20996900Y47130050D02*
X-20867900Y47163420D01*
X-20867900Y47163420D02*
X-20738800Y47196780D01*
X-20738800Y47196780D02*
X-20412000Y47254270D01*
X-20412000Y47254270D02*
X-20085200Y47311750D01*
X-20085200Y47311750D02*
X-19708000Y47351240D01*
X-19708000Y47351240D02*
X-19330800Y47390720D01*
X-19330800Y47390720D02*
X-18952600Y47405400D01*
X-18952600Y47405400D02*
X-18574300Y47420070D01*
X-18574300Y47420070D02*
X-18296600Y47411320D01*
X-18296600Y47411320D02*
X-18018800Y47402570D01*
X-18018800Y47402570D02*
X-17745200Y47376760D01*
X-17745200Y47376760D02*
X-17471500Y47350950D01*
X-17471500Y47350950D02*
X-17203200Y47308720D01*
X-17203200Y47308720D02*
X-16934900Y47266480D01*
X-16934900Y47266480D02*
X-16673100Y47208490D01*
X-16673100Y47208490D02*
X-16411200Y47150490D01*
X-16411200Y47150490D02*
X-16157000Y47077370D01*
X-16157000Y47077370D02*
X-15902800Y47004250D01*
X-15902800Y47004250D02*
X-15657500Y46916670D01*
X-15657500Y46916670D02*
X-15412100Y46829080D01*
X-15412100Y46829080D02*
X-15176700Y46727670D01*
X-15176700Y46727670D02*
X-14941300Y46626260D01*
X-14941300Y46626260D02*
X-14717100Y46511680D01*
X-14717100Y46511680D02*
X-14492800Y46397100D01*
X-14492800Y46397100D02*
X-14280900Y46270000D01*
X-14280900Y46270000D02*
X-14069000Y46142890D01*
X-14069000Y46142890D02*
X-13870600Y46003910D01*
X-13870600Y46003910D02*
X-13672200Y45864930D01*
X-13672200Y45864930D02*
X-13488500Y45714720D01*
X-13488500Y45714720D02*
X-13304800Y45564510D01*
X-13304800Y45564510D02*
X-13136900Y45403730D01*
X-13136900Y45403730D02*
X-12969000Y45242940D01*
X-12969000Y45242940D02*
X-12818100Y45072230D01*
X-12818100Y45072230D02*
X-12667200Y44901520D01*
X-12667200Y44901520D02*
X-12534500Y44721530D01*
X-12534500Y44721530D02*
X-12401800Y44541530D01*
X-12401800Y44541530D02*
X-12288500Y44352910D01*
X-12288500Y44352910D02*
X-12175100Y44164280D01*
X-12175100Y44164280D02*
X-12082300Y43967680D01*
X-12082300Y43967680D02*
X-11989500Y43771070D01*
X-11989500Y43771070D02*
X-11901100Y43527620D01*
X-11901100Y43527620D02*
X-11812700Y43284170D01*
X-11812700Y43284170D02*
X-11728500Y42951820D01*
X-11728500Y42951820D02*
X-11644300Y42619460D01*
X-11644300Y42619460D02*
X-11603600Y42412930D01*
X-11603600Y42412930D02*
X-11562900Y42206390D01*
X-11562900Y42206390D02*
X-11538000Y42003830D01*
X-11538000Y42003830D02*
X-11513000Y41801260D01*
X-11513000Y41801260D02*
X-11503800Y41602480D01*
X-11503800Y41602480D02*
X-11494500Y41403700D01*
X-11494500Y41403700D02*
X-11501100Y41208510D01*
X-11501100Y41208510D02*
X-11507700Y41013320D01*
X-11507700Y41013320D02*
X-11530300Y40821540D01*
X-11530300Y40821540D02*
X-11552800Y40629750D01*
X-11552800Y40629750D02*
X-11591400Y40441180D01*
X-11591400Y40441180D02*
X-11629900Y40252610D01*
X-11629900Y40252610D02*
X-11684500Y40067050D01*
X-11684500Y40067050D02*
X-11739100Y39881500D01*
X-11739100Y39881500D02*
X-11809900Y39698800D01*
X-11809900Y39698800D02*
X-11880700Y39516100D01*
X-11880700Y39516100D02*
X-11967700Y39336100D01*
X-11967700Y39336100D02*
X-12054700Y39156000D01*
X-12054700Y39156000D02*
X-12158100Y38978400D01*
X-12158100Y38978400D02*
X-12261500Y38800800D01*
X-12261500Y38800800D02*
X-12381300Y38625500D01*
X-12381300Y38625500D02*
X-12501000Y38450100D01*
X-12501000Y38450100D02*
X-12637300Y38276800D01*
X-12637300Y38276800D02*
X-12773600Y38103600D01*
X-12773600Y38103600D02*
X-12926500Y37932200D01*
X-12926500Y37932200D02*
X-13079300Y37760900D01*
X-13079300Y37760900D02*
X-13248800Y37591200D01*
X-13248800Y37591200D02*
X-13418300Y37421600D01*
X-13418300Y37421600D02*
X-13604600Y37253500D01*
X-13604600Y37253500D02*
X-13790900Y37085300D01*
X-13790900Y37085300D02*
X-13994000Y36918500D01*
X-13994000Y36918500D02*
X-14197000Y36751700D01*
X-14197000Y36751700D02*
X-14378800Y36628900D01*
X-14378800Y36628900D02*
X-14560600Y36506100D01*
X-14560600Y36506100D02*
X-14791300Y36376800D01*
X-14791300Y36376800D02*
X-15022000Y36247500D01*
X-15022000Y36247500D02*
X-15108900Y36198300D01*
X-15108900Y36198300D02*
X-15195700Y36149000D01*
X-15195700Y36149000D02*
X-15209900Y36132500D01*
X-15209900Y36132500D02*
X-15224100Y36116000D01*
X-15224100Y36116000D02*
X-15216100Y36103400D01*
X-15216100Y36103400D02*
X-15208100Y36090800D01*
X-15208100Y36090800D02*
X-15118000Y36073000D01*
X-15118000Y36073000D02*
X-15027800Y36055200D01*
X-15027800Y36055200D02*
X-14825400Y36039900D01*
X-14825400Y36039900D02*
X-14623000Y36024500D01*
X-14623000Y36024500D02*
X-14382300Y36023600D01*
X-14382300Y36023600D02*
X-14141600Y36022600D01*
X-14141600Y36022600D02*
X-13833700Y36038400D01*
X-13833700Y36038400D02*
X-13525900Y36054200D01*
X-13525900Y36054200D02*
X-13241400Y36080300D01*
X-13241400Y36080300D02*
X-12956900Y36106400D01*
X-12956900Y36106400D02*
X-12786300Y36136400D01*
X-12786300Y36136400D02*
X-12615700Y36166400D01*
X-12615700Y36166400D02*
X-12393600Y36210000D01*
X-12393600Y36210000D02*
X-12171600Y36253500D01*
X-12171600Y36253500D02*
X-11880000Y36308900D01*
X-11880000Y36308900D02*
X-11588500Y36364400D01*
X-11588500Y36364400D02*
X-11496100Y36382500D01*
X-11496100Y36382500D02*
X-11403700Y36400600D01*
X-11403700Y36400600D02*
X-11353300Y36400800D01*
X-11353300Y36400800D02*
X-11303000Y36401000D01*
X-11303000Y36401000D02*
X-11288600Y36397800D01*
X-11288600Y36397800D02*
X-11274200Y36394600D01*
X-11274200Y36394600D02*
X-11268200Y36404700D01*
X-11268200Y36404700D02*
X-11262200Y36414700D01*
X-11262200Y36414700D02*
X-11210900Y36442500D01*
X-11210900Y36442500D02*
X-11159700Y36470300D01*
X-11159700Y36470300D02*
X-11036500Y36509800D01*
X-11036500Y36509800D02*
X-10913300Y36549200D01*
X-10913300Y36549200D02*
X-10652300Y36623000D01*
X-10652300Y36623000D02*
X-10391400Y36696800D01*
X-10391400Y36696800D02*
X-10266400Y36741300D01*
X-10266400Y36741300D02*
X-10141400Y36785800D01*
X-10141400Y36785800D02*
X-10014500Y36827400D01*
X-10014500Y36827400D02*
X-9887600Y36868900D01*
X-9887600Y36868900D02*
X-9757800Y36914200D01*
X-9757800Y36914200D02*
X-9628100Y36959400D01*
X-9628100Y36959400D02*
X-9467300Y37032200D01*
X-9467300Y37032200D02*
X-9306600Y37104900D01*
X-9306600Y37104900D02*
X-9243100Y37123700D01*
X-9243100Y37123700D02*
X-9179700Y37142400D01*
X-9179700Y37142400D02*
X-9094200Y37173200D01*
X-9094200Y37173200D02*
X-9008700Y37204000D01*
X-9008700Y37204000D02*
X-8957000Y37221800D01*
X-8957000Y37221800D02*
X-8905300Y37239500D01*
X-8905300Y37239500D02*
X-8863600Y37239200D01*
X-8863600Y37239200D02*
X-8822000Y37238800D01*
X-8822000Y37238800D02*
X-8800200Y37235100D01*
X-8800200Y37235100D02*
X-8778400Y37231400D01*
X-8778400Y37231400D02*
X-8780000Y37245100D01*
X-8780000Y37245100D02*
X-8781600Y37258800D01*
X-8781600Y37258800D02*
X-8783600Y37269200D01*
X-8783600Y37269200D02*
X-8785700Y37279500D01*
X-8785700Y37279500D02*
X-8780200Y37290000D01*
X-8780200Y37290000D02*
X-8774700Y37300400D01*
X-8774700Y37300400D02*
X-8744600Y37317600D01*
X-8744600Y37317600D02*
X-8714500Y37334800D01*
X-8714500Y37334800D02*
X-8492400Y37431600D01*
X-8492400Y37431600D02*
X-8270300Y37528400D01*
X-8270300Y37528400D02*
X-8142500Y37585000D01*
X-8142500Y37585000D02*
X-8014700Y37641500D01*
X-8014700Y37641500D02*
X-7952200Y37662400D01*
X-7952200Y37662400D02*
X-7889600Y37683400D01*
X-7889600Y37683400D02*
X-7828600Y37704100D01*
X-7828600Y37704100D02*
X-7767500Y37724700D01*
X-7767500Y37724700D02*
X-7643200Y37780600D01*
X-7643200Y37780600D02*
X-7519000Y37836400D01*
X-7519000Y37836400D02*
X-6752400Y38202600D01*
X-6752400Y38202600D02*
X-5985800Y38568800D01*
X-5985800Y38568800D02*
X-5892400Y38608200D01*
X-5892400Y38608200D02*
X-5799100Y38647600D01*
X-5799100Y38647600D02*
X-5760200Y38654100D01*
X-5760200Y38654100D02*
X-5721400Y38660500D01*
X-5721400Y38660500D02*
X-5705300Y38663500D01*
X-5705300Y38663500D02*
X-5689200Y38666400D01*
X-5689200Y38666400D02*
X-5650400Y38697400D01*
X-5650400Y38697400D02*
X-5611600Y38728300D01*
X-5611600Y38728300D02*
X-5567500Y38761400D01*
X-5567500Y38761400D02*
X-5523400Y38794400D01*
X-5523400Y38794400D02*
X-5468600Y38824100D01*
X-5468600Y38824100D02*
X-5413800Y38853700D01*
X-5413800Y38853700D02*
X-5356000Y38876400D01*
X-5356000Y38876400D02*
X-5298300Y38899000D01*
X-5298300Y38899000D02*
X-5245500Y38911000D01*
X-5245500Y38911000D02*
X-5192700Y38923000D01*
X-5192700Y38923000D02*
X-5118700Y38962700D01*
X-5118700Y38962700D02*
X-5044700Y39002400D01*
X-5044700Y39002400D02*
X-4897500Y39073100D01*
X-4897500Y39073100D02*
X-4750400Y39143800D01*
X-4750400Y39143800D02*
X-4456900Y39265400D01*
X-4456900Y39265400D02*
X-4163300Y39386900D01*
X-4163300Y39386900D02*
X-3791400Y39532100D01*
X-3791400Y39532100D02*
X-3419500Y39677200D01*
X-3419500Y39677200D02*
X-3037300Y39818700D01*
X-3037300Y39818700D02*
X-2655000Y39960100D01*
X-2655000Y39960100D02*
X-2221500Y40119050D01*
X-2221500Y40119050D02*
X-1787900Y40278010D01*
X-1787900Y40278010D02*
X-1533200Y40371260D01*
X-1533200Y40371260D02*
X-1278400Y40464510D01*
X-1278400Y40464510D02*
X-728600Y40670850D01*
X-728600Y40670850D02*
X-178700Y40877200D01*
X-178700Y40877200D02*
X333100Y41071560D01*
X333100Y41071560D02*
X845000Y41265920D01*
X845000Y41265920D02*
X960700Y41312670D01*
X960700Y41312670D02*
X1076500Y41359420D01*
X1076500Y41359420D02*
X1124700Y41389560D01*
X1124700Y41389560D02*
X1172800Y41419700D01*
X1172800Y41419700D02*
X1182600Y41432640D01*
X1182600Y41432640D02*
X1192500Y41445570D01*
X1192500Y41445570D02*
X1216100Y41450950D01*
X1216100Y41450950D02*
X1239800Y41456330D01*
X1239800Y41456330D02*
X1301000Y41473410D01*
X1301000Y41473410D02*
X1362100Y41490500D01*
X1362100Y41490500D02*
X1471300Y41532100D01*
X1471300Y41532100D02*
X1580500Y41573710D01*
X1580500Y41573710D02*
X1799600Y41672500D01*
X1799600Y41672500D02*
X2018700Y41771300D01*
X2018700Y41771300D02*
X2367600Y41920520D01*
X2367600Y41920520D02*
X2716600Y42069740D01*
X2716600Y42069740D02*
X3192500Y42264440D01*
X3192500Y42264440D02*
X3668300Y42459150D01*
X3668300Y42459150D02*
X4113000Y42624700D01*
X4113000Y42624700D02*
X4557700Y42790260D01*
X4557700Y42790260D02*
X4759400Y42857360D01*
X4759400Y42857360D02*
X4961100Y42924460D01*
X4961100Y42924460D02*
X5064300Y42951720D01*
X5064300Y42951720D02*
X5167400Y42978990D01*
X5167400Y42978990D02*
X5201900Y42985000D01*
X5201900Y42985000D02*
X5236300Y42991020D01*
X5236300Y42991020D02*
X5272100Y43005480D01*
X5272100Y43005480D02*
X5307800Y43019940D01*
X5307800Y43019940D02*
X6000800Y43254220D01*
X6000800Y43254220D02*
X6693900Y43488510D01*
X6693900Y43488510D02*
X7581400Y43772570D01*
X7581400Y43772570D02*
X8468900Y44056630D01*
X8468900Y44056630D02*
X8817900Y44163820D01*
X8817900Y44163820D02*
X9166800Y44271010D01*
X9166800Y44271010D02*
X9453700Y44358960D01*
X9453700Y44358960D02*
X9740600Y44446910D01*
X9740600Y44446910D02*
X9864100Y44474280D01*
X9864100Y44474280D02*
X9987500Y44501650D01*
X9987500Y44501650D02*
X10117200Y44534720D01*
X10117200Y44534720D02*
X10246900Y44567800D01*
X10246900Y44567800D02*
X10496200Y44630070D01*
X10496200Y44630070D02*
X10745400Y44692350D01*
X10745400Y44692350D02*
X11098100Y44766110D01*
X11098100Y44766110D02*
X11450800Y44839870D01*
X11450800Y44839870D02*
X11609600Y44869010D01*
X11609600Y44869010D02*
X11768400Y44898160D01*
X11768400Y44898160D02*
X11868200Y44905650D01*
X11868200Y44905650D02*
X11967900Y44913140D01*
X11967900Y44913140D02*
X12010300Y44912620D01*
X12010300Y44912620D02*
X12052700Y44912100D01*
X12052700Y44912100D02*
X12073800Y44922020D01*
X12073800Y44922020D02*
X12094800Y44931940D01*
X12094800Y44931940D02*
X12142400Y44950150D01*
X12142400Y44950150D02*
X12189900Y44968360D01*
X12189900Y44968360D02*
X12296200Y44987810D01*
X12296200Y44987810D02*
X12402400Y45007250D01*
X12402400Y45007250D02*
X12690800Y45049190D01*
X12690800Y45049190D02*
X12979100Y45091130D01*
X12979100Y45091130D02*
X13156200Y45112310D01*
X13156200Y45112310D02*
X13333200Y45133480D01*
X13333200Y45133480D02*
X13545500Y45149190D01*
X13545500Y45149190D02*
X13757800Y45164900D01*
X13757800Y45164900D02*
X14234800Y45179530D01*
X14234800Y45179530D02*
X14711800Y45194160D01*
X14711800Y45194160D02*
X15170200Y45185830D01*
X15170200Y45185830D02*
X15628600Y45177500D01*
X15628600Y45177500D02*
X15817600Y45164500D01*
X15817600Y45164500D02*
X16006600Y45151490D01*
X16006600Y45151490D02*
X16151100Y45132480D01*
X16151100Y45132480D02*
X16295600Y45113470D01*
X16295600Y45113470D02*
X16543600Y45061180D01*
X16543600Y45061180D02*
X16791600Y45008890D01*
X16791600Y45008890D02*
X17050900Y44944860D01*
X17050900Y44944860D02*
X17310200Y44880830D01*
X17310200Y44880830D02*
X17539700Y44815910D01*
X17539700Y44815910D02*
X17769100Y44751000D01*
X17769100Y44751000D02*
X17927600Y44696050D01*
X17927600Y44696050D02*
X18086000Y44641110D01*
X18086000Y44641110D02*
X18173000Y44604630D01*
X18173000Y44604630D02*
X18259900Y44568150D01*
X18259900Y44568150D02*
X18288400Y44562550D01*
X18288400Y44562550D02*
X18316900Y44556960D01*
X18316900Y44556960D02*
X18341100Y44562740D01*
X18341100Y44562740D02*
X18365200Y44568530D01*
X18365200Y44568530D02*
X18389300Y44587900D01*
X18389300Y44587900D02*
X18413300Y44607270D01*
X18413300Y44607270D02*
X18441500Y44642430D01*
X18441500Y44642430D02*
X18469700Y44677590D01*
X18469700Y44677590D02*
X18555400Y44804120D01*
X18555400Y44804120D02*
X18641100Y44930660D01*
X18641100Y44930660D02*
X18718100Y45033500D01*
X18718100Y45033500D02*
X18795100Y45136340D01*
X18795100Y45136340D02*
X18879900Y45231210D01*
X18879900Y45231210D02*
X18964600Y45326090D01*
X18964600Y45326090D02*
X19047600Y45403180D01*
X19047600Y45403180D02*
X19130600Y45480270D01*
X19130600Y45480270D02*
X19202200Y45529770D01*
X19202200Y45529770D02*
X19273800Y45579270D01*
X19273800Y45579270D02*
X19319300Y45608140D01*
X19319300Y45608140D02*
X19364700Y45637020D01*
X19364700Y45637020D02*
X19383600Y45659720D01*
X19383600Y45659720D02*
X19402500Y45682420D01*
X19402500Y45682420D02*
X19417500Y45721150D01*
X19417500Y45721150D02*
X19432500Y45759880D01*
X19432500Y45759880D02*
X19475600Y45795750D01*
X19475600Y45795750D02*
X19518700Y45831630D01*
X19518700Y45831630D02*
X19587000Y45864440D01*
X19587000Y45864440D02*
X19655300Y45897240D01*
X19655300Y45897240D02*
X19745800Y45926750D01*
X19745800Y45926750D02*
X19836200Y45956250D01*
X19836200Y45956250D02*
X20072200Y46004460D01*
X20072200Y46004460D02*
X20308100Y46052670D01*
X20308100Y46052670D02*
X20597700Y46084980D01*
X20597700Y46084980D02*
X20887300Y46117290D01*
X20887300Y46117290D02*
X21207200Y46131890D01*
X21207200Y46131890D02*
X21527000Y46146480D01*
X21527000Y46146480D02*
X21853700Y46141560D01*
X21853700Y46141560D02*
X22180300Y46136650D01*
X22180300Y46136650D02*
X22490300Y46110410D01*
X22490300Y46110410D02*
X22800200Y46084170D01*
X22800200Y46084170D02*
X22941600Y46062490D01*
X22941600Y46062490D02*
X23083000Y46040810D01*
X23083000Y46040810D02*
X23211500Y46013120D01*
X23211500Y46013120D02*
X23339900Y45985440D01*
X23339900Y45985440D02*
X23785900Y45863750D01*
X23785900Y45863750D02*
X24231900Y45742070D01*
X24231900Y45742070D02*
X24615200Y45620380D01*
X24615200Y45620380D02*
X24998500Y45498680D01*
X24998500Y45498680D02*
X25310000Y45380090D01*
X25310000Y45380090D02*
X25622000Y45261500D01*
X25622000Y45261500D02*
X25748000Y45204350D01*
X25748000Y45204350D02*
X25874000Y45147200D01*
X25874000Y45147200D02*
X25979000Y45091990D01*
X25979000Y45091990D02*
X26084000Y45036790D01*
X26084000Y45036790D02*
X26254000Y44943080D01*
X26254000Y44943080D02*
X26424000Y44849370D01*
X26424000Y44849370D02*
X26587000Y44756290D01*
X26587000Y44756290D02*
X26750000Y44663210D01*
X26750000Y44663210D02*
X26932000Y44539230D01*
X26932000Y44539230D02*
X27113000Y44415240D01*
X27113000Y44415240D02*
X27302000Y44269610D01*
X27302000Y44269610D02*
X27491000Y44123970D01*
X27491000Y44123970D02*
X27678000Y43965960D01*
X27678000Y43965960D02*
X27864000Y43807940D01*
X27864000Y43807940D02*
X28037000Y43646810D01*
X28037000Y43646810D02*
X28210000Y43485680D01*
X28210000Y43485680D02*
X28360000Y43330690D01*
X28360000Y43330690D02*
X28509000Y43175700D01*
X28509000Y43175700D02*
X28625000Y43036130D01*
X28625000Y43036130D02*
X28740000Y42896560D01*
X28740000Y42896560D02*
X28811000Y42781660D01*
X28811000Y42781660D02*
X28882000Y42666760D01*
X28882000Y42666760D02*
X28907000Y42626450D01*
X28907000Y42626450D02*
X28931000Y42586130D01*
X28931000Y42586130D02*
X28957000Y42574700D01*
X28957000Y42574700D02*
X28983000Y42563260D01*
X28983000Y42563260D02*
X29013000Y42581080D01*
X29013000Y42581080D02*
X29043000Y42598900D01*
X29043000Y42598900D02*
X29082000Y42646340D01*
X29082000Y42646340D02*
X29120000Y42693780D01*
X29120000Y42693780D02*
X29256000Y42850210D01*
X29256000Y42850210D02*
X29392000Y43006650D01*
X29392000Y43006650D02*
X29604000Y43214870D01*
X29604000Y43214870D02*
X29816000Y43423100D01*
X29816000Y43423100D02*
X29894000Y43483440D01*
X29894000Y43483440D02*
X29971000Y43543780D01*
X29971000Y43543780D02*
X30062000Y43599760D01*
X30062000Y43599760D02*
X30152000Y43655730D01*
X30152000Y43655730D02*
X30347000Y43766530D01*
X30347000Y43766530D02*
X30541000Y43877330D01*
X30541000Y43877330D02*
X30637000Y43924170D01*
X30637000Y43924170D02*
X30733000Y43971020D01*
X30733000Y43971020D02*
X30845000Y44005560D01*
X30845000Y44005560D02*
X30957000Y44040110D01*
X30957000Y44040110D02*
X31084000Y44062820D01*
X31084000Y44062820D02*
X31210000Y44085530D01*
X31210000Y44085530D02*
X31349000Y44096870D01*
X31349000Y44096870D02*
X31487000Y44108210D01*
X31487000Y44108210D02*
X31636000Y44108640D01*
X31636000Y44108640D02*
X31784000Y44109070D01*
X31784000Y44109070D02*
X31940000Y44099050D01*
X31940000Y44099050D02*
X32096000Y44089030D01*
X32096000Y44089030D02*
X32257000Y44069030D01*
X32257000Y44069030D02*
X32418000Y44049030D01*
X32418000Y44049030D02*
X32582000Y44019510D01*
X32582000Y44019510D02*
X32746000Y43989980D01*
X32746000Y43989980D02*
X32912000Y43951390D01*
X32912000Y43951390D02*
X33077000Y43912810D01*
X33077000Y43912810D02*
X33241000Y43865640D01*
X33241000Y43865640D02*
X33404000Y43818460D01*
X33404000Y43818460D02*
X33564000Y43763150D01*
X33564000Y43763150D02*
X33724000Y43707840D01*
X33724000Y43707840D02*
X33878000Y43644860D01*
X33878000Y43644860D02*
X34032000Y43581880D01*
X34032000Y43581880D02*
X34178000Y43511690D01*
X34178000Y43511690D02*
X34323000Y43441500D01*
X34323000Y43441500D02*
X34459000Y43364570D01*
X34459000Y43364570D02*
X34595000Y43287640D01*
X34595000Y43287640D02*
X34718000Y43204430D01*
X34718000Y43204430D02*
X34840000Y43121220D01*
X34840000Y43121220D02*
X34949000Y43032180D01*
X34949000Y43032180D02*
X35057000Y42943150D01*
X35057000Y42943150D02*
X35344000Y42664380D01*
X35344000Y42664380D02*
X35630000Y42385620D01*
X35630000Y42385620D02*
X35756000Y42250250D01*
X35756000Y42250250D02*
X35881000Y42114890D01*
X35881000Y42114890D02*
X35995000Y41980900D01*
X35995000Y41980900D02*
X36109000Y41846900D01*
X36109000Y41846900D02*
X36213000Y41713280D01*
X36213000Y41713280D02*
X36316000Y41579670D01*
X36316000Y41579670D02*
X36409000Y41445440D01*
X36409000Y41445440D02*
X36502000Y41311220D01*
X36502000Y41311220D02*
X36585000Y41175400D01*
X36585000Y41175400D02*
X36668000Y41039580D01*
X36668000Y41039580D02*
X36742000Y40901180D01*
X36742000Y40901180D02*
X36816000Y40762770D01*
X36816000Y40762770D02*
X36881000Y40620800D01*
X36881000Y40620800D02*
X36946000Y40478830D01*
X36946000Y40478830D02*
X37003000Y40332300D01*
X37003000Y40332300D02*
X37059000Y40185770D01*
X37059000Y40185770D02*
X37108000Y40033690D01*
X37108000Y40033690D02*
X37157000Y39881600D01*
X37157000Y39881600D02*
X37199000Y39723000D01*
X37199000Y39723000D02*
X37240000Y39564400D01*
X37240000Y39564400D02*
X37275000Y39398300D01*
X37275000Y39398300D02*
X37309000Y39232200D01*
X37309000Y39232200D02*
X37337000Y39057600D01*
X37337000Y39057600D02*
X37365000Y38882900D01*
X37365000Y38882900D02*
X37405000Y38504200D01*
X37405000Y38504200D02*
X37444000Y38125500D01*
X37444000Y38125500D02*
X37457000Y38001900D01*
X37457000Y38001900D02*
X37469000Y37878200D01*
X37469000Y37878200D02*
X37488000Y37818400D01*
X37488000Y37818400D02*
X37506000Y37758500D01*
X37506000Y37758500D02*
X37519000Y37750600D01*
X37519000Y37750600D02*
X37532000Y37742600D01*
X37532000Y37742600D02*
X37548000Y37748200D01*
X37548000Y37748200D02*
X37564000Y37753800D01*
X37564000Y37753800D02*
X37609000Y37802500D01*
X37609000Y37802500D02*
X37653000Y37851200D01*
X37653000Y37851200D02*
X37749000Y37963900D01*
X37749000Y37963900D02*
X37844000Y38076600D01*
X37844000Y38076600D02*
X37976000Y38212700D01*
X37976000Y38212700D02*
X38107000Y38348700D01*
X38107000Y38348700D02*
X38425000Y38643600D01*
X38425000Y38643600D02*
X38743000Y38938500D01*
X38743000Y38938500D02*
X39044000Y39184900D01*
X39044000Y39184900D02*
X39344000Y39431300D01*
X39344000Y39431300D02*
X39455000Y39506700D01*
X39455000Y39506700D02*
X39565000Y39582100D01*
X39565000Y39582100D02*
X39604000Y39602700D01*
X39604000Y39602700D02*
X39643000Y39623200D01*
X39643000Y39623200D02*
X39669000Y39630400D01*
X39669000Y39630400D02*
X39695000Y39637600D01*
X39695000Y39637600D02*
X39713000Y39642300D01*
X39713000Y39642300D02*
X39731000Y39646900D01*
X39731000Y39646900D02*
X39743000Y39658100D01*
X39743000Y39658100D02*
X39754000Y39669300D01*
X39754000Y39669300D02*
X39797000Y39698600D01*
X39797000Y39698600D02*
X39839000Y39727900D01*
X39839000Y39727900D02*
X39931000Y39776100D01*
X39931000Y39776100D02*
X40022000Y39824300D01*
X40022000Y39824300D02*
X40181000Y39902900D01*
X40181000Y39902900D02*
X40339000Y39981500D01*
X40339000Y39981500D02*
X40572000Y40099660D01*
X40572000Y40099660D02*
X40804000Y40217820D01*
X40804000Y40217820D02*
X40948000Y40294110D01*
X40948000Y40294110D02*
X41092000Y40370400D01*
X41092000Y40370400D02*
X41157000Y40411800D01*
X41157000Y40411800D02*
X41221000Y40453200D01*
X41221000Y40453200D02*
X41267000Y40486770D01*
X41267000Y40486770D02*
X41312000Y40520340D01*
X41312000Y40520340D02*
X41411000Y40572030D01*
X41411000Y40572030D02*
X41510000Y40623710D01*
X41510000Y40623710D02*
X41632000Y40678640D01*
X41632000Y40678640D02*
X41754000Y40733570D01*
X41754000Y40733570D02*
X41868000Y40776880D01*
X41868000Y40776880D02*
X41981000Y40820180D01*
X41981000Y40820180D02*
X42218000Y40902790D01*
X42218000Y40902790D02*
X42454000Y40985390D01*
X42454000Y40985390D02*
X42642000Y41048550D01*
X42642000Y41048550D02*
X42829000Y41111700D01*
X42829000Y41111700D02*
X43026000Y41162200D01*
X43026000Y41162200D02*
X43223000Y41212700D01*
X43223000Y41212700D02*
X43461000Y41257230D01*
X43461000Y41257230D02*
X43698000Y41301750D01*
X43698000Y41301750D02*
X44007000Y41347000D01*
X44007000Y41347000D02*
X44315000Y41392250D01*
X44315000Y41392250D02*
X44622000Y41421840D01*
X44622000Y41421840D02*
X44929000Y41451430D01*
X44929000Y41451430D02*
X45213000Y41452660D01*
X45213000Y41452660D02*
X45497000Y41453890D01*
X45497000Y41453890D02*
X45632000Y41443410D01*
X45632000Y41443410D02*
X45766000Y41432920D01*
X45766000Y41432920D02*
X45897000Y41414800D01*
X45897000Y41414800D02*
X46028000Y41396680D01*
X46028000Y41396680D02*
X46155000Y41370730D01*
X46155000Y41370730D02*
X46282000Y41344780D01*
X46282000Y41344780D02*
X46407000Y41310830D01*
X46407000Y41310830D02*
X46531000Y41276870D01*
X46531000Y41276870D02*
X46654000Y41234730D01*
X46654000Y41234730D02*
X46776000Y41192580D01*
X46776000Y41192580D02*
X46897000Y41142070D01*
X46897000Y41142070D02*
X47017000Y41091550D01*
X47017000Y41091550D02*
X47137000Y41032480D01*
X47137000Y41032480D02*
X47256000Y40973400D01*
X47256000Y40973400D02*
X47376000Y40905590D01*
X47376000Y40905590D02*
X47495000Y40837770D01*
X47495000Y40837770D02*
X47734000Y40675190D01*
X47734000Y40675190D02*
X47973000Y40512610D01*
X47973000Y40512610D02*
X48218000Y40312870D01*
X48218000Y40312870D02*
X48462000Y40113130D01*
X48462000Y40113130D02*
X48524000Y40045320D01*
X48524000Y40045320D02*
X48586000Y39977500D01*
X48586000Y39977500D02*
X48645000Y39888100D01*
X48645000Y39888100D02*
X48703000Y39798700D01*
X48703000Y39798700D02*
X48756000Y39693700D01*
X48756000Y39693700D02*
X48809000Y39588700D01*
X48809000Y39588700D02*
X48855000Y39474100D01*
X48855000Y39474100D02*
X48901000Y39359500D01*
X48901000Y39359500D02*
X48937000Y39241200D01*
X48937000Y39241200D02*
X48973000Y39122900D01*
X48973000Y39122900D02*
X48998000Y39007000D01*
X48998000Y39007000D02*
X49023000Y38891000D01*
X49023000Y38891000D02*
X49034000Y38783300D01*
X49034000Y38783300D02*
X49044000Y38675600D01*
X49044000Y38675600D02*
X49040000Y38582200D01*
X49040000Y38582200D02*
X49035000Y38488800D01*
X49035000Y38488800D02*
X49030000Y38407600D01*
X49030000Y38407600D02*
X49024000Y38326400D01*
X49024000Y38326400D02*
X49231000Y38367200D01*
X49231000Y38367200D02*
X49437000Y38408000D01*
X49437000Y38408000D02*
X49688000Y38450500D01*
X49688000Y38450500D02*
X49939000Y38493000D01*
X49939000Y38493000D02*
X50183000Y38516500D01*
X50183000Y38516500D02*
X50426000Y38539900D01*
X50426000Y38539900D02*
X50661000Y38544900D01*
X50661000Y38544900D02*
X50895000Y38549800D01*
X50895000Y38549800D02*
X51119000Y38536800D01*
X51119000Y38536800D02*
X51343000Y38523800D01*
X51343000Y38523800D02*
X51556000Y38493600D01*
X51556000Y38493600D02*
X51768000Y38463300D01*
X51768000Y38463300D02*
X51968000Y38416300D01*
X51968000Y38416300D02*
X52168000Y38369300D01*
X52168000Y38369300D02*
X52355000Y38306200D01*
X52355000Y38306200D02*
X52541000Y38243000D01*
X52541000Y38243000D02*
X52713000Y38164400D01*
X52713000Y38164400D02*
X52885000Y38085700D01*
X52885000Y38085700D02*
X53041000Y37992200D01*
X53041000Y37992200D02*
X53196000Y37898600D01*
X53196000Y37898600D02*
X53335000Y37790700D01*
X53335000Y37790700D02*
X53473000Y37682700D01*
X53473000Y37682700D02*
X53594000Y37561100D01*
X53594000Y37561100D02*
X53714000Y37439400D01*
X53714000Y37439400D02*
X53816000Y37304600D01*
X53816000Y37304600D02*
X53917000Y37169800D01*
X53917000Y37169800D02*
X53998000Y37022500D01*
X53998000Y37022500D02*
X54079000Y36875100D01*
X54079000Y36875100D02*
X54138000Y36715800D01*
X54138000Y36715800D02*
X54197000Y36556400D01*
X54197000Y36556400D02*
X54234000Y36385700D01*
X54234000Y36385700D02*
X54270000Y36215000D01*
X54270000Y36215000D02*
X54283000Y36033600D01*
X54283000Y36033600D02*
X54295000Y35852100D01*
X54295000Y35852100D02*
X54290000Y35804100D01*
X54290000Y35804100D02*
X54285000Y35756100D01*
X54285000Y35756100D02*
X54269000Y35695000D01*
X54269000Y35695000D02*
X54253000Y35633800D01*
X54253000Y35633800D02*
X54191000Y35478600D01*
X54191000Y35478600D02*
X54128000Y35323400D01*
X54128000Y35323400D02*
X54081000Y35219200D01*
X54081000Y35219200D02*
X54033000Y35115000D01*
X54033000Y35115000D02*
X54016000Y35059700D01*
X54016000Y35059700D02*
X53998000Y35004400D01*
X53998000Y35004400D02*
X54000000Y34989300D01*
X54000000Y34989300D02*
X54002000Y34974200D01*
X54002000Y34974200D02*
X54011000Y34964400D01*
X54011000Y34964400D02*
X54020000Y34954600D01*
X54020000Y34954600D02*
X54058000Y34941700D01*
X54058000Y34941700D02*
X54095000Y34928700D01*
X54095000Y34928700D02*
X54146000Y34908300D01*
X54146000Y34908300D02*
X54197000Y34887900D01*
X54197000Y34887900D02*
X54253000Y34853000D01*
X54253000Y34853000D02*
X54308000Y34818000D01*
X54308000Y34818000D02*
X54429000Y34709700D01*
X54429000Y34709700D02*
X54550000Y34601400D01*
X54550000Y34601400D02*
X54680000Y34451300D01*
X54680000Y34451300D02*
X54809000Y34301200D01*
X54809000Y34301200D02*
X54938000Y34120300D01*
X54938000Y34120300D02*
X55068000Y33939400D01*
X55068000Y33939400D02*
X55190000Y33738900D01*
X55190000Y33738900D02*
X55313000Y33538300D01*
X55313000Y33538300D02*
X55421000Y33329100D01*
X55421000Y33329100D02*
X55530000Y33119900D01*
X55530000Y33119900D02*
X55617000Y32913300D01*
X55617000Y32913300D02*
X55704000Y32706600D01*
X55704000Y32706600D02*
X55762000Y32513500D01*
X55762000Y32513500D02*
X55820000Y32320400D01*
X55820000Y32320400D02*
X55864000Y32151200D01*
X55864000Y32151200D02*
X55908000Y31982000D01*
X55908000Y31982000D02*
X55942000Y31829700D01*
X55942000Y31829700D02*
X55976000Y31677400D01*
X55976000Y31677400D02*
X55997000Y31476900D01*
X55997000Y31476900D02*
X56017000Y31276400D01*
X56017000Y31276400D02*
X56025000Y31042500D01*
X56025000Y31042500D02*
X56032000Y30808500D01*
X56032000Y30808500D02*
X56027000Y30556100D01*
X56027000Y30556100D02*
X56022000Y30303700D01*
X56022000Y30303700D02*
X56006000Y30047700D01*
X56006000Y30047700D02*
X55989000Y29791600D01*
X55989000Y29791600D02*
X55961000Y29546800D01*
X55961000Y29546800D02*
X55933000Y29301900D01*
X55933000Y29301900D02*
X55895000Y29083200D01*
X55895000Y29083200D02*
X55856000Y28864500D01*
X55856000Y28864500D02*
X55808000Y28686800D01*
X55808000Y28686800D02*
X55760000Y28509000D01*
X55760000Y28509000D02*
X55699000Y28369000D01*
X55699000Y28369000D02*
X55637000Y28229000D01*
X55637000Y28229000D02*
X55554000Y28091300D01*
X55554000Y28091300D02*
X55470000Y27953500D01*
X55470000Y27953500D02*
X55368000Y27822200D01*
X55368000Y27822200D02*
X55266000Y27690800D01*
X55266000Y27690800D02*
X55151000Y27570100D01*
X55151000Y27570100D02*
X55035000Y27449300D01*
X55035000Y27449300D02*
X54911000Y27343300D01*
X54911000Y27343300D02*
X54786000Y27237200D01*
X54786000Y27237200D02*
X54657000Y27150000D01*
X54657000Y27150000D02*
X54527000Y27062800D01*
X54527000Y27062800D02*
X54397000Y26998700D01*
X54397000Y26998700D02*
X54267000Y26934600D01*
X54267000Y26934600D02*
X54141000Y26897700D01*
X54141000Y26897700D02*
X54015000Y26860700D01*
X54015000Y26860700D02*
X53786000Y26808800D01*
X53786000Y26808800D02*
X53557000Y26756900D01*
X53557000Y26756900D02*
X53349000Y26714500D01*
X53349000Y26714500D02*
X53141000Y26672000D01*
X53141000Y26672000D02*
X53084000Y26662300D01*
X53084000Y26662300D02*
X53027000Y26652600D01*
X53027000Y26652600D02*
X52988000Y26635800D01*
X52988000Y26635800D02*
X52949000Y26619000D01*
X52949000Y26619000D02*
X52916000Y26587600D01*
X52916000Y26587600D02*
X52882000Y26556100D01*
X52882000Y26556100D02*
X52844000Y26502400D01*
X52844000Y26502400D02*
X52805000Y26448700D01*
X52805000Y26448700D02*
X52639000Y26260800D01*
X52639000Y26260800D02*
X52472000Y26072900D01*
X52472000Y26072900D02*
X52164000Y25760100D01*
X52164000Y25760100D02*
X51856000Y25447200D01*
X51856000Y25447200D02*
X51589000Y25182900D01*
X51589000Y25182900D02*
X51322000Y24918600D01*
X51322000Y24918600D02*
X51249000Y24838500D01*
X51249000Y24838500D02*
X51175000Y24758300D01*
X51175000Y24758300D02*
X51137000Y24703100D01*
X51137000Y24703100D02*
X51099000Y24647900D01*
X51099000Y24647900D02*
X51094000Y24610300D01*
X51094000Y24610300D02*
X51088000Y24572700D01*
X51088000Y24572700D02*
X51111000Y24545500D01*
X51111000Y24545500D02*
X51133000Y24518200D01*
X51133000Y24518200D02*
X51181000Y24494000D01*
X51181000Y24494000D02*
X51229000Y24469800D01*
X51229000Y24469800D02*
X51299000Y24441400D01*
X51299000Y24441400D02*
X51368000Y24412900D01*
X51368000Y24412900D02*
X51689000Y24264900D01*
X51689000Y24264900D02*
X52010000Y24116900D01*
X52010000Y24116900D02*
X52155000Y24038900D01*
X52155000Y24038900D02*
X52299000Y23960900D01*
X52299000Y23960900D02*
X52433000Y23879900D01*
X52433000Y23879900D02*
X52567000Y23798900D01*
X52567000Y23798900D02*
X52691000Y23714700D01*
X52691000Y23714700D02*
X52814000Y23630400D01*
X52814000Y23630400D02*
X52928000Y23542800D01*
X52928000Y23542800D02*
X53042000Y23455100D01*
X53042000Y23455100D02*
X53146000Y23363800D01*
X53146000Y23363800D02*
X53249000Y23272400D01*
X53249000Y23272400D02*
X53344000Y23177200D01*
X53344000Y23177200D02*
X53438000Y23082000D01*
X53438000Y23082000D02*
X53523000Y22982600D01*
X53523000Y22982600D02*
X53607000Y22883200D01*
X53607000Y22883200D02*
X53683000Y22779500D01*
X53683000Y22779500D02*
X53759000Y22675800D01*
X53759000Y22675800D02*
X53826000Y22567500D01*
X53826000Y22567500D02*
X53892000Y22459200D01*
X53892000Y22459200D02*
X53950000Y22346100D01*
X53950000Y22346100D02*
X54007000Y22232900D01*
X54007000Y22232900D02*
X54057000Y22114800D01*
X54057000Y22114800D02*
X54106000Y21996600D01*
X54106000Y21996600D02*
X54147000Y21873200D01*
X54147000Y21873200D02*
X54187000Y21749700D01*
X54187000Y21749700D02*
X54220000Y21620800D01*
X54220000Y21620800D02*
X54253000Y21491800D01*
X54253000Y21491800D02*
X54278000Y21357200D01*
X54278000Y21357200D02*
X54302000Y21222500D01*
X54302000Y21222500D02*
X54325000Y21073400D01*
X54325000Y21073400D02*
X54348000Y20924300D01*
X54348000Y20924300D02*
X54367000Y20852200D01*
X54367000Y20852200D02*
X54385000Y20780000D01*
X54385000Y20780000D02*
X54397000Y20764100D01*
X54397000Y20764100D02*
X54409000Y20748200D01*
X54409000Y20748200D02*
X54425000Y20741100D01*
X54425000Y20741100D02*
X54441000Y20733900D01*
X54441000Y20733900D02*
X54491000Y20732300D01*
X54491000Y20732300D02*
X54541000Y20730600D01*
X54541000Y20730600D02*
X54657000Y20716700D01*
X54657000Y20716700D02*
X54773000Y20702700D01*
X54773000Y20702700D02*
X54901000Y20665300D01*
X54901000Y20665300D02*
X55029000Y20627800D01*
X55029000Y20627800D02*
X55161000Y20572000D01*
X55161000Y20572000D02*
X55292000Y20516100D01*
X55292000Y20516100D02*
X55418000Y20447000D01*
X55418000Y20447000D02*
X55544000Y20377800D01*
X55544000Y20377800D02*
X55657000Y20300500D01*
X55657000Y20300500D02*
X55769000Y20223200D01*
X55769000Y20223200D02*
X55860000Y20142900D01*
X55860000Y20142900D02*
X55950000Y20062600D01*
X55950000Y20062600D02*
X56011000Y19984400D01*
X56011000Y19984400D02*
X56071000Y19906100D01*
X56071000Y19906100D02*
X56088000Y19869400D01*
X56088000Y19869400D02*
X56104000Y19832600D01*
X56104000Y19832600D02*
X56110000Y19798400D01*
X56110000Y19798400D02*
X56115000Y19764100D01*
X56115000Y19764100D02*
X56121000Y19730700D01*
X56121000Y19730700D02*
X56126000Y19697300D01*
X56126000Y19697300D02*
X56139000Y19676900D01*
X56139000Y19676900D02*
X56152000Y19656400D01*
X56152000Y19656400D02*
X56167000Y19640200D01*
X56167000Y19640200D02*
X56181000Y19623900D01*
X56181000Y19623900D02*
X56195000Y19595200D01*
X56195000Y19595200D02*
X56208000Y19566500D01*
X56208000Y19566500D02*
X56229000Y19477000D01*
X56229000Y19477000D02*
X56250000Y19387500D01*
X56250000Y19387500D02*
X56265000Y19263500D01*
X56265000Y19263500D02*
X56279000Y19139400D01*
X56279000Y19139400D02*
X56287000Y18990900D01*
X56287000Y18990900D02*
X56294000Y18842400D01*
X56294000Y18842400D02*
X56294000Y18679500D01*
X56294000Y18679500D02*
X56294000Y18516500D01*
X56294000Y18516500D02*
X56287000Y18349300D01*
X56287000Y18349300D02*
X56279000Y18182000D01*
X56279000Y18182000D02*
X56264000Y18020500D01*
X56264000Y18020500D02*
X56249000Y17858900D01*
X56249000Y17858900D02*
X56226000Y17713200D01*
X56226000Y17713200D02*
X56202000Y17567400D01*
X56202000Y17567400D02*
X56150000Y17340600D01*
X56150000Y17340600D02*
X56097000Y17113700D01*
X56097000Y17113700D02*
X56041000Y16943100D01*
X56041000Y16943100D02*
X55984000Y16772500D01*
X55984000Y16772500D02*
X55910000Y16628000D01*
X55910000Y16628000D02*
X55836000Y16483500D01*
X55836000Y16483500D02*
X55732000Y16334900D01*
X55732000Y16334900D02*
X55628000Y16186300D01*
X55628000Y16186300D02*
X55582000Y16117900D01*
X55582000Y16117900D02*
X55535000Y16049500D01*
X55535000Y16049500D02*
X55522000Y16007200D01*
X55522000Y16007200D02*
X55509000Y15964800D01*
X55509000Y15964800D02*
X55516000Y15951700D01*
X55516000Y15951700D02*
X55523000Y15938600D01*
X55523000Y15938600D02*
X55538000Y15930100D01*
X55538000Y15930100D02*
X55553000Y15921500D01*
X55553000Y15921500D02*
X55611000Y15915500D01*
X55611000Y15915500D02*
X55668000Y15909500D01*
X55668000Y15909500D02*
X55776000Y15899900D01*
X55776000Y15899900D02*
X55883000Y15890300D01*
X55883000Y15890300D02*
X56037000Y15866100D01*
X56037000Y15866100D02*
X56190000Y15841900D01*
X56190000Y15841900D02*
X56351000Y15810200D01*
X56351000Y15810200D02*
X56511000Y15778400D01*
X56511000Y15778400D02*
X56640000Y15746100D01*
X56640000Y15746100D02*
X56768000Y15713700D01*
X56768000Y15713700D02*
X57048000Y15625700D01*
X57048000Y15625700D02*
X57328000Y15537700D01*
X57328000Y15537700D02*
X57553000Y15459500D01*
X57553000Y15459500D02*
X57778000Y15381300D01*
X57778000Y15381300D02*
X57962000Y15304300D01*
X57962000Y15304300D02*
X58145000Y15227200D01*
X58145000Y15227200D02*
X58302000Y15142500D01*
X58302000Y15142500D02*
X58458000Y15057700D01*
X58458000Y15057700D02*
X58602000Y14956500D01*
X58602000Y14956500D02*
X58746000Y14855200D01*
X58746000Y14855200D02*
X58891000Y14728700D01*
X58891000Y14728700D02*
X59036000Y14602200D01*
X59036000Y14602200D02*
X59197000Y14441700D01*
X59197000Y14441700D02*
X59358000Y14281100D01*
X59358000Y14281100D02*
X59549000Y14077700D01*
X59549000Y14077700D02*
X59739000Y13874300D01*
X59739000Y13874300D02*
X59789000Y13812900D01*
X59789000Y13812900D02*
X59838000Y13751500D01*
X59838000Y13751500D02*
X59859000Y13711200D01*
X59859000Y13711200D02*
X59880000Y13670900D01*
X59880000Y13670900D02*
X59886000Y13656600D01*
X59886000Y13656600D02*
X59891000Y13642300D01*
X59891000Y13642300D02*
X59905000Y13643300D01*
X59905000Y13643300D02*
X59918000Y13644300D01*
X59918000Y13644300D02*
X59933000Y13642600D01*
X59933000Y13642600D02*
X59947000Y13640800D01*
X59947000Y13640800D02*
X59968000Y13624600D01*
X59968000Y13624600D02*
X59989000Y13608400D01*
X59989000Y13608400D02*
X60040000Y13546000D01*
X60040000Y13546000D02*
X60091000Y13483600D01*
X60091000Y13483600D02*
X60139000Y13403000D01*
X60139000Y13403000D02*
X60187000Y13322400D01*
X60187000Y13322400D02*
X60215000Y13249900D01*
X60215000Y13249900D02*
X60243000Y13177300D01*
X60243000Y13177300D02*
X60255000Y13138900D01*
X60255000Y13138900D02*
X60267000Y13100400D01*
X60267000Y13100400D02*
X60288000Y13062800D01*
X60288000Y13062800D02*
X60308000Y13025200D01*
X60308000Y13025200D02*
X60361000Y12963200D01*
X60361000Y12963200D02*
X60414000Y12901100D01*
X60414000Y12901100D02*
X60441000Y12881900D01*
X60441000Y12881900D02*
X60467000Y12862600D01*
X60467000Y12862600D02*
X60490000Y12854700D01*
X60490000Y12854700D02*
X60513000Y12846800D01*
X60513000Y12846800D02*
X60529000Y12852900D01*
X60529000Y12852900D02*
X60545000Y12858900D01*
X60545000Y12858900D02*
X60551000Y12881600D01*
X60551000Y12881600D02*
X60557000Y12904200D01*
X60557000Y12904200D02*
X60571000Y12911700D01*
X60571000Y12911700D02*
X60584000Y12919200D01*
X60584000Y12919200D02*
X60623000Y12924100D01*
X60623000Y12924100D02*
X60661000Y12928900D01*
X60661000Y12928900D02*
X60794000Y12929500D01*
X60794000Y12929500D02*
X60927000Y12930100D01*
X60927000Y12930100D02*
X61135000Y12911200D01*
X61135000Y12911200D02*
X61343000Y12892200D01*
X61343000Y12892200D02*
X61550000Y12843000D01*
X61550000Y12843000D02*
X61757000Y12793700D01*
X61757000Y12793700D02*
X61782000Y12791200D01*
X61782000Y12791200D02*
X61807000Y12788600D01*
X61807000Y12788600D02*
X61808000Y12801500D01*
X61808000Y12801500D02*
X61809000Y12814400D01*
X61809000Y12814400D02*
X61796000Y12846100D01*
X61796000Y12846100D02*
X61782000Y12877800D01*
X61782000Y12877800D02*
X61786000Y12899600D01*
X61786000Y12899600D02*
X61790000Y12921400D01*
X61790000Y12921400D02*
X61811000Y12933900D01*
X61811000Y12933900D02*
X61831000Y12946300D01*
X61831000Y12946300D02*
X61866000Y12950000D01*
X61866000Y12950000D02*
X61900000Y12953600D01*
X61900000Y12953600D02*
X62008000Y12936600D01*
X62008000Y12936600D02*
X62115000Y12919600D01*
X62115000Y12919600D02*
X62264000Y12873700D01*
X62264000Y12873700D02*
X62412000Y12827700D01*
X62412000Y12827700D02*
X62589000Y12757100D01*
X62589000Y12757100D02*
X62766000Y12686500D01*
X62766000Y12686500D02*
X62960000Y12595500D01*
X62960000Y12595500D02*
X63154000Y12504500D01*
X63154000Y12504500D02*
X63353000Y12397400D01*
X63353000Y12397400D02*
X63552000Y12290200D01*
X63552000Y12290200D02*
X63745000Y12171200D01*
X63745000Y12171200D02*
X63937000Y12052100D01*
X63937000Y12052100D02*
X64328000Y11793400D01*
X64328000Y11793400D02*
X64719000Y11534700D01*
X64719000Y11534700D02*
X64848000Y11446000D01*
X64848000Y11446000D02*
X64977000Y11357300D01*
X64977000Y11357300D02*
X65131000Y11242800D01*
X65131000Y11242800D02*
X65284000Y11128200D01*
X65284000Y11128200D02*
X65414000Y11024400D01*
X65414000Y11024400D02*
X65543000Y10920500D01*
X65543000Y10920500D02*
X65602000Y10863900D01*
X65602000Y10863900D02*
X65661000Y10807200D01*
X65661000Y10807200D02*
X65677000Y10786800D01*
X65677000Y10786800D02*
X65693000Y10766300D01*
X65693000Y10766300D02*
X65716000Y10757800D01*
X65716000Y10757800D02*
X65738000Y10749300D01*
X65738000Y10749300D02*
X65799000Y10705400D01*
X65799000Y10705400D02*
X65859000Y10661500D01*
X65859000Y10661500D02*
X65988000Y10543500D01*
X65988000Y10543500D02*
X66117000Y10425400D01*
X66117000Y10425400D02*
X66498000Y10049100D01*
X66498000Y10049100D02*
X66879000Y9672800D01*
X66879000Y9672800D02*
X67290000Y9246700D01*
X67290000Y9246700D02*
X67700000Y8820600D01*
X67700000Y8820600D02*
X67866000Y8640300D01*
X67866000Y8640300D02*
X68031000Y8459900D01*
X68031000Y8459900D02*
X68143000Y8328700D01*
X68143000Y8328700D02*
X68254000Y8197600D01*
X68254000Y8197600D02*
X68474000Y7924400D01*
X68474000Y7924400D02*
X68693000Y7651200D01*
X68693000Y7651200D02*
X68818000Y7484800D01*
X68818000Y7484800D02*
X68943000Y7318300D01*
X68943000Y7318300D02*
X69087000Y7111800D01*
X69087000Y7111800D02*
X69231000Y6905200D01*
X69231000Y6905200D02*
X69349000Y6723400D01*
X69349000Y6723400D02*
X69467000Y6541600D01*
X69467000Y6541600D02*
X69517000Y6449400D01*
X69517000Y6449400D02*
X69566000Y6357200D01*
X69566000Y6357200D02*
X69574000Y6333900D01*
X69574000Y6333900D02*
X69582000Y6310500D01*
X69582000Y6310500D02*
X69602000Y6284500D01*
X69602000Y6284500D02*
X69621000Y6258400D01*
X69621000Y6258400D02*
X69685000Y6175500D01*
X69685000Y6175500D02*
X69750000Y6092600D01*
X69750000Y6092600D02*
X69816000Y5973900D01*
X69816000Y5973900D02*
X69882000Y5855100D01*
X69882000Y5855100D02*
X69949000Y5704300D01*
X69949000Y5704300D02*
X70015000Y5553400D01*
X70015000Y5553400D02*
X70081000Y5374300D01*
X70081000Y5374300D02*
X70146000Y5195200D01*
X70146000Y5195200D02*
X70210000Y4991600D01*
X70210000Y4991600D02*
X70273000Y4787900D01*
X70273000Y4787900D02*
X70333000Y4563500D01*
X70333000Y4563500D02*
X70392000Y4339100D01*
X70392000Y4339100D02*
X70448000Y4097800D01*
X70448000Y4097800D02*
X70503000Y3856500D01*
X70503000Y3856500D02*
X70552000Y3602000D01*
X70552000Y3602000D02*
X70601000Y3347500D01*
X70601000Y3347500D02*
X70752000Y2554500D01*
X70752000Y2554500D02*
X70903000Y1761400D01*
X70903000Y1761400D02*
X71025000Y1153400D01*
X71025000Y1153400D02*
X71146000Y545400D01*
X71146000Y545400D02*
X71230000Y75000D01*
X71230000Y75000D02*
X71314000Y-395500D01*
X71314000Y-395500D02*
X71369000Y-778800D01*
X71369000Y-778800D02*
X71423000Y-1162100D01*
X71423000Y-1162100D02*
X71456000Y-1508500D01*
X71456000Y-1508500D02*
X71489000Y-1854900D01*
X71489000Y-1854900D02*
X71585000Y-2922900D01*
X71585000Y-2922900D02*
X71680000Y-3990900D01*
X71680000Y-3990900D02*
X71733000Y-4625300D01*
X71733000Y-4625300D02*
X71786000Y-5259800D01*
X71786000Y-5259800D02*
X71821000Y-5651700D01*
X71821000Y-5651700D02*
X71856000Y-6043600D01*
X71856000Y-6043600D02*
X71895000Y-6391800D01*
X71895000Y-6391800D02*
X71933000Y-6740100D01*
X71933000Y-6740100D02*
X72015000Y-7584700D01*
X72015000Y-7584700D02*
X72097000Y-8429300D01*
X72097000Y-8429300D02*
X72175000Y-9456300D01*
X72175000Y-9456300D02*
X72252000Y-10483300D01*
X72252000Y-10483300D02*
X72284000Y-10832200D01*
X72284000Y-10832200D02*
X72316000Y-11181200D01*
X72316000Y-11181200D02*
X72332000Y-11426500D01*
X72332000Y-11426500D02*
X72349000Y-11671900D01*
X72349000Y-11671900D02*
X72366000Y-12115700D01*
X72366000Y-12115700D02*
X72383000Y-12559600D01*
X72383000Y-12559600D02*
X72401000Y-13488200D01*
X72401000Y-13488200D02*
X72420000Y-14416900D01*
X72420000Y-14416900D02*
X72410000Y-14712300D01*
X72410000Y-14712300D02*
X72401000Y-15007700D01*
X72401000Y-15007700D02*
X72379000Y-15346700D01*
X72379000Y-15346700D02*
X72357000Y-15685700D01*
X72357000Y-15685700D02*
X72342000Y-15901700D01*
X72342000Y-15901700D02*
X72328000Y-16117700D01*
X72328000Y-16117700D02*
X72320000Y-16365700D01*
X72320000Y-16365700D02*
X72312000Y-16613700D01*
X72312000Y-16613700D02*
X72313000Y-17323400D01*
X72313000Y-17323400D02*
X72315000Y-18033200D01*
X72315000Y-18033200D02*
X72325000Y-19144200D01*
X72325000Y-19144200D02*
X72335000Y-20255200D01*
X72335000Y-20255200D02*
X72334000Y-21145500D01*
X72334000Y-21145500D02*
X72333000Y-22035900D01*
X72333000Y-22035900D02*
X72320000Y-22686900D01*
X72320000Y-22686900D02*
X72307000Y-23337900D01*
X72307000Y-23337900D02*
X72283000Y-23730800D01*
X72283000Y-23730800D02*
X72259000Y-24123800D01*
X72259000Y-24123800D02*
X72180000Y-24881400D01*
X72180000Y-24881400D02*
X72102000Y-25639100D01*
X72102000Y-25639100D02*
X72064000Y-25955800D01*
X72064000Y-25955800D02*
X72027000Y-26272600D01*
X72027000Y-26272600D02*
X71978000Y-26522700D01*
X71978000Y-26522700D02*
X71930000Y-26772800D01*
X71930000Y-26772800D02*
X71858000Y-27002100D01*
X71858000Y-27002100D02*
X71787000Y-27231500D01*
X71787000Y-27231500D02*
X71680000Y-27485800D01*
X71680000Y-27485800D02*
X71574000Y-27740100D01*
X71574000Y-27740100D02*
X71353000Y-28247700D01*
X71353000Y-28247700D02*
X71133000Y-28755300D01*
X71133000Y-28755300D02*
X71030000Y-28978900D01*
X71030000Y-28978900D02*
X70927000Y-29202500D01*
X70927000Y-29202500D02*
X70807000Y-29426400D01*
X70807000Y-29426400D02*
X70688000Y-29650400D01*
X70688000Y-29650400D02*
X70551000Y-29875800D01*
X70551000Y-29875800D02*
X70415000Y-30101200D01*
X70415000Y-30101200D02*
X70260000Y-30329300D01*
X70260000Y-30329300D02*
X70106000Y-30557400D01*
X70106000Y-30557400D02*
X69933000Y-30789400D01*
X69933000Y-30789400D02*
X69760000Y-31021400D01*
X69760000Y-31021400D02*
X69567000Y-31258500D01*
X69567000Y-31258500D02*
X69374000Y-31495600D01*
X69374000Y-31495600D02*
X69160000Y-31739000D01*
X69160000Y-31739000D02*
X68947000Y-31982400D01*
X68947000Y-31982400D02*
X68711000Y-32233200D01*
X68711000Y-32233200D02*
X68476000Y-32484100D01*
X68476000Y-32484100D02*
X68308000Y-32667400D01*
X68308000Y-32667400D02*
X68140000Y-32850700D01*
X68140000Y-32850700D02*
X68089000Y-32913500D01*
X68089000Y-32913500D02*
X68038000Y-32976400D01*
X68038000Y-32976400D02*
X68019000Y-33007900D01*
X68019000Y-33007900D02*
X68001000Y-33039400D01*
X68001000Y-33039400D02*
X67971000Y-33085200D01*
X67971000Y-33085200D02*
X67942000Y-33131000D01*
X67942000Y-33131000D02*
X67871000Y-33197500D01*
X67871000Y-33197500D02*
X67800000Y-33264000D01*
X67800000Y-33264000D02*
X67548000Y-33480400D01*
X67548000Y-33480400D02*
X67297000Y-33696900D01*
X67297000Y-33696900D02*
X67114000Y-33841100D01*
X67114000Y-33841100D02*
X66931000Y-33985400D01*
X66931000Y-33985400D02*
X66702000Y-34142300D01*
X66702000Y-34142300D02*
X66473000Y-34299200D01*
X66473000Y-34299200D02*
X66147000Y-34509500D01*
X66147000Y-34509500D02*
X65822000Y-34719900D01*
X65822000Y-34719900D02*
X65598000Y-34865700D01*
X65598000Y-34865700D02*
X65375000Y-35011500D01*
X65375000Y-35011500D02*
X65123000Y-35158200D01*
X65123000Y-35158200D02*
X64871000Y-35304900D01*
X64871000Y-35304900D02*
X64607000Y-35444600D01*
X64607000Y-35444600D02*
X64343000Y-35584400D01*
X64343000Y-35584400D02*
X64084000Y-35709200D01*
X64084000Y-35709200D02*
X63826000Y-35834100D01*
X63826000Y-35834100D02*
X63590000Y-35936200D01*
X63590000Y-35936200D02*
X63355000Y-36038300D01*
X63355000Y-36038300D02*
X63159000Y-36109700D01*
X63159000Y-36109700D02*
X62963000Y-36181200D01*
X62963000Y-36181200D02*
X62824000Y-36214100D01*
X62824000Y-36214100D02*
X62685000Y-36247100D01*
X62685000Y-36247100D02*
X62642000Y-36246600D01*
X62642000Y-36246600D02*
X62599000Y-36246200D01*
X62599000Y-36246200D02*
X62577000Y-36233200D01*
X62577000Y-36233200D02*
X62555000Y-36220200D01*
X62555000Y-36220200D02*
X62537000Y-36204500D01*
X62537000Y-36204500D02*
X62519000Y-36188900D01*
X62519000Y-36188900D02*
X62479000Y-36190300D01*
X62479000Y-36190300D02*
X62440000Y-36191700D01*
X62440000Y-36191700D02*
X62226000Y-36259300D01*
X62226000Y-36259300D02*
X62012000Y-36326900D01*
X62012000Y-36326900D02*
X61516000Y-36492400D01*
X61516000Y-36492400D02*
X61021000Y-36658000D01*
X61021000Y-36658000D02*
X60878000Y-36697500D01*
X60878000Y-36697500D02*
X60736000Y-36737100D01*
X60736000Y-36737100D02*
X60637000Y-36755700D01*
X60637000Y-36755700D02*
X60539000Y-36774300D01*
X60539000Y-36774300D02*
X60325000Y-36815600D01*
X60325000Y-36815600D02*
X60112000Y-36857000D01*
X60112000Y-36857000D02*
X59944000Y-36889900D01*
X59944000Y-36889900D02*
X59777000Y-36922800D01*
X59777000Y-36922800D02*
X59521000Y-36962200D01*
X59521000Y-36962200D02*
X59266000Y-37001600D01*
X59266000Y-37001600D02*
X58843000Y-37065800D01*
X58843000Y-37065800D02*
X58421000Y-37130000D01*
X58421000Y-37130000D02*
X58241000Y-37158200D01*
X58241000Y-37158200D02*
X58061000Y-37186500D01*
X58061000Y-37186500D02*
X57681000Y-37265900D01*
X57681000Y-37265900D02*
X57301000Y-37345400D01*
X57301000Y-37345400D02*
X56454000Y-37546800D01*
X56454000Y-37546800D02*
X55608000Y-37748300D01*
X55608000Y-37748300D02*
X54897000Y-37925700D01*
X54897000Y-37925700D02*
X54186000Y-38103200D01*
X54186000Y-38103200D02*
X54047000Y-38144800D01*
X54047000Y-38144800D02*
X53909000Y-38186400D01*
X53909000Y-38186400D02*
X53846000Y-38215200D01*
X53846000Y-38215200D02*
X53784000Y-38244100D01*
X53784000Y-38244100D02*
X53639000Y-38302500D01*
X53639000Y-38302500D02*
X53495000Y-38360900D01*
X53495000Y-38360900D02*
X53218000Y-38454300D01*
X53218000Y-38454300D02*
X52942000Y-38547800D01*
X52942000Y-38547800D02*
X52443000Y-38714000D01*
X52443000Y-38714000D02*
X51945000Y-38880200D01*
X51945000Y-38880200D02*
X51450000Y-39084400D01*
X51450000Y-39084400D02*
X50955000Y-39288700D01*
X50955000Y-39288700D02*
X50156000Y-39625400D01*
X50156000Y-39625400D02*
X49358000Y-39962100D01*
X49358000Y-39962100D02*
X48993000Y-40101600D01*
X48993000Y-40101600D02*
X48628000Y-40241200D01*
X48628000Y-40241200D02*
X47912000Y-40518900D01*
X47912000Y-40518900D02*
X47196000Y-40796600D01*
X47196000Y-40796600D02*
X46465000Y-41081100D01*
X46465000Y-41081100D02*
X45735000Y-41365700D01*
X45735000Y-41365700D02*
X45511000Y-41451100D01*
X45511000Y-41451100D02*
X45288000Y-41536600D01*
X45288000Y-41536600D02*
X45267000Y-41556200D01*
X45267000Y-41556200D02*
X45247000Y-41575900D01*
X45247000Y-41575900D02*
X45264000Y-41592800D01*
X45264000Y-41592800D02*
X45282000Y-41609700D01*
X45282000Y-41609700D02*
X45289000Y-41620300D01*
X45289000Y-41620300D02*
X45297000Y-41630900D01*
X45297000Y-41630900D02*
X45294000Y-41645400D01*
X45294000Y-41645400D02*
X45291000Y-41659900D01*
X45291000Y-41659900D02*
X45259000Y-41695700D01*
X45259000Y-41695700D02*
X45227000Y-41731600D01*
X45227000Y-41731600D02*
X45170000Y-41768400D01*
X45170000Y-41768400D02*
X45114000Y-41805300D01*
X45114000Y-41805300D02*
X45045000Y-41833300D01*
X45045000Y-41833300D02*
X44976000Y-41861400D01*
X44976000Y-41861400D02*
X44795000Y-41926400D01*
X44795000Y-41926400D02*
X44614000Y-41991400D01*
X44614000Y-41991400D02*
X44430000Y-42049100D01*
X44430000Y-42049100D02*
X44246000Y-42106800D01*
X44246000Y-42106800D02*
X43940000Y-42189300D01*
X43940000Y-42189300D02*
X43635000Y-42271800D01*
X43635000Y-42271800D02*
X43288000Y-42358200D01*
X43288000Y-42358200D02*
X42941000Y-42444600D01*
X42941000Y-42444600D02*
X42634000Y-42513900D01*
X42634000Y-42513900D02*
X42327000Y-42583200D01*
X42327000Y-42583200D02*
X41909000Y-42677300D01*
X41909000Y-42677300D02*
X41491000Y-42771500D01*
X41491000Y-42771500D02*
X40956000Y-42901500D01*
X40956000Y-42901500D02*
X40421000Y-43031600D01*
X40421000Y-43031600D02*
X39905000Y-43163600D01*
X39905000Y-43163600D02*
X39389000Y-43295600D01*
X39389000Y-43295600D02*
X39028000Y-43395500D01*
X39028000Y-43395500D02*
X38668000Y-43495400D01*
X38668000Y-43495400D02*
X38382000Y-43571200D01*
X38382000Y-43571200D02*
X38097000Y-43647100D01*
X38097000Y-43647100D02*
X37388000Y-43805600D01*
X37388000Y-43805600D02*
X36680000Y-43964200D01*
X36680000Y-43964200D02*
X36077000Y-44101800D01*
X36077000Y-44101800D02*
X35475000Y-44239500D01*
X35475000Y-44239500D02*
X34710000Y-44411700D01*
X34710000Y-44411700D02*
X33945000Y-44583900D01*
X33945000Y-44583900D02*
X33303000Y-44716700D01*
X33303000Y-44716700D02*
X32662000Y-44849600D01*
X32662000Y-44849600D02*
X32412000Y-44892200D01*
X32412000Y-44892200D02*
X32163000Y-44934800D01*
X32163000Y-44934800D02*
X31788000Y-44988100D01*
X31788000Y-44988100D02*
X31414000Y-45041400D01*
X31414000Y-45041400D02*
X31076000Y-45093100D01*
X31076000Y-45093100D02*
X30738000Y-45144800D01*
X30738000Y-45144800D02*
X30346000Y-45207900D01*
X30346000Y-45207900D02*
X29955000Y-45271000D01*
X29955000Y-45271000D02*
X29342000Y-45366600D01*
X29342000Y-45366600D02*
X28729000Y-45462300D01*
X28729000Y-45462300D02*
X28254000Y-45531200D01*
X28254000Y-45531200D02*
X27779000Y-45600100D01*
X27779000Y-45600100D02*
X27006000Y-45699800D01*
X27006000Y-45699800D02*
X26233000Y-45799600D01*
X26233000Y-45799600D02*
X25006000Y-45926900D01*
X25006000Y-45926900D02*
X23779600Y-46054200D01*
X23779600Y-46054200D02*
X23530700Y-46089300D01*
X23530700Y-46089300D02*
X23281900Y-46124500D01*
X23281900Y-46124500D02*
X22980900Y-46182700D01*
X22980900Y-46182700D02*
X22679900Y-46240900D01*
X22679900Y-46240900D02*
X22320300Y-46305100D01*
X22320300Y-46305100D02*
X21960700Y-46369400D01*
X21960700Y-46369400D02*
X21546200Y-46412600D01*
X21546200Y-46412600D02*
X21131800Y-46455800D01*
X21131800Y-46455800D02*
X20632700Y-46480100D01*
X20632700Y-46480100D02*
X20133700Y-46504500D01*
X20133700Y-46504500D02*
X19520200Y-46512100D01*
X19520200Y-46512100D02*
X18906700Y-46519800D01*
X18906700Y-46519800D02*
X18191500Y-46531400D01*
X18191500Y-46531400D02*
X17476400Y-46543000D01*
X17476400Y-46543000D02*
X16726400Y-46572800D01*
X16726400Y-46572800D02*
X15976400Y-46602700D01*
X15976400Y-46602700D02*
X14707500Y-46666300D01*
X14707500Y-46666300D02*
X13438600Y-46729900D01*
X13438600Y-46729900D02*
X12497500Y-46772600D01*
X12497500Y-46772600D02*
X11556400Y-46815300D01*
X11556400Y-46815300D02*
X11139800Y-46828200D01*
X11139800Y-46828200D02*
X10723200Y-46841200D01*
X10723200Y-46841200D02*
X10252800Y-46845200D01*
X10252800Y-46845200D02*
X9782500Y-46849300D01*
X9782500Y-46849300D02*
X9293000Y-46844500D01*
X9293000Y-46844500D02*
X8803600Y-46839700D01*
X8803600Y-46839700D02*
X8329500Y-46826000D01*
X8329500Y-46826000D02*
X7855500Y-46812400D01*
X7855500Y-46812400D02*
X7855600Y-46812300D01*
X7855600Y-46812300D02*
X7855600Y-46812300D01*
X7855600Y-46812300D02*
X7855600Y-46812300D01*
M02*
