G04 #@! TF.GenerationSoftware,KiCad,Pcbnew,5.1.6*
G04 #@! TF.CreationDate,2020-09-02T09:11:22+02:00*
G04 #@! TF.ProjectId,mch2021,6d636832-3032-4312-9e6b-696361645f70,1*
G04 #@! TF.SameCoordinates,Original*
G04 #@! TF.FileFunction,Soldermask,Top*
G04 #@! TF.FilePolarity,Negative*
%FSLAX46Y46*%
G04 Gerber Fmt 4.6, Leading zero omitted, Abs format (unit mm)*
G04 Created by KiCad (PCBNEW 5.1.6) date 2020-09-02 09:11:22*
%MOMM*%
%LPD*%
G01*
G04 APERTURE LIST*
%ADD10C,0.100000*%
G04 APERTURE END LIST*
D10*
G36*
X5546253Y-92253801D02*
G01*
X5816730Y-92307602D01*
X6027799Y-92395030D01*
X6326296Y-92518671D01*
X6326297Y-92518672D01*
X6784896Y-92825098D01*
X7174902Y-93215104D01*
X7379650Y-93521531D01*
X7481329Y-93673704D01*
X7692398Y-94183271D01*
X7800000Y-94724223D01*
X7800000Y-95275777D01*
X7692398Y-95816729D01*
X7481329Y-96326296D01*
X7481328Y-96326297D01*
X7174902Y-96784896D01*
X6784896Y-97174902D01*
X6688372Y-97239397D01*
X6326296Y-97481329D01*
X6149705Y-97554475D01*
X5816730Y-97692398D01*
X5546253Y-97746199D01*
X5275777Y-97800000D01*
X4724223Y-97800000D01*
X4453747Y-97746199D01*
X4183270Y-97692398D01*
X3850295Y-97554475D01*
X3673704Y-97481329D01*
X3311628Y-97239397D01*
X3215104Y-97174902D01*
X2825098Y-96784896D01*
X2518672Y-96326297D01*
X2518671Y-96326296D01*
X2307602Y-95816729D01*
X2200000Y-95275777D01*
X2200000Y-94724223D01*
X2307602Y-94183271D01*
X2518671Y-93673704D01*
X2620350Y-93521531D01*
X2825098Y-93215104D01*
X3215104Y-92825098D01*
X3673703Y-92518672D01*
X3673704Y-92518671D01*
X3972201Y-92395030D01*
X4183270Y-92307602D01*
X4453747Y-92253801D01*
X4724223Y-92200000D01*
X5275777Y-92200000D01*
X5546253Y-92253801D01*
G37*
G36*
X95546253Y-92253801D02*
G01*
X95816730Y-92307602D01*
X96027799Y-92395030D01*
X96326296Y-92518671D01*
X96326297Y-92518672D01*
X96784896Y-92825098D01*
X97174902Y-93215104D01*
X97379650Y-93521531D01*
X97481329Y-93673704D01*
X97692398Y-94183271D01*
X97800000Y-94724223D01*
X97800000Y-95275777D01*
X97692398Y-95816729D01*
X97481329Y-96326296D01*
X97481328Y-96326297D01*
X97174902Y-96784896D01*
X96784896Y-97174902D01*
X96688372Y-97239397D01*
X96326296Y-97481329D01*
X96149705Y-97554475D01*
X95816730Y-97692398D01*
X95546253Y-97746199D01*
X95275777Y-97800000D01*
X94724223Y-97800000D01*
X94453747Y-97746199D01*
X94183270Y-97692398D01*
X93850295Y-97554475D01*
X93673704Y-97481329D01*
X93311628Y-97239397D01*
X93215104Y-97174902D01*
X92825098Y-96784896D01*
X92518672Y-96326297D01*
X92518671Y-96326296D01*
X92307602Y-95816729D01*
X92200000Y-95275777D01*
X92200000Y-94724223D01*
X92307602Y-94183271D01*
X92518671Y-93673704D01*
X92620350Y-93521531D01*
X92825098Y-93215104D01*
X93215104Y-92825098D01*
X93673703Y-92518672D01*
X93673704Y-92518671D01*
X93972201Y-92395030D01*
X94183270Y-92307602D01*
X94453747Y-92253801D01*
X94724223Y-92200000D01*
X95275777Y-92200000D01*
X95546253Y-92253801D01*
G37*
G36*
X76790000Y-87410000D02*
G01*
X74690000Y-87410000D01*
X74690000Y-85310000D01*
X76790000Y-85310000D01*
X76790000Y-87410000D01*
G37*
G36*
X82790000Y-87410000D02*
G01*
X80690000Y-87410000D01*
X80690000Y-85310000D01*
X82790000Y-85310000D01*
X82790000Y-87410000D01*
G37*
G36*
X23376600Y-86254600D02*
G01*
X21276600Y-86254600D01*
X21276600Y-84354600D01*
X23376600Y-84354600D01*
X23376600Y-86254600D01*
G37*
G36*
X98418243Y-82781814D02*
G01*
X98418246Y-82781815D01*
X98418245Y-82781815D01*
X98509239Y-82819506D01*
X98550463Y-82847051D01*
X98591130Y-82874224D01*
X98660776Y-82943870D01*
X98715495Y-83025763D01*
X98753186Y-83116757D01*
X98772400Y-83213353D01*
X98772400Y-83311847D01*
X98753186Y-83408443D01*
X98753185Y-83408445D01*
X98715494Y-83499439D01*
X98660775Y-83581331D01*
X98591131Y-83650975D01*
X98509239Y-83705694D01*
X98509238Y-83705695D01*
X98509237Y-83705695D01*
X98418243Y-83743386D01*
X98321647Y-83762600D01*
X98223153Y-83762600D01*
X98126557Y-83743386D01*
X98035563Y-83705695D01*
X98035562Y-83705695D01*
X98035561Y-83705694D01*
X97953669Y-83650975D01*
X97884025Y-83581331D01*
X97829306Y-83499439D01*
X97791615Y-83408445D01*
X97791614Y-83408443D01*
X97772400Y-83311847D01*
X97772400Y-83213353D01*
X97791614Y-83116757D01*
X97829305Y-83025763D01*
X97884024Y-82943870D01*
X97953670Y-82874224D01*
X97994337Y-82847051D01*
X98035561Y-82819506D01*
X98126555Y-82781815D01*
X98126554Y-82781815D01*
X98126557Y-82781814D01*
X98223153Y-82762600D01*
X98321647Y-82762600D01*
X98418243Y-82781814D01*
G37*
G36*
X22501613Y-82577657D02*
G01*
X22610806Y-82622886D01*
X22709077Y-82688549D01*
X22792651Y-82772123D01*
X22858314Y-82870394D01*
X22903543Y-82979587D01*
X22926600Y-83095504D01*
X22926600Y-83213696D01*
X22903543Y-83329613D01*
X22858314Y-83438806D01*
X22792651Y-83537077D01*
X22709077Y-83620651D01*
X22610806Y-83686314D01*
X22501613Y-83731543D01*
X22385696Y-83754600D01*
X22267504Y-83754600D01*
X22151587Y-83731543D01*
X22042394Y-83686314D01*
X21944123Y-83620651D01*
X21860549Y-83537077D01*
X21794886Y-83438806D01*
X21749657Y-83329613D01*
X21726600Y-83213696D01*
X21726600Y-83095504D01*
X21749657Y-82979587D01*
X21794886Y-82870394D01*
X21860549Y-82772123D01*
X21944123Y-82688549D01*
X22042394Y-82622886D01*
X22151587Y-82577657D01*
X22267504Y-82554600D01*
X22385696Y-82554600D01*
X22501613Y-82577657D01*
G37*
G36*
X27376600Y-83229600D02*
G01*
X25276600Y-83229600D01*
X25276600Y-82129600D01*
X27376600Y-82129600D01*
X27376600Y-83229600D01*
G37*
G36*
X19376600Y-83229600D02*
G01*
X17276600Y-83229600D01*
X17276600Y-82129600D01*
X19376600Y-82129600D01*
X19376600Y-83229600D01*
G37*
G36*
X27376600Y-81804600D02*
G01*
X25276600Y-81804600D01*
X25276600Y-80704600D01*
X27376600Y-80704600D01*
X27376600Y-81804600D01*
G37*
G36*
X19376600Y-81804600D02*
G01*
X17276600Y-81804600D01*
X17276600Y-80704600D01*
X19376600Y-80704600D01*
X19376600Y-81804600D01*
G37*
G36*
X98418243Y-79781814D02*
G01*
X98473253Y-79804600D01*
X98509239Y-79819506D01*
X98550463Y-79847051D01*
X98591130Y-79874224D01*
X98660776Y-79943870D01*
X98715495Y-80025763D01*
X98753186Y-80116757D01*
X98772400Y-80213353D01*
X98772400Y-80311847D01*
X98753186Y-80408443D01*
X98753185Y-80408445D01*
X98715494Y-80499439D01*
X98660775Y-80581331D01*
X98591131Y-80650975D01*
X98509239Y-80705694D01*
X98509238Y-80705695D01*
X98509237Y-80705695D01*
X98418243Y-80743386D01*
X98321647Y-80762600D01*
X98223153Y-80762600D01*
X98126557Y-80743386D01*
X98035563Y-80705695D01*
X98035562Y-80705695D01*
X98035561Y-80705694D01*
X97953669Y-80650975D01*
X97884025Y-80581331D01*
X97829306Y-80499439D01*
X97791615Y-80408445D01*
X97791614Y-80408443D01*
X97772400Y-80311847D01*
X97772400Y-80213353D01*
X97791614Y-80116757D01*
X97829305Y-80025763D01*
X97884024Y-79943870D01*
X97953670Y-79874224D01*
X97994337Y-79847051D01*
X98035561Y-79819506D01*
X98071547Y-79804600D01*
X98126557Y-79781814D01*
X98223153Y-79762600D01*
X98321647Y-79762600D01*
X98418243Y-79781814D01*
G37*
G36*
X27376600Y-80379600D02*
G01*
X25276600Y-80379600D01*
X25276600Y-79279600D01*
X27376600Y-79279600D01*
X27376600Y-80379600D01*
G37*
G36*
X19376600Y-80379600D02*
G01*
X17276600Y-80379600D01*
X17276600Y-79279600D01*
X19376600Y-79279600D01*
X19376600Y-80379600D01*
G37*
G36*
X22457859Y-78921893D02*
G01*
X22539755Y-78955815D01*
X22613458Y-79005062D01*
X22676138Y-79067742D01*
X22725385Y-79141445D01*
X22759307Y-79223341D01*
X22776600Y-79310278D01*
X22776600Y-79398922D01*
X22759307Y-79485859D01*
X22742345Y-79526808D01*
X22725385Y-79567755D01*
X22676138Y-79641458D01*
X22613458Y-79704138D01*
X22539755Y-79753385D01*
X22517507Y-79762600D01*
X22457859Y-79787307D01*
X22370922Y-79804600D01*
X22282278Y-79804600D01*
X22195341Y-79787307D01*
X22135693Y-79762600D01*
X22113445Y-79753385D01*
X22039742Y-79704138D01*
X21977062Y-79641458D01*
X21927815Y-79567755D01*
X21910855Y-79526808D01*
X21893893Y-79485859D01*
X21876600Y-79398922D01*
X21876600Y-79310278D01*
X21893893Y-79223341D01*
X21910855Y-79182392D01*
X21927815Y-79141445D01*
X21977062Y-79067742D01*
X22039742Y-79005062D01*
X22113445Y-78955815D01*
X22195341Y-78921893D01*
X22282278Y-78904600D01*
X22370922Y-78904600D01*
X22457859Y-78921893D01*
G37*
G36*
X84410000Y-79790000D02*
G01*
X82310000Y-79790000D01*
X82310000Y-77690000D01*
X84410000Y-77690000D01*
X84410000Y-79790000D01*
G37*
G36*
X90410000Y-79790000D02*
G01*
X88310000Y-79790000D01*
X88310000Y-77690000D01*
X90410000Y-77690000D01*
X90410000Y-79790000D01*
G37*
G36*
X23376600Y-78154600D02*
G01*
X21276600Y-78154600D01*
X21276600Y-76254600D01*
X23376600Y-76254600D01*
X23376600Y-78154600D01*
G37*
G36*
X13472691Y-73548175D02*
G01*
X13506579Y-73558455D01*
X13537812Y-73575150D01*
X13565186Y-73597614D01*
X13587650Y-73624988D01*
X13604345Y-73656221D01*
X13614625Y-73690109D01*
X13618700Y-73731488D01*
X13618700Y-74331712D01*
X13614625Y-74373091D01*
X13604345Y-74406979D01*
X13587650Y-74438212D01*
X13565186Y-74465586D01*
X13537812Y-74488050D01*
X13506579Y-74504745D01*
X13472691Y-74515025D01*
X13431312Y-74519100D01*
X12756088Y-74519100D01*
X12714709Y-74515025D01*
X12680821Y-74504745D01*
X12649588Y-74488050D01*
X12622214Y-74465586D01*
X12599750Y-74438212D01*
X12583055Y-74406979D01*
X12572775Y-74373091D01*
X12568700Y-74331712D01*
X12568700Y-73731488D01*
X12572775Y-73690109D01*
X12583055Y-73656221D01*
X12599750Y-73624988D01*
X12622214Y-73597614D01*
X12649588Y-73575150D01*
X12680821Y-73558455D01*
X12714709Y-73548175D01*
X12756088Y-73544100D01*
X13431312Y-73544100D01*
X13472691Y-73548175D01*
G37*
G36*
X18489191Y-73017875D02*
G01*
X18523079Y-73028155D01*
X18554312Y-73044850D01*
X18581686Y-73067314D01*
X18604150Y-73094688D01*
X18620845Y-73125921D01*
X18631125Y-73159809D01*
X18635200Y-73201188D01*
X18635200Y-73801412D01*
X18631125Y-73842791D01*
X18620845Y-73876679D01*
X18604150Y-73907912D01*
X18581686Y-73935286D01*
X18554312Y-73957750D01*
X18523079Y-73974445D01*
X18489191Y-73984725D01*
X18447812Y-73988800D01*
X17772588Y-73988800D01*
X17731209Y-73984725D01*
X17697321Y-73974445D01*
X17666088Y-73957750D01*
X17638714Y-73935286D01*
X17616250Y-73907912D01*
X17599555Y-73876679D01*
X17589275Y-73842791D01*
X17585200Y-73801412D01*
X17585200Y-73201188D01*
X17589275Y-73159809D01*
X17599555Y-73125921D01*
X17616250Y-73094688D01*
X17638714Y-73067314D01*
X17666088Y-73044850D01*
X17697321Y-73028155D01*
X17731209Y-73017875D01*
X17772588Y-73013800D01*
X18447812Y-73013800D01*
X18489191Y-73017875D01*
G37*
G36*
X5190120Y-72214586D02*
G01*
X5318569Y-72267791D01*
X5353910Y-72282430D01*
X5501317Y-72380924D01*
X5626676Y-72506283D01*
X5721051Y-72647526D01*
X5725171Y-72653692D01*
X5793014Y-72817480D01*
X5827600Y-72991356D01*
X5827600Y-73168644D01*
X5793014Y-73342520D01*
X5725170Y-73506310D01*
X5626676Y-73653717D01*
X5501317Y-73779076D01*
X5353910Y-73877570D01*
X5353909Y-73877571D01*
X5353908Y-73877571D01*
X5190120Y-73945414D01*
X5016244Y-73980000D01*
X4838956Y-73980000D01*
X4665080Y-73945414D01*
X4501292Y-73877571D01*
X4501291Y-73877571D01*
X4501290Y-73877570D01*
X4353883Y-73779076D01*
X4228524Y-73653717D01*
X4130030Y-73506310D01*
X4062186Y-73342520D01*
X4027600Y-73168644D01*
X4027600Y-72991356D01*
X4062186Y-72817480D01*
X4130029Y-72653692D01*
X4134149Y-72647526D01*
X4228524Y-72506283D01*
X4353883Y-72380924D01*
X4501290Y-72282430D01*
X4536632Y-72267791D01*
X4665080Y-72214586D01*
X4838956Y-72180000D01*
X5016244Y-72180000D01*
X5190120Y-72214586D01*
G37*
G36*
X2650120Y-72214586D02*
G01*
X2778569Y-72267791D01*
X2813910Y-72282430D01*
X2961317Y-72380924D01*
X3086676Y-72506283D01*
X3181051Y-72647526D01*
X3185171Y-72653692D01*
X3253014Y-72817480D01*
X3287600Y-72991356D01*
X3287600Y-73168644D01*
X3253014Y-73342520D01*
X3185170Y-73506310D01*
X3086676Y-73653717D01*
X2961317Y-73779076D01*
X2813910Y-73877570D01*
X2813909Y-73877571D01*
X2813908Y-73877571D01*
X2650120Y-73945414D01*
X2476244Y-73980000D01*
X2298956Y-73980000D01*
X2125080Y-73945414D01*
X1961292Y-73877571D01*
X1961291Y-73877571D01*
X1961290Y-73877570D01*
X1813883Y-73779076D01*
X1688524Y-73653717D01*
X1590030Y-73506310D01*
X1522186Y-73342520D01*
X1487600Y-73168644D01*
X1487600Y-72991356D01*
X1522186Y-72817480D01*
X1590029Y-72653692D01*
X1594149Y-72647526D01*
X1688524Y-72506283D01*
X1813883Y-72380924D01*
X1961290Y-72282430D01*
X1996632Y-72267791D01*
X2125080Y-72214586D01*
X2298956Y-72180000D01*
X2476244Y-72180000D01*
X2650120Y-72214586D01*
G37*
G36*
X13472691Y-71973175D02*
G01*
X13506579Y-71983455D01*
X13537812Y-72000150D01*
X13565186Y-72022614D01*
X13587650Y-72049988D01*
X13604345Y-72081221D01*
X13614625Y-72115109D01*
X13618700Y-72156488D01*
X13618700Y-72756712D01*
X13614625Y-72798091D01*
X13604345Y-72831979D01*
X13587650Y-72863212D01*
X13565186Y-72890586D01*
X13537812Y-72913050D01*
X13506579Y-72929745D01*
X13472691Y-72940025D01*
X13431312Y-72944100D01*
X12756088Y-72944100D01*
X12714709Y-72940025D01*
X12680821Y-72929745D01*
X12649588Y-72913050D01*
X12622214Y-72890586D01*
X12599750Y-72863212D01*
X12583055Y-72831979D01*
X12572775Y-72798091D01*
X12568700Y-72756712D01*
X12568700Y-72156488D01*
X12572775Y-72115109D01*
X12583055Y-72081221D01*
X12599750Y-72049988D01*
X12622214Y-72022614D01*
X12649588Y-72000150D01*
X12680821Y-71983455D01*
X12714709Y-71973175D01*
X12756088Y-71969100D01*
X13431312Y-71969100D01*
X13472691Y-71973175D01*
G37*
G36*
X53808591Y-71620155D02*
G01*
X53842479Y-71630435D01*
X53873712Y-71647130D01*
X53901086Y-71669594D01*
X53923550Y-71696968D01*
X53940245Y-71728201D01*
X53950525Y-71762089D01*
X53954600Y-71803468D01*
X53954600Y-72478692D01*
X53950525Y-72520071D01*
X53940245Y-72553959D01*
X53923550Y-72585192D01*
X53901086Y-72612566D01*
X53873712Y-72635030D01*
X53842479Y-72651725D01*
X53808591Y-72662005D01*
X53767212Y-72666080D01*
X53166988Y-72666080D01*
X53125609Y-72662005D01*
X53091721Y-72651725D01*
X53060488Y-72635030D01*
X53033114Y-72612566D01*
X53010650Y-72585192D01*
X52993955Y-72553959D01*
X52983675Y-72520071D01*
X52979600Y-72478692D01*
X52979600Y-71803468D01*
X52983675Y-71762089D01*
X52993955Y-71728201D01*
X53010650Y-71696968D01*
X53033114Y-71669594D01*
X53060488Y-71647130D01*
X53091721Y-71630435D01*
X53125609Y-71620155D01*
X53166988Y-71616080D01*
X53767212Y-71616080D01*
X53808591Y-71620155D01*
G37*
G36*
X52233591Y-71620155D02*
G01*
X52267479Y-71630435D01*
X52298712Y-71647130D01*
X52326086Y-71669594D01*
X52348550Y-71696968D01*
X52365245Y-71728201D01*
X52375525Y-71762089D01*
X52379600Y-71803468D01*
X52379600Y-72478692D01*
X52375525Y-72520071D01*
X52365245Y-72553959D01*
X52348550Y-72585192D01*
X52326086Y-72612566D01*
X52298712Y-72635030D01*
X52267479Y-72651725D01*
X52233591Y-72662005D01*
X52192212Y-72666080D01*
X51591988Y-72666080D01*
X51550609Y-72662005D01*
X51516721Y-72651725D01*
X51485488Y-72635030D01*
X51458114Y-72612566D01*
X51435650Y-72585192D01*
X51418955Y-72553959D01*
X51408675Y-72520071D01*
X51404600Y-72478692D01*
X51404600Y-71803468D01*
X51408675Y-71762089D01*
X51418955Y-71728201D01*
X51435650Y-71696968D01*
X51458114Y-71669594D01*
X51485488Y-71647130D01*
X51516721Y-71630435D01*
X51550609Y-71620155D01*
X51591988Y-71616080D01*
X52192212Y-71616080D01*
X52233591Y-71620155D01*
G37*
G36*
X16508691Y-71424575D02*
G01*
X16542579Y-71434855D01*
X16573812Y-71451550D01*
X16601186Y-71474014D01*
X16623650Y-71501388D01*
X16640345Y-71532621D01*
X16650625Y-71566509D01*
X16654700Y-71607888D01*
X16654700Y-72283112D01*
X16650625Y-72324491D01*
X16640345Y-72358379D01*
X16623650Y-72389612D01*
X16601186Y-72416986D01*
X16573812Y-72439450D01*
X16542579Y-72456145D01*
X16508691Y-72466425D01*
X16467312Y-72470500D01*
X15867088Y-72470500D01*
X15825709Y-72466425D01*
X15791821Y-72456145D01*
X15760588Y-72439450D01*
X15733214Y-72416986D01*
X15710750Y-72389612D01*
X15694055Y-72358379D01*
X15683775Y-72324491D01*
X15679700Y-72283112D01*
X15679700Y-71607888D01*
X15683775Y-71566509D01*
X15694055Y-71532621D01*
X15710750Y-71501388D01*
X15733214Y-71474014D01*
X15760588Y-71451550D01*
X15791821Y-71434855D01*
X15825709Y-71424575D01*
X15867088Y-71420500D01*
X16467312Y-71420500D01*
X16508691Y-71424575D01*
G37*
G36*
X14933691Y-71424575D02*
G01*
X14967579Y-71434855D01*
X14998812Y-71451550D01*
X15026186Y-71474014D01*
X15048650Y-71501388D01*
X15065345Y-71532621D01*
X15075625Y-71566509D01*
X15079700Y-71607888D01*
X15079700Y-72283112D01*
X15075625Y-72324491D01*
X15065345Y-72358379D01*
X15048650Y-72389612D01*
X15026186Y-72416986D01*
X14998812Y-72439450D01*
X14967579Y-72456145D01*
X14933691Y-72466425D01*
X14892312Y-72470500D01*
X14292088Y-72470500D01*
X14250709Y-72466425D01*
X14216821Y-72456145D01*
X14185588Y-72439450D01*
X14158214Y-72416986D01*
X14135750Y-72389612D01*
X14119055Y-72358379D01*
X14108775Y-72324491D01*
X14104700Y-72283112D01*
X14104700Y-71607888D01*
X14108775Y-71566509D01*
X14119055Y-71532621D01*
X14135750Y-71501388D01*
X14158214Y-71474014D01*
X14185588Y-71451550D01*
X14216821Y-71434855D01*
X14250709Y-71424575D01*
X14292088Y-71420500D01*
X14892312Y-71420500D01*
X14933691Y-71424575D01*
G37*
G36*
X18489191Y-71442875D02*
G01*
X18523079Y-71453155D01*
X18554312Y-71469850D01*
X18581686Y-71492314D01*
X18604150Y-71519688D01*
X18620845Y-71550921D01*
X18631125Y-71584809D01*
X18635200Y-71626188D01*
X18635200Y-72226412D01*
X18631125Y-72267791D01*
X18620845Y-72301679D01*
X18604150Y-72332912D01*
X18581686Y-72360286D01*
X18554312Y-72382750D01*
X18523079Y-72399445D01*
X18489191Y-72409725D01*
X18447812Y-72413800D01*
X17772588Y-72413800D01*
X17731209Y-72409725D01*
X17697321Y-72399445D01*
X17666088Y-72382750D01*
X17638714Y-72360286D01*
X17616250Y-72332912D01*
X17599555Y-72301679D01*
X17589275Y-72267791D01*
X17585200Y-72226412D01*
X17585200Y-71626188D01*
X17589275Y-71584809D01*
X17599555Y-71550921D01*
X17616250Y-71519688D01*
X17638714Y-71492314D01*
X17666088Y-71469850D01*
X17697321Y-71453155D01*
X17731209Y-71442875D01*
X17772588Y-71438800D01*
X18447812Y-71438800D01*
X18489191Y-71442875D01*
G37*
G36*
X7991091Y-71177975D02*
G01*
X8024979Y-71188255D01*
X8056212Y-71204950D01*
X8083586Y-71227414D01*
X8106050Y-71254788D01*
X8122745Y-71286021D01*
X8133025Y-71319909D01*
X8137100Y-71361288D01*
X8137100Y-71961512D01*
X8133025Y-72002891D01*
X8122745Y-72036779D01*
X8106050Y-72068012D01*
X8083586Y-72095386D01*
X8056212Y-72117850D01*
X8024979Y-72134545D01*
X7991091Y-72144825D01*
X7949712Y-72148900D01*
X7274488Y-72148900D01*
X7233109Y-72144825D01*
X7199221Y-72134545D01*
X7167988Y-72117850D01*
X7140614Y-72095386D01*
X7118150Y-72068012D01*
X7101455Y-72036779D01*
X7091175Y-72002891D01*
X7087100Y-71961512D01*
X7087100Y-71361288D01*
X7091175Y-71319909D01*
X7101455Y-71286021D01*
X7118150Y-71254788D01*
X7140614Y-71227414D01*
X7167988Y-71204950D01*
X7199221Y-71188255D01*
X7233109Y-71177975D01*
X7274488Y-71173900D01*
X7949712Y-71173900D01*
X7991091Y-71177975D01*
G37*
G36*
X2650120Y-69674586D02*
G01*
X2812035Y-69741653D01*
X2813910Y-69742430D01*
X2961317Y-69840924D01*
X3086676Y-69966283D01*
X3179263Y-70104850D01*
X3185171Y-70113692D01*
X3253014Y-70277480D01*
X3287600Y-70451356D01*
X3287600Y-70628644D01*
X3253014Y-70802520D01*
X3199429Y-70931887D01*
X3185170Y-70966310D01*
X3086676Y-71113717D01*
X2961317Y-71239076D01*
X2813910Y-71337570D01*
X2813909Y-71337571D01*
X2813908Y-71337571D01*
X2650120Y-71405414D01*
X2476244Y-71440000D01*
X2298956Y-71440000D01*
X2125080Y-71405414D01*
X1961292Y-71337571D01*
X1961291Y-71337571D01*
X1961290Y-71337570D01*
X1813883Y-71239076D01*
X1688524Y-71113717D01*
X1590030Y-70966310D01*
X1575772Y-70931887D01*
X1522186Y-70802520D01*
X1487600Y-70628644D01*
X1487600Y-70451356D01*
X1522186Y-70277480D01*
X1590029Y-70113692D01*
X1595937Y-70104850D01*
X1688524Y-69966283D01*
X1813883Y-69840924D01*
X1961290Y-69742430D01*
X1963166Y-69741653D01*
X2125080Y-69674586D01*
X2298956Y-69640000D01*
X2476244Y-69640000D01*
X2650120Y-69674586D01*
G37*
G36*
X5190120Y-69674586D02*
G01*
X5352035Y-69741653D01*
X5353910Y-69742430D01*
X5501317Y-69840924D01*
X5626676Y-69966283D01*
X5719263Y-70104850D01*
X5725171Y-70113692D01*
X5793014Y-70277480D01*
X5827600Y-70451356D01*
X5827600Y-70628644D01*
X5793014Y-70802520D01*
X5739429Y-70931887D01*
X5725170Y-70966310D01*
X5626676Y-71113717D01*
X5501317Y-71239076D01*
X5353910Y-71337570D01*
X5353909Y-71337571D01*
X5353908Y-71337571D01*
X5190120Y-71405414D01*
X5016244Y-71440000D01*
X4838956Y-71440000D01*
X4665080Y-71405414D01*
X4501292Y-71337571D01*
X4501291Y-71337571D01*
X4501290Y-71337570D01*
X4353883Y-71239076D01*
X4228524Y-71113717D01*
X4130030Y-70966310D01*
X4115772Y-70931887D01*
X4062186Y-70802520D01*
X4027600Y-70628644D01*
X4027600Y-70451356D01*
X4062186Y-70277480D01*
X4130029Y-70113692D01*
X4135937Y-70104850D01*
X4228524Y-69966283D01*
X4353883Y-69840924D01*
X4501290Y-69742430D01*
X4503166Y-69741653D01*
X4665080Y-69674586D01*
X4838956Y-69640000D01*
X5016244Y-69640000D01*
X5190120Y-69674586D01*
G37*
G36*
X12151891Y-70077875D02*
G01*
X12185779Y-70088155D01*
X12217012Y-70104850D01*
X12244386Y-70127314D01*
X12266850Y-70154688D01*
X12283545Y-70185921D01*
X12293825Y-70219809D01*
X12297900Y-70261188D01*
X12297900Y-70861412D01*
X12293825Y-70902791D01*
X12283545Y-70936679D01*
X12266850Y-70967912D01*
X12244386Y-70995286D01*
X12217012Y-71017750D01*
X12185779Y-71034445D01*
X12151891Y-71044725D01*
X12110512Y-71048800D01*
X11435288Y-71048800D01*
X11393909Y-71044725D01*
X11360021Y-71034445D01*
X11328788Y-71017750D01*
X11301414Y-70995286D01*
X11278950Y-70967912D01*
X11262255Y-70936679D01*
X11251975Y-70902791D01*
X11247900Y-70861412D01*
X11247900Y-70261188D01*
X11251975Y-70219809D01*
X11262255Y-70185921D01*
X11278950Y-70154688D01*
X11301414Y-70127314D01*
X11328788Y-70104850D01*
X11360021Y-70088155D01*
X11393909Y-70077875D01*
X11435288Y-70073800D01*
X12110512Y-70073800D01*
X12151891Y-70077875D01*
G37*
G36*
X46624571Y-69386794D02*
G01*
X46636192Y-69390319D01*
X46646887Y-69396036D01*
X46659790Y-69406624D01*
X46670698Y-69417534D01*
X46691072Y-69431148D01*
X46713711Y-69440526D01*
X46737744Y-69445308D01*
X46762248Y-69445308D01*
X46786281Y-69440529D01*
X46808921Y-69431152D01*
X46829295Y-69417539D01*
X46840206Y-69406628D01*
X46853113Y-69396036D01*
X46863808Y-69390319D01*
X46875429Y-69386794D01*
X46893641Y-69385000D01*
X47256359Y-69385000D01*
X47274571Y-69386794D01*
X47286192Y-69390319D01*
X47296887Y-69396036D01*
X47309790Y-69406624D01*
X47320698Y-69417534D01*
X47341072Y-69431148D01*
X47363711Y-69440526D01*
X47387744Y-69445308D01*
X47412248Y-69445308D01*
X47436281Y-69440529D01*
X47458921Y-69431152D01*
X47479295Y-69417539D01*
X47490206Y-69406628D01*
X47503113Y-69396036D01*
X47513808Y-69390319D01*
X47525429Y-69386794D01*
X47543641Y-69385000D01*
X47906359Y-69385000D01*
X47924571Y-69386794D01*
X47936192Y-69390319D01*
X47946887Y-69396036D01*
X47959790Y-69406624D01*
X47970698Y-69417534D01*
X47991072Y-69431148D01*
X48013711Y-69440526D01*
X48037744Y-69445308D01*
X48062248Y-69445308D01*
X48086281Y-69440529D01*
X48108921Y-69431152D01*
X48129295Y-69417539D01*
X48140206Y-69406628D01*
X48153113Y-69396036D01*
X48163808Y-69390319D01*
X48175429Y-69386794D01*
X48193641Y-69385000D01*
X48556359Y-69385000D01*
X48574571Y-69386794D01*
X48586192Y-69390319D01*
X48596887Y-69396036D01*
X48609790Y-69406624D01*
X48620698Y-69417534D01*
X48641072Y-69431148D01*
X48663711Y-69440526D01*
X48687744Y-69445308D01*
X48712248Y-69445308D01*
X48736281Y-69440529D01*
X48758921Y-69431152D01*
X48779295Y-69417539D01*
X48790206Y-69406628D01*
X48803113Y-69396036D01*
X48813808Y-69390319D01*
X48825429Y-69386794D01*
X48843641Y-69385000D01*
X49206359Y-69385000D01*
X49224571Y-69386794D01*
X49236192Y-69390319D01*
X49246887Y-69396036D01*
X49259790Y-69406624D01*
X49270698Y-69417534D01*
X49291072Y-69431148D01*
X49313711Y-69440526D01*
X49337744Y-69445308D01*
X49362248Y-69445308D01*
X49386281Y-69440529D01*
X49408921Y-69431152D01*
X49429295Y-69417539D01*
X49440206Y-69406628D01*
X49453113Y-69396036D01*
X49463808Y-69390319D01*
X49475429Y-69386794D01*
X49493641Y-69385000D01*
X49856359Y-69385000D01*
X49874571Y-69386794D01*
X49886192Y-69390319D01*
X49896887Y-69396036D01*
X49909790Y-69406624D01*
X49920698Y-69417534D01*
X49941072Y-69431148D01*
X49963711Y-69440526D01*
X49987744Y-69445308D01*
X50012248Y-69445308D01*
X50036281Y-69440529D01*
X50058921Y-69431152D01*
X50079295Y-69417539D01*
X50090206Y-69406628D01*
X50103113Y-69396036D01*
X50113808Y-69390319D01*
X50125429Y-69386794D01*
X50143641Y-69385000D01*
X50506359Y-69385000D01*
X50524571Y-69386794D01*
X50536192Y-69390319D01*
X50546887Y-69396036D01*
X50559790Y-69406624D01*
X50570698Y-69417534D01*
X50591072Y-69431148D01*
X50613711Y-69440526D01*
X50637744Y-69445308D01*
X50662248Y-69445308D01*
X50686281Y-69440529D01*
X50708921Y-69431152D01*
X50729295Y-69417539D01*
X50740206Y-69406628D01*
X50753113Y-69396036D01*
X50763808Y-69390319D01*
X50775429Y-69386794D01*
X50793641Y-69385000D01*
X51156359Y-69385000D01*
X51174571Y-69386794D01*
X51186192Y-69390319D01*
X51196887Y-69396036D01*
X51209790Y-69406624D01*
X51220698Y-69417534D01*
X51241072Y-69431148D01*
X51263711Y-69440526D01*
X51287744Y-69445308D01*
X51312248Y-69445308D01*
X51336281Y-69440529D01*
X51358921Y-69431152D01*
X51379295Y-69417539D01*
X51390206Y-69406628D01*
X51403113Y-69396036D01*
X51413808Y-69390319D01*
X51425429Y-69386794D01*
X51443641Y-69385000D01*
X51806359Y-69385000D01*
X51824571Y-69386794D01*
X51836192Y-69390319D01*
X51846887Y-69396036D01*
X51859790Y-69406624D01*
X51870698Y-69417534D01*
X51891072Y-69431148D01*
X51913711Y-69440526D01*
X51937744Y-69445308D01*
X51962248Y-69445308D01*
X51986281Y-69440529D01*
X52008921Y-69431152D01*
X52029295Y-69417539D01*
X52040206Y-69406628D01*
X52053113Y-69396036D01*
X52063808Y-69390319D01*
X52075429Y-69386794D01*
X52093641Y-69385000D01*
X52456359Y-69385000D01*
X52474571Y-69386794D01*
X52486192Y-69390319D01*
X52496887Y-69396036D01*
X52509790Y-69406624D01*
X52520698Y-69417534D01*
X52541072Y-69431148D01*
X52563711Y-69440526D01*
X52587744Y-69445308D01*
X52612248Y-69445308D01*
X52636281Y-69440529D01*
X52658921Y-69431152D01*
X52679295Y-69417539D01*
X52690206Y-69406628D01*
X52703113Y-69396036D01*
X52713808Y-69390319D01*
X52725429Y-69386794D01*
X52743641Y-69385000D01*
X53106359Y-69385000D01*
X53124571Y-69386794D01*
X53136192Y-69390319D01*
X53146887Y-69396036D01*
X53159790Y-69406624D01*
X53170698Y-69417534D01*
X53191072Y-69431148D01*
X53213711Y-69440526D01*
X53237744Y-69445308D01*
X53262248Y-69445308D01*
X53286281Y-69440529D01*
X53308921Y-69431152D01*
X53329295Y-69417539D01*
X53340206Y-69406628D01*
X53353113Y-69396036D01*
X53363808Y-69390319D01*
X53375429Y-69386794D01*
X53393641Y-69385000D01*
X53756359Y-69385000D01*
X53774571Y-69386794D01*
X53786192Y-69390319D01*
X53796887Y-69396036D01*
X53806267Y-69403733D01*
X53813964Y-69413113D01*
X53819681Y-69423808D01*
X53823206Y-69435429D01*
X53825000Y-69453641D01*
X53825000Y-70891359D01*
X53823206Y-70909571D01*
X53819681Y-70921192D01*
X53813964Y-70931887D01*
X53806267Y-70941267D01*
X53796887Y-70948964D01*
X53786192Y-70954681D01*
X53774571Y-70958206D01*
X53756359Y-70960000D01*
X53393641Y-70960000D01*
X53375429Y-70958206D01*
X53363808Y-70954681D01*
X53353113Y-70948964D01*
X53340210Y-70938376D01*
X53329302Y-70927466D01*
X53308928Y-70913852D01*
X53286289Y-70904474D01*
X53262256Y-70899692D01*
X53237752Y-70899692D01*
X53213719Y-70904471D01*
X53191079Y-70913848D01*
X53170705Y-70927461D01*
X53159794Y-70938372D01*
X53146887Y-70948964D01*
X53136192Y-70954681D01*
X53124571Y-70958206D01*
X53106359Y-70960000D01*
X52743641Y-70960000D01*
X52725429Y-70958206D01*
X52713808Y-70954681D01*
X52703113Y-70948964D01*
X52690210Y-70938376D01*
X52679302Y-70927466D01*
X52658928Y-70913852D01*
X52636289Y-70904474D01*
X52612256Y-70899692D01*
X52587752Y-70899692D01*
X52563719Y-70904471D01*
X52541079Y-70913848D01*
X52520705Y-70927461D01*
X52509794Y-70938372D01*
X52496887Y-70948964D01*
X52486192Y-70954681D01*
X52474571Y-70958206D01*
X52456359Y-70960000D01*
X52093641Y-70960000D01*
X52075429Y-70958206D01*
X52063808Y-70954681D01*
X52053113Y-70948964D01*
X52040210Y-70938376D01*
X52029302Y-70927466D01*
X52008928Y-70913852D01*
X51986289Y-70904474D01*
X51962256Y-70899692D01*
X51937752Y-70899692D01*
X51913719Y-70904471D01*
X51891079Y-70913848D01*
X51870705Y-70927461D01*
X51859794Y-70938372D01*
X51846887Y-70948964D01*
X51836192Y-70954681D01*
X51824571Y-70958206D01*
X51806359Y-70960000D01*
X51443641Y-70960000D01*
X51425429Y-70958206D01*
X51413808Y-70954681D01*
X51403113Y-70948964D01*
X51390210Y-70938376D01*
X51379302Y-70927466D01*
X51358928Y-70913852D01*
X51336289Y-70904474D01*
X51312256Y-70899692D01*
X51287752Y-70899692D01*
X51263719Y-70904471D01*
X51241079Y-70913848D01*
X51220705Y-70927461D01*
X51209794Y-70938372D01*
X51196887Y-70948964D01*
X51186192Y-70954681D01*
X51174571Y-70958206D01*
X51156359Y-70960000D01*
X50793641Y-70960000D01*
X50775429Y-70958206D01*
X50763808Y-70954681D01*
X50753113Y-70948964D01*
X50740210Y-70938376D01*
X50729302Y-70927466D01*
X50708928Y-70913852D01*
X50686289Y-70904474D01*
X50662256Y-70899692D01*
X50637752Y-70899692D01*
X50613719Y-70904471D01*
X50591079Y-70913848D01*
X50570705Y-70927461D01*
X50559794Y-70938372D01*
X50546887Y-70948964D01*
X50536192Y-70954681D01*
X50524571Y-70958206D01*
X50506359Y-70960000D01*
X50143641Y-70960000D01*
X50125429Y-70958206D01*
X50113808Y-70954681D01*
X50103113Y-70948964D01*
X50090210Y-70938376D01*
X50079302Y-70927466D01*
X50058928Y-70913852D01*
X50036289Y-70904474D01*
X50012256Y-70899692D01*
X49987752Y-70899692D01*
X49963719Y-70904471D01*
X49941079Y-70913848D01*
X49920705Y-70927461D01*
X49909794Y-70938372D01*
X49896887Y-70948964D01*
X49886192Y-70954681D01*
X49874571Y-70958206D01*
X49856359Y-70960000D01*
X49493641Y-70960000D01*
X49475429Y-70958206D01*
X49463808Y-70954681D01*
X49453113Y-70948964D01*
X49440210Y-70938376D01*
X49429302Y-70927466D01*
X49408928Y-70913852D01*
X49386289Y-70904474D01*
X49362256Y-70899692D01*
X49337752Y-70899692D01*
X49313719Y-70904471D01*
X49291079Y-70913848D01*
X49270705Y-70927461D01*
X49259794Y-70938372D01*
X49246887Y-70948964D01*
X49236192Y-70954681D01*
X49224571Y-70958206D01*
X49206359Y-70960000D01*
X48843641Y-70960000D01*
X48825429Y-70958206D01*
X48813808Y-70954681D01*
X48803113Y-70948964D01*
X48790210Y-70938376D01*
X48779302Y-70927466D01*
X48758928Y-70913852D01*
X48736289Y-70904474D01*
X48712256Y-70899692D01*
X48687752Y-70899692D01*
X48663719Y-70904471D01*
X48641079Y-70913848D01*
X48620705Y-70927461D01*
X48609794Y-70938372D01*
X48596887Y-70948964D01*
X48586192Y-70954681D01*
X48574571Y-70958206D01*
X48556359Y-70960000D01*
X48193641Y-70960000D01*
X48175429Y-70958206D01*
X48163808Y-70954681D01*
X48153113Y-70948964D01*
X48140210Y-70938376D01*
X48129302Y-70927466D01*
X48108928Y-70913852D01*
X48086289Y-70904474D01*
X48062256Y-70899692D01*
X48037752Y-70899692D01*
X48013719Y-70904471D01*
X47991079Y-70913848D01*
X47970705Y-70927461D01*
X47959794Y-70938372D01*
X47946887Y-70948964D01*
X47936192Y-70954681D01*
X47924571Y-70958206D01*
X47906359Y-70960000D01*
X47543641Y-70960000D01*
X47525429Y-70958206D01*
X47513808Y-70954681D01*
X47503113Y-70948964D01*
X47490210Y-70938376D01*
X47479302Y-70927466D01*
X47458928Y-70913852D01*
X47436289Y-70904474D01*
X47412256Y-70899692D01*
X47387752Y-70899692D01*
X47363719Y-70904471D01*
X47341079Y-70913848D01*
X47320705Y-70927461D01*
X47309794Y-70938372D01*
X47296887Y-70948964D01*
X47286192Y-70954681D01*
X47274571Y-70958206D01*
X47256359Y-70960000D01*
X46893641Y-70960000D01*
X46875429Y-70958206D01*
X46863808Y-70954681D01*
X46853113Y-70948964D01*
X46840210Y-70938376D01*
X46829302Y-70927466D01*
X46808928Y-70913852D01*
X46786289Y-70904474D01*
X46762256Y-70899692D01*
X46737752Y-70899692D01*
X46713719Y-70904471D01*
X46691079Y-70913848D01*
X46670705Y-70927461D01*
X46659794Y-70938372D01*
X46646887Y-70948964D01*
X46636192Y-70954681D01*
X46624571Y-70958206D01*
X46606359Y-70960000D01*
X46243641Y-70960000D01*
X46225429Y-70958206D01*
X46213808Y-70954681D01*
X46203113Y-70948964D01*
X46193733Y-70941267D01*
X46186036Y-70931887D01*
X46180319Y-70921192D01*
X46176794Y-70909571D01*
X46175000Y-70891359D01*
X46175000Y-69453641D01*
X46176794Y-69435429D01*
X46180319Y-69423808D01*
X46186036Y-69413113D01*
X46193733Y-69403733D01*
X46203113Y-69396036D01*
X46213808Y-69390319D01*
X46225429Y-69386794D01*
X46243641Y-69385000D01*
X46606359Y-69385000D01*
X46624571Y-69386794D01*
G37*
G36*
X14312096Y-65826113D02*
G01*
X14319020Y-65828213D01*
X14333475Y-65835940D01*
X14356113Y-65845317D01*
X14380146Y-65850098D01*
X14404651Y-65850098D01*
X14428684Y-65845318D01*
X14451325Y-65835940D01*
X14465780Y-65828213D01*
X14472704Y-65826113D01*
X14486038Y-65824800D01*
X14798762Y-65824800D01*
X14812096Y-65826113D01*
X14819020Y-65828213D01*
X14833475Y-65835940D01*
X14856113Y-65845317D01*
X14880146Y-65850098D01*
X14904651Y-65850098D01*
X14928684Y-65845318D01*
X14951325Y-65835940D01*
X14965780Y-65828213D01*
X14972704Y-65826113D01*
X14986038Y-65824800D01*
X15298762Y-65824800D01*
X15312096Y-65826113D01*
X15319020Y-65828213D01*
X15333475Y-65835940D01*
X15356113Y-65845317D01*
X15380146Y-65850098D01*
X15404651Y-65850098D01*
X15428684Y-65845318D01*
X15451325Y-65835940D01*
X15465780Y-65828213D01*
X15472704Y-65826113D01*
X15486038Y-65824800D01*
X15798762Y-65824800D01*
X15812096Y-65826113D01*
X15819020Y-65828213D01*
X15833475Y-65835940D01*
X15856113Y-65845317D01*
X15880146Y-65850098D01*
X15904651Y-65850098D01*
X15928684Y-65845318D01*
X15951325Y-65835940D01*
X15965780Y-65828213D01*
X15972704Y-65826113D01*
X15986038Y-65824800D01*
X16298762Y-65824800D01*
X16312096Y-65826113D01*
X16319020Y-65828213D01*
X16333475Y-65835940D01*
X16356113Y-65845317D01*
X16380146Y-65850098D01*
X16404651Y-65850098D01*
X16428684Y-65845318D01*
X16451325Y-65835940D01*
X16465780Y-65828213D01*
X16472704Y-65826113D01*
X16486038Y-65824800D01*
X16798762Y-65824800D01*
X16812096Y-65826113D01*
X16819020Y-65828213D01*
X16825399Y-65831623D01*
X16830989Y-65836211D01*
X16835577Y-65841801D01*
X16838987Y-65848180D01*
X16841087Y-65855104D01*
X16842400Y-65868438D01*
X16842400Y-66674801D01*
X16844802Y-66699187D01*
X16851915Y-66722636D01*
X16863466Y-66744247D01*
X16879011Y-66763189D01*
X16897953Y-66778734D01*
X16919564Y-66790285D01*
X16943013Y-66797398D01*
X16967399Y-66799800D01*
X17773762Y-66799800D01*
X17787096Y-66801113D01*
X17794020Y-66803213D01*
X17800399Y-66806623D01*
X17805989Y-66811211D01*
X17810577Y-66816801D01*
X17813987Y-66823180D01*
X17816087Y-66830104D01*
X17817400Y-66843438D01*
X17817400Y-67156162D01*
X17816087Y-67169496D01*
X17813987Y-67176420D01*
X17806260Y-67190875D01*
X17796883Y-67213513D01*
X17792102Y-67237546D01*
X17792102Y-67262051D01*
X17796882Y-67286084D01*
X17806260Y-67308725D01*
X17813987Y-67323180D01*
X17816087Y-67330104D01*
X17817400Y-67343438D01*
X17817400Y-67656162D01*
X17816087Y-67669496D01*
X17813987Y-67676420D01*
X17806260Y-67690875D01*
X17796883Y-67713513D01*
X17792102Y-67737546D01*
X17792102Y-67762051D01*
X17796882Y-67786084D01*
X17806260Y-67808725D01*
X17813987Y-67823180D01*
X17816087Y-67830104D01*
X17817400Y-67843438D01*
X17817400Y-68156162D01*
X17816087Y-68169496D01*
X17813987Y-68176420D01*
X17806260Y-68190875D01*
X17796883Y-68213513D01*
X17792102Y-68237546D01*
X17792102Y-68262051D01*
X17796882Y-68286084D01*
X17806260Y-68308725D01*
X17813987Y-68323180D01*
X17816087Y-68330104D01*
X17817400Y-68343438D01*
X17817400Y-68656162D01*
X17816087Y-68669496D01*
X17813987Y-68676420D01*
X17806260Y-68690875D01*
X17796883Y-68713513D01*
X17792102Y-68737546D01*
X17792102Y-68762051D01*
X17796882Y-68786084D01*
X17806260Y-68808725D01*
X17813987Y-68823180D01*
X17816087Y-68830104D01*
X17817400Y-68843438D01*
X17817400Y-69156162D01*
X17816087Y-69169496D01*
X17813987Y-69176420D01*
X17806260Y-69190875D01*
X17796883Y-69213513D01*
X17792102Y-69237546D01*
X17792102Y-69262051D01*
X17796882Y-69286084D01*
X17806260Y-69308725D01*
X17813987Y-69323180D01*
X17816087Y-69330104D01*
X17817400Y-69343438D01*
X17817400Y-69656162D01*
X17816087Y-69669496D01*
X17813987Y-69676420D01*
X17810577Y-69682799D01*
X17805989Y-69688389D01*
X17800399Y-69692977D01*
X17794020Y-69696387D01*
X17787096Y-69698487D01*
X17773762Y-69699800D01*
X16967399Y-69699800D01*
X16943013Y-69702202D01*
X16919564Y-69709315D01*
X16897953Y-69720866D01*
X16879011Y-69736411D01*
X16863466Y-69755353D01*
X16851915Y-69776964D01*
X16844802Y-69800413D01*
X16842400Y-69824799D01*
X16842400Y-70631162D01*
X16841087Y-70644496D01*
X16838987Y-70651420D01*
X16835577Y-70657799D01*
X16830989Y-70663389D01*
X16825399Y-70667977D01*
X16819020Y-70671387D01*
X16812096Y-70673487D01*
X16798762Y-70674800D01*
X16486038Y-70674800D01*
X16472704Y-70673487D01*
X16465780Y-70671387D01*
X16451325Y-70663660D01*
X16428687Y-70654283D01*
X16404654Y-70649502D01*
X16380149Y-70649502D01*
X16356116Y-70654282D01*
X16333475Y-70663660D01*
X16319020Y-70671387D01*
X16312096Y-70673487D01*
X16298762Y-70674800D01*
X15986038Y-70674800D01*
X15972704Y-70673487D01*
X15965780Y-70671387D01*
X15951325Y-70663660D01*
X15928687Y-70654283D01*
X15904654Y-70649502D01*
X15880149Y-70649502D01*
X15856116Y-70654282D01*
X15833475Y-70663660D01*
X15819020Y-70671387D01*
X15812096Y-70673487D01*
X15798762Y-70674800D01*
X15486038Y-70674800D01*
X15472704Y-70673487D01*
X15465780Y-70671387D01*
X15451325Y-70663660D01*
X15428687Y-70654283D01*
X15404654Y-70649502D01*
X15380149Y-70649502D01*
X15356116Y-70654282D01*
X15333475Y-70663660D01*
X15319020Y-70671387D01*
X15312096Y-70673487D01*
X15298762Y-70674800D01*
X14986038Y-70674800D01*
X14972704Y-70673487D01*
X14965780Y-70671387D01*
X14951325Y-70663660D01*
X14928687Y-70654283D01*
X14904654Y-70649502D01*
X14880149Y-70649502D01*
X14856116Y-70654282D01*
X14833475Y-70663660D01*
X14819020Y-70671387D01*
X14812096Y-70673487D01*
X14798762Y-70674800D01*
X14486038Y-70674800D01*
X14472704Y-70673487D01*
X14465780Y-70671387D01*
X14451325Y-70663660D01*
X14428687Y-70654283D01*
X14404654Y-70649502D01*
X14380149Y-70649502D01*
X14356116Y-70654282D01*
X14333475Y-70663660D01*
X14319020Y-70671387D01*
X14312096Y-70673487D01*
X14298762Y-70674800D01*
X13986038Y-70674800D01*
X13972704Y-70673487D01*
X13965780Y-70671387D01*
X13959401Y-70667977D01*
X13953811Y-70663389D01*
X13949223Y-70657799D01*
X13945813Y-70651420D01*
X13943713Y-70644496D01*
X13942400Y-70631162D01*
X13942400Y-69824799D01*
X13939998Y-69800413D01*
X13932885Y-69776964D01*
X13921334Y-69755353D01*
X13905789Y-69736411D01*
X13886847Y-69720866D01*
X13865236Y-69709315D01*
X13841787Y-69702202D01*
X13817401Y-69699800D01*
X13011038Y-69699800D01*
X12997704Y-69698487D01*
X12990780Y-69696387D01*
X12984401Y-69692977D01*
X12978811Y-69688389D01*
X12974223Y-69682799D01*
X12970813Y-69676420D01*
X12968713Y-69669496D01*
X12967400Y-69656162D01*
X12967400Y-69343438D01*
X12968713Y-69330104D01*
X12970813Y-69323180D01*
X12978540Y-69308725D01*
X12987917Y-69286087D01*
X12992698Y-69262054D01*
X12992698Y-69237549D01*
X12987918Y-69213516D01*
X12978540Y-69190875D01*
X12970813Y-69176420D01*
X12968713Y-69169496D01*
X12967400Y-69156162D01*
X12967400Y-68843438D01*
X12968713Y-68830104D01*
X12970813Y-68823180D01*
X12978540Y-68808725D01*
X12987917Y-68786087D01*
X12992698Y-68762054D01*
X12992698Y-68737549D01*
X12987918Y-68713516D01*
X12978540Y-68690875D01*
X12970813Y-68676420D01*
X12968713Y-68669496D01*
X12967400Y-68656162D01*
X12967400Y-68343438D01*
X12968713Y-68330104D01*
X12970813Y-68323180D01*
X12978540Y-68308725D01*
X12987917Y-68286087D01*
X12992698Y-68262054D01*
X12992698Y-68237549D01*
X12987918Y-68213516D01*
X12978540Y-68190875D01*
X12970813Y-68176420D01*
X12968713Y-68169496D01*
X12967400Y-68156162D01*
X12967400Y-67843438D01*
X12968713Y-67830104D01*
X12970813Y-67823180D01*
X12978540Y-67808725D01*
X12987917Y-67786087D01*
X12992698Y-67762054D01*
X12992698Y-67737549D01*
X12987918Y-67713516D01*
X12978540Y-67690875D01*
X12970813Y-67676420D01*
X12968713Y-67669496D01*
X12967400Y-67656162D01*
X12967400Y-67343438D01*
X12968713Y-67330104D01*
X12970813Y-67323180D01*
X12978540Y-67308725D01*
X12987917Y-67286087D01*
X12992698Y-67262054D01*
X12992698Y-67237549D01*
X12992698Y-67237546D01*
X13892102Y-67237546D01*
X13892102Y-67262051D01*
X13896882Y-67286084D01*
X13906260Y-67308725D01*
X13913987Y-67323180D01*
X13916087Y-67330104D01*
X13917400Y-67343438D01*
X13917400Y-67656162D01*
X13916087Y-67669496D01*
X13913987Y-67676420D01*
X13906260Y-67690875D01*
X13896883Y-67713513D01*
X13892102Y-67737546D01*
X13892102Y-67762051D01*
X13896882Y-67786084D01*
X13906260Y-67808725D01*
X13913987Y-67823180D01*
X13916087Y-67830104D01*
X13917400Y-67843438D01*
X13917400Y-68156162D01*
X13916087Y-68169496D01*
X13913987Y-68176420D01*
X13906260Y-68190875D01*
X13896883Y-68213513D01*
X13892102Y-68237546D01*
X13892102Y-68262051D01*
X13896882Y-68286084D01*
X13906260Y-68308725D01*
X13913987Y-68323180D01*
X13916087Y-68330104D01*
X13917400Y-68343438D01*
X13917400Y-68656162D01*
X13916087Y-68669496D01*
X13913987Y-68676420D01*
X13906260Y-68690875D01*
X13896883Y-68713513D01*
X13892102Y-68737546D01*
X13892102Y-68762051D01*
X13896882Y-68786084D01*
X13906260Y-68808725D01*
X13913987Y-68823180D01*
X13916087Y-68830104D01*
X13917400Y-68843438D01*
X13917400Y-69156162D01*
X13916087Y-69169496D01*
X13913987Y-69176420D01*
X13906260Y-69190875D01*
X13896883Y-69213513D01*
X13892102Y-69237546D01*
X13892102Y-69262051D01*
X13896882Y-69286084D01*
X13906260Y-69308725D01*
X13913987Y-69323180D01*
X13916087Y-69330104D01*
X13917400Y-69343438D01*
X13917400Y-69599801D01*
X13919802Y-69624187D01*
X13926915Y-69647636D01*
X13938466Y-69669247D01*
X13954011Y-69688189D01*
X13972953Y-69703734D01*
X13994564Y-69715285D01*
X14018013Y-69722398D01*
X14042399Y-69724800D01*
X14298762Y-69724800D01*
X14312096Y-69726113D01*
X14319020Y-69728213D01*
X14333475Y-69735940D01*
X14356113Y-69745317D01*
X14380146Y-69750098D01*
X14404651Y-69750098D01*
X14428684Y-69745318D01*
X14451325Y-69735940D01*
X14465780Y-69728213D01*
X14472704Y-69726113D01*
X14486038Y-69724800D01*
X14798762Y-69724800D01*
X14812096Y-69726113D01*
X14819020Y-69728213D01*
X14833475Y-69735940D01*
X14856113Y-69745317D01*
X14880146Y-69750098D01*
X14904651Y-69750098D01*
X14928684Y-69745318D01*
X14951325Y-69735940D01*
X14965780Y-69728213D01*
X14972704Y-69726113D01*
X14986038Y-69724800D01*
X15298762Y-69724800D01*
X15312096Y-69726113D01*
X15319020Y-69728213D01*
X15333475Y-69735940D01*
X15356113Y-69745317D01*
X15380146Y-69750098D01*
X15404651Y-69750098D01*
X15428684Y-69745318D01*
X15451325Y-69735940D01*
X15465780Y-69728213D01*
X15472704Y-69726113D01*
X15486038Y-69724800D01*
X15798762Y-69724800D01*
X15812096Y-69726113D01*
X15819020Y-69728213D01*
X15833475Y-69735940D01*
X15856113Y-69745317D01*
X15880146Y-69750098D01*
X15904651Y-69750098D01*
X15928684Y-69745318D01*
X15951325Y-69735940D01*
X15965780Y-69728213D01*
X15972704Y-69726113D01*
X15986038Y-69724800D01*
X16298762Y-69724800D01*
X16312096Y-69726113D01*
X16319020Y-69728213D01*
X16333475Y-69735940D01*
X16356113Y-69745317D01*
X16380146Y-69750098D01*
X16404651Y-69750098D01*
X16428684Y-69745318D01*
X16451325Y-69735940D01*
X16465780Y-69728213D01*
X16472704Y-69726113D01*
X16486038Y-69724800D01*
X16742401Y-69724800D01*
X16766787Y-69722398D01*
X16790236Y-69715285D01*
X16811847Y-69703734D01*
X16830789Y-69688189D01*
X16846334Y-69669247D01*
X16857885Y-69647636D01*
X16864998Y-69624187D01*
X16867400Y-69599801D01*
X16867400Y-69343438D01*
X16868713Y-69330104D01*
X16870813Y-69323180D01*
X16878540Y-69308725D01*
X16887917Y-69286087D01*
X16892698Y-69262054D01*
X16892698Y-69237549D01*
X16887918Y-69213516D01*
X16878540Y-69190875D01*
X16870813Y-69176420D01*
X16868713Y-69169496D01*
X16867400Y-69156162D01*
X16867400Y-68843438D01*
X16868713Y-68830104D01*
X16870813Y-68823180D01*
X16878540Y-68808725D01*
X16887917Y-68786087D01*
X16892698Y-68762054D01*
X16892698Y-68737549D01*
X16887918Y-68713516D01*
X16878540Y-68690875D01*
X16870813Y-68676420D01*
X16868713Y-68669496D01*
X16867400Y-68656162D01*
X16867400Y-68343438D01*
X16868713Y-68330104D01*
X16870813Y-68323180D01*
X16878540Y-68308725D01*
X16887917Y-68286087D01*
X16892698Y-68262054D01*
X16892698Y-68237549D01*
X16887918Y-68213516D01*
X16878540Y-68190875D01*
X16870813Y-68176420D01*
X16868713Y-68169496D01*
X16867400Y-68156162D01*
X16867400Y-67843438D01*
X16868713Y-67830104D01*
X16870813Y-67823180D01*
X16878540Y-67808725D01*
X16887917Y-67786087D01*
X16892698Y-67762054D01*
X16892698Y-67737549D01*
X16887918Y-67713516D01*
X16878540Y-67690875D01*
X16870813Y-67676420D01*
X16868713Y-67669496D01*
X16867400Y-67656162D01*
X16867400Y-67343438D01*
X16868713Y-67330104D01*
X16870813Y-67323180D01*
X16878540Y-67308725D01*
X16887917Y-67286087D01*
X16892698Y-67262054D01*
X16892698Y-67237549D01*
X16887918Y-67213516D01*
X16878540Y-67190875D01*
X16870813Y-67176420D01*
X16868713Y-67169496D01*
X16867400Y-67156162D01*
X16867400Y-66899799D01*
X16864998Y-66875413D01*
X16857885Y-66851964D01*
X16846334Y-66830353D01*
X16830789Y-66811411D01*
X16811847Y-66795866D01*
X16790236Y-66784315D01*
X16766787Y-66777202D01*
X16742401Y-66774800D01*
X16486038Y-66774800D01*
X16472704Y-66773487D01*
X16465780Y-66771387D01*
X16451325Y-66763660D01*
X16428687Y-66754283D01*
X16404654Y-66749502D01*
X16380149Y-66749502D01*
X16356116Y-66754282D01*
X16333475Y-66763660D01*
X16319020Y-66771387D01*
X16312096Y-66773487D01*
X16298762Y-66774800D01*
X15986038Y-66774800D01*
X15972704Y-66773487D01*
X15965780Y-66771387D01*
X15951325Y-66763660D01*
X15928687Y-66754283D01*
X15904654Y-66749502D01*
X15880149Y-66749502D01*
X15856116Y-66754282D01*
X15833475Y-66763660D01*
X15819020Y-66771387D01*
X15812096Y-66773487D01*
X15798762Y-66774800D01*
X15486038Y-66774800D01*
X15472704Y-66773487D01*
X15465780Y-66771387D01*
X15451325Y-66763660D01*
X15428687Y-66754283D01*
X15404654Y-66749502D01*
X15380149Y-66749502D01*
X15356116Y-66754282D01*
X15333475Y-66763660D01*
X15319020Y-66771387D01*
X15312096Y-66773487D01*
X15298762Y-66774800D01*
X14986038Y-66774800D01*
X14972704Y-66773487D01*
X14965780Y-66771387D01*
X14951325Y-66763660D01*
X14928687Y-66754283D01*
X14904654Y-66749502D01*
X14880149Y-66749502D01*
X14856116Y-66754282D01*
X14833475Y-66763660D01*
X14819020Y-66771387D01*
X14812096Y-66773487D01*
X14798762Y-66774800D01*
X14486038Y-66774800D01*
X14472704Y-66773487D01*
X14465780Y-66771387D01*
X14451325Y-66763660D01*
X14428687Y-66754283D01*
X14404654Y-66749502D01*
X14380149Y-66749502D01*
X14356116Y-66754282D01*
X14333475Y-66763660D01*
X14319020Y-66771387D01*
X14312096Y-66773487D01*
X14298762Y-66774800D01*
X14042399Y-66774800D01*
X14018013Y-66777202D01*
X13994564Y-66784315D01*
X13972953Y-66795866D01*
X13954011Y-66811411D01*
X13938466Y-66830353D01*
X13926915Y-66851964D01*
X13919802Y-66875413D01*
X13917400Y-66899799D01*
X13917400Y-67156162D01*
X13916087Y-67169496D01*
X13913987Y-67176420D01*
X13906260Y-67190875D01*
X13896883Y-67213513D01*
X13892102Y-67237546D01*
X12992698Y-67237546D01*
X12987918Y-67213516D01*
X12978540Y-67190875D01*
X12970813Y-67176420D01*
X12968713Y-67169496D01*
X12967400Y-67156162D01*
X12967400Y-66843438D01*
X12968713Y-66830104D01*
X12970813Y-66823180D01*
X12974223Y-66816801D01*
X12978811Y-66811211D01*
X12984401Y-66806623D01*
X12990780Y-66803213D01*
X12997704Y-66801113D01*
X13011038Y-66799800D01*
X13817401Y-66799800D01*
X13841787Y-66797398D01*
X13865236Y-66790285D01*
X13886847Y-66778734D01*
X13905789Y-66763189D01*
X13921334Y-66744247D01*
X13932885Y-66722636D01*
X13939998Y-66699187D01*
X13942400Y-66674801D01*
X13942400Y-65868438D01*
X13943713Y-65855104D01*
X13945813Y-65848180D01*
X13949223Y-65841801D01*
X13953811Y-65836211D01*
X13959401Y-65831623D01*
X13965780Y-65828213D01*
X13972704Y-65826113D01*
X13986038Y-65824800D01*
X14298762Y-65824800D01*
X14312096Y-65826113D01*
G37*
G36*
X7991091Y-69602975D02*
G01*
X8024979Y-69613255D01*
X8056212Y-69629950D01*
X8083586Y-69652414D01*
X8106050Y-69679788D01*
X8122745Y-69711021D01*
X8133025Y-69744909D01*
X8137100Y-69786288D01*
X8137100Y-70386512D01*
X8133025Y-70427891D01*
X8122745Y-70461779D01*
X8106050Y-70493012D01*
X8083586Y-70520386D01*
X8056212Y-70542850D01*
X8024979Y-70559545D01*
X7991091Y-70569825D01*
X7949712Y-70573900D01*
X7274488Y-70573900D01*
X7233109Y-70569825D01*
X7199221Y-70559545D01*
X7167988Y-70542850D01*
X7140614Y-70520386D01*
X7118150Y-70493012D01*
X7101455Y-70461779D01*
X7091175Y-70427891D01*
X7087100Y-70386512D01*
X7087100Y-69786288D01*
X7091175Y-69744909D01*
X7101455Y-69711021D01*
X7118150Y-69679788D01*
X7140614Y-69652414D01*
X7167988Y-69629950D01*
X7199221Y-69613255D01*
X7233109Y-69602975D01*
X7274488Y-69598900D01*
X7949712Y-69598900D01*
X7991091Y-69602975D01*
G37*
G36*
X9738891Y-69290475D02*
G01*
X9772779Y-69300755D01*
X9804012Y-69317450D01*
X9831386Y-69339914D01*
X9853850Y-69367288D01*
X9870545Y-69398521D01*
X9880825Y-69432409D01*
X9884900Y-69473788D01*
X9884900Y-70074012D01*
X9880825Y-70115391D01*
X9870545Y-70149279D01*
X9853850Y-70180512D01*
X9831386Y-70207886D01*
X9804012Y-70230350D01*
X9772779Y-70247045D01*
X9738891Y-70257325D01*
X9697512Y-70261400D01*
X9022288Y-70261400D01*
X8980909Y-70257325D01*
X8947021Y-70247045D01*
X8915788Y-70230350D01*
X8888414Y-70207886D01*
X8865950Y-70180512D01*
X8849255Y-70149279D01*
X8838975Y-70115391D01*
X8834900Y-70074012D01*
X8834900Y-69473788D01*
X8838975Y-69432409D01*
X8849255Y-69398521D01*
X8865950Y-69367288D01*
X8888414Y-69339914D01*
X8915788Y-69317450D01*
X8947021Y-69300755D01*
X8980909Y-69290475D01*
X9022288Y-69286400D01*
X9697512Y-69286400D01*
X9738891Y-69290475D01*
G37*
G36*
X12151891Y-68502875D02*
G01*
X12185779Y-68513155D01*
X12217012Y-68529850D01*
X12244386Y-68552314D01*
X12266850Y-68579688D01*
X12283545Y-68610921D01*
X12293825Y-68644809D01*
X12297900Y-68686188D01*
X12297900Y-69286412D01*
X12293825Y-69327791D01*
X12283545Y-69361679D01*
X12266850Y-69392912D01*
X12244386Y-69420286D01*
X12217012Y-69442750D01*
X12185779Y-69459445D01*
X12151891Y-69469725D01*
X12110512Y-69473800D01*
X11435288Y-69473800D01*
X11393909Y-69469725D01*
X11360021Y-69459445D01*
X11328788Y-69442750D01*
X11301414Y-69420286D01*
X11278950Y-69392912D01*
X11262255Y-69361679D01*
X11251975Y-69327791D01*
X11247900Y-69286412D01*
X11247900Y-68686188D01*
X11251975Y-68644809D01*
X11262255Y-68610921D01*
X11278950Y-68579688D01*
X11301414Y-68552314D01*
X11328788Y-68529850D01*
X11360021Y-68513155D01*
X11393909Y-68502875D01*
X11435288Y-68498800D01*
X12110512Y-68498800D01*
X12151891Y-68502875D01*
G37*
G36*
X5827600Y-68900000D02*
G01*
X4027600Y-68900000D01*
X4027600Y-67100000D01*
X5827600Y-67100000D01*
X5827600Y-68900000D01*
G37*
G36*
X2650120Y-67134586D02*
G01*
X2751117Y-67176420D01*
X2813910Y-67202430D01*
X2961317Y-67300924D01*
X3086676Y-67426283D01*
X3185170Y-67573690D01*
X3185171Y-67573692D01*
X3253014Y-67737480D01*
X3287600Y-67911356D01*
X3287600Y-68088644D01*
X3253014Y-68262520D01*
X3212637Y-68360000D01*
X3185170Y-68426310D01*
X3086676Y-68573717D01*
X2961317Y-68699076D01*
X2813910Y-68797570D01*
X2813909Y-68797571D01*
X2813908Y-68797571D01*
X2650120Y-68865414D01*
X2476244Y-68900000D01*
X2298956Y-68900000D01*
X2125080Y-68865414D01*
X1961292Y-68797571D01*
X1961291Y-68797571D01*
X1961290Y-68797570D01*
X1813883Y-68699076D01*
X1688524Y-68573717D01*
X1590030Y-68426310D01*
X1562564Y-68360000D01*
X1522186Y-68262520D01*
X1487600Y-68088644D01*
X1487600Y-67911356D01*
X1522186Y-67737480D01*
X1590029Y-67573692D01*
X1590030Y-67573690D01*
X1688524Y-67426283D01*
X1813883Y-67300924D01*
X1961290Y-67202430D01*
X2024084Y-67176420D01*
X2125080Y-67134586D01*
X2298956Y-67100000D01*
X2476244Y-67100000D01*
X2650120Y-67134586D01*
G37*
G36*
X9738891Y-67715475D02*
G01*
X9772779Y-67725755D01*
X9804012Y-67742450D01*
X9831386Y-67764914D01*
X9853850Y-67792288D01*
X9870545Y-67823521D01*
X9880825Y-67857409D01*
X9884900Y-67898788D01*
X9884900Y-68499012D01*
X9880825Y-68540391D01*
X9870545Y-68574279D01*
X9853850Y-68605512D01*
X9831386Y-68632886D01*
X9804012Y-68655350D01*
X9772779Y-68672045D01*
X9738891Y-68682325D01*
X9697512Y-68686400D01*
X9022288Y-68686400D01*
X8980909Y-68682325D01*
X8947021Y-68672045D01*
X8915788Y-68655350D01*
X8888414Y-68632886D01*
X8865950Y-68605512D01*
X8849255Y-68574279D01*
X8838975Y-68540391D01*
X8834900Y-68499012D01*
X8834900Y-67898788D01*
X8838975Y-67857409D01*
X8849255Y-67823521D01*
X8865950Y-67792288D01*
X8888414Y-67764914D01*
X8915788Y-67742450D01*
X8947021Y-67725755D01*
X8980909Y-67715475D01*
X9022288Y-67711400D01*
X9697512Y-67711400D01*
X9738891Y-67715475D01*
G37*
G36*
X22920000Y-68360000D02*
G01*
X20820000Y-68360000D01*
X20820000Y-66260000D01*
X22920000Y-66260000D01*
X22920000Y-68360000D01*
G37*
G36*
X28920000Y-68360000D02*
G01*
X26820000Y-68360000D01*
X26820000Y-66260000D01*
X28920000Y-66260000D01*
X28920000Y-68360000D01*
G37*
G36*
X73180000Y-68360000D02*
G01*
X71080000Y-68360000D01*
X71080000Y-66260000D01*
X73180000Y-66260000D01*
X73180000Y-68360000D01*
G37*
G36*
X43920000Y-68360000D02*
G01*
X41820000Y-68360000D01*
X41820000Y-66260000D01*
X43920000Y-66260000D01*
X43920000Y-68360000D01*
G37*
G36*
X37920000Y-68360000D02*
G01*
X35820000Y-68360000D01*
X35820000Y-66260000D01*
X37920000Y-66260000D01*
X37920000Y-68360000D01*
G37*
G36*
X58180000Y-68360000D02*
G01*
X56080000Y-68360000D01*
X56080000Y-66260000D01*
X58180000Y-66260000D01*
X58180000Y-68360000D01*
G37*
G36*
X64180000Y-68360000D02*
G01*
X62080000Y-68360000D01*
X62080000Y-66260000D01*
X64180000Y-66260000D01*
X64180000Y-68360000D01*
G37*
G36*
X79180000Y-68360000D02*
G01*
X77080000Y-68360000D01*
X77080000Y-66260000D01*
X79180000Y-66260000D01*
X79180000Y-68360000D01*
G37*
G36*
X46624571Y-63661794D02*
G01*
X46636192Y-63665319D01*
X46646887Y-63671036D01*
X46659790Y-63681624D01*
X46670698Y-63692534D01*
X46691072Y-63706148D01*
X46713711Y-63715526D01*
X46737744Y-63720308D01*
X46762248Y-63720308D01*
X46786281Y-63715529D01*
X46808921Y-63706152D01*
X46829295Y-63692539D01*
X46840206Y-63681628D01*
X46853113Y-63671036D01*
X46863808Y-63665319D01*
X46875429Y-63661794D01*
X46893641Y-63660000D01*
X47256359Y-63660000D01*
X47274571Y-63661794D01*
X47286192Y-63665319D01*
X47296887Y-63671036D01*
X47309790Y-63681624D01*
X47320698Y-63692534D01*
X47341072Y-63706148D01*
X47363711Y-63715526D01*
X47387744Y-63720308D01*
X47412248Y-63720308D01*
X47436281Y-63715529D01*
X47458921Y-63706152D01*
X47479295Y-63692539D01*
X47490206Y-63681628D01*
X47503113Y-63671036D01*
X47513808Y-63665319D01*
X47525429Y-63661794D01*
X47543641Y-63660000D01*
X47906359Y-63660000D01*
X47924571Y-63661794D01*
X47936192Y-63665319D01*
X47946887Y-63671036D01*
X47959790Y-63681624D01*
X47970698Y-63692534D01*
X47991072Y-63706148D01*
X48013711Y-63715526D01*
X48037744Y-63720308D01*
X48062248Y-63720308D01*
X48086281Y-63715529D01*
X48108921Y-63706152D01*
X48129295Y-63692539D01*
X48140206Y-63681628D01*
X48153113Y-63671036D01*
X48163808Y-63665319D01*
X48175429Y-63661794D01*
X48193641Y-63660000D01*
X48556359Y-63660000D01*
X48574571Y-63661794D01*
X48586192Y-63665319D01*
X48596887Y-63671036D01*
X48609790Y-63681624D01*
X48620698Y-63692534D01*
X48641072Y-63706148D01*
X48663711Y-63715526D01*
X48687744Y-63720308D01*
X48712248Y-63720308D01*
X48736281Y-63715529D01*
X48758921Y-63706152D01*
X48779295Y-63692539D01*
X48790206Y-63681628D01*
X48803113Y-63671036D01*
X48813808Y-63665319D01*
X48825429Y-63661794D01*
X48843641Y-63660000D01*
X49206359Y-63660000D01*
X49224571Y-63661794D01*
X49236192Y-63665319D01*
X49246887Y-63671036D01*
X49259790Y-63681624D01*
X49270698Y-63692534D01*
X49291072Y-63706148D01*
X49313711Y-63715526D01*
X49337744Y-63720308D01*
X49362248Y-63720308D01*
X49386281Y-63715529D01*
X49408921Y-63706152D01*
X49429295Y-63692539D01*
X49440206Y-63681628D01*
X49453113Y-63671036D01*
X49463808Y-63665319D01*
X49475429Y-63661794D01*
X49493641Y-63660000D01*
X49856359Y-63660000D01*
X49874571Y-63661794D01*
X49886192Y-63665319D01*
X49896887Y-63671036D01*
X49909790Y-63681624D01*
X49920698Y-63692534D01*
X49941072Y-63706148D01*
X49963711Y-63715526D01*
X49987744Y-63720308D01*
X50012248Y-63720308D01*
X50036281Y-63715529D01*
X50058921Y-63706152D01*
X50079295Y-63692539D01*
X50090206Y-63681628D01*
X50103113Y-63671036D01*
X50113808Y-63665319D01*
X50125429Y-63661794D01*
X50143641Y-63660000D01*
X50506359Y-63660000D01*
X50524571Y-63661794D01*
X50536192Y-63665319D01*
X50546887Y-63671036D01*
X50559790Y-63681624D01*
X50570698Y-63692534D01*
X50591072Y-63706148D01*
X50613711Y-63715526D01*
X50637744Y-63720308D01*
X50662248Y-63720308D01*
X50686281Y-63715529D01*
X50708921Y-63706152D01*
X50729295Y-63692539D01*
X50740206Y-63681628D01*
X50753113Y-63671036D01*
X50763808Y-63665319D01*
X50775429Y-63661794D01*
X50793641Y-63660000D01*
X51156359Y-63660000D01*
X51174571Y-63661794D01*
X51186192Y-63665319D01*
X51196887Y-63671036D01*
X51209790Y-63681624D01*
X51220698Y-63692534D01*
X51241072Y-63706148D01*
X51263711Y-63715526D01*
X51287744Y-63720308D01*
X51312248Y-63720308D01*
X51336281Y-63715529D01*
X51358921Y-63706152D01*
X51379295Y-63692539D01*
X51390206Y-63681628D01*
X51403113Y-63671036D01*
X51413808Y-63665319D01*
X51425429Y-63661794D01*
X51443641Y-63660000D01*
X51806359Y-63660000D01*
X51824571Y-63661794D01*
X51836192Y-63665319D01*
X51846887Y-63671036D01*
X51859790Y-63681624D01*
X51870698Y-63692534D01*
X51891072Y-63706148D01*
X51913711Y-63715526D01*
X51937744Y-63720308D01*
X51962248Y-63720308D01*
X51986281Y-63715529D01*
X52008921Y-63706152D01*
X52029295Y-63692539D01*
X52040206Y-63681628D01*
X52053113Y-63671036D01*
X52063808Y-63665319D01*
X52075429Y-63661794D01*
X52093641Y-63660000D01*
X52456359Y-63660000D01*
X52474571Y-63661794D01*
X52486192Y-63665319D01*
X52496887Y-63671036D01*
X52509790Y-63681624D01*
X52520698Y-63692534D01*
X52541072Y-63706148D01*
X52563711Y-63715526D01*
X52587744Y-63720308D01*
X52612248Y-63720308D01*
X52636281Y-63715529D01*
X52658921Y-63706152D01*
X52679295Y-63692539D01*
X52690206Y-63681628D01*
X52703113Y-63671036D01*
X52713808Y-63665319D01*
X52725429Y-63661794D01*
X52743641Y-63660000D01*
X53106359Y-63660000D01*
X53124571Y-63661794D01*
X53136192Y-63665319D01*
X53146887Y-63671036D01*
X53159790Y-63681624D01*
X53170698Y-63692534D01*
X53191072Y-63706148D01*
X53213711Y-63715526D01*
X53237744Y-63720308D01*
X53262248Y-63720308D01*
X53286281Y-63715529D01*
X53308921Y-63706152D01*
X53329295Y-63692539D01*
X53340206Y-63681628D01*
X53353113Y-63671036D01*
X53363808Y-63665319D01*
X53375429Y-63661794D01*
X53393641Y-63660000D01*
X53756359Y-63660000D01*
X53774571Y-63661794D01*
X53786192Y-63665319D01*
X53796887Y-63671036D01*
X53806267Y-63678733D01*
X53813964Y-63688113D01*
X53819681Y-63698808D01*
X53823206Y-63710429D01*
X53825000Y-63728641D01*
X53825000Y-65166359D01*
X53823206Y-65184571D01*
X53819681Y-65196192D01*
X53813964Y-65206887D01*
X53806267Y-65216267D01*
X53796887Y-65223964D01*
X53786192Y-65229681D01*
X53774571Y-65233206D01*
X53756359Y-65235000D01*
X53393641Y-65235000D01*
X53375429Y-65233206D01*
X53363808Y-65229681D01*
X53353113Y-65223964D01*
X53340210Y-65213376D01*
X53329302Y-65202466D01*
X53308928Y-65188852D01*
X53286289Y-65179474D01*
X53262256Y-65174692D01*
X53237752Y-65174692D01*
X53213719Y-65179471D01*
X53191079Y-65188848D01*
X53170705Y-65202461D01*
X53159794Y-65213372D01*
X53146887Y-65223964D01*
X53136192Y-65229681D01*
X53124571Y-65233206D01*
X53106359Y-65235000D01*
X52743641Y-65235000D01*
X52725429Y-65233206D01*
X52713808Y-65229681D01*
X52703113Y-65223964D01*
X52690210Y-65213376D01*
X52679302Y-65202466D01*
X52658928Y-65188852D01*
X52636289Y-65179474D01*
X52612256Y-65174692D01*
X52587752Y-65174692D01*
X52563719Y-65179471D01*
X52541079Y-65188848D01*
X52520705Y-65202461D01*
X52509794Y-65213372D01*
X52496887Y-65223964D01*
X52486192Y-65229681D01*
X52474571Y-65233206D01*
X52456359Y-65235000D01*
X52093641Y-65235000D01*
X52075429Y-65233206D01*
X52063808Y-65229681D01*
X52053113Y-65223964D01*
X52040210Y-65213376D01*
X52029302Y-65202466D01*
X52008928Y-65188852D01*
X51986289Y-65179474D01*
X51962256Y-65174692D01*
X51937752Y-65174692D01*
X51913719Y-65179471D01*
X51891079Y-65188848D01*
X51870705Y-65202461D01*
X51859794Y-65213372D01*
X51846887Y-65223964D01*
X51836192Y-65229681D01*
X51824571Y-65233206D01*
X51806359Y-65235000D01*
X51443641Y-65235000D01*
X51425429Y-65233206D01*
X51413808Y-65229681D01*
X51403113Y-65223964D01*
X51390210Y-65213376D01*
X51379302Y-65202466D01*
X51358928Y-65188852D01*
X51336289Y-65179474D01*
X51312256Y-65174692D01*
X51287752Y-65174692D01*
X51263719Y-65179471D01*
X51241079Y-65188848D01*
X51220705Y-65202461D01*
X51209794Y-65213372D01*
X51196887Y-65223964D01*
X51186192Y-65229681D01*
X51174571Y-65233206D01*
X51156359Y-65235000D01*
X50793641Y-65235000D01*
X50775429Y-65233206D01*
X50763808Y-65229681D01*
X50753113Y-65223964D01*
X50740210Y-65213376D01*
X50729302Y-65202466D01*
X50708928Y-65188852D01*
X50686289Y-65179474D01*
X50662256Y-65174692D01*
X50637752Y-65174692D01*
X50613719Y-65179471D01*
X50591079Y-65188848D01*
X50570705Y-65202461D01*
X50559794Y-65213372D01*
X50546887Y-65223964D01*
X50536192Y-65229681D01*
X50524571Y-65233206D01*
X50506359Y-65235000D01*
X50143641Y-65235000D01*
X50125429Y-65233206D01*
X50113808Y-65229681D01*
X50103113Y-65223964D01*
X50090210Y-65213376D01*
X50079302Y-65202466D01*
X50058928Y-65188852D01*
X50036289Y-65179474D01*
X50012256Y-65174692D01*
X49987752Y-65174692D01*
X49963719Y-65179471D01*
X49941079Y-65188848D01*
X49920705Y-65202461D01*
X49909794Y-65213372D01*
X49896887Y-65223964D01*
X49886192Y-65229681D01*
X49874571Y-65233206D01*
X49856359Y-65235000D01*
X49493641Y-65235000D01*
X49475429Y-65233206D01*
X49463808Y-65229681D01*
X49453113Y-65223964D01*
X49440210Y-65213376D01*
X49429302Y-65202466D01*
X49408928Y-65188852D01*
X49386289Y-65179474D01*
X49362256Y-65174692D01*
X49337752Y-65174692D01*
X49313719Y-65179471D01*
X49291079Y-65188848D01*
X49270705Y-65202461D01*
X49259794Y-65213372D01*
X49246887Y-65223964D01*
X49236192Y-65229681D01*
X49224571Y-65233206D01*
X49206359Y-65235000D01*
X48843641Y-65235000D01*
X48825429Y-65233206D01*
X48813808Y-65229681D01*
X48803113Y-65223964D01*
X48790210Y-65213376D01*
X48779302Y-65202466D01*
X48758928Y-65188852D01*
X48736289Y-65179474D01*
X48712256Y-65174692D01*
X48687752Y-65174692D01*
X48663719Y-65179471D01*
X48641079Y-65188848D01*
X48620705Y-65202461D01*
X48609794Y-65213372D01*
X48596887Y-65223964D01*
X48586192Y-65229681D01*
X48574571Y-65233206D01*
X48556359Y-65235000D01*
X48193641Y-65235000D01*
X48175429Y-65233206D01*
X48163808Y-65229681D01*
X48153113Y-65223964D01*
X48140210Y-65213376D01*
X48129302Y-65202466D01*
X48108928Y-65188852D01*
X48086289Y-65179474D01*
X48062256Y-65174692D01*
X48037752Y-65174692D01*
X48013719Y-65179471D01*
X47991079Y-65188848D01*
X47970705Y-65202461D01*
X47959794Y-65213372D01*
X47946887Y-65223964D01*
X47936192Y-65229681D01*
X47924571Y-65233206D01*
X47906359Y-65235000D01*
X47543641Y-65235000D01*
X47525429Y-65233206D01*
X47513808Y-65229681D01*
X47503113Y-65223964D01*
X47490210Y-65213376D01*
X47479302Y-65202466D01*
X47458928Y-65188852D01*
X47436289Y-65179474D01*
X47412256Y-65174692D01*
X47387752Y-65174692D01*
X47363719Y-65179471D01*
X47341079Y-65188848D01*
X47320705Y-65202461D01*
X47309794Y-65213372D01*
X47296887Y-65223964D01*
X47286192Y-65229681D01*
X47274571Y-65233206D01*
X47256359Y-65235000D01*
X46893641Y-65235000D01*
X46875429Y-65233206D01*
X46863808Y-65229681D01*
X46853113Y-65223964D01*
X46840210Y-65213376D01*
X46829302Y-65202466D01*
X46808928Y-65188852D01*
X46786289Y-65179474D01*
X46762256Y-65174692D01*
X46737752Y-65174692D01*
X46713719Y-65179471D01*
X46691079Y-65188848D01*
X46670705Y-65202461D01*
X46659794Y-65213372D01*
X46646887Y-65223964D01*
X46636192Y-65229681D01*
X46624571Y-65233206D01*
X46606359Y-65235000D01*
X46243641Y-65235000D01*
X46225429Y-65233206D01*
X46213808Y-65229681D01*
X46203113Y-65223964D01*
X46193733Y-65216267D01*
X46186036Y-65206887D01*
X46180319Y-65196192D01*
X46176794Y-65184571D01*
X46175000Y-65166359D01*
X46175000Y-63728641D01*
X46176794Y-63710429D01*
X46180319Y-63698808D01*
X46186036Y-63688113D01*
X46193733Y-63678733D01*
X46203113Y-63671036D01*
X46213808Y-63665319D01*
X46225429Y-63661794D01*
X46243641Y-63660000D01*
X46606359Y-63660000D01*
X46624571Y-63661794D01*
G37*
G36*
X14526791Y-64248575D02*
G01*
X14560679Y-64258855D01*
X14591912Y-64275550D01*
X14619286Y-64298014D01*
X14641750Y-64325388D01*
X14658445Y-64356621D01*
X14668725Y-64390509D01*
X14672800Y-64431888D01*
X14672800Y-65032112D01*
X14668725Y-65073491D01*
X14658445Y-65107379D01*
X14641750Y-65138612D01*
X14619286Y-65165986D01*
X14591912Y-65188450D01*
X14560679Y-65205145D01*
X14526791Y-65215425D01*
X14485412Y-65219500D01*
X13810188Y-65219500D01*
X13768809Y-65215425D01*
X13734921Y-65205145D01*
X13703688Y-65188450D01*
X13676314Y-65165986D01*
X13653850Y-65138612D01*
X13637155Y-65107379D01*
X13626875Y-65073491D01*
X13622800Y-65032112D01*
X13622800Y-64431888D01*
X13626875Y-64390509D01*
X13637155Y-64356621D01*
X13653850Y-64325388D01*
X13676314Y-64298014D01*
X13703688Y-64275550D01*
X13734921Y-64258855D01*
X13768809Y-64248575D01*
X13810188Y-64244500D01*
X14485412Y-64244500D01*
X14526791Y-64248575D01*
G37*
G36*
X14526791Y-62673575D02*
G01*
X14560679Y-62683855D01*
X14591912Y-62700550D01*
X14619286Y-62723014D01*
X14641750Y-62750388D01*
X14658445Y-62781621D01*
X14668725Y-62815509D01*
X14672800Y-62856888D01*
X14672800Y-63457112D01*
X14668725Y-63498491D01*
X14658445Y-63532379D01*
X14641750Y-63563612D01*
X14619286Y-63590986D01*
X14591912Y-63613450D01*
X14560679Y-63630145D01*
X14526791Y-63640425D01*
X14485412Y-63644500D01*
X13810188Y-63644500D01*
X13768809Y-63640425D01*
X13734921Y-63630145D01*
X13703688Y-63613450D01*
X13676314Y-63590986D01*
X13653850Y-63563612D01*
X13637155Y-63532379D01*
X13626875Y-63498491D01*
X13622800Y-63457112D01*
X13622800Y-62856888D01*
X13626875Y-62815509D01*
X13637155Y-62781621D01*
X13653850Y-62750388D01*
X13676314Y-62723014D01*
X13703688Y-62700550D01*
X13734921Y-62683855D01*
X13768809Y-62673575D01*
X13810188Y-62669500D01*
X14485412Y-62669500D01*
X14526791Y-62673575D01*
G37*
G36*
X91650000Y-57300000D02*
G01*
X89550000Y-57300000D01*
X89550000Y-56100000D01*
X91650000Y-56100000D01*
X91650000Y-57300000D01*
G37*
G36*
X96450000Y-57300000D02*
G01*
X94350000Y-57300000D01*
X94350000Y-56100000D01*
X96450000Y-56100000D01*
X96450000Y-57300000D01*
G37*
G36*
X91650000Y-55600000D02*
G01*
X89550000Y-55600000D01*
X89550000Y-54400000D01*
X91650000Y-54400000D01*
X91650000Y-55600000D01*
G37*
G36*
X96450000Y-55600000D02*
G01*
X94350000Y-55600000D01*
X94350000Y-54400000D01*
X96450000Y-54400000D01*
X96450000Y-55600000D01*
G37*
G36*
X96450000Y-53900000D02*
G01*
X94350000Y-53900000D01*
X94350000Y-52700000D01*
X96450000Y-52700000D01*
X96450000Y-53900000D01*
G37*
G36*
X91650000Y-53900000D02*
G01*
X89550000Y-53900000D01*
X89550000Y-52700000D01*
X91650000Y-52700000D01*
X91650000Y-53900000D01*
G37*
G36*
X93810851Y-37007575D02*
G01*
X93844739Y-37017855D01*
X93875972Y-37034550D01*
X93903346Y-37057014D01*
X93925810Y-37084388D01*
X93942505Y-37115621D01*
X93952785Y-37149509D01*
X93956860Y-37190888D01*
X93956860Y-37866112D01*
X93952785Y-37907491D01*
X93942505Y-37941379D01*
X93925810Y-37972612D01*
X93903346Y-37999986D01*
X93875972Y-38022450D01*
X93844739Y-38039145D01*
X93810851Y-38049425D01*
X93769472Y-38053500D01*
X93169248Y-38053500D01*
X93127869Y-38049425D01*
X93093981Y-38039145D01*
X93062748Y-38022450D01*
X93035374Y-37999986D01*
X93012910Y-37972612D01*
X92996215Y-37941379D01*
X92985935Y-37907491D01*
X92981860Y-37866112D01*
X92981860Y-37190888D01*
X92985935Y-37149509D01*
X92996215Y-37115621D01*
X93012910Y-37084388D01*
X93035374Y-37057014D01*
X93062748Y-37034550D01*
X93093981Y-37017855D01*
X93127869Y-37007575D01*
X93169248Y-37003500D01*
X93769472Y-37003500D01*
X93810851Y-37007575D01*
G37*
G36*
X95385851Y-37007575D02*
G01*
X95419739Y-37017855D01*
X95450972Y-37034550D01*
X95478346Y-37057014D01*
X95500810Y-37084388D01*
X95517505Y-37115621D01*
X95527785Y-37149509D01*
X95531860Y-37190888D01*
X95531860Y-37866112D01*
X95527785Y-37907491D01*
X95517505Y-37941379D01*
X95500810Y-37972612D01*
X95478346Y-37999986D01*
X95450972Y-38022450D01*
X95419739Y-38039145D01*
X95385851Y-38049425D01*
X95344472Y-38053500D01*
X94744248Y-38053500D01*
X94702869Y-38049425D01*
X94668981Y-38039145D01*
X94637748Y-38022450D01*
X94610374Y-37999986D01*
X94587910Y-37972612D01*
X94571215Y-37941379D01*
X94560935Y-37907491D01*
X94556860Y-37866112D01*
X94556860Y-37190888D01*
X94560935Y-37149509D01*
X94571215Y-37115621D01*
X94587910Y-37084388D01*
X94610374Y-37057014D01*
X94637748Y-37034550D01*
X94668981Y-37017855D01*
X94702869Y-37007575D01*
X94744248Y-37003500D01*
X95344472Y-37003500D01*
X95385851Y-37007575D01*
G37*
G36*
X93800891Y-35468335D02*
G01*
X93834779Y-35478615D01*
X93866012Y-35495310D01*
X93893386Y-35517774D01*
X93915850Y-35545148D01*
X93932545Y-35576381D01*
X93942825Y-35610269D01*
X93946900Y-35651648D01*
X93946900Y-36326872D01*
X93942825Y-36368251D01*
X93932545Y-36402139D01*
X93915850Y-36433372D01*
X93893386Y-36460746D01*
X93866012Y-36483210D01*
X93834779Y-36499905D01*
X93800891Y-36510185D01*
X93759512Y-36514260D01*
X93159288Y-36514260D01*
X93117909Y-36510185D01*
X93084021Y-36499905D01*
X93052788Y-36483210D01*
X93025414Y-36460746D01*
X93002950Y-36433372D01*
X92986255Y-36402139D01*
X92975975Y-36368251D01*
X92971900Y-36326872D01*
X92971900Y-35651648D01*
X92975975Y-35610269D01*
X92986255Y-35576381D01*
X93002950Y-35545148D01*
X93025414Y-35517774D01*
X93052788Y-35495310D01*
X93084021Y-35478615D01*
X93117909Y-35468335D01*
X93159288Y-35464260D01*
X93759512Y-35464260D01*
X93800891Y-35468335D01*
G37*
G36*
X92225891Y-35468335D02*
G01*
X92259779Y-35478615D01*
X92291012Y-35495310D01*
X92318386Y-35517774D01*
X92340850Y-35545148D01*
X92357545Y-35576381D01*
X92367825Y-35610269D01*
X92371900Y-35651648D01*
X92371900Y-36326872D01*
X92367825Y-36368251D01*
X92357545Y-36402139D01*
X92340850Y-36433372D01*
X92318386Y-36460746D01*
X92291012Y-36483210D01*
X92259779Y-36499905D01*
X92225891Y-36510185D01*
X92184512Y-36514260D01*
X91584288Y-36514260D01*
X91542909Y-36510185D01*
X91509021Y-36499905D01*
X91477788Y-36483210D01*
X91450414Y-36460746D01*
X91427950Y-36433372D01*
X91411255Y-36402139D01*
X91400975Y-36368251D01*
X91396900Y-36326872D01*
X91396900Y-35651648D01*
X91400975Y-35610269D01*
X91411255Y-35576381D01*
X91427950Y-35545148D01*
X91450414Y-35517774D01*
X91477788Y-35495310D01*
X91509021Y-35478615D01*
X91542909Y-35468335D01*
X91584288Y-35464260D01*
X92184512Y-35464260D01*
X92225891Y-35468335D01*
G37*
G36*
X87798671Y-35044155D02*
G01*
X87832559Y-35054435D01*
X87863792Y-35071130D01*
X87891166Y-35093594D01*
X87913630Y-35120968D01*
X87930325Y-35152201D01*
X87940605Y-35186089D01*
X87944680Y-35227468D01*
X87944680Y-35902692D01*
X87940605Y-35944071D01*
X87930325Y-35977959D01*
X87913630Y-36009192D01*
X87891166Y-36036566D01*
X87863792Y-36059030D01*
X87832559Y-36075725D01*
X87798671Y-36086005D01*
X87757292Y-36090080D01*
X87157068Y-36090080D01*
X87115689Y-36086005D01*
X87081801Y-36075725D01*
X87050568Y-36059030D01*
X87023194Y-36036566D01*
X87000730Y-36009192D01*
X86984035Y-35977959D01*
X86973755Y-35944071D01*
X86969680Y-35902692D01*
X86969680Y-35227468D01*
X86973755Y-35186089D01*
X86984035Y-35152201D01*
X87000730Y-35120968D01*
X87023194Y-35093594D01*
X87050568Y-35071130D01*
X87081801Y-35054435D01*
X87115689Y-35044155D01*
X87157068Y-35040080D01*
X87757292Y-35040080D01*
X87798671Y-35044155D01*
G37*
G36*
X89373671Y-35044155D02*
G01*
X89407559Y-35054435D01*
X89438792Y-35071130D01*
X89466166Y-35093594D01*
X89488630Y-35120968D01*
X89505325Y-35152201D01*
X89515605Y-35186089D01*
X89519680Y-35227468D01*
X89519680Y-35902692D01*
X89515605Y-35944071D01*
X89505325Y-35977959D01*
X89488630Y-36009192D01*
X89466166Y-36036566D01*
X89438792Y-36059030D01*
X89407559Y-36075725D01*
X89373671Y-36086005D01*
X89332292Y-36090080D01*
X88732068Y-36090080D01*
X88690689Y-36086005D01*
X88656801Y-36075725D01*
X88625568Y-36059030D01*
X88598194Y-36036566D01*
X88575730Y-36009192D01*
X88559035Y-35977959D01*
X88548755Y-35944071D01*
X88544680Y-35902692D01*
X88544680Y-35227468D01*
X88548755Y-35186089D01*
X88559035Y-35152201D01*
X88575730Y-35120968D01*
X88598194Y-35093594D01*
X88625568Y-35071130D01*
X88656801Y-35054435D01*
X88690689Y-35044155D01*
X88732068Y-35040080D01*
X89332292Y-35040080D01*
X89373671Y-35044155D01*
G37*
G36*
X2802520Y-33424586D02*
G01*
X2966310Y-33492430D01*
X3113717Y-33590924D01*
X3239076Y-33716283D01*
X3256761Y-33742751D01*
X3337571Y-33863692D01*
X3405414Y-34027480D01*
X3440000Y-34201356D01*
X3440000Y-34378644D01*
X3413361Y-34512566D01*
X3405414Y-34552520D01*
X3337570Y-34716310D01*
X3239076Y-34863717D01*
X3113717Y-34989076D01*
X2966310Y-35087570D01*
X2966309Y-35087571D01*
X2966308Y-35087571D01*
X2802520Y-35155414D01*
X2628644Y-35190000D01*
X2451356Y-35190000D01*
X2277480Y-35155414D01*
X2113692Y-35087571D01*
X2113691Y-35087571D01*
X2113690Y-35087570D01*
X1966283Y-34989076D01*
X1840924Y-34863717D01*
X1742430Y-34716310D01*
X1674586Y-34552520D01*
X1666639Y-34512566D01*
X1640000Y-34378644D01*
X1640000Y-34201356D01*
X1674586Y-34027480D01*
X1742429Y-33863692D01*
X1823239Y-33742751D01*
X1840924Y-33716283D01*
X1966283Y-33590924D01*
X2113690Y-33492430D01*
X2277480Y-33424586D01*
X2451356Y-33390000D01*
X2628644Y-33390000D01*
X2802520Y-33424586D01*
G37*
G36*
X92251291Y-33596355D02*
G01*
X92285179Y-33606635D01*
X92316412Y-33623330D01*
X92343786Y-33645794D01*
X92366250Y-33673168D01*
X92382945Y-33704401D01*
X92393225Y-33738289D01*
X92397300Y-33779668D01*
X92397300Y-34454892D01*
X92393225Y-34496271D01*
X92382945Y-34530159D01*
X92366250Y-34561392D01*
X92343786Y-34588766D01*
X92316412Y-34611230D01*
X92285179Y-34627925D01*
X92251291Y-34638205D01*
X92209912Y-34642280D01*
X91609688Y-34642280D01*
X91568309Y-34638205D01*
X91534421Y-34627925D01*
X91503188Y-34611230D01*
X91475814Y-34588766D01*
X91453350Y-34561392D01*
X91436655Y-34530159D01*
X91426375Y-34496271D01*
X91422300Y-34454892D01*
X91422300Y-33779668D01*
X91426375Y-33738289D01*
X91436655Y-33704401D01*
X91453350Y-33673168D01*
X91475814Y-33645794D01*
X91503188Y-33623330D01*
X91534421Y-33606635D01*
X91568309Y-33596355D01*
X91609688Y-33592280D01*
X92209912Y-33592280D01*
X92251291Y-33596355D01*
G37*
G36*
X93826291Y-33596355D02*
G01*
X93860179Y-33606635D01*
X93891412Y-33623330D01*
X93918786Y-33645794D01*
X93941250Y-33673168D01*
X93957945Y-33704401D01*
X93968225Y-33738289D01*
X93972300Y-33779668D01*
X93972300Y-34454892D01*
X93968225Y-34496271D01*
X93957945Y-34530159D01*
X93941250Y-34561392D01*
X93918786Y-34588766D01*
X93891412Y-34611230D01*
X93860179Y-34627925D01*
X93826291Y-34638205D01*
X93784912Y-34642280D01*
X93184688Y-34642280D01*
X93143309Y-34638205D01*
X93109421Y-34627925D01*
X93078188Y-34611230D01*
X93050814Y-34588766D01*
X93028350Y-34561392D01*
X93011655Y-34530159D01*
X93001375Y-34496271D01*
X92997300Y-34454892D01*
X92997300Y-33779668D01*
X93001375Y-33738289D01*
X93011655Y-33704401D01*
X93028350Y-33673168D01*
X93050814Y-33645794D01*
X93078188Y-33623330D01*
X93109421Y-33606635D01*
X93143309Y-33596355D01*
X93184688Y-33592280D01*
X93784912Y-33592280D01*
X93826291Y-33596355D01*
G37*
G36*
X87793791Y-33520155D02*
G01*
X87827679Y-33530435D01*
X87858912Y-33547130D01*
X87886286Y-33569594D01*
X87908750Y-33596968D01*
X87925445Y-33628201D01*
X87935725Y-33662089D01*
X87939800Y-33703468D01*
X87939800Y-34378692D01*
X87935725Y-34420071D01*
X87925445Y-34453959D01*
X87908750Y-34485192D01*
X87886286Y-34512566D01*
X87858912Y-34535030D01*
X87827679Y-34551725D01*
X87793791Y-34562005D01*
X87752412Y-34566080D01*
X87152188Y-34566080D01*
X87110809Y-34562005D01*
X87076921Y-34551725D01*
X87045688Y-34535030D01*
X87018314Y-34512566D01*
X86995850Y-34485192D01*
X86979155Y-34453959D01*
X86968875Y-34420071D01*
X86964800Y-34378692D01*
X86964800Y-33703468D01*
X86968875Y-33662089D01*
X86979155Y-33628201D01*
X86995850Y-33596968D01*
X87018314Y-33569594D01*
X87045688Y-33547130D01*
X87076921Y-33530435D01*
X87110809Y-33520155D01*
X87152188Y-33516080D01*
X87752412Y-33516080D01*
X87793791Y-33520155D01*
G37*
G36*
X86218791Y-33520155D02*
G01*
X86252679Y-33530435D01*
X86283912Y-33547130D01*
X86311286Y-33569594D01*
X86333750Y-33596968D01*
X86350445Y-33628201D01*
X86360725Y-33662089D01*
X86364800Y-33703468D01*
X86364800Y-34378692D01*
X86360725Y-34420071D01*
X86350445Y-34453959D01*
X86333750Y-34485192D01*
X86311286Y-34512566D01*
X86283912Y-34535030D01*
X86252679Y-34551725D01*
X86218791Y-34562005D01*
X86177412Y-34566080D01*
X85577188Y-34566080D01*
X85535809Y-34562005D01*
X85501921Y-34551725D01*
X85470688Y-34535030D01*
X85443314Y-34512566D01*
X85420850Y-34485192D01*
X85404155Y-34453959D01*
X85393875Y-34420071D01*
X85389800Y-34378692D01*
X85389800Y-33703468D01*
X85393875Y-33662089D01*
X85404155Y-33628201D01*
X85420850Y-33596968D01*
X85443314Y-33569594D01*
X85470688Y-33547130D01*
X85501921Y-33530435D01*
X85535809Y-33520155D01*
X85577188Y-33516080D01*
X86177412Y-33516080D01*
X86218791Y-33520155D01*
G37*
G36*
X2802520Y-30884586D02*
G01*
X2966310Y-30952430D01*
X3113717Y-31050924D01*
X3239076Y-31176283D01*
X3337570Y-31323690D01*
X3405414Y-31487480D01*
X3440000Y-31661358D01*
X3440000Y-31838642D01*
X3405414Y-32012520D01*
X3337570Y-32176310D01*
X3239076Y-32323717D01*
X3113717Y-32449076D01*
X2966310Y-32547570D01*
X2966309Y-32547571D01*
X2966308Y-32547571D01*
X2802520Y-32615414D01*
X2628644Y-32650000D01*
X2451356Y-32650000D01*
X2277480Y-32615414D01*
X2113692Y-32547571D01*
X2113691Y-32547571D01*
X2113690Y-32547570D01*
X1966283Y-32449076D01*
X1840924Y-32323717D01*
X1742430Y-32176310D01*
X1674586Y-32012520D01*
X1640000Y-31838642D01*
X1640000Y-31661358D01*
X1674586Y-31487480D01*
X1742430Y-31323690D01*
X1840924Y-31176283D01*
X1966283Y-31050924D01*
X2113690Y-30952430D01*
X2277480Y-30884586D01*
X2451356Y-30850000D01*
X2628644Y-30850000D01*
X2802520Y-30884586D01*
G37*
G36*
X2802520Y-28344586D02*
G01*
X2966310Y-28412430D01*
X3113717Y-28510924D01*
X3239076Y-28636283D01*
X3337570Y-28783690D01*
X3405414Y-28947480D01*
X3440000Y-29121358D01*
X3440000Y-29298642D01*
X3405414Y-29472520D01*
X3337570Y-29636310D01*
X3239076Y-29783717D01*
X3113717Y-29909076D01*
X2966310Y-30007570D01*
X2966309Y-30007571D01*
X2966308Y-30007571D01*
X2802520Y-30075414D01*
X2628644Y-30110000D01*
X2451356Y-30110000D01*
X2277480Y-30075414D01*
X2113692Y-30007571D01*
X2113691Y-30007571D01*
X2113690Y-30007570D01*
X1966283Y-29909076D01*
X1840924Y-29783717D01*
X1742430Y-29636310D01*
X1674586Y-29472520D01*
X1640000Y-29298642D01*
X1640000Y-29121358D01*
X1674586Y-28947480D01*
X1742430Y-28783690D01*
X1840924Y-28636283D01*
X1966283Y-28510924D01*
X2113690Y-28412430D01*
X2277480Y-28344586D01*
X2451356Y-28310000D01*
X2628644Y-28310000D01*
X2802520Y-28344586D01*
G37*
G36*
X2802520Y-25804586D02*
G01*
X2966310Y-25872430D01*
X3113717Y-25970924D01*
X3239076Y-26096283D01*
X3337570Y-26243690D01*
X3405414Y-26407480D01*
X3440000Y-26581358D01*
X3440000Y-26758642D01*
X3405414Y-26932520D01*
X3337570Y-27096310D01*
X3239076Y-27243717D01*
X3113717Y-27369076D01*
X2966310Y-27467570D01*
X2966309Y-27467571D01*
X2966308Y-27467571D01*
X2802520Y-27535414D01*
X2628644Y-27570000D01*
X2451356Y-27570000D01*
X2277480Y-27535414D01*
X2113692Y-27467571D01*
X2113691Y-27467571D01*
X2113690Y-27467570D01*
X1966283Y-27369076D01*
X1840924Y-27243717D01*
X1742430Y-27096310D01*
X1674586Y-26932520D01*
X1640000Y-26758642D01*
X1640000Y-26581358D01*
X1674586Y-26407480D01*
X1742430Y-26243690D01*
X1840924Y-26096283D01*
X1966283Y-25970924D01*
X2113690Y-25872430D01*
X2277480Y-25804586D01*
X2451356Y-25770000D01*
X2628644Y-25770000D01*
X2802520Y-25804586D01*
G37*
G36*
X2802520Y-23264586D02*
G01*
X2966310Y-23332430D01*
X3113717Y-23430924D01*
X3239076Y-23556283D01*
X3337570Y-23703690D01*
X3405414Y-23867480D01*
X3440000Y-24041358D01*
X3440000Y-24218642D01*
X3405414Y-24392520D01*
X3337570Y-24556310D01*
X3239076Y-24703717D01*
X3113717Y-24829076D01*
X2966310Y-24927570D01*
X2966309Y-24927571D01*
X2966308Y-24927571D01*
X2802520Y-24995414D01*
X2628644Y-25030000D01*
X2451356Y-25030000D01*
X2277480Y-24995414D01*
X2113692Y-24927571D01*
X2113691Y-24927571D01*
X2113690Y-24927570D01*
X1966283Y-24829076D01*
X1840924Y-24703717D01*
X1742430Y-24556310D01*
X1674586Y-24392520D01*
X1640000Y-24218642D01*
X1640000Y-24041358D01*
X1674586Y-23867480D01*
X1742430Y-23703690D01*
X1840924Y-23556283D01*
X1966283Y-23430924D01*
X2113690Y-23332430D01*
X2277480Y-23264586D01*
X2451356Y-23230000D01*
X2628644Y-23230000D01*
X2802520Y-23264586D01*
G37*
G36*
X3440000Y-22490000D02*
G01*
X1640000Y-22490000D01*
X1640000Y-20690000D01*
X3440000Y-20690000D01*
X3440000Y-22490000D01*
G37*
G36*
X5190120Y-15923986D02*
G01*
X5353910Y-15991830D01*
X5501317Y-16090324D01*
X5626676Y-16215683D01*
X5725170Y-16363090D01*
X5793014Y-16526880D01*
X5827600Y-16700758D01*
X5827600Y-16878042D01*
X5793014Y-17051920D01*
X5725170Y-17215710D01*
X5626676Y-17363117D01*
X5501317Y-17488476D01*
X5353910Y-17586970D01*
X5353909Y-17586971D01*
X5353908Y-17586971D01*
X5190120Y-17654814D01*
X5016244Y-17689400D01*
X4838956Y-17689400D01*
X4665080Y-17654814D01*
X4501292Y-17586971D01*
X4501291Y-17586971D01*
X4501290Y-17586970D01*
X4353883Y-17488476D01*
X4228524Y-17363117D01*
X4130030Y-17215710D01*
X4062186Y-17051920D01*
X4027600Y-16878042D01*
X4027600Y-16700758D01*
X4062186Y-16526880D01*
X4130030Y-16363090D01*
X4228524Y-16215683D01*
X4353883Y-16090324D01*
X4501290Y-15991830D01*
X4665080Y-15923986D01*
X4838956Y-15889400D01*
X5016244Y-15889400D01*
X5190120Y-15923986D01*
G37*
G36*
X2650120Y-15923986D02*
G01*
X2813910Y-15991830D01*
X2961317Y-16090324D01*
X3086676Y-16215683D01*
X3185170Y-16363090D01*
X3253014Y-16526880D01*
X3287600Y-16700758D01*
X3287600Y-16878042D01*
X3253014Y-17051920D01*
X3185170Y-17215710D01*
X3086676Y-17363117D01*
X2961317Y-17488476D01*
X2813910Y-17586970D01*
X2813909Y-17586971D01*
X2813908Y-17586971D01*
X2650120Y-17654814D01*
X2476244Y-17689400D01*
X2298956Y-17689400D01*
X2125080Y-17654814D01*
X1961292Y-17586971D01*
X1961291Y-17586971D01*
X1961290Y-17586970D01*
X1813883Y-17488476D01*
X1688524Y-17363117D01*
X1590030Y-17215710D01*
X1522186Y-17051920D01*
X1487600Y-16878042D01*
X1487600Y-16700758D01*
X1522186Y-16526880D01*
X1590030Y-16363090D01*
X1688524Y-16215683D01*
X1813883Y-16090324D01*
X1961290Y-15991830D01*
X2125080Y-15923986D01*
X2298956Y-15889400D01*
X2476244Y-15889400D01*
X2650120Y-15923986D01*
G37*
G36*
X5118701Y-13369780D02*
G01*
X5190120Y-13383986D01*
X5353910Y-13451830D01*
X5501317Y-13550324D01*
X5626676Y-13675683D01*
X5725170Y-13823090D01*
X5793014Y-13986880D01*
X5827600Y-14160758D01*
X5827600Y-14338042D01*
X5793014Y-14511920D01*
X5725170Y-14675710D01*
X5626676Y-14823117D01*
X5501317Y-14948476D01*
X5353910Y-15046970D01*
X5353909Y-15046971D01*
X5353908Y-15046971D01*
X5190120Y-15114814D01*
X5016244Y-15149400D01*
X4838956Y-15149400D01*
X4665080Y-15114814D01*
X4501292Y-15046971D01*
X4501291Y-15046971D01*
X4501290Y-15046970D01*
X4353883Y-14948476D01*
X4228524Y-14823117D01*
X4130030Y-14675710D01*
X4062186Y-14511920D01*
X4027600Y-14338042D01*
X4027600Y-14160758D01*
X4062186Y-13986880D01*
X4130030Y-13823090D01*
X4228524Y-13675683D01*
X4353883Y-13550324D01*
X4501290Y-13451830D01*
X4665080Y-13383986D01*
X4736499Y-13369780D01*
X4838956Y-13349400D01*
X5016244Y-13349400D01*
X5118701Y-13369780D01*
G37*
G36*
X2578701Y-13369780D02*
G01*
X2650120Y-13383986D01*
X2813910Y-13451830D01*
X2961317Y-13550324D01*
X3086676Y-13675683D01*
X3185170Y-13823090D01*
X3253014Y-13986880D01*
X3287600Y-14160758D01*
X3287600Y-14338042D01*
X3253014Y-14511920D01*
X3185170Y-14675710D01*
X3086676Y-14823117D01*
X2961317Y-14948476D01*
X2813910Y-15046970D01*
X2813909Y-15046971D01*
X2813908Y-15046971D01*
X2650120Y-15114814D01*
X2476244Y-15149400D01*
X2298956Y-15149400D01*
X2125080Y-15114814D01*
X1961292Y-15046971D01*
X1961291Y-15046971D01*
X1961290Y-15046970D01*
X1813883Y-14948476D01*
X1688524Y-14823117D01*
X1590030Y-14675710D01*
X1522186Y-14511920D01*
X1487600Y-14338042D01*
X1487600Y-14160758D01*
X1522186Y-13986880D01*
X1590030Y-13823090D01*
X1688524Y-13675683D01*
X1813883Y-13550324D01*
X1961290Y-13451830D01*
X2125080Y-13383986D01*
X2196499Y-13369780D01*
X2298956Y-13349400D01*
X2476244Y-13349400D01*
X2578701Y-13369780D01*
G37*
G36*
X10785871Y-12323855D02*
G01*
X10819759Y-12334135D01*
X10850992Y-12350830D01*
X10878366Y-12373294D01*
X10900830Y-12400668D01*
X10917525Y-12431901D01*
X10927805Y-12465789D01*
X10931880Y-12507168D01*
X10931880Y-13182392D01*
X10927805Y-13223771D01*
X10917525Y-13257659D01*
X10900830Y-13288892D01*
X10878366Y-13316266D01*
X10850992Y-13338730D01*
X10819759Y-13355425D01*
X10785871Y-13365705D01*
X10744492Y-13369780D01*
X10144268Y-13369780D01*
X10102889Y-13365705D01*
X10069001Y-13355425D01*
X10037768Y-13338730D01*
X10010394Y-13316266D01*
X9987930Y-13288892D01*
X9971235Y-13257659D01*
X9960955Y-13223771D01*
X9956880Y-13182392D01*
X9956880Y-12507168D01*
X9960955Y-12465789D01*
X9971235Y-12431901D01*
X9987930Y-12400668D01*
X10010394Y-12373294D01*
X10037768Y-12350830D01*
X10069001Y-12334135D01*
X10102889Y-12323855D01*
X10144268Y-12319780D01*
X10744492Y-12319780D01*
X10785871Y-12323855D01*
G37*
G36*
X12360871Y-12323855D02*
G01*
X12394759Y-12334135D01*
X12425992Y-12350830D01*
X12453366Y-12373294D01*
X12475830Y-12400668D01*
X12492525Y-12431901D01*
X12502805Y-12465789D01*
X12506880Y-12507168D01*
X12506880Y-13182392D01*
X12502805Y-13223771D01*
X12492525Y-13257659D01*
X12475830Y-13288892D01*
X12453366Y-13316266D01*
X12425992Y-13338730D01*
X12394759Y-13355425D01*
X12360871Y-13365705D01*
X12319492Y-13369780D01*
X11719268Y-13369780D01*
X11677889Y-13365705D01*
X11644001Y-13355425D01*
X11612768Y-13338730D01*
X11585394Y-13316266D01*
X11562930Y-13288892D01*
X11546235Y-13257659D01*
X11535955Y-13223771D01*
X11531880Y-13182392D01*
X11531880Y-12507168D01*
X11535955Y-12465789D01*
X11546235Y-12431901D01*
X11562930Y-12400668D01*
X11585394Y-12373294D01*
X11612768Y-12350830D01*
X11644001Y-12334135D01*
X11677889Y-12323855D01*
X11719268Y-12319780D01*
X12319492Y-12319780D01*
X12360871Y-12323855D01*
G37*
G36*
X2650120Y-10843986D02*
G01*
X2813910Y-10911830D01*
X2961317Y-11010324D01*
X3086676Y-11135683D01*
X3185170Y-11283090D01*
X3185171Y-11283092D01*
X3253014Y-11446880D01*
X3287600Y-11620756D01*
X3287600Y-11798044D01*
X3267843Y-11897370D01*
X3253014Y-11971920D01*
X3185170Y-12135710D01*
X3086676Y-12283117D01*
X2961317Y-12408476D01*
X2813910Y-12506970D01*
X2813909Y-12506971D01*
X2813908Y-12506971D01*
X2650120Y-12574814D01*
X2476244Y-12609400D01*
X2298956Y-12609400D01*
X2125080Y-12574814D01*
X1961292Y-12506971D01*
X1961291Y-12506971D01*
X1961290Y-12506970D01*
X1813883Y-12408476D01*
X1688524Y-12283117D01*
X1590030Y-12135710D01*
X1522186Y-11971920D01*
X1507357Y-11897370D01*
X1487600Y-11798044D01*
X1487600Y-11620756D01*
X1522186Y-11446880D01*
X1590029Y-11283092D01*
X1590030Y-11283090D01*
X1688524Y-11135683D01*
X1813883Y-11010324D01*
X1961290Y-10911830D01*
X2125080Y-10843986D01*
X2298956Y-10809400D01*
X2476244Y-10809400D01*
X2650120Y-10843986D01*
G37*
G36*
X5827600Y-12609400D02*
G01*
X4027600Y-12609400D01*
X4027600Y-10809400D01*
X5827600Y-10809400D01*
X5827600Y-12609400D01*
G37*
G36*
X77834120Y-10234386D02*
G01*
X77997910Y-10302230D01*
X78145317Y-10400724D01*
X78270676Y-10526083D01*
X78276714Y-10535120D01*
X78369171Y-10673492D01*
X78437014Y-10837280D01*
X78471435Y-11010324D01*
X78471600Y-11011158D01*
X78471600Y-11188442D01*
X78437014Y-11362320D01*
X78369170Y-11526110D01*
X78270676Y-11673517D01*
X78145317Y-11798876D01*
X77997910Y-11897370D01*
X77997909Y-11897371D01*
X77997908Y-11897371D01*
X77834120Y-11965214D01*
X77660244Y-11999800D01*
X77482956Y-11999800D01*
X77309080Y-11965214D01*
X77145292Y-11897371D01*
X77145291Y-11897371D01*
X77145290Y-11897370D01*
X76997883Y-11798876D01*
X76872524Y-11673517D01*
X76774030Y-11526110D01*
X76706186Y-11362320D01*
X76671600Y-11188442D01*
X76671600Y-11011158D01*
X76671766Y-11010324D01*
X76706186Y-10837280D01*
X76774029Y-10673492D01*
X76866486Y-10535120D01*
X76872524Y-10526083D01*
X76997883Y-10400724D01*
X77145290Y-10302230D01*
X77309080Y-10234386D01*
X77482956Y-10199800D01*
X77660244Y-10199800D01*
X77834120Y-10234386D01*
G37*
G36*
X85454120Y-10234386D02*
G01*
X85617910Y-10302230D01*
X85765317Y-10400724D01*
X85890676Y-10526083D01*
X85896714Y-10535120D01*
X85989171Y-10673492D01*
X86057014Y-10837280D01*
X86091435Y-11010324D01*
X86091600Y-11011158D01*
X86091600Y-11188442D01*
X86057014Y-11362320D01*
X85989170Y-11526110D01*
X85890676Y-11673517D01*
X85765317Y-11798876D01*
X85617910Y-11897370D01*
X85617909Y-11897371D01*
X85617908Y-11897371D01*
X85454120Y-11965214D01*
X85280244Y-11999800D01*
X85102956Y-11999800D01*
X84929080Y-11965214D01*
X84765292Y-11897371D01*
X84765291Y-11897371D01*
X84765290Y-11897370D01*
X84617883Y-11798876D01*
X84492524Y-11673517D01*
X84394030Y-11526110D01*
X84326186Y-11362320D01*
X84291600Y-11188442D01*
X84291600Y-11011158D01*
X84291766Y-11010324D01*
X84326186Y-10837280D01*
X84394029Y-10673492D01*
X84486486Y-10535120D01*
X84492524Y-10526083D01*
X84617883Y-10400724D01*
X84765290Y-10302230D01*
X84929080Y-10234386D01*
X85102956Y-10199800D01*
X85280244Y-10199800D01*
X85454120Y-10234386D01*
G37*
G36*
X82914120Y-10234386D02*
G01*
X83077910Y-10302230D01*
X83225317Y-10400724D01*
X83350676Y-10526083D01*
X83356714Y-10535120D01*
X83449171Y-10673492D01*
X83517014Y-10837280D01*
X83551435Y-11010324D01*
X83551600Y-11011158D01*
X83551600Y-11188442D01*
X83517014Y-11362320D01*
X83449170Y-11526110D01*
X83350676Y-11673517D01*
X83225317Y-11798876D01*
X83077910Y-11897370D01*
X83077909Y-11897371D01*
X83077908Y-11897371D01*
X82914120Y-11965214D01*
X82740244Y-11999800D01*
X82562956Y-11999800D01*
X82389080Y-11965214D01*
X82225292Y-11897371D01*
X82225291Y-11897371D01*
X82225290Y-11897370D01*
X82077883Y-11798876D01*
X81952524Y-11673517D01*
X81854030Y-11526110D01*
X81786186Y-11362320D01*
X81751600Y-11188442D01*
X81751600Y-11011158D01*
X81751766Y-11010324D01*
X81786186Y-10837280D01*
X81854029Y-10673492D01*
X81946486Y-10535120D01*
X81952524Y-10526083D01*
X82077883Y-10400724D01*
X82225290Y-10302230D01*
X82389080Y-10234386D01*
X82562956Y-10199800D01*
X82740244Y-10199800D01*
X82914120Y-10234386D01*
G37*
G36*
X80374120Y-10234386D02*
G01*
X80537910Y-10302230D01*
X80685317Y-10400724D01*
X80810676Y-10526083D01*
X80816714Y-10535120D01*
X80909171Y-10673492D01*
X80977014Y-10837280D01*
X81011435Y-11010324D01*
X81011600Y-11011158D01*
X81011600Y-11188442D01*
X80977014Y-11362320D01*
X80909170Y-11526110D01*
X80810676Y-11673517D01*
X80685317Y-11798876D01*
X80537910Y-11897370D01*
X80537909Y-11897371D01*
X80537908Y-11897371D01*
X80374120Y-11965214D01*
X80200244Y-11999800D01*
X80022956Y-11999800D01*
X79849080Y-11965214D01*
X79685292Y-11897371D01*
X79685291Y-11897371D01*
X79685290Y-11897370D01*
X79537883Y-11798876D01*
X79412524Y-11673517D01*
X79314030Y-11526110D01*
X79246186Y-11362320D01*
X79211600Y-11188442D01*
X79211600Y-11011158D01*
X79211766Y-11010324D01*
X79246186Y-10837280D01*
X79314029Y-10673492D01*
X79406486Y-10535120D01*
X79412524Y-10526083D01*
X79537883Y-10400724D01*
X79685290Y-10302230D01*
X79849080Y-10234386D01*
X80022956Y-10199800D01*
X80200244Y-10199800D01*
X80374120Y-10234386D01*
G37*
G36*
X87994120Y-10234386D02*
G01*
X88157910Y-10302230D01*
X88305317Y-10400724D01*
X88430676Y-10526083D01*
X88436714Y-10535120D01*
X88529171Y-10673492D01*
X88597014Y-10837280D01*
X88631435Y-11010324D01*
X88631600Y-11011158D01*
X88631600Y-11188442D01*
X88597014Y-11362320D01*
X88529170Y-11526110D01*
X88430676Y-11673517D01*
X88305317Y-11798876D01*
X88157910Y-11897370D01*
X88157909Y-11897371D01*
X88157908Y-11897371D01*
X87994120Y-11965214D01*
X87820244Y-11999800D01*
X87642956Y-11999800D01*
X87469080Y-11965214D01*
X87305292Y-11897371D01*
X87305291Y-11897371D01*
X87305290Y-11897370D01*
X87157883Y-11798876D01*
X87032524Y-11673517D01*
X86934030Y-11526110D01*
X86866186Y-11362320D01*
X86831600Y-11188442D01*
X86831600Y-11011158D01*
X86831766Y-11010324D01*
X86866186Y-10837280D01*
X86934029Y-10673492D01*
X87026486Y-10535120D01*
X87032524Y-10526083D01*
X87157883Y-10400724D01*
X87305290Y-10302230D01*
X87469080Y-10234386D01*
X87642956Y-10199800D01*
X87820244Y-10199800D01*
X87994120Y-10234386D01*
G37*
G36*
X75931600Y-11999800D02*
G01*
X74131600Y-11999800D01*
X74131600Y-10199800D01*
X75931600Y-10199800D01*
X75931600Y-11999800D01*
G37*
G36*
X24965040Y-10535120D02*
G01*
X23775040Y-10535120D01*
X23775040Y-7895120D01*
X24965040Y-7895120D01*
X24965040Y-10535120D01*
G37*
G36*
X27665040Y-10535120D02*
G01*
X26475040Y-10535120D01*
X26475040Y-9795120D01*
X27665040Y-9795120D01*
X27665040Y-10535120D01*
G37*
G36*
X31643738Y-9200653D02*
G01*
X31685598Y-9208979D01*
X31734596Y-9229275D01*
X31803889Y-9257977D01*
X31803890Y-9257978D01*
X31910351Y-9329112D01*
X32000888Y-9419649D01*
X32028390Y-9460809D01*
X32072023Y-9526111D01*
X32121021Y-9644403D01*
X32146000Y-9769979D01*
X32146000Y-9898021D01*
X32121021Y-10023597D01*
X32072023Y-10141889D01*
X32072022Y-10141890D01*
X32000888Y-10248351D01*
X31910351Y-10338888D01*
X31839216Y-10386418D01*
X31803889Y-10410023D01*
X31734596Y-10438725D01*
X31685598Y-10459021D01*
X31643738Y-10467347D01*
X31560021Y-10484000D01*
X31431979Y-10484000D01*
X31348262Y-10467347D01*
X31306402Y-10459021D01*
X31257404Y-10438725D01*
X31188111Y-10410023D01*
X31152784Y-10386418D01*
X31081649Y-10338888D01*
X30991112Y-10248351D01*
X30919978Y-10141890D01*
X30919977Y-10141889D01*
X30870979Y-10023597D01*
X30846000Y-9898021D01*
X30846000Y-9769979D01*
X30870979Y-9644403D01*
X30919977Y-9526111D01*
X30963610Y-9460809D01*
X30991112Y-9419649D01*
X31081649Y-9329112D01*
X31188110Y-9257978D01*
X31188111Y-9257977D01*
X31257404Y-9229275D01*
X31306402Y-9208979D01*
X31348262Y-9200653D01*
X31431979Y-9184000D01*
X31560021Y-9184000D01*
X31643738Y-9200653D01*
G37*
G36*
X70604911Y-8640355D02*
G01*
X70638799Y-8650635D01*
X70670032Y-8667330D01*
X70697406Y-8689794D01*
X70719870Y-8717168D01*
X70736565Y-8748401D01*
X70746845Y-8782289D01*
X70750920Y-8823668D01*
X70750920Y-9423892D01*
X70746845Y-9465271D01*
X70736565Y-9499159D01*
X70719870Y-9530392D01*
X70697406Y-9557766D01*
X70670032Y-9580230D01*
X70638799Y-9596925D01*
X70604911Y-9607205D01*
X70563532Y-9611280D01*
X69888308Y-9611280D01*
X69846929Y-9607205D01*
X69813041Y-9596925D01*
X69781808Y-9580230D01*
X69754434Y-9557766D01*
X69731970Y-9530392D01*
X69715275Y-9499159D01*
X69704995Y-9465271D01*
X69700920Y-9423892D01*
X69700920Y-8823668D01*
X69704995Y-8782289D01*
X69715275Y-8748401D01*
X69731970Y-8717168D01*
X69754434Y-8689794D01*
X69781808Y-8667330D01*
X69813041Y-8650635D01*
X69846929Y-8640355D01*
X69888308Y-8636280D01*
X70563532Y-8636280D01*
X70604911Y-8640355D01*
G37*
G36*
X77824126Y-7692398D02*
G01*
X77834120Y-7694386D01*
X77997910Y-7762230D01*
X78145317Y-7860724D01*
X78270676Y-7986083D01*
X78304216Y-8036280D01*
X78369171Y-8133492D01*
X78437014Y-8297280D01*
X78471600Y-8471156D01*
X78471600Y-8648444D01*
X78457930Y-8717168D01*
X78437014Y-8822320D01*
X78369170Y-8986110D01*
X78270676Y-9133517D01*
X78145317Y-9258876D01*
X77997910Y-9357370D01*
X77997909Y-9357371D01*
X77997908Y-9357371D01*
X77834120Y-9425214D01*
X77660244Y-9459800D01*
X77482956Y-9459800D01*
X77309080Y-9425214D01*
X77145292Y-9357371D01*
X77145291Y-9357371D01*
X77145290Y-9357370D01*
X76997883Y-9258876D01*
X76872524Y-9133517D01*
X76774030Y-8986110D01*
X76706186Y-8822320D01*
X76685270Y-8717168D01*
X76671600Y-8648444D01*
X76671600Y-8471156D01*
X76706186Y-8297280D01*
X76774029Y-8133492D01*
X76838984Y-8036280D01*
X76872524Y-7986083D01*
X76997883Y-7860724D01*
X77145290Y-7762230D01*
X77309080Y-7694386D01*
X77319074Y-7692398D01*
X77482956Y-7659800D01*
X77660244Y-7659800D01*
X77824126Y-7692398D01*
G37*
G36*
X80364126Y-7692398D02*
G01*
X80374120Y-7694386D01*
X80537910Y-7762230D01*
X80685317Y-7860724D01*
X80810676Y-7986083D01*
X80844216Y-8036280D01*
X80909171Y-8133492D01*
X80977014Y-8297280D01*
X81011600Y-8471156D01*
X81011600Y-8648444D01*
X80997930Y-8717168D01*
X80977014Y-8822320D01*
X80909170Y-8986110D01*
X80810676Y-9133517D01*
X80685317Y-9258876D01*
X80537910Y-9357370D01*
X80537909Y-9357371D01*
X80537908Y-9357371D01*
X80374120Y-9425214D01*
X80200244Y-9459800D01*
X80022956Y-9459800D01*
X79849080Y-9425214D01*
X79685292Y-9357371D01*
X79685291Y-9357371D01*
X79685290Y-9357370D01*
X79537883Y-9258876D01*
X79412524Y-9133517D01*
X79314030Y-8986110D01*
X79246186Y-8822320D01*
X79225270Y-8717168D01*
X79211600Y-8648444D01*
X79211600Y-8471156D01*
X79246186Y-8297280D01*
X79314029Y-8133492D01*
X79378984Y-8036280D01*
X79412524Y-7986083D01*
X79537883Y-7860724D01*
X79685290Y-7762230D01*
X79849080Y-7694386D01*
X79859074Y-7692398D01*
X80022956Y-7659800D01*
X80200244Y-7659800D01*
X80364126Y-7692398D01*
G37*
G36*
X82904126Y-7692398D02*
G01*
X82914120Y-7694386D01*
X83077910Y-7762230D01*
X83225317Y-7860724D01*
X83350676Y-7986083D01*
X83384216Y-8036280D01*
X83449171Y-8133492D01*
X83517014Y-8297280D01*
X83551600Y-8471156D01*
X83551600Y-8648444D01*
X83537930Y-8717168D01*
X83517014Y-8822320D01*
X83449170Y-8986110D01*
X83350676Y-9133517D01*
X83225317Y-9258876D01*
X83077910Y-9357370D01*
X83077909Y-9357371D01*
X83077908Y-9357371D01*
X82914120Y-9425214D01*
X82740244Y-9459800D01*
X82562956Y-9459800D01*
X82389080Y-9425214D01*
X82225292Y-9357371D01*
X82225291Y-9357371D01*
X82225290Y-9357370D01*
X82077883Y-9258876D01*
X81952524Y-9133517D01*
X81854030Y-8986110D01*
X81786186Y-8822320D01*
X81765270Y-8717168D01*
X81751600Y-8648444D01*
X81751600Y-8471156D01*
X81786186Y-8297280D01*
X81854029Y-8133492D01*
X81918984Y-8036280D01*
X81952524Y-7986083D01*
X82077883Y-7860724D01*
X82225290Y-7762230D01*
X82389080Y-7694386D01*
X82399074Y-7692398D01*
X82562956Y-7659800D01*
X82740244Y-7659800D01*
X82904126Y-7692398D01*
G37*
G36*
X87984126Y-7692398D02*
G01*
X87994120Y-7694386D01*
X88157910Y-7762230D01*
X88305317Y-7860724D01*
X88430676Y-7986083D01*
X88464216Y-8036280D01*
X88529171Y-8133492D01*
X88597014Y-8297280D01*
X88631600Y-8471156D01*
X88631600Y-8648444D01*
X88617930Y-8717168D01*
X88597014Y-8822320D01*
X88529170Y-8986110D01*
X88430676Y-9133517D01*
X88305317Y-9258876D01*
X88157910Y-9357370D01*
X88157909Y-9357371D01*
X88157908Y-9357371D01*
X87994120Y-9425214D01*
X87820244Y-9459800D01*
X87642956Y-9459800D01*
X87469080Y-9425214D01*
X87305292Y-9357371D01*
X87305291Y-9357371D01*
X87305290Y-9357370D01*
X87157883Y-9258876D01*
X87032524Y-9133517D01*
X86934030Y-8986110D01*
X86866186Y-8822320D01*
X86845270Y-8717168D01*
X86831600Y-8648444D01*
X86831600Y-8471156D01*
X86866186Y-8297280D01*
X86934029Y-8133492D01*
X86998984Y-8036280D01*
X87032524Y-7986083D01*
X87157883Y-7860724D01*
X87305290Y-7762230D01*
X87469080Y-7694386D01*
X87479074Y-7692398D01*
X87642956Y-7659800D01*
X87820244Y-7659800D01*
X87984126Y-7692398D01*
G37*
G36*
X75284126Y-7692398D02*
G01*
X75294120Y-7694386D01*
X75457910Y-7762230D01*
X75605317Y-7860724D01*
X75730676Y-7986083D01*
X75764216Y-8036280D01*
X75829171Y-8133492D01*
X75897014Y-8297280D01*
X75931600Y-8471156D01*
X75931600Y-8648444D01*
X75917930Y-8717168D01*
X75897014Y-8822320D01*
X75829170Y-8986110D01*
X75730676Y-9133517D01*
X75605317Y-9258876D01*
X75457910Y-9357370D01*
X75457909Y-9357371D01*
X75457908Y-9357371D01*
X75294120Y-9425214D01*
X75120244Y-9459800D01*
X74942956Y-9459800D01*
X74769080Y-9425214D01*
X74605292Y-9357371D01*
X74605291Y-9357371D01*
X74605290Y-9357370D01*
X74457883Y-9258876D01*
X74332524Y-9133517D01*
X74234030Y-8986110D01*
X74166186Y-8822320D01*
X74145270Y-8717168D01*
X74131600Y-8648444D01*
X74131600Y-8471156D01*
X74166186Y-8297280D01*
X74234029Y-8133492D01*
X74298984Y-8036280D01*
X74332524Y-7986083D01*
X74457883Y-7860724D01*
X74605290Y-7762230D01*
X74769080Y-7694386D01*
X74779074Y-7692398D01*
X74942956Y-7659800D01*
X75120244Y-7659800D01*
X75284126Y-7692398D01*
G37*
G36*
X85444126Y-7692398D02*
G01*
X85454120Y-7694386D01*
X85617910Y-7762230D01*
X85765317Y-7860724D01*
X85890676Y-7986083D01*
X85924216Y-8036280D01*
X85989171Y-8133492D01*
X86057014Y-8297280D01*
X86091600Y-8471156D01*
X86091600Y-8648444D01*
X86077930Y-8717168D01*
X86057014Y-8822320D01*
X85989170Y-8986110D01*
X85890676Y-9133517D01*
X85765317Y-9258876D01*
X85617910Y-9357370D01*
X85617909Y-9357371D01*
X85617908Y-9357371D01*
X85454120Y-9425214D01*
X85280244Y-9459800D01*
X85102956Y-9459800D01*
X84929080Y-9425214D01*
X84765292Y-9357371D01*
X84765291Y-9357371D01*
X84765290Y-9357370D01*
X84617883Y-9258876D01*
X84492524Y-9133517D01*
X84394030Y-8986110D01*
X84326186Y-8822320D01*
X84305270Y-8717168D01*
X84291600Y-8648444D01*
X84291600Y-8471156D01*
X84326186Y-8297280D01*
X84394029Y-8133492D01*
X84458984Y-8036280D01*
X84492524Y-7986083D01*
X84617883Y-7860724D01*
X84765290Y-7762230D01*
X84929080Y-7694386D01*
X84939074Y-7692398D01*
X85102956Y-7659800D01*
X85280244Y-7659800D01*
X85444126Y-7692398D01*
G37*
G36*
X27665040Y-8635120D02*
G01*
X26475040Y-8635120D01*
X26475040Y-7895120D01*
X27665040Y-7895120D01*
X27665040Y-8635120D01*
G37*
G36*
X19921818Y-5847958D02*
G01*
X19998517Y-5871225D01*
X20025497Y-5879409D01*
X20121037Y-5930476D01*
X20121038Y-5930477D01*
X20121042Y-5930479D01*
X20204790Y-5999210D01*
X20204791Y-5999212D01*
X20204793Y-5999213D01*
X20273522Y-6082959D01*
X20324591Y-6178502D01*
X20331464Y-6201160D01*
X20356042Y-6282181D01*
X20364000Y-6362982D01*
X20364000Y-7517018D01*
X20356042Y-7597819D01*
X20355380Y-7600000D01*
X20324591Y-7701498D01*
X20273524Y-7797038D01*
X20273522Y-7797041D01*
X20273521Y-7797042D01*
X20204790Y-7880790D01*
X20193238Y-7890271D01*
X20121038Y-7949524D01*
X20025498Y-8000591D01*
X20010205Y-8005230D01*
X19921819Y-8032042D01*
X19814000Y-8042661D01*
X19706182Y-8032042D01*
X19617796Y-8005230D01*
X19602503Y-8000591D01*
X19506963Y-7949524D01*
X19434764Y-7890271D01*
X19423211Y-7880790D01*
X19354480Y-7797042D01*
X19354479Y-7797041D01*
X19354477Y-7797038D01*
X19303410Y-7701498D01*
X19272621Y-7600000D01*
X19271959Y-7597819D01*
X19264001Y-7517018D01*
X19264000Y-6362983D01*
X19271958Y-6282182D01*
X19303408Y-6178507D01*
X19303409Y-6178503D01*
X19354476Y-6082963D01*
X19354477Y-6082962D01*
X19354479Y-6082958D01*
X19423210Y-5999210D01*
X19423212Y-5999209D01*
X19423213Y-5999207D01*
X19506959Y-5930478D01*
X19602502Y-5879409D01*
X19629482Y-5871225D01*
X19706181Y-5847958D01*
X19814000Y-5837339D01*
X19921818Y-5847958D01*
G37*
G36*
X11281818Y-5847958D02*
G01*
X11358517Y-5871225D01*
X11385497Y-5879409D01*
X11481037Y-5930476D01*
X11481038Y-5930477D01*
X11481042Y-5930479D01*
X11564790Y-5999210D01*
X11564791Y-5999212D01*
X11564793Y-5999213D01*
X11633522Y-6082959D01*
X11684591Y-6178502D01*
X11691464Y-6201160D01*
X11716042Y-6282181D01*
X11724000Y-6362982D01*
X11724000Y-7517018D01*
X11716042Y-7597819D01*
X11715380Y-7600000D01*
X11684591Y-7701498D01*
X11633524Y-7797038D01*
X11633522Y-7797041D01*
X11633521Y-7797042D01*
X11564790Y-7880790D01*
X11553238Y-7890271D01*
X11481038Y-7949524D01*
X11385498Y-8000591D01*
X11370205Y-8005230D01*
X11281819Y-8032042D01*
X11174000Y-8042661D01*
X11066182Y-8032042D01*
X10977796Y-8005230D01*
X10962503Y-8000591D01*
X10866963Y-7949524D01*
X10794764Y-7890271D01*
X10783211Y-7880790D01*
X10714480Y-7797042D01*
X10714479Y-7797041D01*
X10714477Y-7797038D01*
X10663410Y-7701498D01*
X10632621Y-7600000D01*
X10631959Y-7597819D01*
X10624001Y-7517018D01*
X10624000Y-6362983D01*
X10631958Y-6282182D01*
X10663408Y-6178507D01*
X10663409Y-6178503D01*
X10714476Y-6082963D01*
X10714477Y-6082962D01*
X10714479Y-6082958D01*
X10783210Y-5999210D01*
X10783212Y-5999209D01*
X10783213Y-5999207D01*
X10866959Y-5930478D01*
X10962502Y-5879409D01*
X10989482Y-5871225D01*
X11066181Y-5847958D01*
X11174000Y-5837339D01*
X11281818Y-5847958D01*
G37*
G36*
X70604911Y-7065355D02*
G01*
X70638799Y-7075635D01*
X70670032Y-7092330D01*
X70697406Y-7114794D01*
X70719870Y-7142168D01*
X70736565Y-7173401D01*
X70746845Y-7207289D01*
X70750920Y-7248668D01*
X70750920Y-7848892D01*
X70746845Y-7890271D01*
X70736565Y-7924159D01*
X70719870Y-7955392D01*
X70697406Y-7982766D01*
X70670032Y-8005230D01*
X70638799Y-8021925D01*
X70604911Y-8032205D01*
X70563532Y-8036280D01*
X69888308Y-8036280D01*
X69846929Y-8032205D01*
X69813041Y-8021925D01*
X69781808Y-8005230D01*
X69754434Y-7982766D01*
X69731970Y-7955392D01*
X69715275Y-7924159D01*
X69704995Y-7890271D01*
X69700920Y-7848892D01*
X69700920Y-7248668D01*
X69704995Y-7207289D01*
X69715275Y-7173401D01*
X69731970Y-7142168D01*
X69754434Y-7114794D01*
X69781808Y-7092330D01*
X69813041Y-7075635D01*
X69846929Y-7065355D01*
X69888308Y-7061280D01*
X70563532Y-7061280D01*
X70604911Y-7065355D01*
G37*
G36*
X5519613Y-2248502D02*
G01*
X5816730Y-2307602D01*
X5924360Y-2352184D01*
X6326296Y-2518671D01*
X6478469Y-2620350D01*
X6784896Y-2825098D01*
X7174902Y-3215104D01*
X7358282Y-3489552D01*
X7481329Y-3673704D01*
X7549004Y-3837086D01*
X7692398Y-4183270D01*
X7711394Y-4278770D01*
X7800000Y-4724223D01*
X7800000Y-5275777D01*
X7746199Y-5546253D01*
X7692398Y-5816730D01*
X7616813Y-5999207D01*
X7481329Y-6326296D01*
X7481328Y-6326297D01*
X7174902Y-6784896D01*
X6784896Y-7174902D01*
X6572716Y-7316676D01*
X6326296Y-7481329D01*
X6039798Y-7600000D01*
X5816730Y-7692398D01*
X5546253Y-7746199D01*
X5275777Y-7800000D01*
X4724223Y-7800000D01*
X4453747Y-7746199D01*
X4183270Y-7692398D01*
X3960202Y-7600000D01*
X3673704Y-7481329D01*
X3427284Y-7316676D01*
X3215104Y-7174902D01*
X2825098Y-6784896D01*
X2518672Y-6326297D01*
X2518671Y-6326296D01*
X2383187Y-5999207D01*
X2307602Y-5816730D01*
X2253801Y-5546253D01*
X2200000Y-5275777D01*
X2200000Y-4724223D01*
X2288606Y-4278770D01*
X2307602Y-4183270D01*
X2450996Y-3837086D01*
X2518671Y-3673704D01*
X2641718Y-3489552D01*
X2825098Y-3215104D01*
X3215104Y-2825098D01*
X3521531Y-2620350D01*
X3673704Y-2518671D01*
X4075640Y-2352184D01*
X4183270Y-2307602D01*
X4480387Y-2248502D01*
X4724223Y-2200000D01*
X5275777Y-2200000D01*
X5519613Y-2248502D01*
G37*
G36*
X95519613Y-2248502D02*
G01*
X95816730Y-2307602D01*
X95924360Y-2352184D01*
X96326296Y-2518671D01*
X96478469Y-2620350D01*
X96784896Y-2825098D01*
X97174902Y-3215104D01*
X97358282Y-3489552D01*
X97481329Y-3673704D01*
X97549004Y-3837086D01*
X97692398Y-4183270D01*
X97711394Y-4278770D01*
X97800000Y-4724223D01*
X97800000Y-5275777D01*
X97746199Y-5546253D01*
X97692398Y-5816730D01*
X97616813Y-5999207D01*
X97481329Y-6326296D01*
X97481328Y-6326297D01*
X97174902Y-6784896D01*
X96784896Y-7174902D01*
X96572716Y-7316676D01*
X96326296Y-7481329D01*
X96039798Y-7600000D01*
X95816730Y-7692398D01*
X95546253Y-7746199D01*
X95275777Y-7800000D01*
X94724223Y-7800000D01*
X94453747Y-7746199D01*
X94183270Y-7692398D01*
X93960202Y-7600000D01*
X93673704Y-7481329D01*
X93427284Y-7316676D01*
X93215104Y-7174902D01*
X92825098Y-6784896D01*
X92518672Y-6326297D01*
X92518671Y-6326296D01*
X92383187Y-5999207D01*
X92307602Y-5816730D01*
X92253801Y-5546253D01*
X92200000Y-5275777D01*
X92200000Y-4724223D01*
X92288606Y-4278770D01*
X92307602Y-4183270D01*
X92450996Y-3837086D01*
X92518671Y-3673704D01*
X92641718Y-3489552D01*
X92825098Y-3215104D01*
X93215104Y-2825098D01*
X93521531Y-2620350D01*
X93673704Y-2518671D01*
X94075640Y-2352184D01*
X94183270Y-2307602D01*
X94480387Y-2248502D01*
X94724223Y-2200000D01*
X95275777Y-2200000D01*
X95519613Y-2248502D01*
G37*
G36*
X18493383Y-6049411D02*
G01*
X18561629Y-6077680D01*
X18623048Y-6118719D01*
X18675281Y-6170952D01*
X18716320Y-6232371D01*
X18744589Y-6300617D01*
X18759000Y-6373066D01*
X18759000Y-6446934D01*
X18744589Y-6519383D01*
X18716320Y-6587629D01*
X18675281Y-6649048D01*
X18623048Y-6701281D01*
X18561629Y-6742320D01*
X18561628Y-6742321D01*
X18561627Y-6742321D01*
X18493383Y-6770589D01*
X18420934Y-6785000D01*
X18347066Y-6785000D01*
X18274617Y-6770589D01*
X18206373Y-6742321D01*
X18206372Y-6742321D01*
X18206371Y-6742320D01*
X18144952Y-6701281D01*
X18092719Y-6649048D01*
X18051680Y-6587629D01*
X18023411Y-6519383D01*
X18009000Y-6446934D01*
X18009000Y-6373066D01*
X18023411Y-6300617D01*
X18051680Y-6232371D01*
X18092719Y-6170952D01*
X18144952Y-6118719D01*
X18206371Y-6077680D01*
X18274617Y-6049411D01*
X18347066Y-6035000D01*
X18420934Y-6035000D01*
X18493383Y-6049411D01*
G37*
G36*
X12713383Y-6049411D02*
G01*
X12781629Y-6077680D01*
X12843048Y-6118719D01*
X12895281Y-6170952D01*
X12936320Y-6232371D01*
X12964589Y-6300617D01*
X12979000Y-6373066D01*
X12979000Y-6446934D01*
X12964589Y-6519383D01*
X12936320Y-6587629D01*
X12895281Y-6649048D01*
X12843048Y-6701281D01*
X12781629Y-6742320D01*
X12781628Y-6742321D01*
X12781627Y-6742321D01*
X12713383Y-6770589D01*
X12640934Y-6785000D01*
X12567066Y-6785000D01*
X12494617Y-6770589D01*
X12426373Y-6742321D01*
X12426372Y-6742321D01*
X12426371Y-6742320D01*
X12364952Y-6701281D01*
X12312719Y-6649048D01*
X12271680Y-6587629D01*
X12243411Y-6519383D01*
X12229000Y-6446934D01*
X12229000Y-6373066D01*
X12243411Y-6300617D01*
X12271680Y-6232371D01*
X12312719Y-6170952D01*
X12364952Y-6118719D01*
X12426371Y-6077680D01*
X12494617Y-6049411D01*
X12567066Y-6035000D01*
X12640934Y-6035000D01*
X12713383Y-6049411D01*
G37*
G36*
X63350000Y-6020440D02*
G01*
X61750000Y-6020440D01*
X61750000Y-4920440D01*
X63350000Y-4920440D01*
X63350000Y-6020440D01*
G37*
G36*
X48250000Y-6020440D02*
G01*
X46650000Y-6020440D01*
X46650000Y-4920440D01*
X48250000Y-4920440D01*
X48250000Y-6020440D01*
G37*
G36*
X53350000Y-6020440D02*
G01*
X51750000Y-6020440D01*
X51750000Y-4920440D01*
X53350000Y-4920440D01*
X53350000Y-6020440D01*
G37*
G36*
X58250000Y-6020440D02*
G01*
X56650000Y-6020440D01*
X56650000Y-4920440D01*
X58250000Y-4920440D01*
X58250000Y-6020440D01*
G37*
G36*
X38250000Y-6020440D02*
G01*
X36650000Y-6020440D01*
X36650000Y-4920440D01*
X38250000Y-4920440D01*
X38250000Y-6020440D01*
G37*
G36*
X33350000Y-6020440D02*
G01*
X31750000Y-6020440D01*
X31750000Y-4920440D01*
X33350000Y-4920440D01*
X33350000Y-6020440D01*
G37*
G36*
X43350000Y-6020440D02*
G01*
X41750000Y-6020440D01*
X41750000Y-4920440D01*
X43350000Y-4920440D01*
X43350000Y-6020440D01*
G37*
G36*
X23350000Y-6020440D02*
G01*
X21750000Y-6020440D01*
X21750000Y-4920440D01*
X23350000Y-4920440D01*
X23350000Y-6020440D01*
G37*
G36*
X78250000Y-6020440D02*
G01*
X76650000Y-6020440D01*
X76650000Y-4920440D01*
X78250000Y-4920440D01*
X78250000Y-6020440D01*
G37*
G36*
X73350000Y-6020440D02*
G01*
X71750000Y-6020440D01*
X71750000Y-4920440D01*
X73350000Y-4920440D01*
X73350000Y-6020440D01*
G37*
G36*
X68250000Y-6020440D02*
G01*
X66650000Y-6020440D01*
X66650000Y-4920440D01*
X68250000Y-4920440D01*
X68250000Y-6020440D01*
G37*
G36*
X28250000Y-6020440D02*
G01*
X26650000Y-6020440D01*
X26650000Y-4920440D01*
X28250000Y-4920440D01*
X28250000Y-6020440D01*
G37*
G36*
X50478991Y-4174515D02*
G01*
X50512879Y-4184795D01*
X50544112Y-4201490D01*
X50571486Y-4223954D01*
X50593950Y-4251328D01*
X50610645Y-4282561D01*
X50620925Y-4316449D01*
X50625000Y-4357828D01*
X50625000Y-4958052D01*
X50620925Y-4999431D01*
X50610645Y-5033319D01*
X50593950Y-5064552D01*
X50571486Y-5091926D01*
X50544112Y-5114390D01*
X50512879Y-5131085D01*
X50478991Y-5141365D01*
X50437612Y-5145440D01*
X49762388Y-5145440D01*
X49721009Y-5141365D01*
X49687121Y-5131085D01*
X49655888Y-5114390D01*
X49628514Y-5091926D01*
X49606050Y-5064552D01*
X49589355Y-5033319D01*
X49579075Y-4999431D01*
X49575000Y-4958052D01*
X49575000Y-4357828D01*
X49579075Y-4316449D01*
X49589355Y-4282561D01*
X49606050Y-4251328D01*
X49628514Y-4223954D01*
X49655888Y-4201490D01*
X49687121Y-4184795D01*
X49721009Y-4174515D01*
X49762388Y-4170440D01*
X50437612Y-4170440D01*
X50478991Y-4174515D01*
G37*
G36*
X60478991Y-4174515D02*
G01*
X60512879Y-4184795D01*
X60544112Y-4201490D01*
X60571486Y-4223954D01*
X60593950Y-4251328D01*
X60610645Y-4282561D01*
X60620925Y-4316449D01*
X60625000Y-4357828D01*
X60625000Y-4958052D01*
X60620925Y-4999431D01*
X60610645Y-5033319D01*
X60593950Y-5064552D01*
X60571486Y-5091926D01*
X60544112Y-5114390D01*
X60512879Y-5131085D01*
X60478991Y-5141365D01*
X60437612Y-5145440D01*
X59762388Y-5145440D01*
X59721009Y-5141365D01*
X59687121Y-5131085D01*
X59655888Y-5114390D01*
X59628514Y-5091926D01*
X59606050Y-5064552D01*
X59589355Y-5033319D01*
X59579075Y-4999431D01*
X59575000Y-4958052D01*
X59575000Y-4357828D01*
X59579075Y-4316449D01*
X59589355Y-4282561D01*
X59606050Y-4251328D01*
X59628514Y-4223954D01*
X59655888Y-4201490D01*
X59687121Y-4184795D01*
X59721009Y-4174515D01*
X59762388Y-4170440D01*
X60437612Y-4170440D01*
X60478991Y-4174515D01*
G37*
G36*
X70478991Y-4174515D02*
G01*
X70512879Y-4184795D01*
X70544112Y-4201490D01*
X70571486Y-4223954D01*
X70593950Y-4251328D01*
X70610645Y-4282561D01*
X70620925Y-4316449D01*
X70625000Y-4357828D01*
X70625000Y-4958052D01*
X70620925Y-4999431D01*
X70610645Y-5033319D01*
X70593950Y-5064552D01*
X70571486Y-5091926D01*
X70544112Y-5114390D01*
X70512879Y-5131085D01*
X70478991Y-5141365D01*
X70437612Y-5145440D01*
X69762388Y-5145440D01*
X69721009Y-5141365D01*
X69687121Y-5131085D01*
X69655888Y-5114390D01*
X69628514Y-5091926D01*
X69606050Y-5064552D01*
X69589355Y-5033319D01*
X69579075Y-4999431D01*
X69575000Y-4958052D01*
X69575000Y-4357828D01*
X69579075Y-4316449D01*
X69589355Y-4282561D01*
X69606050Y-4251328D01*
X69628514Y-4223954D01*
X69655888Y-4201490D01*
X69687121Y-4184795D01*
X69721009Y-4174515D01*
X69762388Y-4170440D01*
X70437612Y-4170440D01*
X70478991Y-4174515D01*
G37*
G36*
X30478991Y-4174515D02*
G01*
X30512879Y-4184795D01*
X30544112Y-4201490D01*
X30571486Y-4223954D01*
X30593950Y-4251328D01*
X30610645Y-4282561D01*
X30620925Y-4316449D01*
X30625000Y-4357828D01*
X30625000Y-4958052D01*
X30620925Y-4999431D01*
X30610645Y-5033319D01*
X30593950Y-5064552D01*
X30571486Y-5091926D01*
X30544112Y-5114390D01*
X30512879Y-5131085D01*
X30478991Y-5141365D01*
X30437612Y-5145440D01*
X29762388Y-5145440D01*
X29721009Y-5141365D01*
X29687121Y-5131085D01*
X29655888Y-5114390D01*
X29628514Y-5091926D01*
X29606050Y-5064552D01*
X29589355Y-5033319D01*
X29579075Y-4999431D01*
X29575000Y-4958052D01*
X29575000Y-4357828D01*
X29579075Y-4316449D01*
X29589355Y-4282561D01*
X29606050Y-4251328D01*
X29628514Y-4223954D01*
X29655888Y-4201490D01*
X29687121Y-4184795D01*
X29721009Y-4174515D01*
X29762388Y-4170440D01*
X30437612Y-4170440D01*
X30478991Y-4174515D01*
G37*
G36*
X40478991Y-4174515D02*
G01*
X40512879Y-4184795D01*
X40544112Y-4201490D01*
X40571486Y-4223954D01*
X40593950Y-4251328D01*
X40610645Y-4282561D01*
X40620925Y-4316449D01*
X40625000Y-4357828D01*
X40625000Y-4958052D01*
X40620925Y-4999431D01*
X40610645Y-5033319D01*
X40593950Y-5064552D01*
X40571486Y-5091926D01*
X40544112Y-5114390D01*
X40512879Y-5131085D01*
X40478991Y-5141365D01*
X40437612Y-5145440D01*
X39762388Y-5145440D01*
X39721009Y-5141365D01*
X39687121Y-5131085D01*
X39655888Y-5114390D01*
X39628514Y-5091926D01*
X39606050Y-5064552D01*
X39589355Y-5033319D01*
X39579075Y-4999431D01*
X39575000Y-4958052D01*
X39575000Y-4357828D01*
X39579075Y-4316449D01*
X39589355Y-4282561D01*
X39606050Y-4251328D01*
X39628514Y-4223954D01*
X39655888Y-4201490D01*
X39687121Y-4184795D01*
X39721009Y-4174515D01*
X39762388Y-4170440D01*
X40437612Y-4170440D01*
X40478991Y-4174515D01*
G37*
G36*
X16747880Y-4667040D02*
G01*
X15997880Y-4667040D01*
X15997880Y-3507040D01*
X16747880Y-3507040D01*
X16747880Y-4667040D01*
G37*
G36*
X14847880Y-4667040D02*
G01*
X14097880Y-4667040D01*
X14097880Y-3507040D01*
X14847880Y-3507040D01*
X14847880Y-4667040D01*
G37*
G36*
X31640457Y-3200000D02*
G01*
X31685598Y-3208979D01*
X31700387Y-3215105D01*
X31803889Y-3257977D01*
X31839216Y-3281582D01*
X31910351Y-3329112D01*
X32000888Y-3419649D01*
X32004083Y-3424431D01*
X32072023Y-3526111D01*
X32121021Y-3644403D01*
X32146000Y-3769979D01*
X32146000Y-3898021D01*
X32121021Y-4023597D01*
X32072023Y-4141889D01*
X32072022Y-4141890D01*
X32000888Y-4248351D01*
X31910351Y-4338888D01*
X31868821Y-4366637D01*
X31803889Y-4410023D01*
X31734596Y-4438725D01*
X31685598Y-4459021D01*
X31643738Y-4467347D01*
X31560021Y-4484000D01*
X31431979Y-4484000D01*
X31348262Y-4467347D01*
X31306402Y-4459021D01*
X31257404Y-4438725D01*
X31188111Y-4410023D01*
X31123179Y-4366637D01*
X31081649Y-4338888D01*
X30991112Y-4248351D01*
X30919978Y-4141890D01*
X30919977Y-4141889D01*
X30870979Y-4023597D01*
X30846000Y-3898021D01*
X30846000Y-3769979D01*
X30870979Y-3644403D01*
X30919977Y-3526111D01*
X30987917Y-3424431D01*
X30991112Y-3419649D01*
X31081649Y-3329112D01*
X31152784Y-3281582D01*
X31188111Y-3257977D01*
X31291613Y-3215105D01*
X31306402Y-3208979D01*
X31351543Y-3200000D01*
X31431979Y-3184000D01*
X31560021Y-3184000D01*
X31640457Y-3200000D01*
G37*
G36*
X13089151Y-2884715D02*
G01*
X13123039Y-2894995D01*
X13154272Y-2911690D01*
X13181646Y-2934154D01*
X13204110Y-2961528D01*
X13220805Y-2992761D01*
X13231085Y-3026649D01*
X13235160Y-3068028D01*
X13235160Y-3668252D01*
X13231085Y-3709631D01*
X13220805Y-3743519D01*
X13204110Y-3774752D01*
X13181646Y-3802126D01*
X13154272Y-3824590D01*
X13123039Y-3841285D01*
X13089151Y-3851565D01*
X13047772Y-3855640D01*
X12372548Y-3855640D01*
X12331169Y-3851565D01*
X12297281Y-3841285D01*
X12266048Y-3824590D01*
X12238674Y-3802126D01*
X12216210Y-3774752D01*
X12199515Y-3743519D01*
X12189235Y-3709631D01*
X12185160Y-3668252D01*
X12185160Y-3068028D01*
X12189235Y-3026649D01*
X12199515Y-2992761D01*
X12216210Y-2961528D01*
X12238674Y-2934154D01*
X12266048Y-2911690D01*
X12297281Y-2894995D01*
X12331169Y-2884715D01*
X12372548Y-2880640D01*
X13047772Y-2880640D01*
X13089151Y-2884715D01*
G37*
G36*
X18539991Y-2844075D02*
G01*
X18573879Y-2854355D01*
X18605112Y-2871050D01*
X18632486Y-2893514D01*
X18654950Y-2920888D01*
X18671645Y-2952121D01*
X18681925Y-2986009D01*
X18686000Y-3027388D01*
X18686000Y-3627612D01*
X18681925Y-3668991D01*
X18671645Y-3702879D01*
X18654950Y-3734112D01*
X18632486Y-3761486D01*
X18605112Y-3783950D01*
X18573879Y-3800645D01*
X18539991Y-3810925D01*
X18498612Y-3815000D01*
X17823388Y-3815000D01*
X17782009Y-3810925D01*
X17748121Y-3800645D01*
X17716888Y-3783950D01*
X17689514Y-3761486D01*
X17667050Y-3734112D01*
X17650355Y-3702879D01*
X17640075Y-3668991D01*
X17636000Y-3627612D01*
X17636000Y-3027388D01*
X17640075Y-2986009D01*
X17650355Y-2952121D01*
X17667050Y-2920888D01*
X17689514Y-2893514D01*
X17716888Y-2871050D01*
X17748121Y-2854355D01*
X17782009Y-2844075D01*
X17823388Y-2840000D01*
X18498612Y-2840000D01*
X18539991Y-2844075D01*
G37*
G36*
X19921818Y-1917958D02*
G01*
X19998517Y-1941225D01*
X20025497Y-1949409D01*
X20121037Y-2000476D01*
X20121038Y-2000477D01*
X20121042Y-2000479D01*
X20204790Y-2069210D01*
X20204791Y-2069212D01*
X20204793Y-2069213D01*
X20273522Y-2152959D01*
X20324591Y-2248502D01*
X20324921Y-2249590D01*
X20356042Y-2352181D01*
X20364000Y-2432982D01*
X20364000Y-3087018D01*
X20356042Y-3167819D01*
X20332775Y-3244518D01*
X20324591Y-3271498D01*
X20273524Y-3367038D01*
X20273522Y-3367040D01*
X20273521Y-3367042D01*
X20204790Y-3450790D01*
X20121038Y-3519524D01*
X20025498Y-3570591D01*
X19998518Y-3578775D01*
X19921819Y-3602042D01*
X19814000Y-3612661D01*
X19706182Y-3602042D01*
X19629483Y-3578775D01*
X19602503Y-3570591D01*
X19506963Y-3519524D01*
X19423211Y-3450790D01*
X19354480Y-3367042D01*
X19334206Y-3329112D01*
X19303408Y-3271495D01*
X19276867Y-3184000D01*
X19271958Y-3167819D01*
X19264000Y-3087018D01*
X19264000Y-2432983D01*
X19271958Y-2352182D01*
X19303408Y-2248507D01*
X19303409Y-2248503D01*
X19354476Y-2152963D01*
X19354477Y-2152962D01*
X19354479Y-2152958D01*
X19423210Y-2069210D01*
X19423212Y-2069209D01*
X19423213Y-2069207D01*
X19506959Y-2000478D01*
X19602502Y-1949409D01*
X19629482Y-1941225D01*
X19706181Y-1917958D01*
X19814000Y-1907339D01*
X19921818Y-1917958D01*
G37*
G36*
X11281818Y-1917958D02*
G01*
X11358517Y-1941225D01*
X11385497Y-1949409D01*
X11481037Y-2000476D01*
X11481038Y-2000477D01*
X11481042Y-2000479D01*
X11564790Y-2069210D01*
X11564791Y-2069212D01*
X11564793Y-2069213D01*
X11633522Y-2152959D01*
X11684591Y-2248502D01*
X11684921Y-2249590D01*
X11716042Y-2352181D01*
X11724000Y-2432982D01*
X11724000Y-3087018D01*
X11716042Y-3167819D01*
X11692775Y-3244518D01*
X11684591Y-3271498D01*
X11633524Y-3367038D01*
X11633522Y-3367040D01*
X11633521Y-3367042D01*
X11564790Y-3450790D01*
X11481038Y-3519524D01*
X11385498Y-3570591D01*
X11358518Y-3578775D01*
X11281819Y-3602042D01*
X11174000Y-3612661D01*
X11066182Y-3602042D01*
X10989483Y-3578775D01*
X10962503Y-3570591D01*
X10866963Y-3519524D01*
X10783211Y-3450790D01*
X10714480Y-3367042D01*
X10694206Y-3329112D01*
X10663408Y-3271495D01*
X10636867Y-3184000D01*
X10631958Y-3167819D01*
X10624000Y-3087018D01*
X10624000Y-2432983D01*
X10631958Y-2352182D01*
X10663408Y-2248507D01*
X10663409Y-2248503D01*
X10714476Y-2152963D01*
X10714477Y-2152962D01*
X10714479Y-2152958D01*
X10783210Y-2069210D01*
X10783212Y-2069209D01*
X10783213Y-2069207D01*
X10866959Y-2000478D01*
X10962502Y-1949409D01*
X10989482Y-1941225D01*
X11066181Y-1917958D01*
X11174000Y-1907339D01*
X11281818Y-1917958D01*
G37*
G36*
X50478991Y-2599515D02*
G01*
X50512879Y-2609795D01*
X50544112Y-2626490D01*
X50571486Y-2648954D01*
X50593950Y-2676328D01*
X50610645Y-2707561D01*
X50620925Y-2741449D01*
X50625000Y-2782828D01*
X50625000Y-3383052D01*
X50620925Y-3424431D01*
X50610645Y-3458319D01*
X50593950Y-3489552D01*
X50571486Y-3516926D01*
X50544112Y-3539390D01*
X50512879Y-3556085D01*
X50478991Y-3566365D01*
X50437612Y-3570440D01*
X49762388Y-3570440D01*
X49721009Y-3566365D01*
X49687121Y-3556085D01*
X49655888Y-3539390D01*
X49628514Y-3516926D01*
X49606050Y-3489552D01*
X49589355Y-3458319D01*
X49579075Y-3424431D01*
X49575000Y-3383052D01*
X49575000Y-2782828D01*
X49579075Y-2741449D01*
X49589355Y-2707561D01*
X49606050Y-2676328D01*
X49628514Y-2648954D01*
X49655888Y-2626490D01*
X49687121Y-2609795D01*
X49721009Y-2599515D01*
X49762388Y-2595440D01*
X50437612Y-2595440D01*
X50478991Y-2599515D01*
G37*
G36*
X30478991Y-2599515D02*
G01*
X30512879Y-2609795D01*
X30544112Y-2626490D01*
X30571486Y-2648954D01*
X30593950Y-2676328D01*
X30610645Y-2707561D01*
X30620925Y-2741449D01*
X30625000Y-2782828D01*
X30625000Y-3383052D01*
X30620925Y-3424431D01*
X30610645Y-3458319D01*
X30593950Y-3489552D01*
X30571486Y-3516926D01*
X30544112Y-3539390D01*
X30512879Y-3556085D01*
X30478991Y-3566365D01*
X30437612Y-3570440D01*
X29762388Y-3570440D01*
X29721009Y-3566365D01*
X29687121Y-3556085D01*
X29655888Y-3539390D01*
X29628514Y-3516926D01*
X29606050Y-3489552D01*
X29589355Y-3458319D01*
X29579075Y-3424431D01*
X29575000Y-3383052D01*
X29575000Y-2782828D01*
X29579075Y-2741449D01*
X29589355Y-2707561D01*
X29606050Y-2676328D01*
X29628514Y-2648954D01*
X29655888Y-2626490D01*
X29687121Y-2609795D01*
X29721009Y-2599515D01*
X29762388Y-2595440D01*
X30437612Y-2595440D01*
X30478991Y-2599515D01*
G37*
G36*
X60478991Y-2599515D02*
G01*
X60512879Y-2609795D01*
X60544112Y-2626490D01*
X60571486Y-2648954D01*
X60593950Y-2676328D01*
X60610645Y-2707561D01*
X60620925Y-2741449D01*
X60625000Y-2782828D01*
X60625000Y-3383052D01*
X60620925Y-3424431D01*
X60610645Y-3458319D01*
X60593950Y-3489552D01*
X60571486Y-3516926D01*
X60544112Y-3539390D01*
X60512879Y-3556085D01*
X60478991Y-3566365D01*
X60437612Y-3570440D01*
X59762388Y-3570440D01*
X59721009Y-3566365D01*
X59687121Y-3556085D01*
X59655888Y-3539390D01*
X59628514Y-3516926D01*
X59606050Y-3489552D01*
X59589355Y-3458319D01*
X59579075Y-3424431D01*
X59575000Y-3383052D01*
X59575000Y-2782828D01*
X59579075Y-2741449D01*
X59589355Y-2707561D01*
X59606050Y-2676328D01*
X59628514Y-2648954D01*
X59655888Y-2626490D01*
X59687121Y-2609795D01*
X59721009Y-2599515D01*
X59762388Y-2595440D01*
X60437612Y-2595440D01*
X60478991Y-2599515D01*
G37*
G36*
X70478991Y-2599515D02*
G01*
X70512879Y-2609795D01*
X70544112Y-2626490D01*
X70571486Y-2648954D01*
X70593950Y-2676328D01*
X70610645Y-2707561D01*
X70620925Y-2741449D01*
X70625000Y-2782828D01*
X70625000Y-3383052D01*
X70620925Y-3424431D01*
X70610645Y-3458319D01*
X70593950Y-3489552D01*
X70571486Y-3516926D01*
X70544112Y-3539390D01*
X70512879Y-3556085D01*
X70478991Y-3566365D01*
X70437612Y-3570440D01*
X69762388Y-3570440D01*
X69721009Y-3566365D01*
X69687121Y-3556085D01*
X69655888Y-3539390D01*
X69628514Y-3516926D01*
X69606050Y-3489552D01*
X69589355Y-3458319D01*
X69579075Y-3424431D01*
X69575000Y-3383052D01*
X69575000Y-2782828D01*
X69579075Y-2741449D01*
X69589355Y-2707561D01*
X69606050Y-2676328D01*
X69628514Y-2648954D01*
X69655888Y-2626490D01*
X69687121Y-2609795D01*
X69721009Y-2599515D01*
X69762388Y-2595440D01*
X70437612Y-2595440D01*
X70478991Y-2599515D01*
G37*
G36*
X40478991Y-2599515D02*
G01*
X40512879Y-2609795D01*
X40544112Y-2626490D01*
X40571486Y-2648954D01*
X40593950Y-2676328D01*
X40610645Y-2707561D01*
X40620925Y-2741449D01*
X40625000Y-2782828D01*
X40625000Y-3383052D01*
X40620925Y-3424431D01*
X40610645Y-3458319D01*
X40593950Y-3489552D01*
X40571486Y-3516926D01*
X40544112Y-3539390D01*
X40512879Y-3556085D01*
X40478991Y-3566365D01*
X40437612Y-3570440D01*
X39762388Y-3570440D01*
X39721009Y-3566365D01*
X39687121Y-3556085D01*
X39655888Y-3539390D01*
X39628514Y-3516926D01*
X39606050Y-3489552D01*
X39589355Y-3458319D01*
X39579075Y-3424431D01*
X39575000Y-3383052D01*
X39575000Y-2782828D01*
X39579075Y-2741449D01*
X39589355Y-2707561D01*
X39606050Y-2676328D01*
X39628514Y-2648954D01*
X39655888Y-2626490D01*
X39687121Y-2609795D01*
X39721009Y-2599515D01*
X39762388Y-2595440D01*
X40437612Y-2595440D01*
X40478991Y-2599515D01*
G37*
G36*
X28250000Y-2820440D02*
G01*
X26650000Y-2820440D01*
X26650000Y-1720440D01*
X28250000Y-1720440D01*
X28250000Y-2820440D01*
G37*
G36*
X58250000Y-2820440D02*
G01*
X56650000Y-2820440D01*
X56650000Y-1720440D01*
X58250000Y-1720440D01*
X58250000Y-2820440D01*
G37*
G36*
X68250000Y-2820440D02*
G01*
X66650000Y-2820440D01*
X66650000Y-1720440D01*
X68250000Y-1720440D01*
X68250000Y-2820440D01*
G37*
G36*
X78250000Y-2820440D02*
G01*
X76650000Y-2820440D01*
X76650000Y-1720440D01*
X78250000Y-1720440D01*
X78250000Y-2820440D01*
G37*
G36*
X73350000Y-2820440D02*
G01*
X71750000Y-2820440D01*
X71750000Y-1720440D01*
X73350000Y-1720440D01*
X73350000Y-2820440D01*
G37*
G36*
X63350000Y-2820440D02*
G01*
X61750000Y-2820440D01*
X61750000Y-1720440D01*
X63350000Y-1720440D01*
X63350000Y-2820440D01*
G37*
G36*
X53350000Y-2820440D02*
G01*
X51750000Y-2820440D01*
X51750000Y-1720440D01*
X53350000Y-1720440D01*
X53350000Y-2820440D01*
G37*
G36*
X48250000Y-2820440D02*
G01*
X46650000Y-2820440D01*
X46650000Y-1720440D01*
X48250000Y-1720440D01*
X48250000Y-2820440D01*
G37*
G36*
X43350000Y-2820440D02*
G01*
X41750000Y-2820440D01*
X41750000Y-1720440D01*
X43350000Y-1720440D01*
X43350000Y-2820440D01*
G37*
G36*
X38250000Y-2820440D02*
G01*
X36650000Y-2820440D01*
X36650000Y-1720440D01*
X38250000Y-1720440D01*
X38250000Y-2820440D01*
G37*
G36*
X23350000Y-2820440D02*
G01*
X21750000Y-2820440D01*
X21750000Y-1720440D01*
X23350000Y-1720440D01*
X23350000Y-2820440D01*
G37*
G36*
X33350000Y-2820440D02*
G01*
X31750000Y-2820440D01*
X31750000Y-1720440D01*
X33350000Y-1720440D01*
X33350000Y-2820440D01*
G37*
G36*
X16747880Y-2467040D02*
G01*
X14097880Y-2467040D01*
X14097880Y-1307040D01*
X16747880Y-1307040D01*
X16747880Y-2467040D01*
G37*
G36*
X13089151Y-1309715D02*
G01*
X13123039Y-1319995D01*
X13154272Y-1336690D01*
X13181646Y-1359154D01*
X13204110Y-1386528D01*
X13220805Y-1417761D01*
X13231085Y-1451649D01*
X13235160Y-1493028D01*
X13235160Y-2093252D01*
X13231085Y-2134631D01*
X13220805Y-2168519D01*
X13204110Y-2199752D01*
X13181646Y-2227126D01*
X13154272Y-2249590D01*
X13123039Y-2266285D01*
X13089151Y-2276565D01*
X13047772Y-2280640D01*
X12372548Y-2280640D01*
X12331169Y-2276565D01*
X12297281Y-2266285D01*
X12266048Y-2249590D01*
X12238674Y-2227126D01*
X12216210Y-2199752D01*
X12199515Y-2168519D01*
X12189235Y-2134631D01*
X12185160Y-2093252D01*
X12185160Y-1493028D01*
X12189235Y-1451649D01*
X12199515Y-1417761D01*
X12216210Y-1386528D01*
X12238674Y-1359154D01*
X12266048Y-1336690D01*
X12297281Y-1319995D01*
X12331169Y-1309715D01*
X12372548Y-1305640D01*
X13047772Y-1305640D01*
X13089151Y-1309715D01*
G37*
G36*
X18539991Y-1269075D02*
G01*
X18573879Y-1279355D01*
X18605112Y-1296050D01*
X18632486Y-1318514D01*
X18654950Y-1345888D01*
X18671645Y-1377121D01*
X18681925Y-1411009D01*
X18686000Y-1452388D01*
X18686000Y-2052612D01*
X18681925Y-2093991D01*
X18671645Y-2127879D01*
X18654950Y-2159112D01*
X18632486Y-2186486D01*
X18605112Y-2208950D01*
X18573879Y-2225645D01*
X18539991Y-2235925D01*
X18498612Y-2240000D01*
X17823388Y-2240000D01*
X17782009Y-2235925D01*
X17748121Y-2225645D01*
X17716888Y-2208950D01*
X17689514Y-2186486D01*
X17667050Y-2159112D01*
X17650355Y-2127879D01*
X17640075Y-2093991D01*
X17636000Y-2052612D01*
X17636000Y-1452388D01*
X17640075Y-1411009D01*
X17650355Y-1377121D01*
X17667050Y-1345888D01*
X17689514Y-1318514D01*
X17716888Y-1296050D01*
X17748121Y-1279355D01*
X17782009Y-1269075D01*
X17823388Y-1265000D01*
X18498612Y-1265000D01*
X18539991Y-1269075D01*
G37*
M02*
