M48
; DRILL file {KiCad (6.0.4)} date Sun 24 Apr 2022 04:36:18 AM CEST
; FORMAT={-:-/ absolute / inch / decimal}
; #@! TF.CreationDate,2022-04-24T04:36:18+02:00
; #@! TF.GenerationSoftware,Kicad,Pcbnew,(6.0.4)
; #@! TF.FileFunction,Plated,1,4,PTH
FMAT,2
INCH
; #@! TA.AperFunction,Plated,PTH,ViaDrill
T1C0.0079
; #@! TA.AperFunction,Plated,PTH,ViaDrill
T2C0.0118
; #@! TA.AperFunction,Plated,PTH,ViaDrill
T3C0.0236
; #@! TA.AperFunction,Plated,PTH,ComponentDrill
T4C0.0236
; #@! TA.AperFunction,Plated,PTH,ComponentDrill
T5C0.0394
; #@! TA.AperFunction,Plated,PTH,ComponentDrill
T6C0.0400
; #@! TA.AperFunction,Plated,PTH,ViaDrill
T7C0.0984
%
G90
G05
T1
X-2.1689Y0.0202
X-2.12Y-0.035
X-2.09Y-0.075
X-2.0689Y0.3358
X-2.0669Y1.6248
X-2.0669Y0.374
X-2.0669Y0.2953
X-2.0669Y0.2559
X-2.0669Y0.2165
X-2.05Y0.06
X-2.045Y-0.12
X-2.0236Y1.6681
X-2.0236Y1.5815
X-2.015Y-0.005
X-1.9876Y0.0525
X-1.9803Y1.6248
X-1.9452Y-0.0546
X-1.93Y1.65
X-1.859Y0.4661
X-1.8583Y0.4933
X-1.7724Y0.4673
X-1.7707Y0.4943
X-1.77Y1.64
X-1.696Y1.0623
X-1.6785Y0.4558
X-1.6527Y1.1056
X-1.6527Y1.019
X-1.6425Y0.4621
X-1.6094Y1.0623
X-1.602Y0.4613
X-1.5535Y1.3906
X-1.5102Y1.4339
X-1.5102Y1.3472
X-1.4669Y1.3906
X-1.45Y1.705
X-1.4004Y1.702
X-1.3571Y1.7453
X-1.3571Y1.6587
X-1.3138Y1.702
X-1.3031Y0.0533
X-1.27Y-0.76
X-1.2189Y0.0272
X-1.1427Y0.0858
X-1.1285Y0.4698
X-1.1244Y-0.1701
X-1.1185Y0.3801
X-0.9652Y-0.0358
X-0.935Y-1.095
X-0.92Y-1.665
X-0.9114Y0.0045
X-0.9051Y-0.031
X-0.8853Y-1.5991
X-0.8614Y0.6701
X-0.855Y-0.695
X-0.855Y-0.735
X-0.835Y-0.655
X-0.825Y-1.605
X-0.825Y-1.67
X-0.7729Y-1.5345
X-0.7713Y-1.2263
X-0.7465Y1.0587
X-0.7384Y0.0035
X-0.725Y-0.655
X-0.7039Y0.6701
X-0.7031Y1.102
X-0.7031Y1.0154
X-0.695Y-0.785
X-0.689Y-0.4724
X-0.689Y-0.5118
X-0.689Y-0.5512
X-0.689Y-0.5906
X-0.689Y-0.6299
X-0.6598Y1.0587
X-0.655Y-0.83
X-0.6547Y-1.4681
X-0.6489Y0.0119
X-0.64Y-0.71
X-0.625Y-0.675
X-0.624Y0.0376
X-0.62Y-1.19
X-0.6098Y-1.3687
X-0.5965Y0.0425
X-0.5732Y-0.3177
X-0.56Y-0.68
X-0.56Y-0.71
X-0.5512Y-0.4724
X-0.5512Y-0.5118
X-0.5512Y-0.5512
X-0.5512Y-0.5906
X-0.5512Y-0.6299
X-0.5464Y0.6701
X-0.5287Y-0.6811
X-0.525Y-0.785
X-0.525Y-0.99
X-0.5181Y-0.2466
X-0.515Y-0.475
X-0.5016Y-0.6827
X-0.4909Y-0.3157
X-0.49Y-1.6
X-0.48Y-0.82
X-0.48Y-1.01
X-0.4448Y0.0048
X-0.4435Y0.037
X-0.44Y-0.625
X-0.44Y-0.87
X-0.426Y-0.9409
X-0.385Y-1.385
X-0.3821Y-0.8673
X-0.376Y-0.9406
X-0.3715Y-0.7721
X-0.3662Y-0.7971
X-0.36Y-0.45
X-0.36Y-1.54
X-0.35Y-0.9406
X-0.3473Y-0.8994
X-0.3461Y-0.7744
X-0.3253Y-0.4177
X-0.3212Y-0.9895
X-0.3006Y0.0363
X-0.2996Y-0.487
X-0.2921Y-1.0713
X-0.285Y-0.53
X-0.28Y-1.465
X-0.273Y0.0613
X-0.2652Y-0.2977
X-0.254Y-0.9617
X-0.2451Y0.3799
X-0.2323Y0.5238
X-0.2267Y-0.4304
X-0.215Y0.32
X-0.205Y-0.7
X-0.192Y-0.6075
X-0.186Y-1.105
X-0.1849Y0.4282
X-0.18Y-0.75
X-0.1687Y-0.5625
X-0.1544Y0.1944
X-0.1441Y-0.5693
X-0.1387Y-1.075
X-0.1313Y-0.0295
X-0.1246Y-0.7443
X-0.11Y-0.705
X-0.109Y-0.4177
X-0.0959Y-0.5822
X-0.0927Y-0.7602
X-0.09Y-0.92
X-0.09Y-0.96
X-0.09Y-1.16
X-0.09Y-1.39
X-0.0859Y-1.02
X-0.0746Y0.6516
X-0.07Y-1.2667
X-0.065Y-0.635
X-0.0551Y-0.5825
X-0.0521Y0.1444
X-0.05Y-0.745
X-0.0489Y0.6895
X-0.035Y-1.3492
X-0.0287Y-0.5858
X-0.0268Y-0.6213
X-0.0266Y0.6996
X-0.0224Y-1.0928
X-0.0199Y-0.6461
X-0.0159Y-0.9163
X-0.0152Y-0.6771
X-0.0139Y-0.72
X-0.0122Y-0.7665
X-0.01Y-0.43
X-0.0057Y-0.5655
X0.0069Y-0.936
X0.0087Y-1.0945
X0.0198Y-0.0932
X0.022Y-0.9806
X0.0343Y0.1681
X0.035Y-1.3492
X0.0376Y0.3994
X0.0457Y-0.8886
X0.0472Y-0.8151
X0.0521Y0.888
X0.0638Y-0.728
X0.065Y-1.28
X0.065Y-0.652
X0.0667Y0.362
X0.07Y-1.1
X0.0717Y-0.4689
X0.0748Y-0.5189
X0.078Y-0.7492
X0.0795Y-0.4937
X0.0831Y-0.6048
X0.0876Y0.6114
X0.1Y-0.2799
X0.1004Y-0.0996
X0.103Y0.1961
X0.103Y0.1213
X0.1091Y-0.9906
X0.1117Y0.5873
X0.1122Y0.6262
X0.1138Y-0.6004
X0.1206Y-0.3083
X0.1224Y-0.576
X0.125Y-0.55
X0.14Y-1.07
X0.1448Y-0.3876
X0.1455Y-0.1
X0.1654Y0.81
X0.1663Y-0.9301
X0.1747Y-0.4147
X0.1758Y-0.8556
X0.2037Y0.7187
X0.2288Y-0.9038
X0.238Y-0.9909
X0.24Y-1.045
X0.245Y-0.94
X0.26Y-1.09
X0.2811Y-0.874
X0.285Y-1.01
X0.2992Y-0.7961
X0.3085Y-0.861
X0.325Y-1.125
X0.3429Y-0.99
X0.385Y-0.785
X0.386Y-0.8371
X0.3883Y0.5971
X0.4094Y0.3606
X0.4268Y0.3353
X0.43Y-1.1
X0.4427Y0.5565
X0.45Y-0.185
X0.4501Y0.4258
X0.4513Y-0.1432
X0.4723Y0.4396
X0.4773Y0.5565
X0.499Y-0.2783
X0.5059Y0.322
X0.5149Y-0.8366
X0.5366Y0.5067
X0.5457Y0.5709
X0.56Y0.805
X0.5732Y0.5783
X0.5965Y0.5676
X0.5974Y-0.3276
X0.6146Y0.8096
X0.6171Y0.5441
X0.626Y-0.2626
X0.64Y-0.055
X0.645Y-0.13
X0.655Y-1.2164
X0.66Y0.45
X0.6602Y-0.6632
X0.6693Y-0.1657
X0.6724Y0.5535
X0.6742Y-0.5313
X0.6837Y0.48
X0.685Y0.81
X0.687Y-0.6241
X0.6909Y-1.2164
X0.6976Y0.5266
X0.7024Y-0.54
X0.7047Y-0.4545
X0.715Y-0.13
X0.7217Y-0.5724
X0.7283Y-0.4752
X0.74Y-0.25
X0.7409Y-0.0441
X0.7541Y-0.3734
X0.7622Y0.511
X0.7661Y0.1808
X0.7736Y-0.0894
X0.7819Y-0.0472
X0.8011Y0.1336
X0.8081Y-0.3571
X0.8217Y0.1501
X0.83Y-1.275
X0.8396Y-0.2537
X0.845Y-1.125
X0.848Y-0.1862
X0.8494Y-0.0491
X0.854Y-0.0831
X0.8657Y-0.302
X0.8681Y0.1417
X0.8749Y-0.2239
X0.8792Y0.1739
X0.8797Y-0.0508
X0.885Y-1.105
X0.94Y-0.985
X0.97Y-1.115
X0.9799Y-0.2891
X0.983Y-0.2069
X0.9843Y-0.2362
X1.0055Y0.3079
X1.0213Y-0.1985
X1.0309Y-0.2833
X1.05Y-1.32
X1.061Y-0.3697
X1.0854Y-0.2144
X1.09Y-0.985
X1.0935Y-0.3157
X1.0945Y-0.0396
X1.1038Y0.063
X1.1161Y-0.1988
X1.1281Y-0.2821
X1.13Y-0.35
X1.1346Y0.8764
X1.1568Y-0.6649
X1.1634Y0.8646
X1.1675Y0.8082
X1.1689Y0.778
X1.17Y0.11
X1.1736Y0.8386
X1.2143Y-0.333
X1.2145Y0.0569
X1.215Y0.1092
X1.22Y-0.0432
X1.2321Y-0.4053
X1.2333Y-0.4309
X1.2382Y-0.3423
X1.2453Y0.2173
X1.2584Y-0.3584
X1.2626Y-0.1709
X1.2795Y0.2244
X1.2951Y-0.2758
X1.2973Y-0.196
X1.3091Y0.2244
X1.3281Y-0.2756
X1.3323Y0.6313
X1.3386Y0.2244
X1.3567Y-0.3555
X1.3724Y-0.2689
X1.3987Y0.2008
X1.405Y-1.32
X1.4132Y0.311
X1.4173Y-0.5819
X1.4378Y0.2929
X1.4589Y0.3216
X1.475Y-0.455
X1.4768Y-0.1819
X1.4918Y0.3528
X1.4979Y-0.1663
X1.5087Y-0.2114
X1.5226Y-0.2363
X1.5486Y-0.2081
X1.5801Y-0.1102
X1.5806Y-0.0781
X1.5811Y-0.3283
X1.6258Y-0.2541
X1.6319Y0.074
X1.6348Y-0.072
X1.6476Y-0.1543
X1.6526Y-0.1994
X1.6575Y0.074
X1.6583Y-0.122
X1.6634Y-0.0165
X1.6677Y-0.0846
X1.6883Y0.3283
X1.752Y0.0101
X1.7894Y0.335
X1.81Y-0.1
X1.837Y0.0681
X1.8463Y-0.2154
X1.8642Y0.1252
X1.8642Y0.0661
X1.91Y-0.28
X2.0295Y-0.0726
X2.1455Y-0.11
X2.39Y-1.31
T2
X-2.4921Y0.0827
X-2.3805Y0.2122
X-2.37Y0.34
X-1.9988Y0.4322
X-1.9988Y0.2629
X-1.8157Y0.4777
X-1.7725Y0.0625
X-1.77Y-0.06
X-1.745Y-0.245
X-1.7291Y0.5109
X-1.7104Y0.7542
X-1.7Y0.06
X-1.7Y-0.06
X-1.4872Y-0.2776
X-1.4633Y0.4331
X-1.4633Y0.2559
X-1.4163Y0.5681
X-1.415Y0.835
X-1.3898Y0.6122
X-1.3465Y-1.0118
X-1.305Y-1.18
X-1.275Y-1.67
X-1.247Y-0.3976
X-1.2362Y0.4717
X-1.185Y-0.11
X-1.1535Y-0.4882
X-1.1326Y0.6512
X-1.1181Y0.6144
X-1.0965Y-0.4341
X-1.0896Y-0.5807
X-0.9567Y-1.7943
X-0.8799Y-0.6398
X-0.845Y-0.89
X-0.8396Y-0.7766
X-0.7713Y-1.3313
X-0.7014Y0.4116
X-0.7014Y0.3748
X-0.7014Y0.338
X-0.6645Y0.4116
X-0.6645Y0.3748
X-0.6645Y0.338
X-0.6277Y0.4116
X-0.6277Y0.3748
X-0.6277Y0.338
X-0.6093Y-1.2539
X-0.5291Y-1.6925
X-0.5187Y-1.3061
X-0.4724Y0.5002
X-0.4463Y-0.0282
X-0.445Y-1.035
X-0.445Y-1.07
X-0.42Y-0.3512
X-0.3868Y-1.0984
X-0.2507Y0.6679
X-0.2047Y-0.0759
X-0.1701Y-1.5449
X-0.1701Y-1.6732
X-0.1701Y-1.7094
X-0.0984Y0.8907
X-0.0975Y0.6329
X-0.0807Y-1.4665
X0.0354Y0.5069
X0.0488Y0.7669
X0.05Y0.82
X0.1Y-1.16
X0.1701Y-1.5449
X0.1701Y-1.6732
X0.1701Y-1.7094
X0.205Y-1.31
X0.2884Y-1.3957
X0.3041Y-1.2441
X0.38Y-1.625
X0.38Y-1.75
X0.4045Y-0.6732
X0.41Y-1.625
X0.41Y-1.75
X0.4252Y0.2933
X0.4343Y0.8243
X0.44Y-1.625
X0.44Y-1.75
X0.4551Y0.0465
X0.4646Y0.2254
X0.5148Y-0.5433
X0.5315Y-1.3947
X0.5581Y-1.6063
X0.5659Y0.3159
X0.59Y-0.715
X0.6407Y0.1535
X0.6427Y0.4006
X0.665Y-0.98
X0.7146Y-0.0856
X0.7215Y-0.8159
X0.725Y-0.88
X0.7421Y0.7057
X0.751Y0.2215
X0.7953Y-0.8839
X0.8012Y0.626
X0.81Y0.435
X0.8337Y0.5059
X0.84Y0.27
X0.8541Y0.199
X0.8636Y-0.3334
X0.8665Y-0.3862
X0.8761Y-0.44
X0.8808Y-0.1258
X0.8819Y-0.2786
X0.8976Y-0.5719
X0.9803Y-0.8159
X1.0Y0.4227
X1.0074Y-0.7226
X1.0325Y-1.3957
X1.038Y0.4072
X1.0433Y-0.1181
X1.0595Y-0.5805
X1.0744Y-0.1181
X1.0941Y-0.011
X1.1053Y-1.123
X1.133Y-1.24
X1.19Y-1.04
X1.2011Y0.5091
X1.2088Y-0.5051
X1.27Y-0.51
X1.325Y-0.495
X1.3524Y-0.8159
X1.3697Y0.4946
X1.3867Y0.0068
X1.4104Y0.8356
X1.4104Y0.7057
X1.4833Y0.5185
X1.5315Y-1.5915
X1.5445Y0.1827
X1.5886Y-0.7077
X1.6024Y0.0701
X1.6073Y-1.6959
X1.6299Y0.3337
X1.6642Y0.1852
X1.6643Y0.0278
X1.7648Y0.186
X1.8445Y0.0187
X1.8666Y0.2225
X1.8666Y0.1749
X1.9508Y-0.3533
X1.9545Y0.2225
X1.9545Y0.1749
X2.0669Y-0.1368
X2.1122Y-0.2008
T3
X-0.7343Y-1.5689
X-0.7335Y-1.4327
X-0.4455Y0.6201
X-0.0965Y-1.5157
X0.0965Y-1.5157
X0.31Y0.75
X1.18Y-0.77
T5
X2.3604Y0.2072
X2.3743Y0.1082
X2.3883Y0.0091
X2.4022Y-0.0899
X2.4161Y-0.1889
X2.43Y-0.2879
X2.4595Y0.2211
X2.4734Y0.1221
X2.4873Y0.0231
X2.5012Y-0.076
X2.5151Y-0.175
X2.529Y-0.274
T6
X1.7624Y1.3192
X1.7624Y1.2192
X1.8624Y1.3192
X1.8624Y1.2192
X1.9624Y1.3192
X1.9624Y1.2192
T7
X-2.5394Y0.4331
X2.4803Y0.4331
T4
G00X-0.1701Y-1.6307
M15
G01X-0.1701Y-1.5874
M16
G05
G00X-0.1701Y-1.7854
M15
G01X-0.1701Y-1.7618
M16
G05
G00X0.1701Y-1.6307
M15
G01X0.1701Y-1.5874
M16
G05
G00X0.1701Y-1.7854
M15
G01X0.1701Y-1.7618
M16
G05
T0
M30
