G04 #@! TF.GenerationSoftware,KiCad,Pcbnew,5.1.10*
G04 #@! TF.CreationDate,2021-12-24T17:35:42+01:00*
G04 #@! TF.ProjectId,mch2021,6d636832-3032-4312-9e6b-696361645f70,3*
G04 #@! TF.SameCoordinates,Original*
G04 #@! TF.FileFunction,Copper,L2,Inr*
G04 #@! TF.FilePolarity,Positive*
%FSLAX46Y46*%
G04 Gerber Fmt 4.6, Leading zero omitted, Abs format (unit mm)*
G04 Created by KiCad (PCBNEW 5.1.10) date 2021-12-24 17:35:42*
%MOMM*%
%LPD*%
G01*
G04 APERTURE LIST*
G04 #@! TA.AperFunction,ComponentPad*
%ADD10C,0.100000*%
G04 #@! TD*
G04 #@! TA.AperFunction,ComponentPad*
%ADD11O,1.000000X1.600000*%
G04 #@! TD*
G04 #@! TA.AperFunction,ComponentPad*
%ADD12O,1.000000X2.100000*%
G04 #@! TD*
G04 #@! TA.AperFunction,ComponentPad*
%ADD13C,1.727200*%
G04 #@! TD*
G04 #@! TA.AperFunction,ComponentPad*
%ADD14O,1.727200X1.727200*%
G04 #@! TD*
G04 #@! TA.AperFunction,ComponentPad*
%ADD15R,1.727200X1.727200*%
G04 #@! TD*
G04 #@! TA.AperFunction,ViaPad*
%ADD16C,0.450000*%
G04 #@! TD*
G04 #@! TA.AperFunction,ViaPad*
%ADD17C,0.500000*%
G04 #@! TD*
G04 #@! TA.AperFunction,ViaPad*
%ADD18C,0.600000*%
G04 #@! TD*
G04 #@! TA.AperFunction,ViaPad*
%ADD19C,0.900000*%
G04 #@! TD*
G04 #@! TA.AperFunction,Conductor*
%ADD20C,0.400000*%
G04 #@! TD*
G04 #@! TA.AperFunction,Conductor*
%ADD21C,0.200000*%
G04 #@! TD*
G04 #@! TA.AperFunction,Conductor*
%ADD22C,0.800000*%
G04 #@! TD*
G04 #@! TA.AperFunction,Conductor*
%ADD23C,0.600000*%
G04 #@! TD*
G04 APERTURE END LIST*
G04 #@! TA.AperFunction,ComponentPad*
G36*
G01*
X63314507Y-7084608D02*
X63314507Y-7084608D01*
G75*
G02*
X62591076Y-8044633I-841728J-118297D01*
G01*
X62591076Y-8044633D01*
G75*
G02*
X61631051Y-7321202I-118297J841728D01*
G01*
X61631051Y-7321202D01*
G75*
G02*
X62354482Y-6361177I841728J118297D01*
G01*
X62354482Y-6361177D01*
G75*
G02*
X63314507Y-7084608I118297J-841728D01*
G01*
G37*
G04 #@! TD.AperFunction*
G04 #@! TA.AperFunction,ComponentPad*
G36*
G01*
X60799226Y-7438107D02*
X60799226Y-7438107D01*
G75*
G02*
X60075795Y-8398132I-841728J-118297D01*
G01*
X60075795Y-8398132D01*
G75*
G02*
X59115770Y-7674701I-118297J841728D01*
G01*
X59115770Y-7674701D01*
G75*
G02*
X59839201Y-6714676I841728J118297D01*
G01*
X59839201Y-6714676D01*
G75*
G02*
X60799226Y-7438107I118297J-841728D01*
G01*
G37*
G04 #@! TD.AperFunction*
G04 #@! TA.AperFunction,ComponentPad*
G36*
G01*
X62961008Y-4569327D02*
X62961008Y-4569327D01*
G75*
G02*
X62237577Y-5529352I-841728J-118297D01*
G01*
X62237577Y-5529352D01*
G75*
G02*
X61277552Y-4805921I-118297J841728D01*
G01*
X61277552Y-4805921D01*
G75*
G02*
X62000983Y-3845896I841728J118297D01*
G01*
X62000983Y-3845896D01*
G75*
G02*
X62961008Y-4569327I118297J-841728D01*
G01*
G37*
G04 #@! TD.AperFunction*
G04 #@! TA.AperFunction,ComponentPad*
G36*
G01*
X60445727Y-4922827D02*
X60445727Y-4922827D01*
G75*
G02*
X59722296Y-5882852I-841728J-118297D01*
G01*
X59722296Y-5882852D01*
G75*
G02*
X58762271Y-5159421I-118297J841728D01*
G01*
X58762271Y-5159421D01*
G75*
G02*
X59485702Y-4199396I841728J118297D01*
G01*
X59485702Y-4199396D01*
G75*
G02*
X60445727Y-4922827I118297J-841728D01*
G01*
G37*
G04 #@! TD.AperFunction*
G04 #@! TA.AperFunction,ComponentPad*
G36*
G01*
X62607508Y-2054046D02*
X62607508Y-2054046D01*
G75*
G02*
X61884077Y-3014071I-841728J-118297D01*
G01*
X61884077Y-3014071D01*
G75*
G02*
X60924052Y-2290640I-118297J841728D01*
G01*
X60924052Y-2290640D01*
G75*
G02*
X61647483Y-1330615I841728J118297D01*
G01*
X61647483Y-1330615D01*
G75*
G02*
X62607508Y-2054046I118297J-841728D01*
G01*
G37*
G04 #@! TD.AperFunction*
G04 #@! TA.AperFunction,ComponentPad*
G36*
G01*
X60092227Y-2407546D02*
X60092227Y-2407546D01*
G75*
G02*
X59368796Y-3367571I-841728J-118297D01*
G01*
X59368796Y-3367571D01*
G75*
G02*
X58408771Y-2644140I-118297J841728D01*
G01*
X58408771Y-2644140D01*
G75*
G02*
X59132202Y-1684115I841728J118297D01*
G01*
X59132202Y-1684115D01*
G75*
G02*
X60092227Y-2407546I118297J-841728D01*
G01*
G37*
G04 #@! TD.AperFunction*
G04 #@! TA.AperFunction,ComponentPad*
G36*
G01*
X62254008Y461235D02*
X62254008Y461235D01*
G75*
G02*
X61530577Y-498790I-841728J-118297D01*
G01*
X61530577Y-498790D01*
G75*
G02*
X60570552Y224641I-118297J841728D01*
G01*
X60570552Y224641D01*
G75*
G02*
X61293983Y1184666I841728J118297D01*
G01*
X61293983Y1184666D01*
G75*
G02*
X62254008Y461235I118297J-841728D01*
G01*
G37*
G04 #@! TD.AperFunction*
G04 #@! TA.AperFunction,ComponentPad*
G36*
G01*
X59738727Y107735D02*
X59738727Y107735D01*
G75*
G02*
X59015296Y-852290I-841728J-118297D01*
G01*
X59015296Y-852290D01*
G75*
G02*
X58055271Y-128859I-118297J841728D01*
G01*
X58055271Y-128859D01*
G75*
G02*
X58778702Y831166I841728J118297D01*
G01*
X58778702Y831166D01*
G75*
G02*
X59738727Y107735I118297J-841728D01*
G01*
G37*
G04 #@! TD.AperFunction*
G04 #@! TA.AperFunction,ComponentPad*
G36*
G01*
X61900509Y2976516D02*
X61900509Y2976516D01*
G75*
G02*
X61177078Y2016491I-841728J-118297D01*
G01*
X61177078Y2016491D01*
G75*
G02*
X60217053Y2739922I-118297J841728D01*
G01*
X60217053Y2739922D01*
G75*
G02*
X60940484Y3699947I841728J118297D01*
G01*
X60940484Y3699947D01*
G75*
G02*
X61900509Y2976516I118297J-841728D01*
G01*
G37*
G04 #@! TD.AperFunction*
G04 #@! TA.AperFunction,ComponentPad*
G36*
G01*
X59385228Y2623016D02*
X59385228Y2623016D01*
G75*
G02*
X58661797Y1662991I-841728J-118297D01*
G01*
X58661797Y1662991D01*
G75*
G02*
X57701772Y2386422I-118297J841728D01*
G01*
X57701772Y2386422D01*
G75*
G02*
X58425203Y3346447I841728J118297D01*
G01*
X58425203Y3346447D01*
G75*
G02*
X59385228Y2623016I118297J-841728D01*
G01*
G37*
G04 #@! TD.AperFunction*
G04 #@! TA.AperFunction,ComponentPad*
G36*
G01*
X61547009Y5491797D02*
X61547009Y5491797D01*
G75*
G02*
X60823578Y4531772I-841728J-118297D01*
G01*
X60823578Y4531772D01*
G75*
G02*
X59863553Y5255203I-118297J841728D01*
G01*
X59863553Y5255203D01*
G75*
G02*
X60586984Y6215228I841728J118297D01*
G01*
X60586984Y6215228D01*
G75*
G02*
X61547009Y5491797I118297J-841728D01*
G01*
G37*
G04 #@! TD.AperFunction*
G04 #@! TA.AperFunction,ComponentPad*
D10*
G36*
X58913431Y5980025D02*
G01*
X59150025Y4296569D01*
X57466569Y4059975D01*
X57229975Y5743431D01*
X58913431Y5980025D01*
G37*
G04 #@! TD.AperFunction*
D11*
X-4320000Y-44050000D03*
X4320000Y-44050000D03*
D12*
X4320000Y-39870000D03*
X-4320000Y-39870000D03*
D13*
X48772120Y32471680D03*
X48772120Y29931680D03*
D14*
X46232120Y32471680D03*
X46232120Y29931680D03*
D15*
X43692120Y32471680D03*
D13*
X43692120Y29931680D03*
D16*
X-42550000Y12230000D03*
X4201160Y20574000D03*
X-46370240Y33627060D03*
X-25750520Y33931860D03*
X24089420Y-42153700D03*
D17*
X-8063180Y-13272540D03*
X-10910520Y-13536700D03*
X-7435800Y-16645660D03*
X34789160Y12561800D03*
X37674600Y13168860D03*
X-22597060Y-17707380D03*
X-23922940Y-25855700D03*
X-25449480Y-28299180D03*
X-30351680Y-19856220D03*
X-31873140Y-21194800D03*
X-32045860Y-17448300D03*
X-32134760Y-13602740D03*
D16*
X-2590740Y-16832440D03*
X-1429960Y-17993220D03*
X-1998920Y-16278720D03*
X-3418780Y-15811360D03*
X-3108900Y-16306660D03*
X-2524700Y-16286340D03*
X-2834580Y-15806280D03*
X-2273240Y-15818980D03*
X55000000Y-21000000D03*
X7600000Y-20220000D03*
X17125000Y-13495000D03*
X-16133380Y25624720D03*
D18*
X-46118480Y12134800D03*
X-17814720Y9520000D03*
X-16878920Y9520000D03*
X-50768480Y10979000D03*
X11558700Y1181940D03*
X-17814720Y8584200D03*
X-15943120Y10455800D03*
X-37168420Y6500000D03*
X25400000Y10736580D03*
X-17814720Y10455800D03*
X-16878920Y10455800D03*
X-16878920Y8584200D03*
X-15943120Y9520000D03*
X-15943120Y8584200D03*
D16*
X28036520Y1600200D03*
X25000000Y-6000000D03*
D18*
X42271400Y4704080D03*
X14360660Y-28742440D03*
D19*
X-4080000Y-38260000D03*
D16*
X27800000Y-1005010D03*
X32895169Y-7005010D03*
X9850000Y-24690000D03*
D18*
X5233445Y14530010D03*
D16*
X9803939Y-21262184D03*
D18*
X35223146Y173636D03*
X30506843Y12930010D03*
D16*
X-19360000Y-29030000D03*
X-10460000Y-28110000D03*
X-10160000Y-45190000D03*
D19*
X-14630000Y-36390000D03*
X-26000000Y-35000000D03*
X-26000000Y-40500000D03*
D16*
X-5758180Y-10932160D03*
X-2768144Y-10609899D03*
X-13271440Y-26243140D03*
X-10910000Y-23980000D03*
X-14661779Y-26327590D03*
X-55089540Y514280D03*
X-50484520Y1334700D03*
X-11487660Y-34764990D03*
X8780000Y-29420000D03*
X18450000Y-31060000D03*
X10460000Y-24730000D03*
D19*
X-14650000Y-39850000D03*
D18*
X-50768480Y6677790D03*
D16*
X-28560000Y-4320000D03*
D18*
X-37168420Y11000000D03*
X-11335211Y-715654D03*
D16*
X-30960000Y690000D03*
X13077521Y-21250000D03*
X14944129Y-18639129D03*
D18*
X21694742Y5053538D03*
D16*
X27569960Y-5446701D03*
D17*
X-6366720Y16964980D03*
D16*
X-33359840Y42460020D03*
X-39341360Y25553600D03*
X-49407560Y-1385640D03*
X-4290000Y-36280000D03*
X42360000Y-2150000D03*
X34860000Y-6830000D03*
X34460000Y-9030000D03*
X36000000Y-14780000D03*
X37590000Y-15070000D03*
X38720000Y-11450000D03*
X37990000Y-11090000D03*
X36550000Y-11450000D03*
X39335000Y-5285000D03*
X41295000Y-6455000D03*
X41250000Y-9580000D03*
X40880000Y-10800000D03*
X40080000Y-11170000D03*
X40518080Y-13787120D03*
X41495980Y-12524740D03*
X41390000Y-15830000D03*
X43910000Y-15390000D03*
X36510000Y-17820000D03*
X38810000Y-17880000D03*
X41240000Y-17820000D03*
X43570000Y-17770000D03*
X45910000Y-16740000D03*
X46270000Y-15660000D03*
X41850000Y-3920000D03*
D18*
X42274272Y705728D03*
X25587190Y-16905360D03*
X-47474900Y25578720D03*
D16*
X-38226660Y33610480D03*
X-50868240Y39533760D03*
D19*
X3830000Y-38000000D03*
D17*
X-9440000Y-42990000D03*
D16*
X29550000Y21960000D03*
D18*
X21325000Y20830000D03*
D16*
X9470000Y-40000000D03*
X8493820Y-37419140D03*
X38425000Y-26045000D03*
X58500000Y-15000000D03*
X58500000Y-12500000D03*
X55000000Y-15000000D03*
X55000000Y-12500000D03*
X51000000Y-15000000D03*
X51000000Y-12500000D03*
X49300000Y-5320000D03*
X51225000Y-7320000D03*
X51550000Y-1845000D03*
X2120000Y-35145010D03*
D18*
X-12853236Y16809572D03*
D16*
X-15150000Y1080000D03*
X-33100000Y1355000D03*
X-33500000Y-1345000D03*
X-43625000Y6930000D03*
X-41950000Y8330000D03*
X-42075000Y2655000D03*
X-40600000Y3755000D03*
X-35150000Y1280000D03*
X-34775000Y2430000D03*
X-44450000Y2880000D03*
X-45550000Y6330000D03*
X-47850000Y6505000D03*
X-46900000Y4055000D03*
X-45975000Y780000D03*
X-43375000Y-1395000D03*
X-40325000Y-1095000D03*
X-37050000Y-1195000D03*
X-39575000Y105000D03*
X-37050000Y180000D03*
X-38100000Y2830000D03*
X-40775000Y6455000D03*
X-44975000Y12555000D03*
X-47200000Y12530000D03*
X-8262620Y-10609580D03*
X-14063980Y-17955260D03*
X21300465Y-29732858D03*
X-34650000Y30000D03*
X17900000Y-11545000D03*
D18*
X22372964Y-3195579D03*
X22253290Y-10695010D03*
D16*
X22344850Y-1289850D03*
X19650000Y-2270000D03*
X18400000Y-1445000D03*
X16450000Y-2220000D03*
X18375000Y-3395000D03*
X15325000Y-3845000D03*
X18500000Y-4895000D03*
X15900000Y-6670000D03*
X12675000Y-7070000D03*
X15175000Y-8320000D03*
X19155000Y-9485000D03*
X27835920Y-31005640D03*
X-29475000Y38305000D03*
X332259Y20037259D03*
X1323999Y22556001D03*
X2985120Y23290120D03*
X5375000Y23505000D03*
X7800000Y23505000D03*
X2837500Y14917500D03*
X3716539Y14496539D03*
X6240090Y14470090D03*
X7190090Y14470090D03*
X9862500Y15167500D03*
X11089871Y17919871D03*
X11089871Y19694871D03*
X11089871Y21119871D03*
X10129312Y22609312D03*
X-1242790Y17512210D03*
X34875000Y-16895000D03*
X34875000Y-18295000D03*
X34875000Y-20020000D03*
X34025000Y-21970000D03*
X32285000Y-22460000D03*
X33625000Y-12145000D03*
X27000000Y-13220000D03*
X33116094Y-11828906D03*
X29175010Y-11919990D03*
X28160773Y-11970000D03*
X25928779Y-14698779D03*
X5175000Y18255000D03*
X29382520Y-16887480D03*
X2225000Y15530000D03*
X2849017Y15905983D03*
X27358420Y-22236580D03*
X-676161Y17770581D03*
X-1895871Y16550871D03*
X70135Y18506336D03*
D18*
X-2477234Y16075574D03*
D16*
X-17900000Y16630010D03*
X-22200000Y16630010D03*
D18*
X-28768219Y16540845D03*
D16*
X5798820Y19789140D03*
X-8955658Y-27090258D03*
X-769560Y-32174040D03*
X955100Y-32910640D03*
X-16482000Y302400D03*
X502980Y-2367140D03*
X-3335800Y-750000D03*
X-1323280Y3667900D03*
X1651060Y-16560660D03*
X-3870900Y-14472780D03*
X34801340Y-15861220D03*
X41976040Y-5064760D03*
X701040Y-23985220D03*
X37057330Y8167370D03*
X35894999Y7899119D03*
X11256216Y-32614969D03*
X14920000Y-32500000D03*
X8558732Y-32664415D03*
X4465320Y-21732240D03*
X-31455360Y37086540D03*
X-33108900Y39110920D03*
X-27129740Y30721300D03*
X-36314380Y30835600D03*
X-36222940Y36349940D03*
X-38022739Y36872119D03*
X33735000Y-7000000D03*
D18*
X-5200650Y-1928090D03*
X26365200Y10342880D03*
D17*
X1230000Y20290000D03*
X1240000Y19480000D03*
X39230000Y4640000D03*
X16580000Y-26120000D03*
X11110660Y-27319340D03*
X15940000Y-18810000D03*
D16*
X870000Y4270000D03*
X11463540Y-3636080D03*
X32070000Y-4340000D03*
X13902531Y-21342531D03*
X11200000Y-24590000D03*
X33840000Y16035470D03*
X47660000Y-7420000D03*
X40160000Y-8340000D03*
X30848431Y1444047D03*
X-8929040Y-24968791D03*
X19360000Y12980000D03*
X22332144Y4418135D03*
X28350002Y-5050000D03*
D17*
X1120000Y21390000D03*
D16*
X15720000Y-21580000D03*
X-3460000Y-25790000D03*
D17*
X1271685Y18665000D03*
D18*
X22252160Y21000000D03*
X14500000Y21060000D03*
D16*
X29810000Y21300000D03*
X28950000Y20140000D03*
X28820000Y22260000D03*
D18*
X-30250000Y6255000D03*
X-30269120Y4864240D03*
D16*
X-29025000Y-1220000D03*
X-29025000Y2180000D03*
X-5900000Y13305000D03*
D19*
X-11314920Y15750000D03*
D16*
X27775000Y-8020000D03*
D18*
X22139041Y-9394990D03*
X22400559Y-7075202D03*
D16*
X12850000Y8180000D03*
X21620850Y16035470D03*
D18*
X-26073040Y-42209580D03*
D16*
X-8790384Y-19670010D03*
D18*
X-28400000Y15605000D03*
D16*
X-6375000Y11105000D03*
X-18486060Y-40617000D03*
X5798880Y-31064060D03*
X1197670Y-20704670D03*
X-4876740Y-15430360D03*
X-2354580Y-19309080D03*
X6046470Y-25167590D03*
X-16106140Y-18498820D03*
X-520700Y-15621000D03*
X26243280Y-33337500D03*
X-56454040Y-7376160D03*
X-16780000Y-36490000D03*
X-14287440Y-26895920D03*
X-11450010Y-35797998D03*
D18*
X-47599080Y28012320D03*
D19*
X31878035Y-20809979D03*
D17*
X-35975002Y14430000D03*
D19*
X9024990Y20580001D03*
X-23800000Y-15470000D03*
X-9733640Y-35683014D03*
X-6609969Y-40970000D03*
D18*
X26901200Y-30002340D03*
D17*
X26500000Y-3000000D03*
X31420160Y-12830000D03*
X32135621Y-12830000D03*
X27790000Y-280000D03*
X32851084Y-12830000D03*
X27290000Y-3000000D03*
X40700000Y1780000D03*
X30704699Y-12830000D03*
D18*
X-31400000Y11980000D03*
X-52225000Y14130000D03*
D16*
X-18333380Y25624720D03*
X-36026660Y33610480D03*
X-33359840Y40260020D03*
X-41541360Y25553600D03*
X-48668240Y39533760D03*
X-28875000Y37655000D03*
X33250000Y5700000D03*
X32500000Y5700000D03*
X34000000Y5700000D03*
X24968761Y-5254988D03*
D18*
X21935194Y-8467451D03*
D16*
X38674575Y-6003015D03*
X30844188Y-8459400D03*
X2761040Y-15402420D03*
X17841484Y-13469007D03*
X18500000Y-12070000D03*
X-13160950Y-6264770D03*
X-36466720Y3086240D03*
X-36378357Y-1499820D03*
X-612140Y-16268700D03*
X-16738600Y-16476980D03*
X-24516020Y-909180D03*
X-18755300Y89040D03*
X32951852Y-4977628D03*
X40134990Y-2800000D03*
X38320000Y-5370000D03*
X36520000Y7440000D03*
X13630000Y12870000D03*
X42100013Y1880000D03*
X1695010Y9193749D03*
X-15859700Y-24333060D03*
X1981260Y-19029540D03*
X-301340Y-18685780D03*
X-10007160Y-23067840D03*
X41450000Y1880000D03*
X31630000Y5520000D03*
X40147300Y-1983600D03*
X22050000Y3600000D03*
X-6482080Y-5869940D03*
X24200000Y10460000D03*
X21520000Y10570000D03*
X14720000Y11730000D03*
X-6736020Y-7561440D03*
X2506980Y-14757400D03*
X38046958Y-4225010D03*
X31964189Y-9103333D03*
X37510000Y-4620000D03*
X31450000Y-8695000D03*
X1842830Y-14105750D03*
X-14558750Y-8068970D03*
X20871999Y3813305D03*
X21573749Y-1246251D03*
X21325000Y-6445000D03*
X21988461Y-7671706D03*
X28655000Y-7165000D03*
X26185000Y-7195000D03*
X25941554Y-5043089D03*
X21540022Y-4729978D03*
X21692461Y-2110062D03*
X20346989Y3393055D03*
X24889162Y-7343536D03*
X19860000Y-1200000D03*
X20524976Y-9070024D03*
X19460008Y4591243D03*
X26950001Y-9389722D03*
X41680000Y-2020000D03*
X46420000Y-5030000D03*
X353286Y-28345010D03*
X2613658Y-26926799D03*
X42250000Y-420000D03*
X46897173Y-5471385D03*
X870001Y-28847521D03*
X3011178Y-27451809D03*
X41475660Y8338820D03*
X-3225000Y-30345000D03*
X-13330000Y-31045010D03*
X2568495Y-30340972D03*
X1827208Y-31275021D03*
X-51454800Y2363400D03*
X-11500000Y-27995010D03*
X-18000000Y-25000000D03*
X-49349140Y379660D03*
X-10210000Y-27470000D03*
X-17000000Y-25000000D03*
X-52747660Y-3003620D03*
X-19000000Y-25000000D03*
X-12249729Y-28853510D03*
X-21000000Y-25000000D03*
X-54733940Y-928440D03*
X-12375000Y-30345000D03*
X-53593480Y-1952060D03*
X-20000000Y-25000000D03*
X-12630107Y-29380604D03*
X-13505120Y-26913700D03*
X-15952420Y-36287580D03*
X-52500000Y5500000D03*
X-40690440Y11717800D03*
X-41720440Y11737800D03*
X-52500000Y6500000D03*
X-8510000Y-43090000D03*
X-10498387Y-43401175D03*
X-386020Y-17198200D03*
X-15631100Y-38976160D03*
X-17233380Y24524720D03*
X12123090Y14135021D03*
X11997005Y11165021D03*
X-22989287Y-788276D03*
X29690000Y19760000D03*
X-15775000Y-8195000D03*
D18*
X-20091340Y-12273140D03*
D16*
X-8906921Y-26442076D03*
X-28409840Y9654680D03*
X-6934140Y1557160D03*
X-11297860Y122060D03*
X-22491700Y-12423140D03*
X-13756640Y-15867380D03*
X-15558770Y-17428210D03*
X11244598Y14135021D03*
X2550000Y-2530000D03*
X3694990Y-2540000D03*
X11433167Y10815010D03*
X-23149963Y114878D03*
X29654998Y20527331D03*
X-8954406Y-25793801D03*
X-28663840Y11933060D03*
X-7635180Y922160D03*
X-11264840Y939940D03*
X-21650900Y-13393280D03*
X-16521430Y-13150850D03*
X-14305280Y-16311880D03*
X-16499840Y-17388840D03*
X-22764990Y1209931D03*
X7647060Y-22440473D03*
X-16764320Y-345680D03*
X3337560Y-9060180D03*
X1554480Y-7208520D03*
X-7622480Y-6048562D03*
X35520000Y5150000D03*
X16660000Y-15130000D03*
X8023578Y-21874575D03*
X3677920Y-9845040D03*
X16335805Y-14398293D03*
X29616666Y2780010D03*
X12118658Y-18465748D03*
X4437440Y-10533240D03*
X30848431Y-1101056D03*
X16350000Y-13670010D03*
X830000Y2680000D03*
X910000Y-29550000D03*
D18*
X-11998720Y12704990D03*
D16*
X-4695467Y10877011D03*
D18*
X47411560Y4442600D03*
X49644360Y4442600D03*
X49644360Y5651500D03*
X47411560Y5651500D03*
D16*
X46850000Y3180000D03*
X47350000Y1680000D03*
X57500000Y-17750000D03*
X54940000Y-17720000D03*
X1526540Y-26781760D03*
X-4711700Y-16179800D03*
X57500000Y-18710000D03*
X54500561Y-18270561D03*
X1021080Y-27373580D03*
X-4800540Y-16939120D03*
D19*
X2480000Y-37690000D03*
X-2490000Y-37690000D03*
D18*
X10000Y-37290000D03*
D16*
X-37126660Y32510480D03*
X-40441360Y24453600D03*
X-40441360Y26653600D03*
X-37126660Y34710480D03*
X-49768240Y38433760D03*
X-49768240Y40633760D03*
X-34459840Y41360020D03*
X-17233380Y26724720D03*
X-32259840Y41360020D03*
X46254990Y-4290000D03*
X-6650000Y-44490000D03*
X6784400Y-45105180D03*
X-7449212Y-36137021D03*
X-7570282Y-38674288D03*
X56440000Y-7960000D03*
X-6890000Y-45400000D03*
X6784400Y-45890040D03*
X-8027259Y-35774980D03*
X-8199271Y-38510309D03*
X24356060Y-40045640D03*
X16825130Y-38595130D03*
X13586050Y-34883950D03*
X24387810Y-38870890D03*
X4330000Y13310000D03*
X-522231Y9944802D03*
X10120000Y13654990D03*
X28986540Y17587100D03*
X27470160Y17587100D03*
X-12425000Y3405000D03*
D18*
X-21923678Y-11733118D03*
D16*
X186311Y13123834D03*
X-7515860Y-14373860D03*
X44990Y10262254D03*
X1695010Y12925010D03*
X-11325000Y3255000D03*
D18*
X-20827940Y-11536540D03*
D16*
X-7978140Y-14980920D03*
X-23098700Y-31219000D03*
X2695000Y-19032080D03*
X-45381660Y22985660D03*
X-42094900Y30821560D03*
X-35379600Y3050680D03*
X-6502340Y-13296760D03*
X-17569120Y-8574900D03*
X-35191700Y-1216660D03*
X-52500000Y9500000D03*
X-47218420Y11839820D03*
X-45018420Y11869820D03*
X-34548457Y814065D03*
X-52550000Y8530000D03*
X-15850000Y955000D03*
X-52500000Y7500000D03*
X-42632807Y11578409D03*
X-34425000Y1680000D03*
X-30139529Y-1545010D03*
X-3164840Y-18905220D03*
X1846580Y-12123420D03*
X22222875Y-5687572D03*
X19949966Y-5902387D03*
X-2435800Y-14787740D03*
X-12467590Y-8020050D03*
X-144720Y-14363560D03*
X4224020Y-23624540D03*
X-1399480Y-14795360D03*
D18*
X-10668000Y-8920480D03*
D16*
X-373380Y-18013680D03*
X2540000Y-29578300D03*
X-215900Y-15044420D03*
X-14323000Y-8767940D03*
X-3164518Y-25192089D03*
X-18290480Y-8399640D03*
X-14058840Y-3068180D03*
X-16670020Y-13942060D03*
X31294332Y-10295711D03*
X16769140Y-16845140D03*
X31325000Y-10945000D03*
X45445000Y-2975000D03*
X42120000Y-3100000D03*
X17449860Y-15852000D03*
X-1938020Y-24005540D03*
X-5064700Y-19408000D03*
X-4038600Y-19270980D03*
X-11534140Y-15200000D03*
X-12804140Y-15200000D03*
X-7698740Y-23050500D03*
X-8658860Y-22781260D03*
X-14074140Y-15200000D03*
X30861498Y2773680D03*
X37891720Y8961120D03*
X-19014440Y-26924000D03*
X-21526500Y-26924000D03*
X-8966200Y-16631920D03*
X-8379460Y-23373080D03*
X-4989830Y-18147030D03*
X-3888740Y-23045420D03*
X-22621240Y-26997660D03*
X-18204180Y-27221180D03*
X-5085080Y-14579600D03*
X-21269960Y-16901160D03*
D20*
X-38240980Y33596160D02*
X-38226660Y33610480D01*
D21*
X17900000Y-11545000D02*
X18300000Y-11545000D01*
X18300000Y-11545000D02*
X18350000Y-11495000D01*
X18350000Y-11495000D02*
X18725000Y-11495000D01*
X18725000Y-11495000D02*
X19075000Y-11845000D01*
X19075000Y-11845000D02*
X19075000Y-12995000D01*
X19075000Y-12995000D02*
X18075000Y-13995000D01*
X17625000Y-13995000D02*
X17125000Y-13495000D01*
X18075000Y-13995000D02*
X17625000Y-13995000D01*
D22*
X13902531Y-24527469D02*
X11430000Y-27000000D01*
X11430000Y-27000000D02*
X11110660Y-27319340D01*
X13902531Y-21342531D02*
X13902531Y-23642531D01*
X13902531Y-23642531D02*
X13902531Y-24527469D01*
X13902531Y-20847469D02*
X15940000Y-18810000D01*
X13902531Y-21342531D02*
X13902531Y-20847469D01*
X36354530Y16035470D02*
X33840000Y16035470D01*
X19360000Y12980000D02*
X19360000Y15780000D01*
X19360000Y15780000D02*
X19104530Y16035470D01*
X26365200Y15724800D02*
X26054530Y16035470D01*
X26365200Y10342880D02*
X26365200Y15724800D01*
X33840000Y16035470D02*
X26054530Y16035470D01*
X26054530Y16035470D02*
X21620850Y16035470D01*
X26365200Y8451191D02*
X22332144Y4418135D01*
X26365200Y10342880D02*
X26365200Y8451191D01*
X26365200Y8451191D02*
X26365200Y4734800D01*
X29655953Y1444047D02*
X30848431Y1444047D01*
X39230000Y8030000D02*
X41795000Y10595000D01*
X39230000Y4640000D02*
X39230000Y8030000D01*
X41795000Y10595000D02*
X36354530Y16035470D01*
X26365200Y4734800D02*
X26795000Y4305000D01*
X26795000Y4305000D02*
X29655953Y1444047D01*
X43692120Y32471680D02*
X39040000Y27819560D01*
X39040000Y18720940D02*
X36354530Y16035470D01*
X39040000Y27819560D02*
X39040000Y18720940D01*
X26795000Y4305000D02*
X25490000Y3000000D01*
X27200002Y-3900000D02*
X28350002Y-5050000D01*
X25490000Y-3900000D02*
X27200002Y-3900000D01*
X25490000Y3000000D02*
X25490000Y-3900000D01*
X1260000Y17850000D02*
X1260000Y21250000D01*
X1260000Y21250000D02*
X1120000Y21390000D01*
X33735000Y-7085000D02*
X33735000Y-7000000D01*
X40160000Y-8340000D02*
X34990000Y-8340000D01*
X34990000Y-8340000D02*
X33735000Y-7085000D01*
X45800000Y6590000D02*
X41795000Y10595000D01*
X-2871802Y-26290000D02*
X610000Y-22808198D01*
X610000Y-22808198D02*
X610000Y-21680000D01*
X-1150001Y-411721D02*
X-1150001Y2249999D01*
X-1150001Y2249999D02*
X870000Y4270000D01*
X870000Y17460000D02*
X1260000Y17850000D01*
X-2666370Y-1928090D02*
X-1150001Y-411721D01*
X-5200650Y-1928090D02*
X-2666370Y-1928090D01*
D20*
X-5809259Y-21235741D02*
X-5809259Y-21834990D01*
D23*
X-5680000Y13525000D02*
X-5900000Y13305000D01*
X-5680000Y14250000D02*
X-5680000Y13525000D01*
X-11255000Y14250000D02*
X-11255000Y15690080D01*
D22*
X-5680000Y14250000D02*
X-11255000Y14250000D01*
D23*
X-11255000Y15690080D02*
X-11314920Y15750000D01*
X23175000Y-8359031D02*
X22139041Y-9394990D01*
X23175000Y-7820000D02*
X23175000Y-8359031D01*
X24120000Y-3900000D02*
X23450000Y-4570000D01*
X23450000Y-4570000D02*
X23450000Y-6025761D01*
X22430202Y-7075202D02*
X22400559Y-7075202D01*
X23450000Y-6025761D02*
X22400559Y-7075202D01*
X25490000Y-3900000D02*
X24120000Y-3900000D01*
X23175000Y-7820000D02*
X22430202Y-7075202D01*
D21*
X12850000Y8180000D02*
X13350000Y8180000D01*
X16130470Y10960470D02*
X16130470Y16035470D01*
X13350000Y8180000D02*
X16130470Y10960470D01*
D22*
X19104530Y16035470D02*
X16130470Y16035470D01*
D23*
X27775000Y-8020000D02*
X25150000Y-8020000D01*
X24810969Y-8359031D02*
X23175000Y-8359031D01*
X25150000Y-8020000D02*
X24810969Y-8359031D01*
D22*
X45800000Y-1191002D02*
X45800000Y6590000D01*
X-1150001Y-411721D02*
X-660011Y-901711D01*
X21620850Y16035470D02*
X19104530Y16035470D01*
D20*
X-6131140Y-20913860D02*
X-5809259Y-21235741D01*
D22*
X13902531Y-21342531D02*
X13902531Y-21767469D01*
X13475000Y-22195000D02*
X9541916Y-22195000D01*
X13902531Y-21767469D02*
X13475000Y-22195000D01*
D20*
X-6131140Y-20913860D02*
X-7374990Y-19670010D01*
X-7374990Y-19670010D02*
X-8790384Y-19670010D01*
D23*
X-53632040Y-12379820D02*
X-53632040Y-22337960D01*
X-53632040Y-22337960D02*
X-38525000Y-37445000D01*
D22*
X13885000Y-24545000D02*
X11430000Y-27000000D01*
X16580000Y-26120000D02*
X15005000Y-24545000D01*
X15005000Y-24545000D02*
X13885000Y-24545000D01*
X60310997Y-7202905D02*
X59957498Y-7556404D01*
X41080000Y-7420000D02*
X40160000Y-8340000D01*
X49419420Y-9179420D02*
X47660000Y-7420000D01*
X58334482Y-9179420D02*
X49419420Y-9179420D01*
X570000Y17850000D02*
X-3030000Y14250000D01*
X-3030000Y14250000D02*
X-5680000Y14250000D01*
X1260000Y17850000D02*
X570000Y17850000D01*
X-27975736Y15605000D02*
X-28400000Y15605000D01*
X-12610000Y15605000D02*
X-27975736Y15605000D01*
X-11255000Y14250000D02*
X-12610000Y15605000D01*
X6635000Y21390000D02*
X7125000Y21880000D01*
X7125000Y21880000D02*
X9525000Y21880000D01*
X9525000Y21880000D02*
X10075000Y21330000D01*
X10075000Y17355000D02*
X11394530Y16035470D01*
X10075000Y21330000D02*
X10075000Y17355000D01*
X16130470Y16035470D02*
X11394530Y16035470D01*
X870000Y4270000D02*
X870000Y6200000D01*
X870000Y6200000D02*
X3200000Y8530000D01*
X3200000Y8530000D02*
X3200000Y10830000D01*
X3200000Y10830000D02*
X5700000Y13330000D01*
X5700000Y13330000D02*
X7575000Y13330000D01*
X7575000Y13330000D02*
X8700000Y14455000D01*
X8700000Y15980000D02*
X10075000Y17355000D01*
X8700000Y14455000D02*
X8700000Y15980000D01*
X-8158791Y-24968791D02*
X-8929040Y-24968791D01*
X-5809259Y-22619259D02*
X-8158791Y-24968791D01*
X-5809259Y-21834990D02*
X-5809259Y-22619259D01*
X-8929040Y-24968791D02*
X-14548791Y-24968791D01*
X-14548791Y-24968791D02*
X-17700000Y-28120000D01*
X-17700000Y-28120000D02*
X-23300000Y-28120000D01*
X-23300000Y-28120000D02*
X-24425000Y-29245000D01*
X-24425000Y-37370000D02*
X-24500000Y-37445000D01*
X-24425000Y-29245000D02*
X-24425000Y-37370000D01*
D23*
X-38525000Y-37445000D02*
X-24500000Y-37445000D01*
X-24500000Y-41295000D02*
X-24500000Y-37445000D01*
X-25414580Y-42209580D02*
X-24500000Y-41295000D01*
X-26073040Y-42209580D02*
X-25414580Y-42209580D01*
D20*
X-5900000Y11580000D02*
X-6375000Y11105000D01*
X-5900000Y13305000D02*
X-5900000Y11580000D01*
D21*
X-2960000Y-26290000D02*
X-2871802Y-26290000D01*
X-3460000Y-25790000D02*
X-2960000Y-26290000D01*
D22*
X-3232910Y-26017090D02*
X-2960000Y-26290000D01*
X-3560519Y-26017090D02*
X-3232910Y-26017090D01*
X-3722194Y-25855415D02*
X-3560519Y-26017090D01*
X-4156780Y-26290000D02*
X-3722194Y-25855415D01*
X-2960000Y-26290000D02*
X-4156780Y-26290000D01*
X-2960000Y-26290000D02*
X-1918780Y-26290000D01*
X-1597600Y-25968820D02*
X-1918780Y-26290000D01*
D21*
X-19164060Y-41295000D02*
X-18486060Y-40617000D01*
X-24500000Y-41295000D02*
X-19164060Y-41295000D01*
X9543600Y-27319340D02*
X11110660Y-27319340D01*
X5798880Y-31064060D02*
X9543600Y-27319340D01*
D22*
X4121337Y-13737388D02*
X4121337Y-11636339D01*
X3949595Y-13909130D02*
X4121337Y-13737388D01*
X-660011Y-901711D02*
X-660011Y-6854991D01*
X610000Y-21680000D02*
X455010Y-21834990D01*
X610000Y-21292340D02*
X1197670Y-20704670D01*
X610000Y-21680000D02*
X610000Y-21292340D01*
X-2576710Y-19531210D02*
X-2354580Y-19309080D01*
X-2576710Y-21834990D02*
X-2576710Y-19531210D01*
X-5809259Y-21834990D02*
X-2576710Y-21834990D01*
X-2576710Y-21834990D02*
X455010Y-21834990D01*
D21*
X-8790384Y-19670010D02*
X-8790384Y-19344004D01*
X3834271Y-15927421D02*
X3949595Y-16042745D01*
X2000601Y-15927421D02*
X3834271Y-15927421D01*
X1658620Y-15585440D02*
X2000601Y-15927421D01*
D22*
X3949595Y-16042745D02*
X3949595Y-13909130D01*
X3949595Y-16797045D02*
X3949595Y-16042745D01*
D21*
X-16106140Y-18498820D02*
X-15384542Y-18498820D01*
X-5558830Y-16112450D02*
X-4876740Y-15430360D01*
D22*
X42930311Y-7267709D02*
X42778020Y-7420000D01*
X47660000Y-7420000D02*
X42778020Y-7420000D01*
X42930311Y-4060691D02*
X42930311Y-7267709D01*
X42778020Y-7420000D02*
X41080000Y-7420000D01*
X42930311Y-4060691D02*
X45800000Y-1191002D01*
X1427304Y-20475036D02*
X1197670Y-20704670D01*
X4165161Y-16581479D02*
X3949595Y-16797045D01*
X4165161Y-11680163D02*
X4165161Y-16581479D01*
X3161459Y-10676461D02*
X4165161Y-11680163D01*
X4121337Y-11636339D02*
X3161459Y-10676461D01*
X3161459Y-10676461D02*
X-660011Y-6854991D01*
X6774999Y-20616001D02*
X7203999Y-21045001D01*
X6571050Y-19620050D02*
X6774999Y-19823999D01*
X6774999Y-19823999D02*
X6774999Y-20616001D01*
X5935022Y-19620050D02*
X6571050Y-19620050D01*
X4421050Y-19620050D02*
X3566064Y-20475036D01*
X3566064Y-20475036D02*
X1427304Y-20475036D01*
X5327585Y-18175035D02*
X5327585Y-19444905D01*
X5935022Y-19620050D02*
X5502730Y-19620050D01*
X5327585Y-19444905D02*
X5502730Y-19620050D01*
X5502730Y-19620050D02*
X4421050Y-19620050D01*
X5327585Y-18175035D02*
X3949595Y-16797045D01*
X8391917Y-21045001D02*
X7203999Y-21045001D01*
X9541916Y-22195000D02*
X8391917Y-21045001D01*
D21*
X-451882Y-15585440D02*
X86360Y-15585440D01*
X86360Y-15585440D02*
X1658620Y-15585440D01*
X-485140Y-15585440D02*
X-520700Y-15621000D01*
X86360Y-15585440D02*
X-485140Y-15585440D01*
D23*
X-53632040Y-12379820D02*
X-53632040Y-9024680D01*
X-53632040Y-9024680D02*
X-55280560Y-7376160D01*
X-55280560Y-7376160D02*
X-55280560Y-7376160D01*
X-55280560Y-7376160D02*
X-56454040Y-7376160D01*
X-56454040Y-7376160D02*
X-56454040Y-7376160D01*
D21*
X-7333119Y-17195661D02*
X-6987580Y-17541200D01*
X-6987580Y-17541200D02*
X-5558830Y-16112450D01*
X-8790384Y-19344004D02*
X-6987580Y-17541200D01*
X-14081383Y-17195661D02*
X-14207371Y-17321649D01*
X-13088759Y-17195661D02*
X-14081383Y-17195661D01*
X-15384542Y-18498820D02*
X-14207371Y-17321649D01*
X-13088759Y-17195661D02*
X-7333119Y-17195661D01*
X-16780000Y-36490000D02*
X-16780000Y-29573900D01*
X-14287440Y-27081340D02*
X-14480480Y-27274380D01*
X-14287440Y-26895920D02*
X-14287440Y-27081340D01*
X-16780000Y-29573900D02*
X-14480480Y-27274380D01*
D22*
X-47599080Y28012320D02*
X-47599080Y28012320D01*
D23*
X29700000Y-3000000D02*
X26500000Y-3000000D01*
X30110000Y-3410000D02*
X29700000Y-3000000D01*
X29700000Y-3000000D02*
X29700000Y-1350000D01*
X28630000Y-280000D02*
X27790000Y-280000D01*
X29700000Y-1350000D02*
X28630000Y-280000D01*
X35300000Y1780000D02*
X40700000Y1780000D01*
X30110000Y-3410000D02*
X35300000Y1780000D01*
X30110000Y-3410000D02*
X30110000Y-12224094D01*
X30110000Y-12224094D02*
X30704699Y-12818793D01*
X30714822Y-12828916D02*
X30704699Y-12818793D01*
X32851084Y-12828916D02*
X30714822Y-12828916D01*
D20*
X-37603410Y14130000D02*
X-51800736Y14130000D01*
X-51800736Y14130000D02*
X-52225000Y14130000D01*
X-31400000Y11980000D02*
X-35453410Y11980000D01*
X-35453410Y11980000D02*
X-37603410Y14130000D01*
X-41541360Y27170778D02*
X-36026660Y32685478D01*
X-41541360Y25553600D02*
X-41541360Y27170778D01*
X-36026660Y34535482D02*
X-36866958Y35375780D01*
X-36026660Y33135680D02*
X-36026660Y34535482D01*
X-36026660Y32685478D02*
X-36026660Y33135680D01*
X-36026660Y33135680D02*
X-36026660Y33610480D01*
X-36866958Y35375780D02*
X-45788060Y35375780D01*
X-48668240Y38255960D02*
X-48668240Y39533760D01*
X-45788060Y35375780D02*
X-48668240Y38255960D01*
X-36866958Y36752902D02*
X-33359840Y40260020D01*
X-36866958Y35375780D02*
X-36866958Y36752902D01*
D21*
X-33359840Y40260020D02*
X-32280020Y40260020D01*
X-32280020Y40260020D02*
X-29325000Y37305000D01*
X-29225000Y37405000D02*
X-29325000Y37305000D01*
X-28875000Y37655000D02*
X-29125000Y37405000D01*
X-29125000Y37405000D02*
X-29225000Y37405000D01*
X-29325000Y36616340D02*
X-29325000Y37305000D01*
X-18333380Y25624720D02*
X-29325000Y36616340D01*
D22*
X58543500Y5373500D02*
X58190000Y5020000D01*
D21*
X32500000Y-7530000D02*
X32500000Y-9310000D01*
X32220000Y-7250000D02*
X32500000Y-7530000D01*
X30844188Y-8866192D02*
X30844188Y-8459400D01*
X32500000Y-9310000D02*
X32110000Y-9700000D01*
X32110000Y-9700000D02*
X31677996Y-9700000D01*
X32480000Y-6420000D02*
X32220000Y-6680000D01*
X33455036Y-6290000D02*
X33325036Y-6420000D01*
X31677996Y-9700000D02*
X30844188Y-8866192D01*
X33325036Y-6420000D02*
X32480000Y-6420000D01*
X32220000Y-6680000D02*
X32220000Y-7250000D01*
X38387590Y-6290000D02*
X33455036Y-6290000D01*
X38674575Y-6003015D02*
X38387590Y-6290000D01*
X39234990Y-3700000D02*
X40134990Y-2800000D01*
X37560000Y-3700000D02*
X39234990Y-3700000D01*
X32951852Y-4977628D02*
X36282372Y-4977628D01*
X36282372Y-4977628D02*
X37560000Y-3700000D01*
X36140002Y2979998D02*
X41318213Y2979998D01*
X41318213Y2979998D02*
X42100013Y2198198D01*
X34800000Y5720000D02*
X34800000Y4320000D01*
X42100013Y2198198D02*
X42100013Y1880000D01*
X34800000Y4320000D02*
X36140002Y2979998D01*
X36520000Y7440000D02*
X34800000Y5720000D01*
X41450011Y2028532D02*
X41450011Y1880011D01*
X41450011Y1880011D02*
X41450000Y1880000D01*
X41450011Y2028532D02*
X41098532Y2380011D01*
X34769989Y2380011D02*
X31854999Y5295001D01*
X41098532Y2380011D02*
X34769989Y2380011D01*
X31854999Y5295001D02*
X31630000Y5520000D01*
X31819989Y-7465689D02*
X31819989Y-6464311D01*
X31819989Y-6464311D02*
X32264311Y-6019989D01*
X32264311Y-6019989D02*
X33159347Y-6019989D01*
X33159347Y-6019989D02*
X33289347Y-5889989D01*
X37020011Y-5889989D02*
X38046958Y-4863042D01*
X31964189Y-9103333D02*
X32099989Y-8967533D01*
X33289347Y-5889989D02*
X37020011Y-5889989D01*
X32099989Y-8967533D02*
X32099989Y-7745689D01*
X32099989Y-7745689D02*
X31819989Y-7465689D01*
X38046958Y-4863042D02*
X38046958Y-4225010D01*
X37510000Y-4620000D02*
X36640022Y-5489978D01*
X32993658Y-5619978D02*
X32098622Y-5619978D01*
X36640022Y-5489978D02*
X33123658Y-5489978D01*
X31419978Y-8664978D02*
X31450000Y-8695000D01*
X32098622Y-5619978D02*
X31419978Y-6298622D01*
X33123658Y-5489978D02*
X32993658Y-5619978D01*
X31419978Y-6298622D02*
X31419978Y-8664978D01*
X-15952420Y-36287580D02*
X-15952420Y-29594680D01*
X-15952420Y-29361000D02*
X-15952420Y-29594680D01*
X-13505120Y-26913700D02*
X-15952420Y-29361000D01*
X-22764288Y-1013275D02*
X-16230495Y-1013275D01*
X-22989287Y-788276D02*
X-22764288Y-1013275D01*
X-16230495Y-1013275D02*
X-15095160Y122060D01*
X-15095160Y122060D02*
X-11297860Y122060D01*
X-11297860Y122060D02*
X-11234360Y122060D01*
X-15977001Y1605001D02*
X-11929901Y1605001D01*
X-16967961Y614041D02*
X-15977001Y1605001D01*
X-22650800Y614041D02*
X-16967961Y614041D01*
X-23149963Y114878D02*
X-22650800Y614041D01*
X-11929901Y1605001D02*
X-11264840Y939940D01*
X-11264840Y939940D02*
X-11264840Y939940D01*
X58290000Y-210000D02*
X58290000Y340000D01*
X-48299088Y28302274D02*
X-45779802Y30821560D01*
X-48299088Y27722366D02*
X-48299088Y28302274D01*
X-45381660Y24804938D02*
X-48299088Y27722366D01*
X-45381660Y22985660D02*
X-45381660Y24804938D01*
X-45779802Y30821560D02*
X-42094900Y30821560D01*
X-42094900Y30821560D02*
X-42094900Y30821560D01*
X-17918861Y-8924641D02*
X-17569120Y-8574900D01*
X-6502340Y-13296760D02*
X-7215762Y-13296760D01*
X-16388668Y-14601230D02*
X-17151752Y-14601230D01*
X-9024913Y-15105911D02*
X-10285529Y-15105911D01*
X-17151752Y-14601230D02*
X-17553212Y-14199770D01*
X-7215762Y-13296760D02*
X-9024913Y-15105911D01*
X-10285529Y-15105911D02*
X-11191670Y-14199770D01*
X-11191670Y-14199770D02*
X-15987209Y-14199770D01*
X-17553212Y-14199770D02*
X-22554030Y-14199770D01*
X-15987209Y-14199770D02*
X-16388668Y-14601230D01*
X-22554030Y-14199770D02*
X-23016701Y-13737099D01*
X-23016701Y-13737099D02*
X-23016701Y-11938139D01*
X-23016701Y-11938139D02*
X-20003203Y-8924641D01*
X-20003203Y-8924641D02*
X-17918861Y-8924641D01*
X660400Y-13309600D02*
X1846580Y-12123420D01*
X-2263621Y-13838559D02*
X131441Y-13838559D01*
X131441Y-13838559D02*
X660400Y-13309600D01*
X-3943781Y-15518719D02*
X-2263621Y-13838559D01*
X-3943781Y-18126279D02*
X-3943781Y-15518719D01*
X-3164840Y-18905220D02*
X-3943781Y-18126279D01*
X-15821520Y-14599780D02*
X-16222980Y-15001240D01*
X-5085080Y-14579600D02*
X-5105260Y-14599780D01*
X-16222980Y-15001240D02*
X-19370040Y-15001240D01*
X-19370040Y-15001240D02*
X-21269960Y-16901160D01*
X-21269960Y-16901160D02*
X-21269960Y-16901160D01*
X-5760860Y-14599780D02*
X-6669900Y-14599780D01*
X-5105260Y-14599780D02*
X-5760860Y-14599780D01*
X-5760860Y-14599780D02*
X-6012320Y-14599780D01*
X-7576041Y-15505921D02*
X-10451217Y-15505921D01*
X-6669900Y-14599780D02*
X-7576041Y-15505921D01*
X-11991480Y-14599780D02*
X-15821520Y-14599780D01*
X-11357358Y-14599780D02*
X-11991480Y-14599780D01*
X-10451217Y-15505921D02*
X-11357358Y-14599780D01*
M02*
