G04 #@! TF.GenerationSoftware,KiCad,Pcbnew,(6.0.4)*
G04 #@! TF.CreationDate,2022-04-02T13:17:59+02:00*
G04 #@! TF.ProjectId,mch2021,6d636832-3032-4312-9e6b-696361645f70,3*
G04 #@! TF.SameCoordinates,Original*
G04 #@! TF.FileFunction,Profile,NP*
%FSLAX46Y46*%
G04 Gerber Fmt 4.6, Leading zero omitted, Abs format (unit mm)*
G04 Created by KiCad (PCBNEW (6.0.4)) date 2022-04-02 13:17:59*
%MOMM*%
%LPD*%
G01*
G04 APERTURE LIST*
%ADD10C,0.200000*%
G04 #@! TA.AperFunction,Profile*
%ADD11C,0.050000*%
G04 #@! TD*
G04 #@! TA.AperFunction,Profile*
%ADD12C,0.100000*%
G04 #@! TD*
G04 APERTURE END LIST*
D10*
X-33404772Y21800569D02*
X-33404772Y21800569D01*
D11*
X9946380Y9026760D02*
G75*
G03*
X4946380Y9026760I-2500000J0D01*
G01*
X4946380Y-14693240D02*
G75*
G03*
X9946380Y-14693240I2500000J0D01*
G01*
X9946380Y-14693240D02*
X9946380Y9026760D01*
X4946380Y-14693240D02*
X4946380Y9026760D01*
D12*
X41040000Y41555060D02*
X40455000Y41168180D01*
X62154400Y-15324755D02*
X62098147Y-15504783D01*
X37627000Y43290810D02*
X37400000Y43637360D01*
X55228938Y-23507616D02*
X55109718Y-23362744D01*
X36017000Y45112520D02*
X35730000Y45323150D01*
X73049000Y-30707600D02*
X73270000Y-30309400D01*
X62138193Y-14862034D02*
X62139876Y-14868519D01*
X-35070000Y44824410D02*
X-35257800Y44736380D01*
X63255081Y-18127042D02*
X63198849Y-18307156D01*
X56456000Y28038200D02*
X56753000Y28248000D01*
X-54927300Y27715300D02*
X-54750300Y27617600D01*
X5664500Y33055700D02*
X4528300Y32950300D01*
X-51869500Y39604300D02*
X-51707500Y39557900D01*
X55764000Y38935100D02*
X55637000Y39098500D01*
X63387000Y13961600D02*
X63020000Y13962600D01*
X61605000Y15335000D02*
X61352000Y15607200D01*
X-50030300Y42443170D02*
X-50066700Y42490490D01*
X-16121900Y27069100D02*
X-16112800Y26889800D01*
X23284900Y48273530D02*
X22810200Y48296910D01*
X-13597000Y-47833600D02*
X-11042600Y-47870400D01*
X-71810830Y-31697900D02*
X-71535090Y-32121800D01*
X34188000Y45989530D02*
X34027000Y46019570D01*
X23954500Y30121700D02*
X23282900Y30439900D01*
X-53081300Y27392200D02*
X-52659000Y27410500D01*
X56057000Y23678600D02*
X55960000Y23900600D01*
X-71564120Y7882700D02*
X-71809510Y7102200D01*
X26265000Y28860700D02*
X25695000Y29190200D01*
X58392000Y19224200D02*
X58418000Y19564700D01*
X55851000Y27791800D02*
X56153000Y27885300D01*
X54380000Y40015930D02*
X54044000Y40142970D01*
X63110073Y-18472649D02*
X62991598Y-18618927D01*
X52775751Y-17451218D02*
X52774067Y-17444733D01*
X56134000Y38080600D02*
X56096000Y38254300D01*
X30563000Y45219510D02*
X30290000Y44965690D01*
X-13541400Y31053700D02*
X-14987500Y31037800D01*
X74717000Y-13195000D02*
X74684000Y-11512100D01*
X56159775Y-23747401D02*
X56094910Y-23765339D01*
X-17182300Y28503100D02*
X-17029300Y28429300D01*
X73270000Y-30309400D02*
X73478000Y-29892000D01*
X-71054200Y9286400D02*
X-71311970Y8611600D01*
X45767000Y43421750D02*
X45321000Y43364560D01*
X57906000Y21277200D02*
X57747000Y21439800D01*
X-1755000Y32043300D02*
X-4173100Y31663800D01*
X-50681600Y37927300D02*
X-50612800Y37488100D01*
X50293000Y41673200D02*
X50134000Y41904580D01*
X25603000Y-47108900D02*
X29128000Y-46615600D01*
X-15483100Y26409900D02*
X-15037500Y26289700D01*
X-21230200Y32079000D02*
X-22130900Y32355000D01*
X-12228000Y38384700D02*
X-13040000Y38212800D01*
X35730000Y45323150D02*
X35438000Y45506690D01*
X58341000Y18873300D02*
X58392000Y19224200D01*
X38014000Y-44929400D02*
X40603000Y-44276400D01*
X55019357Y-23192950D02*
X54977636Y-23059303D01*
X-33316000Y44547690D02*
X-33450600Y44648520D01*
X54965323Y-23011875D02*
X54948411Y-22946734D01*
X55738000Y24294100D02*
X55589000Y24481300D01*
X35438000Y45506690D02*
X35139000Y45664120D01*
X-50325700Y42704340D02*
X-50469900Y42792120D01*
X-14295000Y26121900D02*
X-14092000Y26097000D01*
X70272000Y-33898300D02*
X70754000Y-33494900D01*
X49069000Y42843070D02*
X48802000Y42985890D01*
X-54543600Y20728300D02*
X-54934500Y20831600D01*
X-53568700Y25035300D02*
X-53708700Y24511300D01*
X-35257800Y44736380D02*
X-35432700Y44627700D01*
X-16191700Y27410800D02*
X-16148500Y27243000D01*
X54972359Y-23038976D02*
X54970600Y-23032201D01*
X-22694400Y32546900D02*
X-23007500Y32683400D01*
X-63198600Y17309100D02*
X-63827200Y16566500D01*
X-52976800Y40744690D02*
X-52920300Y40587520D01*
X54694000Y39863300D02*
X54380000Y40015930D01*
X-52974600Y41770230D02*
X-53017100Y41603400D01*
X-18165900Y28613500D02*
X-17878600Y28641000D01*
X-13183900Y39896900D02*
X-13018100Y40157050D01*
X-40536641Y42943884D02*
X-47406700Y41547530D01*
X20590700Y47897080D02*
X20214900Y47718860D01*
X48061000Y43247810D02*
X47631000Y43339940D01*
X-56199400Y30901600D02*
X-56219700Y30465000D01*
X-72064370Y-31264400D02*
X-71810830Y-31697900D01*
X-56885000Y20756000D02*
X-57497800Y20635100D01*
X63212249Y-19723430D02*
X63405726Y-19703743D01*
X58399000Y20134900D02*
X58364000Y20362000D01*
X54995317Y-20965781D02*
X54801830Y-20985470D01*
X52769016Y-17425278D02*
X52767333Y-17418793D01*
X-9472000Y39319600D02*
X-10507200Y38918300D01*
X-71809510Y7102200D02*
X-72105720Y6063500D01*
X-52172000Y39740600D02*
X-52024600Y39665500D01*
X-16513100Y28003400D02*
X-16412300Y27868700D01*
X56040000Y38427200D02*
X55965000Y38598800D01*
X-52289900Y42698400D02*
X-52423200Y42597500D01*
X62220000Y-37546800D02*
X63199000Y-37272900D01*
X26890000Y47251470D02*
X26433000Y47462100D01*
X52989000Y25947000D02*
X52756000Y25987100D01*
X52770700Y-17431763D02*
X52769016Y-17425278D01*
X28582000Y27248000D02*
X28582000Y27248000D01*
X-50783600Y42924950D02*
X-50951400Y42968200D01*
X-23033900Y49571184D02*
X-23947700Y49336109D01*
X63233457Y-17643459D02*
X63235216Y-17650235D01*
X-58622600Y-38720700D02*
X-56860500Y-39044700D01*
X29903000Y44464060D02*
X29845000Y44573280D01*
X-53017100Y41603400D02*
X-53043200Y41430580D01*
X-52546100Y42484600D02*
X-52657700Y42360560D01*
X-50066700Y42490490D02*
X-50191000Y42603490D01*
X-50951400Y42968200D02*
X-51125400Y42994800D01*
X-64891400Y-36955100D02*
X-64461100Y-37153300D01*
X-54750300Y27617600D02*
X-54564800Y27537900D01*
X19033500Y46848710D02*
X18977100Y46833230D01*
X-15413800Y48822100D02*
X-16005200Y49143169D01*
X-14131800Y38896700D02*
X-13851900Y39140800D01*
X-55237600Y20873400D02*
X-55710000Y20871600D01*
X54967082Y-23018650D02*
X54965323Y-23011875D01*
X17294200Y32427400D02*
X15746500Y32757700D01*
X30290000Y44965690D02*
X30059000Y44682510D01*
X-51836000Y42920570D02*
X-51995400Y42860800D01*
X-9363600Y26340400D02*
X-7199200Y26557900D01*
X53848817Y-20147176D02*
X53831931Y-19952415D01*
X54968841Y-23025426D02*
X54967082Y-23018650D01*
X71947000Y-32276300D02*
X72265000Y-31871200D01*
X-35737300Y44355040D02*
X-35864000Y44194380D01*
X40455000Y41168180D02*
X39977000Y40808260D01*
X37152000Y43970950D02*
X36880000Y44293280D01*
X-15037500Y26289700D02*
X-14516000Y26167400D01*
X-69047470Y12275400D02*
X-69348800Y12096400D01*
X-55726000Y32172500D02*
X-55841000Y31994100D01*
X-59365000Y20110000D02*
X-59819100Y19945500D01*
X-21274900Y30731400D02*
X-19006800Y28369300D01*
X58006000Y30891200D02*
X58036000Y31237100D01*
X35433000Y-45599800D02*
X36020000Y-45448700D01*
X38530000Y41062210D02*
X38443000Y41395510D01*
X19554800Y31792300D02*
X18555800Y32101000D01*
X25026000Y29573500D02*
X24597800Y29802700D01*
X-14092000Y26097000D02*
X-13317600Y26077100D01*
X-9988100Y31188500D02*
X-10774200Y31162500D01*
X-74652965Y-20269200D02*
X-74580417Y-21491100D01*
X-18710900Y49849249D02*
X-19117100Y49896301D01*
X73851000Y423300D02*
X73704000Y1187500D01*
X18229000Y26973200D02*
X20391000Y26921200D01*
X32783000Y-46078500D02*
X33932000Y-45892600D01*
X-13317600Y26077100D02*
X-12502900Y26080500D01*
X-45417600Y-42808600D02*
X-44708000Y-43114200D01*
X55109718Y-23362744D02*
X55019357Y-23192950D01*
X-58917500Y20245400D02*
X-59365000Y20110000D01*
X51864000Y40327220D02*
X51316000Y40236540D01*
X68131000Y-35334600D02*
X68684000Y-35014400D01*
X-65149620Y14955000D02*
X-65400830Y14674300D01*
X55637000Y39098500D02*
X55494000Y39257700D01*
X53876283Y-20252969D02*
X53874524Y-20246194D01*
X26863000Y28477300D02*
X26265000Y28860700D01*
X-24844400Y49049750D02*
X-25707900Y48715770D01*
X-53266100Y-39690900D02*
X-52651400Y-39843300D01*
X17681000Y-47956300D02*
X18328500Y-47915300D01*
X-11884900Y43495170D02*
X-11916600Y43889550D01*
X-56183900Y29889800D02*
X-56141700Y29619100D01*
X53317000Y40317880D02*
X52927000Y40364550D01*
X20391000Y26921200D02*
X22041400Y26849000D01*
X54613799Y-20966927D02*
X54435854Y-20912708D01*
X-72404960Y4919900D02*
X-72699670Y3706000D01*
X62141560Y-14875004D02*
X62158464Y-14940116D01*
X-52668700Y40163790D02*
X-52560200Y40041170D01*
X-56016900Y31639500D02*
X-56134100Y31284200D01*
X-32419000Y-46231000D02*
X-29845900Y-46697600D01*
X3865700Y32876300D02*
X2898500Y32712000D01*
X62672127Y-16976945D02*
X62835109Y-17064173D01*
X7290200Y45993130D02*
X5563200Y45515490D01*
X54435854Y-20912708D02*
X54272866Y-20825492D01*
X-51705100Y38503800D02*
X-51668700Y38449300D01*
X-69348800Y12096400D02*
X-69557980Y11935200D01*
X55008725Y-22382055D02*
X55097492Y-22216565D01*
X43333000Y42760810D02*
X42588000Y42430230D01*
X62978637Y-17181595D02*
X63097857Y-17326467D01*
X55657494Y-21812698D02*
X63147384Y-19741369D01*
X-17510800Y28605400D02*
X-17343100Y28562100D01*
X-33450600Y44648520D02*
X-33594900Y44736300D01*
X-56219700Y30465000D02*
X-56210000Y30172200D01*
X18983600Y-47852500D02*
X19650600Y-47767900D01*
X-61777500Y18807500D02*
X-62208800Y18392300D01*
X372700Y43735830D02*
X-875000Y43249510D01*
X-74823618Y-17411700D02*
X-74782832Y-18338700D01*
X62088142Y-14696306D02*
X62129774Y-14829609D01*
X-47419900Y42188300D02*
X-47427200Y42949230D01*
X54985000Y39685600D02*
X54694000Y39863300D01*
X-60018400Y-38465400D02*
X-58622600Y-38720700D01*
X34516000Y45904560D02*
X34188000Y45989530D01*
X-70785360Y-33062100D02*
X-70548730Y-33288600D01*
X-72634150Y-30048400D02*
X-72337320Y-30721200D01*
X62139876Y-14868519D02*
X62141560Y-14875004D01*
X32126000Y45982230D02*
X31927000Y45931140D01*
X16031700Y47398480D02*
X15146500Y47438720D01*
X-51319200Y43003870D02*
X-51497000Y42992960D01*
X-5635200Y31439100D02*
X-6140500Y31378700D01*
X-22837400Y-47447600D02*
X-20813100Y-47593300D01*
X38602000Y40705020D02*
X38530000Y41062210D01*
X64375637Y-20736806D02*
X64354665Y-20926600D01*
X55854000Y24105700D02*
X55738000Y24294100D01*
X-51125400Y42994800D02*
X-51304600Y43003870D01*
X72265000Y-31871200D02*
X72552000Y-31480200D01*
X-17747500Y49677670D02*
X-18270000Y49778303D01*
X-53996900Y-39546800D02*
X-53266100Y-39690900D01*
X29113000Y25792700D02*
X30276000Y25501700D01*
X54121000Y27114400D02*
X54467000Y27473600D01*
X63771711Y-19776503D02*
X63934690Y-19863721D01*
X55854000Y36640000D02*
X55745000Y36698300D01*
X71199000Y-33086000D02*
X71599000Y-32677700D01*
X-27516700Y-47076300D02*
X-26884500Y-47152300D01*
X24607900Y26596500D02*
X26242000Y26347400D01*
X-39603100Y-44618800D02*
X-38621800Y-44875500D01*
X27730000Y46768610D02*
X27322000Y47020370D01*
X69762000Y-34290200D02*
X70272000Y-33898300D01*
X-64047400Y-37326300D02*
X-63447900Y-37541700D01*
X-73481150Y-13900D02*
X-73682260Y-1165100D01*
X54948411Y-22946734D02*
X54931522Y-22751964D01*
X-35593000Y44500030D02*
X-35737300Y44355040D01*
X-17878600Y28641000D02*
X-17864000Y28641000D01*
X-74695286Y-10668700D02*
X-74774019Y-12128400D01*
X-16148500Y27243000D02*
X-16121900Y27069100D01*
X-65400830Y14674300D02*
X-65632930Y14437900D01*
X-47575500Y43075240D02*
X-47621700Y43084210D01*
X49318000Y42685070D02*
X49069000Y42843070D01*
X56153000Y37907000D02*
X56134000Y38080600D01*
X-61429200Y19103600D02*
X-61777500Y18807500D01*
X23282900Y30439900D02*
X22769800Y30666800D01*
X-64524300Y15712600D02*
X-65149620Y14955000D01*
X59393000Y-38123400D02*
X59794000Y-37990200D01*
X13394200Y27164400D02*
X15600100Y27063000D01*
X-47406700Y41547530D02*
X-47419900Y42188300D01*
X63097857Y-17326467D02*
X63188220Y-17496271D01*
X-62654000Y17923400D02*
X-63198600Y17309100D01*
X-53172300Y33850900D02*
X-53206000Y33763100D01*
X63776086Y-21634055D02*
X56159775Y-23747401D01*
X-51539600Y39526900D02*
X-51366500Y39512400D01*
X-4112800Y41806210D02*
X-5605500Y41103550D01*
X53690000Y40243820D02*
X53317000Y40317880D01*
X54467000Y27473600D02*
X54678000Y27716400D01*
X70519000Y9620500D02*
X69893000Y10288000D01*
X-26884500Y-47152300D02*
X-26252400Y-47203700D01*
X-1668000Y26920000D02*
X316800Y27005600D01*
X-54811400Y33133800D02*
X-55212600Y32767800D01*
X-34444100Y44948020D02*
X-34661600Y44931890D01*
X-35432700Y44627700D02*
X-35593000Y44500030D01*
X-51821600Y36024500D02*
X-52095600Y35735400D01*
X62710000Y13939700D02*
X62448000Y13903300D01*
X59921000Y16615700D02*
X59509000Y16762400D01*
X63945806Y-21540644D02*
X63776086Y-21634055D01*
X57711000Y17129100D02*
X57802000Y17300200D01*
X-58131100Y20471100D02*
X-58917500Y20245400D01*
X27322000Y47020370D02*
X26890000Y47251470D01*
X51067000Y40177080D02*
X50845000Y40109680D01*
X64341836Y-20476895D02*
X64358748Y-20542035D01*
X58999000Y16904700D02*
X58469000Y17021700D01*
X-875000Y43249510D02*
X-1870100Y42837940D01*
X-66697870Y13619200D02*
X-67195170Y13295000D01*
X54801830Y-20985470D02*
X54613799Y-20966927D01*
X71219000Y8708200D02*
X71008000Y9013300D01*
X-54122600Y20584000D02*
X-54543600Y20728300D01*
X64331282Y-20436242D02*
X64333041Y-20443018D01*
X17957800Y32264400D02*
X17294200Y32427400D01*
X57912000Y33205800D02*
X57785000Y33816200D01*
X-53256100Y33727100D02*
X-53572800Y33672500D01*
X54853000Y27873000D02*
X55204000Y27797500D01*
X-48526700Y42945600D02*
X-49094200Y43524490D01*
X-56083600Y29361400D02*
X-56010000Y29117800D01*
X-29554500Y45901900D02*
X-29607800Y45910090D01*
X74630000Y-10085800D02*
X74510000Y-7639200D01*
X69410000Y10749200D02*
X68891000Y11189600D01*
X63198849Y-18307156D02*
X63110073Y-18472649D01*
X-47674700Y43078030D02*
X-47812200Y43017340D01*
X-33747800Y44810130D02*
X-33908600Y44869110D01*
X-9257000Y31201100D02*
X-9988100Y31188500D01*
X58469000Y17021700D02*
X57999000Y17092700D01*
X-10774200Y31162500D02*
X-12016500Y31097700D01*
X-53787200Y27390400D02*
X-53441900Y27379700D01*
X-49459200Y43512190D02*
X-49597300Y43283340D01*
X57143000Y28632600D02*
X57301000Y28868000D01*
X71008000Y9013300D02*
X70777000Y9314200D01*
X62098147Y-15504783D02*
X62009386Y-15670297D01*
X46232000Y43446690D02*
X45767000Y43421750D01*
X50433000Y41427650D02*
X50293000Y41673200D01*
X-72933720Y-29296300D02*
X-72634150Y-30048400D01*
X-55411000Y28119500D02*
X-55257100Y27966000D01*
X-16324500Y27724500D02*
X-16250700Y27571600D01*
X-52849600Y40437770D02*
X-52765500Y40296260D01*
X36880000Y44293280D02*
X36584000Y44606050D01*
X57747000Y21439800D02*
X57494000Y21643700D01*
X57999000Y17092700D02*
X57711000Y17129100D01*
X44868000Y-43302000D02*
X45456000Y-43155000D01*
X19406700Y47129050D02*
X19177400Y46939730D01*
X-19535100Y49925252D02*
X-19937400Y49937104D01*
X-70258200Y10961500D02*
X-70526210Y10463900D01*
X54823000Y27873600D02*
X54853000Y27873000D01*
X67329000Y-35746700D02*
X68131000Y-35334600D01*
X-73789750Y-26597300D02*
X-73523930Y-27546900D01*
X-50469900Y42792120D02*
X-50622800Y42865960D01*
X61997781Y-14526510D02*
X62088142Y-14696306D01*
X53513100Y-18164536D02*
X53335161Y-18110336D01*
X-12100700Y42024760D02*
X-11995900Y42391400D01*
X-49407500Y43571900D02*
X-49459200Y43512190D01*
X-63827200Y16566500D02*
X-64524300Y15712600D01*
X-34250300Y44938950D02*
X-34429600Y44948020D01*
X11450600Y27188600D02*
X12505200Y27182600D01*
X53872765Y-20239418D02*
X53871006Y-20232643D01*
X47175000Y43404590D02*
X46705000Y43440580D01*
X57809000Y29978800D02*
X57916000Y30391800D01*
X-54055200Y33557800D02*
X-54269100Y33481000D01*
X55204000Y27797500D02*
X55556000Y27760200D01*
X-26252400Y-47203700D02*
X-24472100Y-47327500D01*
X28785000Y45920300D02*
X28523000Y46167020D01*
X-7430200Y31279800D02*
X-8351700Y31233800D01*
X3924200Y45009200D02*
X2238900Y44430540D01*
X-52311000Y39828800D02*
X-52172000Y39740600D01*
X-12084200Y44763300D02*
X-12220800Y45257780D01*
X-52147000Y42786460D02*
X-52289900Y42698400D01*
X-16500100Y49359109D02*
X-16754100Y49443442D01*
X52777435Y-17457703D02*
X52775751Y-17451218D01*
X74302000Y-3814100D02*
X74193000Y-2393900D01*
X58242000Y20762100D02*
X58152000Y20941800D01*
X10683300Y-48077300D02*
X13392100Y-48063300D01*
X-16256200Y49261123D02*
X-16500100Y49359109D01*
X-50510900Y36723500D02*
X-50865700Y36611200D01*
X72710000Y5326300D02*
X72551000Y5846300D01*
X23959400Y-47289600D02*
X25603000Y-47108900D01*
X46705000Y43440580D02*
X46232000Y43446690D01*
X52748745Y-17347196D02*
X52731837Y-17152353D01*
X27826000Y27804000D02*
X26863000Y28477300D01*
X-55054600Y-39365100D02*
X-53996900Y-39546800D01*
X53018000Y26169100D02*
X53462000Y26493100D01*
X56353000Y36326300D02*
X56102000Y36511900D01*
X-26122100Y48532080D02*
X-26521800Y48337850D01*
X56143000Y23439500D02*
X56057000Y23678600D01*
X-73997630Y-3230400D02*
X-74164650Y-4290500D01*
X-51205900Y36455900D02*
X-51526200Y36259600D01*
X61878538Y-14381548D02*
X61997781Y-14526510D01*
X61394202Y-14122737D02*
X61572047Y-14176973D01*
X-68059510Y-35101800D02*
X-66863290Y-35862000D01*
X-12387800Y41298420D02*
X-12231800Y41662960D01*
X60748000Y-37821200D02*
X61059000Y-37785900D01*
X-53816800Y33623700D02*
X-54055200Y33557800D01*
X23380300Y26744700D02*
X24607900Y26596500D01*
X17036500Y-47975400D02*
X17681000Y-47956300D01*
X63188220Y-17496271D02*
X63229939Y-17629909D01*
X-36198700Y43836130D02*
X-36342700Y43795150D01*
X-74359208Y-23679000D02*
X-74204232Y-24681800D01*
X72552000Y-31480200D02*
X72812000Y-31095100D01*
X-16412300Y27868700D02*
X-16324500Y27724500D01*
X-73682260Y-1165100D02*
X-73841080Y-2214600D01*
X-56860500Y-39044700D02*
X-55054600Y-39365100D01*
X-53410900Y25550600D02*
X-53568700Y25035300D01*
X69230000Y-34664200D02*
X69762000Y-34290200D01*
X54557902Y-19013139D02*
X62047799Y-16941810D01*
X22769800Y30666800D02*
X21910200Y30990600D01*
X45321000Y43364560D02*
X44777000Y43244860D01*
X73478000Y-29892000D02*
X73679000Y-29447300D01*
X-50514500Y36814500D02*
X-50510900Y36723500D01*
X50845000Y40109680D02*
X50695000Y40058720D01*
X54974118Y-23045752D02*
X54972359Y-23038976D01*
X-14069300Y47868280D02*
X-14487200Y48223650D01*
X-51304600Y43003870D02*
X-51319200Y43003870D01*
X18922300Y46834150D02*
X18791400Y46874200D01*
X-47427200Y42949230D02*
X-47492700Y43014770D01*
X33194000Y46044170D02*
X32571000Y46034680D01*
X58175000Y18178900D02*
X58268000Y18521700D01*
X15146500Y47438720D02*
X14240500Y47428280D01*
X-11042600Y-47870400D02*
X-3788800Y-47910000D01*
X-36151600Y43859450D02*
X-36198700Y43836130D01*
X58417000Y19885100D02*
X58399000Y20134900D01*
X20214900Y47718860D02*
X20037400Y47616960D01*
X62009386Y-15670297D02*
X61890893Y-15816545D01*
X-72699670Y3706000D02*
X-72982310Y2456100D01*
X-16250700Y27571600D02*
X-16191700Y27410800D01*
X-12016500Y31097700D02*
X-13541400Y31053700D01*
X-48534500Y-41368500D02*
X-46291300Y-42408800D01*
X-54090300Y20680500D02*
X-54101100Y20595100D01*
X56593000Y22040500D02*
X56422000Y22073300D01*
X-71535090Y-32121800D02*
X-71251850Y-32515700D01*
X-54085300Y22121800D02*
X-54097200Y21722600D01*
X-59819100Y19945500D02*
X-60273800Y19754400D01*
X-14794800Y38027100D02*
X-15424700Y38012600D01*
X-54101700Y27422900D02*
X-53787200Y27390400D01*
X-23947700Y49336109D02*
X-24844400Y49049750D01*
X64356000Y-36903800D02*
X65518000Y-36499900D01*
X-23355300Y32854300D02*
X-23259100Y32801700D01*
X56841000Y35812200D02*
X56601000Y36090600D01*
X48455000Y43129390D02*
X48061000Y43247810D01*
X-13069700Y46852600D02*
X-13305600Y47115280D01*
X72387000Y6321200D02*
X72212000Y6770600D01*
X38775000Y39618200D02*
X38757000Y39727400D01*
X53028767Y-17905736D02*
X52909428Y-17760802D01*
X-53043500Y41078060D02*
X-53018100Y40908470D01*
X-33191700Y44434700D02*
X-33316000Y44547690D01*
X-12565000Y40939350D02*
X-12387800Y41298420D01*
X19862700Y47499040D02*
X19406700Y47129050D01*
X4528300Y32950300D02*
X3865700Y32876300D01*
X63593767Y-19722284D02*
X63771711Y-19776503D01*
X-50191000Y42603490D02*
X-50325700Y42704340D01*
X-6140500Y31378700D02*
X-6650500Y31332200D01*
X39977000Y40808260D02*
X39550000Y40431280D01*
X55215977Y-22070285D02*
X55361353Y-21948126D01*
X-33908600Y44869110D02*
X-34076400Y44912350D01*
X56153000Y27885300D02*
X56456000Y28038200D01*
X-52095600Y35735400D02*
X-52400100Y35353200D01*
X-14487200Y48223650D02*
X-14910500Y48522360D01*
X29225000Y26679100D02*
X28582000Y27248100D01*
X13312900Y47366980D02*
X12362700Y47254660D01*
X52927000Y40364550D02*
X52686000Y40375990D01*
X-17864000Y28641000D02*
X-17684800Y28632000D01*
X64336559Y-20456568D02*
X64338318Y-20463344D01*
X73970000Y-335400D02*
X73851000Y423300D01*
X-53047400Y26534100D02*
X-53236600Y26051900D01*
X-49196800Y43607090D02*
X-49254800Y43622790D01*
X49957000Y42121630D02*
X49762000Y42324180D01*
X-13600600Y39388900D02*
X-13378000Y39640900D01*
X28582000Y27248100D02*
X28582000Y27248000D01*
X-17749500Y31229500D02*
X-18549200Y31371200D01*
X55383000Y24694200D02*
X55154000Y24900800D01*
X57602000Y34419100D02*
X57453000Y34794600D01*
X54431470Y-19055158D02*
X54557902Y-19013139D01*
X36301000Y44873810D02*
X36017000Y45112520D01*
X15746500Y32757700D02*
X15029200Y32890800D01*
X-49937100Y-40748600D02*
X-48534500Y-41368500D01*
X8857400Y33277900D02*
X8156300Y33254800D01*
X56102000Y36511900D02*
X55854000Y36640000D01*
X62047799Y-16941810D02*
X62112664Y-16923872D01*
X-54093500Y21257500D02*
X-54090300Y20680500D01*
X56393000Y22306300D02*
X56287000Y22908700D01*
X-52757300Y42226250D02*
X-52843800Y42082510D01*
X-11995900Y42391400D02*
X-11924900Y42753650D01*
X-13948800Y38073500D02*
X-14340900Y38042800D01*
X-55710000Y20871600D02*
X-56290000Y20834700D01*
X53892000Y-40191400D02*
X56977000Y-39007200D01*
X57067000Y35498500D02*
X56841000Y35812200D01*
X74546000Y-26531200D02*
X74692000Y-25281500D01*
X-53572800Y33672500D02*
X-53816800Y33623700D01*
X54977636Y-23059303D02*
X54975877Y-23052527D01*
X-51669600Y42964910D02*
X-51836000Y42920570D01*
X-13582500Y47398560D02*
X-14069300Y47868280D01*
X42380000Y-43849000D02*
X44026000Y-43489900D01*
X-53441900Y27379700D02*
X-53081300Y27392200D01*
X-73245320Y1204700D02*
X-73481150Y-13900D01*
X64329523Y-20429467D02*
X64331282Y-20436242D01*
X31224000Y45636380D02*
X30874000Y45443300D01*
X-19117100Y49896301D02*
X-19535100Y49925252D01*
X179400Y32321800D02*
X-1755000Y32043300D01*
X28582000Y27248000D02*
X27826000Y27804000D01*
X-21220700Y49872802D02*
X-22119500Y49751304D01*
X-56290000Y20834700D02*
X-56885000Y20756000D01*
X16855200Y27010500D02*
X18229000Y26973200D01*
X53335161Y-18110336D02*
X53172192Y-18023159D01*
X316800Y27005600D02*
X4375800Y27130000D01*
X58364000Y20362000D02*
X58313000Y20570000D01*
X-16005200Y49143169D02*
X-16256200Y49261123D01*
X-6650500Y31332200D02*
X-7430200Y31279800D01*
X53214000Y25897100D02*
X52989000Y25947000D01*
X61735026Y-14264148D02*
X61878538Y-14381548D01*
X-52687400Y34941600D02*
X-52910200Y34564500D01*
X48802000Y42985890D02*
X48455000Y43129390D01*
X-48286400Y42694390D02*
X-48526700Y42945600D01*
X-12869400Y46602480D02*
X-13069700Y46852600D01*
X52909428Y-17760802D02*
X52819067Y-17591006D01*
X68684000Y-35014400D02*
X69230000Y-34664200D01*
X45456000Y-43155000D02*
X46501000Y-42836000D01*
X-54055600Y22509300D02*
X-54085300Y22121800D01*
X70777000Y9314200D02*
X70519000Y9620500D01*
X-66105330Y14034900D02*
X-66697870Y13619200D01*
X64333041Y-20443018D02*
X64334800Y-20449793D01*
X74790000Y-23163100D02*
X74802000Y-21462300D01*
X-7199200Y26557900D02*
X-5070100Y26714400D01*
X63235216Y-17650235D02*
X63236975Y-17657010D01*
X-16137900Y26641000D02*
X-15850600Y26527300D01*
X57453000Y34794600D02*
X57273000Y35156800D01*
X68891000Y11189600D02*
X68280000Y11652500D01*
X-36342700Y43795150D02*
X-37101000Y43620960D01*
X56147000Y37632400D02*
X56153000Y37907000D01*
X-74815890Y-13457100D02*
X-74838647Y-15073800D01*
X-13018100Y40157050D02*
X-12759600Y40593940D01*
X64091182Y-21418485D02*
X63945806Y-21540644D01*
X60947720Y-14141838D02*
X61012585Y-14123899D01*
X-13851900Y39140800D02*
X-13600600Y39388900D01*
X19177400Y46939730D02*
X19033500Y46848710D01*
X62133142Y-14842579D02*
X62134825Y-14849064D01*
X-62703500Y-37777700D02*
X-61870900Y-38016400D01*
X61010000Y15921500D02*
X60651000Y16198800D01*
X73679000Y-29447300D02*
X73876000Y-28966900D01*
X-53018100Y40908470D02*
X-52976800Y40744690D01*
X74692000Y-25281500D02*
X74761000Y-24288500D01*
X57494000Y21643700D02*
X57200000Y21820700D01*
X-18436900Y28540800D02*
X-18165900Y28613500D01*
X38443000Y41395510D02*
X38335000Y41740760D01*
X72019000Y7213800D02*
X71801000Y7670300D01*
X56096000Y38254300D02*
X56040000Y38427200D01*
X-51526200Y36259600D02*
X-51821600Y36024500D01*
X22042600Y-47473000D02*
X23959400Y-47289600D01*
X53928000Y25642100D02*
X53446000Y25829400D01*
X-68609280Y12501500D02*
X-69047470Y12275400D01*
X22810200Y48296910D02*
X22338600Y48284870D01*
X56422000Y22073300D02*
X56393000Y22306300D01*
X73876000Y-28966900D02*
X74158000Y-28229400D01*
X-54269100Y33481000D02*
X-54439300Y33399500D01*
X65518000Y-36499900D02*
X66484000Y-36124700D01*
X-55921200Y28889600D02*
X-55817400Y28678100D01*
X54787000Y27850700D02*
X54823000Y27873600D01*
X56094910Y-23765339D02*
X55901423Y-23785029D01*
X57200000Y21820700D02*
X56891000Y21957400D01*
X59509000Y16762400D02*
X58999000Y16904700D01*
X-74483551Y-22621600D02*
X-74359208Y-23679000D01*
X57940000Y17558500D02*
X58065000Y17854600D01*
X53701153Y-18183125D02*
X53513100Y-18164536D01*
X-50612800Y37488100D02*
X-50514500Y36814500D01*
X54933000Y25069600D02*
X54427000Y25388000D01*
X52774067Y-17444733D02*
X52772384Y-17438248D01*
X-69557980Y11935200D02*
X-69719710Y11762400D01*
X-57497800Y20635100D02*
X-58131100Y20471100D01*
X44777000Y43244860D02*
X44098000Y43040520D01*
X64358748Y-20542035D02*
X64375637Y-20736806D01*
X62175372Y-15134959D02*
X62154400Y-15324755D01*
X61352000Y15607200D02*
X61010000Y15921500D01*
X64209657Y-21272208D02*
X64091182Y-21418485D01*
X12739900Y33146600D02*
X11644500Y33243300D01*
X-74164650Y-4290500D02*
X-74301636Y-5425700D01*
X63229939Y-17629909D02*
X63231698Y-17636684D01*
X25695000Y29190200D02*
X25026000Y29573500D01*
X53878042Y-20259744D02*
X53876283Y-20252969D01*
X60392000Y-37856200D02*
X60748000Y-37821200D01*
X65152000Y13584800D02*
X64798000Y13716700D01*
X62991598Y-18618927D02*
X62846221Y-18741085D01*
X63758000Y13938700D02*
X63387000Y13961600D01*
X34777000Y-45740400D02*
X35433000Y-45599800D01*
X74069000Y-1144000D02*
X73970000Y-335400D01*
X-60273800Y19754400D02*
X-60723300Y19539100D01*
X-23007500Y32683400D02*
X-23355300Y32854300D01*
X64338318Y-20463344D02*
X64340077Y-20470119D01*
X64798000Y13716700D02*
X64447000Y13817700D01*
X-22119500Y49751304D02*
X-23033900Y49571184D01*
X33851000Y46035970D02*
X33194000Y46044170D01*
X-74427696Y-6820400D02*
X-74561943Y-8658800D01*
X-54934500Y20831600D02*
X-55237600Y20873400D01*
X-12759600Y40593940D02*
X-12565000Y40939350D01*
X-51707500Y39557900D02*
X-51539600Y39526900D01*
X-52916500Y41930220D02*
X-52974600Y41770230D01*
X-4173100Y31663800D02*
X-5635200Y31439100D01*
X22041400Y26849000D02*
X23380300Y26744700D01*
X14377900Y32988500D02*
X13659300Y33068000D01*
X-8351700Y31233800D02*
X-9257000Y31201100D01*
X74340000Y-27665700D02*
X74457000Y-27143700D01*
X29641000Y44902520D02*
X29389000Y45246780D01*
X-74580417Y-21491100D02*
X-74483551Y-22621600D01*
X20755700Y31394000D02*
X19554800Y31792300D01*
X-53052200Y34235000D02*
X-53172300Y33850900D01*
X-50457600Y-40540100D02*
X-49937100Y-40748600D01*
X-17035200Y49520436D02*
X-17747500Y49677670D01*
X27756000Y26077000D02*
X29113000Y25792700D01*
X24905900Y47972810D02*
X24344900Y48103230D01*
X74404000Y-5523000D02*
X74302000Y-3814100D01*
X53462000Y26493100D02*
X53749000Y26750300D01*
X-53829200Y23983900D02*
X-53928900Y23458200D01*
X71801000Y7670300D02*
X71608000Y8046400D01*
X61745521Y-15938723D02*
X61575817Y-16032152D01*
X21426300Y48157450D02*
X20996300Y48043520D01*
X25441000Y47822600D02*
X24905900Y47972810D01*
X63240493Y-17670561D02*
X63242252Y-17677336D01*
X-73523930Y-27546900D02*
X-73214850Y-28515600D01*
X15029200Y32890800D02*
X14377900Y32988500D01*
X39550000Y40431280D02*
X39121000Y39993200D01*
X15063200Y-48030000D02*
X17036500Y-47975400D01*
X28027000Y46564890D02*
X27730000Y46768610D01*
X34833000Y45796410D02*
X34516000Y45904560D01*
X-54370200Y27475900D02*
X-54101700Y27422900D01*
X52752809Y-16962557D02*
X52809062Y-16782527D01*
X5563200Y45515490D02*
X3924200Y45009200D01*
X-16754100Y49443442D02*
X-17035200Y49520436D01*
X-20813100Y-47593300D02*
X-19661700Y-47664300D01*
X50682000Y40664800D02*
X50639000Y40912480D01*
X63238734Y-17663785D02*
X63240493Y-17670561D01*
X11644500Y33243300D02*
X11034900Y33279900D01*
X31927000Y45931140D02*
X31722000Y45858800D01*
X-70548730Y-33288600D02*
X-69978660Y-33778300D01*
X55901423Y-23785029D02*
X55713392Y-23766485D01*
X55960000Y23900600D02*
X55854000Y24105700D01*
X-38621800Y-44875500D02*
X-37517400Y-45144800D01*
X58040000Y21112400D02*
X57906000Y21277200D01*
X66389000Y12923800D02*
X65931000Y13196400D01*
X-18918100Y28278200D02*
X-18688600Y28427500D01*
X-74838647Y-15073800D02*
X-74841881Y-16340500D01*
X16748000Y47316030D02*
X16031700Y47398480D01*
X-18688600Y28427500D02*
X-18436900Y28540800D01*
X18261400Y47028300D02*
X17535800Y47184110D01*
X-73841080Y-2214600D02*
X-73997630Y-3230400D01*
X-15424700Y38012600D02*
X-15144300Y38187400D01*
X62306142Y-16904185D02*
X62494182Y-16922726D01*
X53749000Y26750300D02*
X54121000Y27114400D01*
X-44056500Y-43369300D02*
X-43356800Y-43617600D01*
X55154000Y24900800D02*
X54933000Y25069600D01*
X-51507600Y38378300D02*
X-51188100Y38274500D01*
X-1870100Y42837940D02*
X-2865100Y42392900D01*
X66484000Y-36124700D02*
X67329000Y-35746700D01*
X56601000Y36090600D02*
X56353000Y36326300D01*
X-34076400Y44912350D02*
X-34250300Y44938950D01*
X7473200Y27173000D02*
X11450600Y27188600D01*
X-69989000Y11395200D02*
X-70258200Y10961500D01*
X12505200Y27182600D02*
X13394200Y27164400D01*
X33932000Y-45892600D02*
X34777000Y-45740400D01*
X52819067Y-17591006D02*
X52777435Y-17457703D01*
X-72105720Y6063500D02*
X-72404960Y4919900D01*
X29389000Y45246780D02*
X29099000Y45591050D01*
X-55841000Y31994100D02*
X-56016900Y31639500D01*
X37400000Y43637360D02*
X37152000Y43970950D01*
X-19006800Y28369300D02*
X-18918100Y28278200D01*
X-51668700Y38449300D02*
X-51507600Y38378300D01*
X56005000Y37132400D02*
X56100000Y37378700D01*
X50695000Y40386390D02*
X50682000Y40664800D01*
X26242000Y26347400D02*
X27756000Y26077000D01*
X-53043200Y41430580D02*
X-53052200Y41252640D01*
X53865729Y-20212317D02*
X53848817Y-20147176D01*
X67523000Y12181200D02*
X66389000Y12923800D01*
X62835109Y-17064173D02*
X62978637Y-17181595D01*
X47324000Y-42557900D02*
X50604000Y-41414700D01*
X55060182Y-20947843D02*
X54995317Y-20965781D01*
X56287000Y22908700D02*
X56143000Y23439500D01*
X68280000Y11652500D02*
X67523000Y12181200D01*
X62131458Y-14836094D02*
X62133142Y-14842579D01*
X-16920600Y31128300D02*
X-17749500Y31229500D01*
X-47492700Y43014770D02*
X-47575500Y43075240D01*
X63934690Y-19863721D02*
X64078125Y-19981180D01*
X52897832Y-16617010D02*
X53016318Y-16470773D01*
X-19389200Y31563700D02*
X-20235300Y31791100D01*
X38670000Y40288090D02*
X38602000Y40705020D01*
X12362700Y47254660D02*
X11388900Y47091130D01*
X5145700Y-48022900D02*
X7242800Y-48073800D01*
X64298434Y-21106714D02*
X64209657Y-21272208D01*
X57301000Y28868000D02*
X57467000Y29172800D01*
X-52400100Y35353200D02*
X-52687400Y34941600D01*
X-74774019Y-12128400D02*
X-74815890Y-13457100D01*
X-3788800Y-47910000D02*
X2666300Y-47961000D01*
X-54101100Y20595100D02*
X-54122600Y20584000D01*
X52422000Y40372850D02*
X51864000Y40327220D01*
X8316900Y46291660D02*
X7290200Y45993130D01*
X55873000Y38768300D02*
X55764000Y38935100D01*
X-61870900Y-38016400D02*
X-61007300Y-38240100D01*
X53894633Y-18163448D02*
X53701153Y-18183125D01*
X-14340900Y38042800D02*
X-14794800Y38027100D01*
X-56134100Y31284200D02*
X-56199400Y30901600D01*
X-15993300Y31057300D02*
X-16920600Y31128300D01*
X61575817Y-16032152D02*
X53959496Y-18145500D01*
X11034900Y33279900D02*
X9908900Y33287600D01*
X-53206000Y33763100D02*
X-53256100Y33727100D01*
X37833000Y42929570D02*
X37627000Y43290810D01*
X-14987500Y31037800D02*
X-15993300Y31057300D01*
X-70791910Y9904700D02*
X-71054200Y9286400D01*
X32335000Y46015580D02*
X32126000Y45982230D01*
X36584000Y44606050D02*
X36301000Y44873810D01*
X-52440700Y39929200D02*
X-52311000Y39828800D01*
X-74841881Y-16340500D02*
X-74823618Y-17411700D01*
X32571000Y46034680D02*
X32335000Y46015580D01*
X-23259100Y32801700D02*
X-21274900Y30731400D01*
X-10667500Y26202800D02*
X-9363600Y26340400D01*
X56977000Y-39007200D02*
X59393000Y-38123400D01*
X-37517400Y-45144800D02*
X-35049400Y-45697800D01*
X-52560200Y40041170D02*
X-52440700Y39929200D01*
X64340077Y-20470119D02*
X64341836Y-20476895D01*
X23757400Y48214020D02*
X23284900Y48273530D01*
X-13305600Y47115280D02*
X-13582500Y47398560D01*
X9366900Y46609800D02*
X8316900Y46291660D01*
X-49254800Y43622790D02*
X-49359900Y43605210D01*
X-14516000Y26167400D02*
X-14295000Y26121900D01*
X53919764Y-20393391D02*
X53878042Y-20259744D01*
X74510000Y-7639200D02*
X74404000Y-5523000D01*
X18328500Y-47915300D02*
X18983600Y-47852500D01*
X64354665Y-20926600D02*
X64298434Y-21106714D01*
X61572047Y-14176973D02*
X61735026Y-14264148D01*
X2898500Y32712000D02*
X1674300Y32518500D01*
X-51188100Y38274500D02*
X-50725700Y38117900D01*
X53172192Y-18023159D02*
X53028767Y-17905736D01*
X2666300Y-47961000D02*
X5145700Y-48022900D01*
X9908900Y33287600D02*
X8857400Y33277900D01*
X57992000Y32542200D02*
X57912000Y33205800D01*
X57273000Y35156800D02*
X57067000Y35498500D01*
X-49597300Y43283340D02*
X-49819100Y42858220D01*
X52767333Y-17418793D02*
X52765649Y-17412308D01*
X62112664Y-16923872D02*
X62306142Y-16904185D01*
X53331401Y-16255154D02*
X53457830Y-16213167D01*
X53867488Y-20219092D02*
X53865729Y-20212317D01*
X53997901Y-19417016D02*
X54116409Y-19270823D01*
X-17343100Y28562100D02*
X-17182300Y28503100D01*
X50639000Y40912480D02*
X50559000Y41157430D01*
X-48009700Y42887360D02*
X-48286400Y42694390D01*
X57802000Y17300200D02*
X57940000Y17558500D01*
X-2865100Y42392900D02*
X-4112800Y41806210D01*
X63231698Y-17636684D02*
X63233457Y-17643459D01*
X62134825Y-14849064D02*
X62136509Y-14855549D01*
X-11887800Y43119060D02*
X-11884900Y43495170D01*
X-49819100Y42858220D02*
X-50030300Y42443170D01*
X57785000Y33816200D02*
X57602000Y34419100D01*
X-29607800Y45910090D02*
X-29663800Y45901900D01*
X73519000Y2012500D02*
X73217000Y3301400D01*
X-70975780Y-32859000D02*
X-70785360Y-33062100D01*
X36020000Y-45448700D02*
X38014000Y-44929400D01*
X52731837Y-17152353D02*
X52752809Y-16962557D01*
X-52657700Y42360560D02*
X-52757300Y42226250D01*
X24597800Y29802700D02*
X23954500Y30121700D01*
X44098000Y43040520D02*
X43333000Y42760810D01*
X-20353800Y49932007D02*
X-20782200Y49910420D01*
X64082000Y13896000D02*
X63758000Y13938700D01*
X-11404800Y38613300D02*
X-12228000Y38384700D01*
X55252000Y39483600D02*
X54985000Y39685600D01*
X38757000Y39727400D02*
X38670000Y40288090D01*
X74768000Y-17046900D02*
X74717000Y-13195000D01*
X72869000Y4741800D02*
X72710000Y5326300D01*
X64334800Y-20449793D02*
X64336559Y-20456568D01*
X-19661700Y-47664300D02*
X-18777900Y-47691600D01*
X-14910500Y48522360D02*
X-15413800Y48822100D01*
X72551000Y5846300D02*
X72387000Y6321200D01*
X56968000Y28436000D02*
X57143000Y28632600D01*
X55535448Y-23712266D02*
X55372459Y-23625051D01*
X53852900Y-19762611D02*
X53909132Y-19582497D01*
X-54617700Y33283200D02*
X-54811400Y33133800D01*
X38335000Y41740760D02*
X38186000Y42156260D01*
X29845000Y44573280D02*
X29641000Y44902520D01*
X-49094200Y43524490D02*
X-49196800Y43607090D01*
X55965000Y38598800D02*
X55873000Y38768300D01*
X-74561943Y-8658800D02*
X-74695286Y-10668700D01*
X18555800Y32101000D02*
X17957800Y32264400D01*
X58313000Y20570000D02*
X58242000Y20762100D01*
X-52844700Y26991800D02*
X-53047400Y26534100D01*
X-5070100Y26714400D02*
X-1668000Y26920000D01*
X-8474000Y39744200D02*
X-9472000Y39319600D01*
X42588000Y42430230D02*
X41834000Y42033440D01*
X62448000Y13903300D02*
X62215000Y14369400D01*
X-28220000Y47259120D02*
X-28669900Y46859700D01*
X-47812200Y43017340D02*
X-48009700Y42887360D01*
X-29663800Y45901900D02*
X-31535100Y45126410D01*
X-51995400Y42860800D02*
X-52147000Y42786460D01*
X-47621700Y43084210D02*
X-47674700Y43078030D01*
X56891000Y21957400D02*
X56593000Y22040500D01*
X59794000Y-37990200D02*
X60101000Y-37906800D01*
X-51659600Y38768300D02*
X-51719600Y38569400D01*
X50559000Y41157430D02*
X50433000Y41427650D01*
X-11924900Y42753650D02*
X-11887800Y43119060D01*
X-68743980Y-34664900D02*
X-68059510Y-35101800D01*
X-7178300Y40357200D02*
X-8474000Y39744200D01*
X71608000Y8046400D02*
X71417000Y8389100D01*
X53871006Y-20232643D02*
X53869247Y-20225867D01*
X26433000Y47462100D02*
X25950000Y47652420D01*
X61206065Y-14104181D02*
X61394202Y-14122737D01*
X-20782200Y49910420D02*
X-21220700Y49872802D01*
X58268000Y18521700D02*
X58341000Y18873300D01*
X-27717300Y47635650D02*
X-28220000Y47259120D01*
X-33594900Y44736300D02*
X-33747800Y44810130D01*
X24344900Y48103230D02*
X23757400Y48214020D01*
X61059000Y-37785900D02*
X61407000Y-37728600D01*
X-53052200Y41252640D02*
X-53043500Y41078060D01*
X62846221Y-18741085D02*
X62676502Y-18834497D01*
X-56141700Y29619100D02*
X-56083600Y29361400D01*
X-74301636Y-5425700D02*
X-74427696Y-6820400D01*
X56100000Y37378700D02*
X56147000Y37632400D01*
X53869247Y-20225867D02*
X53867488Y-20219092D01*
X-62208800Y18392300D02*
X-62654000Y17923400D01*
X74802000Y-21462300D02*
X74794000Y-19364200D01*
X-64461100Y-37153300D02*
X-64047400Y-37326300D01*
X62215000Y14369400D02*
X62014000Y14748100D01*
X-14440400Y38656400D02*
X-14131800Y38896700D01*
X-49359900Y43605210D02*
X-49407500Y43571900D01*
X-71251850Y-32515700D02*
X-70975780Y-32859000D01*
X58152000Y20941800D02*
X58040000Y21112400D01*
X28523000Y46167020D02*
X28281000Y46373130D01*
X-71311970Y8611600D02*
X-71564120Y7882700D01*
X57467000Y29172800D02*
X57665000Y29592300D01*
X14240500Y47428280D02*
X13312900Y47366980D01*
X52765649Y-17412308D02*
X52748745Y-17347196D01*
X-74015465Y-25648500D02*
X-73789750Y-26597300D01*
X55702000Y27768100D02*
X55851000Y27791800D01*
X-60723300Y19539100D02*
X-61099300Y19330700D01*
X58418000Y19564700D02*
X58417000Y19885100D01*
X-51941800Y-40049600D02*
X-50929400Y-40369000D01*
X-56010000Y29117800D02*
X-55921200Y28889600D01*
X-17029300Y28429300D02*
X-16885100Y28341500D01*
X-52423200Y42597500D02*
X-52546100Y42484600D01*
X60101000Y-37906800D02*
X60392000Y-37856200D01*
X13659300Y33068000D02*
X12739900Y33146600D01*
X62129774Y-14829609D02*
X62131458Y-14836094D01*
X-50725700Y38117900D02*
X-50681600Y37927300D01*
X13392100Y-48063300D02*
X15063200Y-48030000D01*
X-55699100Y28484400D02*
X-55558200Y28292200D01*
X-12430500Y45846730D02*
X-12555000Y46107600D01*
X-51512100Y39144600D02*
X-51659600Y38768300D01*
X-14777900Y38420000D02*
X-14440400Y38656400D01*
X-25707900Y48715770D02*
X-26122100Y48532080D01*
X30276000Y25501700D02*
X30399240Y25481560D01*
X73217000Y3301400D02*
X72869000Y4741800D01*
X-52765500Y40296260D02*
X-52668700Y40163790D01*
X-61099300Y19330700D02*
X-61429200Y19103600D01*
X-44708000Y-43114200D02*
X-44056500Y-43369300D01*
X74457000Y-27143700D02*
X74546000Y-26531200D01*
X-54439300Y33399500D02*
X-54617700Y33283200D01*
X74761000Y-24288500D02*
X74790000Y-23163100D01*
X60651000Y16198800D02*
X60285000Y16432500D01*
X64078125Y-19981180D02*
X64197441Y-20126026D01*
X30399240Y25481560D02*
X29896000Y26046600D01*
X63259164Y-17742477D02*
X63276053Y-17937247D01*
X61819000Y15059300D02*
X61605000Y15335000D01*
X-69349210Y-34259800D02*
X-68743980Y-34664900D01*
X-69719710Y11762400D02*
X-69989000Y11395200D01*
X29099000Y45591050D02*
X28785000Y45920300D01*
X60285000Y16432500D02*
X59921000Y16615700D01*
X29128000Y-46615600D02*
X32783000Y-46078500D01*
X-54097200Y21722600D02*
X-54093500Y21257500D01*
X71599000Y-32677700D02*
X71947000Y-32276300D01*
X-53708700Y24511300D02*
X-53829200Y23983900D01*
X-74204232Y-24681800D02*
X-74015465Y-25648500D01*
X-69978660Y-33778300D02*
X-69349210Y-34259800D01*
X-28669900Y46859700D02*
X-29554600Y45902170D01*
X35139000Y45664120D02*
X34833000Y45796410D01*
X64287802Y-20295820D02*
X64329523Y-20429467D01*
X63147384Y-19741369D02*
X63212249Y-19723430D01*
X51316000Y40236540D02*
X51067000Y40177080D01*
X-72337320Y-30721200D02*
X-72064370Y-31264400D01*
X-65862310Y14230100D02*
X-66105330Y14034900D01*
X74794000Y-19364200D02*
X74768000Y-17046900D01*
X54678000Y27716400D02*
X54787000Y27850700D01*
X-35864000Y44194380D02*
X-36151600Y43859450D01*
X-67648100Y13019400D02*
X-68103770Y12764200D01*
X53831931Y-19952415D02*
X53852900Y-19762611D01*
X-52920300Y40587520D02*
X-52849600Y40437770D01*
X-63447900Y-37541700D02*
X-62703500Y-37777700D01*
X58031000Y31779600D02*
X57992000Y32542200D01*
X-20235300Y31791100D02*
X-21230200Y32079000D01*
X63276053Y-17937247D02*
X63255081Y-18127042D01*
X-52910200Y34564500D02*
X-53052200Y34235000D01*
X-29554500Y45901900D02*
X-29554500Y45901900D01*
X63236975Y-17657010D02*
X63238734Y-17663785D01*
X55745000Y36698300D02*
X55858000Y36880300D01*
X18559200Y46949440D02*
X18261400Y47028300D01*
X-42864200Y-43777700D02*
X-42373300Y-43921500D01*
X-35049400Y-45697800D02*
X-32419000Y-46231000D01*
X-11666700Y26119300D02*
X-10667500Y26202800D01*
X54952494Y-22562170D02*
X55008725Y-22382055D01*
X-55257100Y27966000D02*
X-55096000Y27831300D01*
X-16112800Y26889800D02*
X-16137900Y26641000D01*
X54970600Y-23032201D02*
X54968841Y-23025426D01*
X-65632930Y14437900D02*
X-65862310Y14230100D01*
X7242800Y-48073800D02*
X10683300Y-48077300D01*
X69893000Y10288000D02*
X69410000Y10749200D01*
X-52843800Y42082510D02*
X-52916500Y41930220D01*
X38186000Y42156260D02*
X38019000Y42551960D01*
X54427000Y25388000D02*
X53928000Y25642100D01*
X21910200Y30990600D02*
X20755700Y31394000D01*
X57665000Y29592300D02*
X57809000Y29978800D01*
X-43356800Y-43617600D02*
X-42864200Y-43777700D01*
X54116409Y-19270823D02*
X54261760Y-19148567D01*
X-12220800Y45257780D02*
X-12320800Y45566140D01*
X20996300Y48043520D02*
X20590700Y47897080D01*
X53161687Y-16348585D02*
X53331401Y-16255154D01*
X-17684800Y28632000D02*
X-17510800Y28605400D01*
X-13378000Y39640900D02*
X-13183900Y39896900D01*
X56753000Y28248000D02*
X56968000Y28436000D01*
X-50929400Y-40369000D02*
X-50457600Y-40540100D01*
X52756000Y25987100D02*
X53018000Y26169100D01*
X18791400Y46874200D02*
X18559200Y46949440D01*
X-18270000Y49778303D02*
X-18710900Y49849249D01*
X54010124Y-20563185D02*
X53919764Y-20393391D01*
X8156300Y33254800D02*
X5664500Y33055700D01*
X-67195170Y13295000D02*
X-67648100Y13019400D01*
X-24472100Y-47327500D02*
X-22837400Y-47447600D01*
X38019000Y42551960D02*
X37833000Y42929570D01*
X-74718496Y-19173300D02*
X-74652965Y-20269200D01*
X53446000Y25829400D02*
X53214000Y25897100D01*
X21071800Y-47574000D02*
X22042600Y-47473000D01*
X64197441Y-20126026D02*
X64287802Y-20295820D01*
X25950000Y47652420D02*
X25441000Y47822600D01*
X-29554600Y45902170D02*
X-29554500Y45901900D01*
X-37101000Y43620960D02*
X-40536641Y42943884D01*
X53909132Y-19582497D02*
X53997901Y-19417016D01*
X-53928900Y23458200D02*
X-54006100Y22939600D01*
X28281000Y46373130D02*
X28027000Y46564890D01*
X54975877Y-23052527D02*
X54974118Y-23045752D01*
X2238900Y44430540D02*
X372700Y43735830D01*
X-12231800Y41662960D02*
X-12100700Y42024760D01*
X54272866Y-20825492D02*
X54129441Y-20708031D01*
X-26521800Y48337850D02*
X-27153900Y47993750D01*
X-68103770Y12764200D02*
X-68609280Y12501500D01*
X-53236600Y26051900D02*
X-53410900Y25550600D01*
X-52024600Y39665500D02*
X-51869500Y39604300D01*
X-46291300Y-42408800D02*
X-45417600Y-42808600D01*
X18977100Y46833230D02*
X18922300Y46834150D01*
X-12320800Y45566140D02*
X-12430500Y45846730D01*
X-41125000Y-44236500D02*
X-39603100Y-44618800D01*
X-73214850Y-28515600D02*
X-72933720Y-29296300D01*
X41834000Y42033440D02*
X41040000Y41555060D01*
X-13040000Y38212800D02*
X-13541000Y38127400D01*
X-50622800Y42865960D02*
X-50783600Y42924950D01*
X50604000Y-41414700D02*
X52074000Y-40882300D01*
X-54006100Y22939600D02*
X-54055600Y22509300D01*
X55713392Y-23766485D02*
X55535448Y-23712266D01*
X65931000Y13196400D02*
X65524000Y13414100D01*
X-66863290Y-35862000D02*
X-65818610Y-36473400D01*
X61012585Y-14123899D02*
X61206065Y-14104181D01*
X62494182Y-16922726D02*
X62672127Y-16976945D01*
X62676502Y-18834497D02*
X55060182Y-20947843D01*
X54044000Y40142970D02*
X53690000Y40243820D01*
X-74782832Y-18338700D02*
X-74718496Y-19173300D01*
X-61007300Y-38240100D02*
X-60018400Y-38465400D01*
X53959496Y-18145500D02*
X53894633Y-18163448D01*
X71417000Y8389100D02*
X71219000Y8708200D01*
X53457830Y-16213167D02*
X60947720Y-14141838D01*
X-56210000Y30172200D02*
X-56183900Y29889800D01*
X-19937400Y49937104D02*
X-20353800Y49932007D01*
X-10507200Y38918300D02*
X-11404800Y38613300D01*
X-65342440Y-36729300D02*
X-64891400Y-36955100D01*
X-65818610Y-36473400D02*
X-65342440Y-36729300D01*
X49762000Y42324180D02*
X49549000Y42512040D01*
X22338600Y48284870D02*
X21875600Y48238140D01*
X1674300Y32518500D02*
X179400Y32321800D01*
X-16725400Y-47739400D02*
X-13597000Y-47833600D01*
X39121000Y39993200D02*
X38775000Y39618200D01*
X74193000Y-2393900D02*
X74069000Y-1144000D01*
X-52659000Y27410500D02*
X-52844700Y26991800D01*
X-34870800Y44890130D02*
X-35070000Y44824410D01*
X-50865700Y36611200D02*
X-51205900Y36455900D01*
X-55212600Y32767800D02*
X-55577500Y32366300D01*
X63242252Y-17677336D02*
X63259164Y-17742477D01*
X-55577500Y32366300D02*
X-55726000Y32172500D01*
X54129441Y-20708031D02*
X54010124Y-20563185D01*
X55556000Y27760200D02*
X55702000Y27768100D01*
X63020000Y13962600D02*
X62710000Y13939700D01*
X44026000Y-43489900D02*
X44868000Y-43302000D01*
X-11982900Y44309740D02*
X-12084200Y44763300D01*
X-18777900Y-47691600D02*
X-16725400Y-47739400D01*
X19650600Y-47767900D02*
X21071800Y-47574000D01*
X57916000Y30391800D02*
X58006000Y30891200D01*
X74158000Y-28229400D02*
X74340000Y-27665700D01*
X-42373300Y-43921500D02*
X-41125000Y-44236500D01*
X52074000Y-40882300D02*
X53892000Y-40191400D01*
X63199000Y-37272900D02*
X64356000Y-36903800D01*
X46501000Y-42836000D02*
X47324000Y-42557900D01*
X55097492Y-22216565D02*
X55215977Y-22070285D01*
X-27153900Y47993750D02*
X-27717300Y47635650D01*
X58065000Y17854600D02*
X58175000Y18178900D01*
X-55558200Y28292200D02*
X-55411000Y28119500D01*
X-55817400Y28678100D02*
X-55699100Y28484400D01*
X21875600Y48238140D02*
X21426300Y48157450D01*
X72212000Y6770600D02*
X72019000Y7213800D01*
X65524000Y13414100D02*
X65152000Y13584800D01*
X-12699600Y46356830D02*
X-12869400Y46602480D01*
X64447000Y13817700D02*
X64082000Y13896000D01*
X50695000Y40058720D02*
X50695000Y40386390D01*
X74684000Y-11512100D02*
X74630000Y-10085800D01*
X52772384Y-17438248D02*
X52770700Y-17431763D01*
X-15850600Y26527300D02*
X-15483100Y26409900D01*
X-29845900Y-46697600D02*
X-28415000Y-46937500D01*
X29896000Y26046600D02*
X29225000Y26679100D01*
X17535800Y47184110D02*
X16748000Y47316030D01*
X-5605500Y41103550D02*
X-7178300Y40357200D01*
X30059000Y44682510D02*
X29903000Y44464060D01*
X-28415000Y-46937500D02*
X-27516700Y-47076300D01*
X55372459Y-23625051D02*
X55228938Y-23507616D01*
X55361353Y-21948126D02*
X55531063Y-21854717D01*
X-16885100Y28341500D02*
X-16750400Y28240700D01*
X52686000Y40375990D02*
X52422000Y40372850D01*
X-34661600Y44931890D02*
X-34870800Y44890130D01*
X-16626100Y28127700D02*
X-16513100Y28003400D01*
X-51719600Y38569400D02*
X-51705100Y38503800D01*
X-72982310Y2456100D02*
X-73245320Y1204700D01*
X30874000Y45443300D02*
X30563000Y45219510D01*
X-13541000Y38127400D02*
X-13948800Y38073500D01*
X72812000Y-31095100D02*
X73049000Y-30707600D01*
X-54564800Y27537900D02*
X-54370200Y27475900D01*
X-15144300Y38187400D02*
X-14777900Y38420000D01*
X61407000Y-37728600D02*
X62220000Y-37546800D01*
X40603000Y-44276400D02*
X42380000Y-43849000D01*
X62014000Y14748100D02*
X61819000Y15059300D01*
X52809062Y-16782527D02*
X52897832Y-16617010D01*
X11388900Y47091130D02*
X10390600Y46876240D01*
X53016318Y-16470773D02*
X53161687Y-16348585D01*
X53874524Y-20246194D02*
X53872765Y-20239418D01*
X55589000Y24481300D02*
X55383000Y24694200D01*
X54261760Y-19148567D02*
X54431470Y-19055158D01*
X47631000Y43339940D02*
X47175000Y43404590D01*
X10390600Y46876240D02*
X9366900Y46609800D01*
X63405726Y-19703743D02*
X63593767Y-19722284D01*
X-11916600Y43889550D02*
X-11982900Y44309740D01*
X-22130900Y32355000D02*
X-22694400Y32546900D01*
X-12555000Y46107600D02*
X-12699600Y46356830D01*
X-16750400Y28240700D02*
X-16626100Y28127700D01*
X-55096000Y27831300D02*
X-54927300Y27715300D01*
X-18549200Y31371200D02*
X-19389200Y31563700D01*
X-70526210Y10463900D02*
X-70791910Y9904700D01*
X70754000Y-33494900D02*
X71199000Y-33086000D01*
X-51497000Y42992960D02*
X-51669600Y42964910D01*
X-12502900Y26080500D02*
X-11666700Y26119300D01*
X20037400Y47616960D02*
X19862700Y47499040D01*
X50134000Y41904580D02*
X49957000Y42121630D01*
X55531063Y-21854717D02*
X55657494Y-21812698D01*
X49549000Y42512040D02*
X49318000Y42685070D01*
X62158464Y-14940116D02*
X62175372Y-15134959D01*
X55494000Y39257700D02*
X55252000Y39483600D01*
X34027000Y46019570D02*
X33851000Y46035970D01*
X62136509Y-14855549D02*
X62138193Y-14862034D01*
X-51366500Y39512400D02*
X-51512100Y39144600D01*
X-31535100Y45126410D02*
X-33191700Y44434700D01*
X58036000Y31237100D02*
X58031000Y31779600D01*
X-34429600Y44948020D02*
X-34444100Y44948020D01*
X55858000Y36880300D02*
X56005000Y37132400D01*
X31722000Y45858800D02*
X31224000Y45636380D01*
X61890893Y-15816545D02*
X61745521Y-15938723D01*
X-52651400Y-39843300D02*
X-51941800Y-40049600D01*
X54931522Y-22751964D02*
X54952494Y-22562170D01*
X15600100Y27063000D02*
X16855200Y27010500D01*
X73704000Y1187500D02*
X73519000Y2012500D01*
X4375800Y27130000D02*
X7473200Y27173000D01*
M02*
