G04 #@! TF.GenerationSoftware,KiCad,Pcbnew,5.1.10*
G04 #@! TF.CreationDate,2021-11-14T12:13:49+01:00*
G04 #@! TF.ProjectId,mch2021,6d636832-3032-4312-9e6b-696361645f70,3*
G04 #@! TF.SameCoordinates,Original*
G04 #@! TF.FileFunction,Paste,Top*
G04 #@! TF.FilePolarity,Positive*
%FSLAX46Y46*%
G04 Gerber Fmt 4.6, Leading zero omitted, Abs format (unit mm)*
G04 Created by KiCad (PCBNEW 5.1.10) date 2021-11-14 12:13:49*
%MOMM*%
%LPD*%
G01*
G04 APERTURE LIST*
%ADD10R,0.500000X0.500000*%
%ADD11R,2.000000X2.000000*%
%ADD12R,1.100000X2.000000*%
%ADD13C,0.100000*%
G04 APERTURE END LIST*
D10*
X-16783380Y25174720D03*
X-16783380Y26074720D03*
X-17683380Y26074720D03*
X-17683380Y25174720D03*
X-32909840Y41810020D03*
X-33809840Y41810020D03*
X-33809840Y40910020D03*
X-32909840Y40910020D03*
X-50218240Y39083760D03*
X-49318240Y39083760D03*
X-49318240Y39983760D03*
X-50218240Y39983760D03*
X-37576660Y33160480D03*
X-36676660Y33160480D03*
X-36676660Y34060480D03*
X-37576660Y34060480D03*
X-39991360Y25103600D03*
X-39991360Y26003600D03*
X-40891360Y26003600D03*
X-40891360Y25103600D03*
G36*
G01*
X27985000Y22390000D02*
X28260000Y22390000D01*
G75*
G02*
X28385000Y22265000I0J-125000D01*
G01*
X28385000Y22015000D01*
G75*
G02*
X28260000Y21890000I-125000J0D01*
G01*
X27985000Y21890000D01*
G75*
G02*
X27860000Y22015000I0J125000D01*
G01*
X27860000Y22265000D01*
G75*
G02*
X27985000Y22390000I125000J0D01*
G01*
G37*
G36*
G01*
X27985000Y21590000D02*
X28260000Y21590000D01*
G75*
G02*
X28385000Y21465000I0J-125000D01*
G01*
X28385000Y21215000D01*
G75*
G02*
X28260000Y21090000I-125000J0D01*
G01*
X27985000Y21090000D01*
G75*
G02*
X27860000Y21215000I0J125000D01*
G01*
X27860000Y21465000D01*
G75*
G02*
X27985000Y21590000I125000J0D01*
G01*
G37*
G36*
G01*
X27985000Y20790000D02*
X28260000Y20790000D01*
G75*
G02*
X28385000Y20665000I0J-125000D01*
G01*
X28385000Y20415000D01*
G75*
G02*
X28260000Y20290000I-125000J0D01*
G01*
X27985000Y20290000D01*
G75*
G02*
X27860000Y20415000I0J125000D01*
G01*
X27860000Y20665000D01*
G75*
G02*
X27985000Y20790000I125000J0D01*
G01*
G37*
G36*
G01*
X27985000Y19990000D02*
X28260000Y19990000D01*
G75*
G02*
X28385000Y19865000I0J-125000D01*
G01*
X28385000Y19615000D01*
G75*
G02*
X28260000Y19490000I-125000J0D01*
G01*
X27985000Y19490000D01*
G75*
G02*
X27860000Y19615000I0J125000D01*
G01*
X27860000Y19865000D01*
G75*
G02*
X27985000Y19990000I125000J0D01*
G01*
G37*
G36*
G01*
X30360000Y19990000D02*
X30635000Y19990000D01*
G75*
G02*
X30760000Y19865000I0J-125000D01*
G01*
X30760000Y19615000D01*
G75*
G02*
X30635000Y19490000I-125000J0D01*
G01*
X30360000Y19490000D01*
G75*
G02*
X30235000Y19615000I0J125000D01*
G01*
X30235000Y19865000D01*
G75*
G02*
X30360000Y19990000I125000J0D01*
G01*
G37*
G36*
G01*
X30360000Y20790000D02*
X30635000Y20790000D01*
G75*
G02*
X30760000Y20665000I0J-125000D01*
G01*
X30760000Y20415000D01*
G75*
G02*
X30635000Y20290000I-125000J0D01*
G01*
X30360000Y20290000D01*
G75*
G02*
X30235000Y20415000I0J125000D01*
G01*
X30235000Y20665000D01*
G75*
G02*
X30360000Y20790000I125000J0D01*
G01*
G37*
G36*
G01*
X30360000Y21590000D02*
X30635000Y21590000D01*
G75*
G02*
X30760000Y21465000I0J-125000D01*
G01*
X30760000Y21215000D01*
G75*
G02*
X30635000Y21090000I-125000J0D01*
G01*
X30360000Y21090000D01*
G75*
G02*
X30235000Y21215000I0J125000D01*
G01*
X30235000Y21465000D01*
G75*
G02*
X30360000Y21590000I125000J0D01*
G01*
G37*
G36*
G01*
X30360000Y22390000D02*
X30635000Y22390000D01*
G75*
G02*
X30760000Y22265000I0J-125000D01*
G01*
X30760000Y22015000D01*
G75*
G02*
X30635000Y21890000I-125000J0D01*
G01*
X30360000Y21890000D01*
G75*
G02*
X30235000Y22015000I0J125000D01*
G01*
X30235000Y22265000D01*
G75*
G02*
X30360000Y22390000I125000J0D01*
G01*
G37*
D11*
X-10733620Y-29473240D03*
X-4733620Y-29473240D03*
D12*
X35590000Y9500000D03*
X33890000Y9500000D03*
X32190000Y9500000D03*
X32190000Y14300000D03*
X33890000Y14300000D03*
X35590000Y14300000D03*
D13*
G36*
X-49240849Y-4503265D02*
G01*
X-50513641Y-3230473D01*
X-49099427Y-1816259D01*
X-47826635Y-3089051D01*
X-49240849Y-4503265D01*
G37*
G36*
X-54968413Y1224299D02*
G01*
X-56241205Y2497091D01*
X-54826991Y3911305D01*
X-53554199Y2638513D01*
X-54968413Y1224299D01*
G37*
G36*
X-50566673Y2479414D02*
G01*
X-51273780Y3186521D01*
X-49859567Y4600734D01*
X-49152460Y3893627D01*
X-50566673Y2479414D01*
G37*
G36*
X-49559046Y1471787D02*
G01*
X-50266153Y2178894D01*
X-48851940Y3593107D01*
X-48144833Y2886000D01*
X-49559046Y1471787D01*
G37*
G36*
X-48551419Y464160D02*
G01*
X-49258526Y1171267D01*
X-47844313Y2585480D01*
X-47137206Y1878373D01*
X-48551419Y464160D01*
G37*
G36*
X-54208273Y-5192694D02*
G01*
X-54915380Y-4485587D01*
X-53501167Y-3071374D01*
X-52794060Y-3778481D01*
X-54208273Y-5192694D01*
G37*
G36*
X-56223527Y-3177440D02*
G01*
X-56930634Y-2470333D01*
X-55516421Y-1056120D01*
X-54809314Y-1763227D01*
X-56223527Y-3177440D01*
G37*
G36*
X-55215900Y-4185067D02*
G01*
X-55923007Y-3477960D01*
X-54508794Y-2063747D01*
X-53801687Y-2770854D01*
X-55215900Y-4185067D01*
G37*
D11*
X53750000Y4880000D03*
X53750000Y-1120000D03*
X10266380Y-29473240D03*
X4266380Y-29473240D03*
X-17733620Y-29473240D03*
X-23733620Y-29473240D03*
X23266380Y-29473240D03*
X17266380Y-29473240D03*
X43750000Y1680000D03*
X43750000Y-4320000D03*
M02*
