M48
METRIC,TZ
T1C0.200
T2C0.300
T3C0.600
T4C1.000
T5C1.016
%
G90
G05
T1
X-55090Y514
X-54734Y-928
X-53593Y-1952
X-52748Y-3004
X-52550Y8530
X-52500Y9500
X-52500Y7500
X-52500Y6500
X-52500Y5500
X-51455Y2363
X-50868Y39534
X-50485Y1335
X-49768Y40634
X-49768Y38434
X-49408Y-1386
X-49349Y380
X-48668Y39534
X-47850Y6505
X-47218Y11840
X-47200Y12530
X-46925Y-10245
X-46900Y4055
X-45975Y780
X-45550Y6330
X-45382Y22986
X-45018Y11870
X-44975Y12555
X-44450Y2880
X-43625Y6930
X-43375Y-1395
X-42633Y11578
X-42550Y12230
X-42095Y30822
X-42075Y2655
X-41950Y8330
X-41720Y11738
X-41541Y25554
X-40775Y6455
X-40690Y11718
X-40600Y3755
X-40441Y26654
X-40441Y24454
X-40325Y-1095
X-39575Y105
X-39341Y25554
X-38227Y33610
X-38100Y2830
X-37127Y34710
X-37127Y32510
X-37050Y180
X-37050Y-1195
X-36467Y3086
X-36378Y-1500
X-36027Y33610
X-35150Y3705
X-35150Y1280
X-35050Y-1520
X-34775Y2430
X-34650Y30
X-34548Y814
X-34460Y41360
X-34425Y1680
X-33500Y-1345
X-33360Y42460
X-33360Y40260
X-33100Y1355
X-32260Y41360
X-30960Y690
X-30140Y-1545
X-29475Y38305
X-29025Y2180
X-29025Y-1220
X-28875Y37655
X-28590Y-5231
X-28560Y-4320
X-28475Y-13595
X-24753Y-898
X-24603Y12065
X-24255Y-481
X-24209Y11548
X-23765Y9710
X-23278Y10141
X-23150Y115
X-23099Y-31219
X-22989Y-788
X-22765Y1210
X-22200Y16630
X-22050Y-6180
X-21000Y-25000
X-20818Y-20740
X-20000Y-25000
X-19360Y-29030
X-19000Y-25000
X-18853Y-6815
X-18333Y25625
X-18000Y-25000
X-17900Y16630
X-17510Y400
X-17233Y26725
X-17233Y24525
X-17000Y-25000
X-16830Y-38550
X-16800Y1055
X-16780Y-36490
X-16133Y25625
X-16098Y-13150
X-16040Y-24730
X-15952Y-36288
X-15850Y955
X-15775Y-8195
X-15710Y-14280
X-15404Y-8836
X-15392Y-18647
X-15150Y1080
X-14666Y2568
X-14662Y-26328
X-14590Y-12761
X-14575Y-16937
X-14310Y-18230
X-14287Y-26896
X-14265Y-13323
X-14228Y-7138
X-14205Y-12055
X-14117Y-4224
X-13700Y-7645
X-13680Y-11290
X-13580Y-8352
X-13505Y-26914
X-13330Y-31045
X-13271Y-26243
X-12975Y-8670
X-12960Y-20990
X-12630Y-29381
X-12425Y3405
X-12375Y-30345
X-12340Y-20720
X-12250Y-28854
X-11750Y-9820
X-11500Y-27995
X-11488Y-34765
X-11450Y-35798
X-11325Y3255
X-11143Y-10920
X-11102Y-10271
X-11069Y-22425
X-11036Y-9624
X-10910Y-23980
X-10725Y-8336
X-10498Y-43401
X-10460Y-28110
X-10210Y-27470
X-10160Y-45190
X-10135Y-20955
X-10000Y-22445
X-9975Y-8920
X-9488Y-13665
X-9378Y-33070
X-8956Y-27090
X-8954Y-25794
X-8929Y-24969
X-8907Y-26442
X-8858Y-20585
X-8790Y-19670
X-8740Y-16553
X-8611Y-33070
X-8559Y-18586
X-8510Y-43090
X-8420Y-24010
X-8375Y-17945
X-8199Y-38510
X-8027Y-35775
X-7750Y-20360
X-7750Y-21430
X-7570Y-38674
X-7525Y-15943
X-7449Y-36137
X-7405Y-18276
X-6890Y-45400
X-6650Y-44490
X-6375Y11105
X-5900Y13305
X-5809Y-21835
X-5606Y-26672
X-5521Y-23785
X-5363Y-24835
X-5217Y-33070
X-5109Y-18357
X-4695Y10877
X-4445Y3160
X-4290Y-36280
X-4259Y-23552
X-3558Y-11340
X-3500Y-20600
X-3460Y-25790
X-3336Y-750
X-3320Y-27115
X-3225Y-30345
X-3165Y-25192
X-3034Y-24555
X-2800Y-20400
X-2768Y-10610
X-2486Y-23618
X-2300Y-19400
X-1896Y16551
X-1895Y-33119
X-1585Y-2470
X-1583Y-20848
X-1579Y-19398
X-1550Y-16820
X-1323Y3668
X-1243Y17512
X-998Y-19065
X-875Y-32270
X-763Y-20729
X-752Y-27600
X-710Y-15923
X-676Y17771
X-522Y9945
X-377Y-18875
X-325Y-32544
X-207Y-15398
X-200Y-31590
X45Y10262
X48Y-18383
X56Y-17569
X70Y18506
X186Y13124
X332Y20037
X353Y-28345
X381Y-27132
X600Y-15395
X755Y-11055
X830Y2680
X870Y4270
X870Y-28848
X1049Y-26894
X1250Y-2830
X1274Y-14549
X1304Y-23255
X1324Y22556
X1352Y-10798
X1501Y-33070
X1557Y-22647
X1695Y12925
X1695Y9194
X1725Y-25995
X1827Y-31275
X2120Y-35145
X2225Y15530
X2550Y-2530
X2568Y-30341
X2614Y-26927
X2838Y14917
X2849Y15906
X2896Y-12395
X2985Y23290
X3011Y-27452
X3098Y-19276
X3296Y-13341
X3432Y-26190
X3587Y-19766
X3695Y-2540
X3717Y14497
X3929Y-14341
X4025Y2630
X4330Y13310
X4395Y-14794
X4458Y-10362
X4500Y-22404
X4810Y-16030
X4813Y20565
X5110Y-19227
X5175Y18255
X5208Y17580
X5288Y-22404
X5375Y23505
X5900Y19830
X6240Y14470
X6641Y-20068
X6784Y-45105
X6784Y-45890
X7143Y-19655
X7190Y14470
X7600Y-20220
X7647Y-22440
X7800Y23505
X8024Y-21875
X8494Y-37419
X8559Y-32664
X8780Y-29420
X9470Y-40000
X9804Y-21262
X9850Y-24690
X9862Y15167
X9929Y-17835
X10114Y-17212
X10120Y13655
X10129Y22609
X10460Y-24730
X10533Y-14907
X10850Y-8670
X11090Y21120
X11090Y19695
X11090Y17920
X11200Y-24590
X11245Y14135
X11256Y-32615
X11325Y-11220
X11433Y10815
X11464Y-3636
X11997Y11165
X12119Y-18466
X12123Y14135
X12130Y-13343
X12675Y-7070
X12820Y-40000
X12850Y8180
X13078Y-21250
X13630Y12870
X13700Y-18770
X13903Y-21343
X14720Y11730
X14920Y-32500
X14944Y-18639
X15086Y-11258
X15175Y-8320
X15325Y-3845
X15720Y-21580
X15900Y-6670
X16336Y-14398
X16350Y-13670
X16450Y-2220
X16660Y-15130
X17125Y-13495
X17841Y-13469
X17900Y-11545
X18375Y-3395
X18400Y-1445
X18450Y-31060
X18500Y-4895
X18500Y-12070
X18854Y-41768
X19155Y-9485
X19360Y12980
X19460Y4591
X19650Y-2270
X19860Y-1200
X19950Y-5902
X20347Y3393
X20525Y-9070
X20800Y-34945
X20800Y-36995
X20872Y3813
X21300Y-29733
X21325Y-6445
X21520Y10570
X21540Y-4730
X21574Y-1246
X21621Y16035
X21692Y-2110
X21988Y-7672
X22050Y3600
X22223Y-5688
X22332Y4418
X22345Y-1290
X24200Y10460
X24405Y-38145
X24405Y-42165
X24889Y-7344
X24969Y-5255
X25000Y-6000
X25587Y-19208
X25929Y-14699
X25942Y-5043
X26037Y-42050
X26058Y-30650
X26185Y-7195
X26950Y-9390
X27000Y-13220
X27019Y-41299
X27358Y-22237
X27470Y17587
X27570Y-5447
X27775Y-8020
X27800Y-1005
X27836Y-30495
X27836Y-31006
X28037Y1600
X28161Y-11970
X28350Y-5050
X28583Y-16887
X28655Y-7165
X28820Y22260
X28950Y20140
X28987Y17587
X29175Y-11920
X29383Y-16887
X29535Y-22460
X29550Y21960
X29617Y2780
X29655Y20527
X29690Y19760
X29810Y21300
X30323Y2795
X30844Y-8459
X30848Y1444
X30848Y-1101
X31294Y-10296
X31325Y-10945
X31450Y-8695
X31630Y5520
X31928Y-16623
X31964Y-9103
X32070Y-4340
X32285Y-22460
X32500Y5700
X32895Y-7005
X32952Y-4978
X33116Y-11829
X33250Y5700
X33625Y-12145
X33735Y-7000
X33840Y16035
X34000Y5700
X34025Y-21970
X34460Y-9030
X34860Y-6830
X34875Y-16895
X34875Y-18295
X34875Y-20020
X35520Y5150
X36000Y-14780
X36510Y-17820
X36520Y7440
X36550Y-11450
X37510Y-4620
X37590Y-15070
X37990Y-11090
X38047Y-4225
X38320Y-5370
X38425Y-26045
X38675Y-6003
X38720Y-11450
X38810Y-17880
X39335Y-5285
X40080Y-11170
X40135Y-1820
X40135Y-2800
X40160Y-8340
X40620Y-13870
X40880Y-10800
X41240Y-17820
X41250Y-9580
X41295Y-6455
X41310Y-13160
X41390Y-15830
X41450Y1880
X41680Y-2020
X41850Y-3920
X42100Y1880
X42120Y-3100
X42250Y-420
X42360Y-2150
X43570Y-17770
X43910Y-15390
X45445Y-2975
X45910Y-16740
X46255Y-4290
X46270Y-15660
X46420Y-5030
X46850Y3180
X46897Y-5471
X47350Y1680
X47660Y-7420
X49300Y-5320
X51000Y-12500
X51000Y-15000
X51225Y-7320
X51550Y-1845
X54501Y-18271
X54940Y-17720
X55000Y-12500
X55000Y-15000
X55000Y-21000
X56440Y-7960
X57500Y-17750
X57500Y-18710
X58500Y-12500
X58500Y-15000
T2
X-53632Y-12380
X-52225Y14130
X-50768Y10979
X-50768Y6678
X-49425Y-10445
X-48975Y-9820
X-48425Y-10420
X-47599Y28012
X-47475Y25579
X-46118Y12135
X-37168Y11000
X-37168Y6500
X-35975Y14430
X-31400Y11980
X-30269Y4864
X-30250Y6255
X-28768Y16541
X-28400Y15605
X-26073Y-42210
X-22625Y-16445
X-22019Y-13744
X-21924Y-11733
X-21036Y-13070
X-20828Y-11537
X-20091Y-12273
X-17815Y10456
X-17815Y9520
X-17815Y8584
X-16879Y10456
X-16879Y9520
X-16879Y8584
X-16024Y-20740
X-15943Y10456
X-15943Y9520
X-15943Y8584
X-12853Y16810
X-11999Y12705
X-11335Y-716
X-11210Y-13195
X-9440Y-42990
X-6367Y16965
X-5201Y-1928
X-2477Y16076
X-1731Y-12487
X-910Y-12266
X10Y-37290
X489Y-20452
X1120Y21390
X1230Y20290
X1240Y19480
X1272Y18665
X2620Y-21680
X5233Y14530
X5256Y19629
X11111Y-27319
X11559Y1182
X14361Y-28742
X14500Y21060
X15940Y-18810
X16580Y-26120
X20700Y-24795
X20880Y-22270
X21325Y20830
X21695Y5054
X21780Y-16770
X21935Y-8467
X22139Y-9395
X22252Y21000
X22253Y-10695
X22373Y-3196
X22401Y-7075
X25400Y10737
X25587Y-16905
X26365Y10343
X26500Y-3000
X26901Y-30002
X27290Y-3000
X27790Y-280
X28201Y-28956
X30507Y12930
X30705Y-12819
X30705Y-16908
X31125Y-17795
X31470Y-12830
X32150Y-12780
X32851Y-12829
X34663Y-16033
X35223Y174
X39230Y4640
X40700Y1780
X42271Y4704
X42274Y706
X47412Y5652
X47412Y4443
X49644Y5652
X49644Y4443
T3
X-32840Y14296
X-26000Y-35000
X-26000Y-40500
X-23800Y-15470
X-14650Y-39850
X-14630Y-36390
X-11315Y15750
X-9734Y-35683
X-6610Y-40970
X-4080Y-38260
X-2490Y-37690
X2480Y-37690
X3830Y-38000
X9025Y20580
X31878Y-20810
T4
X58190Y5020
X58543Y2505
X58897Y-11
X59250Y-2526
X59604Y-5041
X59957Y-7556
X60705Y5374
X61059Y2858
X61412Y343
X61766Y-2172
X62119Y-4688
X62473Y-7203
T5
X43692Y32472
X43692Y29932
X46232Y32472
X46232Y29932
X48772Y32472
X48772Y29932
T3
G00X-4320Y-40420
M15
G01X-4320Y-39320
M16
G05
G00X-4320Y-44350
M15
G01X-4320Y-43750
M16
G05
G00X4320Y-40420
M15
G01X4320Y-39320
M16
G05
G00X4320Y-44350
M15
G01X4320Y-43750
M16
G05
T0
M30
