G04 #@! TF.GenerationSoftware,KiCad,Pcbnew,5.1.10*
G04 #@! TF.CreationDate,2021-11-14T12:13:50+01:00*
G04 #@! TF.ProjectId,mch2021,6d636832-3032-4312-9e6b-696361645f70,3*
G04 #@! TF.SameCoordinates,Original*
G04 #@! TF.FileFunction,Other,User*
%FSLAX46Y46*%
G04 Gerber Fmt 4.6, Leading zero omitted, Abs format (unit mm)*
G04 Created by KiCad (PCBNEW 5.1.10) date 2021-11-14 12:13:50*
%MOMM*%
%LPD*%
G01*
G04 APERTURE LIST*
%ADD10C,0.050000*%
%ADD11C,0.120000*%
G04 APERTURE END LIST*
D10*
X38650000Y38450000D02*
X38650000Y35550000D01*
X43350000Y38450000D02*
X38650000Y38450000D01*
X43350000Y35550000D02*
X43350000Y38450000D01*
X38650000Y35550000D02*
X43350000Y35550000D01*
X-43350000Y38450000D02*
X-43350000Y35550000D01*
X-38650000Y38450000D02*
X-43350000Y38450000D01*
X-38650000Y35550000D02*
X-38650000Y38450000D01*
X-43350000Y35550000D02*
X-38650000Y35550000D01*
X-6070000Y-275000D02*
X-5130000Y-275000D01*
X-5130000Y-275000D02*
X-5130000Y1585000D01*
X-5130000Y1585000D02*
X-6070000Y1585000D01*
X-6070000Y1585000D02*
X-6070000Y-275000D01*
X-5069020Y2635900D02*
X-5069020Y635900D01*
X-5069020Y2635900D02*
X-3069020Y2635900D01*
X-3069020Y635900D02*
X-5069020Y635900D01*
X-3069020Y635900D02*
X-3069020Y2635900D01*
X-30204860Y-17344760D02*
X-28204860Y-17344760D01*
X-30204860Y-17344760D02*
X-30204860Y-15344760D01*
X-28204860Y-15344760D02*
X-28204860Y-17344760D01*
X-28204860Y-15344760D02*
X-30204860Y-15344760D01*
X-5130000Y-33870000D02*
X-6070000Y-33870000D01*
X-6070000Y-33870000D02*
X-6070000Y-35730000D01*
X-6070000Y-35730000D02*
X-5130000Y-35730000D01*
X-5130000Y-35730000D02*
X-5130000Y-33870000D01*
X-2030000Y-34571900D02*
X-2030000Y-33631900D01*
X-2030000Y-33631900D02*
X-3890000Y-33631900D01*
X-3890000Y-33631900D02*
X-3890000Y-34571900D01*
X-3890000Y-34571900D02*
X-2030000Y-34571900D01*
X-54930000Y5970000D02*
X-54930000Y5030000D01*
X-54930000Y5030000D02*
X-53070000Y5030000D01*
X-53070000Y5030000D02*
X-53070000Y5970000D01*
X-53070000Y5970000D02*
X-54930000Y5970000D01*
X-54930000Y6970000D02*
X-54930000Y6030000D01*
X-54930000Y6030000D02*
X-53070000Y6030000D01*
X-53070000Y6030000D02*
X-53070000Y6970000D01*
X-53070000Y6970000D02*
X-54930000Y6970000D01*
X-54930000Y7970000D02*
X-54930000Y7030000D01*
X-54930000Y7030000D02*
X-53070000Y7030000D01*
X-53070000Y7030000D02*
X-53070000Y7970000D01*
X-53070000Y7970000D02*
X-54930000Y7970000D01*
X-54930000Y8970000D02*
X-54930000Y8030000D01*
X-54930000Y8030000D02*
X-53070000Y8030000D01*
X-53070000Y8030000D02*
X-53070000Y8970000D01*
X-53070000Y8970000D02*
X-54930000Y8970000D01*
X-54930000Y9970000D02*
X-54930000Y9030000D01*
X-54930000Y9030000D02*
X-53070000Y9030000D01*
X-53070000Y9030000D02*
X-53070000Y9970000D01*
X-53070000Y9970000D02*
X-54930000Y9970000D01*
X-54930000Y10970000D02*
X-54930000Y10030000D01*
X-54930000Y10030000D02*
X-53070000Y10030000D01*
X-53070000Y10030000D02*
X-53070000Y10970000D01*
X-53070000Y10970000D02*
X-54930000Y10970000D01*
X-43443340Y31000000D02*
X-41443340Y31000000D01*
X-43443340Y31000000D02*
X-43443340Y33000000D01*
X-41443340Y33000000D02*
X-41443340Y31000000D01*
X-41443340Y33000000D02*
X-43443340Y33000000D01*
X-41355460Y31000000D02*
X-39355460Y31000000D01*
X-41355460Y31000000D02*
X-41355460Y33000000D01*
X-39355460Y33000000D02*
X-39355460Y31000000D01*
X-39355460Y33000000D02*
X-41355460Y33000000D01*
X-29100000Y38645000D02*
X-29100000Y39565000D01*
X-29100000Y39565000D02*
X-30920000Y39565000D01*
X-30920000Y39565000D02*
X-30920000Y38645000D01*
X-30920000Y38645000D02*
X-29100000Y38645000D01*
X56157006Y6551971D02*
X70862487Y8618691D01*
X70862487Y8618691D02*
X73124050Y-7473165D01*
X73124050Y-7473165D02*
X58418569Y-9539885D01*
X58418569Y-9539885D02*
X56157006Y6551971D01*
X-28506460Y-43205620D02*
X-27566460Y-43205620D01*
X-27566460Y-43205620D02*
X-27566460Y-41345620D01*
X-27566460Y-41345620D02*
X-28506460Y-41345620D01*
X-28506460Y-41345620D02*
X-28506460Y-43205620D01*
X24882460Y-38746140D02*
X23942460Y-38746140D01*
X23942460Y-38746140D02*
X23942460Y-40606140D01*
X23942460Y-40606140D02*
X24882460Y-40606140D01*
X24882460Y-40606140D02*
X24882460Y-38746140D01*
X25047200Y-40581060D02*
X25967200Y-40581060D01*
X25967200Y-40581060D02*
X25967200Y-38761060D01*
X25967200Y-38761060D02*
X25047200Y-38761060D01*
X25047200Y-38761060D02*
X25047200Y-40581060D01*
X-31600000Y-40100000D02*
X-31600000Y-29900000D01*
X-31600000Y-29900000D02*
X-20400000Y-29900000D01*
X-20400000Y-29900000D02*
X-20400000Y-40100000D01*
X-20400000Y-40100000D02*
X-31600000Y-40100000D01*
D11*
X18470000Y-33940000D02*
X18470000Y-32940000D01*
X18470000Y-38690000D02*
X18470000Y-33940000D01*
X20720000Y-38690000D02*
X18470000Y-38690000D01*
X20720000Y-41690000D02*
X20720000Y-38690000D01*
X18470000Y-41690000D02*
X20720000Y-41690000D01*
X18470000Y-47440000D02*
X18470000Y-41690000D01*
X11470000Y-47440000D02*
X18470000Y-47440000D01*
X11470000Y-43190000D02*
X11470000Y-47440000D01*
X8720000Y-43190000D02*
X11470000Y-43190000D01*
X8720000Y-40940000D02*
X8720000Y-43190000D01*
X8970000Y-40940000D02*
X8720000Y-40940000D01*
X11470000Y-40940000D02*
X8970000Y-40940000D01*
X11470000Y-36190000D02*
X11470000Y-40940000D01*
X8970000Y-36190000D02*
X11470000Y-36190000D01*
X8970000Y-32940000D02*
X8970000Y-36190000D01*
X9220000Y-32940000D02*
X8970000Y-32940000D01*
X18470000Y-32940000D02*
X9220000Y-32940000D01*
D10*
X-5320000Y-37730000D02*
X-5320000Y-47150000D01*
X5320000Y-37730000D02*
X5320000Y-47150000D01*
X5320000Y-47150000D02*
X-5320000Y-47150000D01*
X5320000Y-37730000D02*
X-5320000Y-37730000D01*
X-43670460Y29492380D02*
X-45670460Y29492380D01*
X-43670460Y29492380D02*
X-43670460Y27492380D01*
X-45670460Y27492380D02*
X-45670460Y29492380D01*
X-45670460Y27492380D02*
X-43670460Y27492380D01*
X-48268320Y29492380D02*
X-50268320Y29492380D01*
X-48268320Y29492380D02*
X-48268320Y27492380D01*
X-50268320Y27492380D02*
X-50268320Y29492380D01*
X-50268320Y27492380D02*
X-48268320Y27492380D01*
X-40697440Y27301320D02*
X-43497440Y27301320D01*
X-43497440Y30501320D02*
X-40697440Y30501320D01*
X-43497440Y30501320D02*
X-43497440Y27301320D01*
X-40697440Y30501320D02*
X-40697440Y27301320D01*
X-33819840Y40450020D02*
X-32899840Y40450020D01*
X-32899840Y40450020D02*
X-32899840Y42270020D01*
X-32899840Y42270020D02*
X-33819840Y42270020D01*
X-33819840Y42270020D02*
X-33819840Y40450020D01*
X-27628920Y18485000D02*
X-32128920Y18485000D01*
X-3628920Y18485000D02*
X-8128920Y18485000D01*
X-32128920Y29765000D02*
X-32128920Y18485000D01*
X-3628920Y29765000D02*
X-3628920Y18485000D01*
X-3628920Y29765000D02*
X-32128920Y29765000D01*
X-27628920Y18485000D02*
X-27608920Y-6705000D01*
X-8108920Y-6705000D02*
X-27608920Y-6705000D01*
X-8108920Y-6705000D02*
X-8128920Y18485000D01*
X-982500Y-24425000D02*
X-982500Y-32725000D01*
X-982500Y-32725000D02*
X-8682500Y-32725000D01*
X-8682500Y-32725000D02*
X-8682500Y-24425000D01*
X-8682500Y-24425000D02*
X-982500Y-24425000D01*
X-14735000Y-33240000D02*
X-14735000Y-34180000D01*
X-14735000Y-34180000D02*
X-12875000Y-34180000D01*
X-12875000Y-34180000D02*
X-12875000Y-33240000D01*
X-12875000Y-33240000D02*
X-14735000Y-33240000D01*
X25120000Y-16070000D02*
X16620000Y-16070000D01*
X25120000Y-24070000D02*
X25120000Y-16070000D01*
X16620000Y-24070000D02*
X25120000Y-24070000D01*
X16620000Y-16070000D02*
X16620000Y-24070000D01*
X-7260000Y-17980000D02*
X-7260000Y-14830000D01*
X-7260000Y-14830000D02*
X-5860000Y-14830000D01*
X-5860000Y-14830000D02*
X-5860000Y-14230000D01*
X-5860000Y-14230000D02*
X-5260000Y-14230000D01*
X-5260000Y-14230000D02*
X-5260000Y-12830000D01*
X-5260000Y-12830000D02*
X-2110000Y-12830000D01*
X-7260000Y-17980000D02*
X-7260000Y-21130000D01*
X-7260000Y-21130000D02*
X-5860000Y-21130000D01*
X-5860000Y-21130000D02*
X-5860000Y-21730000D01*
X-5860000Y-21730000D02*
X-5260000Y-21730000D01*
X-5260000Y-21730000D02*
X-5260000Y-23130000D01*
X-5260000Y-23130000D02*
X-2110000Y-23130000D01*
X3040000Y-17980000D02*
X3040000Y-14830000D01*
X3040000Y-14830000D02*
X1640000Y-14830000D01*
X1640000Y-14830000D02*
X1640000Y-14230000D01*
X1640000Y-14230000D02*
X1040000Y-14230000D01*
X1040000Y-14230000D02*
X1040000Y-12830000D01*
X1040000Y-12830000D02*
X-2110000Y-12830000D01*
X3040000Y-17980000D02*
X3040000Y-21130000D01*
X3040000Y-21130000D02*
X1640000Y-21130000D01*
X1640000Y-21130000D02*
X1640000Y-21730000D01*
X1640000Y-21730000D02*
X1040000Y-21730000D01*
X1040000Y-21730000D02*
X1040000Y-23130000D01*
X1040000Y-23130000D02*
X-2110000Y-23130000D01*
X11210000Y-28770000D02*
X11210000Y-27850000D01*
X11210000Y-27850000D02*
X9390000Y-27850000D01*
X9390000Y-27850000D02*
X9390000Y-28770000D01*
X9390000Y-28770000D02*
X11210000Y-28770000D01*
X11225060Y-29956200D02*
X11225060Y-29036200D01*
X11225060Y-29036200D02*
X9405060Y-29036200D01*
X9405060Y-29036200D02*
X9405060Y-29956200D01*
X9405060Y-29956200D02*
X11225060Y-29956200D01*
X13060000Y-30370000D02*
X12120000Y-30370000D01*
X12120000Y-30370000D02*
X12120000Y-32230000D01*
X12120000Y-32230000D02*
X13060000Y-32230000D01*
X13060000Y-32230000D02*
X13060000Y-30370000D01*
X14310000Y-30370000D02*
X13370000Y-30370000D01*
X13370000Y-30370000D02*
X13370000Y-32230000D01*
X13370000Y-32230000D02*
X14310000Y-32230000D01*
X14310000Y-32230000D02*
X14310000Y-30370000D01*
X10560000Y-30370000D02*
X9620000Y-30370000D01*
X9620000Y-30370000D02*
X9620000Y-32230000D01*
X9620000Y-32230000D02*
X10560000Y-32230000D01*
X10560000Y-32230000D02*
X10560000Y-30370000D01*
X16810000Y-30370000D02*
X15870000Y-30370000D01*
X15870000Y-30370000D02*
X15870000Y-32230000D01*
X15870000Y-32230000D02*
X16810000Y-32230000D01*
X16810000Y-32230000D02*
X16810000Y-30370000D01*
X9310000Y-30370000D02*
X8370000Y-30370000D01*
X8370000Y-30370000D02*
X8370000Y-32230000D01*
X8370000Y-32230000D02*
X9310000Y-32230000D01*
X9310000Y-32230000D02*
X9310000Y-30370000D01*
X18060000Y-30370000D02*
X17120000Y-30370000D01*
X17120000Y-30370000D02*
X17120000Y-32230000D01*
X17120000Y-32230000D02*
X18060000Y-32230000D01*
X18060000Y-32230000D02*
X18060000Y-30370000D01*
X15550000Y-30390000D02*
X14630000Y-30390000D01*
X14630000Y-30390000D02*
X14630000Y-32210000D01*
X14630000Y-32210000D02*
X15550000Y-32210000D01*
X15550000Y-32210000D02*
X15550000Y-30390000D01*
X11800000Y-30390000D02*
X10880000Y-30390000D01*
X10880000Y-30390000D02*
X10880000Y-32210000D01*
X10880000Y-32210000D02*
X11800000Y-32210000D01*
X11800000Y-32210000D02*
X11800000Y-30390000D01*
X-4440000Y-7630000D02*
X-5360000Y-7630000D01*
X-5360000Y-7630000D02*
X-5360000Y-9450000D01*
X-5360000Y-9450000D02*
X-4440000Y-9450000D01*
X-4440000Y-9450000D02*
X-4440000Y-7630000D01*
X30070000Y-5530000D02*
X30070000Y-6470000D01*
X30070000Y-6470000D02*
X31930000Y-6470000D01*
X31930000Y-6470000D02*
X31930000Y-5530000D01*
X31930000Y-5530000D02*
X30070000Y-5530000D01*
X34160000Y-6460000D02*
X34160000Y-5540000D01*
X34160000Y-5540000D02*
X32340000Y-5540000D01*
X32340000Y-5540000D02*
X32340000Y-6460000D01*
X32340000Y-6460000D02*
X34160000Y-6460000D01*
X30640900Y7621940D02*
X30640900Y10721940D01*
X30640900Y7621940D02*
X26940900Y7621940D01*
X26940900Y10721940D02*
X30640900Y10721940D01*
X26940900Y10721940D02*
X26940900Y7621940D01*
X-12100000Y-14635000D02*
X-13040000Y-14635000D01*
X-13040000Y-14635000D02*
X-13040000Y-16495000D01*
X-13040000Y-16495000D02*
X-12100000Y-16495000D01*
X-12100000Y-16495000D02*
X-12100000Y-14635000D01*
X16878000Y17399240D02*
X16878000Y16459240D01*
X16878000Y16459240D02*
X18738000Y16459240D01*
X18738000Y16459240D02*
X18738000Y17399240D01*
X18738000Y17399240D02*
X16878000Y17399240D01*
X2030000Y4740000D02*
X1090000Y4740000D01*
X1090000Y4740000D02*
X1090000Y2880000D01*
X1090000Y2880000D02*
X2030000Y2880000D01*
X2030000Y2880000D02*
X2030000Y4740000D01*
X680000Y4735000D02*
X-260000Y4735000D01*
X-260000Y4735000D02*
X-260000Y2875000D01*
X-260000Y2875000D02*
X680000Y2875000D01*
X680000Y2875000D02*
X680000Y4735000D01*
X20833500Y15308620D02*
X20833500Y16248620D01*
X20833500Y16248620D02*
X18973500Y16248620D01*
X18973500Y16248620D02*
X18973500Y15308620D01*
X18973500Y15308620D02*
X20833500Y15308620D01*
X12750000Y-16045000D02*
X11810000Y-16045000D01*
X11810000Y-16045000D02*
X11810000Y-17905000D01*
X11810000Y-17905000D02*
X12750000Y-17905000D01*
X12750000Y-17905000D02*
X12750000Y-16045000D01*
X-7170000Y-35730000D02*
X-6230000Y-35730000D01*
X-6230000Y-35730000D02*
X-6230000Y-33870000D01*
X-6230000Y-33870000D02*
X-7170000Y-33870000D01*
X-7170000Y-33870000D02*
X-7170000Y-35730000D01*
X1765000Y-32610000D02*
X1765000Y-31670000D01*
X1765000Y-31670000D02*
X-95000Y-31670000D01*
X-95000Y-31670000D02*
X-95000Y-32610000D01*
X-95000Y-32610000D02*
X1765000Y-32610000D01*
X-13605000Y-10210000D02*
X-13605000Y-11150000D01*
X-13605000Y-11150000D02*
X-11745000Y-11150000D01*
X-11745000Y-11150000D02*
X-11745000Y-10210000D01*
X-11745000Y-10210000D02*
X-13605000Y-10210000D01*
X4556860Y-35336120D02*
X3616860Y-35336120D01*
X3616860Y-35336120D02*
X3616860Y-37196120D01*
X3616860Y-37196120D02*
X4556860Y-37196120D01*
X4556860Y-37196120D02*
X4556860Y-35336120D01*
X-28040520Y-1871600D02*
X-28980520Y-1871600D01*
X-28980520Y-1871600D02*
X-28980520Y-3731600D01*
X-28980520Y-3731600D02*
X-28040520Y-3731600D01*
X-28040520Y-3731600D02*
X-28040520Y-1871600D01*
X-30480520Y-3731600D02*
X-29540520Y-3731600D01*
X-29540520Y-3731600D02*
X-29540520Y-1871600D01*
X-29540520Y-1871600D02*
X-30480520Y-1871600D01*
X-30480520Y-1871600D02*
X-30480520Y-3731600D01*
X-11730000Y-34285000D02*
X-12670000Y-34285000D01*
X-12670000Y-34285000D02*
X-12670000Y-36145000D01*
X-12670000Y-36145000D02*
X-11730000Y-36145000D01*
X-11730000Y-36145000D02*
X-11730000Y-34285000D01*
X-7910000Y-40915000D02*
X-8850000Y-40915000D01*
X-8850000Y-40915000D02*
X-8850000Y-42775000D01*
X-8850000Y-42775000D02*
X-7910000Y-42775000D01*
X-7910000Y-42775000D02*
X-7910000Y-40915000D01*
X-14390000Y-41575000D02*
X-15330000Y-41575000D01*
X-15330000Y-41575000D02*
X-15330000Y-43435000D01*
X-15330000Y-43435000D02*
X-14390000Y-43435000D01*
X-14390000Y-43435000D02*
X-14390000Y-41575000D01*
X-13385000Y-26020000D02*
X-13385000Y-25080000D01*
X-13385000Y-25080000D02*
X-15245000Y-25080000D01*
X-15245000Y-25080000D02*
X-15245000Y-26020000D01*
X-15245000Y-26020000D02*
X-13385000Y-26020000D01*
X-29410320Y13553800D02*
X-30350320Y13553800D01*
X-30350320Y13553800D02*
X-30350320Y11693800D01*
X-30350320Y11693800D02*
X-29410320Y11693800D01*
X-29410320Y11693800D02*
X-29410320Y13553800D01*
X-30865000Y11225000D02*
X-30865000Y10285000D01*
X-30865000Y10285000D02*
X-29005000Y10285000D01*
X-29005000Y10285000D02*
X-29005000Y11225000D01*
X-29005000Y11225000D02*
X-30865000Y11225000D01*
X15865000Y-14480000D02*
X15865000Y-13540000D01*
X15865000Y-13540000D02*
X14005000Y-13540000D01*
X14005000Y-13540000D02*
X14005000Y-14480000D01*
X14005000Y-14480000D02*
X15865000Y-14480000D01*
X7920000Y-21355000D02*
X8860000Y-21355000D01*
X8860000Y-21355000D02*
X8860000Y-19495000D01*
X8860000Y-19495000D02*
X7920000Y-19495000D01*
X7920000Y-19495000D02*
X7920000Y-21355000D01*
X-29530000Y3295000D02*
X-30470000Y3295000D01*
X-30470000Y3295000D02*
X-30470000Y1435000D01*
X-30470000Y1435000D02*
X-29530000Y1435000D01*
X-29530000Y1435000D02*
X-29530000Y3295000D01*
X-4924720Y17262200D02*
X-5864720Y17262200D01*
X-5864720Y17262200D02*
X-5864720Y15402200D01*
X-5864720Y15402200D02*
X-4924720Y15402200D01*
X-4924720Y15402200D02*
X-4924720Y17262200D01*
X-30479720Y-668400D02*
X-29539720Y-668400D01*
X-29539720Y-668400D02*
X-29539720Y1191600D01*
X-29539720Y1191600D02*
X-30479720Y1191600D01*
X-30479720Y1191600D02*
X-30479720Y-668400D01*
X-510000Y-26425000D02*
X430000Y-26425000D01*
X430000Y-26425000D02*
X430000Y-24565000D01*
X430000Y-24565000D02*
X-510000Y-24565000D01*
X-510000Y-24565000D02*
X-510000Y-26425000D01*
X-30815000Y8675000D02*
X-30815000Y7735000D01*
X-30815000Y7735000D02*
X-28955000Y7735000D01*
X-28955000Y7735000D02*
X-28955000Y8675000D01*
X-28955000Y8675000D02*
X-30815000Y8675000D01*
X-8660000Y-15575000D02*
X-7720000Y-15575000D01*
X-7720000Y-15575000D02*
X-7720000Y-13715000D01*
X-7720000Y-13715000D02*
X-8660000Y-13715000D01*
X-8660000Y-13715000D02*
X-8660000Y-15575000D01*
X5888140Y-26906180D02*
X5888140Y-25966180D01*
X5888140Y-25966180D02*
X4028140Y-25966180D01*
X4028140Y-25966180D02*
X4028140Y-26906180D01*
X4028140Y-26906180D02*
X5888140Y-26906180D01*
X41470000Y-7320000D02*
X40530000Y-7320000D01*
X40530000Y-7320000D02*
X40530000Y-9180000D01*
X40530000Y-9180000D02*
X41470000Y-9180000D01*
X41470000Y-9180000D02*
X41470000Y-7320000D01*
X-6717960Y13655400D02*
X-7657960Y13655400D01*
X-7657960Y13655400D02*
X-7657960Y11795400D01*
X-7657960Y11795400D02*
X-6717960Y11795400D01*
X-6717960Y11795400D02*
X-6717960Y13655400D01*
X46210000Y-7705000D02*
X47150000Y-7705000D01*
X47150000Y-7705000D02*
X47150000Y-5845000D01*
X47150000Y-5845000D02*
X46210000Y-5845000D01*
X46210000Y-5845000D02*
X46210000Y-7705000D01*
X40865000Y-820000D02*
X40865000Y-1760000D01*
X40865000Y-1760000D02*
X42725000Y-1760000D01*
X42725000Y-1760000D02*
X42725000Y-820000D01*
X42725000Y-820000D02*
X40865000Y-820000D01*
X25570000Y-1670000D02*
X25570000Y-2610000D01*
X25570000Y-2610000D02*
X27430000Y-2610000D01*
X27430000Y-2610000D02*
X27430000Y-1670000D01*
X27430000Y-1670000D02*
X25570000Y-1670000D01*
X17760000Y13545000D02*
X18700000Y13545000D01*
X18700000Y13545000D02*
X18700000Y15405000D01*
X18700000Y15405000D02*
X17760000Y15405000D01*
X17760000Y15405000D02*
X17760000Y13545000D01*
X25570000Y-5530000D02*
X25570000Y-6470000D01*
X25570000Y-6470000D02*
X27430000Y-6470000D01*
X27430000Y-6470000D02*
X27430000Y-5530000D01*
X27430000Y-5530000D02*
X25570000Y-5530000D01*
X25561520Y11997940D02*
X26501520Y11997940D01*
X26501520Y11997940D02*
X26501520Y13857940D01*
X26501520Y13857940D02*
X25561520Y13857940D01*
X25561520Y13857940D02*
X25561520Y11997940D01*
X11843520Y-3167280D02*
X11843520Y-4107280D01*
X11843520Y-4107280D02*
X13703520Y-4107280D01*
X13703520Y-4107280D02*
X13703520Y-3167280D01*
X13703520Y-3167280D02*
X11843520Y-3167280D01*
X-5290000Y9230000D02*
X-5290000Y10170000D01*
X-5290000Y10170000D02*
X-7150000Y10170000D01*
X-7150000Y10170000D02*
X-7150000Y9230000D01*
X-7150000Y9230000D02*
X-5290000Y9230000D01*
X18971040Y14297760D02*
X18971040Y13357760D01*
X18971040Y13357760D02*
X20831040Y13357760D01*
X20831040Y13357760D02*
X20831040Y14297760D01*
X20831040Y14297760D02*
X18971040Y14297760D01*
X26690420Y9687920D02*
X25750420Y9687920D01*
X25750420Y9687920D02*
X25750420Y7827920D01*
X25750420Y7827920D02*
X26690420Y7827920D01*
X26690420Y7827920D02*
X26690420Y9687920D01*
X13935000Y-11120000D02*
X13935000Y-10180000D01*
X13935000Y-10180000D02*
X12075000Y-10180000D01*
X12075000Y-10180000D02*
X12075000Y-11120000D01*
X12075000Y-11120000D02*
X13935000Y-11120000D01*
X-3730000Y10255000D02*
X-4670000Y10255000D01*
X-4670000Y10255000D02*
X-4670000Y8395000D01*
X-4670000Y8395000D02*
X-3730000Y8395000D01*
X-3730000Y8395000D02*
X-3730000Y10255000D01*
X30070000Y-7030000D02*
X30070000Y-7970000D01*
X30070000Y-7970000D02*
X31930000Y-7970000D01*
X31930000Y-7970000D02*
X31930000Y-7030000D01*
X31930000Y-7030000D02*
X30070000Y-7030000D01*
X29470000Y-19950000D02*
X29470000Y-20890000D01*
X29470000Y-20890000D02*
X31330000Y-20890000D01*
X31330000Y-20890000D02*
X31330000Y-19950000D01*
X31330000Y-19950000D02*
X29470000Y-19950000D01*
X15865000Y-15550000D02*
X15865000Y-14610000D01*
X15865000Y-14610000D02*
X14005000Y-14610000D01*
X14005000Y-14610000D02*
X14005000Y-15550000D01*
X14005000Y-15550000D02*
X15865000Y-15550000D01*
X7335000Y19800000D02*
X7335000Y18860000D01*
X7335000Y18860000D02*
X9195000Y18860000D01*
X9195000Y18860000D02*
X9195000Y19800000D01*
X9195000Y19800000D02*
X7335000Y19800000D01*
X-43451360Y24143540D02*
X-42511360Y24143540D01*
X-42511360Y24143540D02*
X-42511360Y26003540D01*
X-42511360Y26003540D02*
X-43451360Y26003540D01*
X-43451360Y26003540D02*
X-43451360Y24143540D01*
X-31993060Y10859700D02*
X-31993060Y11799700D01*
X-31993060Y11799700D02*
X-33853060Y11799700D01*
X-33853060Y11799700D02*
X-33853060Y10859700D01*
X-33853060Y10859700D02*
X-31993060Y10859700D01*
X-47972360Y26023720D02*
X-48912360Y26023720D01*
X-48912360Y26023720D02*
X-48912360Y24163720D01*
X-48912360Y24163720D02*
X-47972360Y24163720D01*
X-47972360Y24163720D02*
X-47972360Y26023720D01*
X-36690000Y16500000D02*
X-36690000Y15560000D01*
X-36690000Y15560000D02*
X-34830000Y15560000D01*
X-34830000Y15560000D02*
X-34830000Y16500000D01*
X-34830000Y16500000D02*
X-36690000Y16500000D01*
X5480000Y-20035000D02*
X4540000Y-20035000D01*
X4540000Y-20035000D02*
X4540000Y-21895000D01*
X4540000Y-21895000D02*
X5480000Y-21895000D01*
X5480000Y-21895000D02*
X5480000Y-20035000D01*
X27037200Y-21335360D02*
X27977200Y-21335360D01*
X27977200Y-21335360D02*
X27977200Y-19475360D01*
X27977200Y-19475360D02*
X27037200Y-19475360D01*
X27037200Y-19475360D02*
X27037200Y-21335360D01*
X9677980Y15920100D02*
X9677980Y16860100D01*
X9677980Y16860100D02*
X7817980Y16860100D01*
X7817980Y16860100D02*
X7817980Y15920100D01*
X7817980Y15920100D02*
X9677980Y15920100D01*
X26777200Y-19475360D02*
X25837200Y-19475360D01*
X25837200Y-19475360D02*
X25837200Y-21335360D01*
X25837200Y-21335360D02*
X26777200Y-21335360D01*
X26777200Y-21335360D02*
X26777200Y-19475360D01*
X7817980Y15660100D02*
X7817980Y14720100D01*
X7817980Y14720100D02*
X9677980Y14720100D01*
X9677980Y14720100D02*
X9677980Y15660100D01*
X9677980Y15660100D02*
X7817980Y15660100D01*
X-8700000Y-43530000D02*
X-9640000Y-43530000D01*
X-9640000Y-43530000D02*
X-9640000Y-45390000D01*
X-9640000Y-45390000D02*
X-8700000Y-45390000D01*
X-8700000Y-45390000D02*
X-8700000Y-43530000D01*
X-3890000Y-35840000D02*
X-3890000Y-36780000D01*
X-3890000Y-36780000D02*
X-2030000Y-36780000D01*
X-2030000Y-36780000D02*
X-2030000Y-35840000D01*
X-2030000Y-35840000D02*
X-3890000Y-35840000D01*
X3319880Y-35333580D02*
X2379880Y-35333580D01*
X2379880Y-35333580D02*
X2379880Y-37193580D01*
X2379880Y-37193580D02*
X3319880Y-37193580D01*
X3319880Y-37193580D02*
X3319880Y-35333580D01*
X1210000Y-4940000D02*
X2130000Y-4940000D01*
X2130000Y-4940000D02*
X2130000Y-3120000D01*
X2130000Y-3120000D02*
X1210000Y-3120000D01*
X1210000Y-3120000D02*
X1210000Y-4940000D01*
X-4050000Y-4705000D02*
X-3130000Y-4705000D01*
X-3130000Y-4705000D02*
X-3130000Y-2885000D01*
X-3130000Y-2885000D02*
X-4050000Y-2885000D01*
X-4050000Y-2885000D02*
X-4050000Y-4705000D01*
X-30340320Y15346000D02*
X-29420320Y15346000D01*
X-29420320Y15346000D02*
X-29420320Y17166000D01*
X-29420320Y17166000D02*
X-30340320Y17166000D01*
X-30340320Y17166000D02*
X-30340320Y15346000D01*
X390000Y-9415000D02*
X1310000Y-9415000D01*
X1310000Y-9415000D02*
X1310000Y-7595000D01*
X1310000Y-7595000D02*
X390000Y-7595000D01*
X390000Y-7595000D02*
X390000Y-9415000D01*
X30010000Y-2600000D02*
X30010000Y-1680000D01*
X30010000Y-1680000D02*
X28190000Y-1680000D01*
X28190000Y-1680000D02*
X28190000Y-2600000D01*
X28190000Y-2600000D02*
X30010000Y-2600000D01*
X29615000Y-18870000D02*
X30535000Y-18870000D01*
X30535000Y-18870000D02*
X30535000Y-17050000D01*
X30535000Y-17050000D02*
X29615000Y-17050000D01*
X29615000Y-17050000D02*
X29615000Y-18870000D01*
X7157980Y18470000D02*
X7157980Y19390000D01*
X7157980Y19390000D02*
X5337980Y19390000D01*
X5337980Y19390000D02*
X5337980Y18470000D01*
X5337980Y18470000D02*
X7157980Y18470000D01*
X-48858240Y39073760D02*
X-48858240Y39993760D01*
X-48858240Y39993760D02*
X-50678240Y39993760D01*
X-50678240Y39993760D02*
X-50678240Y39073760D01*
X-50678240Y39073760D02*
X-48858240Y39073760D01*
X-36216660Y33150480D02*
X-36216660Y34070480D01*
X-36216660Y34070480D02*
X-38036660Y34070480D01*
X-38036660Y34070480D02*
X-38036660Y33150480D01*
X-38036660Y33150480D02*
X-36216660Y33150480D01*
X-41351360Y26313600D02*
X-41351360Y25393600D01*
X-41351360Y25393600D02*
X-39531360Y25393600D01*
X-39531360Y25393600D02*
X-39531360Y26313600D01*
X-39531360Y26313600D02*
X-41351360Y26313600D01*
X-9220000Y-12145000D02*
X-8300000Y-12145000D01*
X-8300000Y-12145000D02*
X-8300000Y-10325000D01*
X-8300000Y-10325000D02*
X-9220000Y-10325000D01*
X-9220000Y-10325000D02*
X-9220000Y-12145000D01*
X-11365000Y-26020000D02*
X-11365000Y-25100000D01*
X-11365000Y-25100000D02*
X-13185000Y-25100000D01*
X-13185000Y-25100000D02*
X-13185000Y-26020000D01*
X-13185000Y-26020000D02*
X-11365000Y-26020000D01*
X28247200Y-21315360D02*
X29167200Y-21315360D01*
X29167200Y-21315360D02*
X29167200Y-19495360D01*
X29167200Y-19495360D02*
X28247200Y-19495360D01*
X28247200Y-19495360D02*
X28247200Y-21315360D01*
X9657980Y17130100D02*
X9657980Y18050100D01*
X9657980Y18050100D02*
X7837980Y18050100D01*
X7837980Y18050100D02*
X7837980Y17130100D01*
X7837980Y17130100D02*
X9657980Y17130100D01*
X-10420000Y-34435000D02*
X-11340000Y-34435000D01*
X-11340000Y-34435000D02*
X-11340000Y-36255000D01*
X-11340000Y-36255000D02*
X-10420000Y-36255000D01*
X-10420000Y-36255000D02*
X-10420000Y-34435000D01*
X-8330000Y-8285000D02*
X-9250000Y-8285000D01*
X-9250000Y-8285000D02*
X-9250000Y-10105000D01*
X-9250000Y-10105000D02*
X-8330000Y-10105000D01*
X-8330000Y-10105000D02*
X-8330000Y-8285000D01*
X28080000Y22950000D02*
X27160000Y22950000D01*
X27160000Y22950000D02*
X27160000Y21130000D01*
X27160000Y21130000D02*
X28080000Y21130000D01*
X28080000Y21130000D02*
X28080000Y22950000D01*
X-2090000Y3040000D02*
X-2090000Y3960000D01*
X-2090000Y3960000D02*
X-3910000Y3960000D01*
X-3910000Y3960000D02*
X-3910000Y3040000D01*
X-3910000Y3040000D02*
X-2090000Y3040000D01*
X-10370000Y-21815000D02*
X-11290000Y-21815000D01*
X-11290000Y-21815000D02*
X-11290000Y-23635000D01*
X-11290000Y-23635000D02*
X-10370000Y-23635000D01*
X-10370000Y-23635000D02*
X-10370000Y-21815000D01*
X-15410000Y-21875000D02*
X-16330000Y-21875000D01*
X-16330000Y-21875000D02*
X-16330000Y-23695000D01*
X-16330000Y-23695000D02*
X-15410000Y-23695000D01*
X-15410000Y-23695000D02*
X-15410000Y-21875000D01*
X-7581920Y15447600D02*
X-6661920Y15447600D01*
X-6661920Y15447600D02*
X-6661920Y17267600D01*
X-6661920Y17267600D02*
X-7581920Y17267600D01*
X-7581920Y17267600D02*
X-7581920Y15447600D01*
X-9420000Y-25320000D02*
X-10340000Y-25320000D01*
X-10340000Y-25320000D02*
X-10340000Y-27140000D01*
X-10340000Y-27140000D02*
X-9420000Y-27140000D01*
X-9420000Y-27140000D02*
X-9420000Y-25320000D01*
X3480000Y-21865000D02*
X4400000Y-21865000D01*
X4400000Y-21865000D02*
X4400000Y-20045000D01*
X4400000Y-20045000D02*
X3480000Y-20045000D01*
X3480000Y-20045000D02*
X3480000Y-21865000D01*
X-245000Y-11840000D02*
X-245000Y-10920000D01*
X-245000Y-10920000D02*
X-2065000Y-10920000D01*
X-2065000Y-10920000D02*
X-2065000Y-11840000D01*
X-2065000Y-11840000D02*
X-245000Y-11840000D01*
X-5780000Y-22140000D02*
X-6700000Y-22140000D01*
X-6700000Y-22140000D02*
X-6700000Y-23960000D01*
X-6700000Y-23960000D02*
X-5780000Y-23960000D01*
X-5780000Y-23960000D02*
X-5780000Y-22140000D01*
X39861400Y5164080D02*
X39861400Y4244080D01*
X39861400Y4244080D02*
X41681400Y4244080D01*
X41681400Y4244080D02*
X41681400Y5164080D01*
X41681400Y5164080D02*
X39861400Y5164080D01*
X29660000Y-6460000D02*
X29660000Y-5540000D01*
X29660000Y-5540000D02*
X27840000Y-5540000D01*
X27840000Y-5540000D02*
X27840000Y-6460000D01*
X27840000Y-6460000D02*
X29660000Y-6460000D01*
X30318120Y1140200D02*
X30318120Y2060200D01*
X30318120Y2060200D02*
X28498120Y2060200D01*
X28498120Y2060200D02*
X28498120Y1140200D01*
X28498120Y1140200D02*
X30318120Y1140200D01*
X25590000Y-515000D02*
X25590000Y-1435000D01*
X25590000Y-1435000D02*
X27410000Y-1435000D01*
X27410000Y-1435000D02*
X27410000Y-515000D01*
X27410000Y-515000D02*
X25590000Y-515000D01*
X-3708140Y547820D02*
X-4628140Y547820D01*
X-4628140Y547820D02*
X-4628140Y-1272180D01*
X-4628140Y-1272180D02*
X-3708140Y-1272180D01*
X-3708140Y-1272180D02*
X-3708140Y547820D01*
X30010000Y-1435000D02*
X30010000Y-515000D01*
X30010000Y-515000D02*
X28190000Y-515000D01*
X28190000Y-515000D02*
X28190000Y-1435000D01*
X28190000Y-1435000D02*
X30010000Y-1435000D01*
X40090000Y1363440D02*
X40090000Y443440D01*
X40090000Y443440D02*
X41910000Y443440D01*
X41910000Y443440D02*
X41910000Y1363440D01*
X41910000Y1363440D02*
X40090000Y1363440D01*
X-4675000Y16300000D02*
X-4675000Y15380000D01*
X-4675000Y15380000D02*
X-2855000Y15380000D01*
X-2855000Y15380000D02*
X-2855000Y16300000D01*
X-2855000Y16300000D02*
X-4675000Y16300000D01*
X-9970000Y-42520000D02*
X-9050000Y-42520000D01*
X-9050000Y-42520000D02*
X-9050000Y-40700000D01*
X-9050000Y-40700000D02*
X-9970000Y-40700000D01*
X-9970000Y-40700000D02*
X-9970000Y-42520000D01*
X-12495000Y-11550000D02*
X-12495000Y-12470000D01*
X-12495000Y-12470000D02*
X-10675000Y-12470000D01*
X-10675000Y-12470000D02*
X-10675000Y-11550000D01*
X-10675000Y-11550000D02*
X-12495000Y-11550000D01*
X24771040Y-15874560D02*
X16871040Y-15874560D01*
X16871040Y-15874560D02*
X16871040Y10225440D01*
X16871040Y10225440D02*
X24771040Y10225440D01*
X24771040Y10225440D02*
X24771040Y-15874560D01*
X40200000Y-14700000D02*
X34800000Y-14700000D01*
X34800000Y-14700000D02*
X34800000Y-7300000D01*
X34800000Y-7300000D02*
X40200000Y-7300000D01*
X40200000Y-7300000D02*
X40200000Y-14700000D01*
X-4120000Y-10530000D02*
X-4120000Y-7130000D01*
X-4120000Y-7130000D02*
X80000Y-7130000D01*
X80000Y-7130000D02*
X80000Y-10530000D01*
X80000Y-10530000D02*
X-4120000Y-10530000D01*
X-43862360Y27363880D02*
X-47662360Y27363880D01*
X-47662360Y27363880D02*
X-47662360Y23763880D01*
X-47662360Y23763880D02*
X-43862360Y23763880D01*
X-43862360Y23763880D02*
X-43862360Y27363880D01*
X-1789440Y-33199320D02*
X1860560Y-33199320D01*
X-1789440Y-37199320D02*
X-1789440Y-33199320D01*
X1860560Y-37199320D02*
X-1789440Y-37199320D01*
X1860560Y-37199320D02*
X1860560Y-33199320D01*
X8412500Y20250000D02*
X8412500Y22210000D01*
X8412500Y22210000D02*
X5012500Y22210000D01*
X5012500Y22210000D02*
X5012500Y20250000D01*
X5012500Y20250000D02*
X8412500Y20250000D01*
X-15600000Y-41550000D02*
X-24400000Y-41550000D01*
X-24400000Y-41550000D02*
X-24400000Y-46100000D01*
X-24400000Y-46100000D02*
X-21650000Y-46100000D01*
X-21650000Y-46100000D02*
X-21650000Y-47400000D01*
X-21650000Y-47400000D02*
X-18350000Y-47400000D01*
X-18350000Y-47400000D02*
X-18350000Y-46100000D01*
X-18350000Y-46100000D02*
X-15600000Y-46100000D01*
X-15600000Y-46100000D02*
X-15600000Y-41550000D01*
X33687200Y-13205360D02*
X31727200Y-13205360D01*
X31727200Y-13205360D02*
X31727200Y-16605360D01*
X31727200Y-16605360D02*
X33687200Y-16605360D01*
X33687200Y-16605360D02*
X33687200Y-13205360D01*
X31595000Y-20157500D02*
X33555000Y-20157500D01*
X33555000Y-20157500D02*
X33555000Y-16757500D01*
X33555000Y-16757500D02*
X31595000Y-16757500D01*
X31595000Y-16757500D02*
X31595000Y-20157500D01*
X-11490000Y-24890000D02*
X-11490000Y-21790000D01*
X-11490000Y-24890000D02*
X-15190000Y-24890000D01*
X-15190000Y-21790000D02*
X-11490000Y-21790000D01*
X-15190000Y-21790000D02*
X-15190000Y-24890000D01*
X1547980Y20570100D02*
X1547980Y18610100D01*
X1547980Y18610100D02*
X4947980Y18610100D01*
X4947980Y18610100D02*
X4947980Y20570100D01*
X4947980Y20570100D02*
X1547980Y20570100D01*
X25907200Y-15005360D02*
X25907200Y-18805360D01*
X25907200Y-18805360D02*
X29507200Y-18805360D01*
X29507200Y-18805360D02*
X29507200Y-15005360D01*
X29507200Y-15005360D02*
X25907200Y-15005360D01*
X-13950000Y-42220000D02*
X-10150000Y-42220000D01*
X-10150000Y-42220000D02*
X-10150000Y-38620000D01*
X-10150000Y-38620000D02*
X-13950000Y-38620000D01*
X-13950000Y-38620000D02*
X-13950000Y-42220000D01*
X31687200Y-13205360D02*
X29727200Y-13205360D01*
X29727200Y-13205360D02*
X29727200Y-16605360D01*
X29727200Y-16605360D02*
X31687200Y-16605360D01*
X31687200Y-16605360D02*
X31687200Y-13205360D01*
X1547980Y22570100D02*
X1547980Y20610100D01*
X1547980Y20610100D02*
X4947980Y20610100D01*
X4947980Y20610100D02*
X4947980Y22570100D01*
X4947980Y22570100D02*
X1547980Y22570100D01*
X-2980000Y-4920000D02*
X1020000Y-4920000D01*
X-2980000Y-2620000D02*
X1020000Y-2620000D01*
X-2980000Y-4920000D02*
X-2980000Y-2620000D01*
X1020000Y-4920000D02*
X1020000Y-2620000D01*
X-8110000Y-8270000D02*
X-8110000Y-12270000D01*
X-5810000Y-8270000D02*
X-5810000Y-12270000D01*
X-8110000Y-8270000D02*
X-5810000Y-8270000D01*
X-8110000Y-12270000D02*
X-5810000Y-12270000D01*
X-12227500Y-36370000D02*
X-12227500Y-38270000D01*
X-12227500Y-38270000D02*
X-8867500Y-38270000D01*
X-8867500Y-38270000D02*
X-8867500Y-36370000D01*
X-8867500Y-36370000D02*
X-12227500Y-36370000D01*
X-13110000Y-14510000D02*
X-9910000Y-14510000D01*
X-9910000Y-14510000D02*
X-9910000Y-12610000D01*
X-13110000Y-12610000D02*
X-9910000Y-12610000D01*
X-13110000Y-14510000D02*
X-13110000Y-12610000D01*
X-31046860Y12261800D02*
X-31046860Y16061800D01*
X-31046860Y16061800D02*
X-34646860Y16061800D01*
X-34646860Y16061800D02*
X-34646860Y12261800D01*
X-34646860Y12261800D02*
X-31046860Y12261800D01*
X16520000Y-24460000D02*
X16520000Y-25380000D01*
X16520000Y-25380000D02*
X18340000Y-25380000D01*
X18340000Y-25380000D02*
X18340000Y-24460000D01*
X18340000Y-24460000D02*
X16520000Y-24460000D01*
X14355000Y-16270000D02*
X14355000Y-17190000D01*
X14355000Y-17190000D02*
X16175000Y-17190000D01*
X16175000Y-17190000D02*
X16175000Y-16270000D01*
X16175000Y-16270000D02*
X14355000Y-16270000D01*
X-38464480Y27492380D02*
X-36464480Y27492380D01*
X-38464480Y27492380D02*
X-38464480Y29492380D01*
X-36464480Y29492380D02*
X-36464480Y27492380D01*
X-36464480Y29492380D02*
X-38464480Y29492380D01*
X14375000Y-17390000D02*
X14375000Y-18310000D01*
X14375000Y-18310000D02*
X16195000Y-18310000D01*
X16195000Y-18310000D02*
X16195000Y-17390000D01*
X16195000Y-17390000D02*
X14375000Y-17390000D01*
X53848660Y7440680D02*
X50748660Y7440680D01*
X53848660Y7440680D02*
X53848660Y3740680D01*
X50748660Y3740680D02*
X50748660Y7440680D01*
X50748660Y3740680D02*
X53848660Y3740680D01*
X-10800000Y-16600000D02*
X-8800000Y-16600000D01*
X-10800000Y-16600000D02*
X-10800000Y-14600000D01*
X-8800000Y-14600000D02*
X-8800000Y-16600000D01*
X-8800000Y-14600000D02*
X-10800000Y-14600000D01*
X-52888320Y15212800D02*
X-54848320Y15212800D01*
X-54848320Y15212800D02*
X-54848320Y11812800D01*
X-54848320Y11812800D02*
X-52888320Y11812800D01*
X-52888320Y11812800D02*
X-52888320Y15212800D01*
X5460000Y-34940000D02*
X5460000Y-31540000D01*
X5460000Y-31540000D02*
X1960000Y-31540000D01*
X1960000Y-31540000D02*
X1960000Y-34940000D01*
X1960000Y-34940000D02*
X5460000Y-34940000D01*
X1649220Y-24685500D02*
X3649220Y-24685500D01*
X1649220Y-24685500D02*
X1649220Y-22685500D01*
X3649220Y-22685500D02*
X3649220Y-24685500D01*
X3649220Y-22685500D02*
X1649220Y-22685500D01*
X11920000Y-9620000D02*
X13920000Y-9620000D01*
X11920000Y-9620000D02*
X11920000Y-7620000D01*
X13920000Y-7620000D02*
X13920000Y-9620000D01*
X13920000Y-7620000D02*
X11920000Y-7620000D01*
X13510000Y-27400000D02*
X12590000Y-27400000D01*
X12590000Y-27400000D02*
X12590000Y-29220000D01*
X12590000Y-29220000D02*
X13510000Y-29220000D01*
X13510000Y-29220000D02*
X13510000Y-27400000D01*
X3100000Y-2350000D02*
X-3000000Y-2350000D01*
X-3000000Y-2350000D02*
X-3000000Y2350000D01*
X-3000000Y2350000D02*
X3100000Y2350000D01*
X3100000Y2350000D02*
X3100000Y-2300000D01*
X3100000Y-2300000D02*
X3100000Y-2350000D01*
X-19841340Y-31522240D02*
X-19841340Y-36222240D01*
X-19841340Y-36222240D02*
X-17541340Y-36222240D01*
X-17541340Y-36222240D02*
X-17541340Y-31522240D01*
X-19841340Y-31522240D02*
X-17541340Y-31522240D01*
X-16440000Y-34410000D02*
X-16440000Y-38210000D01*
X-16440000Y-38210000D02*
X-12840000Y-38210000D01*
X-12840000Y-38210000D02*
X-12840000Y-34410000D01*
X-12840000Y-34410000D02*
X-16440000Y-34410000D01*
X25784300Y5283960D02*
X27784300Y5283960D01*
X25784300Y5283960D02*
X25784300Y7283960D01*
X27784300Y7283960D02*
X27784300Y5283960D01*
X27784300Y7283960D02*
X25784300Y7283960D01*
X39361040Y4273440D02*
X39361040Y-3966560D01*
X39361040Y-3966560D02*
X31121040Y-3966560D01*
X31121040Y-3966560D02*
X31121040Y4273440D01*
X31121040Y4273440D02*
X39361040Y4273440D01*
X10908700Y1327540D02*
X14008700Y1327540D01*
X10908700Y1327540D02*
X10908700Y5027540D01*
X14008700Y5027540D02*
X14008700Y1327540D01*
X14008700Y5027540D02*
X10908700Y5027540D01*
X42800000Y-2000000D02*
X44800000Y-2000000D01*
X42800000Y-2000000D02*
X42800000Y0D01*
X44800000Y0D02*
X44800000Y-2000000D01*
X44800000Y0D02*
X42800000Y0D01*
X27440900Y14549860D02*
X27440900Y11149860D01*
X27440900Y11149860D02*
X30940900Y11149860D01*
X30940900Y11149860D02*
X30940900Y14549860D01*
X30940900Y14549860D02*
X27440900Y14549860D01*
X16260000Y-27400000D02*
X15340000Y-27400000D01*
X15340000Y-27400000D02*
X15340000Y-29220000D01*
X15340000Y-29220000D02*
X16260000Y-29220000D01*
X16260000Y-29220000D02*
X16260000Y-27400000D01*
X25085800Y-7589720D02*
X27885800Y-7589720D01*
X27885800Y-10789720D02*
X25085800Y-10789720D01*
X27885800Y-10789720D02*
X27885800Y-7589720D01*
X25085800Y-10789720D02*
X25085800Y-7589720D01*
X12200380Y-6511800D02*
X14200380Y-6511800D01*
X12200380Y-6511800D02*
X12200380Y-4511800D01*
X14200380Y-4511800D02*
X14200380Y-6511800D01*
X14200380Y-4511800D02*
X12200380Y-4511800D01*
X-10550000Y-42400000D02*
X-13950000Y-42400000D01*
X-13950000Y-42400000D02*
X-13950000Y-45900000D01*
X-13950000Y-45900000D02*
X-10550000Y-45900000D01*
X-10550000Y-45900000D02*
X-10550000Y-42400000D01*
X17510000Y-27400000D02*
X16590000Y-27400000D01*
X16590000Y-27400000D02*
X16590000Y-29220000D01*
X16590000Y-29220000D02*
X17510000Y-29220000D01*
X17510000Y-29220000D02*
X17510000Y-27400000D01*
X5111300Y-29582480D02*
X7111300Y-29582480D01*
X5111300Y-29582480D02*
X5111300Y-27582480D01*
X7111300Y-27582480D02*
X7111300Y-29582480D01*
X7111300Y-27582480D02*
X5111300Y-27582480D01*
X25036300Y14513500D02*
X21636300Y14513500D01*
X21636300Y14513500D02*
X21636300Y11013500D01*
X21636300Y11013500D02*
X25036300Y11013500D01*
X25036300Y11013500D02*
X25036300Y14513500D01*
X56120000Y420000D02*
X53020000Y420000D01*
X56120000Y420000D02*
X56120000Y-3280000D01*
X53020000Y-3280000D02*
X53020000Y420000D01*
X53020000Y-3280000D02*
X56120000Y-3280000D01*
X-6290000Y-38770000D02*
X-9490000Y-38770000D01*
X-9490000Y-38770000D02*
X-9490000Y-40670000D01*
X-6290000Y-40670000D02*
X-9490000Y-40670000D01*
X-6290000Y-38770000D02*
X-6290000Y-40670000D01*
X16300000Y-26910000D02*
X9300000Y-26910000D01*
X9300000Y-26910000D02*
X9300000Y-19210000D01*
X9300000Y-19210000D02*
X16300000Y-19210000D01*
X16300000Y-19210000D02*
X16300000Y-26910000D01*
X42650000Y-4100000D02*
X44650000Y-4100000D01*
X42650000Y-4100000D02*
X42650000Y-2100000D01*
X44650000Y-2100000D02*
X44650000Y-4100000D01*
X44650000Y-2100000D02*
X42650000Y-2100000D01*
X10908700Y-2666460D02*
X14008700Y-2666460D01*
X10908700Y-2666460D02*
X10908700Y1033540D01*
X14008700Y1033540D02*
X14008700Y-2666460D01*
X14008700Y1033540D02*
X10908700Y1033540D01*
X3347980Y14790100D02*
X7147980Y14790100D01*
X7147980Y14790100D02*
X7147980Y18390100D01*
X7147980Y18390100D02*
X3347980Y18390100D01*
X3347980Y18390100D02*
X3347980Y14790100D01*
M02*
