M48
METRIC,TZ
T1C0.200
T2C0.300
T3C0.600
T4C1.000
T5C1.016
%
G90
G05
T1
X-56454Y-7376
X-55090Y514
X-54734Y-928
X-53593Y-1952
X-52748Y-3004
X-52550Y8530
X-52500Y9500
X-52500Y7500
X-52500Y6500
X-52500Y5500
X-51455Y2363
X-50868Y39534
X-50485Y1335
X-49768Y40634
X-49768Y38434
X-49408Y-1386
X-49349Y380
X-48668Y39534
X-47850Y6505
X-47218Y11840
X-47200Y12530
X-46900Y4055
X-46370Y33627
X-45975Y780
X-45550Y6330
X-45382Y22986
X-45018Y11870
X-44975Y12555
X-44450Y2880
X-43625Y6930
X-43375Y-1395
X-42633Y11578
X-42550Y12230
X-42095Y30822
X-42075Y2655
X-41950Y8330
X-41720Y11738
X-41541Y25554
X-40775Y6455
X-40690Y11718
X-40600Y3755
X-40441Y26654
X-40441Y24454
X-40325Y-1095
X-39575Y105
X-39341Y25554
X-38227Y33610
X-38100Y2830
X-38023Y36872
X-37127Y34710
X-37127Y32510
X-37050Y180
X-37050Y-1195
X-36467Y3086
X-36378Y-1500
X-36314Y30836
X-36223Y36350
X-36027Y33610
X-35380Y3051
X-35192Y-1217
X-35150Y1280
X-34775Y2430
X-34650Y30
X-34548Y814
X-34460Y41360
X-34425Y1680
X-33500Y-1345
X-33360Y42460
X-33360Y40260
X-33109Y39111
X-33100Y1355
X-32260Y41360
X-31455Y37087
X-30960Y690
X-30140Y-1545
X-29475Y38305
X-29025Y2180
X-29025Y-1220
X-28875Y37655
X-28664Y11933
X-28560Y-4320
X-28410Y9655
X-27130Y30721
X-25751Y33932
X-24516Y-909
X-23150Y115
X-23099Y-31219
X-22989Y-788
X-22765Y1210
X-22621Y-26998
X-22492Y-12423
X-22200Y16630
X-21651Y-13393
X-21526Y-26924
X-21270Y-16901
X-21000Y-25000
X-20000Y-25000
X-19360Y-29030
X-19014Y-26924
X-19000Y-25000
X-18755Y89
X-18486Y-40617
X-18333Y25625
X-18290Y-8400
X-18204Y-27221
X-18000Y-25000
X-17900Y16630
X-17569Y-8575
X-17233Y26725
X-17233Y24525
X-17000Y-25000
X-16780Y-36490
X-16764Y-346
X-16739Y-16477
X-16670Y-13942
X-16521Y-13151
X-16500Y-17389
X-16482Y302
X-16133Y25625
X-16106Y-18499
X-15952Y-36288
X-15860Y-24333
X-15850Y955
X-15775Y-8195
X-15631Y-38976
X-15559Y-17428
X-15150Y1080
X-14662Y-26328
X-14559Y-8069
X-14323Y-8768
X-14305Y-16312
X-14287Y-26896
X-14074Y-15200
X-14064Y-17955
X-14059Y-3068
X-13757Y-15867
X-13505Y-26914
X-13330Y-31045
X-13271Y-26243
X-13161Y-6265
X-12804Y-15200
X-12630Y-29381
X-12468Y-8020
X-12425Y3405
X-12375Y-30345
X-12250Y-28854
X-11534Y-15200
X-11500Y-27995
X-11488Y-34765
X-11450Y-35798
X-11325Y3255
X-11298Y122
X-11265Y940
X-10910Y-23980
X-10498Y-43401
X-10460Y-28110
X-10210Y-27470
X-10160Y-45190
X-10007Y-23068
X-8966Y-16632
X-8956Y-27090
X-8954Y-25794
X-8929Y-24969
X-8907Y-26442
X-8790Y-19670
X-8659Y-22781
X-8510Y-43090
X-8379Y-23373
X-8263Y-10610
X-8199Y-38510
X-8027Y-35775
X-7978Y-14981
X-7699Y-23051
X-7635Y922
X-7622Y-6049
X-7570Y-38674
X-7516Y-14374
X-7449Y-36137
X-6934Y1557
X-6890Y-45400
X-6736Y-7561
X-6650Y-44490
X-6502Y-13297
X-6482Y-5870
X-6375Y11105
X-5900Y13305
X-5758Y-10932
X-5085Y-14580
X-5065Y-19408
X-4990Y-18147
X-4877Y-15430
X-4801Y-16939
X-4712Y-16180
X-4695Y10877
X-4290Y-36280
X-4039Y-19271
X-3889Y-23045
X-3871Y-14473
X-3460Y-25790
X-3419Y-15811
X-3336Y-750
X-3225Y-30345
X-3165Y-18905
X-3165Y-25192
X-3109Y-16307
X-2835Y-15806
X-2768Y-10610
X-2591Y-16832
X-2525Y-16286
X-2436Y-14788
X-2355Y-19309
X-2273Y-15819
X-1999Y-16279
X-1938Y-24006
X-1896Y16551
X-1430Y-17993
X-1399Y-14795
X-1323Y3668
X-1243Y17512
X-770Y-32174
X-676Y17771
X-612Y-16269
X-522Y9945
X-521Y-15621
X-386Y-17198
X-373Y-18014
X-301Y-18686
X-216Y-15044
X-145Y-14364
X45Y10262
X70Y18506
X186Y13124
X332Y20037
X353Y-28345
X503Y-2367
X701Y-23985
X830Y2680
X870Y4270
X870Y-28848
X910Y-29550
X955Y-32911
X1021Y-27374
X1198Y-20705
X1324Y22556
X1527Y-26782
X1554Y-7209
X1651Y-16561
X1695Y12925
X1695Y9194
X1827Y-31275
X1843Y-14106
X1847Y-12123
X1981Y-19030
X2120Y-35145
X2225Y15530
X2507Y-14757
X2540Y-29578
X2550Y-2530
X2568Y-30341
X2614Y-26927
X2695Y-19032
X2761Y-15402
X2838Y14917
X2849Y15906
X2985Y23290
X3011Y-27452
X3338Y-9060
X3678Y-9845
X3695Y-2540
X3717Y14497
X4201Y20574
X4224Y-23625
X4330Y13310
X4437Y-10533
X4465Y-21732
X5175Y18255
X5375Y23505
X5799Y19789
X5799Y-31064
X6046Y-25168
X6240Y14470
X6784Y-45105
X6784Y-45890
X7190Y14470
X7600Y-20220
X7647Y-22440
X7800Y23505
X8024Y-21875
X8494Y-37419
X8559Y-32664
X8780Y-29420
X9470Y-40000
X9804Y-21262
X9850Y-24690
X9862Y15167
X10120Y13655
X10129Y22609
X10460Y-24730
X11090Y21120
X11090Y19695
X11090Y17920
X11200Y-24590
X11245Y14135
X11256Y-32615
X11433Y10815
X11464Y-3636
X11997Y11165
X12119Y-18466
X12123Y14135
X12675Y-7070
X12850Y8180
X13078Y-21250
X13586Y-34884
X13630Y12870
X13903Y-21343
X14720Y11730
X14920Y-32500
X14944Y-18639
X15175Y-8320
X15325Y-3845
X15720Y-21580
X15900Y-6670
X16336Y-14398
X16350Y-13670
X16450Y-2220
X16660Y-15130
X16769Y-16845
X16825Y-38595
X17125Y-13495
X17450Y-15852
X17841Y-13469
X17900Y-11545
X18375Y-3395
X18400Y-1445
X18450Y-31060
X18500Y-4895
X18500Y-12070
X19155Y-9485
X19360Y12980
X19460Y4591
X19650Y-2270
X19860Y-1200
X19950Y-5902
X20347Y3393
X20525Y-9070
X20872Y3813
X21300Y-29733
X21325Y-6445
X21520Y10570
X21540Y-4730
X21574Y-1246
X21621Y16035
X21692Y-2110
X21988Y-7672
X22050Y3600
X22223Y-5688
X22332Y4418
X22345Y-1290
X24089Y-42154
X24200Y10460
X24356Y-40046
X24388Y-38871
X24889Y-7344
X24969Y-5255
X25000Y-6000
X25929Y-14699
X25942Y-5043
X26185Y-7195
X26243Y-33338
X26950Y-9390
X27000Y-13220
X27358Y-22237
X27470Y17587
X27570Y-5447
X27775Y-8020
X27800Y-1005
X27836Y-31006
X28037Y1600
X28161Y-11970
X28350Y-5050
X28655Y-7165
X28820Y22260
X28950Y20140
X28987Y17587
X29175Y-11920
X29383Y-16887
X29550Y21960
X29617Y2780
X29655Y20527
X29690Y19760
X29810Y21300
X30844Y-8459
X30848Y1444
X30848Y-1101
X30861Y2774
X31294Y-10296
X31325Y-10945
X31450Y-8695
X31630Y5520
X31964Y-9103
X32070Y-4340
X32285Y-22460
X32500Y5700
X32895Y-7005
X32952Y-4978
X33116Y-11829
X33250Y5700
X33625Y-12145
X33735Y-7000
X33840Y16035
X34000Y5700
X34025Y-21970
X34460Y-9030
X34801Y-15861
X34860Y-6830
X34875Y-16895
X34875Y-18295
X34875Y-20020
X35520Y5150
X35895Y7899
X36000Y-14780
X36510Y-17820
X36520Y7440
X36550Y-11450
X37057Y8167
X37510Y-4620
X37590Y-15070
X37892Y8961
X37990Y-11090
X38047Y-4225
X38320Y-5370
X38425Y-26045
X38675Y-6003
X38720Y-11450
X38810Y-17880
X39335Y-5285
X40080Y-11170
X40135Y-2800
X40147Y-1984
X40160Y-8340
X40518Y-13787
X40880Y-10800
X41240Y-17820
X41250Y-9580
X41295Y-6455
X41390Y-15830
X41450Y1880
X41476Y8339
X41496Y-12525
X41680Y-2020
X41850Y-3920
X41976Y-5065
X42100Y1880
X42120Y-3100
X42250Y-420
X42360Y-2150
X43570Y-17770
X43910Y-15390
X45445Y-2975
X45910Y-16740
X46255Y-4290
X46270Y-15660
X46420Y-5030
X46850Y3180
X46897Y-5471
X47350Y1680
X47660Y-7420
X49300Y-5320
X51000Y-12500
X51000Y-15000
X51225Y-7320
X51550Y-1845
X54501Y-18271
X54940Y-17720
X55000Y-12500
X55000Y-15000
X55000Y-21000
X56440Y-7960
X57500Y-17750
X57500Y-18710
X58500Y-12500
X58500Y-15000
T2
X-52225Y14130
X-50768Y10979
X-50768Y6678
X-47599Y28012
X-47475Y25579
X-46118Y12135
X-37168Y11000
X-37168Y6500
X-35975Y14430
X-32135Y-13603
X-32046Y-17448
X-31873Y-21195
X-31400Y11980
X-30352Y-19856
X-30269Y4864
X-30250Y6255
X-28768Y16541
X-28400Y15605
X-26073Y-42210
X-25449Y-28299
X-23923Y-25856
X-22597Y-17707
X-21924Y-11733
X-20828Y-11537
X-20091Y-12273
X-17815Y10456
X-17815Y9520
X-17815Y8584
X-16879Y10456
X-16879Y9520
X-16879Y8584
X-15943Y10456
X-15943Y9520
X-15943Y8584
X-12853Y16810
X-11999Y12705
X-11335Y-716
X-10911Y-13537
X-10668Y-8920
X-9440Y-42990
X-8063Y-13273
X-7436Y-16646
X-6367Y16965
X-5201Y-1928
X-2477Y16076
X10Y-37290
X1120Y21390
X1230Y20290
X1240Y19480
X1272Y18665
X5233Y14530
X11111Y-27319
X11559Y1182
X14361Y-28742
X14500Y21060
X15940Y-18810
X16580Y-26120
X21325Y20830
X21695Y5054
X21935Y-8467
X22139Y-9395
X22252Y21000
X22253Y-10695
X22373Y-3196
X22401Y-7075
X25400Y10737
X25587Y-16905
X26365Y10343
X26500Y-3000
X26901Y-30002
X27290Y-3000
X27790Y-280
X30507Y12930
X30705Y-12830
X31420Y-12830
X32136Y-12830
X32851Y-12830
X34789Y12562
X35223Y174
X37675Y13169
X39230Y4640
X40700Y1780
X42271Y4704
X42274Y706
X47412Y5652
X47412Y4443
X49644Y5652
X49644Y4443
T3
X-26000Y-35000
X-26000Y-40500
X-23800Y-15470
X-14650Y-39850
X-14630Y-36390
X-11315Y15750
X-9734Y-35683
X-6610Y-40970
X-4080Y-38260
X-2490Y-37690
X2480Y-37690
X3830Y-38000
X9025Y20580
X31878Y-20810
T4
X58190Y5020
X58543Y2505
X58897Y-11
X59250Y-2526
X59604Y-5041
X59957Y-7556
X60705Y5374
X61059Y2858
X61412Y343
X61766Y-2172
X62119Y-4688
X62473Y-7203
T5
X43692Y32472
X43692Y29932
X46232Y32472
X46232Y29932
X48772Y32472
X48772Y29932
T3
G00X-4320Y-40420
M15
G01X-4320Y-39320
M16
G05
G00X-4320Y-44350
M15
G01X-4320Y-43750
M16
G05
G00X4320Y-40420
M15
G01X4320Y-39320
M16
G05
G00X4320Y-44350
M15
G01X4320Y-43750
M16
G05
T0
M30
