G04 #@! TF.GenerationSoftware,KiCad,Pcbnew,5.1.10*
G04 #@! TF.CreationDate,2021-11-14T12:13:49+01:00*
G04 #@! TF.ProjectId,mch2021,6d636832-3032-4312-9e6b-696361645f70,3*
G04 #@! TF.SameCoordinates,Original*
G04 #@! TF.FileFunction,Paste,Bot*
G04 #@! TF.FilePolarity,Positive*
%FSLAX46Y46*%
G04 Gerber Fmt 4.6, Leading zero omitted, Abs format (unit mm)*
G04 Created by KiCad (PCBNEW 5.1.10) date 2021-11-14 12:13:49*
%MOMM*%
%LPD*%
G01*
G04 APERTURE LIST*
%ADD10R,3.800000X2.000000*%
%ADD11R,1.198880X1.998980*%
%ADD12R,0.599440X1.348740*%
%ADD13R,1.524000X2.540000*%
%ADD14R,2.540000X1.524000*%
%ADD15R,0.600000X1.450000*%
%ADD16R,0.300000X1.450000*%
%ADD17R,0.400000X0.650000*%
%ADD18R,2.000000X0.900000*%
%ADD19R,5.000000X5.000000*%
%ADD20R,0.500000X0.800000*%
%ADD21R,0.400000X0.800000*%
%ADD22R,1.300000X0.300000*%
%ADD23R,2.200000X1.800000*%
%ADD24R,1.400000X1.200000*%
%ADD25R,1.060000X0.650000*%
%ADD26R,0.600000X1.200000*%
%ADD27R,1.000000X0.800000*%
%ADD28R,0.700000X1.500000*%
%ADD29R,0.650000X1.060000*%
%ADD30R,1.000000X1.800000*%
%ADD31R,1.800000X1.000000*%
%ADD32R,0.600000X0.450000*%
%ADD33R,0.800000X0.500000*%
%ADD34R,0.800000X0.400000*%
%ADD35R,0.800000X0.900000*%
%ADD36R,0.500000X0.300000*%
%ADD37R,0.300000X0.500000*%
%ADD38R,1.200000X0.900000*%
%ADD39R,0.900000X0.800000*%
G04 APERTURE END LIST*
D10*
X41000000Y37000000D03*
X-41000000Y37000000D03*
G36*
G01*
X-5415000Y895000D02*
X-5785000Y895000D01*
G75*
G02*
X-5920000Y1030000I0J135000D01*
G01*
X-5920000Y1300000D01*
G75*
G02*
X-5785000Y1435000I135000J0D01*
G01*
X-5415000Y1435000D01*
G75*
G02*
X-5280000Y1300000I0J-135000D01*
G01*
X-5280000Y1030000D01*
G75*
G02*
X-5415000Y895000I-135000J0D01*
G01*
G37*
G36*
G01*
X-5415000Y-125000D02*
X-5785000Y-125000D01*
G75*
G02*
X-5920000Y10000I0J135000D01*
G01*
X-5920000Y280000D01*
G75*
G02*
X-5785000Y415000I135000J0D01*
G01*
X-5415000Y415000D01*
G75*
G02*
X-5280000Y280000I0J-135000D01*
G01*
X-5280000Y10000D01*
G75*
G02*
X-5415000Y-125000I-135000J0D01*
G01*
G37*
G36*
G01*
X-5785000Y-35040000D02*
X-5415000Y-35040000D01*
G75*
G02*
X-5280000Y-35175000I0J-135000D01*
G01*
X-5280000Y-35445000D01*
G75*
G02*
X-5415000Y-35580000I-135000J0D01*
G01*
X-5785000Y-35580000D01*
G75*
G02*
X-5920000Y-35445000I0J135000D01*
G01*
X-5920000Y-35175000D01*
G75*
G02*
X-5785000Y-35040000I135000J0D01*
G01*
G37*
G36*
G01*
X-5785000Y-34020000D02*
X-5415000Y-34020000D01*
G75*
G02*
X-5280000Y-34155000I0J-135000D01*
G01*
X-5280000Y-34425000D01*
G75*
G02*
X-5415000Y-34560000I-135000J0D01*
G01*
X-5785000Y-34560000D01*
G75*
G02*
X-5920000Y-34425000I0J135000D01*
G01*
X-5920000Y-34155000D01*
G75*
G02*
X-5785000Y-34020000I135000J0D01*
G01*
G37*
G36*
G01*
X-3200000Y-33916900D02*
X-3200000Y-34286900D01*
G75*
G02*
X-3335000Y-34421900I-135000J0D01*
G01*
X-3605000Y-34421900D01*
G75*
G02*
X-3740000Y-34286900I0J135000D01*
G01*
X-3740000Y-33916900D01*
G75*
G02*
X-3605000Y-33781900I135000J0D01*
G01*
X-3335000Y-33781900D01*
G75*
G02*
X-3200000Y-33916900I0J-135000D01*
G01*
G37*
G36*
G01*
X-2180000Y-33916900D02*
X-2180000Y-34286900D01*
G75*
G02*
X-2315000Y-34421900I-135000J0D01*
G01*
X-2585000Y-34421900D01*
G75*
G02*
X-2720000Y-34286900I0J135000D01*
G01*
X-2720000Y-33916900D01*
G75*
G02*
X-2585000Y-33781900I135000J0D01*
G01*
X-2315000Y-33781900D01*
G75*
G02*
X-2180000Y-33916900I0J-135000D01*
G01*
G37*
G36*
G01*
X-48736860Y9787140D02*
X-48736860Y10887140D01*
G75*
G02*
X-48536860Y11087140I200000J0D01*
G01*
X-48136860Y11087140D01*
G75*
G02*
X-47936860Y10887140I0J-200000D01*
G01*
X-47936860Y9787140D01*
G75*
G02*
X-48136860Y9587140I-200000J0D01*
G01*
X-48536860Y9587140D01*
G75*
G02*
X-48736860Y9787140I0J200000D01*
G01*
G37*
G36*
G01*
X-47636860Y9787140D02*
X-47636860Y10887140D01*
G75*
G02*
X-47436860Y11087140I200000J0D01*
G01*
X-47036860Y11087140D01*
G75*
G02*
X-46836860Y10887140I0J-200000D01*
G01*
X-46836860Y9787140D01*
G75*
G02*
X-47036860Y9587140I-200000J0D01*
G01*
X-47436860Y9587140D01*
G75*
G02*
X-47636860Y9787140I0J200000D01*
G01*
G37*
G36*
G01*
X-46536860Y9787140D02*
X-46536860Y10887140D01*
G75*
G02*
X-46336860Y11087140I200000J0D01*
G01*
X-45936860Y11087140D01*
G75*
G02*
X-45736860Y10887140I0J-200000D01*
G01*
X-45736860Y9787140D01*
G75*
G02*
X-45936860Y9587140I-200000J0D01*
G01*
X-46336860Y9587140D01*
G75*
G02*
X-46536860Y9787140I0J200000D01*
G01*
G37*
G36*
G01*
X-45436860Y9787140D02*
X-45436860Y10887140D01*
G75*
G02*
X-45236860Y11087140I200000J0D01*
G01*
X-44836860Y11087140D01*
G75*
G02*
X-44636860Y10887140I0J-200000D01*
G01*
X-44636860Y9787140D01*
G75*
G02*
X-44836860Y9587140I-200000J0D01*
G01*
X-45236860Y9587140D01*
G75*
G02*
X-45436860Y9787140I0J200000D01*
G01*
G37*
G36*
G01*
X-44336860Y9787140D02*
X-44336860Y10887140D01*
G75*
G02*
X-44136860Y11087140I200000J0D01*
G01*
X-43736860Y11087140D01*
G75*
G02*
X-43536860Y10887140I0J-200000D01*
G01*
X-43536860Y9787140D01*
G75*
G02*
X-43736860Y9587140I-200000J0D01*
G01*
X-44136860Y9587140D01*
G75*
G02*
X-44336860Y9787140I0J200000D01*
G01*
G37*
G36*
G01*
X-43236860Y9787140D02*
X-43236860Y10887140D01*
G75*
G02*
X-43036860Y11087140I200000J0D01*
G01*
X-42636860Y11087140D01*
G75*
G02*
X-42436860Y10887140I0J-200000D01*
G01*
X-42436860Y9787140D01*
G75*
G02*
X-42636860Y9587140I-200000J0D01*
G01*
X-43036860Y9587140D01*
G75*
G02*
X-43236860Y9787140I0J200000D01*
G01*
G37*
G36*
G01*
X-42136860Y9787140D02*
X-42136860Y10887140D01*
G75*
G02*
X-41936860Y11087140I200000J0D01*
G01*
X-41536860Y11087140D01*
G75*
G02*
X-41336860Y10887140I0J-200000D01*
G01*
X-41336860Y9787140D01*
G75*
G02*
X-41536860Y9587140I-200000J0D01*
G01*
X-41936860Y9587140D01*
G75*
G02*
X-42136860Y9787140I0J200000D01*
G01*
G37*
G36*
G01*
X-41036860Y9787140D02*
X-41036860Y10887140D01*
G75*
G02*
X-40836860Y11087140I200000J0D01*
G01*
X-40436860Y11087140D01*
G75*
G02*
X-40236860Y10887140I0J-200000D01*
G01*
X-40236860Y9787140D01*
G75*
G02*
X-40436860Y9587140I-200000J0D01*
G01*
X-40836860Y9587140D01*
G75*
G02*
X-41036860Y9787140I0J200000D01*
G01*
G37*
G36*
G01*
X-37936860Y12262140D02*
X-37936860Y13512140D01*
G75*
G02*
X-37561860Y13887140I375000J0D01*
G01*
X-36811860Y13887140D01*
G75*
G02*
X-36436860Y13512140I0J-375000D01*
G01*
X-36436860Y12262140D01*
G75*
G02*
X-36811860Y11887140I-375000J0D01*
G01*
X-37561860Y11887140D01*
G75*
G02*
X-37936860Y12262140I0J375000D01*
G01*
G37*
G36*
G01*
X-51536860Y12312140D02*
X-51536860Y13562140D01*
G75*
G02*
X-51161860Y13937140I375000J0D01*
G01*
X-50411860Y13937140D01*
G75*
G02*
X-50036860Y13562140I0J-375000D01*
G01*
X-50036860Y12312140D01*
G75*
G02*
X-50411860Y11937140I-375000J0D01*
G01*
X-51161860Y11937140D01*
G75*
G02*
X-51536860Y12312140I0J375000D01*
G01*
G37*
G36*
G01*
X-37936860Y4012140D02*
X-37936860Y5262140D01*
G75*
G02*
X-37561860Y5637140I375000J0D01*
G01*
X-36811860Y5637140D01*
G75*
G02*
X-36436860Y5262140I0J-375000D01*
G01*
X-36436860Y4012140D01*
G75*
G02*
X-36811860Y3637140I-375000J0D01*
G01*
X-37561860Y3637140D01*
G75*
G02*
X-37936860Y4012140I0J375000D01*
G01*
G37*
G36*
G01*
X-51536860Y4012140D02*
X-51536860Y5262140D01*
G75*
G02*
X-51161860Y5637140I375000J0D01*
G01*
X-50411860Y5637140D01*
G75*
G02*
X-50036860Y5262140I0J-375000D01*
G01*
X-50036860Y4012140D01*
G75*
G02*
X-50411860Y3637140I-375000J0D01*
G01*
X-51161860Y3637140D01*
G75*
G02*
X-51536860Y4012140I0J375000D01*
G01*
G37*
G36*
G01*
X-53760000Y5315000D02*
X-53760000Y5685000D01*
G75*
G02*
X-53625000Y5820000I135000J0D01*
G01*
X-53355000Y5820000D01*
G75*
G02*
X-53220000Y5685000I0J-135000D01*
G01*
X-53220000Y5315000D01*
G75*
G02*
X-53355000Y5180000I-135000J0D01*
G01*
X-53625000Y5180000D01*
G75*
G02*
X-53760000Y5315000I0J135000D01*
G01*
G37*
G36*
G01*
X-54780000Y5315000D02*
X-54780000Y5685000D01*
G75*
G02*
X-54645000Y5820000I135000J0D01*
G01*
X-54375000Y5820000D01*
G75*
G02*
X-54240000Y5685000I0J-135000D01*
G01*
X-54240000Y5315000D01*
G75*
G02*
X-54375000Y5180000I-135000J0D01*
G01*
X-54645000Y5180000D01*
G75*
G02*
X-54780000Y5315000I0J135000D01*
G01*
G37*
G36*
G01*
X-53760000Y6315000D02*
X-53760000Y6685000D01*
G75*
G02*
X-53625000Y6820000I135000J0D01*
G01*
X-53355000Y6820000D01*
G75*
G02*
X-53220000Y6685000I0J-135000D01*
G01*
X-53220000Y6315000D01*
G75*
G02*
X-53355000Y6180000I-135000J0D01*
G01*
X-53625000Y6180000D01*
G75*
G02*
X-53760000Y6315000I0J135000D01*
G01*
G37*
G36*
G01*
X-54780000Y6315000D02*
X-54780000Y6685000D01*
G75*
G02*
X-54645000Y6820000I135000J0D01*
G01*
X-54375000Y6820000D01*
G75*
G02*
X-54240000Y6685000I0J-135000D01*
G01*
X-54240000Y6315000D01*
G75*
G02*
X-54375000Y6180000I-135000J0D01*
G01*
X-54645000Y6180000D01*
G75*
G02*
X-54780000Y6315000I0J135000D01*
G01*
G37*
G36*
G01*
X-53760000Y7315000D02*
X-53760000Y7685000D01*
G75*
G02*
X-53625000Y7820000I135000J0D01*
G01*
X-53355000Y7820000D01*
G75*
G02*
X-53220000Y7685000I0J-135000D01*
G01*
X-53220000Y7315000D01*
G75*
G02*
X-53355000Y7180000I-135000J0D01*
G01*
X-53625000Y7180000D01*
G75*
G02*
X-53760000Y7315000I0J135000D01*
G01*
G37*
G36*
G01*
X-54780000Y7315000D02*
X-54780000Y7685000D01*
G75*
G02*
X-54645000Y7820000I135000J0D01*
G01*
X-54375000Y7820000D01*
G75*
G02*
X-54240000Y7685000I0J-135000D01*
G01*
X-54240000Y7315000D01*
G75*
G02*
X-54375000Y7180000I-135000J0D01*
G01*
X-54645000Y7180000D01*
G75*
G02*
X-54780000Y7315000I0J135000D01*
G01*
G37*
G36*
G01*
X-53760000Y8315000D02*
X-53760000Y8685000D01*
G75*
G02*
X-53625000Y8820000I135000J0D01*
G01*
X-53355000Y8820000D01*
G75*
G02*
X-53220000Y8685000I0J-135000D01*
G01*
X-53220000Y8315000D01*
G75*
G02*
X-53355000Y8180000I-135000J0D01*
G01*
X-53625000Y8180000D01*
G75*
G02*
X-53760000Y8315000I0J135000D01*
G01*
G37*
G36*
G01*
X-54780000Y8315000D02*
X-54780000Y8685000D01*
G75*
G02*
X-54645000Y8820000I135000J0D01*
G01*
X-54375000Y8820000D01*
G75*
G02*
X-54240000Y8685000I0J-135000D01*
G01*
X-54240000Y8315000D01*
G75*
G02*
X-54375000Y8180000I-135000J0D01*
G01*
X-54645000Y8180000D01*
G75*
G02*
X-54780000Y8315000I0J135000D01*
G01*
G37*
G36*
G01*
X-53760000Y9315000D02*
X-53760000Y9685000D01*
G75*
G02*
X-53625000Y9820000I135000J0D01*
G01*
X-53355000Y9820000D01*
G75*
G02*
X-53220000Y9685000I0J-135000D01*
G01*
X-53220000Y9315000D01*
G75*
G02*
X-53355000Y9180000I-135000J0D01*
G01*
X-53625000Y9180000D01*
G75*
G02*
X-53760000Y9315000I0J135000D01*
G01*
G37*
G36*
G01*
X-54780000Y9315000D02*
X-54780000Y9685000D01*
G75*
G02*
X-54645000Y9820000I135000J0D01*
G01*
X-54375000Y9820000D01*
G75*
G02*
X-54240000Y9685000I0J-135000D01*
G01*
X-54240000Y9315000D01*
G75*
G02*
X-54375000Y9180000I-135000J0D01*
G01*
X-54645000Y9180000D01*
G75*
G02*
X-54780000Y9315000I0J135000D01*
G01*
G37*
G36*
G01*
X-53760000Y10315000D02*
X-53760000Y10685000D01*
G75*
G02*
X-53625000Y10820000I135000J0D01*
G01*
X-53355000Y10820000D01*
G75*
G02*
X-53220000Y10685000I0J-135000D01*
G01*
X-53220000Y10315000D01*
G75*
G02*
X-53355000Y10180000I-135000J0D01*
G01*
X-53625000Y10180000D01*
G75*
G02*
X-53760000Y10315000I0J135000D01*
G01*
G37*
G36*
G01*
X-54780000Y10315000D02*
X-54780000Y10685000D01*
G75*
G02*
X-54645000Y10820000I135000J0D01*
G01*
X-54375000Y10820000D01*
G75*
G02*
X-54240000Y10685000I0J-135000D01*
G01*
X-54240000Y10315000D01*
G75*
G02*
X-54375000Y10180000I-135000J0D01*
G01*
X-54645000Y10180000D01*
G75*
G02*
X-54780000Y10315000I0J135000D01*
G01*
G37*
D11*
X19950920Y23172840D03*
X25549080Y23172840D03*
D12*
X24248600Y19500000D03*
X23247840Y19500000D03*
X22252160Y19500000D03*
X21251400Y19500000D03*
D11*
X12200920Y23172840D03*
X17799080Y23172840D03*
D12*
X16498600Y19500000D03*
X15497840Y19500000D03*
X14502160Y19500000D03*
X13501400Y19500000D03*
G36*
G01*
X-30210000Y39275000D02*
X-30210000Y38935000D01*
G75*
G02*
X-30350000Y38795000I-140000J0D01*
G01*
X-30630000Y38795000D01*
G75*
G02*
X-30770000Y38935000I0J140000D01*
G01*
X-30770000Y39275000D01*
G75*
G02*
X-30630000Y39415000I140000J0D01*
G01*
X-30350000Y39415000D01*
G75*
G02*
X-30210000Y39275000I0J-140000D01*
G01*
G37*
G36*
G01*
X-29250000Y39275000D02*
X-29250000Y38935000D01*
G75*
G02*
X-29390000Y38795000I-140000J0D01*
G01*
X-29670000Y38795000D01*
G75*
G02*
X-29810000Y38935000I0J140000D01*
G01*
X-29810000Y39275000D01*
G75*
G02*
X-29670000Y39415000I140000J0D01*
G01*
X-29390000Y39415000D01*
G75*
G02*
X-29250000Y39275000I0J-140000D01*
G01*
G37*
D13*
X-36160000Y-12379820D03*
X-51400000Y-12379820D03*
X-48860000Y-12379820D03*
X-46320000Y-12379820D03*
X-38700000Y-12379820D03*
X-41240000Y-12379820D03*
X-43780000Y-12379820D03*
G36*
G01*
X-27851460Y-42035620D02*
X-28221460Y-42035620D01*
G75*
G02*
X-28356460Y-41900620I0J135000D01*
G01*
X-28356460Y-41630620D01*
G75*
G02*
X-28221460Y-41495620I135000J0D01*
G01*
X-27851460Y-41495620D01*
G75*
G02*
X-27716460Y-41630620I0J-135000D01*
G01*
X-27716460Y-41900620D01*
G75*
G02*
X-27851460Y-42035620I-135000J0D01*
G01*
G37*
G36*
G01*
X-27851460Y-43055620D02*
X-28221460Y-43055620D01*
G75*
G02*
X-28356460Y-42920620I0J135000D01*
G01*
X-28356460Y-42650620D01*
G75*
G02*
X-28221460Y-42515620I135000J0D01*
G01*
X-27851460Y-42515620D01*
G75*
G02*
X-27716460Y-42650620I0J-135000D01*
G01*
X-27716460Y-42920620D01*
G75*
G02*
X-27851460Y-43055620I-135000J0D01*
G01*
G37*
D14*
X30000000Y-43120000D03*
X30000000Y-27880000D03*
X30000000Y-30420000D03*
X30000000Y-32960000D03*
X30000000Y-40580000D03*
X30000000Y-38040000D03*
X30000000Y-35500000D03*
X60000000Y-27880000D03*
X60000000Y-30420000D03*
X60000000Y-32960000D03*
G36*
G01*
X24227460Y-39916140D02*
X24597460Y-39916140D01*
G75*
G02*
X24732460Y-40051140I0J-135000D01*
G01*
X24732460Y-40321140D01*
G75*
G02*
X24597460Y-40456140I-135000J0D01*
G01*
X24227460Y-40456140D01*
G75*
G02*
X24092460Y-40321140I0J135000D01*
G01*
X24092460Y-40051140D01*
G75*
G02*
X24227460Y-39916140I135000J0D01*
G01*
G37*
G36*
G01*
X24227460Y-38896140D02*
X24597460Y-38896140D01*
G75*
G02*
X24732460Y-39031140I0J-135000D01*
G01*
X24732460Y-39301140D01*
G75*
G02*
X24597460Y-39436140I-135000J0D01*
G01*
X24227460Y-39436140D01*
G75*
G02*
X24092460Y-39301140I0J135000D01*
G01*
X24092460Y-39031140D01*
G75*
G02*
X24227460Y-38896140I135000J0D01*
G01*
G37*
G36*
G01*
X25677200Y-39471060D02*
X25337200Y-39471060D01*
G75*
G02*
X25197200Y-39331060I0J140000D01*
G01*
X25197200Y-39051060D01*
G75*
G02*
X25337200Y-38911060I140000J0D01*
G01*
X25677200Y-38911060D01*
G75*
G02*
X25817200Y-39051060I0J-140000D01*
G01*
X25817200Y-39331060D01*
G75*
G02*
X25677200Y-39471060I-140000J0D01*
G01*
G37*
G36*
G01*
X25677200Y-40431060D02*
X25337200Y-40431060D01*
G75*
G02*
X25197200Y-40291060I0J140000D01*
G01*
X25197200Y-40011060D01*
G75*
G02*
X25337200Y-39871060I140000J0D01*
G01*
X25677200Y-39871060D01*
G75*
G02*
X25817200Y-40011060I0J-140000D01*
G01*
X25817200Y-40291060D01*
G75*
G02*
X25677200Y-40431060I-140000J0D01*
G01*
G37*
G36*
G01*
X-22400000Y-33550000D02*
X-22400000Y-30650000D01*
G75*
G02*
X-22150000Y-30400000I250000J0D01*
G01*
X-21150000Y-30400000D01*
G75*
G02*
X-20900000Y-30650000I0J-250000D01*
G01*
X-20900000Y-33550000D01*
G75*
G02*
X-21150000Y-33800000I-250000J0D01*
G01*
X-22150000Y-33800000D01*
G75*
G02*
X-22400000Y-33550000I0J250000D01*
G01*
G37*
G36*
G01*
X-31100000Y-33550000D02*
X-31100000Y-30650000D01*
G75*
G02*
X-30850000Y-30400000I250000J0D01*
G01*
X-29850000Y-30400000D01*
G75*
G02*
X-29600000Y-30650000I0J-250000D01*
G01*
X-29600000Y-33550000D01*
G75*
G02*
X-29850000Y-33800000I-250000J0D01*
G01*
X-30850000Y-33800000D01*
G75*
G02*
X-31100000Y-33550000I0J250000D01*
G01*
G37*
G36*
G01*
X-24500000Y-39350000D02*
X-24500000Y-36350000D01*
G75*
G02*
X-24250000Y-36100000I250000J0D01*
G01*
X-23750000Y-36100000D01*
G75*
G02*
X-23500000Y-36350000I0J-250000D01*
G01*
X-23500000Y-39350000D01*
G75*
G02*
X-23750000Y-39600000I-250000J0D01*
G01*
X-24250000Y-39600000D01*
G75*
G02*
X-24500000Y-39350000I0J250000D01*
G01*
G37*
G36*
G01*
X-26500000Y-39350000D02*
X-26500000Y-36350000D01*
G75*
G02*
X-26250000Y-36100000I250000J0D01*
G01*
X-25750000Y-36100000D01*
G75*
G02*
X-25500000Y-36350000I0J-250000D01*
G01*
X-25500000Y-39350000D01*
G75*
G02*
X-25750000Y-39600000I-250000J0D01*
G01*
X-26250000Y-39600000D01*
G75*
G02*
X-26500000Y-39350000I0J250000D01*
G01*
G37*
G36*
G01*
X-28500000Y-39350000D02*
X-28500000Y-36350000D01*
G75*
G02*
X-28250000Y-36100000I250000J0D01*
G01*
X-27750000Y-36100000D01*
G75*
G02*
X-27500000Y-36350000I0J-250000D01*
G01*
X-27500000Y-39350000D01*
G75*
G02*
X-27750000Y-39600000I-250000J0D01*
G01*
X-28250000Y-39600000D01*
G75*
G02*
X-28500000Y-39350000I0J250000D01*
G01*
G37*
G36*
G01*
X20320000Y-39715000D02*
X20320000Y-40465000D01*
G75*
G02*
X19945000Y-40840000I-375000J0D01*
G01*
X16695000Y-40840000D01*
G75*
G02*
X16320000Y-40465000I0J375000D01*
G01*
X16320000Y-39715000D01*
G75*
G02*
X16695000Y-39340000I375000J0D01*
G01*
X19945000Y-39340000D01*
G75*
G02*
X20320000Y-39715000I0J-375000D01*
G01*
G37*
G36*
G01*
X13120000Y-41715000D02*
X13120000Y-42465000D01*
G75*
G02*
X12745000Y-42840000I-375000J0D01*
G01*
X9495000Y-42840000D01*
G75*
G02*
X9120000Y-42465000I0J375000D01*
G01*
X9120000Y-41715000D01*
G75*
G02*
X9495000Y-41340000I375000J0D01*
G01*
X12745000Y-41340000D01*
G75*
G02*
X13120000Y-41715000I0J-375000D01*
G01*
G37*
G36*
G01*
X13120000Y-34715000D02*
X13120000Y-35465000D01*
G75*
G02*
X12745000Y-35840000I-375000J0D01*
G01*
X9495000Y-35840000D01*
G75*
G02*
X9120000Y-35465000I0J375000D01*
G01*
X9120000Y-34715000D01*
G75*
G02*
X9495000Y-34340000I375000J0D01*
G01*
X12745000Y-34340000D01*
G75*
G02*
X13120000Y-34715000I0J-375000D01*
G01*
G37*
D15*
X-3250000Y-38955000D03*
X-2450000Y-38955000D03*
X2450000Y-38955000D03*
X3250000Y-38955000D03*
X3250000Y-38955000D03*
X2450000Y-38955000D03*
X-2450000Y-38955000D03*
X-3250000Y-38955000D03*
D16*
X1750000Y-38955000D03*
X1250000Y-38955000D03*
X750000Y-38955000D03*
X-250000Y-38955000D03*
X-750000Y-38955000D03*
X-1250000Y-38955000D03*
X-1750000Y-38955000D03*
X250000Y-38955000D03*
D17*
X-42747440Y27951320D03*
X-41447440Y27951320D03*
X-42097440Y29851320D03*
X-41447440Y29851320D03*
X-42747440Y29851320D03*
G36*
G01*
X-33189840Y41560020D02*
X-33529840Y41560020D01*
G75*
G02*
X-33669840Y41700020I0J140000D01*
G01*
X-33669840Y41980020D01*
G75*
G02*
X-33529840Y42120020I140000J0D01*
G01*
X-33189840Y42120020D01*
G75*
G02*
X-33049840Y41980020I0J-140000D01*
G01*
X-33049840Y41700020D01*
G75*
G02*
X-33189840Y41560020I-140000J0D01*
G01*
G37*
G36*
G01*
X-33189840Y40600020D02*
X-33529840Y40600020D01*
G75*
G02*
X-33669840Y40740020I0J140000D01*
G01*
X-33669840Y41020020D01*
G75*
G02*
X-33529840Y41160020I140000J0D01*
G01*
X-33189840Y41160020D01*
G75*
G02*
X-33049840Y41020020I0J-140000D01*
G01*
X-33049840Y40740020D01*
G75*
G02*
X-33189840Y40600020I-140000J0D01*
G01*
G37*
D18*
X-26378920Y17020000D03*
X-26378920Y15750000D03*
X-26378920Y14480000D03*
X-26378920Y13210000D03*
X-26378920Y11940000D03*
X-26378920Y10670000D03*
X-26378920Y9400000D03*
X-26378920Y8130000D03*
X-26378920Y6860000D03*
X-26378920Y5590000D03*
X-26378920Y4320000D03*
X-26378920Y3050000D03*
X-26378920Y1780000D03*
X-26378920Y510000D03*
X-26378920Y-735000D03*
X-26378920Y-2005000D03*
X-26378920Y-3275000D03*
X-26378920Y-4545000D03*
X-26378920Y-5815000D03*
X-9378920Y-5815000D03*
X-9378920Y-4545000D03*
X-9378920Y-3275000D03*
X-9378920Y-2005000D03*
X-9378920Y-735000D03*
X-9378920Y510000D03*
X-9378920Y1780000D03*
X-9378920Y3050000D03*
X-9378920Y4320000D03*
X-9378920Y5590000D03*
X-9378920Y6860000D03*
X-9378920Y8130000D03*
X-9378920Y9400000D03*
X-9378920Y10670000D03*
X-9378920Y11940000D03*
X-9378920Y13210000D03*
X-9378920Y14480000D03*
X-9378920Y15750000D03*
X-9378920Y17020000D03*
D19*
X-16878920Y9520000D03*
G36*
G01*
X-6957500Y-24900000D02*
X-6957500Y-25100000D01*
G75*
G02*
X-7057500Y-25200000I-100000J0D01*
G01*
X-8332500Y-25200000D01*
G75*
G02*
X-8432500Y-25100000I0J100000D01*
G01*
X-8432500Y-24900000D01*
G75*
G02*
X-8332500Y-24800000I100000J0D01*
G01*
X-7057500Y-24800000D01*
G75*
G02*
X-6957500Y-24900000I0J-100000D01*
G01*
G37*
G36*
G01*
X-6957500Y-25550000D02*
X-6957500Y-25750000D01*
G75*
G02*
X-7057500Y-25850000I-100000J0D01*
G01*
X-8332500Y-25850000D01*
G75*
G02*
X-8432500Y-25750000I0J100000D01*
G01*
X-8432500Y-25550000D01*
G75*
G02*
X-8332500Y-25450000I100000J0D01*
G01*
X-7057500Y-25450000D01*
G75*
G02*
X-6957500Y-25550000I0J-100000D01*
G01*
G37*
G36*
G01*
X-6957500Y-26200000D02*
X-6957500Y-26400000D01*
G75*
G02*
X-7057500Y-26500000I-100000J0D01*
G01*
X-8332500Y-26500000D01*
G75*
G02*
X-8432500Y-26400000I0J100000D01*
G01*
X-8432500Y-26200000D01*
G75*
G02*
X-8332500Y-26100000I100000J0D01*
G01*
X-7057500Y-26100000D01*
G75*
G02*
X-6957500Y-26200000I0J-100000D01*
G01*
G37*
G36*
G01*
X-6957500Y-26850000D02*
X-6957500Y-27050000D01*
G75*
G02*
X-7057500Y-27150000I-100000J0D01*
G01*
X-8332500Y-27150000D01*
G75*
G02*
X-8432500Y-27050000I0J100000D01*
G01*
X-8432500Y-26850000D01*
G75*
G02*
X-8332500Y-26750000I100000J0D01*
G01*
X-7057500Y-26750000D01*
G75*
G02*
X-6957500Y-26850000I0J-100000D01*
G01*
G37*
G36*
G01*
X-6957500Y-27500000D02*
X-6957500Y-27700000D01*
G75*
G02*
X-7057500Y-27800000I-100000J0D01*
G01*
X-8332500Y-27800000D01*
G75*
G02*
X-8432500Y-27700000I0J100000D01*
G01*
X-8432500Y-27500000D01*
G75*
G02*
X-8332500Y-27400000I100000J0D01*
G01*
X-7057500Y-27400000D01*
G75*
G02*
X-6957500Y-27500000I0J-100000D01*
G01*
G37*
G36*
G01*
X-6957500Y-28150000D02*
X-6957500Y-28350000D01*
G75*
G02*
X-7057500Y-28450000I-100000J0D01*
G01*
X-8332500Y-28450000D01*
G75*
G02*
X-8432500Y-28350000I0J100000D01*
G01*
X-8432500Y-28150000D01*
G75*
G02*
X-8332500Y-28050000I100000J0D01*
G01*
X-7057500Y-28050000D01*
G75*
G02*
X-6957500Y-28150000I0J-100000D01*
G01*
G37*
G36*
G01*
X-6957500Y-28800000D02*
X-6957500Y-29000000D01*
G75*
G02*
X-7057500Y-29100000I-100000J0D01*
G01*
X-8332500Y-29100000D01*
G75*
G02*
X-8432500Y-29000000I0J100000D01*
G01*
X-8432500Y-28800000D01*
G75*
G02*
X-8332500Y-28700000I100000J0D01*
G01*
X-7057500Y-28700000D01*
G75*
G02*
X-6957500Y-28800000I0J-100000D01*
G01*
G37*
G36*
G01*
X-6957500Y-29450000D02*
X-6957500Y-29650000D01*
G75*
G02*
X-7057500Y-29750000I-100000J0D01*
G01*
X-8332500Y-29750000D01*
G75*
G02*
X-8432500Y-29650000I0J100000D01*
G01*
X-8432500Y-29450000D01*
G75*
G02*
X-8332500Y-29350000I100000J0D01*
G01*
X-7057500Y-29350000D01*
G75*
G02*
X-6957500Y-29450000I0J-100000D01*
G01*
G37*
G36*
G01*
X-6957500Y-30100000D02*
X-6957500Y-30300000D01*
G75*
G02*
X-7057500Y-30400000I-100000J0D01*
G01*
X-8332500Y-30400000D01*
G75*
G02*
X-8432500Y-30300000I0J100000D01*
G01*
X-8432500Y-30100000D01*
G75*
G02*
X-8332500Y-30000000I100000J0D01*
G01*
X-7057500Y-30000000D01*
G75*
G02*
X-6957500Y-30100000I0J-100000D01*
G01*
G37*
G36*
G01*
X-6957500Y-30750000D02*
X-6957500Y-30950000D01*
G75*
G02*
X-7057500Y-31050000I-100000J0D01*
G01*
X-8332500Y-31050000D01*
G75*
G02*
X-8432500Y-30950000I0J100000D01*
G01*
X-8432500Y-30750000D01*
G75*
G02*
X-8332500Y-30650000I100000J0D01*
G01*
X-7057500Y-30650000D01*
G75*
G02*
X-6957500Y-30750000I0J-100000D01*
G01*
G37*
G36*
G01*
X-6957500Y-31400000D02*
X-6957500Y-31600000D01*
G75*
G02*
X-7057500Y-31700000I-100000J0D01*
G01*
X-8332500Y-31700000D01*
G75*
G02*
X-8432500Y-31600000I0J100000D01*
G01*
X-8432500Y-31400000D01*
G75*
G02*
X-8332500Y-31300000I100000J0D01*
G01*
X-7057500Y-31300000D01*
G75*
G02*
X-6957500Y-31400000I0J-100000D01*
G01*
G37*
G36*
G01*
X-6957500Y-32050000D02*
X-6957500Y-32250000D01*
G75*
G02*
X-7057500Y-32350000I-100000J0D01*
G01*
X-8332500Y-32350000D01*
G75*
G02*
X-8432500Y-32250000I0J100000D01*
G01*
X-8432500Y-32050000D01*
G75*
G02*
X-8332500Y-31950000I100000J0D01*
G01*
X-7057500Y-31950000D01*
G75*
G02*
X-6957500Y-32050000I0J-100000D01*
G01*
G37*
G36*
G01*
X-1232500Y-32050000D02*
X-1232500Y-32250000D01*
G75*
G02*
X-1332500Y-32350000I-100000J0D01*
G01*
X-2607500Y-32350000D01*
G75*
G02*
X-2707500Y-32250000I0J100000D01*
G01*
X-2707500Y-32050000D01*
G75*
G02*
X-2607500Y-31950000I100000J0D01*
G01*
X-1332500Y-31950000D01*
G75*
G02*
X-1232500Y-32050000I0J-100000D01*
G01*
G37*
G36*
G01*
X-1232500Y-31400000D02*
X-1232500Y-31600000D01*
G75*
G02*
X-1332500Y-31700000I-100000J0D01*
G01*
X-2607500Y-31700000D01*
G75*
G02*
X-2707500Y-31600000I0J100000D01*
G01*
X-2707500Y-31400000D01*
G75*
G02*
X-2607500Y-31300000I100000J0D01*
G01*
X-1332500Y-31300000D01*
G75*
G02*
X-1232500Y-31400000I0J-100000D01*
G01*
G37*
G36*
G01*
X-1232500Y-30750000D02*
X-1232500Y-30950000D01*
G75*
G02*
X-1332500Y-31050000I-100000J0D01*
G01*
X-2607500Y-31050000D01*
G75*
G02*
X-2707500Y-30950000I0J100000D01*
G01*
X-2707500Y-30750000D01*
G75*
G02*
X-2607500Y-30650000I100000J0D01*
G01*
X-1332500Y-30650000D01*
G75*
G02*
X-1232500Y-30750000I0J-100000D01*
G01*
G37*
G36*
G01*
X-1232500Y-30100000D02*
X-1232500Y-30300000D01*
G75*
G02*
X-1332500Y-30400000I-100000J0D01*
G01*
X-2607500Y-30400000D01*
G75*
G02*
X-2707500Y-30300000I0J100000D01*
G01*
X-2707500Y-30100000D01*
G75*
G02*
X-2607500Y-30000000I100000J0D01*
G01*
X-1332500Y-30000000D01*
G75*
G02*
X-1232500Y-30100000I0J-100000D01*
G01*
G37*
G36*
G01*
X-1232500Y-29450000D02*
X-1232500Y-29650000D01*
G75*
G02*
X-1332500Y-29750000I-100000J0D01*
G01*
X-2607500Y-29750000D01*
G75*
G02*
X-2707500Y-29650000I0J100000D01*
G01*
X-2707500Y-29450000D01*
G75*
G02*
X-2607500Y-29350000I100000J0D01*
G01*
X-1332500Y-29350000D01*
G75*
G02*
X-1232500Y-29450000I0J-100000D01*
G01*
G37*
G36*
G01*
X-1232500Y-28800000D02*
X-1232500Y-29000000D01*
G75*
G02*
X-1332500Y-29100000I-100000J0D01*
G01*
X-2607500Y-29100000D01*
G75*
G02*
X-2707500Y-29000000I0J100000D01*
G01*
X-2707500Y-28800000D01*
G75*
G02*
X-2607500Y-28700000I100000J0D01*
G01*
X-1332500Y-28700000D01*
G75*
G02*
X-1232500Y-28800000I0J-100000D01*
G01*
G37*
G36*
G01*
X-1232500Y-28150000D02*
X-1232500Y-28350000D01*
G75*
G02*
X-1332500Y-28450000I-100000J0D01*
G01*
X-2607500Y-28450000D01*
G75*
G02*
X-2707500Y-28350000I0J100000D01*
G01*
X-2707500Y-28150000D01*
G75*
G02*
X-2607500Y-28050000I100000J0D01*
G01*
X-1332500Y-28050000D01*
G75*
G02*
X-1232500Y-28150000I0J-100000D01*
G01*
G37*
G36*
G01*
X-1232500Y-27500000D02*
X-1232500Y-27700000D01*
G75*
G02*
X-1332500Y-27800000I-100000J0D01*
G01*
X-2607500Y-27800000D01*
G75*
G02*
X-2707500Y-27700000I0J100000D01*
G01*
X-2707500Y-27500000D01*
G75*
G02*
X-2607500Y-27400000I100000J0D01*
G01*
X-1332500Y-27400000D01*
G75*
G02*
X-1232500Y-27500000I0J-100000D01*
G01*
G37*
G36*
G01*
X-1232500Y-26850000D02*
X-1232500Y-27050000D01*
G75*
G02*
X-1332500Y-27150000I-100000J0D01*
G01*
X-2607500Y-27150000D01*
G75*
G02*
X-2707500Y-27050000I0J100000D01*
G01*
X-2707500Y-26850000D01*
G75*
G02*
X-2607500Y-26750000I100000J0D01*
G01*
X-1332500Y-26750000D01*
G75*
G02*
X-1232500Y-26850000I0J-100000D01*
G01*
G37*
G36*
G01*
X-1232500Y-26200000D02*
X-1232500Y-26400000D01*
G75*
G02*
X-1332500Y-26500000I-100000J0D01*
G01*
X-2607500Y-26500000D01*
G75*
G02*
X-2707500Y-26400000I0J100000D01*
G01*
X-2707500Y-26200000D01*
G75*
G02*
X-2607500Y-26100000I100000J0D01*
G01*
X-1332500Y-26100000D01*
G75*
G02*
X-1232500Y-26200000I0J-100000D01*
G01*
G37*
G36*
G01*
X-1232500Y-25550000D02*
X-1232500Y-25750000D01*
G75*
G02*
X-1332500Y-25850000I-100000J0D01*
G01*
X-2607500Y-25850000D01*
G75*
G02*
X-2707500Y-25750000I0J100000D01*
G01*
X-2707500Y-25550000D01*
G75*
G02*
X-2607500Y-25450000I100000J0D01*
G01*
X-1332500Y-25450000D01*
G75*
G02*
X-1232500Y-25550000I0J-100000D01*
G01*
G37*
G36*
G01*
X-1232500Y-24900000D02*
X-1232500Y-25100000D01*
G75*
G02*
X-1332500Y-25200000I-100000J0D01*
G01*
X-2607500Y-25200000D01*
G75*
G02*
X-2707500Y-25100000I0J100000D01*
G01*
X-2707500Y-24900000D01*
G75*
G02*
X-2607500Y-24800000I100000J0D01*
G01*
X-1332500Y-24800000D01*
G75*
G02*
X-1232500Y-24900000I0J-100000D01*
G01*
G37*
G36*
G01*
X-13565000Y-33895000D02*
X-13565000Y-33525000D01*
G75*
G02*
X-13430000Y-33390000I135000J0D01*
G01*
X-13160000Y-33390000D01*
G75*
G02*
X-13025000Y-33525000I0J-135000D01*
G01*
X-13025000Y-33895000D01*
G75*
G02*
X-13160000Y-34030000I-135000J0D01*
G01*
X-13430000Y-34030000D01*
G75*
G02*
X-13565000Y-33895000I0J135000D01*
G01*
G37*
G36*
G01*
X-14585000Y-33895000D02*
X-14585000Y-33525000D01*
G75*
G02*
X-14450000Y-33390000I135000J0D01*
G01*
X-14180000Y-33390000D01*
G75*
G02*
X-14045000Y-33525000I0J-135000D01*
G01*
X-14045000Y-33895000D01*
G75*
G02*
X-14180000Y-34030000I-135000J0D01*
G01*
X-14450000Y-34030000D01*
G75*
G02*
X-14585000Y-33895000I0J135000D01*
G01*
G37*
G36*
G01*
X-6935000Y-15080000D02*
X-5610000Y-15080000D01*
G75*
G02*
X-5535000Y-15155000I0J-75000D01*
G01*
X-5535000Y-15305000D01*
G75*
G02*
X-5610000Y-15380000I-75000J0D01*
G01*
X-6935000Y-15380000D01*
G75*
G02*
X-7010000Y-15305000I0J75000D01*
G01*
X-7010000Y-15155000D01*
G75*
G02*
X-6935000Y-15080000I75000J0D01*
G01*
G37*
G36*
G01*
X-6935000Y-15580000D02*
X-5610000Y-15580000D01*
G75*
G02*
X-5535000Y-15655000I0J-75000D01*
G01*
X-5535000Y-15805000D01*
G75*
G02*
X-5610000Y-15880000I-75000J0D01*
G01*
X-6935000Y-15880000D01*
G75*
G02*
X-7010000Y-15805000I0J75000D01*
G01*
X-7010000Y-15655000D01*
G75*
G02*
X-6935000Y-15580000I75000J0D01*
G01*
G37*
G36*
G01*
X-6935000Y-16080000D02*
X-5610000Y-16080000D01*
G75*
G02*
X-5535000Y-16155000I0J-75000D01*
G01*
X-5535000Y-16305000D01*
G75*
G02*
X-5610000Y-16380000I-75000J0D01*
G01*
X-6935000Y-16380000D01*
G75*
G02*
X-7010000Y-16305000I0J75000D01*
G01*
X-7010000Y-16155000D01*
G75*
G02*
X-6935000Y-16080000I75000J0D01*
G01*
G37*
G36*
G01*
X-6935000Y-16580000D02*
X-5610000Y-16580000D01*
G75*
G02*
X-5535000Y-16655000I0J-75000D01*
G01*
X-5535000Y-16805000D01*
G75*
G02*
X-5610000Y-16880000I-75000J0D01*
G01*
X-6935000Y-16880000D01*
G75*
G02*
X-7010000Y-16805000I0J75000D01*
G01*
X-7010000Y-16655000D01*
G75*
G02*
X-6935000Y-16580000I75000J0D01*
G01*
G37*
G36*
G01*
X-6935000Y-17080000D02*
X-5610000Y-17080000D01*
G75*
G02*
X-5535000Y-17155000I0J-75000D01*
G01*
X-5535000Y-17305000D01*
G75*
G02*
X-5610000Y-17380000I-75000J0D01*
G01*
X-6935000Y-17380000D01*
G75*
G02*
X-7010000Y-17305000I0J75000D01*
G01*
X-7010000Y-17155000D01*
G75*
G02*
X-6935000Y-17080000I75000J0D01*
G01*
G37*
G36*
G01*
X-6935000Y-17580000D02*
X-5610000Y-17580000D01*
G75*
G02*
X-5535000Y-17655000I0J-75000D01*
G01*
X-5535000Y-17805000D01*
G75*
G02*
X-5610000Y-17880000I-75000J0D01*
G01*
X-6935000Y-17880000D01*
G75*
G02*
X-7010000Y-17805000I0J75000D01*
G01*
X-7010000Y-17655000D01*
G75*
G02*
X-6935000Y-17580000I75000J0D01*
G01*
G37*
G36*
G01*
X-6935000Y-18080000D02*
X-5610000Y-18080000D01*
G75*
G02*
X-5535000Y-18155000I0J-75000D01*
G01*
X-5535000Y-18305000D01*
G75*
G02*
X-5610000Y-18380000I-75000J0D01*
G01*
X-6935000Y-18380000D01*
G75*
G02*
X-7010000Y-18305000I0J75000D01*
G01*
X-7010000Y-18155000D01*
G75*
G02*
X-6935000Y-18080000I75000J0D01*
G01*
G37*
G36*
G01*
X-6935000Y-18580000D02*
X-5610000Y-18580000D01*
G75*
G02*
X-5535000Y-18655000I0J-75000D01*
G01*
X-5535000Y-18805000D01*
G75*
G02*
X-5610000Y-18880000I-75000J0D01*
G01*
X-6935000Y-18880000D01*
G75*
G02*
X-7010000Y-18805000I0J75000D01*
G01*
X-7010000Y-18655000D01*
G75*
G02*
X-6935000Y-18580000I75000J0D01*
G01*
G37*
G36*
G01*
X-6935000Y-19080000D02*
X-5610000Y-19080000D01*
G75*
G02*
X-5535000Y-19155000I0J-75000D01*
G01*
X-5535000Y-19305000D01*
G75*
G02*
X-5610000Y-19380000I-75000J0D01*
G01*
X-6935000Y-19380000D01*
G75*
G02*
X-7010000Y-19305000I0J75000D01*
G01*
X-7010000Y-19155000D01*
G75*
G02*
X-6935000Y-19080000I75000J0D01*
G01*
G37*
G36*
G01*
X-6935000Y-19580000D02*
X-5610000Y-19580000D01*
G75*
G02*
X-5535000Y-19655000I0J-75000D01*
G01*
X-5535000Y-19805000D01*
G75*
G02*
X-5610000Y-19880000I-75000J0D01*
G01*
X-6935000Y-19880000D01*
G75*
G02*
X-7010000Y-19805000I0J75000D01*
G01*
X-7010000Y-19655000D01*
G75*
G02*
X-6935000Y-19580000I75000J0D01*
G01*
G37*
G36*
G01*
X-6935000Y-20080000D02*
X-5610000Y-20080000D01*
G75*
G02*
X-5535000Y-20155000I0J-75000D01*
G01*
X-5535000Y-20305000D01*
G75*
G02*
X-5610000Y-20380000I-75000J0D01*
G01*
X-6935000Y-20380000D01*
G75*
G02*
X-7010000Y-20305000I0J75000D01*
G01*
X-7010000Y-20155000D01*
G75*
G02*
X-6935000Y-20080000I75000J0D01*
G01*
G37*
G36*
G01*
X-6935000Y-20580000D02*
X-5610000Y-20580000D01*
G75*
G02*
X-5535000Y-20655000I0J-75000D01*
G01*
X-5535000Y-20805000D01*
G75*
G02*
X-5610000Y-20880000I-75000J0D01*
G01*
X-6935000Y-20880000D01*
G75*
G02*
X-7010000Y-20805000I0J75000D01*
G01*
X-7010000Y-20655000D01*
G75*
G02*
X-6935000Y-20580000I75000J0D01*
G01*
G37*
G36*
G01*
X-4935000Y-21405000D02*
X-4785000Y-21405000D01*
G75*
G02*
X-4710000Y-21480000I0J-75000D01*
G01*
X-4710000Y-22805000D01*
G75*
G02*
X-4785000Y-22880000I-75000J0D01*
G01*
X-4935000Y-22880000D01*
G75*
G02*
X-5010000Y-22805000I0J75000D01*
G01*
X-5010000Y-21480000D01*
G75*
G02*
X-4935000Y-21405000I75000J0D01*
G01*
G37*
G36*
G01*
X-4435000Y-21405000D02*
X-4285000Y-21405000D01*
G75*
G02*
X-4210000Y-21480000I0J-75000D01*
G01*
X-4210000Y-22805000D01*
G75*
G02*
X-4285000Y-22880000I-75000J0D01*
G01*
X-4435000Y-22880000D01*
G75*
G02*
X-4510000Y-22805000I0J75000D01*
G01*
X-4510000Y-21480000D01*
G75*
G02*
X-4435000Y-21405000I75000J0D01*
G01*
G37*
G36*
G01*
X-3935000Y-21405000D02*
X-3785000Y-21405000D01*
G75*
G02*
X-3710000Y-21480000I0J-75000D01*
G01*
X-3710000Y-22805000D01*
G75*
G02*
X-3785000Y-22880000I-75000J0D01*
G01*
X-3935000Y-22880000D01*
G75*
G02*
X-4010000Y-22805000I0J75000D01*
G01*
X-4010000Y-21480000D01*
G75*
G02*
X-3935000Y-21405000I75000J0D01*
G01*
G37*
G36*
G01*
X-3435000Y-21405000D02*
X-3285000Y-21405000D01*
G75*
G02*
X-3210000Y-21480000I0J-75000D01*
G01*
X-3210000Y-22805000D01*
G75*
G02*
X-3285000Y-22880000I-75000J0D01*
G01*
X-3435000Y-22880000D01*
G75*
G02*
X-3510000Y-22805000I0J75000D01*
G01*
X-3510000Y-21480000D01*
G75*
G02*
X-3435000Y-21405000I75000J0D01*
G01*
G37*
G36*
G01*
X-2935000Y-21405000D02*
X-2785000Y-21405000D01*
G75*
G02*
X-2710000Y-21480000I0J-75000D01*
G01*
X-2710000Y-22805000D01*
G75*
G02*
X-2785000Y-22880000I-75000J0D01*
G01*
X-2935000Y-22880000D01*
G75*
G02*
X-3010000Y-22805000I0J75000D01*
G01*
X-3010000Y-21480000D01*
G75*
G02*
X-2935000Y-21405000I75000J0D01*
G01*
G37*
G36*
G01*
X-2435000Y-21405000D02*
X-2285000Y-21405000D01*
G75*
G02*
X-2210000Y-21480000I0J-75000D01*
G01*
X-2210000Y-22805000D01*
G75*
G02*
X-2285000Y-22880000I-75000J0D01*
G01*
X-2435000Y-22880000D01*
G75*
G02*
X-2510000Y-22805000I0J75000D01*
G01*
X-2510000Y-21480000D01*
G75*
G02*
X-2435000Y-21405000I75000J0D01*
G01*
G37*
G36*
G01*
X-1935000Y-21405000D02*
X-1785000Y-21405000D01*
G75*
G02*
X-1710000Y-21480000I0J-75000D01*
G01*
X-1710000Y-22805000D01*
G75*
G02*
X-1785000Y-22880000I-75000J0D01*
G01*
X-1935000Y-22880000D01*
G75*
G02*
X-2010000Y-22805000I0J75000D01*
G01*
X-2010000Y-21480000D01*
G75*
G02*
X-1935000Y-21405000I75000J0D01*
G01*
G37*
G36*
G01*
X-1435000Y-21405000D02*
X-1285000Y-21405000D01*
G75*
G02*
X-1210000Y-21480000I0J-75000D01*
G01*
X-1210000Y-22805000D01*
G75*
G02*
X-1285000Y-22880000I-75000J0D01*
G01*
X-1435000Y-22880000D01*
G75*
G02*
X-1510000Y-22805000I0J75000D01*
G01*
X-1510000Y-21480000D01*
G75*
G02*
X-1435000Y-21405000I75000J0D01*
G01*
G37*
G36*
G01*
X-935000Y-21405000D02*
X-785000Y-21405000D01*
G75*
G02*
X-710000Y-21480000I0J-75000D01*
G01*
X-710000Y-22805000D01*
G75*
G02*
X-785000Y-22880000I-75000J0D01*
G01*
X-935000Y-22880000D01*
G75*
G02*
X-1010000Y-22805000I0J75000D01*
G01*
X-1010000Y-21480000D01*
G75*
G02*
X-935000Y-21405000I75000J0D01*
G01*
G37*
G36*
G01*
X-435000Y-21405000D02*
X-285000Y-21405000D01*
G75*
G02*
X-210000Y-21480000I0J-75000D01*
G01*
X-210000Y-22805000D01*
G75*
G02*
X-285000Y-22880000I-75000J0D01*
G01*
X-435000Y-22880000D01*
G75*
G02*
X-510000Y-22805000I0J75000D01*
G01*
X-510000Y-21480000D01*
G75*
G02*
X-435000Y-21405000I75000J0D01*
G01*
G37*
G36*
G01*
X65000Y-21405000D02*
X215000Y-21405000D01*
G75*
G02*
X290000Y-21480000I0J-75000D01*
G01*
X290000Y-22805000D01*
G75*
G02*
X215000Y-22880000I-75000J0D01*
G01*
X65000Y-22880000D01*
G75*
G02*
X-10000Y-22805000I0J75000D01*
G01*
X-10000Y-21480000D01*
G75*
G02*
X65000Y-21405000I75000J0D01*
G01*
G37*
G36*
G01*
X565000Y-21405000D02*
X715000Y-21405000D01*
G75*
G02*
X790000Y-21480000I0J-75000D01*
G01*
X790000Y-22805000D01*
G75*
G02*
X715000Y-22880000I-75000J0D01*
G01*
X565000Y-22880000D01*
G75*
G02*
X490000Y-22805000I0J75000D01*
G01*
X490000Y-21480000D01*
G75*
G02*
X565000Y-21405000I75000J0D01*
G01*
G37*
G36*
G01*
X1390000Y-20580000D02*
X2715000Y-20580000D01*
G75*
G02*
X2790000Y-20655000I0J-75000D01*
G01*
X2790000Y-20805000D01*
G75*
G02*
X2715000Y-20880000I-75000J0D01*
G01*
X1390000Y-20880000D01*
G75*
G02*
X1315000Y-20805000I0J75000D01*
G01*
X1315000Y-20655000D01*
G75*
G02*
X1390000Y-20580000I75000J0D01*
G01*
G37*
G36*
G01*
X1390000Y-20080000D02*
X2715000Y-20080000D01*
G75*
G02*
X2790000Y-20155000I0J-75000D01*
G01*
X2790000Y-20305000D01*
G75*
G02*
X2715000Y-20380000I-75000J0D01*
G01*
X1390000Y-20380000D01*
G75*
G02*
X1315000Y-20305000I0J75000D01*
G01*
X1315000Y-20155000D01*
G75*
G02*
X1390000Y-20080000I75000J0D01*
G01*
G37*
G36*
G01*
X1390000Y-19580000D02*
X2715000Y-19580000D01*
G75*
G02*
X2790000Y-19655000I0J-75000D01*
G01*
X2790000Y-19805000D01*
G75*
G02*
X2715000Y-19880000I-75000J0D01*
G01*
X1390000Y-19880000D01*
G75*
G02*
X1315000Y-19805000I0J75000D01*
G01*
X1315000Y-19655000D01*
G75*
G02*
X1390000Y-19580000I75000J0D01*
G01*
G37*
G36*
G01*
X1390000Y-19080000D02*
X2715000Y-19080000D01*
G75*
G02*
X2790000Y-19155000I0J-75000D01*
G01*
X2790000Y-19305000D01*
G75*
G02*
X2715000Y-19380000I-75000J0D01*
G01*
X1390000Y-19380000D01*
G75*
G02*
X1315000Y-19305000I0J75000D01*
G01*
X1315000Y-19155000D01*
G75*
G02*
X1390000Y-19080000I75000J0D01*
G01*
G37*
G36*
G01*
X1390000Y-18580000D02*
X2715000Y-18580000D01*
G75*
G02*
X2790000Y-18655000I0J-75000D01*
G01*
X2790000Y-18805000D01*
G75*
G02*
X2715000Y-18880000I-75000J0D01*
G01*
X1390000Y-18880000D01*
G75*
G02*
X1315000Y-18805000I0J75000D01*
G01*
X1315000Y-18655000D01*
G75*
G02*
X1390000Y-18580000I75000J0D01*
G01*
G37*
G36*
G01*
X1390000Y-18080000D02*
X2715000Y-18080000D01*
G75*
G02*
X2790000Y-18155000I0J-75000D01*
G01*
X2790000Y-18305000D01*
G75*
G02*
X2715000Y-18380000I-75000J0D01*
G01*
X1390000Y-18380000D01*
G75*
G02*
X1315000Y-18305000I0J75000D01*
G01*
X1315000Y-18155000D01*
G75*
G02*
X1390000Y-18080000I75000J0D01*
G01*
G37*
G36*
G01*
X1390000Y-17580000D02*
X2715000Y-17580000D01*
G75*
G02*
X2790000Y-17655000I0J-75000D01*
G01*
X2790000Y-17805000D01*
G75*
G02*
X2715000Y-17880000I-75000J0D01*
G01*
X1390000Y-17880000D01*
G75*
G02*
X1315000Y-17805000I0J75000D01*
G01*
X1315000Y-17655000D01*
G75*
G02*
X1390000Y-17580000I75000J0D01*
G01*
G37*
G36*
G01*
X1390000Y-17080000D02*
X2715000Y-17080000D01*
G75*
G02*
X2790000Y-17155000I0J-75000D01*
G01*
X2790000Y-17305000D01*
G75*
G02*
X2715000Y-17380000I-75000J0D01*
G01*
X1390000Y-17380000D01*
G75*
G02*
X1315000Y-17305000I0J75000D01*
G01*
X1315000Y-17155000D01*
G75*
G02*
X1390000Y-17080000I75000J0D01*
G01*
G37*
G36*
G01*
X1390000Y-16580000D02*
X2715000Y-16580000D01*
G75*
G02*
X2790000Y-16655000I0J-75000D01*
G01*
X2790000Y-16805000D01*
G75*
G02*
X2715000Y-16880000I-75000J0D01*
G01*
X1390000Y-16880000D01*
G75*
G02*
X1315000Y-16805000I0J75000D01*
G01*
X1315000Y-16655000D01*
G75*
G02*
X1390000Y-16580000I75000J0D01*
G01*
G37*
G36*
G01*
X1390000Y-16080000D02*
X2715000Y-16080000D01*
G75*
G02*
X2790000Y-16155000I0J-75000D01*
G01*
X2790000Y-16305000D01*
G75*
G02*
X2715000Y-16380000I-75000J0D01*
G01*
X1390000Y-16380000D01*
G75*
G02*
X1315000Y-16305000I0J75000D01*
G01*
X1315000Y-16155000D01*
G75*
G02*
X1390000Y-16080000I75000J0D01*
G01*
G37*
G36*
G01*
X1390000Y-15580000D02*
X2715000Y-15580000D01*
G75*
G02*
X2790000Y-15655000I0J-75000D01*
G01*
X2790000Y-15805000D01*
G75*
G02*
X2715000Y-15880000I-75000J0D01*
G01*
X1390000Y-15880000D01*
G75*
G02*
X1315000Y-15805000I0J75000D01*
G01*
X1315000Y-15655000D01*
G75*
G02*
X1390000Y-15580000I75000J0D01*
G01*
G37*
G36*
G01*
X1390000Y-15080000D02*
X2715000Y-15080000D01*
G75*
G02*
X2790000Y-15155000I0J-75000D01*
G01*
X2790000Y-15305000D01*
G75*
G02*
X2715000Y-15380000I-75000J0D01*
G01*
X1390000Y-15380000D01*
G75*
G02*
X1315000Y-15305000I0J75000D01*
G01*
X1315000Y-15155000D01*
G75*
G02*
X1390000Y-15080000I75000J0D01*
G01*
G37*
G36*
G01*
X565000Y-13080000D02*
X715000Y-13080000D01*
G75*
G02*
X790000Y-13155000I0J-75000D01*
G01*
X790000Y-14480000D01*
G75*
G02*
X715000Y-14555000I-75000J0D01*
G01*
X565000Y-14555000D01*
G75*
G02*
X490000Y-14480000I0J75000D01*
G01*
X490000Y-13155000D01*
G75*
G02*
X565000Y-13080000I75000J0D01*
G01*
G37*
G36*
G01*
X65000Y-13080000D02*
X215000Y-13080000D01*
G75*
G02*
X290000Y-13155000I0J-75000D01*
G01*
X290000Y-14480000D01*
G75*
G02*
X215000Y-14555000I-75000J0D01*
G01*
X65000Y-14555000D01*
G75*
G02*
X-10000Y-14480000I0J75000D01*
G01*
X-10000Y-13155000D01*
G75*
G02*
X65000Y-13080000I75000J0D01*
G01*
G37*
G36*
G01*
X-435000Y-13080000D02*
X-285000Y-13080000D01*
G75*
G02*
X-210000Y-13155000I0J-75000D01*
G01*
X-210000Y-14480000D01*
G75*
G02*
X-285000Y-14555000I-75000J0D01*
G01*
X-435000Y-14555000D01*
G75*
G02*
X-510000Y-14480000I0J75000D01*
G01*
X-510000Y-13155000D01*
G75*
G02*
X-435000Y-13080000I75000J0D01*
G01*
G37*
G36*
G01*
X-935000Y-13080000D02*
X-785000Y-13080000D01*
G75*
G02*
X-710000Y-13155000I0J-75000D01*
G01*
X-710000Y-14480000D01*
G75*
G02*
X-785000Y-14555000I-75000J0D01*
G01*
X-935000Y-14555000D01*
G75*
G02*
X-1010000Y-14480000I0J75000D01*
G01*
X-1010000Y-13155000D01*
G75*
G02*
X-935000Y-13080000I75000J0D01*
G01*
G37*
G36*
G01*
X-1435000Y-13080000D02*
X-1285000Y-13080000D01*
G75*
G02*
X-1210000Y-13155000I0J-75000D01*
G01*
X-1210000Y-14480000D01*
G75*
G02*
X-1285000Y-14555000I-75000J0D01*
G01*
X-1435000Y-14555000D01*
G75*
G02*
X-1510000Y-14480000I0J75000D01*
G01*
X-1510000Y-13155000D01*
G75*
G02*
X-1435000Y-13080000I75000J0D01*
G01*
G37*
G36*
G01*
X-1935000Y-13080000D02*
X-1785000Y-13080000D01*
G75*
G02*
X-1710000Y-13155000I0J-75000D01*
G01*
X-1710000Y-14480000D01*
G75*
G02*
X-1785000Y-14555000I-75000J0D01*
G01*
X-1935000Y-14555000D01*
G75*
G02*
X-2010000Y-14480000I0J75000D01*
G01*
X-2010000Y-13155000D01*
G75*
G02*
X-1935000Y-13080000I75000J0D01*
G01*
G37*
G36*
G01*
X-2435000Y-13080000D02*
X-2285000Y-13080000D01*
G75*
G02*
X-2210000Y-13155000I0J-75000D01*
G01*
X-2210000Y-14480000D01*
G75*
G02*
X-2285000Y-14555000I-75000J0D01*
G01*
X-2435000Y-14555000D01*
G75*
G02*
X-2510000Y-14480000I0J75000D01*
G01*
X-2510000Y-13155000D01*
G75*
G02*
X-2435000Y-13080000I75000J0D01*
G01*
G37*
G36*
G01*
X-2935000Y-13080000D02*
X-2785000Y-13080000D01*
G75*
G02*
X-2710000Y-13155000I0J-75000D01*
G01*
X-2710000Y-14480000D01*
G75*
G02*
X-2785000Y-14555000I-75000J0D01*
G01*
X-2935000Y-14555000D01*
G75*
G02*
X-3010000Y-14480000I0J75000D01*
G01*
X-3010000Y-13155000D01*
G75*
G02*
X-2935000Y-13080000I75000J0D01*
G01*
G37*
G36*
G01*
X-3435000Y-13080000D02*
X-3285000Y-13080000D01*
G75*
G02*
X-3210000Y-13155000I0J-75000D01*
G01*
X-3210000Y-14480000D01*
G75*
G02*
X-3285000Y-14555000I-75000J0D01*
G01*
X-3435000Y-14555000D01*
G75*
G02*
X-3510000Y-14480000I0J75000D01*
G01*
X-3510000Y-13155000D01*
G75*
G02*
X-3435000Y-13080000I75000J0D01*
G01*
G37*
G36*
G01*
X-3935000Y-13080000D02*
X-3785000Y-13080000D01*
G75*
G02*
X-3710000Y-13155000I0J-75000D01*
G01*
X-3710000Y-14480000D01*
G75*
G02*
X-3785000Y-14555000I-75000J0D01*
G01*
X-3935000Y-14555000D01*
G75*
G02*
X-4010000Y-14480000I0J75000D01*
G01*
X-4010000Y-13155000D01*
G75*
G02*
X-3935000Y-13080000I75000J0D01*
G01*
G37*
G36*
G01*
X-4435000Y-13080000D02*
X-4285000Y-13080000D01*
G75*
G02*
X-4210000Y-13155000I0J-75000D01*
G01*
X-4210000Y-14480000D01*
G75*
G02*
X-4285000Y-14555000I-75000J0D01*
G01*
X-4435000Y-14555000D01*
G75*
G02*
X-4510000Y-14480000I0J75000D01*
G01*
X-4510000Y-13155000D01*
G75*
G02*
X-4435000Y-13080000I75000J0D01*
G01*
G37*
G36*
G01*
X-4935000Y-13080000D02*
X-4785000Y-13080000D01*
G75*
G02*
X-4710000Y-13155000I0J-75000D01*
G01*
X-4710000Y-14480000D01*
G75*
G02*
X-4785000Y-14555000I-75000J0D01*
G01*
X-4935000Y-14555000D01*
G75*
G02*
X-5010000Y-14480000I0J75000D01*
G01*
X-5010000Y-13155000D01*
G75*
G02*
X-4935000Y-13080000I75000J0D01*
G01*
G37*
G36*
G01*
X10100000Y-28140000D02*
X10100000Y-28480000D01*
G75*
G02*
X9960000Y-28620000I-140000J0D01*
G01*
X9680000Y-28620000D01*
G75*
G02*
X9540000Y-28480000I0J140000D01*
G01*
X9540000Y-28140000D01*
G75*
G02*
X9680000Y-28000000I140000J0D01*
G01*
X9960000Y-28000000D01*
G75*
G02*
X10100000Y-28140000I0J-140000D01*
G01*
G37*
G36*
G01*
X11060000Y-28140000D02*
X11060000Y-28480000D01*
G75*
G02*
X10920000Y-28620000I-140000J0D01*
G01*
X10640000Y-28620000D01*
G75*
G02*
X10500000Y-28480000I0J140000D01*
G01*
X10500000Y-28140000D01*
G75*
G02*
X10640000Y-28000000I140000J0D01*
G01*
X10920000Y-28000000D01*
G75*
G02*
X11060000Y-28140000I0J-140000D01*
G01*
G37*
G36*
G01*
X10115060Y-29326200D02*
X10115060Y-29666200D01*
G75*
G02*
X9975060Y-29806200I-140000J0D01*
G01*
X9695060Y-29806200D01*
G75*
G02*
X9555060Y-29666200I0J140000D01*
G01*
X9555060Y-29326200D01*
G75*
G02*
X9695060Y-29186200I140000J0D01*
G01*
X9975060Y-29186200D01*
G75*
G02*
X10115060Y-29326200I0J-140000D01*
G01*
G37*
G36*
G01*
X11075060Y-29326200D02*
X11075060Y-29666200D01*
G75*
G02*
X10935060Y-29806200I-140000J0D01*
G01*
X10655060Y-29806200D01*
G75*
G02*
X10515060Y-29666200I0J140000D01*
G01*
X10515060Y-29326200D01*
G75*
G02*
X10655060Y-29186200I140000J0D01*
G01*
X10935060Y-29186200D01*
G75*
G02*
X11075060Y-29326200I0J-140000D01*
G01*
G37*
G36*
G01*
X12405000Y-31540000D02*
X12775000Y-31540000D01*
G75*
G02*
X12910000Y-31675000I0J-135000D01*
G01*
X12910000Y-31945000D01*
G75*
G02*
X12775000Y-32080000I-135000J0D01*
G01*
X12405000Y-32080000D01*
G75*
G02*
X12270000Y-31945000I0J135000D01*
G01*
X12270000Y-31675000D01*
G75*
G02*
X12405000Y-31540000I135000J0D01*
G01*
G37*
G36*
G01*
X12405000Y-30520000D02*
X12775000Y-30520000D01*
G75*
G02*
X12910000Y-30655000I0J-135000D01*
G01*
X12910000Y-30925000D01*
G75*
G02*
X12775000Y-31060000I-135000J0D01*
G01*
X12405000Y-31060000D01*
G75*
G02*
X12270000Y-30925000I0J135000D01*
G01*
X12270000Y-30655000D01*
G75*
G02*
X12405000Y-30520000I135000J0D01*
G01*
G37*
G36*
G01*
X13655000Y-31540000D02*
X14025000Y-31540000D01*
G75*
G02*
X14160000Y-31675000I0J-135000D01*
G01*
X14160000Y-31945000D01*
G75*
G02*
X14025000Y-32080000I-135000J0D01*
G01*
X13655000Y-32080000D01*
G75*
G02*
X13520000Y-31945000I0J135000D01*
G01*
X13520000Y-31675000D01*
G75*
G02*
X13655000Y-31540000I135000J0D01*
G01*
G37*
G36*
G01*
X13655000Y-30520000D02*
X14025000Y-30520000D01*
G75*
G02*
X14160000Y-30655000I0J-135000D01*
G01*
X14160000Y-30925000D01*
G75*
G02*
X14025000Y-31060000I-135000J0D01*
G01*
X13655000Y-31060000D01*
G75*
G02*
X13520000Y-30925000I0J135000D01*
G01*
X13520000Y-30655000D01*
G75*
G02*
X13655000Y-30520000I135000J0D01*
G01*
G37*
G36*
G01*
X9905000Y-31540000D02*
X10275000Y-31540000D01*
G75*
G02*
X10410000Y-31675000I0J-135000D01*
G01*
X10410000Y-31945000D01*
G75*
G02*
X10275000Y-32080000I-135000J0D01*
G01*
X9905000Y-32080000D01*
G75*
G02*
X9770000Y-31945000I0J135000D01*
G01*
X9770000Y-31675000D01*
G75*
G02*
X9905000Y-31540000I135000J0D01*
G01*
G37*
G36*
G01*
X9905000Y-30520000D02*
X10275000Y-30520000D01*
G75*
G02*
X10410000Y-30655000I0J-135000D01*
G01*
X10410000Y-30925000D01*
G75*
G02*
X10275000Y-31060000I-135000J0D01*
G01*
X9905000Y-31060000D01*
G75*
G02*
X9770000Y-30925000I0J135000D01*
G01*
X9770000Y-30655000D01*
G75*
G02*
X9905000Y-30520000I135000J0D01*
G01*
G37*
G36*
G01*
X16155000Y-31540000D02*
X16525000Y-31540000D01*
G75*
G02*
X16660000Y-31675000I0J-135000D01*
G01*
X16660000Y-31945000D01*
G75*
G02*
X16525000Y-32080000I-135000J0D01*
G01*
X16155000Y-32080000D01*
G75*
G02*
X16020000Y-31945000I0J135000D01*
G01*
X16020000Y-31675000D01*
G75*
G02*
X16155000Y-31540000I135000J0D01*
G01*
G37*
G36*
G01*
X16155000Y-30520000D02*
X16525000Y-30520000D01*
G75*
G02*
X16660000Y-30655000I0J-135000D01*
G01*
X16660000Y-30925000D01*
G75*
G02*
X16525000Y-31060000I-135000J0D01*
G01*
X16155000Y-31060000D01*
G75*
G02*
X16020000Y-30925000I0J135000D01*
G01*
X16020000Y-30655000D01*
G75*
G02*
X16155000Y-30520000I135000J0D01*
G01*
G37*
G36*
G01*
X8655000Y-31540000D02*
X9025000Y-31540000D01*
G75*
G02*
X9160000Y-31675000I0J-135000D01*
G01*
X9160000Y-31945000D01*
G75*
G02*
X9025000Y-32080000I-135000J0D01*
G01*
X8655000Y-32080000D01*
G75*
G02*
X8520000Y-31945000I0J135000D01*
G01*
X8520000Y-31675000D01*
G75*
G02*
X8655000Y-31540000I135000J0D01*
G01*
G37*
G36*
G01*
X8655000Y-30520000D02*
X9025000Y-30520000D01*
G75*
G02*
X9160000Y-30655000I0J-135000D01*
G01*
X9160000Y-30925000D01*
G75*
G02*
X9025000Y-31060000I-135000J0D01*
G01*
X8655000Y-31060000D01*
G75*
G02*
X8520000Y-30925000I0J135000D01*
G01*
X8520000Y-30655000D01*
G75*
G02*
X8655000Y-30520000I135000J0D01*
G01*
G37*
G36*
G01*
X17405000Y-31540000D02*
X17775000Y-31540000D01*
G75*
G02*
X17910000Y-31675000I0J-135000D01*
G01*
X17910000Y-31945000D01*
G75*
G02*
X17775000Y-32080000I-135000J0D01*
G01*
X17405000Y-32080000D01*
G75*
G02*
X17270000Y-31945000I0J135000D01*
G01*
X17270000Y-31675000D01*
G75*
G02*
X17405000Y-31540000I135000J0D01*
G01*
G37*
G36*
G01*
X17405000Y-30520000D02*
X17775000Y-30520000D01*
G75*
G02*
X17910000Y-30655000I0J-135000D01*
G01*
X17910000Y-30925000D01*
G75*
G02*
X17775000Y-31060000I-135000J0D01*
G01*
X17405000Y-31060000D01*
G75*
G02*
X17270000Y-30925000I0J135000D01*
G01*
X17270000Y-30655000D01*
G75*
G02*
X17405000Y-30520000I135000J0D01*
G01*
G37*
G36*
G01*
X14920000Y-31500000D02*
X15260000Y-31500000D01*
G75*
G02*
X15400000Y-31640000I0J-140000D01*
G01*
X15400000Y-31920000D01*
G75*
G02*
X15260000Y-32060000I-140000J0D01*
G01*
X14920000Y-32060000D01*
G75*
G02*
X14780000Y-31920000I0J140000D01*
G01*
X14780000Y-31640000D01*
G75*
G02*
X14920000Y-31500000I140000J0D01*
G01*
G37*
G36*
G01*
X14920000Y-30540000D02*
X15260000Y-30540000D01*
G75*
G02*
X15400000Y-30680000I0J-140000D01*
G01*
X15400000Y-30960000D01*
G75*
G02*
X15260000Y-31100000I-140000J0D01*
G01*
X14920000Y-31100000D01*
G75*
G02*
X14780000Y-30960000I0J140000D01*
G01*
X14780000Y-30680000D01*
G75*
G02*
X14920000Y-30540000I140000J0D01*
G01*
G37*
G36*
G01*
X11170000Y-31500000D02*
X11510000Y-31500000D01*
G75*
G02*
X11650000Y-31640000I0J-140000D01*
G01*
X11650000Y-31920000D01*
G75*
G02*
X11510000Y-32060000I-140000J0D01*
G01*
X11170000Y-32060000D01*
G75*
G02*
X11030000Y-31920000I0J140000D01*
G01*
X11030000Y-31640000D01*
G75*
G02*
X11170000Y-31500000I140000J0D01*
G01*
G37*
G36*
G01*
X11170000Y-30540000D02*
X11510000Y-30540000D01*
G75*
G02*
X11650000Y-30680000I0J-140000D01*
G01*
X11650000Y-30960000D01*
G75*
G02*
X11510000Y-31100000I-140000J0D01*
G01*
X11170000Y-31100000D01*
G75*
G02*
X11030000Y-30960000I0J140000D01*
G01*
X11030000Y-30680000D01*
G75*
G02*
X11170000Y-30540000I140000J0D01*
G01*
G37*
G36*
G01*
X-5070000Y-8740000D02*
X-4730000Y-8740000D01*
G75*
G02*
X-4590000Y-8880000I0J-140000D01*
G01*
X-4590000Y-9160000D01*
G75*
G02*
X-4730000Y-9300000I-140000J0D01*
G01*
X-5070000Y-9300000D01*
G75*
G02*
X-5210000Y-9160000I0J140000D01*
G01*
X-5210000Y-8880000D01*
G75*
G02*
X-5070000Y-8740000I140000J0D01*
G01*
G37*
G36*
G01*
X-5070000Y-7780000D02*
X-4730000Y-7780000D01*
G75*
G02*
X-4590000Y-7920000I0J-140000D01*
G01*
X-4590000Y-8200000D01*
G75*
G02*
X-4730000Y-8340000I-140000J0D01*
G01*
X-5070000Y-8340000D01*
G75*
G02*
X-5210000Y-8200000I0J140000D01*
G01*
X-5210000Y-7920000D01*
G75*
G02*
X-5070000Y-7780000I140000J0D01*
G01*
G37*
G36*
G01*
X31240000Y-6185000D02*
X31240000Y-5815000D01*
G75*
G02*
X31375000Y-5680000I135000J0D01*
G01*
X31645000Y-5680000D01*
G75*
G02*
X31780000Y-5815000I0J-135000D01*
G01*
X31780000Y-6185000D01*
G75*
G02*
X31645000Y-6320000I-135000J0D01*
G01*
X31375000Y-6320000D01*
G75*
G02*
X31240000Y-6185000I0J135000D01*
G01*
G37*
G36*
G01*
X30220000Y-6185000D02*
X30220000Y-5815000D01*
G75*
G02*
X30355000Y-5680000I135000J0D01*
G01*
X30625000Y-5680000D01*
G75*
G02*
X30760000Y-5815000I0J-135000D01*
G01*
X30760000Y-6185000D01*
G75*
G02*
X30625000Y-6320000I-135000J0D01*
G01*
X30355000Y-6320000D01*
G75*
G02*
X30220000Y-6185000I0J135000D01*
G01*
G37*
G36*
G01*
X33050000Y-5830000D02*
X33050000Y-6170000D01*
G75*
G02*
X32910000Y-6310000I-140000J0D01*
G01*
X32630000Y-6310000D01*
G75*
G02*
X32490000Y-6170000I0J140000D01*
G01*
X32490000Y-5830000D01*
G75*
G02*
X32630000Y-5690000I140000J0D01*
G01*
X32910000Y-5690000D01*
G75*
G02*
X33050000Y-5830000I0J-140000D01*
G01*
G37*
G36*
G01*
X34010000Y-5830000D02*
X34010000Y-6170000D01*
G75*
G02*
X33870000Y-6310000I-140000J0D01*
G01*
X33590000Y-6310000D01*
G75*
G02*
X33450000Y-6170000I0J140000D01*
G01*
X33450000Y-5830000D01*
G75*
G02*
X33590000Y-5690000I140000J0D01*
G01*
X33870000Y-5690000D01*
G75*
G02*
X34010000Y-5830000I0J-140000D01*
G01*
G37*
D20*
X27590900Y10071940D03*
D21*
X28390900Y10071940D03*
D20*
X29990900Y10071940D03*
D21*
X29190900Y10071940D03*
D20*
X27590900Y8271940D03*
D21*
X29190900Y8271940D03*
X28390900Y8271940D03*
D20*
X29990900Y8271940D03*
G36*
G01*
X-12755000Y-15805000D02*
X-12385000Y-15805000D01*
G75*
G02*
X-12250000Y-15940000I0J-135000D01*
G01*
X-12250000Y-16210000D01*
G75*
G02*
X-12385000Y-16345000I-135000J0D01*
G01*
X-12755000Y-16345000D01*
G75*
G02*
X-12890000Y-16210000I0J135000D01*
G01*
X-12890000Y-15940000D01*
G75*
G02*
X-12755000Y-15805000I135000J0D01*
G01*
G37*
G36*
G01*
X-12755000Y-14785000D02*
X-12385000Y-14785000D01*
G75*
G02*
X-12250000Y-14920000I0J-135000D01*
G01*
X-12250000Y-15190000D01*
G75*
G02*
X-12385000Y-15325000I-135000J0D01*
G01*
X-12755000Y-15325000D01*
G75*
G02*
X-12890000Y-15190000I0J135000D01*
G01*
X-12890000Y-14920000D01*
G75*
G02*
X-12755000Y-14785000I135000J0D01*
G01*
G37*
G36*
G01*
X18048000Y16744240D02*
X18048000Y17114240D01*
G75*
G02*
X18183000Y17249240I135000J0D01*
G01*
X18453000Y17249240D01*
G75*
G02*
X18588000Y17114240I0J-135000D01*
G01*
X18588000Y16744240D01*
G75*
G02*
X18453000Y16609240I-135000J0D01*
G01*
X18183000Y16609240D01*
G75*
G02*
X18048000Y16744240I0J135000D01*
G01*
G37*
G36*
G01*
X17028000Y16744240D02*
X17028000Y17114240D01*
G75*
G02*
X17163000Y17249240I135000J0D01*
G01*
X17433000Y17249240D01*
G75*
G02*
X17568000Y17114240I0J-135000D01*
G01*
X17568000Y16744240D01*
G75*
G02*
X17433000Y16609240I-135000J0D01*
G01*
X17163000Y16609240D01*
G75*
G02*
X17028000Y16744240I0J135000D01*
G01*
G37*
G36*
G01*
X1375000Y3570000D02*
X1745000Y3570000D01*
G75*
G02*
X1880000Y3435000I0J-135000D01*
G01*
X1880000Y3165000D01*
G75*
G02*
X1745000Y3030000I-135000J0D01*
G01*
X1375000Y3030000D01*
G75*
G02*
X1240000Y3165000I0J135000D01*
G01*
X1240000Y3435000D01*
G75*
G02*
X1375000Y3570000I135000J0D01*
G01*
G37*
G36*
G01*
X1375000Y4590000D02*
X1745000Y4590000D01*
G75*
G02*
X1880000Y4455000I0J-135000D01*
G01*
X1880000Y4185000D01*
G75*
G02*
X1745000Y4050000I-135000J0D01*
G01*
X1375000Y4050000D01*
G75*
G02*
X1240000Y4185000I0J135000D01*
G01*
X1240000Y4455000D01*
G75*
G02*
X1375000Y4590000I135000J0D01*
G01*
G37*
G36*
G01*
X25000Y3565000D02*
X395000Y3565000D01*
G75*
G02*
X530000Y3430000I0J-135000D01*
G01*
X530000Y3160000D01*
G75*
G02*
X395000Y3025000I-135000J0D01*
G01*
X25000Y3025000D01*
G75*
G02*
X-110000Y3160000I0J135000D01*
G01*
X-110000Y3430000D01*
G75*
G02*
X25000Y3565000I135000J0D01*
G01*
G37*
G36*
G01*
X25000Y4585000D02*
X395000Y4585000D01*
G75*
G02*
X530000Y4450000I0J-135000D01*
G01*
X530000Y4180000D01*
G75*
G02*
X395000Y4045000I-135000J0D01*
G01*
X25000Y4045000D01*
G75*
G02*
X-110000Y4180000I0J135000D01*
G01*
X-110000Y4450000D01*
G75*
G02*
X25000Y4585000I135000J0D01*
G01*
G37*
G36*
G01*
X19663500Y15963620D02*
X19663500Y15593620D01*
G75*
G02*
X19528500Y15458620I-135000J0D01*
G01*
X19258500Y15458620D01*
G75*
G02*
X19123500Y15593620I0J135000D01*
G01*
X19123500Y15963620D01*
G75*
G02*
X19258500Y16098620I135000J0D01*
G01*
X19528500Y16098620D01*
G75*
G02*
X19663500Y15963620I0J-135000D01*
G01*
G37*
G36*
G01*
X20683500Y15963620D02*
X20683500Y15593620D01*
G75*
G02*
X20548500Y15458620I-135000J0D01*
G01*
X20278500Y15458620D01*
G75*
G02*
X20143500Y15593620I0J135000D01*
G01*
X20143500Y15963620D01*
G75*
G02*
X20278500Y16098620I135000J0D01*
G01*
X20548500Y16098620D01*
G75*
G02*
X20683500Y15963620I0J-135000D01*
G01*
G37*
G36*
G01*
X12095000Y-17215000D02*
X12465000Y-17215000D01*
G75*
G02*
X12600000Y-17350000I0J-135000D01*
G01*
X12600000Y-17620000D01*
G75*
G02*
X12465000Y-17755000I-135000J0D01*
G01*
X12095000Y-17755000D01*
G75*
G02*
X11960000Y-17620000I0J135000D01*
G01*
X11960000Y-17350000D01*
G75*
G02*
X12095000Y-17215000I135000J0D01*
G01*
G37*
G36*
G01*
X12095000Y-16195000D02*
X12465000Y-16195000D01*
G75*
G02*
X12600000Y-16330000I0J-135000D01*
G01*
X12600000Y-16600000D01*
G75*
G02*
X12465000Y-16735000I-135000J0D01*
G01*
X12095000Y-16735000D01*
G75*
G02*
X11960000Y-16600000I0J135000D01*
G01*
X11960000Y-16330000D01*
G75*
G02*
X12095000Y-16195000I135000J0D01*
G01*
G37*
G36*
G01*
X-6515000Y-34560000D02*
X-6885000Y-34560000D01*
G75*
G02*
X-7020000Y-34425000I0J135000D01*
G01*
X-7020000Y-34155000D01*
G75*
G02*
X-6885000Y-34020000I135000J0D01*
G01*
X-6515000Y-34020000D01*
G75*
G02*
X-6380000Y-34155000I0J-135000D01*
G01*
X-6380000Y-34425000D01*
G75*
G02*
X-6515000Y-34560000I-135000J0D01*
G01*
G37*
G36*
G01*
X-6515000Y-35580000D02*
X-6885000Y-35580000D01*
G75*
G02*
X-7020000Y-35445000I0J135000D01*
G01*
X-7020000Y-35175000D01*
G75*
G02*
X-6885000Y-35040000I135000J0D01*
G01*
X-6515000Y-35040000D01*
G75*
G02*
X-6380000Y-35175000I0J-135000D01*
G01*
X-6380000Y-35445000D01*
G75*
G02*
X-6515000Y-35580000I-135000J0D01*
G01*
G37*
G36*
G01*
X595000Y-31955000D02*
X595000Y-32325000D01*
G75*
G02*
X460000Y-32460000I-135000J0D01*
G01*
X190000Y-32460000D01*
G75*
G02*
X55000Y-32325000I0J135000D01*
G01*
X55000Y-31955000D01*
G75*
G02*
X190000Y-31820000I135000J0D01*
G01*
X460000Y-31820000D01*
G75*
G02*
X595000Y-31955000I0J-135000D01*
G01*
G37*
G36*
G01*
X1615000Y-31955000D02*
X1615000Y-32325000D01*
G75*
G02*
X1480000Y-32460000I-135000J0D01*
G01*
X1210000Y-32460000D01*
G75*
G02*
X1075000Y-32325000I0J135000D01*
G01*
X1075000Y-31955000D01*
G75*
G02*
X1210000Y-31820000I135000J0D01*
G01*
X1480000Y-31820000D01*
G75*
G02*
X1615000Y-31955000I0J-135000D01*
G01*
G37*
G36*
G01*
X-12435000Y-10865000D02*
X-12435000Y-10495000D01*
G75*
G02*
X-12300000Y-10360000I135000J0D01*
G01*
X-12030000Y-10360000D01*
G75*
G02*
X-11895000Y-10495000I0J-135000D01*
G01*
X-11895000Y-10865000D01*
G75*
G02*
X-12030000Y-11000000I-135000J0D01*
G01*
X-12300000Y-11000000D01*
G75*
G02*
X-12435000Y-10865000I0J135000D01*
G01*
G37*
G36*
G01*
X-13455000Y-10865000D02*
X-13455000Y-10495000D01*
G75*
G02*
X-13320000Y-10360000I135000J0D01*
G01*
X-13050000Y-10360000D01*
G75*
G02*
X-12915000Y-10495000I0J-135000D01*
G01*
X-12915000Y-10865000D01*
G75*
G02*
X-13050000Y-11000000I-135000J0D01*
G01*
X-13320000Y-11000000D01*
G75*
G02*
X-13455000Y-10865000I0J135000D01*
G01*
G37*
G36*
G01*
X3901860Y-36506120D02*
X4271860Y-36506120D01*
G75*
G02*
X4406860Y-36641120I0J-135000D01*
G01*
X4406860Y-36911120D01*
G75*
G02*
X4271860Y-37046120I-135000J0D01*
G01*
X3901860Y-37046120D01*
G75*
G02*
X3766860Y-36911120I0J135000D01*
G01*
X3766860Y-36641120D01*
G75*
G02*
X3901860Y-36506120I135000J0D01*
G01*
G37*
G36*
G01*
X3901860Y-35486120D02*
X4271860Y-35486120D01*
G75*
G02*
X4406860Y-35621120I0J-135000D01*
G01*
X4406860Y-35891120D01*
G75*
G02*
X4271860Y-36026120I-135000J0D01*
G01*
X3901860Y-36026120D01*
G75*
G02*
X3766860Y-35891120I0J135000D01*
G01*
X3766860Y-35621120D01*
G75*
G02*
X3901860Y-35486120I135000J0D01*
G01*
G37*
G36*
G01*
X-28695520Y-3041600D02*
X-28325520Y-3041600D01*
G75*
G02*
X-28190520Y-3176600I0J-135000D01*
G01*
X-28190520Y-3446600D01*
G75*
G02*
X-28325520Y-3581600I-135000J0D01*
G01*
X-28695520Y-3581600D01*
G75*
G02*
X-28830520Y-3446600I0J135000D01*
G01*
X-28830520Y-3176600D01*
G75*
G02*
X-28695520Y-3041600I135000J0D01*
G01*
G37*
G36*
G01*
X-28695520Y-2021600D02*
X-28325520Y-2021600D01*
G75*
G02*
X-28190520Y-2156600I0J-135000D01*
G01*
X-28190520Y-2426600D01*
G75*
G02*
X-28325520Y-2561600I-135000J0D01*
G01*
X-28695520Y-2561600D01*
G75*
G02*
X-28830520Y-2426600I0J135000D01*
G01*
X-28830520Y-2156600D01*
G75*
G02*
X-28695520Y-2021600I135000J0D01*
G01*
G37*
G36*
G01*
X-29825520Y-2561600D02*
X-30195520Y-2561600D01*
G75*
G02*
X-30330520Y-2426600I0J135000D01*
G01*
X-30330520Y-2156600D01*
G75*
G02*
X-30195520Y-2021600I135000J0D01*
G01*
X-29825520Y-2021600D01*
G75*
G02*
X-29690520Y-2156600I0J-135000D01*
G01*
X-29690520Y-2426600D01*
G75*
G02*
X-29825520Y-2561600I-135000J0D01*
G01*
G37*
G36*
G01*
X-29825520Y-3581600D02*
X-30195520Y-3581600D01*
G75*
G02*
X-30330520Y-3446600I0J135000D01*
G01*
X-30330520Y-3176600D01*
G75*
G02*
X-30195520Y-3041600I135000J0D01*
G01*
X-29825520Y-3041600D01*
G75*
G02*
X-29690520Y-3176600I0J-135000D01*
G01*
X-29690520Y-3446600D01*
G75*
G02*
X-29825520Y-3581600I-135000J0D01*
G01*
G37*
G36*
G01*
X-12385000Y-35455000D02*
X-12015000Y-35455000D01*
G75*
G02*
X-11880000Y-35590000I0J-135000D01*
G01*
X-11880000Y-35860000D01*
G75*
G02*
X-12015000Y-35995000I-135000J0D01*
G01*
X-12385000Y-35995000D01*
G75*
G02*
X-12520000Y-35860000I0J135000D01*
G01*
X-12520000Y-35590000D01*
G75*
G02*
X-12385000Y-35455000I135000J0D01*
G01*
G37*
G36*
G01*
X-12385000Y-34435000D02*
X-12015000Y-34435000D01*
G75*
G02*
X-11880000Y-34570000I0J-135000D01*
G01*
X-11880000Y-34840000D01*
G75*
G02*
X-12015000Y-34975000I-135000J0D01*
G01*
X-12385000Y-34975000D01*
G75*
G02*
X-12520000Y-34840000I0J135000D01*
G01*
X-12520000Y-34570000D01*
G75*
G02*
X-12385000Y-34435000I135000J0D01*
G01*
G37*
G36*
G01*
X-8565000Y-42085000D02*
X-8195000Y-42085000D01*
G75*
G02*
X-8060000Y-42220000I0J-135000D01*
G01*
X-8060000Y-42490000D01*
G75*
G02*
X-8195000Y-42625000I-135000J0D01*
G01*
X-8565000Y-42625000D01*
G75*
G02*
X-8700000Y-42490000I0J135000D01*
G01*
X-8700000Y-42220000D01*
G75*
G02*
X-8565000Y-42085000I135000J0D01*
G01*
G37*
G36*
G01*
X-8565000Y-41065000D02*
X-8195000Y-41065000D01*
G75*
G02*
X-8060000Y-41200000I0J-135000D01*
G01*
X-8060000Y-41470000D01*
G75*
G02*
X-8195000Y-41605000I-135000J0D01*
G01*
X-8565000Y-41605000D01*
G75*
G02*
X-8700000Y-41470000I0J135000D01*
G01*
X-8700000Y-41200000D01*
G75*
G02*
X-8565000Y-41065000I135000J0D01*
G01*
G37*
G36*
G01*
X-15045000Y-42745000D02*
X-14675000Y-42745000D01*
G75*
G02*
X-14540000Y-42880000I0J-135000D01*
G01*
X-14540000Y-43150000D01*
G75*
G02*
X-14675000Y-43285000I-135000J0D01*
G01*
X-15045000Y-43285000D01*
G75*
G02*
X-15180000Y-43150000I0J135000D01*
G01*
X-15180000Y-42880000D01*
G75*
G02*
X-15045000Y-42745000I135000J0D01*
G01*
G37*
G36*
G01*
X-15045000Y-41725000D02*
X-14675000Y-41725000D01*
G75*
G02*
X-14540000Y-41860000I0J-135000D01*
G01*
X-14540000Y-42130000D01*
G75*
G02*
X-14675000Y-42265000I-135000J0D01*
G01*
X-15045000Y-42265000D01*
G75*
G02*
X-15180000Y-42130000I0J135000D01*
G01*
X-15180000Y-41860000D01*
G75*
G02*
X-15045000Y-41725000I135000J0D01*
G01*
G37*
G36*
G01*
X-14555000Y-25365000D02*
X-14555000Y-25735000D01*
G75*
G02*
X-14690000Y-25870000I-135000J0D01*
G01*
X-14960000Y-25870000D01*
G75*
G02*
X-15095000Y-25735000I0J135000D01*
G01*
X-15095000Y-25365000D01*
G75*
G02*
X-14960000Y-25230000I135000J0D01*
G01*
X-14690000Y-25230000D01*
G75*
G02*
X-14555000Y-25365000I0J-135000D01*
G01*
G37*
G36*
G01*
X-13535000Y-25365000D02*
X-13535000Y-25735000D01*
G75*
G02*
X-13670000Y-25870000I-135000J0D01*
G01*
X-13940000Y-25870000D01*
G75*
G02*
X-14075000Y-25735000I0J135000D01*
G01*
X-14075000Y-25365000D01*
G75*
G02*
X-13940000Y-25230000I135000J0D01*
G01*
X-13670000Y-25230000D01*
G75*
G02*
X-13535000Y-25365000I0J-135000D01*
G01*
G37*
G36*
G01*
X-30065320Y12383800D02*
X-29695320Y12383800D01*
G75*
G02*
X-29560320Y12248800I0J-135000D01*
G01*
X-29560320Y11978800D01*
G75*
G02*
X-29695320Y11843800I-135000J0D01*
G01*
X-30065320Y11843800D01*
G75*
G02*
X-30200320Y11978800I0J135000D01*
G01*
X-30200320Y12248800D01*
G75*
G02*
X-30065320Y12383800I135000J0D01*
G01*
G37*
G36*
G01*
X-30065320Y13403800D02*
X-29695320Y13403800D01*
G75*
G02*
X-29560320Y13268800I0J-135000D01*
G01*
X-29560320Y12998800D01*
G75*
G02*
X-29695320Y12863800I-135000J0D01*
G01*
X-30065320Y12863800D01*
G75*
G02*
X-30200320Y12998800I0J135000D01*
G01*
X-30200320Y13268800D01*
G75*
G02*
X-30065320Y13403800I135000J0D01*
G01*
G37*
G36*
G01*
X-29695000Y10570000D02*
X-29695000Y10940000D01*
G75*
G02*
X-29560000Y11075000I135000J0D01*
G01*
X-29290000Y11075000D01*
G75*
G02*
X-29155000Y10940000I0J-135000D01*
G01*
X-29155000Y10570000D01*
G75*
G02*
X-29290000Y10435000I-135000J0D01*
G01*
X-29560000Y10435000D01*
G75*
G02*
X-29695000Y10570000I0J135000D01*
G01*
G37*
G36*
G01*
X-30715000Y10570000D02*
X-30715000Y10940000D01*
G75*
G02*
X-30580000Y11075000I135000J0D01*
G01*
X-30310000Y11075000D01*
G75*
G02*
X-30175000Y10940000I0J-135000D01*
G01*
X-30175000Y10570000D01*
G75*
G02*
X-30310000Y10435000I-135000J0D01*
G01*
X-30580000Y10435000D01*
G75*
G02*
X-30715000Y10570000I0J135000D01*
G01*
G37*
G36*
G01*
X14695000Y-13825000D02*
X14695000Y-14195000D01*
G75*
G02*
X14560000Y-14330000I-135000J0D01*
G01*
X14290000Y-14330000D01*
G75*
G02*
X14155000Y-14195000I0J135000D01*
G01*
X14155000Y-13825000D01*
G75*
G02*
X14290000Y-13690000I135000J0D01*
G01*
X14560000Y-13690000D01*
G75*
G02*
X14695000Y-13825000I0J-135000D01*
G01*
G37*
G36*
G01*
X15715000Y-13825000D02*
X15715000Y-14195000D01*
G75*
G02*
X15580000Y-14330000I-135000J0D01*
G01*
X15310000Y-14330000D01*
G75*
G02*
X15175000Y-14195000I0J135000D01*
G01*
X15175000Y-13825000D01*
G75*
G02*
X15310000Y-13690000I135000J0D01*
G01*
X15580000Y-13690000D01*
G75*
G02*
X15715000Y-13825000I0J-135000D01*
G01*
G37*
G36*
G01*
X8575000Y-20185000D02*
X8205000Y-20185000D01*
G75*
G02*
X8070000Y-20050000I0J135000D01*
G01*
X8070000Y-19780000D01*
G75*
G02*
X8205000Y-19645000I135000J0D01*
G01*
X8575000Y-19645000D01*
G75*
G02*
X8710000Y-19780000I0J-135000D01*
G01*
X8710000Y-20050000D01*
G75*
G02*
X8575000Y-20185000I-135000J0D01*
G01*
G37*
G36*
G01*
X8575000Y-21205000D02*
X8205000Y-21205000D01*
G75*
G02*
X8070000Y-21070000I0J135000D01*
G01*
X8070000Y-20800000D01*
G75*
G02*
X8205000Y-20665000I135000J0D01*
G01*
X8575000Y-20665000D01*
G75*
G02*
X8710000Y-20800000I0J-135000D01*
G01*
X8710000Y-21070000D01*
G75*
G02*
X8575000Y-21205000I-135000J0D01*
G01*
G37*
G36*
G01*
X-30185000Y2125000D02*
X-29815000Y2125000D01*
G75*
G02*
X-29680000Y1990000I0J-135000D01*
G01*
X-29680000Y1720000D01*
G75*
G02*
X-29815000Y1585000I-135000J0D01*
G01*
X-30185000Y1585000D01*
G75*
G02*
X-30320000Y1720000I0J135000D01*
G01*
X-30320000Y1990000D01*
G75*
G02*
X-30185000Y2125000I135000J0D01*
G01*
G37*
G36*
G01*
X-30185000Y3145000D02*
X-29815000Y3145000D01*
G75*
G02*
X-29680000Y3010000I0J-135000D01*
G01*
X-29680000Y2740000D01*
G75*
G02*
X-29815000Y2605000I-135000J0D01*
G01*
X-30185000Y2605000D01*
G75*
G02*
X-30320000Y2740000I0J135000D01*
G01*
X-30320000Y3010000D01*
G75*
G02*
X-30185000Y3145000I135000J0D01*
G01*
G37*
G36*
G01*
X-5579720Y16092200D02*
X-5209720Y16092200D01*
G75*
G02*
X-5074720Y15957200I0J-135000D01*
G01*
X-5074720Y15687200D01*
G75*
G02*
X-5209720Y15552200I-135000J0D01*
G01*
X-5579720Y15552200D01*
G75*
G02*
X-5714720Y15687200I0J135000D01*
G01*
X-5714720Y15957200D01*
G75*
G02*
X-5579720Y16092200I135000J0D01*
G01*
G37*
G36*
G01*
X-5579720Y17112200D02*
X-5209720Y17112200D01*
G75*
G02*
X-5074720Y16977200I0J-135000D01*
G01*
X-5074720Y16707200D01*
G75*
G02*
X-5209720Y16572200I-135000J0D01*
G01*
X-5579720Y16572200D01*
G75*
G02*
X-5714720Y16707200I0J135000D01*
G01*
X-5714720Y16977200D01*
G75*
G02*
X-5579720Y17112200I135000J0D01*
G01*
G37*
G36*
G01*
X-29824720Y501600D02*
X-30194720Y501600D01*
G75*
G02*
X-30329720Y636600I0J135000D01*
G01*
X-30329720Y906600D01*
G75*
G02*
X-30194720Y1041600I135000J0D01*
G01*
X-29824720Y1041600D01*
G75*
G02*
X-29689720Y906600I0J-135000D01*
G01*
X-29689720Y636600D01*
G75*
G02*
X-29824720Y501600I-135000J0D01*
G01*
G37*
G36*
G01*
X-29824720Y-518400D02*
X-30194720Y-518400D01*
G75*
G02*
X-30329720Y-383400I0J135000D01*
G01*
X-30329720Y-113400D01*
G75*
G02*
X-30194720Y21600I135000J0D01*
G01*
X-29824720Y21600D01*
G75*
G02*
X-29689720Y-113400I0J-135000D01*
G01*
X-29689720Y-383400D01*
G75*
G02*
X-29824720Y-518400I-135000J0D01*
G01*
G37*
G36*
G01*
X145000Y-25255000D02*
X-225000Y-25255000D01*
G75*
G02*
X-360000Y-25120000I0J135000D01*
G01*
X-360000Y-24850000D01*
G75*
G02*
X-225000Y-24715000I135000J0D01*
G01*
X145000Y-24715000D01*
G75*
G02*
X280000Y-24850000I0J-135000D01*
G01*
X280000Y-25120000D01*
G75*
G02*
X145000Y-25255000I-135000J0D01*
G01*
G37*
G36*
G01*
X145000Y-26275000D02*
X-225000Y-26275000D01*
G75*
G02*
X-360000Y-26140000I0J135000D01*
G01*
X-360000Y-25870000D01*
G75*
G02*
X-225000Y-25735000I135000J0D01*
G01*
X145000Y-25735000D01*
G75*
G02*
X280000Y-25870000I0J-135000D01*
G01*
X280000Y-26140000D01*
G75*
G02*
X145000Y-26275000I-135000J0D01*
G01*
G37*
G36*
G01*
X-29645000Y8020000D02*
X-29645000Y8390000D01*
G75*
G02*
X-29510000Y8525000I135000J0D01*
G01*
X-29240000Y8525000D01*
G75*
G02*
X-29105000Y8390000I0J-135000D01*
G01*
X-29105000Y8020000D01*
G75*
G02*
X-29240000Y7885000I-135000J0D01*
G01*
X-29510000Y7885000D01*
G75*
G02*
X-29645000Y8020000I0J135000D01*
G01*
G37*
G36*
G01*
X-30665000Y8020000D02*
X-30665000Y8390000D01*
G75*
G02*
X-30530000Y8525000I135000J0D01*
G01*
X-30260000Y8525000D01*
G75*
G02*
X-30125000Y8390000I0J-135000D01*
G01*
X-30125000Y8020000D01*
G75*
G02*
X-30260000Y7885000I-135000J0D01*
G01*
X-30530000Y7885000D01*
G75*
G02*
X-30665000Y8020000I0J135000D01*
G01*
G37*
G36*
G01*
X-8005000Y-14405000D02*
X-8375000Y-14405000D01*
G75*
G02*
X-8510000Y-14270000I0J135000D01*
G01*
X-8510000Y-14000000D01*
G75*
G02*
X-8375000Y-13865000I135000J0D01*
G01*
X-8005000Y-13865000D01*
G75*
G02*
X-7870000Y-14000000I0J-135000D01*
G01*
X-7870000Y-14270000D01*
G75*
G02*
X-8005000Y-14405000I-135000J0D01*
G01*
G37*
G36*
G01*
X-8005000Y-15425000D02*
X-8375000Y-15425000D01*
G75*
G02*
X-8510000Y-15290000I0J135000D01*
G01*
X-8510000Y-15020000D01*
G75*
G02*
X-8375000Y-14885000I135000J0D01*
G01*
X-8005000Y-14885000D01*
G75*
G02*
X-7870000Y-15020000I0J-135000D01*
G01*
X-7870000Y-15290000D01*
G75*
G02*
X-8005000Y-15425000I-135000J0D01*
G01*
G37*
G36*
G01*
X4718140Y-26251180D02*
X4718140Y-26621180D01*
G75*
G02*
X4583140Y-26756180I-135000J0D01*
G01*
X4313140Y-26756180D01*
G75*
G02*
X4178140Y-26621180I0J135000D01*
G01*
X4178140Y-26251180D01*
G75*
G02*
X4313140Y-26116180I135000J0D01*
G01*
X4583140Y-26116180D01*
G75*
G02*
X4718140Y-26251180I0J-135000D01*
G01*
G37*
G36*
G01*
X5738140Y-26251180D02*
X5738140Y-26621180D01*
G75*
G02*
X5603140Y-26756180I-135000J0D01*
G01*
X5333140Y-26756180D01*
G75*
G02*
X5198140Y-26621180I0J135000D01*
G01*
X5198140Y-26251180D01*
G75*
G02*
X5333140Y-26116180I135000J0D01*
G01*
X5603140Y-26116180D01*
G75*
G02*
X5738140Y-26251180I0J-135000D01*
G01*
G37*
G36*
G01*
X40815000Y-8490000D02*
X41185000Y-8490000D01*
G75*
G02*
X41320000Y-8625000I0J-135000D01*
G01*
X41320000Y-8895000D01*
G75*
G02*
X41185000Y-9030000I-135000J0D01*
G01*
X40815000Y-9030000D01*
G75*
G02*
X40680000Y-8895000I0J135000D01*
G01*
X40680000Y-8625000D01*
G75*
G02*
X40815000Y-8490000I135000J0D01*
G01*
G37*
G36*
G01*
X40815000Y-7470000D02*
X41185000Y-7470000D01*
G75*
G02*
X41320000Y-7605000I0J-135000D01*
G01*
X41320000Y-7875000D01*
G75*
G02*
X41185000Y-8010000I-135000J0D01*
G01*
X40815000Y-8010000D01*
G75*
G02*
X40680000Y-7875000I0J135000D01*
G01*
X40680000Y-7605000D01*
G75*
G02*
X40815000Y-7470000I135000J0D01*
G01*
G37*
G36*
G01*
X-7372960Y12485400D02*
X-7002960Y12485400D01*
G75*
G02*
X-6867960Y12350400I0J-135000D01*
G01*
X-6867960Y12080400D01*
G75*
G02*
X-7002960Y11945400I-135000J0D01*
G01*
X-7372960Y11945400D01*
G75*
G02*
X-7507960Y12080400I0J135000D01*
G01*
X-7507960Y12350400D01*
G75*
G02*
X-7372960Y12485400I135000J0D01*
G01*
G37*
G36*
G01*
X-7372960Y13505400D02*
X-7002960Y13505400D01*
G75*
G02*
X-6867960Y13370400I0J-135000D01*
G01*
X-6867960Y13100400D01*
G75*
G02*
X-7002960Y12965400I-135000J0D01*
G01*
X-7372960Y12965400D01*
G75*
G02*
X-7507960Y13100400I0J135000D01*
G01*
X-7507960Y13370400D01*
G75*
G02*
X-7372960Y13505400I135000J0D01*
G01*
G37*
G36*
G01*
X46865000Y-6535000D02*
X46495000Y-6535000D01*
G75*
G02*
X46360000Y-6400000I0J135000D01*
G01*
X46360000Y-6130000D01*
G75*
G02*
X46495000Y-5995000I135000J0D01*
G01*
X46865000Y-5995000D01*
G75*
G02*
X47000000Y-6130000I0J-135000D01*
G01*
X47000000Y-6400000D01*
G75*
G02*
X46865000Y-6535000I-135000J0D01*
G01*
G37*
G36*
G01*
X46865000Y-7555000D02*
X46495000Y-7555000D01*
G75*
G02*
X46360000Y-7420000I0J135000D01*
G01*
X46360000Y-7150000D01*
G75*
G02*
X46495000Y-7015000I135000J0D01*
G01*
X46865000Y-7015000D01*
G75*
G02*
X47000000Y-7150000I0J-135000D01*
G01*
X47000000Y-7420000D01*
G75*
G02*
X46865000Y-7555000I-135000J0D01*
G01*
G37*
G36*
G01*
X42035000Y-1475000D02*
X42035000Y-1105000D01*
G75*
G02*
X42170000Y-970000I135000J0D01*
G01*
X42440000Y-970000D01*
G75*
G02*
X42575000Y-1105000I0J-135000D01*
G01*
X42575000Y-1475000D01*
G75*
G02*
X42440000Y-1610000I-135000J0D01*
G01*
X42170000Y-1610000D01*
G75*
G02*
X42035000Y-1475000I0J135000D01*
G01*
G37*
G36*
G01*
X41015000Y-1475000D02*
X41015000Y-1105000D01*
G75*
G02*
X41150000Y-970000I135000J0D01*
G01*
X41420000Y-970000D01*
G75*
G02*
X41555000Y-1105000I0J-135000D01*
G01*
X41555000Y-1475000D01*
G75*
G02*
X41420000Y-1610000I-135000J0D01*
G01*
X41150000Y-1610000D01*
G75*
G02*
X41015000Y-1475000I0J135000D01*
G01*
G37*
G36*
G01*
X26740000Y-2325000D02*
X26740000Y-1955000D01*
G75*
G02*
X26875000Y-1820000I135000J0D01*
G01*
X27145000Y-1820000D01*
G75*
G02*
X27280000Y-1955000I0J-135000D01*
G01*
X27280000Y-2325000D01*
G75*
G02*
X27145000Y-2460000I-135000J0D01*
G01*
X26875000Y-2460000D01*
G75*
G02*
X26740000Y-2325000I0J135000D01*
G01*
G37*
G36*
G01*
X25720000Y-2325000D02*
X25720000Y-1955000D01*
G75*
G02*
X25855000Y-1820000I135000J0D01*
G01*
X26125000Y-1820000D01*
G75*
G02*
X26260000Y-1955000I0J-135000D01*
G01*
X26260000Y-2325000D01*
G75*
G02*
X26125000Y-2460000I-135000J0D01*
G01*
X25855000Y-2460000D01*
G75*
G02*
X25720000Y-2325000I0J135000D01*
G01*
G37*
G36*
G01*
X18415000Y14715000D02*
X18045000Y14715000D01*
G75*
G02*
X17910000Y14850000I0J135000D01*
G01*
X17910000Y15120000D01*
G75*
G02*
X18045000Y15255000I135000J0D01*
G01*
X18415000Y15255000D01*
G75*
G02*
X18550000Y15120000I0J-135000D01*
G01*
X18550000Y14850000D01*
G75*
G02*
X18415000Y14715000I-135000J0D01*
G01*
G37*
G36*
G01*
X18415000Y13695000D02*
X18045000Y13695000D01*
G75*
G02*
X17910000Y13830000I0J135000D01*
G01*
X17910000Y14100000D01*
G75*
G02*
X18045000Y14235000I135000J0D01*
G01*
X18415000Y14235000D01*
G75*
G02*
X18550000Y14100000I0J-135000D01*
G01*
X18550000Y13830000D01*
G75*
G02*
X18415000Y13695000I-135000J0D01*
G01*
G37*
G36*
G01*
X26740000Y-6185000D02*
X26740000Y-5815000D01*
G75*
G02*
X26875000Y-5680000I135000J0D01*
G01*
X27145000Y-5680000D01*
G75*
G02*
X27280000Y-5815000I0J-135000D01*
G01*
X27280000Y-6185000D01*
G75*
G02*
X27145000Y-6320000I-135000J0D01*
G01*
X26875000Y-6320000D01*
G75*
G02*
X26740000Y-6185000I0J135000D01*
G01*
G37*
G36*
G01*
X25720000Y-6185000D02*
X25720000Y-5815000D01*
G75*
G02*
X25855000Y-5680000I135000J0D01*
G01*
X26125000Y-5680000D01*
G75*
G02*
X26260000Y-5815000I0J-135000D01*
G01*
X26260000Y-6185000D01*
G75*
G02*
X26125000Y-6320000I-135000J0D01*
G01*
X25855000Y-6320000D01*
G75*
G02*
X25720000Y-6185000I0J135000D01*
G01*
G37*
G36*
G01*
X26216520Y13167940D02*
X25846520Y13167940D01*
G75*
G02*
X25711520Y13302940I0J135000D01*
G01*
X25711520Y13572940D01*
G75*
G02*
X25846520Y13707940I135000J0D01*
G01*
X26216520Y13707940D01*
G75*
G02*
X26351520Y13572940I0J-135000D01*
G01*
X26351520Y13302940D01*
G75*
G02*
X26216520Y13167940I-135000J0D01*
G01*
G37*
G36*
G01*
X26216520Y12147940D02*
X25846520Y12147940D01*
G75*
G02*
X25711520Y12282940I0J135000D01*
G01*
X25711520Y12552940D01*
G75*
G02*
X25846520Y12687940I135000J0D01*
G01*
X26216520Y12687940D01*
G75*
G02*
X26351520Y12552940I0J-135000D01*
G01*
X26351520Y12282940D01*
G75*
G02*
X26216520Y12147940I-135000J0D01*
G01*
G37*
G36*
G01*
X13013520Y-3822280D02*
X13013520Y-3452280D01*
G75*
G02*
X13148520Y-3317280I135000J0D01*
G01*
X13418520Y-3317280D01*
G75*
G02*
X13553520Y-3452280I0J-135000D01*
G01*
X13553520Y-3822280D01*
G75*
G02*
X13418520Y-3957280I-135000J0D01*
G01*
X13148520Y-3957280D01*
G75*
G02*
X13013520Y-3822280I0J135000D01*
G01*
G37*
G36*
G01*
X11993520Y-3822280D02*
X11993520Y-3452280D01*
G75*
G02*
X12128520Y-3317280I135000J0D01*
G01*
X12398520Y-3317280D01*
G75*
G02*
X12533520Y-3452280I0J-135000D01*
G01*
X12533520Y-3822280D01*
G75*
G02*
X12398520Y-3957280I-135000J0D01*
G01*
X12128520Y-3957280D01*
G75*
G02*
X11993520Y-3822280I0J135000D01*
G01*
G37*
G36*
G01*
X-6460000Y9885000D02*
X-6460000Y9515000D01*
G75*
G02*
X-6595000Y9380000I-135000J0D01*
G01*
X-6865000Y9380000D01*
G75*
G02*
X-7000000Y9515000I0J135000D01*
G01*
X-7000000Y9885000D01*
G75*
G02*
X-6865000Y10020000I135000J0D01*
G01*
X-6595000Y10020000D01*
G75*
G02*
X-6460000Y9885000I0J-135000D01*
G01*
G37*
G36*
G01*
X-5440000Y9885000D02*
X-5440000Y9515000D01*
G75*
G02*
X-5575000Y9380000I-135000J0D01*
G01*
X-5845000Y9380000D01*
G75*
G02*
X-5980000Y9515000I0J135000D01*
G01*
X-5980000Y9885000D01*
G75*
G02*
X-5845000Y10020000I135000J0D01*
G01*
X-5575000Y10020000D01*
G75*
G02*
X-5440000Y9885000I0J-135000D01*
G01*
G37*
G36*
G01*
X20141040Y13642760D02*
X20141040Y14012760D01*
G75*
G02*
X20276040Y14147760I135000J0D01*
G01*
X20546040Y14147760D01*
G75*
G02*
X20681040Y14012760I0J-135000D01*
G01*
X20681040Y13642760D01*
G75*
G02*
X20546040Y13507760I-135000J0D01*
G01*
X20276040Y13507760D01*
G75*
G02*
X20141040Y13642760I0J135000D01*
G01*
G37*
G36*
G01*
X19121040Y13642760D02*
X19121040Y14012760D01*
G75*
G02*
X19256040Y14147760I135000J0D01*
G01*
X19526040Y14147760D01*
G75*
G02*
X19661040Y14012760I0J-135000D01*
G01*
X19661040Y13642760D01*
G75*
G02*
X19526040Y13507760I-135000J0D01*
G01*
X19256040Y13507760D01*
G75*
G02*
X19121040Y13642760I0J135000D01*
G01*
G37*
G36*
G01*
X26035420Y8517920D02*
X26405420Y8517920D01*
G75*
G02*
X26540420Y8382920I0J-135000D01*
G01*
X26540420Y8112920D01*
G75*
G02*
X26405420Y7977920I-135000J0D01*
G01*
X26035420Y7977920D01*
G75*
G02*
X25900420Y8112920I0J135000D01*
G01*
X25900420Y8382920D01*
G75*
G02*
X26035420Y8517920I135000J0D01*
G01*
G37*
G36*
G01*
X26035420Y9537920D02*
X26405420Y9537920D01*
G75*
G02*
X26540420Y9402920I0J-135000D01*
G01*
X26540420Y9132920D01*
G75*
G02*
X26405420Y8997920I-135000J0D01*
G01*
X26035420Y8997920D01*
G75*
G02*
X25900420Y9132920I0J135000D01*
G01*
X25900420Y9402920D01*
G75*
G02*
X26035420Y9537920I135000J0D01*
G01*
G37*
G36*
G01*
X12765000Y-10465000D02*
X12765000Y-10835000D01*
G75*
G02*
X12630000Y-10970000I-135000J0D01*
G01*
X12360000Y-10970000D01*
G75*
G02*
X12225000Y-10835000I0J135000D01*
G01*
X12225000Y-10465000D01*
G75*
G02*
X12360000Y-10330000I135000J0D01*
G01*
X12630000Y-10330000D01*
G75*
G02*
X12765000Y-10465000I0J-135000D01*
G01*
G37*
G36*
G01*
X13785000Y-10465000D02*
X13785000Y-10835000D01*
G75*
G02*
X13650000Y-10970000I-135000J0D01*
G01*
X13380000Y-10970000D01*
G75*
G02*
X13245000Y-10835000I0J135000D01*
G01*
X13245000Y-10465000D01*
G75*
G02*
X13380000Y-10330000I135000J0D01*
G01*
X13650000Y-10330000D01*
G75*
G02*
X13785000Y-10465000I0J-135000D01*
G01*
G37*
G36*
G01*
X-4385000Y9085000D02*
X-4015000Y9085000D01*
G75*
G02*
X-3880000Y8950000I0J-135000D01*
G01*
X-3880000Y8680000D01*
G75*
G02*
X-4015000Y8545000I-135000J0D01*
G01*
X-4385000Y8545000D01*
G75*
G02*
X-4520000Y8680000I0J135000D01*
G01*
X-4520000Y8950000D01*
G75*
G02*
X-4385000Y9085000I135000J0D01*
G01*
G37*
G36*
G01*
X-4385000Y10105000D02*
X-4015000Y10105000D01*
G75*
G02*
X-3880000Y9970000I0J-135000D01*
G01*
X-3880000Y9700000D01*
G75*
G02*
X-4015000Y9565000I-135000J0D01*
G01*
X-4385000Y9565000D01*
G75*
G02*
X-4520000Y9700000I0J135000D01*
G01*
X-4520000Y9970000D01*
G75*
G02*
X-4385000Y10105000I135000J0D01*
G01*
G37*
G36*
G01*
X31240000Y-7685000D02*
X31240000Y-7315000D01*
G75*
G02*
X31375000Y-7180000I135000J0D01*
G01*
X31645000Y-7180000D01*
G75*
G02*
X31780000Y-7315000I0J-135000D01*
G01*
X31780000Y-7685000D01*
G75*
G02*
X31645000Y-7820000I-135000J0D01*
G01*
X31375000Y-7820000D01*
G75*
G02*
X31240000Y-7685000I0J135000D01*
G01*
G37*
G36*
G01*
X30220000Y-7685000D02*
X30220000Y-7315000D01*
G75*
G02*
X30355000Y-7180000I135000J0D01*
G01*
X30625000Y-7180000D01*
G75*
G02*
X30760000Y-7315000I0J-135000D01*
G01*
X30760000Y-7685000D01*
G75*
G02*
X30625000Y-7820000I-135000J0D01*
G01*
X30355000Y-7820000D01*
G75*
G02*
X30220000Y-7685000I0J135000D01*
G01*
G37*
G36*
G01*
X30640000Y-20605000D02*
X30640000Y-20235000D01*
G75*
G02*
X30775000Y-20100000I135000J0D01*
G01*
X31045000Y-20100000D01*
G75*
G02*
X31180000Y-20235000I0J-135000D01*
G01*
X31180000Y-20605000D01*
G75*
G02*
X31045000Y-20740000I-135000J0D01*
G01*
X30775000Y-20740000D01*
G75*
G02*
X30640000Y-20605000I0J135000D01*
G01*
G37*
G36*
G01*
X29620000Y-20605000D02*
X29620000Y-20235000D01*
G75*
G02*
X29755000Y-20100000I135000J0D01*
G01*
X30025000Y-20100000D01*
G75*
G02*
X30160000Y-20235000I0J-135000D01*
G01*
X30160000Y-20605000D01*
G75*
G02*
X30025000Y-20740000I-135000J0D01*
G01*
X29755000Y-20740000D01*
G75*
G02*
X29620000Y-20605000I0J135000D01*
G01*
G37*
G36*
G01*
X14695000Y-14895000D02*
X14695000Y-15265000D01*
G75*
G02*
X14560000Y-15400000I-135000J0D01*
G01*
X14290000Y-15400000D01*
G75*
G02*
X14155000Y-15265000I0J135000D01*
G01*
X14155000Y-14895000D01*
G75*
G02*
X14290000Y-14760000I135000J0D01*
G01*
X14560000Y-14760000D01*
G75*
G02*
X14695000Y-14895000I0J-135000D01*
G01*
G37*
G36*
G01*
X15715000Y-14895000D02*
X15715000Y-15265000D01*
G75*
G02*
X15580000Y-15400000I-135000J0D01*
G01*
X15310000Y-15400000D01*
G75*
G02*
X15175000Y-15265000I0J135000D01*
G01*
X15175000Y-14895000D01*
G75*
G02*
X15310000Y-14760000I135000J0D01*
G01*
X15580000Y-14760000D01*
G75*
G02*
X15715000Y-14895000I0J-135000D01*
G01*
G37*
G36*
G01*
X8505000Y19145000D02*
X8505000Y19515000D01*
G75*
G02*
X8640000Y19650000I135000J0D01*
G01*
X8910000Y19650000D01*
G75*
G02*
X9045000Y19515000I0J-135000D01*
G01*
X9045000Y19145000D01*
G75*
G02*
X8910000Y19010000I-135000J0D01*
G01*
X8640000Y19010000D01*
G75*
G02*
X8505000Y19145000I0J135000D01*
G01*
G37*
G36*
G01*
X7485000Y19145000D02*
X7485000Y19515000D01*
G75*
G02*
X7620000Y19650000I135000J0D01*
G01*
X7890000Y19650000D01*
G75*
G02*
X8025000Y19515000I0J-135000D01*
G01*
X8025000Y19145000D01*
G75*
G02*
X7890000Y19010000I-135000J0D01*
G01*
X7620000Y19010000D01*
G75*
G02*
X7485000Y19145000I0J135000D01*
G01*
G37*
G36*
G01*
X-42796360Y25313540D02*
X-43166360Y25313540D01*
G75*
G02*
X-43301360Y25448540I0J135000D01*
G01*
X-43301360Y25718540D01*
G75*
G02*
X-43166360Y25853540I135000J0D01*
G01*
X-42796360Y25853540D01*
G75*
G02*
X-42661360Y25718540I0J-135000D01*
G01*
X-42661360Y25448540D01*
G75*
G02*
X-42796360Y25313540I-135000J0D01*
G01*
G37*
G36*
G01*
X-42796360Y24293540D02*
X-43166360Y24293540D01*
G75*
G02*
X-43301360Y24428540I0J135000D01*
G01*
X-43301360Y24698540D01*
G75*
G02*
X-43166360Y24833540I135000J0D01*
G01*
X-42796360Y24833540D01*
G75*
G02*
X-42661360Y24698540I0J-135000D01*
G01*
X-42661360Y24428540D01*
G75*
G02*
X-42796360Y24293540I-135000J0D01*
G01*
G37*
G36*
G01*
X-33163060Y11514700D02*
X-33163060Y11144700D01*
G75*
G02*
X-33298060Y11009700I-135000J0D01*
G01*
X-33568060Y11009700D01*
G75*
G02*
X-33703060Y11144700I0J135000D01*
G01*
X-33703060Y11514700D01*
G75*
G02*
X-33568060Y11649700I135000J0D01*
G01*
X-33298060Y11649700D01*
G75*
G02*
X-33163060Y11514700I0J-135000D01*
G01*
G37*
G36*
G01*
X-32143060Y11514700D02*
X-32143060Y11144700D01*
G75*
G02*
X-32278060Y11009700I-135000J0D01*
G01*
X-32548060Y11009700D01*
G75*
G02*
X-32683060Y11144700I0J135000D01*
G01*
X-32683060Y11514700D01*
G75*
G02*
X-32548060Y11649700I135000J0D01*
G01*
X-32278060Y11649700D01*
G75*
G02*
X-32143060Y11514700I0J-135000D01*
G01*
G37*
G36*
G01*
X-48627360Y24853720D02*
X-48257360Y24853720D01*
G75*
G02*
X-48122360Y24718720I0J-135000D01*
G01*
X-48122360Y24448720D01*
G75*
G02*
X-48257360Y24313720I-135000J0D01*
G01*
X-48627360Y24313720D01*
G75*
G02*
X-48762360Y24448720I0J135000D01*
G01*
X-48762360Y24718720D01*
G75*
G02*
X-48627360Y24853720I135000J0D01*
G01*
G37*
G36*
G01*
X-48627360Y25873720D02*
X-48257360Y25873720D01*
G75*
G02*
X-48122360Y25738720I0J-135000D01*
G01*
X-48122360Y25468720D01*
G75*
G02*
X-48257360Y25333720I-135000J0D01*
G01*
X-48627360Y25333720D01*
G75*
G02*
X-48762360Y25468720I0J135000D01*
G01*
X-48762360Y25738720D01*
G75*
G02*
X-48627360Y25873720I135000J0D01*
G01*
G37*
G36*
G01*
X-35520000Y15845000D02*
X-35520000Y16215000D01*
G75*
G02*
X-35385000Y16350000I135000J0D01*
G01*
X-35115000Y16350000D01*
G75*
G02*
X-34980000Y16215000I0J-135000D01*
G01*
X-34980000Y15845000D01*
G75*
G02*
X-35115000Y15710000I-135000J0D01*
G01*
X-35385000Y15710000D01*
G75*
G02*
X-35520000Y15845000I0J135000D01*
G01*
G37*
G36*
G01*
X-36540000Y15845000D02*
X-36540000Y16215000D01*
G75*
G02*
X-36405000Y16350000I135000J0D01*
G01*
X-36135000Y16350000D01*
G75*
G02*
X-36000000Y16215000I0J-135000D01*
G01*
X-36000000Y15845000D01*
G75*
G02*
X-36135000Y15710000I-135000J0D01*
G01*
X-36405000Y15710000D01*
G75*
G02*
X-36540000Y15845000I0J135000D01*
G01*
G37*
G36*
G01*
X4825000Y-21205000D02*
X5195000Y-21205000D01*
G75*
G02*
X5330000Y-21340000I0J-135000D01*
G01*
X5330000Y-21610000D01*
G75*
G02*
X5195000Y-21745000I-135000J0D01*
G01*
X4825000Y-21745000D01*
G75*
G02*
X4690000Y-21610000I0J135000D01*
G01*
X4690000Y-21340000D01*
G75*
G02*
X4825000Y-21205000I135000J0D01*
G01*
G37*
G36*
G01*
X4825000Y-20185000D02*
X5195000Y-20185000D01*
G75*
G02*
X5330000Y-20320000I0J-135000D01*
G01*
X5330000Y-20590000D01*
G75*
G02*
X5195000Y-20725000I-135000J0D01*
G01*
X4825000Y-20725000D01*
G75*
G02*
X4690000Y-20590000I0J135000D01*
G01*
X4690000Y-20320000D01*
G75*
G02*
X4825000Y-20185000I135000J0D01*
G01*
G37*
G36*
G01*
X27692200Y-20165360D02*
X27322200Y-20165360D01*
G75*
G02*
X27187200Y-20030360I0J135000D01*
G01*
X27187200Y-19760360D01*
G75*
G02*
X27322200Y-19625360I135000J0D01*
G01*
X27692200Y-19625360D01*
G75*
G02*
X27827200Y-19760360I0J-135000D01*
G01*
X27827200Y-20030360D01*
G75*
G02*
X27692200Y-20165360I-135000J0D01*
G01*
G37*
G36*
G01*
X27692200Y-21185360D02*
X27322200Y-21185360D01*
G75*
G02*
X27187200Y-21050360I0J135000D01*
G01*
X27187200Y-20780360D01*
G75*
G02*
X27322200Y-20645360I135000J0D01*
G01*
X27692200Y-20645360D01*
G75*
G02*
X27827200Y-20780360I0J-135000D01*
G01*
X27827200Y-21050360D01*
G75*
G02*
X27692200Y-21185360I-135000J0D01*
G01*
G37*
G36*
G01*
X8507980Y16575100D02*
X8507980Y16205100D01*
G75*
G02*
X8372980Y16070100I-135000J0D01*
G01*
X8102980Y16070100D01*
G75*
G02*
X7967980Y16205100I0J135000D01*
G01*
X7967980Y16575100D01*
G75*
G02*
X8102980Y16710100I135000J0D01*
G01*
X8372980Y16710100D01*
G75*
G02*
X8507980Y16575100I0J-135000D01*
G01*
G37*
G36*
G01*
X9527980Y16575100D02*
X9527980Y16205100D01*
G75*
G02*
X9392980Y16070100I-135000J0D01*
G01*
X9122980Y16070100D01*
G75*
G02*
X8987980Y16205100I0J135000D01*
G01*
X8987980Y16575100D01*
G75*
G02*
X9122980Y16710100I135000J0D01*
G01*
X9392980Y16710100D01*
G75*
G02*
X9527980Y16575100I0J-135000D01*
G01*
G37*
G36*
G01*
X26122200Y-20645360D02*
X26492200Y-20645360D01*
G75*
G02*
X26627200Y-20780360I0J-135000D01*
G01*
X26627200Y-21050360D01*
G75*
G02*
X26492200Y-21185360I-135000J0D01*
G01*
X26122200Y-21185360D01*
G75*
G02*
X25987200Y-21050360I0J135000D01*
G01*
X25987200Y-20780360D01*
G75*
G02*
X26122200Y-20645360I135000J0D01*
G01*
G37*
G36*
G01*
X26122200Y-19625360D02*
X26492200Y-19625360D01*
G75*
G02*
X26627200Y-19760360I0J-135000D01*
G01*
X26627200Y-20030360D01*
G75*
G02*
X26492200Y-20165360I-135000J0D01*
G01*
X26122200Y-20165360D01*
G75*
G02*
X25987200Y-20030360I0J135000D01*
G01*
X25987200Y-19760360D01*
G75*
G02*
X26122200Y-19625360I135000J0D01*
G01*
G37*
G36*
G01*
X8987980Y15005100D02*
X8987980Y15375100D01*
G75*
G02*
X9122980Y15510100I135000J0D01*
G01*
X9392980Y15510100D01*
G75*
G02*
X9527980Y15375100I0J-135000D01*
G01*
X9527980Y15005100D01*
G75*
G02*
X9392980Y14870100I-135000J0D01*
G01*
X9122980Y14870100D01*
G75*
G02*
X8987980Y15005100I0J135000D01*
G01*
G37*
G36*
G01*
X7967980Y15005100D02*
X7967980Y15375100D01*
G75*
G02*
X8102980Y15510100I135000J0D01*
G01*
X8372980Y15510100D01*
G75*
G02*
X8507980Y15375100I0J-135000D01*
G01*
X8507980Y15005100D01*
G75*
G02*
X8372980Y14870100I-135000J0D01*
G01*
X8102980Y14870100D01*
G75*
G02*
X7967980Y15005100I0J135000D01*
G01*
G37*
G36*
G01*
X-9355000Y-44700000D02*
X-8985000Y-44700000D01*
G75*
G02*
X-8850000Y-44835000I0J-135000D01*
G01*
X-8850000Y-45105000D01*
G75*
G02*
X-8985000Y-45240000I-135000J0D01*
G01*
X-9355000Y-45240000D01*
G75*
G02*
X-9490000Y-45105000I0J135000D01*
G01*
X-9490000Y-44835000D01*
G75*
G02*
X-9355000Y-44700000I135000J0D01*
G01*
G37*
G36*
G01*
X-9355000Y-43680000D02*
X-8985000Y-43680000D01*
G75*
G02*
X-8850000Y-43815000I0J-135000D01*
G01*
X-8850000Y-44085000D01*
G75*
G02*
X-8985000Y-44220000I-135000J0D01*
G01*
X-9355000Y-44220000D01*
G75*
G02*
X-9490000Y-44085000I0J135000D01*
G01*
X-9490000Y-43815000D01*
G75*
G02*
X-9355000Y-43680000I135000J0D01*
G01*
G37*
G36*
G01*
X-2720000Y-36495000D02*
X-2720000Y-36125000D01*
G75*
G02*
X-2585000Y-35990000I135000J0D01*
G01*
X-2315000Y-35990000D01*
G75*
G02*
X-2180000Y-36125000I0J-135000D01*
G01*
X-2180000Y-36495000D01*
G75*
G02*
X-2315000Y-36630000I-135000J0D01*
G01*
X-2585000Y-36630000D01*
G75*
G02*
X-2720000Y-36495000I0J135000D01*
G01*
G37*
G36*
G01*
X-3740000Y-36495000D02*
X-3740000Y-36125000D01*
G75*
G02*
X-3605000Y-35990000I135000J0D01*
G01*
X-3335000Y-35990000D01*
G75*
G02*
X-3200000Y-36125000I0J-135000D01*
G01*
X-3200000Y-36495000D01*
G75*
G02*
X-3335000Y-36630000I-135000J0D01*
G01*
X-3605000Y-36630000D01*
G75*
G02*
X-3740000Y-36495000I0J135000D01*
G01*
G37*
G36*
G01*
X2664880Y-36503580D02*
X3034880Y-36503580D01*
G75*
G02*
X3169880Y-36638580I0J-135000D01*
G01*
X3169880Y-36908580D01*
G75*
G02*
X3034880Y-37043580I-135000J0D01*
G01*
X2664880Y-37043580D01*
G75*
G02*
X2529880Y-36908580I0J135000D01*
G01*
X2529880Y-36638580D01*
G75*
G02*
X2664880Y-36503580I135000J0D01*
G01*
G37*
G36*
G01*
X2664880Y-35483580D02*
X3034880Y-35483580D01*
G75*
G02*
X3169880Y-35618580I0J-135000D01*
G01*
X3169880Y-35888580D01*
G75*
G02*
X3034880Y-36023580I-135000J0D01*
G01*
X2664880Y-36023580D01*
G75*
G02*
X2529880Y-35888580I0J135000D01*
G01*
X2529880Y-35618580D01*
G75*
G02*
X2664880Y-35483580I135000J0D01*
G01*
G37*
G36*
G01*
X1840000Y-3830000D02*
X1500000Y-3830000D01*
G75*
G02*
X1360000Y-3690000I0J140000D01*
G01*
X1360000Y-3410000D01*
G75*
G02*
X1500000Y-3270000I140000J0D01*
G01*
X1840000Y-3270000D01*
G75*
G02*
X1980000Y-3410000I0J-140000D01*
G01*
X1980000Y-3690000D01*
G75*
G02*
X1840000Y-3830000I-140000J0D01*
G01*
G37*
G36*
G01*
X1840000Y-4790000D02*
X1500000Y-4790000D01*
G75*
G02*
X1360000Y-4650000I0J140000D01*
G01*
X1360000Y-4370000D01*
G75*
G02*
X1500000Y-4230000I140000J0D01*
G01*
X1840000Y-4230000D01*
G75*
G02*
X1980000Y-4370000I0J-140000D01*
G01*
X1980000Y-4650000D01*
G75*
G02*
X1840000Y-4790000I-140000J0D01*
G01*
G37*
G36*
G01*
X-3420000Y-3595000D02*
X-3760000Y-3595000D01*
G75*
G02*
X-3900000Y-3455000I0J140000D01*
G01*
X-3900000Y-3175000D01*
G75*
G02*
X-3760000Y-3035000I140000J0D01*
G01*
X-3420000Y-3035000D01*
G75*
G02*
X-3280000Y-3175000I0J-140000D01*
G01*
X-3280000Y-3455000D01*
G75*
G02*
X-3420000Y-3595000I-140000J0D01*
G01*
G37*
G36*
G01*
X-3420000Y-4555000D02*
X-3760000Y-4555000D01*
G75*
G02*
X-3900000Y-4415000I0J140000D01*
G01*
X-3900000Y-4135000D01*
G75*
G02*
X-3760000Y-3995000I140000J0D01*
G01*
X-3420000Y-3995000D01*
G75*
G02*
X-3280000Y-4135000I0J-140000D01*
G01*
X-3280000Y-4415000D01*
G75*
G02*
X-3420000Y-4555000I-140000J0D01*
G01*
G37*
G36*
G01*
X-29710320Y16456000D02*
X-30050320Y16456000D01*
G75*
G02*
X-30190320Y16596000I0J140000D01*
G01*
X-30190320Y16876000D01*
G75*
G02*
X-30050320Y17016000I140000J0D01*
G01*
X-29710320Y17016000D01*
G75*
G02*
X-29570320Y16876000I0J-140000D01*
G01*
X-29570320Y16596000D01*
G75*
G02*
X-29710320Y16456000I-140000J0D01*
G01*
G37*
G36*
G01*
X-29710320Y15496000D02*
X-30050320Y15496000D01*
G75*
G02*
X-30190320Y15636000I0J140000D01*
G01*
X-30190320Y15916000D01*
G75*
G02*
X-30050320Y16056000I140000J0D01*
G01*
X-29710320Y16056000D01*
G75*
G02*
X-29570320Y15916000I0J-140000D01*
G01*
X-29570320Y15636000D01*
G75*
G02*
X-29710320Y15496000I-140000J0D01*
G01*
G37*
G36*
G01*
X1020000Y-8305000D02*
X680000Y-8305000D01*
G75*
G02*
X540000Y-8165000I0J140000D01*
G01*
X540000Y-7885000D01*
G75*
G02*
X680000Y-7745000I140000J0D01*
G01*
X1020000Y-7745000D01*
G75*
G02*
X1160000Y-7885000I0J-140000D01*
G01*
X1160000Y-8165000D01*
G75*
G02*
X1020000Y-8305000I-140000J0D01*
G01*
G37*
G36*
G01*
X1020000Y-9265000D02*
X680000Y-9265000D01*
G75*
G02*
X540000Y-9125000I0J140000D01*
G01*
X540000Y-8845000D01*
G75*
G02*
X680000Y-8705000I140000J0D01*
G01*
X1020000Y-8705000D01*
G75*
G02*
X1160000Y-8845000I0J-140000D01*
G01*
X1160000Y-9125000D01*
G75*
G02*
X1020000Y-9265000I-140000J0D01*
G01*
G37*
G36*
G01*
X28900000Y-1970000D02*
X28900000Y-2310000D01*
G75*
G02*
X28760000Y-2450000I-140000J0D01*
G01*
X28480000Y-2450000D01*
G75*
G02*
X28340000Y-2310000I0J140000D01*
G01*
X28340000Y-1970000D01*
G75*
G02*
X28480000Y-1830000I140000J0D01*
G01*
X28760000Y-1830000D01*
G75*
G02*
X28900000Y-1970000I0J-140000D01*
G01*
G37*
G36*
G01*
X29860000Y-1970000D02*
X29860000Y-2310000D01*
G75*
G02*
X29720000Y-2450000I-140000J0D01*
G01*
X29440000Y-2450000D01*
G75*
G02*
X29300000Y-2310000I0J140000D01*
G01*
X29300000Y-1970000D01*
G75*
G02*
X29440000Y-1830000I140000J0D01*
G01*
X29720000Y-1830000D01*
G75*
G02*
X29860000Y-1970000I0J-140000D01*
G01*
G37*
G36*
G01*
X30245000Y-17760000D02*
X29905000Y-17760000D01*
G75*
G02*
X29765000Y-17620000I0J140000D01*
G01*
X29765000Y-17340000D01*
G75*
G02*
X29905000Y-17200000I140000J0D01*
G01*
X30245000Y-17200000D01*
G75*
G02*
X30385000Y-17340000I0J-140000D01*
G01*
X30385000Y-17620000D01*
G75*
G02*
X30245000Y-17760000I-140000J0D01*
G01*
G37*
G36*
G01*
X30245000Y-18720000D02*
X29905000Y-18720000D01*
G75*
G02*
X29765000Y-18580000I0J140000D01*
G01*
X29765000Y-18300000D01*
G75*
G02*
X29905000Y-18160000I140000J0D01*
G01*
X30245000Y-18160000D01*
G75*
G02*
X30385000Y-18300000I0J-140000D01*
G01*
X30385000Y-18580000D01*
G75*
G02*
X30245000Y-18720000I-140000J0D01*
G01*
G37*
G36*
G01*
X6047980Y19100000D02*
X6047980Y18760000D01*
G75*
G02*
X5907980Y18620000I-140000J0D01*
G01*
X5627980Y18620000D01*
G75*
G02*
X5487980Y18760000I0J140000D01*
G01*
X5487980Y19100000D01*
G75*
G02*
X5627980Y19240000I140000J0D01*
G01*
X5907980Y19240000D01*
G75*
G02*
X6047980Y19100000I0J-140000D01*
G01*
G37*
G36*
G01*
X7007980Y19100000D02*
X7007980Y18760000D01*
G75*
G02*
X6867980Y18620000I-140000J0D01*
G01*
X6587980Y18620000D01*
G75*
G02*
X6447980Y18760000I0J140000D01*
G01*
X6447980Y19100000D01*
G75*
G02*
X6587980Y19240000I140000J0D01*
G01*
X6867980Y19240000D01*
G75*
G02*
X7007980Y19100000I0J-140000D01*
G01*
G37*
G36*
G01*
X-49968240Y39703760D02*
X-49968240Y39363760D01*
G75*
G02*
X-50108240Y39223760I-140000J0D01*
G01*
X-50388240Y39223760D01*
G75*
G02*
X-50528240Y39363760I0J140000D01*
G01*
X-50528240Y39703760D01*
G75*
G02*
X-50388240Y39843760I140000J0D01*
G01*
X-50108240Y39843760D01*
G75*
G02*
X-49968240Y39703760I0J-140000D01*
G01*
G37*
G36*
G01*
X-49008240Y39703760D02*
X-49008240Y39363760D01*
G75*
G02*
X-49148240Y39223760I-140000J0D01*
G01*
X-49428240Y39223760D01*
G75*
G02*
X-49568240Y39363760I0J140000D01*
G01*
X-49568240Y39703760D01*
G75*
G02*
X-49428240Y39843760I140000J0D01*
G01*
X-49148240Y39843760D01*
G75*
G02*
X-49008240Y39703760I0J-140000D01*
G01*
G37*
G36*
G01*
X-37326660Y33780480D02*
X-37326660Y33440480D01*
G75*
G02*
X-37466660Y33300480I-140000J0D01*
G01*
X-37746660Y33300480D01*
G75*
G02*
X-37886660Y33440480I0J140000D01*
G01*
X-37886660Y33780480D01*
G75*
G02*
X-37746660Y33920480I140000J0D01*
G01*
X-37466660Y33920480D01*
G75*
G02*
X-37326660Y33780480I0J-140000D01*
G01*
G37*
G36*
G01*
X-36366660Y33780480D02*
X-36366660Y33440480D01*
G75*
G02*
X-36506660Y33300480I-140000J0D01*
G01*
X-36786660Y33300480D01*
G75*
G02*
X-36926660Y33440480I0J140000D01*
G01*
X-36926660Y33780480D01*
G75*
G02*
X-36786660Y33920480I140000J0D01*
G01*
X-36506660Y33920480D01*
G75*
G02*
X-36366660Y33780480I0J-140000D01*
G01*
G37*
G36*
G01*
X-40241360Y25683600D02*
X-40241360Y26023600D01*
G75*
G02*
X-40101360Y26163600I140000J0D01*
G01*
X-39821360Y26163600D01*
G75*
G02*
X-39681360Y26023600I0J-140000D01*
G01*
X-39681360Y25683600D01*
G75*
G02*
X-39821360Y25543600I-140000J0D01*
G01*
X-40101360Y25543600D01*
G75*
G02*
X-40241360Y25683600I0J140000D01*
G01*
G37*
G36*
G01*
X-41201360Y25683600D02*
X-41201360Y26023600D01*
G75*
G02*
X-41061360Y26163600I140000J0D01*
G01*
X-40781360Y26163600D01*
G75*
G02*
X-40641360Y26023600I0J-140000D01*
G01*
X-40641360Y25683600D01*
G75*
G02*
X-40781360Y25543600I-140000J0D01*
G01*
X-41061360Y25543600D01*
G75*
G02*
X-41201360Y25683600I0J140000D01*
G01*
G37*
G36*
G01*
X-8590000Y-11035000D02*
X-8930000Y-11035000D01*
G75*
G02*
X-9070000Y-10895000I0J140000D01*
G01*
X-9070000Y-10615000D01*
G75*
G02*
X-8930000Y-10475000I140000J0D01*
G01*
X-8590000Y-10475000D01*
G75*
G02*
X-8450000Y-10615000I0J-140000D01*
G01*
X-8450000Y-10895000D01*
G75*
G02*
X-8590000Y-11035000I-140000J0D01*
G01*
G37*
G36*
G01*
X-8590000Y-11995000D02*
X-8930000Y-11995000D01*
G75*
G02*
X-9070000Y-11855000I0J140000D01*
G01*
X-9070000Y-11575000D01*
G75*
G02*
X-8930000Y-11435000I140000J0D01*
G01*
X-8590000Y-11435000D01*
G75*
G02*
X-8450000Y-11575000I0J-140000D01*
G01*
X-8450000Y-11855000D01*
G75*
G02*
X-8590000Y-11995000I-140000J0D01*
G01*
G37*
G36*
G01*
X-12475000Y-25390000D02*
X-12475000Y-25730000D01*
G75*
G02*
X-12615000Y-25870000I-140000J0D01*
G01*
X-12895000Y-25870000D01*
G75*
G02*
X-13035000Y-25730000I0J140000D01*
G01*
X-13035000Y-25390000D01*
G75*
G02*
X-12895000Y-25250000I140000J0D01*
G01*
X-12615000Y-25250000D01*
G75*
G02*
X-12475000Y-25390000I0J-140000D01*
G01*
G37*
G36*
G01*
X-11515000Y-25390000D02*
X-11515000Y-25730000D01*
G75*
G02*
X-11655000Y-25870000I-140000J0D01*
G01*
X-11935000Y-25870000D01*
G75*
G02*
X-12075000Y-25730000I0J140000D01*
G01*
X-12075000Y-25390000D01*
G75*
G02*
X-11935000Y-25250000I140000J0D01*
G01*
X-11655000Y-25250000D01*
G75*
G02*
X-11515000Y-25390000I0J-140000D01*
G01*
G37*
G36*
G01*
X28877200Y-20205360D02*
X28537200Y-20205360D01*
G75*
G02*
X28397200Y-20065360I0J140000D01*
G01*
X28397200Y-19785360D01*
G75*
G02*
X28537200Y-19645360I140000J0D01*
G01*
X28877200Y-19645360D01*
G75*
G02*
X29017200Y-19785360I0J-140000D01*
G01*
X29017200Y-20065360D01*
G75*
G02*
X28877200Y-20205360I-140000J0D01*
G01*
G37*
G36*
G01*
X28877200Y-21165360D02*
X28537200Y-21165360D01*
G75*
G02*
X28397200Y-21025360I0J140000D01*
G01*
X28397200Y-20745360D01*
G75*
G02*
X28537200Y-20605360I140000J0D01*
G01*
X28877200Y-20605360D01*
G75*
G02*
X29017200Y-20745360I0J-140000D01*
G01*
X29017200Y-21025360D01*
G75*
G02*
X28877200Y-21165360I-140000J0D01*
G01*
G37*
G36*
G01*
X8547980Y17760100D02*
X8547980Y17420100D01*
G75*
G02*
X8407980Y17280100I-140000J0D01*
G01*
X8127980Y17280100D01*
G75*
G02*
X7987980Y17420100I0J140000D01*
G01*
X7987980Y17760100D01*
G75*
G02*
X8127980Y17900100I140000J0D01*
G01*
X8407980Y17900100D01*
G75*
G02*
X8547980Y17760100I0J-140000D01*
G01*
G37*
G36*
G01*
X9507980Y17760100D02*
X9507980Y17420100D01*
G75*
G02*
X9367980Y17280100I-140000J0D01*
G01*
X9087980Y17280100D01*
G75*
G02*
X8947980Y17420100I0J140000D01*
G01*
X8947980Y17760100D01*
G75*
G02*
X9087980Y17900100I140000J0D01*
G01*
X9367980Y17900100D01*
G75*
G02*
X9507980Y17760100I0J-140000D01*
G01*
G37*
G36*
G01*
X-11050000Y-35545000D02*
X-10710000Y-35545000D01*
G75*
G02*
X-10570000Y-35685000I0J-140000D01*
G01*
X-10570000Y-35965000D01*
G75*
G02*
X-10710000Y-36105000I-140000J0D01*
G01*
X-11050000Y-36105000D01*
G75*
G02*
X-11190000Y-35965000I0J140000D01*
G01*
X-11190000Y-35685000D01*
G75*
G02*
X-11050000Y-35545000I140000J0D01*
G01*
G37*
G36*
G01*
X-11050000Y-34585000D02*
X-10710000Y-34585000D01*
G75*
G02*
X-10570000Y-34725000I0J-140000D01*
G01*
X-10570000Y-35005000D01*
G75*
G02*
X-10710000Y-35145000I-140000J0D01*
G01*
X-11050000Y-35145000D01*
G75*
G02*
X-11190000Y-35005000I0J140000D01*
G01*
X-11190000Y-34725000D01*
G75*
G02*
X-11050000Y-34585000I140000J0D01*
G01*
G37*
G36*
G01*
X-8960000Y-9395000D02*
X-8620000Y-9395000D01*
G75*
G02*
X-8480000Y-9535000I0J-140000D01*
G01*
X-8480000Y-9815000D01*
G75*
G02*
X-8620000Y-9955000I-140000J0D01*
G01*
X-8960000Y-9955000D01*
G75*
G02*
X-9100000Y-9815000I0J140000D01*
G01*
X-9100000Y-9535000D01*
G75*
G02*
X-8960000Y-9395000I140000J0D01*
G01*
G37*
G36*
G01*
X-8960000Y-8435000D02*
X-8620000Y-8435000D01*
G75*
G02*
X-8480000Y-8575000I0J-140000D01*
G01*
X-8480000Y-8855000D01*
G75*
G02*
X-8620000Y-8995000I-140000J0D01*
G01*
X-8960000Y-8995000D01*
G75*
G02*
X-9100000Y-8855000I0J140000D01*
G01*
X-9100000Y-8575000D01*
G75*
G02*
X-8960000Y-8435000I140000J0D01*
G01*
G37*
G36*
G01*
X27450000Y21840000D02*
X27790000Y21840000D01*
G75*
G02*
X27930000Y21700000I0J-140000D01*
G01*
X27930000Y21420000D01*
G75*
G02*
X27790000Y21280000I-140000J0D01*
G01*
X27450000Y21280000D01*
G75*
G02*
X27310000Y21420000I0J140000D01*
G01*
X27310000Y21700000D01*
G75*
G02*
X27450000Y21840000I140000J0D01*
G01*
G37*
G36*
G01*
X27450000Y22800000D02*
X27790000Y22800000D01*
G75*
G02*
X27930000Y22660000I0J-140000D01*
G01*
X27930000Y22380000D01*
G75*
G02*
X27790000Y22240000I-140000J0D01*
G01*
X27450000Y22240000D01*
G75*
G02*
X27310000Y22380000I0J140000D01*
G01*
X27310000Y22660000D01*
G75*
G02*
X27450000Y22800000I140000J0D01*
G01*
G37*
G36*
G01*
X-3200000Y3670000D02*
X-3200000Y3330000D01*
G75*
G02*
X-3340000Y3190000I-140000J0D01*
G01*
X-3620000Y3190000D01*
G75*
G02*
X-3760000Y3330000I0J140000D01*
G01*
X-3760000Y3670000D01*
G75*
G02*
X-3620000Y3810000I140000J0D01*
G01*
X-3340000Y3810000D01*
G75*
G02*
X-3200000Y3670000I0J-140000D01*
G01*
G37*
G36*
G01*
X-2240000Y3670000D02*
X-2240000Y3330000D01*
G75*
G02*
X-2380000Y3190000I-140000J0D01*
G01*
X-2660000Y3190000D01*
G75*
G02*
X-2800000Y3330000I0J140000D01*
G01*
X-2800000Y3670000D01*
G75*
G02*
X-2660000Y3810000I140000J0D01*
G01*
X-2380000Y3810000D01*
G75*
G02*
X-2240000Y3670000I0J-140000D01*
G01*
G37*
G36*
G01*
X-11000000Y-22925000D02*
X-10660000Y-22925000D01*
G75*
G02*
X-10520000Y-23065000I0J-140000D01*
G01*
X-10520000Y-23345000D01*
G75*
G02*
X-10660000Y-23485000I-140000J0D01*
G01*
X-11000000Y-23485000D01*
G75*
G02*
X-11140000Y-23345000I0J140000D01*
G01*
X-11140000Y-23065000D01*
G75*
G02*
X-11000000Y-22925000I140000J0D01*
G01*
G37*
G36*
G01*
X-11000000Y-21965000D02*
X-10660000Y-21965000D01*
G75*
G02*
X-10520000Y-22105000I0J-140000D01*
G01*
X-10520000Y-22385000D01*
G75*
G02*
X-10660000Y-22525000I-140000J0D01*
G01*
X-11000000Y-22525000D01*
G75*
G02*
X-11140000Y-22385000I0J140000D01*
G01*
X-11140000Y-22105000D01*
G75*
G02*
X-11000000Y-21965000I140000J0D01*
G01*
G37*
G36*
G01*
X-16040000Y-22985000D02*
X-15700000Y-22985000D01*
G75*
G02*
X-15560000Y-23125000I0J-140000D01*
G01*
X-15560000Y-23405000D01*
G75*
G02*
X-15700000Y-23545000I-140000J0D01*
G01*
X-16040000Y-23545000D01*
G75*
G02*
X-16180000Y-23405000I0J140000D01*
G01*
X-16180000Y-23125000D01*
G75*
G02*
X-16040000Y-22985000I140000J0D01*
G01*
G37*
G36*
G01*
X-16040000Y-22025000D02*
X-15700000Y-22025000D01*
G75*
G02*
X-15560000Y-22165000I0J-140000D01*
G01*
X-15560000Y-22445000D01*
G75*
G02*
X-15700000Y-22585000I-140000J0D01*
G01*
X-16040000Y-22585000D01*
G75*
G02*
X-16180000Y-22445000I0J140000D01*
G01*
X-16180000Y-22165000D01*
G75*
G02*
X-16040000Y-22025000I140000J0D01*
G01*
G37*
G36*
G01*
X-6951920Y16557600D02*
X-7291920Y16557600D01*
G75*
G02*
X-7431920Y16697600I0J140000D01*
G01*
X-7431920Y16977600D01*
G75*
G02*
X-7291920Y17117600I140000J0D01*
G01*
X-6951920Y17117600D01*
G75*
G02*
X-6811920Y16977600I0J-140000D01*
G01*
X-6811920Y16697600D01*
G75*
G02*
X-6951920Y16557600I-140000J0D01*
G01*
G37*
G36*
G01*
X-6951920Y15597600D02*
X-7291920Y15597600D01*
G75*
G02*
X-7431920Y15737600I0J140000D01*
G01*
X-7431920Y16017600D01*
G75*
G02*
X-7291920Y16157600I140000J0D01*
G01*
X-6951920Y16157600D01*
G75*
G02*
X-6811920Y16017600I0J-140000D01*
G01*
X-6811920Y15737600D01*
G75*
G02*
X-6951920Y15597600I-140000J0D01*
G01*
G37*
G36*
G01*
X-10050000Y-26430000D02*
X-9710000Y-26430000D01*
G75*
G02*
X-9570000Y-26570000I0J-140000D01*
G01*
X-9570000Y-26850000D01*
G75*
G02*
X-9710000Y-26990000I-140000J0D01*
G01*
X-10050000Y-26990000D01*
G75*
G02*
X-10190000Y-26850000I0J140000D01*
G01*
X-10190000Y-26570000D01*
G75*
G02*
X-10050000Y-26430000I140000J0D01*
G01*
G37*
G36*
G01*
X-10050000Y-25470000D02*
X-9710000Y-25470000D01*
G75*
G02*
X-9570000Y-25610000I0J-140000D01*
G01*
X-9570000Y-25890000D01*
G75*
G02*
X-9710000Y-26030000I-140000J0D01*
G01*
X-10050000Y-26030000D01*
G75*
G02*
X-10190000Y-25890000I0J140000D01*
G01*
X-10190000Y-25610000D01*
G75*
G02*
X-10050000Y-25470000I140000J0D01*
G01*
G37*
G36*
G01*
X4110000Y-20755000D02*
X3770000Y-20755000D01*
G75*
G02*
X3630000Y-20615000I0J140000D01*
G01*
X3630000Y-20335000D01*
G75*
G02*
X3770000Y-20195000I140000J0D01*
G01*
X4110000Y-20195000D01*
G75*
G02*
X4250000Y-20335000I0J-140000D01*
G01*
X4250000Y-20615000D01*
G75*
G02*
X4110000Y-20755000I-140000J0D01*
G01*
G37*
G36*
G01*
X4110000Y-21715000D02*
X3770000Y-21715000D01*
G75*
G02*
X3630000Y-21575000I0J140000D01*
G01*
X3630000Y-21295000D01*
G75*
G02*
X3770000Y-21155000I140000J0D01*
G01*
X4110000Y-21155000D01*
G75*
G02*
X4250000Y-21295000I0J-140000D01*
G01*
X4250000Y-21575000D01*
G75*
G02*
X4110000Y-21715000I-140000J0D01*
G01*
G37*
G36*
G01*
X-1355000Y-11210000D02*
X-1355000Y-11550000D01*
G75*
G02*
X-1495000Y-11690000I-140000J0D01*
G01*
X-1775000Y-11690000D01*
G75*
G02*
X-1915000Y-11550000I0J140000D01*
G01*
X-1915000Y-11210000D01*
G75*
G02*
X-1775000Y-11070000I140000J0D01*
G01*
X-1495000Y-11070000D01*
G75*
G02*
X-1355000Y-11210000I0J-140000D01*
G01*
G37*
G36*
G01*
X-395000Y-11210000D02*
X-395000Y-11550000D01*
G75*
G02*
X-535000Y-11690000I-140000J0D01*
G01*
X-815000Y-11690000D01*
G75*
G02*
X-955000Y-11550000I0J140000D01*
G01*
X-955000Y-11210000D01*
G75*
G02*
X-815000Y-11070000I140000J0D01*
G01*
X-535000Y-11070000D01*
G75*
G02*
X-395000Y-11210000I0J-140000D01*
G01*
G37*
G36*
G01*
X-6410000Y-23250000D02*
X-6070000Y-23250000D01*
G75*
G02*
X-5930000Y-23390000I0J-140000D01*
G01*
X-5930000Y-23670000D01*
G75*
G02*
X-6070000Y-23810000I-140000J0D01*
G01*
X-6410000Y-23810000D01*
G75*
G02*
X-6550000Y-23670000I0J140000D01*
G01*
X-6550000Y-23390000D01*
G75*
G02*
X-6410000Y-23250000I140000J0D01*
G01*
G37*
G36*
G01*
X-6410000Y-22290000D02*
X-6070000Y-22290000D01*
G75*
G02*
X-5930000Y-22430000I0J-140000D01*
G01*
X-5930000Y-22710000D01*
G75*
G02*
X-6070000Y-22850000I-140000J0D01*
G01*
X-6410000Y-22850000D01*
G75*
G02*
X-6550000Y-22710000I0J140000D01*
G01*
X-6550000Y-22430000D01*
G75*
G02*
X-6410000Y-22290000I140000J0D01*
G01*
G37*
G36*
G01*
X40971400Y4534080D02*
X40971400Y4874080D01*
G75*
G02*
X41111400Y5014080I140000J0D01*
G01*
X41391400Y5014080D01*
G75*
G02*
X41531400Y4874080I0J-140000D01*
G01*
X41531400Y4534080D01*
G75*
G02*
X41391400Y4394080I-140000J0D01*
G01*
X41111400Y4394080D01*
G75*
G02*
X40971400Y4534080I0J140000D01*
G01*
G37*
G36*
G01*
X40011400Y4534080D02*
X40011400Y4874080D01*
G75*
G02*
X40151400Y5014080I140000J0D01*
G01*
X40431400Y5014080D01*
G75*
G02*
X40571400Y4874080I0J-140000D01*
G01*
X40571400Y4534080D01*
G75*
G02*
X40431400Y4394080I-140000J0D01*
G01*
X40151400Y4394080D01*
G75*
G02*
X40011400Y4534080I0J140000D01*
G01*
G37*
G36*
G01*
X28550000Y-5830000D02*
X28550000Y-6170000D01*
G75*
G02*
X28410000Y-6310000I-140000J0D01*
G01*
X28130000Y-6310000D01*
G75*
G02*
X27990000Y-6170000I0J140000D01*
G01*
X27990000Y-5830000D01*
G75*
G02*
X28130000Y-5690000I140000J0D01*
G01*
X28410000Y-5690000D01*
G75*
G02*
X28550000Y-5830000I0J-140000D01*
G01*
G37*
G36*
G01*
X29510000Y-5830000D02*
X29510000Y-6170000D01*
G75*
G02*
X29370000Y-6310000I-140000J0D01*
G01*
X29090000Y-6310000D01*
G75*
G02*
X28950000Y-6170000I0J140000D01*
G01*
X28950000Y-5830000D01*
G75*
G02*
X29090000Y-5690000I140000J0D01*
G01*
X29370000Y-5690000D01*
G75*
G02*
X29510000Y-5830000I0J-140000D01*
G01*
G37*
G36*
G01*
X29208120Y1770200D02*
X29208120Y1430200D01*
G75*
G02*
X29068120Y1290200I-140000J0D01*
G01*
X28788120Y1290200D01*
G75*
G02*
X28648120Y1430200I0J140000D01*
G01*
X28648120Y1770200D01*
G75*
G02*
X28788120Y1910200I140000J0D01*
G01*
X29068120Y1910200D01*
G75*
G02*
X29208120Y1770200I0J-140000D01*
G01*
G37*
G36*
G01*
X30168120Y1770200D02*
X30168120Y1430200D01*
G75*
G02*
X30028120Y1290200I-140000J0D01*
G01*
X29748120Y1290200D01*
G75*
G02*
X29608120Y1430200I0J140000D01*
G01*
X29608120Y1770200D01*
G75*
G02*
X29748120Y1910200I140000J0D01*
G01*
X30028120Y1910200D01*
G75*
G02*
X30168120Y1770200I0J-140000D01*
G01*
G37*
G36*
G01*
X26700000Y-1145000D02*
X26700000Y-805000D01*
G75*
G02*
X26840000Y-665000I140000J0D01*
G01*
X27120000Y-665000D01*
G75*
G02*
X27260000Y-805000I0J-140000D01*
G01*
X27260000Y-1145000D01*
G75*
G02*
X27120000Y-1285000I-140000J0D01*
G01*
X26840000Y-1285000D01*
G75*
G02*
X26700000Y-1145000I0J140000D01*
G01*
G37*
G36*
G01*
X25740000Y-1145000D02*
X25740000Y-805000D01*
G75*
G02*
X25880000Y-665000I140000J0D01*
G01*
X26160000Y-665000D01*
G75*
G02*
X26300000Y-805000I0J-140000D01*
G01*
X26300000Y-1145000D01*
G75*
G02*
X26160000Y-1285000I-140000J0D01*
G01*
X25880000Y-1285000D01*
G75*
G02*
X25740000Y-1145000I0J140000D01*
G01*
G37*
G36*
G01*
X-4338140Y-562180D02*
X-3998140Y-562180D01*
G75*
G02*
X-3858140Y-702180I0J-140000D01*
G01*
X-3858140Y-982180D01*
G75*
G02*
X-3998140Y-1122180I-140000J0D01*
G01*
X-4338140Y-1122180D01*
G75*
G02*
X-4478140Y-982180I0J140000D01*
G01*
X-4478140Y-702180D01*
G75*
G02*
X-4338140Y-562180I140000J0D01*
G01*
G37*
G36*
G01*
X-4338140Y397820D02*
X-3998140Y397820D01*
G75*
G02*
X-3858140Y257820I0J-140000D01*
G01*
X-3858140Y-22180D01*
G75*
G02*
X-3998140Y-162180I-140000J0D01*
G01*
X-4338140Y-162180D01*
G75*
G02*
X-4478140Y-22180I0J140000D01*
G01*
X-4478140Y257820D01*
G75*
G02*
X-4338140Y397820I140000J0D01*
G01*
G37*
G36*
G01*
X28900000Y-805000D02*
X28900000Y-1145000D01*
G75*
G02*
X28760000Y-1285000I-140000J0D01*
G01*
X28480000Y-1285000D01*
G75*
G02*
X28340000Y-1145000I0J140000D01*
G01*
X28340000Y-805000D01*
G75*
G02*
X28480000Y-665000I140000J0D01*
G01*
X28760000Y-665000D01*
G75*
G02*
X28900000Y-805000I0J-140000D01*
G01*
G37*
G36*
G01*
X29860000Y-805000D02*
X29860000Y-1145000D01*
G75*
G02*
X29720000Y-1285000I-140000J0D01*
G01*
X29440000Y-1285000D01*
G75*
G02*
X29300000Y-1145000I0J140000D01*
G01*
X29300000Y-805000D01*
G75*
G02*
X29440000Y-665000I140000J0D01*
G01*
X29720000Y-665000D01*
G75*
G02*
X29860000Y-805000I0J-140000D01*
G01*
G37*
G36*
G01*
X41200000Y733440D02*
X41200000Y1073440D01*
G75*
G02*
X41340000Y1213440I140000J0D01*
G01*
X41620000Y1213440D01*
G75*
G02*
X41760000Y1073440I0J-140000D01*
G01*
X41760000Y733440D01*
G75*
G02*
X41620000Y593440I-140000J0D01*
G01*
X41340000Y593440D01*
G75*
G02*
X41200000Y733440I0J140000D01*
G01*
G37*
G36*
G01*
X40240000Y733440D02*
X40240000Y1073440D01*
G75*
G02*
X40380000Y1213440I140000J0D01*
G01*
X40660000Y1213440D01*
G75*
G02*
X40800000Y1073440I0J-140000D01*
G01*
X40800000Y733440D01*
G75*
G02*
X40660000Y593440I-140000J0D01*
G01*
X40380000Y593440D01*
G75*
G02*
X40240000Y733440I0J140000D01*
G01*
G37*
G36*
G01*
X-3565000Y15670000D02*
X-3565000Y16010000D01*
G75*
G02*
X-3425000Y16150000I140000J0D01*
G01*
X-3145000Y16150000D01*
G75*
G02*
X-3005000Y16010000I0J-140000D01*
G01*
X-3005000Y15670000D01*
G75*
G02*
X-3145000Y15530000I-140000J0D01*
G01*
X-3425000Y15530000D01*
G75*
G02*
X-3565000Y15670000I0J140000D01*
G01*
G37*
G36*
G01*
X-4525000Y15670000D02*
X-4525000Y16010000D01*
G75*
G02*
X-4385000Y16150000I140000J0D01*
G01*
X-4105000Y16150000D01*
G75*
G02*
X-3965000Y16010000I0J-140000D01*
G01*
X-3965000Y15670000D01*
G75*
G02*
X-4105000Y15530000I-140000J0D01*
G01*
X-4385000Y15530000D01*
G75*
G02*
X-4525000Y15670000I0J140000D01*
G01*
G37*
G36*
G01*
X-9340000Y-41410000D02*
X-9680000Y-41410000D01*
G75*
G02*
X-9820000Y-41270000I0J140000D01*
G01*
X-9820000Y-40990000D01*
G75*
G02*
X-9680000Y-40850000I140000J0D01*
G01*
X-9340000Y-40850000D01*
G75*
G02*
X-9200000Y-40990000I0J-140000D01*
G01*
X-9200000Y-41270000D01*
G75*
G02*
X-9340000Y-41410000I-140000J0D01*
G01*
G37*
G36*
G01*
X-9340000Y-42370000D02*
X-9680000Y-42370000D01*
G75*
G02*
X-9820000Y-42230000I0J140000D01*
G01*
X-9820000Y-41950000D01*
G75*
G02*
X-9680000Y-41810000I140000J0D01*
G01*
X-9340000Y-41810000D01*
G75*
G02*
X-9200000Y-41950000I0J-140000D01*
G01*
X-9200000Y-42230000D01*
G75*
G02*
X-9340000Y-42370000I-140000J0D01*
G01*
G37*
G36*
G01*
X-11385000Y-12180000D02*
X-11385000Y-11840000D01*
G75*
G02*
X-11245000Y-11700000I140000J0D01*
G01*
X-10965000Y-11700000D01*
G75*
G02*
X-10825000Y-11840000I0J-140000D01*
G01*
X-10825000Y-12180000D01*
G75*
G02*
X-10965000Y-12320000I-140000J0D01*
G01*
X-11245000Y-12320000D01*
G75*
G02*
X-11385000Y-12180000I0J140000D01*
G01*
G37*
G36*
G01*
X-12345000Y-12180000D02*
X-12345000Y-11840000D01*
G75*
G02*
X-12205000Y-11700000I140000J0D01*
G01*
X-11925000Y-11700000D01*
G75*
G02*
X-11785000Y-11840000I0J-140000D01*
G01*
X-11785000Y-12180000D01*
G75*
G02*
X-11925000Y-12320000I-140000J0D01*
G01*
X-12205000Y-12320000D01*
G75*
G02*
X-12345000Y-12180000I0J140000D01*
G01*
G37*
D22*
X23621040Y6925440D03*
X23621040Y6425440D03*
X23621040Y5925440D03*
X23621040Y5425440D03*
X23621040Y4925440D03*
X23621040Y4425440D03*
X23621040Y3925440D03*
X23621040Y3425440D03*
X23621040Y2925440D03*
X23621040Y2425440D03*
X23621040Y1925440D03*
X23621040Y1425440D03*
X23621040Y925440D03*
X23621040Y425440D03*
X23621040Y-74560D03*
X23621040Y-574560D03*
X23621040Y-1074560D03*
X23621040Y-1574560D03*
X23621040Y-2074560D03*
X23621040Y-2574560D03*
X23621040Y-3074560D03*
X23621040Y-3574560D03*
X23621040Y-4074560D03*
X23621040Y-4574560D03*
X23621040Y-5074560D03*
X23621040Y-5574560D03*
X23621040Y-6074560D03*
X23621040Y-6574560D03*
X23621040Y-7074560D03*
X23621040Y-7574560D03*
X23621040Y-8074560D03*
X23621040Y-8574560D03*
X23621040Y-9074560D03*
X23621040Y-9574560D03*
X23621040Y-10074560D03*
X23621040Y-10574560D03*
X23621040Y-11074560D03*
X23621040Y-11574560D03*
X23621040Y-12074560D03*
X23621040Y-12574560D03*
D23*
X20371040Y-14474560D03*
X20371040Y8825440D03*
G36*
G01*
X37077500Y-10885000D02*
X36022500Y-10885000D01*
G75*
G02*
X35780000Y-10642500I0J242500D01*
G01*
X35780000Y-10157500D01*
G75*
G02*
X36022500Y-9915000I242500J0D01*
G01*
X37077500Y-9915000D01*
G75*
G02*
X37320000Y-10157500I0J-242500D01*
G01*
X37320000Y-10642500D01*
G75*
G02*
X37077500Y-10885000I-242500J0D01*
G01*
G37*
G36*
G01*
X38977500Y-10885000D02*
X37922500Y-10885000D01*
G75*
G02*
X37680000Y-10642500I0J242500D01*
G01*
X37680000Y-10157500D01*
G75*
G02*
X37922500Y-9915000I242500J0D01*
G01*
X38977500Y-9915000D01*
G75*
G02*
X39220000Y-10157500I0J-242500D01*
G01*
X39220000Y-10642500D01*
G75*
G02*
X38977500Y-10885000I-242500J0D01*
G01*
G37*
G36*
G01*
X37077500Y-12085000D02*
X36022500Y-12085000D01*
G75*
G02*
X35780000Y-11842500I0J242500D01*
G01*
X35780000Y-11357500D01*
G75*
G02*
X36022500Y-11115000I242500J0D01*
G01*
X37077500Y-11115000D01*
G75*
G02*
X37320000Y-11357500I0J-242500D01*
G01*
X37320000Y-11842500D01*
G75*
G02*
X37077500Y-12085000I-242500J0D01*
G01*
G37*
G36*
G01*
X38977500Y-12085000D02*
X37922500Y-12085000D01*
G75*
G02*
X37680000Y-11842500I0J242500D01*
G01*
X37680000Y-11357500D01*
G75*
G02*
X37922500Y-11115000I242500J0D01*
G01*
X38977500Y-11115000D01*
G75*
G02*
X39220000Y-11357500I0J-242500D01*
G01*
X39220000Y-11842500D01*
G75*
G02*
X38977500Y-12085000I-242500J0D01*
G01*
G37*
G36*
G01*
X39555000Y-9500000D02*
X39255000Y-9500000D01*
G75*
G02*
X39105000Y-9350000I0J150000D01*
G01*
X39105000Y-7700000D01*
G75*
G02*
X39255000Y-7550000I150000J0D01*
G01*
X39555000Y-7550000D01*
G75*
G02*
X39705000Y-7700000I0J-150000D01*
G01*
X39705000Y-9350000D01*
G75*
G02*
X39555000Y-9500000I-150000J0D01*
G01*
G37*
G36*
G01*
X38285000Y-9500000D02*
X37985000Y-9500000D01*
G75*
G02*
X37835000Y-9350000I0J150000D01*
G01*
X37835000Y-7700000D01*
G75*
G02*
X37985000Y-7550000I150000J0D01*
G01*
X38285000Y-7550000D01*
G75*
G02*
X38435000Y-7700000I0J-150000D01*
G01*
X38435000Y-9350000D01*
G75*
G02*
X38285000Y-9500000I-150000J0D01*
G01*
G37*
G36*
G01*
X37015000Y-9500000D02*
X36715000Y-9500000D01*
G75*
G02*
X36565000Y-9350000I0J150000D01*
G01*
X36565000Y-7700000D01*
G75*
G02*
X36715000Y-7550000I150000J0D01*
G01*
X37015000Y-7550000D01*
G75*
G02*
X37165000Y-7700000I0J-150000D01*
G01*
X37165000Y-9350000D01*
G75*
G02*
X37015000Y-9500000I-150000J0D01*
G01*
G37*
G36*
G01*
X35745000Y-9500000D02*
X35445000Y-9500000D01*
G75*
G02*
X35295000Y-9350000I0J150000D01*
G01*
X35295000Y-7700000D01*
G75*
G02*
X35445000Y-7550000I150000J0D01*
G01*
X35745000Y-7550000D01*
G75*
G02*
X35895000Y-7700000I0J-150000D01*
G01*
X35895000Y-9350000D01*
G75*
G02*
X35745000Y-9500000I-150000J0D01*
G01*
G37*
G36*
G01*
X35745000Y-14450000D02*
X35445000Y-14450000D01*
G75*
G02*
X35295000Y-14300000I0J150000D01*
G01*
X35295000Y-12650000D01*
G75*
G02*
X35445000Y-12500000I150000J0D01*
G01*
X35745000Y-12500000D01*
G75*
G02*
X35895000Y-12650000I0J-150000D01*
G01*
X35895000Y-14300000D01*
G75*
G02*
X35745000Y-14450000I-150000J0D01*
G01*
G37*
G36*
G01*
X37015000Y-14450000D02*
X36715000Y-14450000D01*
G75*
G02*
X36565000Y-14300000I0J150000D01*
G01*
X36565000Y-12650000D01*
G75*
G02*
X36715000Y-12500000I150000J0D01*
G01*
X37015000Y-12500000D01*
G75*
G02*
X37165000Y-12650000I0J-150000D01*
G01*
X37165000Y-14300000D01*
G75*
G02*
X37015000Y-14450000I-150000J0D01*
G01*
G37*
G36*
G01*
X38285000Y-14450000D02*
X37985000Y-14450000D01*
G75*
G02*
X37835000Y-14300000I0J150000D01*
G01*
X37835000Y-12650000D01*
G75*
G02*
X37985000Y-12500000I150000J0D01*
G01*
X38285000Y-12500000D01*
G75*
G02*
X38435000Y-12650000I0J-150000D01*
G01*
X38435000Y-14300000D01*
G75*
G02*
X38285000Y-14450000I-150000J0D01*
G01*
G37*
G36*
G01*
X39555000Y-14450000D02*
X39255000Y-14450000D01*
G75*
G02*
X39105000Y-14300000I0J150000D01*
G01*
X39105000Y-12650000D01*
G75*
G02*
X39255000Y-12500000I150000J0D01*
G01*
X39555000Y-12500000D01*
G75*
G02*
X39705000Y-12650000I0J-150000D01*
G01*
X39705000Y-14300000D01*
G75*
G02*
X39555000Y-14450000I-150000J0D01*
G01*
G37*
D24*
X-3120000Y-9680000D03*
X-920000Y-9680000D03*
X-920000Y-7980000D03*
X-3120000Y-7980000D03*
D25*
X-46862360Y26513880D03*
X-46862360Y24613880D03*
X-44662360Y24613880D03*
X-44662360Y25563880D03*
X-44662360Y26513880D03*
D26*
X-914440Y-36349320D03*
X35560Y-36349320D03*
X985560Y-36349320D03*
X985560Y-34049320D03*
X35560Y-34049320D03*
X-914440Y-34049320D03*
G36*
G01*
X6262500Y21705000D02*
X6262500Y20755000D01*
G75*
G02*
X6012500Y20505000I-250000J0D01*
G01*
X5512500Y20505000D01*
G75*
G02*
X5262500Y20755000I0J250000D01*
G01*
X5262500Y21705000D01*
G75*
G02*
X5512500Y21955000I250000J0D01*
G01*
X6012500Y21955000D01*
G75*
G02*
X6262500Y21705000I0J-250000D01*
G01*
G37*
G36*
G01*
X8162500Y21705000D02*
X8162500Y20755000D01*
G75*
G02*
X7912500Y20505000I-250000J0D01*
G01*
X7412500Y20505000D01*
G75*
G02*
X7162500Y20755000I0J250000D01*
G01*
X7162500Y21705000D01*
G75*
G02*
X7412500Y21955000I250000J0D01*
G01*
X7912500Y21955000D01*
G75*
G02*
X8162500Y21705000I0J-250000D01*
G01*
G37*
D27*
X-16350000Y-43220000D03*
X-23650000Y-43220000D03*
X-23650000Y-45430000D03*
X-16350000Y-45430000D03*
D28*
X-22250000Y-42570000D03*
X-20750000Y-42570000D03*
X-17750000Y-42570000D03*
G36*
G01*
X32232200Y-15355360D02*
X33182200Y-15355360D01*
G75*
G02*
X33432200Y-15605360I0J-250000D01*
G01*
X33432200Y-16105360D01*
G75*
G02*
X33182200Y-16355360I-250000J0D01*
G01*
X32232200Y-16355360D01*
G75*
G02*
X31982200Y-16105360I0J250000D01*
G01*
X31982200Y-15605360D01*
G75*
G02*
X32232200Y-15355360I250000J0D01*
G01*
G37*
G36*
G01*
X32232200Y-13455360D02*
X33182200Y-13455360D01*
G75*
G02*
X33432200Y-13705360I0J-250000D01*
G01*
X33432200Y-14205360D01*
G75*
G02*
X33182200Y-14455360I-250000J0D01*
G01*
X32232200Y-14455360D01*
G75*
G02*
X31982200Y-14205360I0J250000D01*
G01*
X31982200Y-13705360D01*
G75*
G02*
X32232200Y-13455360I250000J0D01*
G01*
G37*
G36*
G01*
X33050000Y-18007500D02*
X32100000Y-18007500D01*
G75*
G02*
X31850000Y-17757500I0J250000D01*
G01*
X31850000Y-17257500D01*
G75*
G02*
X32100000Y-17007500I250000J0D01*
G01*
X33050000Y-17007500D01*
G75*
G02*
X33300000Y-17257500I0J-250000D01*
G01*
X33300000Y-17757500D01*
G75*
G02*
X33050000Y-18007500I-250000J0D01*
G01*
G37*
G36*
G01*
X33050000Y-19907500D02*
X32100000Y-19907500D01*
G75*
G02*
X31850000Y-19657500I0J250000D01*
G01*
X31850000Y-19157500D01*
G75*
G02*
X32100000Y-18907500I250000J0D01*
G01*
X33050000Y-18907500D01*
G75*
G02*
X33300000Y-19157500I0J-250000D01*
G01*
X33300000Y-19657500D01*
G75*
G02*
X33050000Y-19907500I-250000J0D01*
G01*
G37*
D20*
X-14540000Y-22440000D03*
D21*
X-13740000Y-22440000D03*
D20*
X-12140000Y-22440000D03*
D21*
X-12940000Y-22440000D03*
D20*
X-14540000Y-24240000D03*
D21*
X-12940000Y-24240000D03*
X-13740000Y-24240000D03*
D20*
X-12140000Y-24240000D03*
G36*
G01*
X3697980Y19115100D02*
X3697980Y20065100D01*
G75*
G02*
X3947980Y20315100I250000J0D01*
G01*
X4447980Y20315100D01*
G75*
G02*
X4697980Y20065100I0J-250000D01*
G01*
X4697980Y19115100D01*
G75*
G02*
X4447980Y18865100I-250000J0D01*
G01*
X3947980Y18865100D01*
G75*
G02*
X3697980Y19115100I0J250000D01*
G01*
G37*
G36*
G01*
X1797980Y19115100D02*
X1797980Y20065100D01*
G75*
G02*
X2047980Y20315100I250000J0D01*
G01*
X2547980Y20315100D01*
G75*
G02*
X2797980Y20065100I0J-250000D01*
G01*
X2797980Y19115100D01*
G75*
G02*
X2547980Y18865100I-250000J0D01*
G01*
X2047980Y18865100D01*
G75*
G02*
X1797980Y19115100I0J250000D01*
G01*
G37*
G36*
G01*
X27962500Y-14095000D02*
X29287500Y-14095000D01*
G75*
G02*
X29425000Y-14232500I0J-137500D01*
G01*
X29425000Y-14507500D01*
G75*
G02*
X29287500Y-14645000I-137500J0D01*
G01*
X27962500Y-14645000D01*
G75*
G02*
X27825000Y-14507500I0J137500D01*
G01*
X27825000Y-14232500D01*
G75*
G02*
X27962500Y-14095000I137500J0D01*
G01*
G37*
G36*
G01*
X27962500Y-12645000D02*
X29287500Y-12645000D01*
G75*
G02*
X29425000Y-12782500I0J-137500D01*
G01*
X29425000Y-13057500D01*
G75*
G02*
X29287500Y-13195000I-137500J0D01*
G01*
X27962500Y-13195000D01*
G75*
G02*
X27825000Y-13057500I0J137500D01*
G01*
X27825000Y-12782500D01*
G75*
G02*
X27962500Y-12645000I137500J0D01*
G01*
G37*
D29*
X26757200Y-18005360D03*
X28657200Y-18005360D03*
X28657200Y-15805360D03*
X27707200Y-15805360D03*
X26757200Y-15805360D03*
D25*
X-10950000Y-41370000D03*
X-10950000Y-39470000D03*
X-13150000Y-39470000D03*
X-13150000Y-40420000D03*
X-13150000Y-41370000D03*
G36*
G01*
X30232200Y-15355360D02*
X31182200Y-15355360D01*
G75*
G02*
X31432200Y-15605360I0J-250000D01*
G01*
X31432200Y-16105360D01*
G75*
G02*
X31182200Y-16355360I-250000J0D01*
G01*
X30232200Y-16355360D01*
G75*
G02*
X29982200Y-16105360I0J250000D01*
G01*
X29982200Y-15605360D01*
G75*
G02*
X30232200Y-15355360I250000J0D01*
G01*
G37*
G36*
G01*
X30232200Y-13455360D02*
X31182200Y-13455360D01*
G75*
G02*
X31432200Y-13705360I0J-250000D01*
G01*
X31432200Y-14205360D01*
G75*
G02*
X31182200Y-14455360I-250000J0D01*
G01*
X30232200Y-14455360D01*
G75*
G02*
X29982200Y-14205360I0J250000D01*
G01*
X29982200Y-13705360D01*
G75*
G02*
X30232200Y-13455360I250000J0D01*
G01*
G37*
G36*
G01*
X3697980Y21115100D02*
X3697980Y22065100D01*
G75*
G02*
X3947980Y22315100I250000J0D01*
G01*
X4447980Y22315100D01*
G75*
G02*
X4697980Y22065100I0J-250000D01*
G01*
X4697980Y21115100D01*
G75*
G02*
X4447980Y20865100I-250000J0D01*
G01*
X3947980Y20865100D01*
G75*
G02*
X3697980Y21115100I0J250000D01*
G01*
G37*
G36*
G01*
X1797980Y21115100D02*
X1797980Y22065100D01*
G75*
G02*
X2047980Y22315100I250000J0D01*
G01*
X2547980Y22315100D01*
G75*
G02*
X2797980Y22065100I0J-250000D01*
G01*
X2797980Y21115100D01*
G75*
G02*
X2547980Y20865100I-250000J0D01*
G01*
X2047980Y20865100D01*
G75*
G02*
X1797980Y21115100I0J250000D01*
G01*
G37*
D30*
X-2230000Y-3770000D03*
X270000Y-3770000D03*
D31*
X-6960000Y-9020000D03*
X-6960000Y-11520000D03*
G36*
G01*
X-10097500Y-37776250D02*
X-10097500Y-36863750D01*
G75*
G02*
X-9853750Y-36620000I243750J0D01*
G01*
X-9366250Y-36620000D01*
G75*
G02*
X-9122500Y-36863750I0J-243750D01*
G01*
X-9122500Y-37776250D01*
G75*
G02*
X-9366250Y-38020000I-243750J0D01*
G01*
X-9853750Y-38020000D01*
G75*
G02*
X-10097500Y-37776250I0J243750D01*
G01*
G37*
G36*
G01*
X-11972500Y-37776250D02*
X-11972500Y-36863750D01*
G75*
G02*
X-11728750Y-36620000I243750J0D01*
G01*
X-11241250Y-36620000D01*
G75*
G02*
X-10997500Y-36863750I0J-243750D01*
G01*
X-10997500Y-37776250D01*
G75*
G02*
X-11241250Y-38020000I-243750J0D01*
G01*
X-11728750Y-38020000D01*
G75*
G02*
X-11972500Y-37776250I0J243750D01*
G01*
G37*
D32*
X-10460000Y-13560000D03*
X-12560000Y-13560000D03*
D29*
X-31896860Y15261800D03*
X-33796860Y15261800D03*
X-33796860Y13061800D03*
X-32846860Y13061800D03*
X-31896860Y13061800D03*
G36*
G01*
X17630000Y-25090000D02*
X17630000Y-24750000D01*
G75*
G02*
X17770000Y-24610000I140000J0D01*
G01*
X18050000Y-24610000D01*
G75*
G02*
X18190000Y-24750000I0J-140000D01*
G01*
X18190000Y-25090000D01*
G75*
G02*
X18050000Y-25230000I-140000J0D01*
G01*
X17770000Y-25230000D01*
G75*
G02*
X17630000Y-25090000I0J140000D01*
G01*
G37*
G36*
G01*
X16670000Y-25090000D02*
X16670000Y-24750000D01*
G75*
G02*
X16810000Y-24610000I140000J0D01*
G01*
X17090000Y-24610000D01*
G75*
G02*
X17230000Y-24750000I0J-140000D01*
G01*
X17230000Y-25090000D01*
G75*
G02*
X17090000Y-25230000I-140000J0D01*
G01*
X16810000Y-25230000D01*
G75*
G02*
X16670000Y-25090000I0J140000D01*
G01*
G37*
G36*
G01*
X15465000Y-16900000D02*
X15465000Y-16560000D01*
G75*
G02*
X15605000Y-16420000I140000J0D01*
G01*
X15885000Y-16420000D01*
G75*
G02*
X16025000Y-16560000I0J-140000D01*
G01*
X16025000Y-16900000D01*
G75*
G02*
X15885000Y-17040000I-140000J0D01*
G01*
X15605000Y-17040000D01*
G75*
G02*
X15465000Y-16900000I0J140000D01*
G01*
G37*
G36*
G01*
X14505000Y-16900000D02*
X14505000Y-16560000D01*
G75*
G02*
X14645000Y-16420000I140000J0D01*
G01*
X14925000Y-16420000D01*
G75*
G02*
X15065000Y-16560000I0J-140000D01*
G01*
X15065000Y-16900000D01*
G75*
G02*
X14925000Y-17040000I-140000J0D01*
G01*
X14645000Y-17040000D01*
G75*
G02*
X14505000Y-16900000I0J140000D01*
G01*
G37*
G36*
G01*
X15485000Y-18020000D02*
X15485000Y-17680000D01*
G75*
G02*
X15625000Y-17540000I140000J0D01*
G01*
X15905000Y-17540000D01*
G75*
G02*
X16045000Y-17680000I0J-140000D01*
G01*
X16045000Y-18020000D01*
G75*
G02*
X15905000Y-18160000I-140000J0D01*
G01*
X15625000Y-18160000D01*
G75*
G02*
X15485000Y-18020000I0J140000D01*
G01*
G37*
G36*
G01*
X14525000Y-18020000D02*
X14525000Y-17680000D01*
G75*
G02*
X14665000Y-17540000I140000J0D01*
G01*
X14945000Y-17540000D01*
G75*
G02*
X15085000Y-17680000I0J-140000D01*
G01*
X15085000Y-18020000D01*
G75*
G02*
X14945000Y-18160000I-140000J0D01*
G01*
X14665000Y-18160000D01*
G75*
G02*
X14525000Y-18020000I0J140000D01*
G01*
G37*
D33*
X51398660Y4390680D03*
D34*
X51398660Y5190680D03*
D33*
X51398660Y6790680D03*
D34*
X51398660Y5990680D03*
D33*
X53198660Y4390680D03*
D34*
X53198660Y5990680D03*
X53198660Y5190680D03*
D33*
X53198660Y6790680D03*
G36*
G01*
X-54343320Y13062800D02*
X-53393320Y13062800D01*
G75*
G02*
X-53143320Y12812800I0J-250000D01*
G01*
X-53143320Y12312800D01*
G75*
G02*
X-53393320Y12062800I-250000J0D01*
G01*
X-54343320Y12062800D01*
G75*
G02*
X-54593320Y12312800I0J250000D01*
G01*
X-54593320Y12812800D01*
G75*
G02*
X-54343320Y13062800I250000J0D01*
G01*
G37*
G36*
G01*
X-54343320Y14962800D02*
X-53393320Y14962800D01*
G75*
G02*
X-53143320Y14712800I0J-250000D01*
G01*
X-53143320Y14212800D01*
G75*
G02*
X-53393320Y13962800I-250000J0D01*
G01*
X-54343320Y13962800D01*
G75*
G02*
X-54593320Y14212800I0J250000D01*
G01*
X-54593320Y14712800D01*
G75*
G02*
X-54343320Y14962800I250000J0D01*
G01*
G37*
G36*
G01*
X2450000Y16792500D02*
X2450000Y18117500D01*
G75*
G02*
X2587500Y18255000I137500J0D01*
G01*
X2862500Y18255000D01*
G75*
G02*
X3000000Y18117500I0J-137500D01*
G01*
X3000000Y16792500D01*
G75*
G02*
X2862500Y16655000I-137500J0D01*
G01*
X2587500Y16655000D01*
G75*
G02*
X2450000Y16792500I0J137500D01*
G01*
G37*
G36*
G01*
X1000000Y16792500D02*
X1000000Y18117500D01*
G75*
G02*
X1137500Y18255000I137500J0D01*
G01*
X1412500Y18255000D01*
G75*
G02*
X1550000Y18117500I0J-137500D01*
G01*
X1550000Y16792500D01*
G75*
G02*
X1412500Y16655000I-137500J0D01*
G01*
X1137500Y16655000D01*
G75*
G02*
X1000000Y16792500I0J137500D01*
G01*
G37*
D35*
X3710000Y-32240000D03*
X2760000Y-34240000D03*
X4660000Y-34240000D03*
G36*
G01*
X12880000Y-28510000D02*
X13220000Y-28510000D01*
G75*
G02*
X13360000Y-28650000I0J-140000D01*
G01*
X13360000Y-28930000D01*
G75*
G02*
X13220000Y-29070000I-140000J0D01*
G01*
X12880000Y-29070000D01*
G75*
G02*
X12740000Y-28930000I0J140000D01*
G01*
X12740000Y-28650000D01*
G75*
G02*
X12880000Y-28510000I140000J0D01*
G01*
G37*
G36*
G01*
X12880000Y-27550000D02*
X13220000Y-27550000D01*
G75*
G02*
X13360000Y-27690000I0J-140000D01*
G01*
X13360000Y-27970000D01*
G75*
G02*
X13220000Y-28110000I-140000J0D01*
G01*
X12880000Y-28110000D01*
G75*
G02*
X12740000Y-27970000I0J140000D01*
G01*
X12740000Y-27690000D01*
G75*
G02*
X12880000Y-27550000I140000J0D01*
G01*
G37*
D36*
X2262500Y750000D03*
X2262500Y250000D03*
X2262500Y-250000D03*
X2262500Y-750000D03*
X-2262500Y750000D03*
X-2262500Y250000D03*
X-2262500Y-250000D03*
X-2262500Y-750000D03*
D37*
X2250000Y1562500D03*
X1750000Y1562500D03*
X1250000Y1562500D03*
X750000Y1562500D03*
X250000Y1562500D03*
X-250000Y1562500D03*
X-750000Y1562500D03*
X-1250000Y1562500D03*
X-1750000Y1562500D03*
X-2250000Y1562500D03*
X2250000Y-1562500D03*
X1750000Y-1562500D03*
X1250000Y-1562500D03*
X750000Y-1562500D03*
X250000Y-1562500D03*
X-250000Y-1562500D03*
X-750000Y-1562500D03*
X-1250000Y-1562500D03*
X-1750000Y-1562500D03*
X-2250000Y-1562500D03*
D38*
X-18691340Y-35522240D03*
X-18691340Y-32222240D03*
D29*
X-15590000Y-37410000D03*
X-13690000Y-37410000D03*
X-13690000Y-35210000D03*
X-14640000Y-35210000D03*
X-15590000Y-35210000D03*
G36*
G01*
X33706040Y-1631560D02*
X33706040Y-2261560D01*
G75*
G02*
X33456040Y-2511560I-250000J0D01*
G01*
X32826040Y-2511560D01*
G75*
G02*
X32576040Y-2261560I0J250000D01*
G01*
X32576040Y-1631560D01*
G75*
G02*
X32826040Y-1381560I250000J0D01*
G01*
X33456040Y-1381560D01*
G75*
G02*
X33706040Y-1631560I0J-250000D01*
G01*
G37*
G36*
G01*
X33706040Y-231560D02*
X33706040Y-861560D01*
G75*
G02*
X33456040Y-1111560I-250000J0D01*
G01*
X32826040Y-1111560D01*
G75*
G02*
X32576040Y-861560I0J250000D01*
G01*
X32576040Y-231560D01*
G75*
G02*
X32826040Y18440I250000J0D01*
G01*
X33456040Y18440D01*
G75*
G02*
X33706040Y-231560I0J-250000D01*
G01*
G37*
G36*
G01*
X33706040Y1168440D02*
X33706040Y538440D01*
G75*
G02*
X33456040Y288440I-250000J0D01*
G01*
X32826040Y288440D01*
G75*
G02*
X32576040Y538440I0J250000D01*
G01*
X32576040Y1168440D01*
G75*
G02*
X32826040Y1418440I250000J0D01*
G01*
X33456040Y1418440D01*
G75*
G02*
X33706040Y1168440I0J-250000D01*
G01*
G37*
G36*
G01*
X33706040Y2568440D02*
X33706040Y1938440D01*
G75*
G02*
X33456040Y1688440I-250000J0D01*
G01*
X32826040Y1688440D01*
G75*
G02*
X32576040Y1938440I0J250000D01*
G01*
X32576040Y2568440D01*
G75*
G02*
X32826040Y2818440I250000J0D01*
G01*
X33456040Y2818440D01*
G75*
G02*
X33706040Y2568440I0J-250000D01*
G01*
G37*
G36*
G01*
X35106040Y-1631560D02*
X35106040Y-2261560D01*
G75*
G02*
X34856040Y-2511560I-250000J0D01*
G01*
X34226040Y-2511560D01*
G75*
G02*
X33976040Y-2261560I0J250000D01*
G01*
X33976040Y-1631560D01*
G75*
G02*
X34226040Y-1381560I250000J0D01*
G01*
X34856040Y-1381560D01*
G75*
G02*
X35106040Y-1631560I0J-250000D01*
G01*
G37*
G36*
G01*
X35106040Y-231560D02*
X35106040Y-861560D01*
G75*
G02*
X34856040Y-1111560I-250000J0D01*
G01*
X34226040Y-1111560D01*
G75*
G02*
X33976040Y-861560I0J250000D01*
G01*
X33976040Y-231560D01*
G75*
G02*
X34226040Y18440I250000J0D01*
G01*
X34856040Y18440D01*
G75*
G02*
X35106040Y-231560I0J-250000D01*
G01*
G37*
G36*
G01*
X35106040Y1168440D02*
X35106040Y538440D01*
G75*
G02*
X34856040Y288440I-250000J0D01*
G01*
X34226040Y288440D01*
G75*
G02*
X33976040Y538440I0J250000D01*
G01*
X33976040Y1168440D01*
G75*
G02*
X34226040Y1418440I250000J0D01*
G01*
X34856040Y1418440D01*
G75*
G02*
X35106040Y1168440I0J-250000D01*
G01*
G37*
G36*
G01*
X35106040Y2568440D02*
X35106040Y1938440D01*
G75*
G02*
X34856040Y1688440I-250000J0D01*
G01*
X34226040Y1688440D01*
G75*
G02*
X33976040Y1938440I0J250000D01*
G01*
X33976040Y2568440D01*
G75*
G02*
X34226040Y2818440I250000J0D01*
G01*
X34856040Y2818440D01*
G75*
G02*
X35106040Y2568440I0J-250000D01*
G01*
G37*
G36*
G01*
X36506040Y-1631560D02*
X36506040Y-2261560D01*
G75*
G02*
X36256040Y-2511560I-250000J0D01*
G01*
X35626040Y-2511560D01*
G75*
G02*
X35376040Y-2261560I0J250000D01*
G01*
X35376040Y-1631560D01*
G75*
G02*
X35626040Y-1381560I250000J0D01*
G01*
X36256040Y-1381560D01*
G75*
G02*
X36506040Y-1631560I0J-250000D01*
G01*
G37*
G36*
G01*
X36506040Y-231560D02*
X36506040Y-861560D01*
G75*
G02*
X36256040Y-1111560I-250000J0D01*
G01*
X35626040Y-1111560D01*
G75*
G02*
X35376040Y-861560I0J250000D01*
G01*
X35376040Y-231560D01*
G75*
G02*
X35626040Y18440I250000J0D01*
G01*
X36256040Y18440D01*
G75*
G02*
X36506040Y-231560I0J-250000D01*
G01*
G37*
G36*
G01*
X36506040Y1168440D02*
X36506040Y538440D01*
G75*
G02*
X36256040Y288440I-250000J0D01*
G01*
X35626040Y288440D01*
G75*
G02*
X35376040Y538440I0J250000D01*
G01*
X35376040Y1168440D01*
G75*
G02*
X35626040Y1418440I250000J0D01*
G01*
X36256040Y1418440D01*
G75*
G02*
X36506040Y1168440I0J-250000D01*
G01*
G37*
G36*
G01*
X36506040Y2568440D02*
X36506040Y1938440D01*
G75*
G02*
X36256040Y1688440I-250000J0D01*
G01*
X35626040Y1688440D01*
G75*
G02*
X35376040Y1938440I0J250000D01*
G01*
X35376040Y2568440D01*
G75*
G02*
X35626040Y2818440I250000J0D01*
G01*
X36256040Y2818440D01*
G75*
G02*
X36506040Y2568440I0J-250000D01*
G01*
G37*
G36*
G01*
X37906040Y-1631560D02*
X37906040Y-2261560D01*
G75*
G02*
X37656040Y-2511560I-250000J0D01*
G01*
X37026040Y-2511560D01*
G75*
G02*
X36776040Y-2261560I0J250000D01*
G01*
X36776040Y-1631560D01*
G75*
G02*
X37026040Y-1381560I250000J0D01*
G01*
X37656040Y-1381560D01*
G75*
G02*
X37906040Y-1631560I0J-250000D01*
G01*
G37*
G36*
G01*
X37906040Y-231560D02*
X37906040Y-861560D01*
G75*
G02*
X37656040Y-1111560I-250000J0D01*
G01*
X37026040Y-1111560D01*
G75*
G02*
X36776040Y-861560I0J250000D01*
G01*
X36776040Y-231560D01*
G75*
G02*
X37026040Y18440I250000J0D01*
G01*
X37656040Y18440D01*
G75*
G02*
X37906040Y-231560I0J-250000D01*
G01*
G37*
G36*
G01*
X37906040Y1168440D02*
X37906040Y538440D01*
G75*
G02*
X37656040Y288440I-250000J0D01*
G01*
X37026040Y288440D01*
G75*
G02*
X36776040Y538440I0J250000D01*
G01*
X36776040Y1168440D01*
G75*
G02*
X37026040Y1418440I250000J0D01*
G01*
X37656040Y1418440D01*
G75*
G02*
X37906040Y1168440I0J-250000D01*
G01*
G37*
G36*
G01*
X37906040Y2568440D02*
X37906040Y1938440D01*
G75*
G02*
X37656040Y1688440I-250000J0D01*
G01*
X37026040Y1688440D01*
G75*
G02*
X36776040Y1938440I0J250000D01*
G01*
X36776040Y2568440D01*
G75*
G02*
X37026040Y2818440I250000J0D01*
G01*
X37656040Y2818440D01*
G75*
G02*
X37906040Y2568440I0J-250000D01*
G01*
G37*
G36*
G01*
X38116040Y3965940D02*
X38116040Y3215940D01*
G75*
G02*
X38053540Y3153440I-62500J0D01*
G01*
X37928540Y3153440D01*
G75*
G02*
X37866040Y3215940I0J62500D01*
G01*
X37866040Y3965940D01*
G75*
G02*
X37928540Y4028440I62500J0D01*
G01*
X38053540Y4028440D01*
G75*
G02*
X38116040Y3965940I0J-62500D01*
G01*
G37*
G36*
G01*
X37616040Y3965940D02*
X37616040Y3215940D01*
G75*
G02*
X37553540Y3153440I-62500J0D01*
G01*
X37428540Y3153440D01*
G75*
G02*
X37366040Y3215940I0J62500D01*
G01*
X37366040Y3965940D01*
G75*
G02*
X37428540Y4028440I62500J0D01*
G01*
X37553540Y4028440D01*
G75*
G02*
X37616040Y3965940I0J-62500D01*
G01*
G37*
G36*
G01*
X37116040Y3965940D02*
X37116040Y3215940D01*
G75*
G02*
X37053540Y3153440I-62500J0D01*
G01*
X36928540Y3153440D01*
G75*
G02*
X36866040Y3215940I0J62500D01*
G01*
X36866040Y3965940D01*
G75*
G02*
X36928540Y4028440I62500J0D01*
G01*
X37053540Y4028440D01*
G75*
G02*
X37116040Y3965940I0J-62500D01*
G01*
G37*
G36*
G01*
X36616040Y3965940D02*
X36616040Y3215940D01*
G75*
G02*
X36553540Y3153440I-62500J0D01*
G01*
X36428540Y3153440D01*
G75*
G02*
X36366040Y3215940I0J62500D01*
G01*
X36366040Y3965940D01*
G75*
G02*
X36428540Y4028440I62500J0D01*
G01*
X36553540Y4028440D01*
G75*
G02*
X36616040Y3965940I0J-62500D01*
G01*
G37*
G36*
G01*
X36116040Y3965940D02*
X36116040Y3215940D01*
G75*
G02*
X36053540Y3153440I-62500J0D01*
G01*
X35928540Y3153440D01*
G75*
G02*
X35866040Y3215940I0J62500D01*
G01*
X35866040Y3965940D01*
G75*
G02*
X35928540Y4028440I62500J0D01*
G01*
X36053540Y4028440D01*
G75*
G02*
X36116040Y3965940I0J-62500D01*
G01*
G37*
G36*
G01*
X35616040Y3965940D02*
X35616040Y3215940D01*
G75*
G02*
X35553540Y3153440I-62500J0D01*
G01*
X35428540Y3153440D01*
G75*
G02*
X35366040Y3215940I0J62500D01*
G01*
X35366040Y3965940D01*
G75*
G02*
X35428540Y4028440I62500J0D01*
G01*
X35553540Y4028440D01*
G75*
G02*
X35616040Y3965940I0J-62500D01*
G01*
G37*
G36*
G01*
X35116040Y3965940D02*
X35116040Y3215940D01*
G75*
G02*
X35053540Y3153440I-62500J0D01*
G01*
X34928540Y3153440D01*
G75*
G02*
X34866040Y3215940I0J62500D01*
G01*
X34866040Y3965940D01*
G75*
G02*
X34928540Y4028440I62500J0D01*
G01*
X35053540Y4028440D01*
G75*
G02*
X35116040Y3965940I0J-62500D01*
G01*
G37*
G36*
G01*
X34616040Y3965940D02*
X34616040Y3215940D01*
G75*
G02*
X34553540Y3153440I-62500J0D01*
G01*
X34428540Y3153440D01*
G75*
G02*
X34366040Y3215940I0J62500D01*
G01*
X34366040Y3965940D01*
G75*
G02*
X34428540Y4028440I62500J0D01*
G01*
X34553540Y4028440D01*
G75*
G02*
X34616040Y3965940I0J-62500D01*
G01*
G37*
G36*
G01*
X34116040Y3965940D02*
X34116040Y3215940D01*
G75*
G02*
X34053540Y3153440I-62500J0D01*
G01*
X33928540Y3153440D01*
G75*
G02*
X33866040Y3215940I0J62500D01*
G01*
X33866040Y3965940D01*
G75*
G02*
X33928540Y4028440I62500J0D01*
G01*
X34053540Y4028440D01*
G75*
G02*
X34116040Y3965940I0J-62500D01*
G01*
G37*
G36*
G01*
X33616040Y3965940D02*
X33616040Y3215940D01*
G75*
G02*
X33553540Y3153440I-62500J0D01*
G01*
X33428540Y3153440D01*
G75*
G02*
X33366040Y3215940I0J62500D01*
G01*
X33366040Y3965940D01*
G75*
G02*
X33428540Y4028440I62500J0D01*
G01*
X33553540Y4028440D01*
G75*
G02*
X33616040Y3965940I0J-62500D01*
G01*
G37*
G36*
G01*
X33116040Y3965940D02*
X33116040Y3215940D01*
G75*
G02*
X33053540Y3153440I-62500J0D01*
G01*
X32928540Y3153440D01*
G75*
G02*
X32866040Y3215940I0J62500D01*
G01*
X32866040Y3965940D01*
G75*
G02*
X32928540Y4028440I62500J0D01*
G01*
X33053540Y4028440D01*
G75*
G02*
X33116040Y3965940I0J-62500D01*
G01*
G37*
G36*
G01*
X32616040Y3965940D02*
X32616040Y3215940D01*
G75*
G02*
X32553540Y3153440I-62500J0D01*
G01*
X32428540Y3153440D01*
G75*
G02*
X32366040Y3215940I0J62500D01*
G01*
X32366040Y3965940D01*
G75*
G02*
X32428540Y4028440I62500J0D01*
G01*
X32553540Y4028440D01*
G75*
G02*
X32616040Y3965940I0J-62500D01*
G01*
G37*
G36*
G01*
X32241040Y2965940D02*
X32241040Y2840940D01*
G75*
G02*
X32178540Y2778440I-62500J0D01*
G01*
X31428540Y2778440D01*
G75*
G02*
X31366040Y2840940I0J62500D01*
G01*
X31366040Y2965940D01*
G75*
G02*
X31428540Y3028440I62500J0D01*
G01*
X32178540Y3028440D01*
G75*
G02*
X32241040Y2965940I0J-62500D01*
G01*
G37*
G36*
G01*
X32241040Y2465940D02*
X32241040Y2340940D01*
G75*
G02*
X32178540Y2278440I-62500J0D01*
G01*
X31428540Y2278440D01*
G75*
G02*
X31366040Y2340940I0J62500D01*
G01*
X31366040Y2465940D01*
G75*
G02*
X31428540Y2528440I62500J0D01*
G01*
X32178540Y2528440D01*
G75*
G02*
X32241040Y2465940I0J-62500D01*
G01*
G37*
G36*
G01*
X32241040Y1965940D02*
X32241040Y1840940D01*
G75*
G02*
X32178540Y1778440I-62500J0D01*
G01*
X31428540Y1778440D01*
G75*
G02*
X31366040Y1840940I0J62500D01*
G01*
X31366040Y1965940D01*
G75*
G02*
X31428540Y2028440I62500J0D01*
G01*
X32178540Y2028440D01*
G75*
G02*
X32241040Y1965940I0J-62500D01*
G01*
G37*
G36*
G01*
X32241040Y1465940D02*
X32241040Y1340940D01*
G75*
G02*
X32178540Y1278440I-62500J0D01*
G01*
X31428540Y1278440D01*
G75*
G02*
X31366040Y1340940I0J62500D01*
G01*
X31366040Y1465940D01*
G75*
G02*
X31428540Y1528440I62500J0D01*
G01*
X32178540Y1528440D01*
G75*
G02*
X32241040Y1465940I0J-62500D01*
G01*
G37*
G36*
G01*
X32241040Y965940D02*
X32241040Y840940D01*
G75*
G02*
X32178540Y778440I-62500J0D01*
G01*
X31428540Y778440D01*
G75*
G02*
X31366040Y840940I0J62500D01*
G01*
X31366040Y965940D01*
G75*
G02*
X31428540Y1028440I62500J0D01*
G01*
X32178540Y1028440D01*
G75*
G02*
X32241040Y965940I0J-62500D01*
G01*
G37*
G36*
G01*
X32241040Y465940D02*
X32241040Y340940D01*
G75*
G02*
X32178540Y278440I-62500J0D01*
G01*
X31428540Y278440D01*
G75*
G02*
X31366040Y340940I0J62500D01*
G01*
X31366040Y465940D01*
G75*
G02*
X31428540Y528440I62500J0D01*
G01*
X32178540Y528440D01*
G75*
G02*
X32241040Y465940I0J-62500D01*
G01*
G37*
G36*
G01*
X32241040Y-34060D02*
X32241040Y-159060D01*
G75*
G02*
X32178540Y-221560I-62500J0D01*
G01*
X31428540Y-221560D01*
G75*
G02*
X31366040Y-159060I0J62500D01*
G01*
X31366040Y-34060D01*
G75*
G02*
X31428540Y28440I62500J0D01*
G01*
X32178540Y28440D01*
G75*
G02*
X32241040Y-34060I0J-62500D01*
G01*
G37*
G36*
G01*
X32241040Y-534060D02*
X32241040Y-659060D01*
G75*
G02*
X32178540Y-721560I-62500J0D01*
G01*
X31428540Y-721560D01*
G75*
G02*
X31366040Y-659060I0J62500D01*
G01*
X31366040Y-534060D01*
G75*
G02*
X31428540Y-471560I62500J0D01*
G01*
X32178540Y-471560D01*
G75*
G02*
X32241040Y-534060I0J-62500D01*
G01*
G37*
G36*
G01*
X32241040Y-1034060D02*
X32241040Y-1159060D01*
G75*
G02*
X32178540Y-1221560I-62500J0D01*
G01*
X31428540Y-1221560D01*
G75*
G02*
X31366040Y-1159060I0J62500D01*
G01*
X31366040Y-1034060D01*
G75*
G02*
X31428540Y-971560I62500J0D01*
G01*
X32178540Y-971560D01*
G75*
G02*
X32241040Y-1034060I0J-62500D01*
G01*
G37*
G36*
G01*
X32241040Y-1534060D02*
X32241040Y-1659060D01*
G75*
G02*
X32178540Y-1721560I-62500J0D01*
G01*
X31428540Y-1721560D01*
G75*
G02*
X31366040Y-1659060I0J62500D01*
G01*
X31366040Y-1534060D01*
G75*
G02*
X31428540Y-1471560I62500J0D01*
G01*
X32178540Y-1471560D01*
G75*
G02*
X32241040Y-1534060I0J-62500D01*
G01*
G37*
G36*
G01*
X32241040Y-2034060D02*
X32241040Y-2159060D01*
G75*
G02*
X32178540Y-2221560I-62500J0D01*
G01*
X31428540Y-2221560D01*
G75*
G02*
X31366040Y-2159060I0J62500D01*
G01*
X31366040Y-2034060D01*
G75*
G02*
X31428540Y-1971560I62500J0D01*
G01*
X32178540Y-1971560D01*
G75*
G02*
X32241040Y-2034060I0J-62500D01*
G01*
G37*
G36*
G01*
X32241040Y-2534060D02*
X32241040Y-2659060D01*
G75*
G02*
X32178540Y-2721560I-62500J0D01*
G01*
X31428540Y-2721560D01*
G75*
G02*
X31366040Y-2659060I0J62500D01*
G01*
X31366040Y-2534060D01*
G75*
G02*
X31428540Y-2471560I62500J0D01*
G01*
X32178540Y-2471560D01*
G75*
G02*
X32241040Y-2534060I0J-62500D01*
G01*
G37*
G36*
G01*
X32616040Y-2909060D02*
X32616040Y-3659060D01*
G75*
G02*
X32553540Y-3721560I-62500J0D01*
G01*
X32428540Y-3721560D01*
G75*
G02*
X32366040Y-3659060I0J62500D01*
G01*
X32366040Y-2909060D01*
G75*
G02*
X32428540Y-2846560I62500J0D01*
G01*
X32553540Y-2846560D01*
G75*
G02*
X32616040Y-2909060I0J-62500D01*
G01*
G37*
G36*
G01*
X33116040Y-2909060D02*
X33116040Y-3659060D01*
G75*
G02*
X33053540Y-3721560I-62500J0D01*
G01*
X32928540Y-3721560D01*
G75*
G02*
X32866040Y-3659060I0J62500D01*
G01*
X32866040Y-2909060D01*
G75*
G02*
X32928540Y-2846560I62500J0D01*
G01*
X33053540Y-2846560D01*
G75*
G02*
X33116040Y-2909060I0J-62500D01*
G01*
G37*
G36*
G01*
X33616040Y-2909060D02*
X33616040Y-3659060D01*
G75*
G02*
X33553540Y-3721560I-62500J0D01*
G01*
X33428540Y-3721560D01*
G75*
G02*
X33366040Y-3659060I0J62500D01*
G01*
X33366040Y-2909060D01*
G75*
G02*
X33428540Y-2846560I62500J0D01*
G01*
X33553540Y-2846560D01*
G75*
G02*
X33616040Y-2909060I0J-62500D01*
G01*
G37*
G36*
G01*
X34116040Y-2909060D02*
X34116040Y-3659060D01*
G75*
G02*
X34053540Y-3721560I-62500J0D01*
G01*
X33928540Y-3721560D01*
G75*
G02*
X33866040Y-3659060I0J62500D01*
G01*
X33866040Y-2909060D01*
G75*
G02*
X33928540Y-2846560I62500J0D01*
G01*
X34053540Y-2846560D01*
G75*
G02*
X34116040Y-2909060I0J-62500D01*
G01*
G37*
G36*
G01*
X34616040Y-2909060D02*
X34616040Y-3659060D01*
G75*
G02*
X34553540Y-3721560I-62500J0D01*
G01*
X34428540Y-3721560D01*
G75*
G02*
X34366040Y-3659060I0J62500D01*
G01*
X34366040Y-2909060D01*
G75*
G02*
X34428540Y-2846560I62500J0D01*
G01*
X34553540Y-2846560D01*
G75*
G02*
X34616040Y-2909060I0J-62500D01*
G01*
G37*
G36*
G01*
X35116040Y-2909060D02*
X35116040Y-3659060D01*
G75*
G02*
X35053540Y-3721560I-62500J0D01*
G01*
X34928540Y-3721560D01*
G75*
G02*
X34866040Y-3659060I0J62500D01*
G01*
X34866040Y-2909060D01*
G75*
G02*
X34928540Y-2846560I62500J0D01*
G01*
X35053540Y-2846560D01*
G75*
G02*
X35116040Y-2909060I0J-62500D01*
G01*
G37*
G36*
G01*
X35616040Y-2909060D02*
X35616040Y-3659060D01*
G75*
G02*
X35553540Y-3721560I-62500J0D01*
G01*
X35428540Y-3721560D01*
G75*
G02*
X35366040Y-3659060I0J62500D01*
G01*
X35366040Y-2909060D01*
G75*
G02*
X35428540Y-2846560I62500J0D01*
G01*
X35553540Y-2846560D01*
G75*
G02*
X35616040Y-2909060I0J-62500D01*
G01*
G37*
G36*
G01*
X36116040Y-2909060D02*
X36116040Y-3659060D01*
G75*
G02*
X36053540Y-3721560I-62500J0D01*
G01*
X35928540Y-3721560D01*
G75*
G02*
X35866040Y-3659060I0J62500D01*
G01*
X35866040Y-2909060D01*
G75*
G02*
X35928540Y-2846560I62500J0D01*
G01*
X36053540Y-2846560D01*
G75*
G02*
X36116040Y-2909060I0J-62500D01*
G01*
G37*
G36*
G01*
X36616040Y-2909060D02*
X36616040Y-3659060D01*
G75*
G02*
X36553540Y-3721560I-62500J0D01*
G01*
X36428540Y-3721560D01*
G75*
G02*
X36366040Y-3659060I0J62500D01*
G01*
X36366040Y-2909060D01*
G75*
G02*
X36428540Y-2846560I62500J0D01*
G01*
X36553540Y-2846560D01*
G75*
G02*
X36616040Y-2909060I0J-62500D01*
G01*
G37*
G36*
G01*
X37116040Y-2909060D02*
X37116040Y-3659060D01*
G75*
G02*
X37053540Y-3721560I-62500J0D01*
G01*
X36928540Y-3721560D01*
G75*
G02*
X36866040Y-3659060I0J62500D01*
G01*
X36866040Y-2909060D01*
G75*
G02*
X36928540Y-2846560I62500J0D01*
G01*
X37053540Y-2846560D01*
G75*
G02*
X37116040Y-2909060I0J-62500D01*
G01*
G37*
G36*
G01*
X37616040Y-2909060D02*
X37616040Y-3659060D01*
G75*
G02*
X37553540Y-3721560I-62500J0D01*
G01*
X37428540Y-3721560D01*
G75*
G02*
X37366040Y-3659060I0J62500D01*
G01*
X37366040Y-2909060D01*
G75*
G02*
X37428540Y-2846560I62500J0D01*
G01*
X37553540Y-2846560D01*
G75*
G02*
X37616040Y-2909060I0J-62500D01*
G01*
G37*
G36*
G01*
X38116040Y-2909060D02*
X38116040Y-3659060D01*
G75*
G02*
X38053540Y-3721560I-62500J0D01*
G01*
X37928540Y-3721560D01*
G75*
G02*
X37866040Y-3659060I0J62500D01*
G01*
X37866040Y-2909060D01*
G75*
G02*
X37928540Y-2846560I62500J0D01*
G01*
X38053540Y-2846560D01*
G75*
G02*
X38116040Y-2909060I0J-62500D01*
G01*
G37*
G36*
G01*
X39116040Y-2534060D02*
X39116040Y-2659060D01*
G75*
G02*
X39053540Y-2721560I-62500J0D01*
G01*
X38303540Y-2721560D01*
G75*
G02*
X38241040Y-2659060I0J62500D01*
G01*
X38241040Y-2534060D01*
G75*
G02*
X38303540Y-2471560I62500J0D01*
G01*
X39053540Y-2471560D01*
G75*
G02*
X39116040Y-2534060I0J-62500D01*
G01*
G37*
G36*
G01*
X39116040Y-2034060D02*
X39116040Y-2159060D01*
G75*
G02*
X39053540Y-2221560I-62500J0D01*
G01*
X38303540Y-2221560D01*
G75*
G02*
X38241040Y-2159060I0J62500D01*
G01*
X38241040Y-2034060D01*
G75*
G02*
X38303540Y-1971560I62500J0D01*
G01*
X39053540Y-1971560D01*
G75*
G02*
X39116040Y-2034060I0J-62500D01*
G01*
G37*
G36*
G01*
X39116040Y-1534060D02*
X39116040Y-1659060D01*
G75*
G02*
X39053540Y-1721560I-62500J0D01*
G01*
X38303540Y-1721560D01*
G75*
G02*
X38241040Y-1659060I0J62500D01*
G01*
X38241040Y-1534060D01*
G75*
G02*
X38303540Y-1471560I62500J0D01*
G01*
X39053540Y-1471560D01*
G75*
G02*
X39116040Y-1534060I0J-62500D01*
G01*
G37*
G36*
G01*
X39116040Y-1034060D02*
X39116040Y-1159060D01*
G75*
G02*
X39053540Y-1221560I-62500J0D01*
G01*
X38303540Y-1221560D01*
G75*
G02*
X38241040Y-1159060I0J62500D01*
G01*
X38241040Y-1034060D01*
G75*
G02*
X38303540Y-971560I62500J0D01*
G01*
X39053540Y-971560D01*
G75*
G02*
X39116040Y-1034060I0J-62500D01*
G01*
G37*
G36*
G01*
X39116040Y-534060D02*
X39116040Y-659060D01*
G75*
G02*
X39053540Y-721560I-62500J0D01*
G01*
X38303540Y-721560D01*
G75*
G02*
X38241040Y-659060I0J62500D01*
G01*
X38241040Y-534060D01*
G75*
G02*
X38303540Y-471560I62500J0D01*
G01*
X39053540Y-471560D01*
G75*
G02*
X39116040Y-534060I0J-62500D01*
G01*
G37*
G36*
G01*
X39116040Y-34060D02*
X39116040Y-159060D01*
G75*
G02*
X39053540Y-221560I-62500J0D01*
G01*
X38303540Y-221560D01*
G75*
G02*
X38241040Y-159060I0J62500D01*
G01*
X38241040Y-34060D01*
G75*
G02*
X38303540Y28440I62500J0D01*
G01*
X39053540Y28440D01*
G75*
G02*
X39116040Y-34060I0J-62500D01*
G01*
G37*
G36*
G01*
X39116040Y465940D02*
X39116040Y340940D01*
G75*
G02*
X39053540Y278440I-62500J0D01*
G01*
X38303540Y278440D01*
G75*
G02*
X38241040Y340940I0J62500D01*
G01*
X38241040Y465940D01*
G75*
G02*
X38303540Y528440I62500J0D01*
G01*
X39053540Y528440D01*
G75*
G02*
X39116040Y465940I0J-62500D01*
G01*
G37*
G36*
G01*
X39116040Y965940D02*
X39116040Y840940D01*
G75*
G02*
X39053540Y778440I-62500J0D01*
G01*
X38303540Y778440D01*
G75*
G02*
X38241040Y840940I0J62500D01*
G01*
X38241040Y965940D01*
G75*
G02*
X38303540Y1028440I62500J0D01*
G01*
X39053540Y1028440D01*
G75*
G02*
X39116040Y965940I0J-62500D01*
G01*
G37*
G36*
G01*
X39116040Y1465940D02*
X39116040Y1340940D01*
G75*
G02*
X39053540Y1278440I-62500J0D01*
G01*
X38303540Y1278440D01*
G75*
G02*
X38241040Y1340940I0J62500D01*
G01*
X38241040Y1465940D01*
G75*
G02*
X38303540Y1528440I62500J0D01*
G01*
X39053540Y1528440D01*
G75*
G02*
X39116040Y1465940I0J-62500D01*
G01*
G37*
G36*
G01*
X39116040Y1965940D02*
X39116040Y1840940D01*
G75*
G02*
X39053540Y1778440I-62500J0D01*
G01*
X38303540Y1778440D01*
G75*
G02*
X38241040Y1840940I0J62500D01*
G01*
X38241040Y1965940D01*
G75*
G02*
X38303540Y2028440I62500J0D01*
G01*
X39053540Y2028440D01*
G75*
G02*
X39116040Y1965940I0J-62500D01*
G01*
G37*
G36*
G01*
X39116040Y2465940D02*
X39116040Y2340940D01*
G75*
G02*
X39053540Y2278440I-62500J0D01*
G01*
X38303540Y2278440D01*
G75*
G02*
X38241040Y2340940I0J62500D01*
G01*
X38241040Y2465940D01*
G75*
G02*
X38303540Y2528440I62500J0D01*
G01*
X39053540Y2528440D01*
G75*
G02*
X39116040Y2465940I0J-62500D01*
G01*
G37*
G36*
G01*
X39116040Y2965940D02*
X39116040Y2840940D01*
G75*
G02*
X39053540Y2778440I-62500J0D01*
G01*
X38303540Y2778440D01*
G75*
G02*
X38241040Y2840940I0J62500D01*
G01*
X38241040Y2965940D01*
G75*
G02*
X38303540Y3028440I62500J0D01*
G01*
X39053540Y3028440D01*
G75*
G02*
X39116040Y2965940I0J-62500D01*
G01*
G37*
D33*
X13358700Y4377540D03*
D34*
X13358700Y3577540D03*
D33*
X13358700Y1977540D03*
D34*
X13358700Y2777540D03*
D33*
X11558700Y4377540D03*
D34*
X11558700Y2777540D03*
X11558700Y3577540D03*
D33*
X11558700Y1977540D03*
D35*
X29190900Y11849860D03*
X30140900Y13849860D03*
X28240900Y13849860D03*
G36*
G01*
X15630000Y-28510000D02*
X15970000Y-28510000D01*
G75*
G02*
X16110000Y-28650000I0J-140000D01*
G01*
X16110000Y-28930000D01*
G75*
G02*
X15970000Y-29070000I-140000J0D01*
G01*
X15630000Y-29070000D01*
G75*
G02*
X15490000Y-28930000I0J140000D01*
G01*
X15490000Y-28650000D01*
G75*
G02*
X15630000Y-28510000I140000J0D01*
G01*
G37*
G36*
G01*
X15630000Y-27550000D02*
X15970000Y-27550000D01*
G75*
G02*
X16110000Y-27690000I0J-140000D01*
G01*
X16110000Y-27970000D01*
G75*
G02*
X15970000Y-28110000I-140000J0D01*
G01*
X15630000Y-28110000D01*
G75*
G02*
X15490000Y-27970000I0J140000D01*
G01*
X15490000Y-27690000D01*
G75*
G02*
X15630000Y-27550000I140000J0D01*
G01*
G37*
D17*
X27135800Y-8239720D03*
X25835800Y-8239720D03*
X26485800Y-10139720D03*
X25835800Y-10139720D03*
X27135800Y-10139720D03*
D39*
X-13250000Y-44150000D03*
X-11250000Y-45100000D03*
X-11250000Y-43200000D03*
G36*
G01*
X16880000Y-28510000D02*
X17220000Y-28510000D01*
G75*
G02*
X17360000Y-28650000I0J-140000D01*
G01*
X17360000Y-28930000D01*
G75*
G02*
X17220000Y-29070000I-140000J0D01*
G01*
X16880000Y-29070000D01*
G75*
G02*
X16740000Y-28930000I0J140000D01*
G01*
X16740000Y-28650000D01*
G75*
G02*
X16880000Y-28510000I140000J0D01*
G01*
G37*
G36*
G01*
X16880000Y-27550000D02*
X17220000Y-27550000D01*
G75*
G02*
X17360000Y-27690000I0J-140000D01*
G01*
X17360000Y-27970000D01*
G75*
G02*
X17220000Y-28110000I-140000J0D01*
G01*
X16880000Y-28110000D01*
G75*
G02*
X16740000Y-27970000I0J140000D01*
G01*
X16740000Y-27690000D01*
G75*
G02*
X16880000Y-27550000I140000J0D01*
G01*
G37*
X22336300Y12763500D03*
X24336300Y11813500D03*
X24336300Y13713500D03*
D33*
X53670000Y-2630000D03*
D34*
X53670000Y-1830000D03*
D33*
X53670000Y-230000D03*
D34*
X53670000Y-1030000D03*
D33*
X55470000Y-2630000D03*
D34*
X55470000Y-1030000D03*
X55470000Y-1830000D03*
D33*
X55470000Y-230000D03*
D32*
X-8940000Y-39720000D03*
X-6840000Y-39720000D03*
G36*
G01*
X15825000Y-20935000D02*
X15625000Y-20935000D01*
G75*
G02*
X15525000Y-20835000I0J100000D01*
G01*
X15525000Y-19560000D01*
G75*
G02*
X15625000Y-19460000I100000J0D01*
G01*
X15825000Y-19460000D01*
G75*
G02*
X15925000Y-19560000I0J-100000D01*
G01*
X15925000Y-20835000D01*
G75*
G02*
X15825000Y-20935000I-100000J0D01*
G01*
G37*
G36*
G01*
X15175000Y-20935000D02*
X14975000Y-20935000D01*
G75*
G02*
X14875000Y-20835000I0J100000D01*
G01*
X14875000Y-19560000D01*
G75*
G02*
X14975000Y-19460000I100000J0D01*
G01*
X15175000Y-19460000D01*
G75*
G02*
X15275000Y-19560000I0J-100000D01*
G01*
X15275000Y-20835000D01*
G75*
G02*
X15175000Y-20935000I-100000J0D01*
G01*
G37*
G36*
G01*
X14525000Y-20935000D02*
X14325000Y-20935000D01*
G75*
G02*
X14225000Y-20835000I0J100000D01*
G01*
X14225000Y-19560000D01*
G75*
G02*
X14325000Y-19460000I100000J0D01*
G01*
X14525000Y-19460000D01*
G75*
G02*
X14625000Y-19560000I0J-100000D01*
G01*
X14625000Y-20835000D01*
G75*
G02*
X14525000Y-20935000I-100000J0D01*
G01*
G37*
G36*
G01*
X13875000Y-20935000D02*
X13675000Y-20935000D01*
G75*
G02*
X13575000Y-20835000I0J100000D01*
G01*
X13575000Y-19560000D01*
G75*
G02*
X13675000Y-19460000I100000J0D01*
G01*
X13875000Y-19460000D01*
G75*
G02*
X13975000Y-19560000I0J-100000D01*
G01*
X13975000Y-20835000D01*
G75*
G02*
X13875000Y-20935000I-100000J0D01*
G01*
G37*
G36*
G01*
X13225000Y-20935000D02*
X13025000Y-20935000D01*
G75*
G02*
X12925000Y-20835000I0J100000D01*
G01*
X12925000Y-19560000D01*
G75*
G02*
X13025000Y-19460000I100000J0D01*
G01*
X13225000Y-19460000D01*
G75*
G02*
X13325000Y-19560000I0J-100000D01*
G01*
X13325000Y-20835000D01*
G75*
G02*
X13225000Y-20935000I-100000J0D01*
G01*
G37*
G36*
G01*
X12575000Y-20935000D02*
X12375000Y-20935000D01*
G75*
G02*
X12275000Y-20835000I0J100000D01*
G01*
X12275000Y-19560000D01*
G75*
G02*
X12375000Y-19460000I100000J0D01*
G01*
X12575000Y-19460000D01*
G75*
G02*
X12675000Y-19560000I0J-100000D01*
G01*
X12675000Y-20835000D01*
G75*
G02*
X12575000Y-20935000I-100000J0D01*
G01*
G37*
G36*
G01*
X11925000Y-20935000D02*
X11725000Y-20935000D01*
G75*
G02*
X11625000Y-20835000I0J100000D01*
G01*
X11625000Y-19560000D01*
G75*
G02*
X11725000Y-19460000I100000J0D01*
G01*
X11925000Y-19460000D01*
G75*
G02*
X12025000Y-19560000I0J-100000D01*
G01*
X12025000Y-20835000D01*
G75*
G02*
X11925000Y-20935000I-100000J0D01*
G01*
G37*
G36*
G01*
X11275000Y-20935000D02*
X11075000Y-20935000D01*
G75*
G02*
X10975000Y-20835000I0J100000D01*
G01*
X10975000Y-19560000D01*
G75*
G02*
X11075000Y-19460000I100000J0D01*
G01*
X11275000Y-19460000D01*
G75*
G02*
X11375000Y-19560000I0J-100000D01*
G01*
X11375000Y-20835000D01*
G75*
G02*
X11275000Y-20935000I-100000J0D01*
G01*
G37*
G36*
G01*
X10625000Y-20935000D02*
X10425000Y-20935000D01*
G75*
G02*
X10325000Y-20835000I0J100000D01*
G01*
X10325000Y-19560000D01*
G75*
G02*
X10425000Y-19460000I100000J0D01*
G01*
X10625000Y-19460000D01*
G75*
G02*
X10725000Y-19560000I0J-100000D01*
G01*
X10725000Y-20835000D01*
G75*
G02*
X10625000Y-20935000I-100000J0D01*
G01*
G37*
G36*
G01*
X9975000Y-20935000D02*
X9775000Y-20935000D01*
G75*
G02*
X9675000Y-20835000I0J100000D01*
G01*
X9675000Y-19560000D01*
G75*
G02*
X9775000Y-19460000I100000J0D01*
G01*
X9975000Y-19460000D01*
G75*
G02*
X10075000Y-19560000I0J-100000D01*
G01*
X10075000Y-20835000D01*
G75*
G02*
X9975000Y-20935000I-100000J0D01*
G01*
G37*
G36*
G01*
X9975000Y-26660000D02*
X9775000Y-26660000D01*
G75*
G02*
X9675000Y-26560000I0J100000D01*
G01*
X9675000Y-25285000D01*
G75*
G02*
X9775000Y-25185000I100000J0D01*
G01*
X9975000Y-25185000D01*
G75*
G02*
X10075000Y-25285000I0J-100000D01*
G01*
X10075000Y-26560000D01*
G75*
G02*
X9975000Y-26660000I-100000J0D01*
G01*
G37*
G36*
G01*
X10625000Y-26660000D02*
X10425000Y-26660000D01*
G75*
G02*
X10325000Y-26560000I0J100000D01*
G01*
X10325000Y-25285000D01*
G75*
G02*
X10425000Y-25185000I100000J0D01*
G01*
X10625000Y-25185000D01*
G75*
G02*
X10725000Y-25285000I0J-100000D01*
G01*
X10725000Y-26560000D01*
G75*
G02*
X10625000Y-26660000I-100000J0D01*
G01*
G37*
G36*
G01*
X11275000Y-26660000D02*
X11075000Y-26660000D01*
G75*
G02*
X10975000Y-26560000I0J100000D01*
G01*
X10975000Y-25285000D01*
G75*
G02*
X11075000Y-25185000I100000J0D01*
G01*
X11275000Y-25185000D01*
G75*
G02*
X11375000Y-25285000I0J-100000D01*
G01*
X11375000Y-26560000D01*
G75*
G02*
X11275000Y-26660000I-100000J0D01*
G01*
G37*
G36*
G01*
X11925000Y-26660000D02*
X11725000Y-26660000D01*
G75*
G02*
X11625000Y-26560000I0J100000D01*
G01*
X11625000Y-25285000D01*
G75*
G02*
X11725000Y-25185000I100000J0D01*
G01*
X11925000Y-25185000D01*
G75*
G02*
X12025000Y-25285000I0J-100000D01*
G01*
X12025000Y-26560000D01*
G75*
G02*
X11925000Y-26660000I-100000J0D01*
G01*
G37*
G36*
G01*
X12575000Y-26660000D02*
X12375000Y-26660000D01*
G75*
G02*
X12275000Y-26560000I0J100000D01*
G01*
X12275000Y-25285000D01*
G75*
G02*
X12375000Y-25185000I100000J0D01*
G01*
X12575000Y-25185000D01*
G75*
G02*
X12675000Y-25285000I0J-100000D01*
G01*
X12675000Y-26560000D01*
G75*
G02*
X12575000Y-26660000I-100000J0D01*
G01*
G37*
G36*
G01*
X13225000Y-26660000D02*
X13025000Y-26660000D01*
G75*
G02*
X12925000Y-26560000I0J100000D01*
G01*
X12925000Y-25285000D01*
G75*
G02*
X13025000Y-25185000I100000J0D01*
G01*
X13225000Y-25185000D01*
G75*
G02*
X13325000Y-25285000I0J-100000D01*
G01*
X13325000Y-26560000D01*
G75*
G02*
X13225000Y-26660000I-100000J0D01*
G01*
G37*
G36*
G01*
X13875000Y-26660000D02*
X13675000Y-26660000D01*
G75*
G02*
X13575000Y-26560000I0J100000D01*
G01*
X13575000Y-25285000D01*
G75*
G02*
X13675000Y-25185000I100000J0D01*
G01*
X13875000Y-25185000D01*
G75*
G02*
X13975000Y-25285000I0J-100000D01*
G01*
X13975000Y-26560000D01*
G75*
G02*
X13875000Y-26660000I-100000J0D01*
G01*
G37*
G36*
G01*
X14525000Y-26660000D02*
X14325000Y-26660000D01*
G75*
G02*
X14225000Y-26560000I0J100000D01*
G01*
X14225000Y-25285000D01*
G75*
G02*
X14325000Y-25185000I100000J0D01*
G01*
X14525000Y-25185000D01*
G75*
G02*
X14625000Y-25285000I0J-100000D01*
G01*
X14625000Y-26560000D01*
G75*
G02*
X14525000Y-26660000I-100000J0D01*
G01*
G37*
G36*
G01*
X15175000Y-26660000D02*
X14975000Y-26660000D01*
G75*
G02*
X14875000Y-26560000I0J100000D01*
G01*
X14875000Y-25285000D01*
G75*
G02*
X14975000Y-25185000I100000J0D01*
G01*
X15175000Y-25185000D01*
G75*
G02*
X15275000Y-25285000I0J-100000D01*
G01*
X15275000Y-26560000D01*
G75*
G02*
X15175000Y-26660000I-100000J0D01*
G01*
G37*
G36*
G01*
X15825000Y-26660000D02*
X15625000Y-26660000D01*
G75*
G02*
X15525000Y-26560000I0J100000D01*
G01*
X15525000Y-25285000D01*
G75*
G02*
X15625000Y-25185000I100000J0D01*
G01*
X15825000Y-25185000D01*
G75*
G02*
X15925000Y-25285000I0J-100000D01*
G01*
X15925000Y-26560000D01*
G75*
G02*
X15825000Y-26660000I-100000J0D01*
G01*
G37*
D33*
X13358700Y383540D03*
D34*
X13358700Y-416460D03*
D33*
X13358700Y-2016460D03*
D34*
X13358700Y-1216460D03*
D33*
X11558700Y383540D03*
D34*
X11558700Y-1216460D03*
X11558700Y-416460D03*
D33*
X11558700Y-2016460D03*
D25*
X6347980Y15640100D03*
X6347980Y17540100D03*
X4147980Y17540100D03*
X4147980Y16590100D03*
X4147980Y15640100D03*
M02*
